<?xml version="1.0" encoding="UTF-8"?>
<svg width="127px" height="83px" viewBox="0 0 127 83" version="1.1" xmlns="http://www.w3.org/2000/svg" xmlns:xlink="http://www.w3.org/1999/xlink">
    <!-- Generator: Sketch 47.1 (45422) - http://www.bohemiancoding.com/sketch -->
    <title>noun_1184115_cc</title>
    <desc>Created with Sketch.</desc>
    <defs></defs>
    <g id="Page-1" stroke="none" stroke-width="1" fill="none" fill-rule="evenodd">
        <g id="noun_1184115_cc" fill-rule="nonzero" fill="#000000">
            <path d="M126.973189,43.0242466 C126.804117,40.887903 125.851165,38.8898838 124.145073,37.1224053 L124.145073,37.1224053 C122.976938,35.9082244 114.922956,28.4387065 98.4768459,31.0822396 L97.4624129,19.4015119 L97.4316725,19.1863406 C96.4940906,14.6216352 95.8024317,11.8858859 94.6957776,10.0415604 C93.4507918,6.58345028 87.6562279,4.216566 82.9529479,2.83332194 C79.9711299,1.95726736 76.7280185,1.26564533 73.3004648,0.789194601 C68.4434828,0.112941948 61.3885629,-0.286661892 56.2088068,0.773825222 L50.96757,0.174419462 C49.9992476,0.0822031915 48.8772233,-0.0253824578 47.678348,0.00535629916 C35.7971865,0.358852004 29.403185,14.8829147 26.1600736,26.6404892 C25.8834101,26.6251198 25.5913764,26.6251198 25.330083,26.6251198 C10.6515458,26.6097504 0,37.8908742 0,53.4446852 C0,62.4818798 3.41218351,70.9196685 9.34507918,76.6063386 C13.6641043,80.7560707 19.0283027,83 24.5308328,83 C24.8228666,83 25.0995301,83 25.3915638,82.9846306 L25.5298956,82.9692612 C29.4492956,82.5235493 32.4003732,81.4938009 34.9057151,80.0029712 C79.7866875,57.9940212 94.5420757,58.8547064 100.106087,59.1774634 C101.043669,59.2389409 101.796808,59.2696797 102.488467,59.2235715 C110.250416,58.6241658 117.336076,56.195804 121.931765,52.5532613 C124.867472,50.2171157 126.604305,47.5121051 126.942449,44.7148782 C127.00393,44.1462112 127.0193,43.5775442 126.973189,43.0242466 Z M46.5563237,3.90917843 C46.2796602,4.58543108 46.1413284,5.27705311 46.1720688,6.01478328 C46.2796602,9.51900157 47.8627904,10.917615 50.5064641,12.0395796 C54.0723496,13.5457787 66.3685064,13.5457787 66.3685064,13.5457787 C66.3685064,13.5457787 50.5372045,9.76491162 53.3038398,5.95330576 C54.4104939,4.4317373 60.7276444,2.87943007 72.7471377,4.55469232 C75.9595087,5.0004043 79.1103989,5.66128757 81.8770342,6.47586463 C88.1327039,8.32019005 90.8532286,10.4411643 91.114522,11.3479576 L91.1913729,11.609237 L91.3450749,11.8397777 C92.1904357,13.1769136 92.8359839,15.7743386 93.6813447,19.8318545 L94.726518,31.8353391 C89.9771275,32.9573037 84.6282992,34.8938454 78.6185526,37.9677211 C71.9478875,41.1030743 65.7690687,45.0222658 60.2357982,49.171998 C58.4528554,49.2181061 56.5930617,49.171998 54.6256766,49.0183042 C39.7626971,47.7733846 29.7259591,40.9032724 28.9420791,35.2319717 L28.6654156,33.2339525 L29.1111512,30.4674644 C29.7259591,27.9468863 30.4790987,25.2265064 31.4166806,22.5061264 C34.1679457,14.5294189 38.9941873,5.06188181 46.5563237,3.90917843 Z M25.1610109,79.1730248 C20.3808799,79.3420879 15.8159317,77.5131319 11.9887529,73.8552198 C6.87047762,68.9523881 3.82717881,61.313807 3.82717881,53.4446852 C3.82717881,39.9042628 12.6343011,30.452095 25.253232,30.4213563 L23.1628854,43.3008954 L23.1475152,43.4545892 C22.978443,45.6063022 23.4549191,51.1546478 31.3705701,56.3802365 C35.6895951,59.2389409 41.791563,60.4684912 46.5716939,61.0064194 C41.007683,66.554765 36.9806916,71.5805518 35.0440469,74.6697969 C34.8442344,74.9618151 33.9066524,75.8839778 32.9690704,76.6985548 C30.8479834,77.9742132 28.4194924,78.8041597 25.1610109,79.1730248 Z M123.14601,44.2537969 C122.930828,46.0212754 121.685842,47.8656008 119.549385,49.5716018 C115.599244,52.706955 109.113021,54.9047762 102.196433,55.427335 C101.750698,55.4580738 101.12052,55.427335 100.33664,55.3812269 C94.3422631,55.0277312 80.77038,54.2438929 41.0845339,72.8254715 C47.7705692,64.3723133 62.4029958,49.8328813 80.293904,41.3950925 C90.7456373,36.0465488 98.9994325,34.3405478 105.285843,34.3405478 C116.229422,34.3405478 121.193996,39.5200283 121.255476,39.5968752 L121.393808,39.7659384 C122.485092,40.887903 123.069159,42.0867145 123.176751,43.3162648 C123.192121,43.6236524 123.192121,43.9310399 123.14601,44.2537969 Z" id="Shape"></path>
        </g>
    </g>
</svg>