<?xml version="1.0" encoding="UTF-8"?>
<svg width="62px" height="61px" viewBox="0 0 62 61" version="1.1" xmlns="http://www.w3.org/2000/svg" xmlns:xlink="http://www.w3.org/1999/xlink">
    <!-- Generator: Sketch 51.3 (57544) - http://www.bohemiancoding.com/sketch -->
    <title>alohaShirt</title>
    <desc>Created with Sketch.</desc>
    <defs></defs>
    <g id="Page-1" stroke="none" stroke-width="1" fill="none" fill-rule="evenodd">
        <g id="noun_hawaiian_2618820" fill="lightsalmon" fill-rule="nonzero">
            <path d="M31.38,50.08 C31.1365386,49.979982 30.8634614,49.979982 30.62,50.08 C30.4988151,50.1306419 30.3872009,50.2016691 30.29,50.29 C30.1072663,50.4816338 30.0036835,50.735233 30,51 C29.9949422,51.0665707 29.9949422,51.1334293 30,51.2 C30.0107984,51.2626849 30.0310278,51.323373 30.06,51.38 C30.0818883,51.4437243 30.1121536,51.5042548 30.15,51.56 C30.1869597,51.6123582 30.2270319,51.6624485 30.27,51.71 C30.3651037,51.8010406 30.4772487,51.8724056 30.6,51.92 C30.8420399,52.0269768 31.1179601,52.0269768 31.36,51.92 C31.6690463,51.7932621 31.8944082,51.520589 31.960688,51.1932068 C32.0269678,50.8658246 31.925413,50.5269659 31.69,50.29 C31.5987206,50.2036745 31.4940236,50.1327508 31.38,50.08 Z" id="Shape"></path>
            <path d="M31.56,20.17 C31.5042548,20.1321536 31.4437243,20.1018883 31.38,20.08 C31.3245658,20.0440604 31.2638235,20.0170638 31.2,20 C31.004999,19.9619385 30.8030801,19.9828267 30.62,20.06 C30.3695258,20.1521096 30.1721096,20.3495258 30.08,20.6 C30.026133,20.7264203 29.9988998,20.8625862 30,21 C29.9949422,21.0665707 29.9949422,21.1334293 30,21.2 C30.0107984,21.2626849 30.0310278,21.323373 30.06,21.38 C30.0818883,21.4437243 30.1121536,21.5042548 30.15,21.56 L30.27,21.71 C30.4666496,21.8974714 30.7283116,22.0014193 31,22 L31.2,22 L31.38,21.94 C31.4437243,21.9181117 31.5042548,21.8878464 31.56,21.85 L31.71,21.73 C31.7529865,21.6824642 31.7930597,21.6323728 31.83,21.58 C31.8678464,21.5242548 31.8981117,21.4637243 31.92,21.4 C31.9576044,21.3382467 31.9846423,21.270652 32,21.2 C32.0048373,21.1334211 32.0048373,21.0665789 32,21 C31.9963165,20.735233 31.8927337,20.4816338 31.71,20.29 L31.56,20.17 Z" id="Shape"></path>
            <path d="M30.62,40.08 C30.4988151,40.1306419 30.3872009,40.2016691 30.29,40.29 C30.1072663,40.4816338 30.0036835,40.735233 30,41 C30.00158,41.1306773 30.028759,41.2597777 30.08,41.38 C30.1709238,41.6312303 30.3687697,41.8290762 30.62,41.92 C30.7402223,41.971241 30.8693227,41.99842 31,42 C31.264767,41.9963165 31.5183662,41.8927337 31.71,41.71 C31.7981751,41.6126801 31.8691844,41.5010941 31.92,41.38 C31.971241,41.2597777 31.99842,41.1306773 32,41 C31.9963165,40.735233 31.8927337,40.4816338 31.71,40.29 C31.4224393,40.0062554 30.9923971,39.9234033 30.62,40.08 Z" id="Shape"></path>
            <path d="M26.76,20 C26.7525023,18.583001 25.9489959,17.2905586 24.6815758,16.6568485 C23.4141556,16.0231384 21.8980978,16.1557987 20.76,17 C19.4180699,16.5688006 17.9476828,16.9243392 16.951011,17.921011 C15.9543392,18.9176828 15.5988006,20.3880699 16.03,21.73 C15.1857987,22.8680978 15.0531384,24.3841556 15.6868485,25.6515758 C16.3205586,26.9189959 17.613001,27.7225023 19.03,27.73 C19.7276275,28.6918692 20.8417921,29.263807 22.03,29.27 C22.2296939,29.2856489 22.4303061,29.2856489 22.63,29.27 C24.0276791,29.0611847 25.1883035,28.0823915 25.63,26.74 C26.959137,26.2874826 27.9254146,25.1321148 28.1357499,23.7439015 C28.3460853,22.3556882 27.7654318,20.9659369 26.63,20.14 L26.76,20 Z M26.27,23.31 C26.1730682,23.9776849 25.696819,24.528104 25.05,24.72 L24.11,25.01 L23.82,25.95 C23.6232727,26.5918033 23.0785944,27.0658118 22.4157745,27.1720329 C21.7529547,27.278254 21.0874311,26.9981881 20.7,26.45 L20.13,25.65 L19.13,25.65 C18.4472476,25.6663055 17.8210188,25.2724509 17.54,24.65 C17.2298238,24.0545319 17.2921943,23.3333724 17.7,22.8 L18.29,22.01 L18,21.09 C17.786364,20.4562534 17.9503772,19.7561837 18.4232805,19.2832805 C18.8961837,18.8103772 19.5962534,18.646364 20.23,18.86 L21.16,19.18 L21.95,18.59 C22.4835674,18.1933592 23.1951048,18.1312351 23.7893361,18.4294082 C24.3835675,18.7275812 24.7590636,19.3351563 24.76,20 L24.76,21 L25.56,21.57 C26.1111062,21.956402 26.3880742,22.6273666 26.27,23.29 L26.27,23.31 Z" id="Shape"></path>
            <path d="M30.62,30.08 C30.4988151,30.1306419 30.3872009,30.2016691 30.29,30.29 C30.1006873,30.4777666 29.9942017,30.7333625 29.9942017,31 C29.9942017,31.2666375 30.1006873,31.5222334 30.29,31.71 C30.3873199,31.7981751 30.4989059,31.8691844 30.62,31.92 C30.7386794,31.9759814 30.8688235,32.0033801 31,32 C31.4062651,32.0023626 31.77358,31.7586962 31.929371,31.3834815 C32.0851619,31.0082668 31.9984599,30.5760905 31.71,30.29 C31.4224393,30.0062554 30.9923971,29.9234033 30.62,30.08 Z" id="Shape"></path>
            <path d="M42.84,33 C42.1961588,31.7457942 40.9048099,30.9571415 39.495,30.9571415 C38.0851901,30.9571415 36.7938412,31.7457942 36.15,33 C34.7588423,33.2246164 33.6100638,34.2082517 33.173936,35.5482386 C32.7378082,36.8882255 33.0875543,38.3595881 34.08,39.36 C33.8652743,40.7520791 34.446605,42.1474193 35.5861992,42.9752576 C36.7257934,43.8030959 38.2324994,43.9245735 39.49,43.29 C40.7475006,43.9245735 42.2542066,43.8030959 43.3938008,42.9752576 C44.533395,42.1474193 45.1147257,40.7520791 44.9,39.36 C45.8921152,38.3609704 46.242953,36.8913761 45.8091056,35.5519249 C45.3752582,34.2124738 44.229435,33.227647 42.84,33 Z M43.46,38 L42.76,38.69 L42.93,39.69 C43.0471611,40.3528722 42.7759656,41.0245115 42.2313838,41.4201842 C41.686802,41.8158569 40.9642324,41.86625 40.37,41.55 L39.5,41.09 L38.63,41.55 C38.0357676,41.86625 37.313198,41.8158569 36.7686162,41.4201842 C36.2240344,41.0245115 35.9528389,40.3528722 36.07,39.69 L36.24,38.69 L35.54,38 C35.0604056,37.5288725 34.8910968,36.8256867 35.1036932,36.1878977 C35.3162895,35.5501088 35.8736479,35.0891454 36.54,35 L37.54,34.86 L37.98,33.98 C38.2757665,33.3773064 38.8886451,32.9953709 39.56,32.9953709 C40.2313549,32.9953709 40.8442335,33.3773064 41.14,33.98 L41.58,34.86 L42.58,35 C43.2463521,35.0891454 43.8037105,35.5501088 44.0163068,36.1878977 C44.2289032,36.8256867 44.0595944,37.5288725 43.58,38 L43.46,38 Z" id="Shape"></path>
            <path d="M61.16,29.18 L56.39,17.86 L53.07,10 C53.0183417,9.85222389 52.9327109,9.71863984 52.82,9.61 C52.6969721,9.40288577 52.516279,9.2360922 52.3,9.13 L43.75,5.63 C43.7287248,5.59527234 43.7053479,5.56187681 43.68,5.53 L39.51,1.36 C39.344634,1.20557758 39.1345735,1.10754936 38.91,1.08 C38.7860808,1.02939575 38.6538343,1.00226826 38.52,1 L23.52,1 C23.420478,0.986172755 23.319522,0.986172755 23.22,1 L22.85,1 L18.32,5.53 C18.2946521,5.56187681 18.2712752,5.59527234 18.25,5.63 L9.63,9.13 C9.44677094,9.22585907 9.29427311,9.37142518 9.19,9.55 C9.08353388,9.64612135 9.00129781,9.76604895 8.95,9.9 L0.69,29.54 L13,34.67 L13,61 L28.31,61 L31,59.17 L33.69,61 L49,61 L49,34.67 L61.31,29.54 L61.16,29.18 Z M54.54,23 C54.1037671,22.5770866 53.9165144,21.9590801 54.0446536,21.365165 C54.1727928,20.7712498 54.5982005,20.2854269 55.17,20.08 L57.63,25.9 L57.84,26.4 L57.64,26.5 C57.0440254,26.8181585 56.3185312,26.7670986 55.7729945,26.3686011 C55.2274578,25.9701036 54.9581691,25.2945057 55.08,24.63 L55.23,23.63 L54.54,23 Z M47.54,25.3 L46.68,25.78 C46.0817811,26.0914459 45.3585559,26.0358593 44.8149572,25.636654 C44.2713585,25.2374487 44.0018684,24.56401 44.12,23.9 L44.27,22.9 L43.58,22.23 C43.1082632,21.7558826 42.9440556,21.0563522 43.1555557,20.4218519 C43.3670558,19.7873516 43.9181401,19.3262518 44.58,19.23 L45.58,19.1 L46.01,18.2 C46.3110541,17.6037857 46.922089,17.2278095 47.59,17.2278095 C48.257911,17.2278095 48.8689459,17.6037857 49.17,18.2 L49.29,18.44 L47.82,25.44 L47.54,25.3 Z M34.54,14.92 L32.26,11.49 L38.83,3.49 L41.7,6.36 L34.54,14.92 Z M36.62,3 L31.9,8.77 L31,9.87 L28.36,6.65 L25.38,3 L36.62,3 Z M23.19,3.49 L25.84,6.73 L29.75,11.51 L27.47,14.94 L20.32,6.36 L23.19,3.49 Z M5.53,26 C6.19538017,26.0095171 6.79706134,26.3976985 7.08,27 L7.51,27.88 L8.51,28.03 C9.17635205,28.1191454 9.73371053,28.5801088 9.94630685,29.2178977 C10.1589032,29.8556867 9.98959442,30.5588725 9.51,31.03 L4,28.75 L3.31,28.46 L4,26.9 C4.30384175,26.3396798 4.89263511,25.9933308 5.53,26 Z M11.36,31.81 C12.080682,30.7489774 12.2090856,29.3932161 11.700409,28.2157614 C11.1917323,27.0383067 10.1165465,26.2025125 8.85,26 C8.20709693,24.781401 6.94772493,24.0134912 5.57,24 L5.18,24 L9.66,13.35 L13,29.52 L13,32.52 L11.36,31.81 Z M18.24,41.33 C18.7874534,41.7172193 19.0690856,42.3805551 18.9674411,43.0433616 C18.8657967,43.7061681 18.3983303,44.2546261 17.76,44.46 L16.76,44.74 L16.48,45.69 C16.338591,46.1249242 16.0288565,46.4850807 15.62,46.69 C15.4087295,46.8008306 15.1776325,46.8688003 14.94,46.89 L14.94,38.14 C15.4914107,37.9007317 16.1268,37.9594197 16.6250554,38.2956408 C17.1233108,38.6318619 17.4155217,39.1991155 17.4,39.8 L17.4,40.8 L18.24,41.33 Z M17.65,59 L17.65,58.93 C17.4367849,58.2930401 17.6047106,57.5902607 18.0828499,57.1184966 C18.5609893,56.6467324 19.2659593,56.4882547 19.9,56.71 L20.83,57.01 L21.6,56.43 C22.1382889,56.0333398 22.8541612,55.9738746 23.4505195,56.2762833 C24.0468778,56.5786919 24.4219207,57.1913517 24.42,57.86 L24.42,58.86 L24.65,59.02 L17.65,59 Z M47,59 L42,59 C41.9901192,58.8835425 41.9901192,58.7664575 42,58.65 L42.15,57.65 L41.54,57 C41.0604056,56.5288725 40.8910968,55.8256867 41.1036932,55.1878977 C41.3162895,54.5501088 41.8736479,54.0891454 42.54,54 L43.54,53.85 L43.97,52.98 C44.2633774,52.4325478 44.8222374,52.0789273 45.442585,52.048217 C46.0629326,52.0175067 46.6539864,52.3142008 47,52.83 L47,59 Z M47,50.31 C45.1902828,49.5146876 43.0735814,50.2522598 42.15,52 C40.760565,52.227647 39.6147418,53.2124738 39.1808944,54.5519249 C38.747047,55.8913761 39.0978848,57.3609704 40.09,58.36 C40.0747494,58.5597093 40.0747494,58.7602907 40.09,58.96 L34.31,58.96 L31,56.75 L27.69,59 L27.44,59 C27.1940249,58.5402656 26.8531636,58.1380492 26.44,57.82 C26.4251562,56.4063566 25.6206739,55.1198293 24.3562031,54.4875938 C23.0917322,53.8553584 21.5798211,53.983689 20.44,54.82 C19.1960558,54.4251455 17.8363309,54.7035898 16.8477248,55.5556256 C15.8591186,56.4076614 15.3830527,57.7114039 15.59,59 L15,59 L15,48.91 C15.5568971,48.8919725 16.1030628,48.7520176 16.6,48.5 C17.4643626,48.0487635 18.1176679,47.2770018 18.42,46.35 C19.7486429,45.8939636 20.7135519,44.7370517 20.9236765,43.3481281 C21.1338011,41.9592044 20.554289,40.5686434 19.42,39.74 C19.4156865,38.330503 18.6192993,37.0431394 17.36,36.41 C16.6201733,36.0322816 15.7743163,35.9159763 14.96,36.08 L14.96,29 L11.17,10.67 L18.75,7.59 L26.75,17.16 C26.9558592,17.405723 27.2594456,17.548372 27.58,17.55 L27.64,17.55 L28.21,17.49 L31,13.26 L33.54,17.07 L33.89,17.52 L34.39,17.52 L35,17.52 L43.3,7.52 L50.88,10.6 L49.71,16 C48.8233605,15.3517485 47.6976005,15.1235895 46.6285292,15.375475 C45.5594579,15.6273605 44.6539718,16.3341044 44.15,17.31 C42.7649053,17.5442303 41.6249154,18.5291331 41.1920542,19.8655396 C40.759193,21.201946 41.1052606,22.668182 42.09,23.67 C41.9014805,25.0059362 42.4431781,26.3404721 43.5094839,27.1670657 C44.5757897,27.9936594 46.0032301,28.1855871 47.25,27.67 L47,28.79 L47,35.5 L47,50.31 Z M49,32.5 L49,29.5 L49.29,28.1 L49.49,27.1 L51.28,18.43 L51.49,17.43 L52.32,13.43 L54.38,18.31 C53.2006353,18.7683976 52.3319642,19.790631 52.0698731,21.0285073 C51.807782,22.2663836 52.1876175,23.5529588 53.08,24.45 C52.8652743,25.8420791 53.446605,27.2374193 54.5861992,28.0652576 C55.7257934,28.8930959 57.2324994,29.0145735 58.49,28.38 L58.65,28.44 L58.65,28.51 L49,32.5 Z" id="Shape"></path>
        </g>
    </g>
</svg>