<svg>
<g fill="#eecc33" opacity="0.8">
    <path d="M140.52344,194.129626 L124.394167,186.066081 C137.013092,175.436861 144.454855,159.152688 144.511579,141.437322 C144.596665,114.246854 128.969182,104.496858 115.540847,104.40959 L115.174322,104.40959 C110.592762,104.40959 106.386454,104.957196 102.575032,105.984774 C101.615086,104.420499 100.591871,102.897675 99.4661165,101.44903 C97.1557011,98.4797426 94.1689603,95.340283 90.3749923,92.4320833 C97.5222259,89.2053558 105.817031,87.5472674 115.148142,87.5472674 L115.667385,87.5472674 C142.678955,87.7239849 161.474259,109.905281 161.373901,141.489683 C161.306269,161.412924 153.724878,180.450397 140.52344,194.129626 M142.822947,211.026856 C141.583744,214.273219 138.415922,216.454914 134.940482,216.454914 C133.917266,216.454914 132.907142,216.267288 131.936287,215.898582 C131.41268,215.700048 126.636949,213.856515 119.760246,210.398528 L92.8097641,193.34858 C78.6200182,181.986311 69.736155,169.749182 66.406888,156.975356 C62.1525823,140.62355 62.8921769,125.764024 68.5253142,113.795243 C71.5316903,115.112987 74.2718995,117.004517 76.3772354,119.677094 C76.3903257,119.692366 76.4012341,119.709819 76.4143243,119.725091 C76.4601399,119.78836 76.5037737,119.849448 76.5474076,119.910535 C76.9597481,120.451595 77.3044559,121.042835 77.6578905,121.629711 C77.790974,121.854426 77.9349659,122.07914 78.0615041,122.306036 C78.1160466,122.408576 78.1705889,122.515479 78.2229496,122.622382 C78.3320344,122.827462 78.4236657,123.036904 78.5262052,123.246347 C78.7094676,123.632507 78.8774581,124.038303 79.0367219,124.44628 C79.315979,125.161876 79.5756006,125.905834 79.7915886,126.715243 C79.8046787,126.761058 79.8155872,126.811237 79.8286773,126.859234 C80.3239222,128.759491 80.6359046,130.910643 80.6795385,133.358505 C80.2257458,139.255627 80.9151615,145.763624 82.7281503,152.725414 C86.8668263,168.634336 103.40844,181.477976 116.559699,189.44989 C116.583698,189.465162 116.614241,189.469525 116.640422,189.484797 C116.692782,189.515341 116.738598,189.55243 116.790959,189.580792 L139.513315,200.943061 C142.842582,203.085486 144.236685,207.311429 142.822947,211.026856 M90.0499197,199.34606 L110.76948,212.453685 C102.49431,215.095718 93.5144517,216.452732 83.9586266,216.452732 C74.4028013,216.452732 65.4229434,215.095718 57.1477733,212.453685 L77.8673332,199.34606 C79.8657661,199.498779 81.9034695,199.592591 83.9586266,199.592591 C86.0181468,199.592591 88.0536685,199.498779 90.0499197,199.34606 M35.9766024,215.900764 C35.0122931,216.267288 34.0021682,216.454914 32.9767714,216.454914 C29.5013308,216.454914 26.3356911,214.273219 25.0964881,211.026856 C23.6805679,207.311429 25.0746712,203.085486 28.4061199,200.943061 L51.1022957,189.556793 C51.150293,189.532795 51.1917453,189.497887 51.2375609,189.471707 C51.2681046,189.452072 51.3030117,189.447708 51.3335554,189.430255 C58.0335416,185.35703 63.8041257,181.218354 68.5645847,177.088405 C71.4815112,181.467067 75.026766,185.745372 79.1807138,189.91241 C77.8651515,191.068708 76.5125005,192.220643 75.0965803,193.357306 L48.157007,210.398528 C41.2824854,213.856515 36.5045727,215.700048 35.9766024,215.900764 M60.0756083,158.624718 C61.2013631,162.944474 62.9074488,167.190053 65.1305964,171.357091 C60.9177427,175.124879 55.8016674,178.929755 49.7670982,182.70627 C37.3750691,173.405703 30.0074841,158.133836 29.9507601,141.415505 C29.9071262,127.430839 35.758433,111.063761 52.3785875,110.954676 L52.7429306,110.954676 C55.6576754,110.954676 58.9542171,111.177209 62.2354866,111.844808 C56.2881854,125.061518 55.5202286,141.129703 60.0756083,158.624718 M6.54553327,141.489683 C6.44517528,109.905281 25.2382983,87.7239849 52.2607759,87.5472674 C65.4774859,87.3792769 75.2034833,90.5536435 82.3267184,94.853765 C87.0915409,97.7248759 94.2016858,104.435771 98.7134315,112.453501 C104.887629,124.551001 105.923934,140.027947 101.510365,156.975356 C100.692229,160.119179 99.505387,163.258638 98.0021989,166.352282 C93.4140938,161.212208 90.3553571,156.050317 89.05943,151.078234 C87.5496969,145.270561 86.9039151,139.875229 87.1351747,134.996958 C87.1373566,134.988231 87.1373566,134.977323 87.1395383,134.968596 C87.1875355,134.770062 87.2158975,134.567164 87.226806,134.359903 C87.2289877,134.322814 87.2246243,134.287907 87.226806,134.255182 C87.226806,134.244273 87.2311694,134.235546 87.2311694,134.224638 C87.2333511,134.091554 87.2311694,133.965016 87.2289877,133.834114 C87.2333511,133.735938 87.2289877,133.642125 87.2311694,133.546131 C87.255168,133.290872 87.2769849,133.039977 87.3031653,132.789082 C87.3118922,132.717086 87.2988019,132.64509 87.3031653,132.573095 C87.3075288,132.46401 87.3228007,132.357107 87.3162556,132.24584 C87.3118922,132.189116 87.3053471,132.141119 87.3009836,132.086576 C87.3009836,132.07785 87.3009836,132.069123 87.2988019,132.060396 C87.2486229,131.268441 87.1809904,130.491757 87.0871775,129.736891 C86.8624629,127.526833 86.389035,125.39968 85.6647122,123.348887 C85.5469006,122.997634 85.4116355,122.657289 85.2807337,122.316945 C85.1825576,122.068232 85.0952897,121.815155 84.9883867,121.568624 C84.6000448,120.63704 84.1658876,119.740363 83.6815512,118.878593 C83.5026522,118.555702 83.3150264,118.252447 83.1274006,117.944828 C82.9310479,117.630664 82.7281503,117.316499 82.5187076,117.00888 C82.1979984,116.535453 81.8729258,116.077296 81.534763,115.643139 C81.3493189,115.392244 81.1878735,115.139168 80.9937026,114.890454 C80.8453473,114.700647 80.6795385,114.534838 80.5006395,114.386483 C77.6098933,111.161937 74.3177151,109.20932 71.7564049,108.07702 C65.512393,105.184092 58.4807891,104.40959 52.7429306,104.40959 L52.3567704,104.40959 C38.9480715,104.496858 23.3205882,114.246854 23.4056743,141.437322 C23.46458,159.139598 30.8997976,175.417226 43.5034512,186.046446 L27.3916316,194.127445 C14.1923752,180.448215 6.61098413,161.410742 6.54553327,141.489683 M118.121793,182.725905 C112.21158,179.014842 107.093323,175.157604 102.836836,171.245825 C105.031621,167.113694 106.733343,162.883387 107.841645,158.624718 C112.381752,141.192972 111.570162,125.057154 105.714492,111.942984 C108.594329,111.299384 111.749061,110.954676 115.174322,110.954676 L115.51903,110.954676 C132.15882,111.063761 138.012308,127.430839 137.966493,141.415505 C137.911951,158.15129 130.533457,173.429702 118.121793,182.725905 M167.918987,141.5115 C168.030253,106.085132 146.562372,81.2028977 115.689202,81.0021817 L115.148142,81.0021817 C103.26663,81.0021817 92.8184909,83.4762241 84.0153506,88.295589 C76.3336015,84.0543734 66.2541693,81 53.0701849,81 C52.7843828,81 52.496399,81 52.2084153,81.0021817 C21.3570625,81.2028977 -0.113000699,106.085132 0.000447454943,141.5115 C0.0702617036,162.737213 8.02035926,183.085885 21.9264849,197.910504 C18.1914226,202.003365 16.9325845,207.985573 18.9811963,213.359089 C21.1825268,219.125309 26.8069372,223 32.9767714,223 C34.8028504,223 36.5983856,222.668382 38.306653,222.016055 C38.8346232,221.815339 43.3703677,220.069983 49.9023634,216.841074 C60.2370538,220.927389 71.684409,222.997818 83.9586266,222.997818 C96.2328441,222.997818 107.680199,220.927389 118.017071,216.841074 C124.549067,220.069983 129.084811,221.815339 129.606237,222.013874 C131.318867,222.668382 133.114403,223 134.940482,223 C141.114679,223 146.739089,219.125309 148.936057,213.356907 C150.98685,207.985573 149.728012,202.003365 145.99295,197.910504 C159.899075,183.085885 167.846991,162.737213 167.918987,141.5115"></path>
    <path d="M133.606242,166.168083 C132.444937,165.39135 132.128677,163.822702 132.905411,162.658866 C133.679614,161.49503 135.245732,161.183831 136.414628,161.958035 C144.786655,167.536855 155.597676,167.536855 163.969702,161.958035 C165.136068,161.183831 166.702186,161.49503 167.478919,162.658866 C168.255653,163.822702 167.939394,165.39135 166.778088,166.168083 C161.740704,169.525496 155.969597,171.202938 150.19343,171.202938 C144.417263,171.202938 138.646157,169.525496 133.606242,166.168083 Z M182.927572,227.509812 C182.927572,228.908945 181.796628,229.845073 180.397495,229.845073 L121.1279,229.845073 C119.728767,229.845073 118.481439,228.906415 118.481439,227.509812 C118.481439,226.943074 118.562402,222.082796 125.38349,218.591289 L136.619564,213.500773 C142.228746,211.013707 142.600668,205.075615 142.600668,201.758683 L142.600668,189.551059 C142.600668,188.627581 140.305887,186.347981 138.522183,184.490904 C135.106578,180.938676 131.392424,176.574292 128.611869,172.25292 C117.689525,160.725887 111,139.984312 111,114.225593 C111,73.6532706 123.910985,19.7955115 124.040019,19.256605 C124.040019,19.2540749 124.042549,19.2515448 124.042549,19.2490147 C124.0552,19.1731124 124.037489,19.0997402 124.05773,19.0238378 C124.153873,18.6746871 126.499255,10.4443451 132.799147,6.87187574 C136.498121,4.77191144 139.167352,4.44806153 140.933347,4.23553502 C141.548155,4.16216277 142.243927,4.07614014 142.415972,3.94963626 C144.794245,2.16340157 149.576091,-0.690525819 154.724799,0.151989979 C157.955708,0.685836325 160.688191,2.56315381 162.853938,5.72828073 C162.945021,5.86237483 162.972851,6.01670956 163.036103,6.16092397 C165.824249,5.90285607 169.244913,6.15333374 172.06342,8.10655355 C175.291799,10.343142 176.946469,14.1812696 177.019842,19.5020225 C177.94838,23.4084621 189.989019,75.0195124 189.989019,114.228123 C189.989019,139.706003 183.365276,160.280593 172.566905,171.878468 C170.034298,176.718506 165.285342,181.621797 161.793835,185.247398 C160.275789,186.816046 157.781132,188.749025 157.781132,189.5713 L157.781132,201.758683 C157.781132,205.075615 158.724851,211.011177 164.334033,213.500773 L175.782634,218.530567 C182.730226,222.082796 182.927572,226.943074 182.927572,227.509812 Z M125.778183,35.0291079 L175.238667,35.0291079 C174.047001,29.184629 173.05521,24.7468731 172.511243,22.3787206 L150.1909,22.3787206 L128.505606,22.3787206 C127.961639,24.7468731 126.969849,29.184629 125.778183,35.0291079 Z M130.162807,17.3185656 L150.1909,17.3185656 L171.812942,17.3185656 C171.466321,14.9327026 170.590915,13.2324905 169.189252,12.2609408 C165.692685,9.83965662 159.65086,12.0054029 159.590138,12.0281736 C158.282088,12.5190087 156.824763,11.8586584 156.331398,10.5506084 C155.855743,9.28303957 156.478143,7.88896689 157.70776,7.35765062 C156.576816,6.1128525 155.324427,5.37659996 153.902524,5.14130275 C150.489449,4.5745654 146.851198,6.94524799 145.457125,7.99270006 C144.202207,8.93641896 142.848615,9.09834392 141.540565,9.2577388 C140.012398,9.44243446 138.11484,9.6726715 135.298864,11.2691504 C132.844689,12.660693 131.174838,15.2540224 130.162807,17.3185656 Z M116.060155,114.223063 C116.060155,155.531638 133.254561,177.14356 150.238972,177.14356 C150.279453,177.14356 150.312344,177.1638 150.350295,177.16633 C150.388246,177.1638 150.421137,177.14356 150.461618,177.14356 C167.602893,177.14356 184.956695,155.531638 184.956695,114.223063 C184.954164,89.2891494 176.258288,40.0892629 176.258288,40.0892629 L124.890125,40.0892629 C124.847114,40.0892629 124.811693,40.0664922 124.771212,40.0664922 C121.003926,59.327972 116.060155,89.3498712 116.060155,114.223063 Z M176.478405,224.784918 C175.848416,224.784918 174.881926,223.580601 173.553635,222.902541 L162.28467,218.125754 C156.273206,215.459053 152.720978,209.49566 152.720978,201.758683 L152.720978,189.166488 C152.720978,186.358102 158.800754,181.128432 159.094243,180.822292 C154.618536,183.089242 147.291431,182.929847 142.34766,181.168913 C146.628551,185.621849 147.660823,187.304351 147.660823,189.166488 L147.660823,201.758683 C147.660823,209.49566 144.680391,215.36291 138.671457,218.027081 L127.794654,222.960732 C126.522025,223.616023 125.639028,224.784918 125.02928,224.784918 L176.478405,224.784918 Z"></path>
</g>
<g id="polygons" fill="#D05C5C" fill-rule="nonzero" opacity="0.3">
    <path d="M208.064516,149.112903 L208.064516,135.241935 L215,135.241935 L215,128.306452 L201.129032,128.306452 L201.129032,117.903226 L201.129032,110.967742 L201.129032,86.6935484 L204.596774,86.6935484 L204.596774,79.7580645 L200.77879,79.7580645 C199.395161,72.9751613 194.040968,67.6209677 187.258065,66.2373387 L187.258065,58.9516129 L180.322581,58.9516129 L180.322581,66.2373387 C173.539677,67.6209677 168.185484,72.9751613 166.801855,79.7580645 L162.983871,79.7580645 L162.983871,86.6935484 L166.451613,86.6935484 L166.451613,114.525645 C164.426452,112.992903 162.092661,111.845081 159.516129,111.321452 L159.516129,104.032258 L152.580645,104.032258 L152.580645,111.317984 C150.004113,111.845081 147.670323,112.989435 145.645161,114.522177 L145.645161,76.2903226 L145.468306,76.2903226 C144.029194,60.4045968 132.814516,47.3312097 117.903226,43.0901613 L117.903226,27.7419355 L110.967742,27.7419355 L110.967742,13.8709677 L117.903226,13.8709677 L117.903226,6.93548387 L110.967742,6.93548387 L110.967742,0 L104.032258,0 L104.032258,6.93548387 L97.0967742,6.93548387 L97.0967742,13.8709677 L104.032258,13.8709677 L104.032258,27.7419355 L97.0967742,27.7419355 L97.0967742,43.0901613 C82.1854839,47.3277419 70.9708065,60.4045968 69.5316935,76.2903226 L69.3548387,76.2903226 L69.3548387,114.525645 C67.3296774,112.992903 64.9958871,111.845081 62.4193548,111.321452 L62.4193548,104.032258 L55.483871,104.032258 L55.483871,111.317984 C52.9073387,111.845081 50.5735484,112.989435 48.5483871,114.522177 L48.5483871,86.6935484 L52.016129,86.6935484 L52.016129,79.7580645 L48.1981452,79.7580645 C46.8145161,72.9751613 41.4603226,67.6209677 34.6774194,66.2373387 L34.6774194,58.9516129 L27.7419355,58.9516129 L27.7419355,66.2373387 C20.9590323,67.6209677 15.6048387,72.9751613 14.2212097,79.7580645 L10.4032258,79.7580645 L10.4032258,86.6935484 L13.8709677,86.6935484 L13.8709677,110.967742 L13.8709677,117.903226 L13.8709677,128.306452 L0,128.306452 L0,135.241935 L6.93548387,135.241935 L6.93548387,149.112903 L10.4032258,149.112903 L10.4032258,208.064516 L0,208.064516 L0,215 L215,215 L215,208.064516 L204.596774,208.064516 L204.596774,149.112903 L208.064516,149.112903 Z M201.129032,142.177419 L169.919355,142.177419 L169.919355,135.241935 L201.129032,135.241935 L201.129032,142.177419 Z M183.790323,167.426048 L191.2425,173.387097 L176.338145,173.387097 L183.790323,167.426048 Z M110.967742,208.064516 L104.032258,208.064516 L104.032258,194.193548 L110.967742,194.193548 L110.967742,208.064516 Z M97.0967742,187.258065 L97.0967742,208.064516 L93.6290323,208.064516 L93.6290323,180.322581 L121.370968,180.322581 L121.370968,208.064516 L117.903226,208.064516 L117.903226,187.258065 L97.0967742,187.258065 Z M31.2096774,167.426048 L38.6618548,173.387097 L23.7575,173.387097 L31.2096774,167.426048 Z M107.5,48.5483871 C113.637903,48.5483871 120.434677,59.7769355 121.280806,76.2903226 L93.7191935,76.2903226 C94.5653226,59.7769355 101.362097,48.5483871 107.5,48.5483871 Z M127.994355,166.451613 C126.336774,156.6275 117.792258,149.112903 107.5,149.112903 C97.2077419,149.112903 88.6666935,156.6275 87.0056452,166.451613 L72.8225806,166.451613 L72.8225806,149.112903 L107.5,149.112903 L142.177419,149.112903 L142.177419,166.451613 L127.994355,166.451613 Z M121.370968,173.387097 L93.6290323,173.387097 L93.6290323,169.919355 C93.6290323,162.269516 99.8501613,156.048387 107.5,156.048387 C115.149839,156.048387 121.370968,162.269516 121.370968,169.919355 L121.370968,173.387097 Z M117.903226,114.435484 L117.903226,97.0967742 L110.967742,97.0967742 L110.967742,90.1612903 L104.032258,90.1612903 L104.032258,97.0967742 L97.0967742,97.0967742 L97.0967742,114.435484 L93.6290323,114.435484 L93.6290323,83.2258065 L121.370968,83.2258065 L121.370968,114.435484 L117.903226,114.435484 Z M142.177419,142.177419 L110.967742,142.177419 L110.967742,135.241935 L142.177419,135.241935 L142.177419,142.177419 Z M104.032258,104.032258 L110.967742,104.032258 L110.967742,128.306452 L104.032258,128.306452 L104.032258,104.032258 Z M104.032258,135.241935 L104.032258,142.177419 L72.8225806,142.177419 L72.8225806,135.241935 L104.032258,135.241935 Z M149.112903,135.241935 L162.983871,135.241935 L162.983871,173.387097 L149.112903,173.387097 L149.112903,135.241935 Z M117.903226,128.306452 L117.903226,121.370968 L138.709677,121.370968 L138.709677,128.306452 L117.903226,128.306452 Z M138.709677,114.435484 L128.306452,114.435484 L128.306452,83.2258065 L138.709677,83.2258065 L138.709677,114.435484 Z M86.6935484,114.435484 L76.2903226,114.435484 L76.2903226,83.2258065 L86.6935484,83.2258065 L86.6935484,114.435484 Z M76.2903226,121.370968 L97.0967742,121.370968 L97.0967742,128.306452 L76.2903226,128.306452 L76.2903226,121.370968 Z M65.8870968,173.387097 L52.016129,173.387097 L52.016129,135.241935 L65.8870968,135.241935 L65.8870968,173.387097 Z M52.016129,180.322581 L65.8870968,180.322581 L65.8870968,208.064516 L52.016129,208.064516 L52.016129,180.322581 Z M72.8225806,173.387097 L86.6935484,173.387097 L86.6935484,208.064516 L72.8225806,208.064516 L72.8225806,173.387097 Z M128.306452,173.387097 L142.177419,173.387097 L142.177419,208.064516 L128.306452,208.064516 L128.306452,173.387097 Z M149.112903,180.322581 L162.983871,180.322581 L162.983871,208.064516 L149.112903,208.064516 L149.112903,180.322581 Z M194.193548,128.306452 L173.387097,128.306452 L173.387097,117.903226 L194.193548,117.903226 L194.193548,128.306452 Z M183.790323,72.8225806 C188.305323,72.8225806 192.119839,75.7320161 193.555484,79.7580645 L174.028629,79.7580645 C175.460806,75.7320161 179.275323,72.8225806 183.790323,72.8225806 Z M194.193548,86.6935484 L194.193548,110.967742 L187.258065,110.967742 L187.258065,100.564516 L180.322581,100.564516 L180.322581,110.967742 L173.387097,110.967742 L173.387097,86.6935484 L194.193548,86.6935484 Z M156.048387,117.903226 C161.784032,117.903226 166.451613,122.570806 166.451613,128.306452 L145.645161,128.306452 C145.645161,122.570806 150.312742,117.903226 156.048387,117.903226 Z M138.505081,76.2903226 L128.212823,76.2903226 C127.762016,66.7228226 125.459435,58.2858065 121.950081,52.1201613 C130.928065,56.8328226 137.336452,65.776129 138.505081,76.2903226 Z M104.032258,41.6129032 L104.032258,34.6774194 L110.967742,34.6774194 L110.967742,41.6129032 L104.032258,41.6129032 Z M93.0464516,52.123629 C89.5370968,58.2858065 87.2345161,66.7228226 86.7837097,76.2903226 L76.4914516,76.2903226 C77.6635484,65.776129 84.0719355,56.8362903 93.0464516,52.123629 Z M58.9516129,117.903226 C64.6872581,117.903226 69.3548387,122.570806 69.3548387,128.306452 L48.5483871,128.306452 C48.5483871,122.570806 53.2159677,117.903226 58.9516129,117.903226 Z M31.2096774,72.8225806 C35.7246774,72.8225806 39.5391935,75.7320161 40.9748387,79.7580645 L21.4445161,79.7580645 C22.8801613,75.7320161 26.6946774,72.8225806 31.2096774,72.8225806 Z M20.8064516,86.6935484 L41.6129032,86.6935484 L41.6129032,110.967742 L34.6774194,110.967742 L34.6774194,100.564516 L27.7419355,100.564516 L27.7419355,110.967742 L20.8064516,110.967742 L20.8064516,86.6935484 Z M20.8064516,117.903226 L41.6129032,117.903226 L41.6129032,128.306452 L20.8064516,128.306452 L20.8064516,117.903226 Z M45.0806452,135.241935 L45.0806452,142.177419 L13.8709677,142.177419 L13.8709677,135.241935 L45.0806452,135.241935 Z M45.0806452,149.112903 L45.0806452,169.638468 L34.6774194,161.315887 L34.6774194,156.048387 L27.7419355,156.048387 L27.7419355,161.315887 L17.3387097,169.638468 L17.3387097,149.112903 L45.0806452,149.112903 Z M17.3387097,180.322581 L45.0806452,180.322581 L45.0806452,208.064516 L34.386129,208.064516 L34.386129,187.258065 L27.4506452,187.258065 L27.4506452,208.064516 L17.3387097,208.064516 L17.3387097,180.322581 Z M186.824597,208.064516 L186.824597,187.258065 L179.889113,187.258065 L179.889113,208.064516 L169.919355,208.064516 L169.919355,180.322581 L197.66129,180.322581 L197.66129,208.064516 L186.824597,208.064516 Z M197.66129,169.638468 L187.258065,161.315887 L187.258065,156.048387 L180.322581,156.048387 L180.322581,161.315887 L169.919355,169.638468 L169.919355,149.112903 L197.66129,149.112903 L197.66129,169.638468 Z"></path>
</g>
</svg>