<svg>
<g fill="#eecc33" opacity="0.3">
    <path d="M186.24301,76.9017241 L185.615481,72.5122069 C185.00863,69.1205517 184.104197,65.9530345 182.731365,63.431931 C177.633817,54.0432414 138.773779,4.95434483 127.603226,1.7697931 C125.732327,1.23634483 120.761543,-3.55271368e-15 114.925885,-3.55271368e-15 C106.91725,-3.55271368e-15 100.384837,2.33282759 96.0343894,6.74924138 C92.1064904,10.7317241 89.9775673,16.2849655 89.6925721,23.2816552 C84.1787692,25.7946897 70.5996923,32.6362759 66.8578942,40.5133793 C64.9708125,44.4877931 57.1356923,48.0336552 50.839726,50.8873793 C45.7727452,53.1834483 41.397125,55.1648276 38.7206875,57.6303448 C37.284024,58.9536552 35.3349087,60.9197931 33.0864135,63.1907586 C26.6843606,69.6513103 17.0071106,79.4165517 11.2595577,81.8309655 C4.75231731,84.5627586 0.451317308,88.9971034 0.0314663462,93.4063448 C-0.192394231,95.7669655 0.786658654,97.9186897 2.65396154,99.1577241 C6.01636538,101.391931 18.2181154,103.064 26.8794519,103.064 C28.7062981,103.064 30.4702115,102.994966 32.1109567,102.851517 C37.0367885,102.400552 54.8674183,102.040138 71.8601442,102.040138 C92.1865048,102.040138 101.360293,102.533241 103.042394,102.95731 C106.566625,103.849379 109.727644,103.801862 114.352298,103.454 C117.38026,103.233448 120.905389,102.973448 126.107226,103.064 C131.449313,103.169793 136.384135,103.376897 140.445091,103.551724 C144.059226,103.703241 146.996385,103.831448 148.949096,103.831448 C150.26349,103.831448 151.099596,103.777655 151.674082,103.671862 C151.885356,103.644966 152.977688,103.558 158.123784,103.558 C167.335332,103.558 182.209923,103.831448 182.216216,103.831448 C184.162635,103.859241 185.583115,102.525172 185.81237,100.723103 C185.902274,99.9995862 187.382091,88.0404828 186.24301,76.9017241 Z M84.4269038,43.9184828 C91.6911346,42.0724828 98.3296346,43.5087586 99.2529471,47.1308276 C100.178957,50.7493103 95.043649,55.1863448 87.7830144,57.0296552 C80.5196827,58.8756552 73.8829808,57.4411724 72.9569712,53.8182069 C72.0354567,50.2006207 77.1698654,45.768069 84.4269038,43.9184828 Z M49.5370192,61.8674483 C56.5558125,61.2766207 62.4705865,63.8407586 62.7447933,67.6026897 C63.0252933,71.361931 57.5618365,74.9042069 50.5466394,75.4968276 C43.5260481,76.0885517 37.6121731,73.5235172 37.3388654,69.7588966 C37.0610625,65.9951724 42.5218221,62.4636552 49.5370192,61.8674483 Z M130.063894,94.7278621 C129.863409,95.1591034 129.768111,95.6073793 129.754625,96.0484828 C128.608351,96.018 127.442298,95.9911034 126.251072,95.9642069 C125.423058,95.9471724 124.640894,95.9426897 123.8875,95.9426897 C119.57751,95.9426897 116.384125,96.182069 113.819168,96.3721379 C110.12412,96.6509655 107.574447,96.7755862 104.791024,96.0744828 C101.071702,95.1331034 84.8296731,94.9376552 71.8610433,94.9376552 C54.3990192,94.9376552 36.6555962,95.3052414 31.4672452,95.7786207 C30.2580385,95.8897931 28.9409471,95.9202759 27.6094712,95.9382069 C40.9260288,90.7525517 56.6259375,85.7148276 61.2407019,86.7862069 C63.9719808,87.4353103 66.010101,88.1211724 67.809976,88.7254483 C72.0246683,90.1446897 75.361899,91.2662759 81.3836587,89.3871034 C83.073851,88.8608276 84.8134904,88.1713793 86.5711106,87.4666897 C92.751101,85.0029655 96.7419327,83.6751724 100.095346,86.0196552 C107.757851,91.372069 114.022351,90.4522069 120.079173,89.578069 L120.552067,89.5144138 C125.066139,88.8536552 129.588303,89.4651034 130.636582,90.8673103 C131.109476,91.4957931 130.902697,92.9051724 130.063894,94.7278621 Z M119.709668,73.5306897 C110.697707,74.1968276 103.100832,71.3825517 102.739418,67.2297241 C102.374409,63.0795862 109.383313,59.1706207 118.391678,58.5026897 C127.401841,57.8284828 135.00501,60.6517241 135.366423,64.8027586 C135.731433,68.9484138 128.719832,72.8627586 119.709668,73.5306897 Z M147.863957,68.3073793 C146.394928,63.3431724 144.175202,58.2821379 140.843365,55.674069 C132.583,49.200069 122.301596,40.5689655 118.21187,35.75 C117.66975,35.1125517 106.80487,22.4891034 96.9864712,21.5889655 C97.4521731,17.3778621 98.8169135,14.0606207 101.115755,11.7322759 C104.880928,7.91206897 110.706697,7.10786207 114.928582,7.10786207 C119.867,7.10786207 124.062813,8.15503448 125.644221,8.60241379 C132.075043,10.4331724 160.571865,43.7588966 172.327692,60.4096552 C168.373721,58.8084138 163.796716,58.3915172 158.762101,60.2733793 C153.664553,62.1767586 150.236519,64.9148276 147.863957,68.3073793 Z M179.074976,96.6697931 C174.15274,96.5953793 164.707442,96.4582069 158.123784,96.4582069 C152.142481,96.4582069 151.062736,96.5666897 150.470269,96.6697931 C150.199659,96.711931 149.774413,96.7325517 149.246678,96.7406207 C149.27275,96.2815862 149.30062,95.7857931 149.315904,95.3321379 C150.146615,78.4204828 150.944962,70.7818621 161.26862,66.9248966 C169.996486,63.6524828 176.360779,71.3924138 178.825043,75.1157931 C179.88501,82.3115172 179.564053,91.1004138 179.074976,96.6697931 Z" />
    <path d="M200,10v300h-100z" />
</g>
<g id="polygons" fill="#D05C5C" fill-rule="nonzero" opacity="0.8">
    <polygon id="Polygon-2" stroke="#F300C4" stroke-width="7" points="89.035578 301 136.646183 316.469623 166.071156 356.969623 166.071156 407.030377 136.646183 447.530377 89.035578 463 41.424973 447.530377 12 407.030377 12 356.969623 41.424973 316.469623"></polygon>
</g>
</svg>