<?xml version="1.0" encoding="UTF-8"?>
<svg width="120px" height="147px" viewBox="0 0 120 147" version="1.1" xmlns="http://www.w3.org/2000/svg" xmlns:xlink="http://www.w3.org/1999/xlink">
    <path d="M113.88106,42.4946593 C114.798185,43.413336 115.486028,44.3320126 116.403152,45.2506893 C117.320277,46.1693664 117.320277,47.3177124 117.320277,48.6957272 C117.320277,53.0594418 115.027466,55.8154723 112.046812,58.5715024 C111.588249,59.030841 111.129687,59.2605102 110.671125,59.7198484 C110.671125,59.7198484 110.671125,59.7198484 110.671125,59.9495177 C111.358968,60.6385255 112.276093,61.3275329 112.734655,62.2462096 C113.422498,64.3132323 113.422498,66.3802549 112.734655,68.447278 C111.81753,71.4329773 109.524719,72.1219848 107.002627,72.8109926 C101.499881,74.648346 96.226415,76.7153686 91.1822306,79.701068 C87.9722951,81.5384218 85.4502031,84.5241211 82.6988298,86.8208131 C79.259613,89.8065124 75.8203966,93.0218811 71.9226176,95.318573 C68.9419634,97.1559268 65.2734657,97.6152649 61.8342489,98.7636109 C57.9364698,99.9119569 54.0386912,100.141626 50.1409122,99.2229494 C48.5359446,98.7636109 46.9309767,99.2229494 45.7845713,100.830634 C44.4088847,102.667987 42.5746358,104.275671 40.9696679,106.113025 C43.033198,108.869055 43.262479,112.314093 43.4917603,115.529462 C43.9503225,118.9745 43.9503225,122.649207 43.7210412,126.094245 C43.7210412,127.701929 43.262479,129.309613 42.8039167,130.687628 C42.3453545,132.065644 41.1989492,132.754651 39.8232625,133.443659 C34.549797,135.97002 29.5056126,138.496381 24.2321471,141.022742 C19.646525,143.089765 14.8316217,144.927119 10.2459995,146.534803 C8.64103177,147.22381 8.41175066,146.534803 8.18246955,144.697449 C15.7487461,140.333735 23.0857416,136.199689 30.4227371,131.835974 C30.6520182,131.606305 30.8812993,131.606305 31.1105804,131.376636 C31.5691426,130.917298 32.486267,130.457959 31.7984237,129.768952 C31.5691426,129.539283 30.6520182,129.768952 30.1934559,129.998621 C25.3785527,132.524982 20.3343683,135.281012 15.519465,137.807373 C15.0609028,138.037043 14.3730595,138.266712 13.9144972,138.266712 C13.455935,138.266712 12.9973728,138.037043 12.5388106,137.807373 C12.7680917,137.348035 12.7680917,136.659027 13.2266539,136.429358 C15.519465,134.821674 18.0415572,133.443659 20.5636494,131.835974 C23.0857416,130.22829 25.8371149,128.850275 28.3592071,127.242591 C28.8177693,127.012922 29.2763315,126.553583 29.5056126,126.094245 C29.7348937,125.864576 29.7348937,125.175568 29.5056126,124.71623 C29.2763315,124.48656 28.5884882,124.48656 28.3592071,124.71623 C26.7542393,125.864576 25.1492715,127.012922 23.5443038,128.161268 C20.1050872,130.457959 16.6658706,132.98432 12.3095295,133.673328 L10.9338428,133.673328 C10.9338428,133.443659 10.7045617,133.443659 10.7045617,133.21399 C11.3924051,132.524982 12.0802484,131.376636 12.9973728,130.917298 C16.2073084,129.079944 19.4172439,127.242591 22.6271794,125.405237 C24.4614282,124.48656 26.066396,123.338214 27.6713637,122.189868 C28.3592071,121.73053 28.5884882,121.041522 27.9006448,120.582184 C27.6713637,120.352515 26.7542393,120.352515 26.5249582,120.582184 C23.0857416,123.338214 18.9586816,125.405237 14.8316217,127.242591 C14.1437783,127.47226 13.2266539,127.931598 12.5388106,127.931598 C11.8509673,127.931598 11.1631239,127.701929 10.4752806,127.47226 L10.4752806,126.783252 C11.3924051,126.323914 12.3095295,125.634906 13.2266539,125.175568 C17.3537139,122.878876 21.4807738,120.352515 25.3785527,118.055823 C26.9835204,117.137146 26.9835204,116.907477 26.066396,114.840454 C25.6078338,115.299793 24.9199904,115.529462 24.4614282,115.9888 C19.8758061,119.433838 15.0609028,121.960199 9.5581562,124.027222 C8.41175066,124.48656 7.95318844,123.797553 7.49462623,123.108545 C7.03606401,121.960199 7.95318844,121.960199 8.64103177,121.73053 C12.9973728,120.352515 16.4365895,117.826154 20.1050872,115.299793 C21.7100549,114.151447 23.3150227,113.462439 24.6907093,112.314093 C24.9199904,112.084424 24.9199904,111.625086 25.1492715,111.395417 C24.9199904,111.395417 24.4614282,110.936078 24.2321471,111.165747 C23.3150227,111.625086 22.3978983,112.084424 21.7100549,112.314093 C17.3537139,114.610785 13.2266539,116.677808 8.87031287,118.9745 C8.18246955,119.433838 7.26534512,119.433838 6.34822069,119.433838 C6.34822069,119.433838 6.34822069,119.204169 6.11893958,119.204169 C6.34822069,118.9745 6.34822069,118.744831 6.5775018,118.744831 C10.7045617,116.21847 14.6023406,113.462439 18.7294005,111.165747 C20.1050872,110.247071 21.7100549,109.787732 23.3150227,109.098725 C24.2321471,108.639386 24.4614282,108.180048 24.002866,107.261371 C23.5443038,106.113025 22.8564605,106.802033 22.3978983,107.261371 C17.3537139,109.787732 12.0802484,112.543763 7.03606401,115.070124 C6.5775018,115.299793 5.66037737,115.299793 5.20181515,115.299793 C5.20181515,115.070124 5.20181515,115.070124 4.97253405,114.840454 C5.20181515,114.610785 5.43109626,114.381116 5.66037737,114.151447 C9.5581562,111.854755 13.455935,109.558063 17.582995,107.031702 C18.9586816,106.342694 20.3343683,105.424017 21.7100549,104.73501 C23.3150227,104.046002 23.3150227,103.356995 22.3978983,101.749311 C20.3343683,102.667987 18.5001194,103.586664 16.4365895,104.505341 C12.7680917,106.113025 9.09959398,107.720709 5.43109626,109.328394 C4.97253405,109.558063 4.51397183,109.328394 3.82612849,109.558063 C3.82612849,109.328394 3.82612849,109.328394 3.59684739,109.098725 C4.28469072,108.639386 4.97253405,108.180048 5.66037737,107.720709 C10.7045617,104.964679 15.7487461,102.208649 20.5636494,99.2229494 C21.0222116,98.9932802 21.2514927,98.0746035 21.4807738,97.6152649 C21.2514927,97.3855957 21.2514927,97.3855957 21.0222116,97.1559268 C19.646525,97.8449342 18.5001194,98.5339416 17.1244328,99.2229494 C14.1437783,100.830634 11.1631239,102.438318 7.95318844,104.046002 C6.80678291,104.505341 5.66037737,104.73501 4.28469072,105.194348 C4.28469072,104.964679 4.05540962,104.964679 4.05540962,104.73501 C5.43109626,103.816333 6.80678291,102.438318 8.41175066,101.749311 C12.0802484,99.6822876 15.7487461,97.8449342 19.4172439,96.0075808 C20.7929305,95.318573 20.7929305,95.0889041 20.1050872,93.7108889 C14.6023406,96.2372501 9.09959398,98.7636109 3.59684739,101.060303 C3.36756628,100.830634 3.36756628,100.600965 3.13828517,100.371295 C4.28469072,99.6822876 5.66037737,98.7636109 6.80678291,98.0746035 C10.7045617,95.7779115 14.6023406,93.4812196 18.2708383,91.4141969 C19.1879627,90.9548584 19.4172439,90.265851 18.7294005,89.117505 C13.9144972,91.4141969 9.09959398,94.170227 3.82612849,95.318573 C3.82612849,95.0889041 3.59684739,95.0889041 3.59684739,94.8592348 C3.82612849,94.6295656 4.05540962,94.3998963 4.28469072,94.170227 C8.64103177,91.6438662 12.7680917,89.117505 17.1244328,86.5911438 C17.582995,86.3614745 17.582995,85.4427978 18.0415572,84.9834597 L16.4365895,84.9834597 C11.6216862,87.0504823 7.03606401,89.3471743 2.22116074,91.4141969 C2.22116074,91.4141969 1.99187963,91.4141969 1.3040363,91.1845277 C2.22116074,90.4955202 2.90900406,90.0361817 3.36756628,89.5768436 C7.49462623,87.0504823 11.6216862,84.5241211 15.7487461,81.9977599 C16.4365895,81.5384218 17.3537139,81.0790832 16.6658706,79.701068 C11.8509673,82.6867677 7.26534512,86.1318056 1.53331741,87.0504823 C1.53331741,86.8208131 1.3040363,86.8208131 1.3040363,86.5911438 C1.99187963,86.1318056 2.67972295,85.4427978 3.59684739,84.9834597 C7.49462623,82.6867677 11.3924051,80.3900758 15.0609028,77.8637146 C15.2901839,77.6340453 15.7487461,77.6340453 15.9780272,77.1747072 C16.2073084,76.7153686 16.2073084,76.2560305 16.4365895,75.7966919 C15.9780272,75.7966919 15.519465,75.5670227 15.2901839,75.7966919 C13.455935,76.7153686 11.6216862,78.0933839 9.7874373,79.0120606 C7.49462623,80.1604065 5.20181515,81.0790832 2.90900406,81.9977599 C2.45044184,82.2274292 1.76259852,81.9977599 1.3040363,82.2274292 C1.3040363,81.9977599 1.3040363,81.9977599 1.07475519,81.768091 C6.11893958,78.7823913 11.1631239,75.5670227 16.2073084,72.5813233 C16.2073084,72.351654 15.9780272,72.351654 15.9780272,72.1219848 C11.1631239,74.8780152 6.5775018,78.0933839 0.845474087,77.4043761 C6.34822069,75.1076845 11.3924051,72.1219848 16.2073084,68.6769469 L16.2073084,67.9879394 C14.6023406,68.9066161 13.2266539,70.0549621 11.6216862,70.5143006 C8.64103177,71.8923155 5.43109626,73.0406615 2.22116074,73.9593385 C1.53331741,74.1890074 0.38691187,73.9593385 0.157630762,73.7296693 C-0.0716503462,72.8109926 0.38691187,72.1219848 1.3040363,71.6626466 C2.90900406,70.9736388 4.51397183,70.2846314 6.11893958,69.3659547 C9.09959398,67.298932 11.8509673,65.231909 14.8316217,63.1648863 C16.2073084,62.2462096 17.582995,61.3275329 18.7294005,60.1791869 C19.4172439,59.7198484 20.1050872,59.030841 20.7929305,58.3418335 C21.7100549,57.4231564 22.6271794,57.4231564 23.5443038,58.3418335 C24.4614282,59.2605102 25.6078338,60.1791869 26.5249582,61.3275329 C30.6520182,59.7198484 33.6326726,56.734149 35.2376403,52.6001037 C36.3840459,49.6144043 37.5304514,46.6287046 38.906138,43.6430052 C41.8867923,37.2122678 45.0967278,30.7815305 49.9116313,25.4991391 C53.3508477,21.824432 55.8729401,17.4607174 58.6243134,13.326672 C60.9171244,9.88163412 63.897779,7.12560383 68.2541199,5.97725787 C73.7568664,4.59924274 79.0303321,2.99155839 84.3037974,0.924535673 C88.4308573,-0.453479473 91.8700741,-0.223810283 95.3092906,2.30255082 C96.226415,2.99155839 97.1435394,2.99155839 98.0606638,2.53222001 C100.124194,3.22122758 101.270599,2.99155839 102.417005,2.99155839 C107.231908,2.30255082 111.588249,2.7618892 115.486028,5.74758867 C117.320277,7.12560383 118.237401,8.96295734 118.00812,11.2596493 C117.778839,13.326672 118.00812,15.3936947 117.549558,17.2310482 C116.861715,19.5277401 116.403152,21.824432 114.339623,23.6617856 C112.963936,24.8101315 113.193217,25.4991391 114.798185,26.4178159 C119.842369,28.4848386 120.07165,32.8485532 119.613088,36.9825986 C119.383807,38.1309446 118.237401,39.0496214 117.320277,39.968298 C116.173872,40.4276366 115.027466,41.3463133 113.88106,42.4946593 Z M104.021973,12.178326 C100.582756,9.65196492 97.3728207,7.12560383 94.3921661,4.8289119 C93.0164795,3.68056596 91.4115119,3.45089677 89.806544,3.91023515 C87.0551707,4.59924274 84.3037974,5.51791948 81.7817054,6.43659625 C78.1132077,7.81461141 74.6739909,9.65196492 70.7762122,10.3409725 C69.4005256,10.5706417 67.7955577,11.0299801 66.419871,11.7189876 C63.6684977,13.326672 61.8342489,15.8530331 60.2292813,18.8387326 C58.6243134,21.5947628 57.0193454,24.5804624 54.9558156,26.6474851 C50.8287557,30.7815305 47.6188202,35.6045835 45.0967278,40.8869747 C42.8039167,45.2506893 41.1989492,50.0737425 39.135419,54.4374571 C37.5304514,57.6528257 35.6962025,60.8681944 32.486267,63.1648863 C30.6520182,64.3132323 29.0470504,65.6912475 27.2128015,66.8395935 C25.6078338,67.7582702 24.2321471,69.3659547 22.1686171,68.6769469 C21.939336,68.6769469 21.7100549,69.1362854 21.4807738,69.3659547 C20.7929305,73.5 21.0222116,77.4043761 21.7100549,81.3087525 C22.1686171,84.7537904 23.0857416,88.1988283 24.002866,91.6438662 C25.6078338,97.8449342 27.2128015,104.046002 28.8177693,110.247071 C29.0470504,111.165747 29.5056126,112.084424 29.9641748,113.462439 C31.7984237,111.395417 33.6326726,109.558063 35.2376403,107.950379 C37.7597325,104.964679 40.740387,102.208649 42.8039167,98.9932802 C43.9503225,97.1559268 45.3260091,96.0075808 47.160258,94.6295656 C47.8481011,95.7779115 48.5359446,95.5482423 49.4530691,95.0889041 C51.5165988,93.9405582 53.3508477,92.7922122 55.4143779,91.6438662 C55.8729401,91.4141969 56.5607832,91.1845277 57.0193454,91.1845277 C57.0193454,91.4141969 57.2486267,91.6438662 57.2486267,91.6438662 C56.3315023,92.7922122 55.6436588,93.9405582 54.7265343,95.0889041 C54.9558156,95.0889041 54.9558156,95.318573 55.1850965,95.318573 C57.4779076,93.4812196 59.5414378,91.4141969 62.0635302,89.3471743 C61.6049679,90.9548584 61.3756866,92.3328736 61.1464057,93.7108889 C63.4392168,92.7922122 64.1270599,89.8065124 67.1077145,89.117505 C66.6491523,90.4955202 66.419871,91.6438662 65.9613088,92.7922122 C68.4834012,91.4141969 69.1712443,88.4284976 72.1518989,87.5098205 C71.9226176,88.6581665 71.6933367,89.3471743 71.4640554,89.8065124 C71.6933367,89.8065124 71.6933367,90.0361817 71.9226176,90.0361817 C73.0690233,88.6581665 74.44471,87.2801516 75.8203966,85.9021364 C76.5082397,86.8208131 76.966802,86.5911438 77.6546455,85.9021364 C78.3424886,85.2131286 79.259613,84.5241211 79.9474565,83.8351137 C81.5524241,81.9977599 84.0745165,81.0790832 84.9916409,78.552722 C85.2209218,77.8637146 85.679484,75.5670227 87.7430142,77.8637146 C88.6601386,76.2560305 89.5772631,74.8780152 90.4943875,73.5 C87.284452,72.1219848 84.3037974,70.7439695 81.3231432,69.5956239 C80.6352997,71.2033081 80.4060188,73.0406615 78.5717699,74.1890074 C78.8010508,70.5143006 79.9474565,67.0692627 77.6546455,63.8538941 C75.1325531,67.298932 74.2154287,71.4329773 71.4640554,74.1890074 C71.2347745,74.1890074 71.2347745,73.9593385 71.0054932,73.9593385 C71.6933367,70.7439695 72.3811798,67.5286009 73.0690233,64.3132323 C72.839742,64.3132323 72.839742,64.3132323 72.6104611,64.083563 C72.3811798,64.3132323 71.9226176,64.5429015 71.6933367,65.0022401 C70.31765,66.6099242 69.1712443,68.2176087 67.7955577,69.5956239 C66.6491523,70.9736388 65.2734657,71.8923155 64.3563412,73.2703307 C62.9806546,74.8780152 61.3756866,75.7966919 59.3121565,76.2560305 C57.2486267,76.9450379 54.7265343,76.9450379 52.6630046,77.1747072 C52.4337233,77.1747072 52.2044423,76.9450379 51.7458801,76.7153686 C51.7458801,76.4856994 51.7458801,76.4856994 51.5165988,76.2560305 C54.7265343,75.1076845 58.1657511,74.8780152 60.4585622,72.1219848 C62.5220924,69.3659547 64.8149035,67.0692627 66.8784332,64.3132323 C68.9419634,61.5572022 71.0054932,59.030841 70.7762122,55.3561338 C69.1712443,56.5044798 67.7955577,57.882495 65.9613088,58.8011717 C64.5856221,59.4901795 62.9806546,59.2605102 61.3756866,59.4901795 C61.1464057,59.4901795 60.6878435,59.030841 60.2292813,58.5715024 C60.9171244,58.3418335 61.3756866,58.3418335 61.6049679,58.1121643 C63.2099355,57.4231564 64.8149035,56.9638183 66.1905901,56.0451416 C69.6298065,53.7484497 70.7762122,50.3034118 71.9226176,46.3990353 C72.1518989,45.0210205 72.839742,43.8726745 72.839742,42.4946593 C72.839742,40.4276366 72.3811798,38.590283 72.1518989,36.5232603 C71.6933367,34.4562376 70.5469309,33.0782224 68.7126821,31.9298764 C68.024839,31.4705381 67.3369954,31.0111997 66.419871,30.3221921 C69.8590878,28.4848386 71.6933367,30.5518613 73.5275855,32.3892148 C74.44471,30.7815305 74.2154287,29.8628537 72.839742,28.2551694 C72.6104611,28.0255002 72.6104611,27.5661618 72.3811798,27.1068234 C72.839742,27.1068234 73.2983042,26.6474851 73.5275855,26.8771542 C74.44471,27.3364926 75.3618344,28.0255002 76.2789588,28.7145078 C77.4253642,27.795831 79.0303321,27.1068234 79.9474565,25.7288083 C81.0938619,24.121124 81.7817054,22.2837704 81.0938619,19.9870785 C80.864581,19.5277401 81.0938619,19.0684017 81.0938619,18.6090634 C81.0938619,18.3793942 81.5524241,17.6903866 81.5524241,17.6903866 C82.0109863,17.6903866 82.2402676,17.9200558 82.4695485,18.3793942 C82.9281107,18.8387326 83.1573921,19.5277401 83.6159543,20.2167477 L84.0745165,20.2167477 C84.3037974,19.0684017 84.3037974,18.149725 84.5330787,17.001379 C84.7623596,16.0827023 84.7623596,14.7046871 86.3673276,14.2453488 C86.1380463,16.0827023 85.9087653,17.6903866 85.9087653,19.0684017 C86.8258898,18.3793942 87.0551707,17.6903866 87.7430142,17.001379 C87.9722951,16.5420407 88.6601386,16.3123715 89.1187008,15.8530331 C89.3479818,16.5420407 89.3479818,17.001379 89.5772631,17.6903866 C89.806544,18.3793942 89.5772631,19.2980709 89.806544,19.7574093 C92.099355,22.2837704 95.0800096,23.8914548 98.5192261,24.3507932 C101.729162,24.8101315 104.709816,24.121124 107.461189,22.972778 C108.836876,22.2837704 110.441844,21.5947628 111.358968,19.7574093 C107.69047,21.3650937 105.168378,19.7574093 102.646286,17.4607174 C100.353475,15.1640255 100.812037,13.326672 104.021973,12.178326 Z M114.110341,36.9825986 C114.798185,36.5232603 115.715309,36.0639219 115.94459,35.3749143 C117.549558,31.4705381 114.568904,27.1068234 110.441844,27.1068234 C107.002627,27.1068234 103.56341,27.5661618 100.353475,27.795831 C96.6849772,28.2551694 93.0164795,28.7145078 89.3479818,29.1738461 C86.1380463,29.6331845 83.1573921,30.0925229 79.9474565,30.7815305 C76.966802,31.4705381 74.9032722,35.6045835 75.8203966,38.590283 C75.8203966,38.8199522 76.0496775,39.2792906 76.2789588,39.2792906 C78.3424886,40.4276366 80.4060188,40.4276366 82.2402676,40.4276366 C82.4695485,38.3606138 82.4695485,36.5232603 82.6988298,34.4562376 C81.7817054,34.9155759 80.864581,35.1452451 79.9474565,35.3749143 C79.259613,35.6045835 78.3424886,35.8342527 77.6546455,35.6045835 C76.966802,35.6045835 76.737521,34.9155759 77.4253642,34.2265684 C79.259613,32.618884 81.3231432,31.7002072 84.0745165,32.1595456 C85.2209218,32.3892148 85.9087653,33.5375608 85.679484,34.4562376 C85.4502031,36.0639219 85.2209218,37.6716062 84.9916409,39.2792906 C84.9916409,39.5089599 85.4502031,40.1979673 85.679484,40.1979673 C87.284452,40.4276366 89.1187008,40.4276366 90.4943875,40.6573059 C90.7236684,38.8199522 90.9529497,37.441937 91.1822306,35.8342527 L91.8700741,35.8342527 C92.3286364,36.9825986 92.7871986,38.1309446 93.2457608,39.0496214 C93.704323,39.968298 94.1628852,40.4276366 95.3092906,40.1979673 C99.4363505,39.968298 103.56341,39.7386288 107.69047,39.2792906 C110.900406,39.0496214 112.046812,37.6716062 112.046812,34.2265684 C112.046812,33.76723 112.046812,33.3078916 112.276093,32.8485532 C112.505374,32.8485532 112.734655,32.8485532 112.963936,32.618884 C113.193217,34.4562376 113.651779,35.6045835 114.110341,36.9825986 Z M112.505374,53.0594418 C112.734655,53.0594418 112.734655,53.2891111 112.963936,53.2891111 C113.651779,52.3704344 114.568904,51.2220885 114.568904,50.3034118 C114.568904,48.9253965 114.568904,46.8583739 113.651779,46.1693664 C111.588249,44.1023434 108.607595,43.413336 105.626941,43.8726745 C99.8949127,44.5616819 94.1628852,45.2506893 88.2015764,44.5616819 C85.4502031,44.3320126 82.9281107,44.1023434 80.1767375,44.1023434 C77.4253642,44.1023434 75.8203966,45.4803586 75.1325531,48.4660584 C74.6739909,50.533081 76.5082397,53.0594418 78.1132077,53.7484497 C79.9474565,54.4374571 81.7817054,55.3561338 83.6159543,55.8154723 C86.1380463,56.2748109 88.4308573,56.5044798 90.9529497,56.9638183 C90.7236684,55.1264649 90.7236684,53.5187804 90.7236684,51.9110959 C90.7236684,51.681427 90.9529497,51.2220885 91.1822306,50.9924192 C91.6407928,51.2220885 92.099355,51.2220885 92.3286364,51.4517577 C92.5579173,51.681427 92.5579173,52.1407652 92.7871986,52.6001037 C93.2457608,54.2077878 93.704323,55.5858031 94.1628852,56.9638183 L95.9971341,56.9638183 C99.6656318,56.734149 103.33413,56.2748109 107.002627,56.0451416 C109.754001,55.8154723 110.212563,55.1264649 110.900406,52.6001037 L110.900406,52.3704344 C111.129687,52.1407652 111.588249,51.4517577 111.588249,51.4517577 C112.046812,51.681427 112.505374,51.9110959 112.963936,52.3704344 C112.734655,52.1407652 112.505374,52.6001037 112.505374,53.0594418 Z M95.7678528,69.8252928 C95.9971341,69.8252928 96.4556963,69.8252928 96.9142585,70.0549621 C100.353475,70.5143006 104.021973,70.2846314 107.461189,69.3659547 C108.836876,68.9066161 109.983281,68.2176087 110.441844,67.0692627 C110.900406,65.4615782 111.129687,63.1648863 109.524719,62.2462096 C107.919752,61.0978636 105.856221,60.4088562 103.792692,60.1791869 C99.8949127,59.7198484 95.9971341,59.9495177 92.099355,59.7198484 C89.1187008,59.7198484 86.1380463,59.2605102 83.1573921,59.2605102 C82.4695485,59.2605102 81.7817054,59.7198484 81.3231432,60.1791869 C80.1767375,61.7868714 81.0938619,64.7725708 82.6988298,65.6912475 C85.679484,67.5286009 87.7430142,66.3802549 88.2015764,63.1648863 C88.4308573,61.7868714 87.7430142,61.5572022 86.5966085,61.3275329 L83.386673,61.3275329 C82.9281107,61.3275329 82.4695485,61.0978636 82.0109863,61.0978636 C82.0109863,60.8681944 82.0109863,60.8681944 81.7817054,60.6385255 C82.0109863,60.4088562 82.2402676,60.1791869 82.4695485,60.1791869 C84.0745165,59.9495177 85.9087653,59.4901795 87.5137329,59.7198484 C90.2651062,60.1791869 91.1822306,62.2462096 89.806544,64.7725708 C89.1187008,65.9209168 88.4308573,66.8395935 87.7430142,68.2176087 C89.806544,68.6769469 91.6407928,68.9066161 93.4750417,69.3659547 C93.4750417,68.6769469 93.4750417,67.9879394 93.704323,67.5286009 C93.9336039,67.298932 94.3921661,67.298932 94.8507283,67.0692627 C95.3092906,67.9879394 95.5385719,68.6769469 95.7678528,69.8252928 Z M100.812037,6.43659625 C102.417005,8.04428061 102.417005,8.04428061 104.480535,7.81461141 C105.168378,7.81461141 105.856221,8.04428061 106.773346,8.04428061 C106.544065,8.73328815 106.314784,9.42229573 105.856221,10.3409725 C108.378314,12.178326 110.900406,14.0156796 113.651779,15.8530331 C115.715309,13.0970028 115.94459,10.3409725 114.110341,7.58494222 C113.193217,6.20692706 110.212563,4.59924274 108.607595,4.8289119 C106.085503,5.28825028 103.56341,5.97725787 100.812037,6.43659625 Z M30.8812993,114.151447 L30.4227371,114.151447 C30.4227371,114.610785 30.4227371,115.070124 30.6520182,115.299793 C32.2569859,119.663507 33.8619537,124.027222 35.4669214,128.161268 C35.6962025,128.620606 36.1547647,129.309613 36.613327,129.768952 C38.2182947,131.376636 39.5939812,130.917298 40.2818248,128.390937 C37.7597325,128.390937 35.9254836,127.242591 34.7790781,124.945899 C34.0912348,123.797553 33.6326726,122.419538 33.1741103,121.271192 C32.486267,118.744831 31.5691426,116.448139 30.8812993,114.151447 Z M104.939097,12.8673336 C104.480535,13.5563412 104.021973,14.0156796 103.792692,14.475018 C103.56341,14.9343563 103.33413,15.3936947 103.56341,15.8530331 C104.939097,18.149725 108.378314,18.8387326 110.900406,17.2310482 C108.836876,15.6233639 106.773346,14.2453488 104.939097,12.8673336 Z M21.7100549,66.150586 L21.939336,66.3802549 C22.8564605,65.6912475 23.7735849,65.231909 24.4614282,64.5429015 C24.6907093,64.3132323 24.9199904,63.6242248 24.6907093,63.3945556 C24.4614282,62.9352174 24.2321471,62.4758789 23.7735849,62.4758789 C23.5443038,62.4758789 23.0857416,62.9352174 22.8564605,63.1648863 C22.6271794,64.083563 22.1686171,65.231909 21.7100549,66.150586 Z M85.4502031,25.9584775 C86.5966085,25.7288083 87.284452,24.5804624 87.0551707,22.972778 C85.679484,23.6617856 84.7623596,24.3507932 85.4502031,25.9584775 Z M90.0358253,23.4321164 C89.806544,23.4321164 89.806544,23.4321164 89.5772631,23.6617856 C89.3479818,24.3507932 89.1187008,24.8101315 89.1187008,25.4991391 C89.3479818,25.7288083 89.3479818,25.7288083 89.5772631,25.9584775 C90.0358253,25.4991391 90.7236684,25.2694699 90.9529497,24.8101315 C90.9529497,24.5804624 90.4943875,23.8914548 90.0358253,23.4321164 Z" id="Shape"></path>
</svg>