<?xml version="1.0" encoding="UTF-8"?>
<svg width="307px" height="375px" viewBox="0 0 307 375" version="1.1" xmlns="http://www.w3.org/2000/svg" xmlns:xlink="http://www.w3.org/1999/xlink">
    <!-- Generator: Sketch 43.2 (39069) - http://www.bohemiancoding.com/sketch -->
    <title>fistBump</title>
    <desc>Created with Sketch.</desc>
    <defs></defs>
    <g id="Page-1" stroke="none" stroke-width="1" fill="none" fill-rule="evenodd">
        <g id="fistBump" fill-rule="nonzero" fill="#000000">
            <path d="M291.345713,108.404743 C293.692023,110.748306 295.451755,113.091869 297.798065,115.435432 C300.144375,117.778996 300.144375,120.70845 300.144375,124.223794 C300.144375,135.355719 294.2786,142.386409 286.653093,149.417098 C285.479938,150.58888 284.306783,151.174771 283.133628,152.346552 C283.133628,152.346552 283.133628,152.346552 283.133628,152.932443 C284.89336,154.690116 287.23967,156.447788 288.412825,158.791351 C290.172558,164.064368 290.172558,169.337385 288.412825,174.610403 C286.066515,182.226983 280.20074,183.984655 273.748388,185.742328 C259.670528,190.429454 246.179245,195.702471 233.27454,203.319051 C225.062455,208.006178 218.610103,215.622758 211.571173,221.481666 C202.77251,229.098246 193.973848,237.300717 184.00203,243.159625 C176.376523,247.846752 166.991283,249.018533 158.19262,251.947987 C148.220802,254.877441 138.248985,255.463332 128.277167,253.119769 C124.171125,251.947987 120.065082,253.119769 117.132195,257.221004 C113.61273,261.908131 108.92011,266.009366 104.814067,270.696493 C110.093265,277.727182 110.679842,286.515544 111.26642,294.718015 C112.439575,303.506377 112.439575,312.88063 111.852997,321.668992 C111.852997,325.770227 110.679842,329.871463 109.506687,333.386807 C108.333532,336.902152 105.400645,338.659825 101.88118,340.417497 C88.3898973,346.862296 75.4851923,353.307094 61.9939097,359.751893 C50.2623597,365.02491 37.9442321,369.712037 26.2126821,373.813272 C22.1066396,375.570945 21.5200621,373.813272 20.9334846,369.126146 C40.2905422,357.994221 59.0610222,347.448187 77.8315023,336.316261 C78.4180798,335.730371 79.0046573,335.730371 79.5912348,335.14448 C80.7643898,333.972698 83.1106998,332.800917 81.3509673,331.043244 C80.7643898,330.457354 78.4180798,331.043244 77.2449248,331.629135 C64.9267972,338.073934 52.0220922,345.104623 39.7039647,351.549422 C38.5308096,352.135313 36.7710771,352.721204 35.5979221,352.721204 C34.4247671,352.721204 33.2516121,352.135313 32.0784571,351.549422 C32.6650346,350.37764 32.6650346,348.619968 33.8381896,348.034077 C39.7039647,343.932842 46.1563172,340.417497 52.6086697,336.316261 C59.0610222,332.215026 66.0999522,328.699681 72.5523048,324.598446 C73.7254598,324.012555 74.8986148,322.840773 75.4851923,321.668992 C76.0717698,321.083101 76.0717698,319.325428 75.4851923,318.153647 C74.8986148,317.567756 73.1388823,317.567756 72.5523048,318.153647 C68.4462622,321.083101 64.3402197,324.012555 60.2341772,326.942009 C51.4355147,332.800917 42.6368522,339.245715 31.4918796,341.003388 L27.9724146,341.003388 C27.9724146,340.417497 27.3858371,340.417497 27.3858371,339.831606 C29.1455696,338.073934 30.9053021,335.14448 33.2516121,333.972698 C41.4636972,329.285572 49.6757822,324.598446 57.8878672,319.911319 C62.5804872,317.567756 66.6865297,314.638302 70.7925722,311.708848 C72.5523048,310.537067 73.1388823,308.779394 71.3791497,307.607613 C70.7925722,307.021722 68.4462622,307.021722 67.8596847,307.607613 C59.0610222,314.638302 48.5026272,319.911319 37.9442321,324.598446 C36.1844996,325.184336 33.8381896,326.356118 32.0784571,326.356118 C30.3187246,326.356118 28.5589921,325.770227 26.7992596,325.184336 L26.7992596,323.426664 C29.1455696,322.254882 31.4918796,320.49721 33.8381896,319.325428 C44.3965847,313.466521 54.9549797,307.021722 64.9267972,301.162814 C69.0328397,298.819251 69.0328397,298.23336 66.6865297,292.960343 C65.5133747,294.132124 63.7536422,294.718015 62.5804872,295.889797 C50.8489372,304.678159 38.5308096,311.122957 24.4529496,316.395974 C21.5200621,317.567756 20.3469071,315.810084 19.1737521,314.052411 C18.0005971,311.122957 20.3469071,311.122957 22.1066396,310.537067 C33.2516121,307.021722 42.0502747,300.576923 51.4355147,294.132124 C55.5415572,291.20267 59.6475997,289.444998 63.1670647,286.515544 C63.7536422,285.929653 63.7536422,284.757872 64.3402197,284.171981 C63.7536422,284.171981 62.5804872,283.000199 61.9939097,283.58609 C59.6475997,284.757872 57.3012897,285.929653 55.5415572,286.515544 C44.3965847,292.374452 33.8381896,297.647469 22.6932171,303.506377 C20.9334846,304.678159 18.5871746,304.678159 16.2408646,304.678159 C16.2408646,304.678159 16.2408646,304.092268 15.6542871,304.092268 C16.2408646,303.506377 16.2408646,302.920486 16.8274421,302.920486 C27.3858371,296.475688 37.3576546,289.444998 47.9160497,283.58609 C51.4355147,281.242527 55.5415572,280.070745 59.6475997,278.313073 C61.9939097,277.141291 62.5804872,275.96951 61.4073322,273.625947 C60.2341772,270.696493 58.4744447,272.454165 57.3012897,273.625947 C44.3965847,280.070745 30.9053021,287.101435 18.0005971,293.546234 C16.8274421,294.132124 14.4811321,294.132124 13.3079771,294.132124 C13.3079771,293.546234 13.3079771,293.546234 12.7213996,292.960343 C13.3079771,292.374452 13.8945546,291.788561 14.4811321,291.20267 C24.4529496,285.343762 34.4247671,279.484855 44.9831622,273.040056 C48.5026272,271.282383 52.0220922,268.93882 55.5415572,267.181148 C59.6475997,265.423475 59.6475997,263.665803 57.3012897,259.564568 C52.0220922,261.908131 47.3294722,264.251694 42.0502747,266.595257 C32.6650346,270.696493 23.2797946,274.797728 13.8945546,278.898964 C12.7213996,279.484855 11.5482446,278.898964 9.78851206,279.484855 C9.78851206,278.898964 9.78851206,278.898964 9.20193456,278.313073 C10.9616671,277.141291 12.7213996,275.96951 14.4811321,274.797728 C27.3858371,267.767039 40.2905422,260.736349 52.6086697,253.119769 C53.7818247,252.533878 54.3684022,250.190315 54.9549797,249.018533 C54.3684022,248.432642 54.3684022,248.432642 53.7818247,247.846752 C50.2623597,249.604424 47.3294722,251.362096 43.8100072,253.119769 C36.1844996,257.221004 28.5589921,261.32224 20.3469071,265.423475 C17.4140196,266.595257 14.4811321,267.181148 10.9616671,268.352929 C10.9616671,267.767039 10.3750896,267.767039 10.3750896,267.181148 C13.8945546,264.837585 17.4140196,261.32224 21.5200621,259.564568 C30.9053021,254.29155 40.2905422,249.604424 49.6757822,244.917298 C53.1952472,243.159625 53.1952472,242.573735 51.4355147,239.05839 C37.3576546,245.503189 23.2797946,251.947987 9.20193456,257.806895 C8.61535706,257.221004 8.61535706,256.635114 8.02877956,256.049223 C10.9616671,254.29155 14.4811321,251.947987 17.4140196,250.190315 C27.3858371,244.331407 37.3576546,238.472499 46.7428947,233.199482 C49.0892047,232.0277 49.6757822,230.270028 47.9160497,227.340574 C35.5979221,233.199482 23.2797946,240.230171 9.78851206,243.159625 C9.78851206,242.573735 9.20193456,242.573735 9.20193456,241.987844 C9.78851206,241.401953 10.3750896,240.816062 10.9616671,240.230171 C22.1066396,233.785373 32.6650346,227.340574 43.8100072,220.895775 C44.9831622,220.309884 44.9831622,217.966321 46.1563172,216.79454 L42.0502747,216.79454 C29.7321471,222.067557 18.0005971,227.926465 5.68246955,233.199482 C5.68246955,233.199482 5.09589205,233.199482 3.33615954,232.613591 C5.68246955,230.855919 7.44220205,229.684137 8.61535706,228.512356 C19.1737521,222.067557 29.7321471,215.622758 40.2905422,209.177959 C42.0502747,208.006178 44.3965847,206.834396 42.6368522,203.319051 C30.3187246,210.935632 18.5871746,219.723994 3.92273704,222.067557 C3.92273704,221.481666 3.33615954,221.481666 3.33615954,220.895775 C5.09589205,219.723994 6.85562455,217.966321 9.20193456,216.79454 C19.1737521,210.935632 29.1455696,205.076724 38.5308096,198.631925 C39.1173872,198.046034 40.2905422,198.046034 40.8771197,196.874253 C41.4636972,195.702471 41.4636972,194.53069 42.0502747,193.358908 C40.8771197,193.358908 39.7039647,192.773017 39.1173872,193.358908 C34.4247671,195.702471 29.7321471,199.217816 25.0395271,201.561379 C19.1737521,204.490833 13.3079771,206.834396 7.44220205,209.177959 C6.26904705,209.76385 4.50931455,209.177959 3.33615954,209.76385 C3.33615954,209.177959 3.33615954,209.177959 2.74958204,208.592069 C15.6542871,200.975488 28.5589921,192.773017 41.4636972,185.156437 C41.4636972,184.570546 40.8771197,184.570546 40.8771197,183.984655 C28.5589921,191.015345 16.8274421,199.217816 2.16300454,197.460143 C16.2408646,191.601236 29.1455696,183.984655 41.4636972,175.196293 L41.4636972,173.438621 C37.3576546,175.782184 33.8381896,178.711638 29.7321471,179.88342 C22.1066396,183.398764 13.8945546,186.328218 5.68246955,188.671782 C3.92273704,189.257672 0.989849534,188.671782 0.403272032,188.085891 C-0.183305469,185.742328 0.989849534,183.984655 3.33615954,182.812874 C7.44220205,181.055201 11.5482446,179.297529 15.6542871,176.953966 C23.2797946,171.680949 30.3187246,166.407931 37.9442321,161.134914 C41.4636972,158.791351 44.9831622,156.447788 47.9160497,153.518334 C49.6757822,152.346552 51.4355147,150.58888 53.1952472,148.831208 C55.5415572,146.487644 57.8878672,146.487644 60.2341772,148.831208 C62.5804872,151.174771 65.5133747,153.518334 67.8596847,156.447788 C78.4180798,152.346552 86.0435873,144.729972 90.1496298,134.183938 C93.0825173,126.567358 96.0154048,118.950777 99.5348698,111.334197 C107.160377,94.9292547 115.372462,78.5243125 127.69059,65.0488242 C136.489252,55.6745715 142.941605,44.5426465 149.980535,33.9966122 C155.84631,25.2082503 163.471818,18.1775608 174.61679,15.2481068 C188.69465,11.7327621 202.185933,7.6315265 215.677215,2.35850937 C226.23561,-1.15683539 235.034273,-0.570944599 243.832935,5.87385413 C246.179245,7.6315265 248.525555,7.6315265 250.871865,6.45974492 C256.151063,8.2174173 259.08395,7.6315265 262.016838,7.6315265 C274.334965,5.87385413 285.479938,7.04563571 295.451755,14.662216 C300.144375,18.1775608 302.490685,22.8646871 301.904108,28.7235951 C301.31753,33.9966122 301.904108,39.2696293 300.730953,43.9567557 C298.97122,49.8156636 297.798065,55.6745715 292.518868,60.3616979 C288.999403,63.2911519 289.58598,65.0488242 293.692023,67.3923874 C306.596728,72.6654045 307.183305,83.7973296 306.01015,94.3433639 C305.423573,97.2728179 302.490685,99.616381 300.144375,101.959944 C297.211488,103.131726 294.2786,105.475289 291.345713,108.404743 Z M266.12288,31.0671582 C257.324218,24.6223595 249.112133,18.1775608 241.486625,12.3186528 C237.96716,9.38919888 233.861118,8.80330809 229.755075,9.97508968 C222.716145,11.7327621 215.677215,14.0763252 209.224863,16.4198884 C199.839623,19.9352332 191.04096,24.6223595 181.069143,26.3800319 C177.549678,26.9659227 173.443635,28.1377043 169.92417,29.8953766 C162.88524,33.9966122 158.19262,40.4414109 154.086578,48.0579912 C149.980535,55.0886807 145.874492,62.7052611 140.595295,67.9782782 C130.0369,78.5243125 121.824815,90.8280191 115.372462,104.303507 C109.506687,115.435432 105.400645,127.739139 100.121447,138.871064 C96.0154048,147.073535 91.3227848,155.276006 83.1106998,161.134914 C78.4180798,164.064368 74.3120373,167.579713 69.6194172,170.509167 C65.5133747,172.85273 61.9939097,176.953966 56.7147122,175.196293 C56.1281347,175.196293 55.5415572,176.368075 54.9549797,176.953966 C53.1952472,187.5 53.7818247,197.460143 55.5415572,207.420287 C56.7147122,216.208649 59.0610222,224.997011 61.4073322,233.785373 C65.5133747,249.604424 69.6194172,265.423475 73.7254598,281.242527 C74.3120373,283.58609 75.4851923,285.929653 76.6583473,289.444998 C81.3509673,284.171981 86.0435873,279.484855 90.1496298,275.383619 C96.6019823,267.767039 104.22749,260.736349 109.506687,252.533878 C112.439575,247.846752 115.95904,244.917298 120.65166,241.401953 C122.411392,244.331407 124.171125,243.745516 126.517435,242.573735 C131.796632,239.644281 136.489252,236.714827 141.76845,233.785373 C142.941605,233.199482 144.701337,232.613591 145.874492,232.613591 C145.874492,233.199482 146.46107,233.785373 146.46107,233.785373 C144.11476,236.714827 142.355027,239.644281 140.008717,242.573735 C140.595295,242.573735 140.595295,243.159625 141.181872,243.159625 C147.047647,238.472499 152.326845,233.199482 158.779198,227.926465 C157.606043,232.0277 157.019465,235.543045 156.432888,239.05839 C162.298663,236.714827 164.058395,229.098246 171.683903,227.340574 C170.510748,230.855919 169.92417,233.785373 168.751015,236.714827 C175.203368,233.199482 176.9631,225.582902 184.588608,223.239338 C184.00203,226.168792 183.415453,227.926465 182.828875,229.098246 C183.415453,229.098246 183.415453,229.684137 184.00203,229.684137 C186.934918,226.168792 190.454383,222.653448 193.973848,219.138103 C195.73358,221.481666 196.906735,220.895775 198.666468,219.138103 C200.4262,217.38043 202.77251,215.622758 204.532243,213.865086 C208.638285,209.177959 215.090638,206.834396 217.436948,200.389597 C218.023525,198.631925 219.19668,192.773017 224.475878,198.631925 C226.822188,194.53069 229.168498,191.015345 231.514808,187.5 C223.302723,183.984655 215.677215,180.46931 208.051708,177.539857 C206.291975,181.641092 205.705398,186.328218 201.012778,189.257672 C201.599355,179.88342 204.532243,171.095058 198.666468,162.892587 C192.214115,171.680949 189.867805,182.226983 182.828875,189.257672 C182.242298,189.257672 182.242298,188.671782 181.65572,188.671782 C183.415453,180.46931 185.175185,172.266839 186.934918,164.064368 C186.34834,164.064368 186.34834,164.064368 185.761763,163.478477 C185.175185,164.064368 184.00203,164.650259 183.415453,165.822041 C179.895988,169.923276 176.9631,174.024512 173.443635,177.539857 C170.510748,181.055201 166.991283,183.398764 164.644973,186.914109 C161.125508,191.015345 157.019465,193.358908 151.740267,194.53069 C146.46107,196.288362 140.008717,196.288362 134.72952,196.874253 C134.142942,196.874253 133.556365,196.288362 132.38321,195.702471 C132.38321,195.11658 132.38321,195.11658 131.796632,194.53069 C140.008717,191.601236 148.80738,191.015345 154.673155,183.984655 C159.952353,176.953966 165.818128,171.095058 171.097325,164.064368 C176.376523,157.033679 181.65572,150.58888 181.069143,141.214627 C176.9631,144.144081 173.443635,147.659426 168.751015,150.002989 C165.23155,151.760662 161.125508,151.174771 157.019465,151.760662 C156.432888,151.760662 155.259733,150.58888 154.086578,149.417098 C155.84631,148.831208 157.019465,148.831208 157.606043,148.245317 C161.712085,146.487644 165.818128,145.315863 169.337593,142.9723 C178.136255,137.113392 181.069143,128.32503 184.00203,118.364886 C184.588608,114.849542 186.34834,111.920088 186.34834,108.404743 C186.34834,103.131726 185.175185,98.4445994 184.588608,93.1715823 C183.415453,87.8985652 180.482565,84.3832204 175.789945,81.4537664 C174.030213,80.2819849 172.27048,79.1102033 169.92417,77.3525309 C178.722833,72.6654045 183.415453,77.9384217 188.108073,82.625548 C190.454383,78.5243125 189.867805,76.1807493 186.34834,72.0795138 C185.761763,71.493623 185.761763,70.3218414 185.175185,69.1500598 C186.34834,69.1500598 187.521495,67.9782782 188.108073,68.564169 C190.454383,69.7359506 192.800693,71.493623 195.147003,73.2512953 C198.07989,70.9077322 202.185933,69.1500598 204.532243,65.634715 C207.46513,61.5334795 209.224863,56.8463531 207.46513,50.9874452 C206.878553,49.8156636 207.46513,48.643882 207.46513,47.4721004 C207.46513,46.8862096 208.638285,45.1285373 208.638285,45.1285373 C209.81144,45.1285373 210.398018,45.7144281 210.984595,46.8862096 C212.15775,48.0579912 212.744328,49.8156636 213.917483,51.573336 L215.090638,51.573336 C215.677215,48.643882 215.677215,46.3003189 216.263793,43.3708649 C216.85037,41.0273017 216.85037,37.511957 220.956413,36.3401754 C220.369835,41.0273017 219.783258,45.1285373 219.783258,48.643882 C222.129568,46.8862096 222.716145,45.1285373 224.475878,43.3708649 C225.062455,42.1990833 226.822188,41.6131925 227.995343,40.4414109 C228.58192,42.1990833 228.58192,43.3708649 229.168498,45.1285373 C229.755075,46.8862096 229.168498,49.2297728 229.755075,50.4015544 C235.62085,56.8463531 243.246358,60.9475887 252.04502,62.1193703 C260.257105,63.2911519 267.882613,61.5334795 274.921543,58.6040255 C278.441008,56.8463531 282.54705,55.0886807 284.89336,50.4015544 C275.50812,54.50279 269.055768,50.4015544 262.603415,44.5426465 C256.73764,38.6837385 257.910795,33.9966122 266.12288,31.0671582 Z M291.93229,94.3433639 C293.692023,93.1715823 296.038333,91.9998007 296.62491,90.2421283 C300.730953,80.2819849 293.105445,69.1500598 282.54705,69.1500598 C273.748388,69.1500598 264.949725,70.3218414 256.73764,70.9077322 C247.3524,72.0795138 237.96716,73.2512953 228.58192,74.4230769 C220.369835,75.5948585 212.744328,76.7666401 204.532243,78.5243125 C196.906735,80.2819849 191.627538,90.8280191 193.973848,98.4445994 C193.973848,99.0304902 194.560425,100.202272 195.147003,100.202272 C200.4262,103.131726 205.705398,103.131726 210.398018,103.131726 C210.984595,97.8587086 210.984595,93.1715823 211.571173,87.8985652 C209.224863,89.0703468 206.878553,89.6562375 204.532243,90.2421283 C202.77251,90.8280191 200.4262,91.4139099 198.666468,90.8280191 C196.906735,90.8280191 196.320158,89.0703468 198.07989,87.3126744 C202.77251,83.2114388 208.051708,80.8678756 215.090638,82.0396572 C218.023525,82.625548 219.783258,85.555002 219.19668,87.8985652 C218.610103,91.9998007 218.023525,96.1010363 217.436948,100.202272 C217.436948,100.788163 218.610103,102.545835 219.19668,102.545835 C223.302723,103.131726 227.995343,103.131726 231.514808,103.717617 C232.101385,99.0304902 232.687963,95.5151455 233.27454,91.4139099 L235.034273,91.4139099 C236.207428,94.3433639 237.380583,97.2728179 238.553738,99.616381 C239.726893,101.959944 240.900048,103.131726 243.832935,102.545835 C254.39133,101.959944 264.949725,101.374053 275.50812,100.202272 C283.720205,99.616381 286.653093,96.1010363 286.653093,87.3126744 C286.653093,86.1408928 286.653093,84.9691112 287.23967,83.7973296 C287.826248,83.7973296 288.412825,83.7973296 288.999403,83.2114388 C289.58598,87.8985652 290.759135,90.8280191 291.93229,94.3433639 Z M287.826248,135.355719 C288.412825,135.355719 288.412825,135.94161 288.999403,135.94161 C290.759135,133.598047 293.105445,130.668593 293.105445,128.32503 C293.105445,124.809685 293.105445,119.536668 290.759135,117.778996 C285.479938,112.505978 277.85443,110.748306 270.228923,111.920088 C255.564485,113.67776 240.900048,115.435432 225.649033,113.67776 C218.610103,113.091869 212.15775,112.505978 205.11882,112.505978 C198.07989,112.505978 193.973848,116.021323 192.214115,123.637904 C191.04096,128.910921 195.73358,135.355719 199.839623,137.113392 C204.532243,138.871064 209.224863,141.214627 213.917483,142.386409 C220.369835,143.558191 226.23561,144.144081 232.687963,145.315863 C232.101385,140.628737 232.101385,136.527501 232.101385,132.426265 C232.101385,131.840375 232.687963,130.668593 233.27454,130.082702 C234.447695,130.668593 235.62085,130.668593 236.207428,131.254484 C236.794005,131.840375 236.794005,133.012156 237.380583,134.183938 C238.553738,138.285173 239.726893,141.800518 240.900048,145.315863 L245.592668,145.315863 C254.977908,144.729972 264.363148,143.558191 273.748388,142.9723 C280.787318,142.386409 281.960473,140.628737 283.720205,134.183938 L283.720205,133.598047 C284.306783,133.012156 285.479938,131.254484 285.479938,131.254484 C286.653093,131.840375 287.826248,132.426265 288.999403,133.598047 C288.412825,133.012156 287.826248,134.183938 287.826248,135.355719 Z M245.00609,178.125747 C245.592668,178.125747 246.765823,178.125747 247.938978,178.711638 C256.73764,179.88342 266.12288,179.297529 274.921543,176.953966 C278.441008,175.782184 281.373895,174.024512 282.54705,171.095058 C283.720205,166.993822 284.306783,161.134914 280.20074,158.791351 C276.094698,155.861897 270.8155,154.104225 265.536303,153.518334 C255.564485,152.346552 245.592668,152.932443 235.62085,152.346552 C227.995343,152.346552 220.369835,151.174771 212.744328,151.174771 C210.984595,151.174771 209.224863,152.346552 208.051708,153.518334 C205.11882,157.61957 207.46513,165.23615 211.571173,167.579713 C219.19668,172.266839 224.475878,169.337385 225.649033,161.134914 C226.23561,157.61957 224.475878,157.033679 221.54299,156.447788 L213.330905,156.447788 C212.15775,156.447788 210.984595,155.861897 209.81144,155.861897 C209.81144,155.276006 209.81144,155.276006 209.224863,154.690116 C209.81144,154.104225 210.398018,153.518334 210.984595,153.518334 C215.090638,152.932443 219.783258,151.760662 223.8893,152.346552 C230.92823,153.518334 233.27454,158.791351 229.755075,165.23615 C227.995343,168.165604 226.23561,170.509167 224.475878,174.024512 C229.755075,175.196293 234.447695,175.782184 239.140315,176.953966 C239.140315,175.196293 239.140315,173.438621 239.726893,172.266839 C240.31347,171.680949 241.486625,171.680949 242.65978,171.095058 C243.832935,173.438621 244.419513,175.196293 245.00609,178.125747 Z M257.910795,16.4198884 C262.016838,20.521124 262.016838,20.521124 267.296035,19.9352332 C269.055768,19.9352332 270.8155,20.521124 273.16181,20.521124 C272.575233,22.2787963 271.988655,24.0364687 270.8155,26.3800319 C277.267853,31.0671582 283.720205,35.7542846 290.759135,40.4414109 C296.038333,33.4107214 296.62491,26.3800319 291.93229,19.3493424 C289.58598,15.8339976 281.960473,11.7327621 277.85443,12.3186528 C271.402078,13.4904344 264.949725,15.2481068 257.910795,16.4198884 Z M79.0046573,291.20267 L77.8315023,291.20267 C77.8315023,292.374452 77.8315023,293.546234 78.4180798,294.132124 C82.5241223,305.264049 86.6301648,316.395974 90.7362073,326.942009 C91.3227848,328.11379 92.4959398,329.871463 93.6690948,331.043244 C97.7751373,335.14448 101.294602,333.972698 103.054335,327.5279 C96.6019823,327.5279 91.9093623,324.598446 88.9764748,318.739538 C87.2167423,315.810084 86.0435873,312.294739 84.8704323,309.365285 C83.1106998,302.920486 80.7643898,297.061578 79.0046573,291.20267 Z M268.46919,32.8248306 C267.296035,34.582503 266.12288,35.7542846 265.536303,36.9260662 C264.949725,38.0978477 264.363148,39.2696293 264.949725,40.4414109 C268.46919,46.3003189 277.267853,48.0579912 283.720205,43.9567557 C278.441008,39.8555201 273.16181,36.3401754 268.46919,32.8248306 Z M55.5415572,168.751495 L56.1281347,169.337385 C58.4744447,167.579713 60.8207547,166.407931 62.5804872,164.650259 C63.1670647,164.064368 63.7536422,162.306696 63.1670647,161.720805 C62.5804872,160.549024 61.9939097,159.377242 60.8207547,159.377242 C60.2341772,159.377242 59.0610222,160.549024 58.4744447,161.134914 C57.8878672,163.478477 56.7147122,166.407931 55.5415572,168.751495 Z M218.610103,66.2206058 C221.54299,65.634715 223.302723,62.7052611 222.716145,58.6040255 C219.19668,60.3616979 216.85037,62.1193703 218.610103,66.2206058 Z M230.341653,59.7758071 C229.755075,59.7758071 229.755075,59.7758071 229.168498,60.3616979 C228.58192,62.1193703 227.995343,63.2911519 227.995343,65.0488242 C228.58192,65.634715 228.58192,65.634715 229.168498,66.2206058 C230.341653,65.0488242 232.101385,64.4629334 232.687963,63.2911519 C232.687963,62.7052611 231.514808,60.9475887 230.341653,59.7758071 Z" id="Shape"></path>
        </g>
    </g>
</svg>