<?xml version="1.0" encoding="utf-8"?>
<svg>
	<path d="M63,27c0.4,0.4,0.7,0.8,1.1,1.2c0.4,0.4,0.4,0.9,0.4,1.5c0,1.9-1,3.1-2.3,4.3c-0.2,0.2-0.4,0.3-0.6,0.5c0,0,0,0,0,0.1 c0.3,0.3,0.7,0.6,0.9,1c0.3,0.9,0.3,1.8,0,2.7c-0.4,1.3-1.4,1.6-2.5,1.9c-2.4,0.8-4.7,1.7-6.9,3c-1.4,0.8-2.5,2.1-3.7,3.1 c-1.5,1.3-3,2.7-4.7,3.7c-1.3,0.8-2.9,1-4.4,1.5c-1.7,0.5-3.4,0.6-5.1,0.2c-0.7-0.2-1.4,0-1.9,0.7c-0.6,0.8-1.4,1.5-2.1,2.3 c0.9,1.2,1,2.7,1.1,4.1c0.2,1.5,0.2,3.1,0.1,4.6c0,0.7-0.2,1.4-0.4,2c-0.2,0.6-0.7,0.9-1.3,1.2c-2.3,1.1-4.5,2.2-6.8,3.3 c-2,0.9-4.1,1.7-6.1,2.4c-0.7,0.3-0.8,0-0.9-0.8c3.3-1.9,6.5-3.7,9.7-5.6c0.1-0.1,0.2-0.1,0.3-0.2c0.2-0.2,0.6-0.4,0.3-0.7 c-0.1-0.1-0.5,0-0.7,0.1c-2.1,1.1-4.3,2.3-6.4,3.4c-0.2,0.1-0.5,0.2-0.7,0.2c-0.2,0-0.4-0.1-0.6-0.2c0.1-0.2,0.1-0.5,0.3-0.6 c1-0.7,2.1-1.3,3.2-2c1.1-0.7,2.3-1.3,3.4-2c0.2-0.1,0.4-0.3,0.5-0.5c0.1-0.1,0.1-0.4,0-0.6c-0.1-0.1-0.4-0.1-0.5,0 c-0.7,0.5-1.4,1-2.1,1.5c-1.5,1-3,2.1-4.9,2.4c-0.2,0-0.4,0-0.6,0c0-0.1-0.1-0.1-0.1-0.2c0.3-0.3,0.6-0.8,1-1 c1.4-0.8,2.8-1.6,4.2-2.4c0.8-0.4,1.5-0.9,2.2-1.4c0.3-0.2,0.4-0.5,0.1-0.7c-0.1-0.1-0.5-0.1-0.6,0c-1.5,1.2-3.3,2.1-5.1,2.9 c-0.3,0.1-0.7,0.3-1,0.3c-0.3,0-0.6-0.1-0.9-0.2c0-0.1,0-0.2,0-0.3c0.4-0.2,0.8-0.5,1.2-0.7c1.8-1,3.6-2.1,5.3-3.1 c0.7-0.4,0.7-0.5,0.3-1.4c-0.2,0.2-0.5,0.3-0.7,0.5c-2,1.5-4.1,2.6-6.5,3.5c-0.5,0.2-0.7-0.1-0.9-0.4c-0.2-0.5,0.2-0.5,0.5-0.6 c1.9-0.6,3.4-1.7,5-2.8c0.7-0.5,1.4-0.8,2-1.3c0.1-0.1,0.1-0.3,0.2-0.4c-0.1,0-0.3-0.2-0.4-0.1c-0.4,0.2-0.8,0.4-1.1,0.5 c-1.9,1-3.7,1.9-5.6,2.9c-0.3,0.2-0.7,0.2-1.1,0.2c0,0,0-0.1-0.1-0.1c0.1-0.1,0.1-0.2,0.2-0.2c1.8-1.1,3.5-2.3,5.3-3.3 c0.6-0.4,1.3-0.6,2-0.9c0.4-0.2,0.5-0.4,0.3-0.8c-0.2-0.5-0.5-0.2-0.7,0c-2.2,1.1-4.5,2.3-6.7,3.4c-0.2,0.1-0.6,0.1-0.8,0.1 c0-0.1,0-0.1-0.1-0.2c0.1-0.1,0.2-0.2,0.3-0.3c1.7-1,3.4-2,5.2-3.1c0.6-0.3,1.2-0.7,1.8-1c0.7-0.3,0.7-0.6,0.3-1.3 c-0.9,0.4-1.7,0.8-2.6,1.2c-1.6,0.7-3.2,1.4-4.8,2.1c-0.2,0.1-0.4,0-0.7,0.1c0-0.1,0-0.1-0.1-0.2c0.3-0.2,0.6-0.4,0.9-0.6 c2.2-1.2,4.4-2.4,6.5-3.7c0.2-0.1,0.3-0.5,0.4-0.7c-0.1-0.1-0.1-0.1-0.2-0.2c-0.6,0.3-1.1,0.6-1.7,0.9c-1.3,0.7-2.6,1.4-4,2.1 c-0.5,0.2-1,0.3-1.6,0.5c0-0.1-0.1-0.1-0.1-0.2c0.6-0.4,1.2-1,1.9-1.3c1.6-0.9,3.2-1.7,4.8-2.5c0.6-0.3,0.6-0.4,0.3-1 c-2.4,1.1-4.8,2.2-7.2,3.2c-0.1-0.1-0.1-0.2-0.2-0.3c0.5-0.3,1.1-0.7,1.6-1c1.7-1,3.4-2,5-2.9c0.4-0.2,0.5-0.5,0.2-1 c-2.1,1-4.2,2.2-6.5,2.7c0-0.1-0.1-0.1-0.1-0.2c0.1-0.1,0.2-0.2,0.3-0.3c1.9-1.1,3.7-2.2,5.6-3.3c0.2-0.1,0.2-0.5,0.4-0.7 c-0.2,0-0.5,0-0.7,0c-2.1,0.9-4.1,1.9-6.2,2.8c0,0-0.1,0-0.4-0.1c0.4-0.3,0.7-0.5,0.9-0.7c1.8-1.1,3.6-2.2,5.4-3.3 c0.3-0.2,0.7-0.4,0.4-1c-2.1,1.3-4.1,2.8-6.6,3.2c0-0.1-0.1-0.1-0.1-0.2c0.3-0.2,0.6-0.5,1-0.7c1.7-1,3.4-2,5-3.1 c0.1-0.1,0.3-0.1,0.4-0.3c0.1-0.2,0.1-0.4,0.2-0.6c-0.2,0-0.4-0.1-0.5,0c-0.8,0.4-1.6,1-2.4,1.4c-1,0.5-2,0.9-3,1.3 c-0.2,0.1-0.5,0-0.7,0.1c0-0.1,0-0.1-0.1-0.2c2.2-1.3,4.4-2.7,6.6-4c0-0.1-0.1-0.1-0.1-0.2c-2.1,1.2-4.1,2.6-6.6,2.3 c2.4-1,4.6-2.3,6.7-3.8c0,0,0-0.2,0-0.3c-0.7,0.4-1.3,0.9-2,1.1c-1.3,0.6-2.7,1.1-4.1,1.5c-0.3,0.1-0.8,0-0.9-0.1 c-0.1-0.4,0.1-0.7,0.5-0.9c0.7-0.3,1.4-0.6,2.1-1c1.3-0.9,2.5-1.8,3.8-2.7c0.6-0.4,1.2-0.8,1.7-1.3c0.3-0.2,0.6-0.5,0.9-0.8 c0.4-0.4,0.8-0.4,1.2,0c0.4,0.4,0.9,0.8,1.3,1.3c1.8-0.7,3.1-2,3.8-3.8c0.5-1.3,1-2.6,1.6-3.9c1.3-2.8,2.7-5.6,4.8-7.9 c1.5-1.6,2.6-3.5,3.8-5.3c1-1.5,2.3-2.7,4.2-3.2c2.4-0.6,4.7-1.3,7-2.2c1.8-0.6,3.3-0.5,4.8,0.6c0.4,0.3,0.8,0.3,1.2,0.1 C57,9.9,57.5,9.8,58,9.8c2.1-0.3,4-0.1,5.7,1.2c0.8,0.6,1.2,1.4,1.1,2.4c-0.1,0.9,0,1.8-0.2,2.6c-0.3,1-0.5,2-1.4,2.8 c-0.6,0.5-0.5,0.8,0.2,1.2c2.2,0.9,2.3,2.8,2.1,4.6c-0.1,0.5-0.6,0.9-1,1.3C64,26.1,63.5,26.5,63,27z M58.7,13.8 c-1.5-1.1-2.9-2.2-4.2-3.2c-0.6-0.5-1.3-0.6-2-0.4c-1.2,0.3-2.4,0.7-3.5,1.1c-1.6,0.6-3.1,1.4-4.8,1.7c-0.6,0.1-1.3,0.3-1.9,0.6 c-1.2,0.7-2,1.8-2.7,3.1c-0.7,1.2-1.4,2.5-2.3,3.4c-1.8,1.8-3.2,3.9-4.3,6.2c-1,1.9-1.7,4-2.6,5.9c-0.7,1.4-1.5,2.8-2.9,3.8 c-0.8,0.5-1.5,1.1-2.3,1.6c-0.7,0.4-1.3,1.1-2.2,0.8c-0.1,0-0.2,0.2-0.3,0.3c-0.3,1.8-0.2,3.5,0.1,5.2c0.2,1.5,0.6,3,1,4.5 c0.7,2.7,1.4,5.4,2.1,8.1c0.1,0.4,0.3,0.8,0.5,1.4c0.8-0.9,1.6-1.7,2.3-2.4c1.1-1.3,2.4-2.5,3.3-3.9c0.5-0.8,1.1-1.3,1.9-1.9 c0.3,0.5,0.6,0.4,1,0.2c0.9-0.5,1.7-1,2.6-1.5c0.2-0.1,0.5-0.2,0.7-0.2c0,0.1,0.1,0.2,0.1,0.2c-0.4,0.5-0.7,1-1.1,1.5 c0.1,0,0.1,0.1,0.2,0.1c1-0.8,1.9-1.7,3-2.6c-0.2,0.7-0.3,1.3-0.4,1.9c1-0.4,1.3-1.7,2.6-2c-0.2,0.6-0.3,1.1-0.5,1.6 c1.1-0.6,1.4-1.9,2.7-2.3c-0.1,0.5-0.2,0.8-0.3,1c0.1,0,0.1,0.1,0.2,0.1c0.5-0.6,1.1-1.2,1.7-1.8c0.3,0.4,0.5,0.3,0.8,0 c0.3-0.3,0.7-0.6,1-0.9c0.7-0.8,1.8-1.2,2.2-2.3c0.1-0.3,0.3-1.3,1.2-0.3c0.4-0.7,0.8-1.3,1.2-1.9c-1.4-0.6-2.7-1.2-4-1.7 c-0.3,0.7-0.4,1.5-1.2,2c0.1-1.6,0.6-3.1-0.4-4.5c-1.1,1.5-1.5,3.3-2.7,4.5c-0.1,0-0.1-0.1-0.2-0.1c0.3-1.4,0.6-2.8,0.9-4.2 c-0.1,0-0.1,0-0.2-0.1c-0.1,0.1-0.3,0.2-0.4,0.4c-0.6,0.7-1.1,1.4-1.7,2c-0.5,0.6-1.1,1-1.5,1.6c-0.6,0.7-1.3,1.1-2.2,1.3 c-0.9,0.3-2,0.3-2.9,0.4c-0.1,0-0.2-0.1-0.4-0.2c0-0.1,0-0.1-0.1-0.2c1.4-0.5,2.9-0.6,3.9-1.8c0.9-1.2,1.9-2.2,2.8-3.4 c0.9-1.2,1.8-2.3,1.7-3.9c-0.7,0.5-1.3,1.1-2.1,1.5c-0.6,0.3-1.3,0.2-2,0.3c-0.1,0-0.3-0.2-0.5-0.4c0.3-0.1,0.5-0.1,0.6-0.2 c0.7-0.3,1.4-0.5,2-0.9c1.5-1,2-2.5,2.5-4.2c0.1-0.6,0.4-1.1,0.4-1.7c0-0.9-0.2-1.7-0.3-2.6c-0.2-0.9-0.7-1.5-1.5-2 c-0.3-0.2-0.6-0.4-1-0.7c1.5-0.8,2.3,0.1,3.1,0.9c0.4-0.7,0.3-1.1-0.3-1.8c-0.1-0.1-0.1-0.3-0.2-0.5c0.2,0,0.4-0.2,0.5-0.1 c0.4,0.2,0.8,0.5,1.2,0.8c0.5-0.4,1.2-0.7,1.6-1.3c0.5-0.7,0.8-1.5,0.5-2.5c-0.1-0.2,0-0.4,0-0.6c0-0.1,0.2-0.4,0.2-0.4 c0.2,0,0.3,0.1,0.4,0.3c0.2,0.2,0.3,0.5,0.5,0.8c0.1,0,0.1,0,0.2,0c0.1-0.5,0.1-0.9,0.2-1.4c0.1-0.4,0.1-1,0.8-1.2 c-0.1,0.8-0.2,1.5-0.2,2.1c0.4-0.3,0.5-0.6,0.8-0.9c0.1-0.2,0.4-0.3,0.6-0.5c0.1,0.3,0.1,0.5,0.2,0.8c0.1,0.3,0,0.7,0.1,0.9 c1,1.1,2.3,1.8,3.8,2c1.4,0.2,2.7-0.1,3.9-0.6c0.6-0.3,1.3-0.6,1.7-1.4c-1.6,0.7-2.7,0-3.8-1C57.1,15.1,57.3,14.3,58.7,13.8z M63.1,24.6c0.3-0.2,0.7-0.4,0.8-0.7c0.7-1.7-0.6-3.6-2.4-3.6c-1.5,0-3,0.2-4.4,0.3c-1.6,0.2-3.2,0.4-4.8,0.6 c-1.4,0.2-2.7,0.4-4.1,0.7c-1.3,0.3-2.2,2.1-1.8,3.4c0,0.1,0.1,0.3,0.2,0.3c0.9,0.5,1.8,0.5,2.6,0.5c0.1-0.9,0.1-1.7,0.2-2.6 c-0.4,0.2-0.8,0.3-1.2,0.4c-0.3,0.1-0.7,0.2-1,0.1c-0.3,0-0.4-0.3-0.1-0.6c0.8-0.7,1.7-1.1,2.9-0.9c0.5,0.1,0.8,0.6,0.7,1 c-0.1,0.7-0.2,1.4-0.3,2.1c0,0.1,0.2,0.4,0.3,0.4c0.7,0.1,1.5,0.1,2.1,0.2c0.1-0.8,0.2-1.4,0.3-2.1c0.1,0,0.2,0,0.3,0 c0.2,0.5,0.4,1,0.6,1.4c0.2,0.4,0.4,0.6,0.9,0.5c1.8-0.1,3.6-0.2,5.4-0.4c1.4-0.1,1.9-0.7,1.9-2.2c0-0.2,0-0.4,0.1-0.6 c0.1,0,0.2,0,0.3-0.1C62.7,23.5,62.9,24,63.1,24.6z M62.4,31.6c0.1,0,0.1,0.1,0.2,0.1c0.3-0.4,0.7-0.9,0.7-1.3c0-0.6,0-1.5-0.4-1.8 c-0.9-0.9-2.2-1.2-3.5-1c-2.5,0.3-5,0.6-7.6,0.3c-1.2-0.1-2.3-0.2-3.5-0.2c-1.2,0-1.9,0.6-2.2,1.9c-0.2,0.9,0.6,2,1.3,2.3 c0.8,0.3,1.6,0.7,2.4,0.9c1.1,0.2,2.1,0.3,3.2,0.5c-0.1-0.8-0.1-1.5-0.1-2.2c0-0.1,0.1-0.3,0.2-0.4c0.2,0.1,0.4,0.1,0.5,0.2 c0.1,0.1,0.1,0.3,0.2,0.5c0.2,0.7,0.4,1.3,0.6,1.9c0.3,0,0.5,0,0.8,0c1.6-0.1,3.2-0.3,4.8-0.4c1.2-0.1,1.4-0.4,1.7-1.5 c0,0,0-0.1,0-0.1c0.1-0.1,0.3-0.4,0.3-0.4c0.2,0.1,0.4,0.2,0.6,0.4C62.5,31.2,62.4,31.4,62.4,31.6z M55.1,38.9c0.1,0,0.3,0,0.5,0.1 c1.5,0.2,3.1,0.1,4.6-0.3c0.6-0.2,1.1-0.5,1.3-1c0.2-0.7,0.3-1.7-0.4-2.1c-0.7-0.5-1.6-0.8-2.5-0.9c-1.7-0.2-3.4-0.1-5.1-0.2 c-1.3,0-2.6-0.2-3.9-0.2c-0.3,0-0.6,0.2-0.8,0.4c-0.5,0.7-0.1,2,0.6,2.4c1.3,0.8,2.2,0.3,2.4-1.1c0.1-0.6-0.2-0.7-0.7-0.8 c-0.5,0-0.9,0-1.4,0c-0.2,0-0.4-0.1-0.6-0.1c0-0.1,0-0.1-0.1-0.2c0.1-0.1,0.2-0.2,0.3-0.2c0.7-0.1,1.5-0.3,2.2-0.2 c1.2,0.2,1.6,1.1,1,2.2c-0.3,0.5-0.6,0.9-0.9,1.5c0.9,0.2,1.7,0.3,2.5,0.5c0-0.3,0-0.6,0.1-0.8c0.1-0.1,0.3-0.1,0.5-0.2 C54.9,38.1,55,38.4,55.1,38.9z M57.3,11.3C58,12,58,12,58.9,11.9c0.3,0,0.6,0.1,1,0.1c-0.1,0.3-0.2,0.6-0.4,1 c1.1,0.8,2.2,1.6,3.4,2.4c0.9-1.2,1-2.4,0.2-3.6c-0.4-0.6-1.7-1.3-2.4-1.2C59.6,10.8,58.5,11.1,57.3,11.3z M26.8,58.2 c-0.1,0-0.1,0-0.2,0c0,0.2,0,0.4,0.1,0.5c0.7,1.9,1.4,3.8,2.1,5.6c0.1,0.2,0.3,0.5,0.5,0.7c0.7,0.7,1.3,0.5,1.6-0.6 c-1.1,0-1.9-0.5-2.4-1.5c-0.3-0.5-0.5-1.1-0.7-1.6C27.5,60.2,27.1,59.2,26.8,58.2z M59.1,14.1c-0.2,0.3-0.4,0.5-0.5,0.7 c-0.1,0.2-0.2,0.4-0.1,0.6c0.6,1,2.1,1.3,3.2,0.6C60.8,15.3,59.9,14.7,59.1,14.1z M22.8,37.3c0,0,0.1,0.1,0.1,0.1 c0.4-0.3,0.8-0.5,1.1-0.8c0.1-0.1,0.2-0.4,0.1-0.5c-0.1-0.2-0.2-0.4-0.4-0.4c-0.1,0-0.3,0.2-0.4,0.3C23.2,36.4,23,36.9,22.8,37.3z M50.6,19.8c0.5-0.1,0.8-0.6,0.7-1.3C50.7,18.8,50.3,19.1,50.6,19.8z M52.6,18.7c-0.1,0-0.1,0-0.2,0.1c-0.1,0.3-0.2,0.5-0.2,0.8 c0.1,0.1,0.1,0.1,0.2,0.2c0.2-0.2,0.5-0.3,0.6-0.5C53,19.2,52.8,18.9,52.6,18.7z" />
</svg>

