<?xml version="1.0" encoding="UTF-8"?>
<svg width="165px" height="168px" viewBox="0 0 165 168" version="1.1" xmlns="http://www.w3.org/2000/svg" xmlns:xlink="http://www.w3.org/1999/xlink">
    <!-- Generator: Sketch 43.2 (39069) - http://www.bohemiancoding.com/sketch -->
    <title>g12</title>
    <desc>Created with Sketch.</desc>
    <defs>
        <linearGradient x1="95.1944521%" y1="32.1434277%" x2="-14.0589517%" y2="84.0810748%" id="linearGradient-1">
            <stop stop-color="#F8E87A" offset="0%"></stop>
            <stop stop-color="#F7E57A" offset="24.71%"></stop>
            <stop stop-color="#F5DC79" offset="43.14%"></stop>
            <stop stop-color="#F1CD79" offset="59.22%"></stop>
            <stop stop-color="#EBB878" offset="74.51%"></stop>
            <stop stop-color="#E59E78" offset="88.24%"></stop>
            <stop stop-color="#E08378" offset="100%"></stop>
        </linearGradient>
        <path d="M8.8125,1.6 C8.8075,1.67375 8.7775,1.815 8.72,2.02 L8.85125,1.6925 C9.0125,1.98625 9.15875,2.3225 9.28125,2.70375 C9.69125,7.855 6.62,11.405 0.0625,13.35375 C0.18875,12.72375 0.43875,12.07375 0.80875,11.41 C1.04875,10.94625 1.33125,10.4625 1.65875,9.96 C2.27875,9.12 3.05,8.24625 3.97375,7.3475 C5.94625,5.42375 7.47875,3.32375 8.5775,1.04875 C8.72875,1.23875 8.8075,1.42 8.8125,1.6 L8.8125,1.6 Z" id="path-2"></path>
        <polygon id="path-4" points="0.672963238 0.154671551 15.2511669 0.154671551 15.2511669 16.7187667 0.672963238 16.7187667 0.672963238 0.154671551"></polygon>
        <polygon id="path-6" points="0.672963238 0.154671551 15.2511669 0.154671551 15.2511669 16.7187667 0.672963238 16.7187667 0.672963238 0.154671551"></polygon>
        <linearGradient x1="89.1900949%" y1="34.2269706%" x2="0.758005639%" y2="73.3452822%" id="linearGradient-8">
            <stop stop-color="#F8E87A" offset="0%"></stop>
            <stop stop-color="#F7E57A" offset="24.71%"></stop>
            <stop stop-color="#F5DC79" offset="43.14%"></stop>
            <stop stop-color="#F1CD79" offset="59.22%"></stop>
            <stop stop-color="#EBB878" offset="74.51%"></stop>
            <stop stop-color="#E59E78" offset="88.24%"></stop>
            <stop stop-color="#E08378" offset="100%"></stop>
        </linearGradient>
        <path d="M1.3125,10.85 C7.87,8.90125 10.94125,5.35125 10.53125,0.2 C10.8975,1.24 11.0875,2.53875 11.0975,4.09125 C11.14125,6.245 10.765,7.83125 9.97,8.8575 C9.6125,9.30125 9.0025,9.775 8.13375,10.2925 C7.68375,10.59 7.02,10.99625 6.15125,11.51375 C5.73125,11.79625 5.33125,12.04125 4.945,12.24125 C3.42125,13.17875 2.3475,13.725 1.7275,13.88125 C1.22875,12.96875 1.0925,11.9575 1.3125,10.85 L1.3125,10.85 Z" id="path-9"></path>
        <polygon id="path-11" points="0.210988474 0.0527971158 16.4281026 0.0527971158 16.4281026 18.2558027 0.210988474 18.2558027 0.210988474 0.0527971158"></polygon>
        <polygon id="path-13" points="0.210988474 0.0527971158 16.4281026 0.0527971158 16.4281026 18.2558027 0.210988474 18.2558027 0.210988474 0.0527971158"></polygon>
        <linearGradient x1="4.01918061%" y1="36.9130279%" x2="109.243508%" y2="80.6727436%" id="linearGradient-15">
            <stop stop-color="#F8E87A" offset="0%"></stop>
            <stop stop-color="#F7E57A" offset="24.71%"></stop>
            <stop stop-color="#F5DC79" offset="43.14%"></stop>
            <stop stop-color="#F1CD79" offset="59.22%"></stop>
            <stop stop-color="#EBB878" offset="74.51%"></stop>
            <stop stop-color="#E59E78" offset="88.24%"></stop>
            <stop stop-color="#E08378" offset="100%"></stop>
        </linearGradient>
        <path d="M0.825,1.1225 C0.84,1.19625 0.89375,1.3325 0.98125,1.52375 L0.80125,1.22 C0.68875,1.5375 0.59625,1.89375 0.5325,2.29 C0.9425,7.43625 4.53625,10.45875 11.31875,11.3525 C11.09375,10.74625 10.7425,10.14625 10.27375,9.54625 C9.96625,9.12625 9.61,8.69625 9.20375,8.25125 C8.4575,7.51875 7.55875,6.7775 6.50875,6.035 C4.2575,4.4475 2.4125,2.6175 0.96625,0.54125 C0.845,0.75125 0.80125,0.9475 0.825,1.1225 L0.825,1.1225 Z" id="path-16"></path>
        <polygon id="path-18" points="0.245997884 0.755403503 15.0858703 0.755403503 15.0858703 14.6832837 0.245997884 14.6832837 0.245997884 0.755403503"></polygon>
        <polygon id="path-20" points="0.245997884 0.755403503 15.0858703 0.755403503 15.0858703 14.6832837 0.245997884 14.6832837 0.245997884 0.755403503"></polygon>
        <radialGradient cx="-162.544907%" cy="-847.877211%" fx="-162.544907%" fy="-847.877211%" r="122.702515%" gradientTransform="translate(-1.625449,-8.478772),scale(1.000000,0.997688),translate(1.625449,8.478772)" id="radialGradient-22">
            <stop stop-color="#FFFFFF" offset="0%"></stop>
            <stop stop-color="#F4D98F" offset="100%"></stop>
        </radialGradient>
        <linearGradient x1="7.57136521%" y1="37.7024772%" x2="96.6549417%" y2="68.8342699%" id="linearGradient-23">
            <stop stop-color="#F8E87A" offset="0%"></stop>
            <stop stop-color="#F7E57A" offset="24.71%"></stop>
            <stop stop-color="#F5DC79" offset="43.14%"></stop>
            <stop stop-color="#F1CD79" offset="59.22%"></stop>
            <stop stop-color="#EBB878" offset="74.51%"></stop>
            <stop stop-color="#E59E78" offset="88.24%"></stop>
            <stop stop-color="#E08378" offset="100%"></stop>
        </linearGradient>
        <path d="M11.30875,10.0825 C4.52125,9.18875 0.9275,6.17125 0.5225,1.02 C0.3225,2.10375 0.3375,3.4125 0.57625,4.95125 C0.86875,7.085 1.49375,8.59375 2.44125,9.4825 C2.86125,9.8625 3.54,10.23375 4.4775,10.605 C4.975,10.83 5.68875,11.1275 6.62625,11.49875 C7.09,11.71875 7.525,11.89375 7.94,12.03125 C9.59,12.715 10.7325,13.08625 11.3725,13.14 C11.71875,12.1625 11.69375,11.1425 11.30875,10.0825 Z" id="path-24"></path>
        <polygon id="path-26" points="0.615994702 0.300897412 16.0578619 0.300897412 16.0578619 16.6547568 0.615994702 16.6547568 0.615994702 0.300897412"></polygon>
        <polygon id="path-28" points="0.615994702 0.300897412 16.0578619 0.300897412 16.0578619 16.6547568 0.615994702 16.6547568 0.615994702 0.300897412"></polygon>
        <radialGradient cx="-154.213875%" cy="-768.525165%" fx="-154.213875%" fy="-768.525165%" r="117.832768%" gradientTransform="translate(-1.542139,-7.685252),scale(1.000000,0.926734),translate(1.542139,7.685252)" id="radialGradient-30">
            <stop stop-color="#FFFFFF" offset="0%"></stop>
            <stop stop-color="#F4D98F" offset="100%"></stop>
        </radialGradient>
    </defs>
    <g id="Page-1" stroke="none" stroke-width="1" fill="none" fill-rule="evenodd">
        <g id="inhabitants-npc-flamingo" transform="translate(-2.000000, -1.000000)">
            <g id="g10" transform="translate(83.875000, 85.230000) scale(-1, 1) rotate(-180.000000) translate(-83.875000, -85.230000) translate(0.750000, 0.230000)">
                <g id="g12">
                    <g id="g14" transform="translate(137.155178, 124.592296) scale(-1, 1) rotate(5.002521) translate(-137.155178, -124.592296) translate(120.843042, 85.694128)" stroke="#E08378" stroke-width="6.00010523" stroke-linecap="round" stroke-linejoin="round">
                        <path d="M16.6258301,77.2856416 L19.8255181,75.9317344 C22.3538991,74.7007956 24.5221583,73.3155189 26.3240218,71.7846878 C32.1562375,66.7843909 33.423565,60.9973473 30.1234945,54.4348498 C29.9453158,54.0822568 29.7633728,53.7359376 29.5713915,53.3845993 C27.8736747,50.3430135 25.4431665,47.3202493 22.274848,44.332619 C21.2258522,43.3275406 19.5933839,41.9259517 17.3736787,40.1353812 C16.0009498,39.0198821 14.399851,37.7538095 12.5754014,36.3346537 C8.60653347,33.2667175 5.80712012,30.8010755 4.17339704,28.9339635 C1.80437311,26.1659196 0.588491646,23.3665062 0.521988325,20.5344686 C0.355102635,14.2015958 2.64005634,9.01559163 7.37559466,4.98398468 C9.74085426,2.94873213 12.1249355,1.5647102 14.5215646,0.834428453" id="path16"></path>
                    </g>
                    <g id="g18" transform="translate(139.436345, 121.873464) scale(-1, 1) rotate(5.002521) translate(-139.436345, -121.873464) translate(123.124210, 82.975295)" stroke="#B56A61" stroke-width="1.99999325" stroke-linecap="round" stroke-linejoin="round">
                        <path d="M16.6383779,76.6419397 L19.6874924,75.7422627 C22.086631,74.87521 24.204699,73.8764054 26.0366773,72.7408298 C31.806154,69.0455038 33.5390047,64.4919086 31.2377388,59.0900823 C30.7860182,58.0122266 30.2364247,56.9481734 29.5851941,55.8929038 C28.1095732,53.5263894 26.1282762,51.2301427 23.6387934,48.9916158 C22.2911601,47.7619318 19.5921291,45.6463733 15.5404457,42.6424309 C14.8741577,42.1480477 14.1765002,41.6298237 13.4386898,41.0915233 C9.17243908,37.989708 6.13838194,35.3584351 4.3365184,33.1939403 C1.67262124,30.0243669 0.255975044,26.6101116 0.0865797944,22.9436455 C-0.178178707,16.6095179 2.1557114,10.9103089 7.08825012,5.84225395 C9.55640165,3.34273293 12.0383558,1.45805393 14.5391316,0.190726504" id="path20"></path>
                    </g>
                    <g id="g22" transform="translate(134.709886, 125.436129) scale(-1, 1) rotate(5.002521) translate(-134.709886, -125.436129) translate(118.397750, 87.165350)" stroke="#E5A39D" stroke-width="1.00000917" stroke-linecap="round" stroke-linejoin="round">
                        <path d="M15.7098409,75.3269307 L18.8116562,74.0809345 C21.2434191,72.9804927 23.3765445,71.6955984 25.2135419,70.2262515 C31.1135157,65.5634904 32.9480035,60.0299122 30.7107314,53.6292813 C30.5388266,53.1248599 30.3481001,52.6267124 30.1385519,52.1298197 C28.6767336,48.6452966 26.3867608,45.3264045 23.2636143,42.1794172 C22.3037079,41.1893961 21.1053933,40.0889543 19.661142,38.8768372 C17.8555141,37.3535348 15.6734523,35.6533084 13.1124471,33.7786676 C8.67931069,30.5112214 5.74814548,28.0957707 4.3114228,26.5260413 C1.81315656,23.8621442 0.627389814,21.1769158 0.764160794,18.4791396 C1.03142885,13.4123394 2.86466189,8.92901184 6.26260513,5.02915675 C7.96283152,3.06166229 9.64423622,1.60988226 11.3118383,0.67507144" id="path24"></path>
                    </g>
                    <path d="M151.55,166.8 C149.3725,168.1575 147.53125,168.93875 146.0275,169.14375 C143.015,169.55375 140.09,168.3875 137.25875,165.6375 C136.0625,162.81625 136.07125,159.89625 137.2925,156.88375 C138.02,155.955 140.085,154.77375 143.49375,153.32375 C144.84125,152.7525 146.72625,152.37125 149.1425,152.17625 L152.11625,152.08375 L152.0625,152.40125 C152.02375,152.56625 151.57,153.53875 150.69625,155.32125 C150.16375,156.45375 150.075,157.48375 150.4375,158.41625 C150.78875,159.24625 151.53125,159.89125 152.66875,160.35 C153.835,160.79375 154.875,160.8575 155.79375,160.545 L153.9625,164.03625 C153.25375,165.27625 152.45375,166.2 151.55,166.8 L151.55,166.8 Z" id="path26" fill="#E08378"></path>
                    <path d="M136.7125,158.6 C137.19625,158.795 137.445,159.24875 137.46,159.97125 C137.79125,159.215 137.9575,158.63375 137.9675,158.23375 L137.9475,158.185 C138.5925,157.2225 139.59375,156.3825 140.95125,155.66 C141.78625,155.235 143.02125,154.7275 144.6525,154.14625 L144.46125,154.7125 L145.565,154.24375 C146.01,154.0925 146.395,154.02 146.7225,154.02875 L146.56125,154.42 C146.87875,154.395 147.3475,154.26875 147.9775,154.03875 C148.6025,153.81 149.095,153.6875 149.45625,153.6825 L148.5775,154.05375 C149.76875,153.85875 150.6675,153.8875 151.27375,154.1325 C151.2,154.28375 151.12125,154.445 151.04375,154.61 C150.755,154.625 150.39375,154.7125 149.965,154.87875 C149.52,155.03 148.91,155.255 148.12875,155.5475 C145.32125,156.525 144.6125,157.115 146,157.32 C145.51625,157.4525 145.09125,157.77875 144.73,158.2925 C144.52,158.565 144.2225,159.015 143.84125,159.65 C143.75875,159.28875 143.86125,158.84375 144.14875,158.32625 C143.32875,158.52625 142.78625,159.5175 142.5275,161.295 C142.31375,160.69875 142.215,160.05 142.245,159.34625 C142.06875,159.5325 141.7425,159.78125 141.25875,160.09375 C140.965,159.7475 140.91625,159.3325 141.1125,158.85375 C140.56,158.83375 139.8625,159.14625 139.0125,159.79625 C138.1525,160.41625 137.62125,160.9875 137.40625,161.51 C137.20625,161.12375 136.9225,160.41625 136.55625,159.37625 L136.7125,158.6 L136.7125,158.6 Z M139.34875,167.36875 C139.16375,167.0125 138.84625,166.6025 138.3975,166.14375 C137.90875,165.59125 137.58125,165.20125 137.41625,164.98625 C137.3175,164.845 137.17625,164.59625 136.99125,164.23875 C136.88875,163.995 136.77125,163.84875 136.63875,163.795 C136.4975,163.12625 136.43,162.61375 136.42,162.2575 L136.53625,162.15375 C136.65375,162.2475 136.78125,162.46625 136.9225,162.80375 C137.055,163.11125 137.17625,163.31125 137.28875,163.40875 C137.40125,163.5075 137.62125,163.62875 137.93875,163.785 C138.32875,163.94625 138.6075,164.07875 138.76375,164.195 C139.6325,164.87375 140.145,165.275 140.30125,165.38625 C140.81875,165.7475 141.41,166.04125 142.08375,166.26125 C141.6,166.3975 141.175,166.33875 140.81875,166.095 C141.2925,166.6175 141.61,167.0225 141.77125,167.315 C141.175,167.10125 140.6525,166.97875 140.20375,166.94875 C140.36,167.57375 140.95125,168.155 141.97625,168.6975 C141.185,168.45375 140.31125,168.00875 139.34875,167.36875 L139.34875,167.36875 Z" id="path28" fill="#CE786F"></path>
                    <path d="M154.4375,161.5625 C154.06625,161.71875 153.7825,162.11375 153.5775,162.73875 C153.43625,163.09 153.27,163.59875 153.08,164.2575 C152.665,165.15625 152.05,165.9225 151.23375,166.5625 C150.4975,167.12875 149.67625,167.5825 148.77375,167.93 C148.3,168.095 147.79625,168.14375 147.265,168.08125 C146.5225,167.96375 146.03375,167.915 145.795,167.94875 C145.975,167.87125 146.75625,167.6125 148.12875,167.1725 C149.105,166.83125 149.8475,166.49875 150.36,166.17125 C150.73625,165.9425 151.06375,165.56625 151.35125,165.04375 C151.67375,164.43875 151.9325,163.98375 152.1275,163.68125 C152.9625,162.495 153.46125,161.61625 153.6175,161.04 C153.62625,160.89875 153.63625,160.76625 153.64125,160.64875 C153.83625,160.68875 154.0325,160.7175 154.2175,160.7325 L154.4375,161.5625 Z" id="path30" fill="#E5A39D"></path>
                    <path d="M150.4375,163.6625 C150.8375,163.2425 151.09125,162.945 151.19875,162.77 C151.38375,162.4575 151.50625,162.09625 151.56,161.695 C151.585,161.4125 151.58,161.105 151.545,160.7725 L151.8675,160.63625 L152.395,161.88125 C152.5175,162.335 152.44875,162.765 152.185,163.165 C151.98,163.54125 151.63875,163.84875 151.165,164.0875 C150.68125,164.3275 150.26125,164.36125 149.9,164.19 C150.1,163.995 150.28125,163.81875 150.4375,163.6625 L150.4375,163.6625 Z M145.26125,162.08625 C145.28125,162.2225 145.47625,162.72125 145.8375,163.58 L145.24125,163.83375 C144.285,163.62375 143.79125,163.10625 143.7725,162.28625 C143.70875,161.54875 143.99625,160.7725 144.63125,159.96125 C145.2325,159.16625 145.89625,158.6825 146.62375,158.51625 C147.44375,158.31625 148.1025,158.63375 148.60625,159.46875 C148.38125,159.44375 148.16625,159.435 147.96625,159.44375 C147.2775,159.48375 146.6775,159.7375 146.175,160.20625 C146.0275,160.3425 145.88625,160.50375 145.75,160.685 C145.35875,161.21125 145.1975,161.67625 145.26125,162.08625 L145.26125,162.08625 Z" id="path32" fill="#E3978E"></path>
                    <path d="M150.4375,163.6625 C150.18375,163.785 149.885,163.9025 149.55375,164.01 C147.9375,164.5375 146.96,164.2975 146.61875,163.30125 C146.74125,163.385 146.8675,163.4525 147.00875,163.51625 C147.56125,163.71625 148.1025,163.7025 148.625,163.4825 C149.1425,163.2625 149.52875,162.88125 149.7675,162.345 C149.96375,161.8075 149.95875,161.28 149.75375,160.7725 L149.73375,160.72875 C149.62125,160.38125 149.42125,159.90375 149.12875,159.3025 C149.905,159.0825 150.45125,159.17625 150.76875,159.58125 C150.99375,159.85 151.20875,160.445 151.42375,161.3725 C151.4725,161.48 151.52125,161.5875 151.56,161.695 C151.50625,162.1 151.38375,162.4575 151.19875,162.77 C151.09125,162.945 150.8375,163.2425 150.4375,163.6625 L150.4375,163.6625 Z" id="path34" fill="#B76B62"></path>
                    <path d="M136.7125,158.6 L137.24,157.0225 C137.85,156.075 139.965,154.83 143.5875,153.2925 C144.935,152.72125 146.84875,152.325 149.33,152.105 L152.45,151.97375 C152.42125,152.0075 152.38625,152.0425 152.3575,152.07125 L152.1325,152.05625 L152.06375,152.40875 C152.035,152.53 151.77125,153.10625 151.27375,154.1325 C150.6675,153.8875 149.76875,153.85875 148.5775,154.05375 L149.45625,153.6825 C149.095,153.6875 148.6025,153.81 147.9775,154.03875 C147.3475,154.26875 146.87875,154.395 146.56125,154.42 L146.7225,154.02875 C146.395,154.02 146.01,154.0925 145.565,154.24375 L144.46125,154.7125 L144.6525,154.14625 C143.02125,154.7275 141.78625,155.235 140.95125,155.66 C139.59375,156.3825 138.5925,157.2225 137.9475,158.185 L137.9675,158.23375 C137.9575,158.63375 137.78625,159.215 137.46,159.97125 C137.445,159.24875 137.19625,158.795 136.7125,158.6 L136.7125,158.6 Z" id="path36" fill="#B56A61"></path>
                    <g id="g38" transform="translate(150.000000, 137.500000)" fill="url(#linearGradient-1)">
                        <g id="g40">
                            <g id="g46">
                                <path d="M7.225,10.4375 C9.315,8.7925 10.54625,6.47875 10.9075,3.5 C11.1075,2.005 11.2775,1.04375 11.425,0.61875 C15.51625,9.925 11.9425,15.6625 0.6975,17.83125 C1.57125,16.04875 2.025,15.07625 2.06375,14.91125 L2.1325,14.55875 L2.3575,14.57375 C3.055,13.915 3.885,13.1825 4.8425,12.37625 C5.57,11.77625 6.36125,11.13125 7.225,10.4375 L7.225,10.4375 Z" id="path64"></path>
                            </g>
                        </g>
                    </g>
                    <path d="M155.1,149.7 L157.22375,147.9275 C159.31375,146.2825 160.545,143.96875 160.90625,140.99 C161.10625,139.495 161.27625,138.53375 161.42375,138.10875 C163.5125,142.87 163.61625,146.6825 161.71625,149.55375 L161.4425,149.67125 C161.17,149.2075 160.945,148.50375 160.76375,147.56625 C160.38375,147.69375 159.86125,147.9525 159.19625,148.34375 C158.57125,148.75375 158.05375,149.02625 157.64375,149.16375 C157.0925,149.325 156.2475,149.505 155.1,149.7 L155.1,149.7 Z" id="path66" fill="#584E3F"></path>
                    <g id="g68" transform="translate(153.750000, 141.250000)">
                        <g id="g70-Clipped">
                            <mask id="mask-3" fill="white">
                                <use xlink:href="#path-2"></use>
                            </mask>
                            <g id="path74"></g>
                            <g id="g70" mask="url(#mask-3)">
                                <g transform="translate(-170.000000, -102.500000)" id="g76">
                                    <g transform="translate(93.282250, 86.360313) rotate(156.997497) translate(-93.282250, -86.360313) translate(19.286292, 24.363699)">
                                        <g id="g98-Clipped">
                                            <g id="g94-Clipped">
                                                <mask id="mask-5" fill="white">
                                                    <use xlink:href="#path-4"></use>
                                                </mask>
                                                <g id="path82"></g>
                                                <mask id="mask-7" fill="white">
                                                    <use xlink:href="#path-6"></use>
                                                </mask>
                                                <g id="path96"></g>
                                            </g>
                                        </g>
                                    </g>
                                </g>
                            </g>
                        </g>
                    </g>
                    <g id="g108" transform="translate(150.000000, 137.500000)" fill="url(#linearGradient-8)">
                        <g id="g110">
                            <g id="g116">
                                <path d="M2.675,22.85 C1.5375,22.39125 0.795,21.74625 0.44375,20.91625 C0.08125,19.98375 0.17,18.95375 0.7025,17.82125 C11.9475,15.6525 15.52125,9.915 11.43,0.60875 C11.44375,0.565 11.46375,0.52125 11.48375,0.4775 C11.595,0.32125 11.7025,0.365 11.81,0.61375 C13.75375,4.16875 14.91125,7.06375 15.2775,9.295 C15.565,10.91125 15.575,12.17625 15.31125,13.08375 C15.0625,13.94875 14.46625,14.8025 13.51875,15.6375 C12.885,16.195 11.55125,17.3225 9.52,19.0175 C9.0175,19.45125 8.56375,19.8425 8.1725,20.18875 C7.1225,21.21375 6.405,22.04375 6.02375,22.67375 L5.8,23.045 C4.88125,23.3575 3.84125,23.29375 2.675,22.85 Z" id="path134"></path>
                            </g>
                        </g>
                    </g>
                    <path d="M162.875,151.9 C163.31875,151.24125 163.56375,150.7575 163.6125,150.445 L162.9475,150.675 C162.7825,149.76625 162.37125,149.39625 161.7175,149.56625 C163.6175,146.695 163.51375,142.8825 161.425,138.12125 C161.43875,138.0775 161.45875,138.03375 161.47875,137.99 C161.59,137.83375 161.6975,137.8775 161.805,138.12625 C163.74875,141.68125 164.90625,144.57625 165.2725,146.8075 C165.555,148.31625 165.585,149.5025 165.365,150.3525 C165.18,151.1925 164.68625,151.99875 163.895,152.77 L162.45,153.33125 C162.3525,152.93625 162.49375,152.4625 162.875,151.9 L162.875,151.9 Z" id="path136" fill="#584E3F"></path>
                    <g id="g138" transform="translate(152.500000, 143.750000)">
                        <g id="g140-Clipped">
                            <mask id="mask-10" fill="white">
                                <use xlink:href="#path-9"></use>
                            </mask>
                            <g id="path144"></g>
                            <g id="g140" mask="url(#mask-10)">
                                <g transform="translate(-170.000000, -107.500000)" id="g146">
                                    <g transform="translate(94.001656, 88.757969) rotate(156.997497) translate(-94.001656, -88.757969) translate(20.505671, 24.261492)">
                                        <g id="g168-Clipped">
                                            <g id="g164-Clipped">
                                                <mask id="mask-12" fill="white">
                                                    <use xlink:href="#path-11"></use>
                                                </mask>
                                                <g id="path152"></g>
                                                <mask id="mask-14" fill="white">
                                                    <use xlink:href="#path-13"></use>
                                                </mask>
                                                <g id="path166"></g>
                                            </g>
                                        </g>
                                    </g>
                                </g>
                            </g>
                        </g>
                    </g>
                    <path d="M149.75,160.775 C149.955,161.2825 149.96,161.805 149.76375,162.3475 C149.525,162.88375 149.13875,163.265 148.62125,163.485 C148.09875,163.705 147.5575,163.71875 147.005,163.51875 C146.86875,163.455 146.7375,163.3875 146.615,163.30375 C146.2775,163.07 146.02875,162.7575 145.8675,162.37125 C145.64375,161.84875 145.63375,161.3125 145.83375,160.755 C145.92625,160.55 146.03875,160.365 146.17125,160.20875 C146.67375,159.74 147.27375,159.48625 147.9625,159.44625 C148.1675,159.46125 148.3775,159.51 148.5925,159.58375 C149.13,159.8275 149.51,160.20875 149.73,160.73125 L149.75,160.775 L149.75,160.775 Z M149.09,162.415 C149.4125,161.81 149.37875,161.39 148.9875,161.15625 C148.55875,160.90625 148.1675,161.05375 147.82125,161.6 C147.49875,162.205 147.5275,162.625 147.91875,162.86 C148.10875,162.9625 148.30875,162.9625 148.52375,162.875 C148.74875,162.81125 148.93875,162.66 149.09,162.415 Z" id="path178" fill="#504739"></path>
                    <path d="M149.0875,162.4125 C148.93625,162.6575 148.74625,162.80875 148.52125,162.8725 C148.30625,162.96 148.10625,162.96 147.91625,162.8575 C147.525,162.6225 147.49625,162.2025 147.81875,161.5975 C148.165,161.05125 148.55625,160.90375 148.985,161.15375 C149.37625,161.3875 149.41,161.8075 149.0875,162.4125 L149.0875,162.4125 Z" id="path180" fill="#84765E"></path>
                    <path d="M121.03,79.4775 L119.8875,80.5025 L104.4525,14.2775 C104.6625,13.935 105.025,13.78875 105.5275,13.8375 C105.9325,13.87625 106.255,13.99875 106.485,14.20375 L106.72875,14.49625 L121.03,79.4775 Z" id="path182" fill="#C7C3AE"></path>
                    <path d="M118.39875,67.5875 L120.4,76.49375 L118.93125,76.3525 L104.4525,14.2775 C104.6625,13.935 105.025,13.78875 105.5275,13.8375 C105.9325,13.87625 106.255,13.99875 106.485,14.20375 L106.72875,14.49625 L106.72875,14.55 C105.9525,14.43875 105.47375,14.64875 105.2925,15.17125 L117.4225,67.925 C117.66625,67.72875 117.98875,67.6175 118.39875,67.5875 Z" id="path184" fill="#747265"></path>
                    <path d="M115.0825,52.54375 L118.125,66.3675 L117.6025,66.9675 L108.80875,26.3325 C111.245,36.68375 113.34,45.42 115.0825,52.54375 L115.0825,52.54375 Z" id="path186" fill="#FFFFFF"></path>
                    <path d="M119.19375,77.00625 L131.775,7.84625 C131.8825,7.43625 132.31625,7.20625 133.08375,7.1525 C133.45,7.12875 133.7725,7.20625 134.05,7.3875 L134.32375,7.72 L120.525,78.16875 L119.19125,77.00625 L119.19375,77.00625 Z" id="path188" fill="#C7C3AE"></path>
                    <path d="M120.5275,78.16875 L119.145,77.01125 L131.725,7.84625 C131.73,7.44625 132.115,7.22125 132.8825,7.1675 C133.24875,7.14375 133.53625,7.22125 133.75125,7.4075 L133.9225,7.74875 C133.2525,7.75875 132.6575,8.0375 132.125,8.57375 L121.02125,70.1175 L121.92,70.05375 L121.88125,70.25875 L122.07625,70.195 L120.52375,78.16875 L120.5275,78.16875 Z" id="path190" fill="#747265"></path>
                    <path d="M122.12375,70.04375 L121.92375,70.05375 C122.22625,68.1975 122.94375,64.0575 124.0775,57.63125 C125.42,49.99 126.38125,44.78 126.9575,42.00125 C127.63125,38.6225 129.00375,31.40125 131.08375,20.34625 C129.43375,30.2 127.94,39.11125 126.60625,47.085 L122.12375,70.04375 L122.12375,70.04375 Z" id="path192" fill="#FFFFFF"></path>
                    <polygon id="path194" fill="#FFFFFF" points="122.08 70.195 121.885 70.25875 121.92375 70.05375 122.12375 70.04375"></polygon>
                    <path d="M81.1525,67.86125 L92.22625,8.05625 C92.33375,7.715 92.72,7.51875 93.38375,7.465 C93.68625,7.44125 93.955,7.505 94.20375,7.65125 L94.4725,7.88125 L82.32875,68.8225 L81.1525,67.86125 Z" id="path196" fill="#C7C3AE"></path>
                    <path d="M83.19375,56.91875 C83.4325,56.93375 83.6725,56.99625 83.91125,57.10875 L84.175,57.24125 L93.68125,8.69625 L93.40375,8.36375 C93.08625,8.125 92.695,8.0375 92.23125,8.105 L92.22625,8.05625 C92.33375,7.715 92.72,7.51875 93.38375,7.465 C93.68625,7.44125 93.955,7.505 94.20375,7.65125 L94.4725,7.88125 L83.08125,65 L81.63625,65.1175 L83.19375,56.91875 Z" id="path198" fill="#747265"></path>
                    <path d="M83.40875,55.79625 L85.76625,43.07625 C87.15375,36.51875 88.80875,28.48125 90.7325,18.96 L83.955,56.3575 L83.40875,55.79625 Z" id="path200" fill="#FFFFFF"></path>
                    <path d="M82.65125,63.46125 L81.31875,64.54625 L67.97375,1.80125 C68.2025,1.41625 68.61875,1.235 69.21375,1.25 C69.6775,1.265 70.02875,1.3675 70.28375,1.5525 L70.5075,1.83125 L82.65125,63.46125 L82.65125,63.46125 Z" id="path202" fill="#C7C3AE"></path>
                    <path d="M81.31875,64.54625 L79.815,57.44625 L80.01,57.495 L79.975,57.31375 L80.86875,57.33875 L70.15625,2.495 L69.585,2.1625 C69.14,1.90875 68.72125,1.79125 68.32,1.81125 C68.4525,1.425 68.81875,1.24 69.40875,1.255 C69.8725,1.26875 70.215,1.37125 70.43,1.5575 L70.55625,1.83125 L82.7,63.46125 L81.31875,64.54625 L81.31875,64.54625 Z" id="path204" fill="#747265"></path>
                    <path d="M79.775,57.30875 L75.44,36.86 C74.155,29.75125 72.71,21.80625 71.10375,13.0175 C73.105,22.87125 74.44375,29.30125 75.1175,32.30875 C75.67375,34.785 76.60125,39.42875 77.9,46.24 C78.98875,51.9625 79.6775,55.65875 79.975,57.31375 L79.775,57.30875 Z" id="path206" fill="#FFFFFF"></path>
                    <polygon id="path208" fill="#FFFFFF" points="79.975 57.31375 80.01 57.495 79.815 57.44625 79.775 57.30875"></polygon>
                    <g id="g210" transform="translate(45.825609, 88.501434) scale(-1, 1) rotate(5.002521) translate(-45.825609, -88.501434) translate(23.239575, 65.915400)" stroke="#E08378" stroke-width="6.00010523" stroke-linecap="round" stroke-linejoin="round">
                        <path d="M44.4656257,41.8393719 C41.0287843,43.336324 37.3999616,44.1531856 33.5641003,44.2887018 C29.6642452,44.4191988 26.4959266,43.5684583 24.0616542,41.7377348 C21.7302736,40.0701327 20.0789836,37.5041083 19.1140581,34.0396618 C18.9797967,33.7372599 18.8957264,33.4561892 18.8631022,33.1889212 C18.0286737,29.8210926 18.0976866,26.6879079 19.0638669,23.7856026 C19.6649063,21.8557516 20.930979,19.5193519 22.8633396,16.7864419 C24.6288145,14.2204175 25.645186,12.3369933 25.9124541,11.137424 C26.448245,9.13479569 25.7781927,7.08574056 23.9135902,4.98523946 C19.7803461,0.155592674 14.6131636,-0.862033605 8.41204263,1.93487019 C6.5474401,2.80443247 4.6627611,4.00400179 2.76302474,5.5373425 L0.511950088,7.53871601" id="path212"></path>
                    </g>
                    <g id="g214" transform="translate(45.606776, 86.001434) scale(-1, 1) rotate(5.002521) translate(-45.606776, -86.001434) translate(23.020743, 63.415400)" stroke="#B56A61" stroke-width="1.99999325" stroke-linecap="round" stroke-linejoin="round">
                        <path d="M44.1644786,40.3461842 C41.132931,42.0476653 37.9621029,43.1832409 34.664542,43.7453822 C30.5978012,44.4455492 27.3981132,43.9461469 25.0629683,42.2484301 C23.4957485,41.081485 22.3325678,39.3800039 21.5633879,37.1477509 C21.3613684,36.5831001 21.198247,35.9996275 21.0614761,35.3985881 C20.2973153,32.4310343 20.3625638,29.6466783 21.2622408,27.0480297 C21.8971593,25.2825547 23.3138055,22.878397 25.514689,19.8481042 C27.5148077,17.1151941 28.6303068,14.9632471 28.8662054,13.3985369 C29.2639705,10.8977611 28.3115928,8.24641172 26.0128365,5.44825315 C21.9448409,0.579708188 16.4112628,-0.769179912 9.41461155,1.39656973 C7.24635235,2.09673676 5.06178102,3.06166229 2.86089755,4.29887501 L0.160611792,6.09822899" id="path216"></path>
                    </g>
                    <g id="g218" transform="translate(45.935025, 89.751434) scale(-1, 1) rotate(5.002521) translate(-45.935025, -89.751434) translate(24.603771, 68.420180)" stroke="#E5A39D" stroke-width="1.00000917" stroke-linecap="round" stroke-linejoin="round">
                        <path d="M41.5583013,39.8756418 C38.3561037,41.3763582 34.8740902,42.2459205 31.1097513,42.4768 C27.5424128,42.710189 24.5071009,42.191965 22.0100895,40.9309115 C19.3436828,39.5268131 17.3247423,37.2431141 15.9595421,34.0785599 C15.9281726,34.0471904 15.891784,33.9769228 15.8591597,33.8765404 C14.1928124,29.910182 13.7586586,26.2274038 14.559208,22.8294606 C15.0912346,20.6260675 16.3736194,18.146623 18.4063624,15.3760696 C20.5068635,12.4474139 21.7064328,10.5288559 22.0100895,9.62917887 C22.6437532,7.62780536 22.0251468,5.66282046 20.1605443,3.72795028 C16.5267025,0.130497081 12.1588146,-0.67381666 7.05939019,1.32630207 C5.49467999,1.92859629 3.90738376,2.7780821 2.30753974,3.87977861 L0.459249344,5.32528474" id="path220"></path>
                    </g>
                    <path d="M101.9825,101.90375 C101.46,101.68 100.405,101.08875 98.81375,100.12125 L97.46125,98.98375 C97.095,98.6175 96.5425,98.04625 95.80625,97.275 L94.78,96.46 L96.01125,96.7525 C96.62125,96.87 97.32875,97.30875 98.135,98.07625 C98.945,98.975 99.53625,99.59 99.9025,99.92625 C101.20625,101.05 102.925,101.9875 105.06875,102.73875 C104.4,102.76375 103.36875,102.485 101.9825,101.90375 L101.9825,101.90375 Z M90.9175,93.6375 C87.8025,93.60875 86.23,93.59375 86.19625,93.59875 L84.6825,93.48125 C84.6,93.32 84.31625,93.11 83.82375,92.85125 C83.4425,92.685 83.28125,92.3825 83.34,91.93875 C85.625,92.44125 87.13875,92.695 87.87625,92.7 C90.83,92.8075 92.75875,93.04125 93.6575,93.39875 C93.1,93.51 92.23625,93.58875 91.06875,93.6225 L90.9175,93.6375 L90.9175,93.6375 Z M99.6725,95.58125 C99.2525,95.385 98.67625,95.0825 97.935,94.6775 C98.29125,94.51125 98.88125,94.595 99.71625,94.92625 C100.58625,95.3175 101.17625,95.55125 101.485,95.625 C103.0175,95.95625 104.03375,96.10375 104.53125,96.05875 C105.04375,95.81 105.46875,95.67375 105.80125,95.64375 C106.865,95.55125 108.2325,96.1175 109.9125,97.34375 C111.63125,98.59875 112.94,99.21875 113.8425,99.20875 C112.74375,99.30625 111.94875,99.34 111.44,99.31625 C110.635,99.2875 109.85375,99.14 109.09625,98.87125 C108.71625,98.735 108.0025,98.4475 106.9625,98.0025 C106.09375,97.64625 105.38625,97.3875 104.83375,97.23625 L101.48875,96.27375 C100.98125,96.18625 100.37625,95.9525 99.6725,95.58125 L99.6725,95.58125 Z M98.4275,86.5525 C98.92625,86.50875 99.785,86.38625 101.00625,86.17625 C102.095,85.98125 102.96875,85.85375 103.6325,85.79625 C105.02875,85.67375 106.04,85.75625 106.665,86.035 C106.91375,86.18125 107.05625,86.28375 107.095,86.3475 C107.2025,86.40625 107.4025,86.44 107.705,86.445 C108.0425,86.48375 108.4625,86.465 108.955,86.38625 C109.51625,86.30375 109.93125,86.25 110.195,86.225 C111.23,86.20625 112.66625,86.3625 114.5025,86.70375 C115.015,86.79125 116.01125,86.70375 117.495,86.44 C118.545,86.215 119.61875,86.455 120.7175,87.1625 C121.675,87.74875 122.515,88.56375 123.2425,89.60375 C121.70375,90.005 119.85875,89.95125 117.705,89.43375 L115.17125,88.60375 C114.51625,88.35875 113.74,87.89 112.84125,87.2025 C112.24125,86.85 111.3275,86.72875 110.0975,86.83625 C109.43375,86.89375 108.49125,87.03125 107.275,87.23625 L97.26125,88.11 L86.065,86.3325 C86.7575,86.24 87.68125,86.26 88.8275,86.39125 C90.58625,86.60625 91.49875,86.70875 91.5675,86.70375 C93.88625,86.83625 96.1725,86.7875 98.4275,86.5525 L98.4275,86.5525 Z M98.47125,89.9125 L99.56,90.3225 L100.24375,90.66375 C100.01,90.64875 98.96,90.7225 97.105,90.88875 L92.76875,91.265 C90.47875,91.465 88.80375,91.47875 87.75375,91.30375 C86.025,91.055 84.53625,90.3125 83.29125,89.08125 L82.1875,87.925 C82.505,88.13 82.98875,88.305 83.6375,88.4525 C84.355,88.6225 84.85375,88.765 85.13125,88.87125 C86.50875,89.72125 87.55875,90.24875 88.28125,90.45375 C88.8625,90.605 89.51625,90.615 90.23875,90.48375 C90.47375,90.46375 91.11375,90.3225 92.1625,90.06375 C94.0625,89.62875 95.80625,89.4775 97.3925,89.60375 C97.695,89.64875 98.05625,89.75125 98.47125,89.9125 L98.47125,89.9125 Z M83.0425,93.12 C84.52125,93.93 85.7075,94.345 86.61625,94.365 C86.245,94.365 85.3025,94.42875 83.775,94.565 L82.3975,93.17875 C82.25625,93.09 81.9925,92.94375 81.60625,92.74375 C81.31875,92.53375 81.1475,92.31375 81.09375,92.085 C81.39625,92.06 81.72375,92.1825 82.08,92.45125 C82.65125,92.87125 82.97375,93.095 83.0425,93.12 Z M90.1075,95.26375 C91.9775,95.2 93.535,95.6 94.78,96.46 L90.1075,95.26375 Z M134.19375,85.13125 C134.0475,84.64375 134.02875,84.20875 134.13125,83.8325 L134.86875,83.66625 C134.81875,84.2725 134.9175,84.81375 135.16125,85.2975 L134.8875,85.06875 L134.19375,85.13125 Z M111.76625,109.38 C112.5425,109.0775 112.99625,108.92125 113.12875,108.90625 C111.9025,108.68125 111.15625,108.53 110.8825,108.4525 C111.34125,107.97375 112.26875,107.71 113.67,107.65625 C115.20875,107.65625 116.26375,107.6125 116.825,107.52875 C118.075,107.285 119.07625,106.89875 119.8325,106.3625 C120.4575,105.87375 121.1125,105.1125 121.79125,104.08125 C122.3225,103.26625 123.50875,101.94375 125.36,100.1075 C126.8975,98.56875 127.89875,97.20625 128.3625,96.03 C129.125,94.02375 129.505,93.0025 129.5,92.96875 C130.08625,91.645 130.6675,90.825 131.24375,90.5075 C131.615,90.9075 132.1375,90.98125 132.81625,90.7225 C133.62125,90.35125 134.2075,90.14625 134.57375,90.1175 L134.4075,87.67125 C135.0425,88.4175 136.03375,88.8325 137.37625,88.91625 C139.15875,88.99375 140.22375,89.10125 140.57,89.2375 C140.38375,89.4575 140.125,89.73125 139.78875,90.05875 C139.515,90.42 139.315,90.805 139.1875,91.215 L139.68625,91.17125 C139.6225,91.245 138.83625,92.3675 137.3175,94.54125 C136.33125,95.9025 135.6925,96.9775 135.39375,97.77375 L135.4625,97.41625 C134.8625,97.83625 134.16875,98.715 133.3825,100.05875 C132.57125,101.465 131.9025,102.4125 131.375,102.895 C130.2625,103.925 128.30875,105.3225 125.51625,107.07 C121.84375,109.50125 117.26375,110.26875 111.76625,109.38 L111.76625,109.38 Z M117.04,94.51125 C115.995,94.43375 114.74,94.22875 113.27,93.88625 L112.015,93.345 C112.9825,93.26125 114.2325,93.2325 115.775,93.26625 C117.9575,93.345 118.9825,93.60375 118.85625,94.0525 C118.7775,94.32625 118.1725,94.4775 117.04,94.51125 L117.04,94.51125 Z" id="path222" fill="#E5A39D"></path>
                    <path d="M101.9825,101.90375 C103.36875,102.485 104.4,102.76375 105.06875,102.73875 C102.925,101.9875 101.20625,101.05 99.9025,99.92625 C99.53625,99.59 98.945,98.975 98.135,98.07625 C97.32875,97.30875 96.62125,96.87 96.01125,96.7525 L94.78,96.46 L95.80625,97.275 C96.5425,98.04625 97.095,98.6175 97.46125,98.98375 L98.81375,100.12125 C100.405,101.08875 101.46,101.68 101.9825,101.90375 L101.9825,101.90375 Z M101.3725,97.7925 C101.32375,97.62625 101.29375,97.48 101.28375,97.34875 C101.7675,97.53875 102.11375,97.675 102.31875,97.75875 C102.085,97.74375 101.7675,97.75375 101.3725,97.7925 Z M94.2775,97.6075 C94.2675,97.51 94.24375,97.4125 94.20375,97.31375 C94.17,97.31875 94.13625,97.305 94.09625,97.275 C94.175,97.3975 94.23875,97.51 94.2775,97.6075 Z M97.15375,95.4975 L96.73875,95.33625 L96.94375,95.36625 L97.15375,95.4975 L97.15375,95.4975 Z M103.535,100.16125 C104.19875,100.5025 104.85875,100.74625 105.5075,100.89375 C103.755,99.975 102.56875,99.22375 101.94875,98.6425 C104.30125,99.9125 106.7675,100.195 109.35,99.50125 C109.20875,99.41375 109.0675,99.34 108.93125,99.2875 C108.8275,99.2625 108.74,99.21875 108.6675,99.16 C108.36375,99.12125 108.07625,99.0625 107.7975,98.98375 C107.14375,98.77375 106.3325,98.31 105.37125,97.5925 C104.53625,97.23125 104.0825,97.03625 104.01375,97.00625 C102.88125,96.70375 102.105,96.60625 101.68,96.70875 L101.31875,96.64 L101.265,96.59625 C98.39875,95.17125 95.89875,94.34 93.77,94.09125 C93.17875,93.87125 92.28,93.715 91.06875,93.6225 C92.23625,93.58875 93.1,93.51 93.6575,93.39875 C92.75875,93.04125 90.83,92.8075 87.87625,92.7 C87.13875,92.695 85.625,92.44125 83.34,91.93875 C83.28125,92.3825 83.4425,92.685 83.82375,92.85125 C84.31625,93.11 84.6,93.32 84.6825,93.48125 L86.19625,93.59875 C86.23,93.59375 87.8025,93.60875 90.9175,93.6375 L91.69,93.81875 C90.78125,93.765 89.21375,93.8375 86.9875,94.0275 L92.05625,94.59 L90.89375,94.4925 C92.36875,94.8975 93.4125,95.19 94.03375,95.37125 C95.44375,95.85 96.7725,96.48875 98.0125,97.28 L101.63125,99.62375 C102.23125,99.975 102.86625,100.15125 103.535,100.16125 L103.535,100.16125 Z M111.85,100.5375 C111.19125,100.2925 110.44375,99.975 109.61,99.58 C109.185,100.0825 108.49625,100.85 107.54875,101.87 L107.92,102.085 L108.36875,102.04625 C108.90125,102.00125 109.2825,101.9475 109.51125,101.89375 C110.06375,101.7475 110.645,101.465 111.24,101.045 C111.46,100.85375 111.665,100.68875 111.85,100.5375 L111.85,100.5375 Z M112.075,96.80125 L112.32875,96.83125 L118.70625,98.0325 C118.30625,97.63125 117.725,97.31375 116.9675,97.08 L115.225,96.68 C115.7075,96.06875 116.255,95.415 116.865,94.72625 C115.38625,94.6575 113.8625,94.30625 112.305,93.67125 C112.02625,93.59375 111.71875,93.52 111.38125,93.4525 C111.31375,93.45625 111.245,93.4475 111.17625,93.4175 C109.605,93.05625 108.36,92.7775 107.44125,92.5925 C106.31875,92.3875 105.69375,92.30875 105.56125,92.35375 C105.17125,92.45625 105.195,92.72 105.635,93.14875 L103.49625,92.83625 C99.6,92.64125 96.7925,92.87125 95.07375,93.525 L97.05125,93.75 L96.5725,93.99375 C97.065,93.92125 97.75375,93.91125 98.6275,93.965 L103.8425,94.51125 C104.75625,94.6 105.98625,94.8775 107.52875,95.34625 L106.015,94.6725 L109.50625,96.1225 C111.1525,96.58125 112.00625,96.81125 112.075,96.80125 L112.075,96.80125 Z M99.6725,95.58125 C100.37625,95.95625 100.98125,96.18625 101.48875,96.27375 L104.83375,97.23625 C105.38625,97.3875 106.09375,97.64625 106.9625,98.0025 C108.0025,98.4475 108.71625,98.735 109.09625,98.87125 C109.85375,99.14 110.635,99.2875 111.44,99.31625 C111.94875,99.34 112.74375,99.30625 113.8425,99.20875 C112.94,99.21875 111.63125,98.59875 109.9125,97.34375 C108.2325,96.1175 106.865,95.55125 105.80125,95.64375 C105.46875,95.67375 105.04375,95.81 104.53125,96.05875 C104.03375,96.10375 103.0175,95.95625 101.485,95.625 C101.17625,95.55125 100.58625,95.3175 99.71625,94.92625 C98.88125,94.595 98.29125,94.51125 97.935,94.6775 C98.67625,95.0825 99.2525,95.385 99.6725,95.58125 L99.6725,95.58125 Z M98.47125,89.9125 C98.05625,89.75125 97.695,89.64875 97.3925,89.60375 C95.80625,89.4775 94.0625,89.62875 92.1625,90.06375 C91.11375,90.3225 90.47375,90.46375 90.23875,90.48375 C89.51625,90.615 88.8625,90.605 88.28125,90.45375 C87.55875,90.24875 86.50875,89.72125 85.13125,88.87125 C84.85375,88.765 84.355,88.6225 83.6375,88.4525 C82.98875,88.305 82.505,88.13 82.1875,87.925 L83.29125,89.08125 C84.53625,90.3125 86.025,91.055 87.75375,91.30375 C88.80375,91.47875 90.47875,91.465 92.76875,91.265 L97.105,90.88875 C98.96,90.7225 100.01,90.64875 100.24375,90.66375 L99.56,90.3225 L98.47125,89.9125 L98.47125,89.9125 Z M98.4275,86.5525 C96.1725,86.7875 93.88625,86.83625 91.5675,86.70375 C91.49875,86.70875 90.58625,86.60625 88.8275,86.39125 C87.68125,86.26 86.7575,86.24 86.065,86.3325 L97.26125,88.11 L107.275,87.23625 C108.49125,87.03125 109.43375,86.89375 110.0975,86.83625 C111.3275,86.72875 112.24125,86.85 112.84125,87.2025 C113.74,87.89 114.51625,88.35875 115.17125,88.60375 L117.705,89.43375 C119.85875,89.95125 121.70375,90.005 123.2425,89.60375 C122.515,88.56375 121.675,87.74875 120.7175,87.1625 C119.61875,86.455 118.545,86.215 117.495,86.44 C116.01125,86.70375 115.015,86.79125 114.5025,86.70375 C112.66625,86.3625 111.23,86.20625 110.195,86.225 C109.93125,86.25 109.51625,86.30375 108.955,86.38625 C108.4625,86.465 108.0425,86.48375 107.705,86.445 C107.4025,86.44 107.2025,86.40625 107.095,86.3475 C107.05625,86.28375 106.91375,86.18125 106.665,86.035 C106.04,85.75625 105.02875,85.67375 103.6325,85.79625 C102.96875,85.85375 102.095,85.98125 101.00625,86.17625 C99.785,86.38625 98.92625,86.50875 98.4275,86.5525 Z M106.51375,88.305 C105.66875,88.2125 104.61375,88.2225 103.355,88.33 L95.78125,88.99375 C98.545,88.81875 102.07,89.51625 106.3525,91.07875 C107.77375,91.59125 109.2775,91.9625 110.86875,92.1925 C111.31375,92.285 111.83125,92.30875 112.43125,92.25625 C113.36375,92.20625 113.89625,92.1775 114.02875,92.1675 C115.3275,92.45625 116.30375,92.53375 116.9625,92.4125 L118.39875,92.1825 C118.59875,92.2025 118.78375,92.2025 118.95,92.1875 C119.145,92.13375 119.355,92.05 119.58,91.92875 C120.38625,91.19125 121.02,90.6 121.485,90.15625 C120.0975,90.01 118.4525,89.77 116.5475,89.43375 C114.375,89.02375 111.70375,88.54 108.545,87.97875 L108.34,87.94375 L106.9825,87.915 L106.71375,88.29125 L106.51375,88.305 L106.51375,88.305 Z M103.98,80.54625 L104.975,80.5125 L103.33,80.605 L103.98,80.54625 Z M96.3325,72.33375 L94.4625,73.90125 C91.5675,74.4575 89.605,74.995 88.57875,75.5225 C87.94,75.87875 87.4175,76.3575 87.0025,76.9625 C86.49375,77.71 86.45,78.35 86.865,78.88125 C89.175,77.71 91.055,77.01125 92.505,76.7825 C94.94625,76.40125 96.70375,76.23 97.77875,76.26875 L97.96375,76.655 C97.23625,77.52375 96.3525,79.0725 95.3125,81.30875 C93.17875,82.1625 90.815,82.53375 88.2325,82.42625 C85.7425,82.30875 83.325,81.80125 80.97125,80.9025 L79.62375,81.025 L79.355,81.39625 C80.36625,81.475 81.3475,81.7575 82.29,82.24625 C82.74875,82.505 83.58375,83.05125 84.795,83.88125 C85.65,84.4775 86.9625,84.965 88.735,85.34625 L87.1675,85.78125 L89.9125,85.595 C92.735,86.08375 95.17125,86.035 97.23125,85.45375 C98.61375,84.8 99.63875,84.32125 100.3175,84.0275 C101.5775,83.52 102.67625,83.47125 103.61875,83.89125 C104.81875,84.62375 105.79625,85.0725 106.5475,85.24375 C107.02125,85.33125 108.36875,85.415 110.58125,85.4875 C110.14125,85.43 109.62375,85.25875 109.03375,84.975 C108.36875,84.6625 107.95875,84.35 107.7925,84.0275 C108.2475,83.8225 108.99375,83.94 110.03375,84.385 C111.11875,84.92625 111.87,85.25875 112.28,85.39 C112.96875,85.6 113.76,85.68375 114.6625,85.635 C114.96125,85.61 115.79125,85.5175 117.14875,85.36625 C117.97875,85.2925 118.8575,85.03375 119.79,84.585 C120.26875,84.34 121.065,83.87125 122.1775,83.16875 L124.565,82.96375 C125.3325,82.93 125.98125,83.07125 126.51375,83.39375 L124.57,81.855 C124.995,82.1525 125.47875,82.515 126.02,82.93375 C128.2125,84.6825 129.57,85.635 130.0825,85.79125 C130.2875,85.84 130.44375,85.9075 130.55625,86.00125 C130.645,85.89375 130.7525,85.78125 130.87875,85.67375 C131.83625,84.785 132.92,84.17 134.13125,83.8325 C134.2775,83.24625 134.61,82.83625 135.1225,82.5875 C134.985,82.905 134.8975,83.26125 134.86875,83.66625 C136.02,83.46625 137.085,83.58875 138.06125,84.0375 L141.66,82.1675 C141.7875,82.42625 141.895,82.7 141.9875,82.9925 C142.74875,85.2 142.505,87.7825 141.26,90.7375 C139.6,94.72625 137.88625,97.89 136.11375,100.22 C132.72,104.63375 128.4475,107.6025 123.29125,109.12125 C118.79375,110.4875 114.4575,110.835 110.28375,110.16125 C105.7025,109.4575 101.94875,107.6125 99.00875,104.62375 C96.9875,102.5925 95.3375,100.14125 94.0475,97.275 C93.0175,96.9675 91.7775,96.7575 90.3275,96.65 C88.2375,96.83125 86.09375,96.7875 83.89125,96.50875 C82.94375,96.39125 82.01125,96.24 81.09375,96.055 C83.71625,95.45375 85.77625,95.1075 87.275,95.01 C86.73875,95.02375 86.05,94.985 85.205,94.8875 C80.7275,94.58 77.45625,94.2625 75.38625,93.94 C73.38875,92.91 71.49875,91.58625 69.71625,89.97 C67.56875,87.98375 65.3325,85.16625 63.0075,81.52375 C62.15375,80.195 61.5575,78.90625 61.21125,77.66625 C63.28625,78.05125 65.22,77.93375 67.0025,77.30875 C68.4275,76.7475 69.40375,75.87875 69.93625,74.6925 C70.0775,74.41375 70.16125,73.98875 70.17625,73.4175 C70.15625,72.8175 70.185,72.3975 70.26875,72.1525 C70.48875,71.60125 70.97125,71.02 71.71875,70.42 C72.0025,70.195 72.63625,69.775 73.61875,69.15 C74.2825,68.725 75.7475,68.4125 78.0025,68.2175 C79.52625,68.04625 80.67375,67.98375 81.45,68.0125 C82.1775,67.94875 82.77875,67.915 83.2475,67.905 C84.0825,67.93375 84.61875,68.105 84.84875,68.4175 C84.5025,68.715 83.70625,68.97 82.45625,69.18 C81.3325,69.38 80.63,69.74125 80.34125,70.26875 C82.47125,70.15125 84.09625,70.16125 85.21,70.2925 C86.015,70.3275 86.64,70.37125 87.08,70.43375 C87.86125,70.5325 88.4275,70.7325 88.78875,71.035 C87.305,71.265 86.3475,71.435 85.9225,71.5375 C84.785,71.90375 84.0475,72.47 83.71125,73.2375 C83.89625,73.4225 84.12125,73.50125 84.385,73.48125 L85.28375,73.39875 L90.81,72.915 C92.54875,72.86625 94.10625,72.895 95.48875,73.0075 L96.3325,72.33375 L96.3325,72.33375 Z M83.0425,93.12 C82.97375,93.095 82.65125,92.87125 82.08,92.45125 C81.72375,92.1825 81.39625,92.06 81.09375,92.085 C81.1475,92.31375 81.31875,92.53375 81.60625,92.74375 C81.9925,92.94375 82.25625,93.09 82.3975,93.17875 L83.775,94.565 C85.2975,94.42875 86.245,94.365 86.61625,94.365 C85.7075,94.345 84.52125,93.93 83.0425,93.12 Z M89.4675,89.09625 C88.0125,88.92125 86.02,88.35875 83.49625,87.4125 L82.66625,87.08 C82.3925,87.00625 82.11875,86.9625 81.85,86.9525 L88.8375,89.35 C89.0775,89.8 89.8925,89.96125 91.28875,89.83875 C92.29,89.785 93.2475,89.63375 94.16,89.39 C93.6675,89.13125 92.905,89.0275 91.875,89.08625 C90.57625,89.13125 89.77,89.135 89.4675,89.09625 L89.4675,89.09625 Z M90.1075,95.26375 L94.78,96.46 C93.535,95.6 91.9775,95.2 90.1075,95.26375 Z M63.28625,67.495 L63.28625,67.54375 C62.97875,67.84125 62.695,68.2175 62.43125,68.67625 C62.66625,68.25125 62.915,67.895 63.19375,67.6025 L63.28625,67.495 Z M111.50875,73.715 C111.51375,73.0125 111.50375,72.32875 111.48,71.66 C111.43125,69.92625 111.1325,68.4275 110.58625,67.1725 C111.3275,68.77875 111.63625,70.96125 111.50875,73.715 L111.50875,73.715 Z M139.2575,77.66125 C138.965,77.35375 138.67625,77.09 138.38875,76.885 C138.49625,76.94375 138.58375,77.00125 138.6575,77.06 C138.8725,77.24125 139.0725,77.44125 139.2575,77.66125 L139.2575,77.66125 Z M111.7675,109.38 C117.265,110.26875 121.85,109.50125 125.5175,107.07 C128.31,105.3225 130.26375,103.925 131.37625,102.895 C131.90375,102.4125 132.5725,101.465 133.38375,100.05875 C134.17,98.715 134.86375,97.83625 135.46375,97.41625 L135.395,97.77375 C135.69375,96.9775 136.3325,95.89875 137.31875,94.54125 C138.8375,92.3675 139.62375,91.245 139.6875,91.17125 L139.18875,91.215 C139.31625,90.805 139.51625,90.42 139.79,90.05875 C140.12625,89.73125 140.385,89.4575 140.57125,89.2375 C140.225,89.10125 139.16,88.99375 137.3775,88.91625 C136.035,88.8325 135.04375,88.4175 134.40875,87.67125 L134.575,90.1175 C134.20875,90.14625 133.6225,90.35125 132.8175,90.7225 C132.13875,90.98125 131.61625,90.9075 131.245,90.5075 C130.66875,90.825 130.0875,91.645 129.50125,92.96875 C129.50625,93.0025 129.12625,94.02375 128.36375,96.03 C127.9,97.20625 126.89875,98.56875 125.36125,100.1075 C123.51,101.94375 122.32375,103.26625 121.7925,104.08125 C121.11375,105.1125 120.45875,105.87375 119.83375,106.3625 C119.0775,106.89875 118.07625,107.285 116.82625,107.52875 C116.265,107.6125 115.21,107.65625 113.67125,107.65625 C112.27,107.71 111.3425,107.97875 110.88375,108.4525 C111.1575,108.53 111.90375,108.68125 113.13,108.90625 C112.9975,108.92125 112.54375,109.0775 111.7675,109.38 L111.7675,109.38 Z M134.18875,85.13125 L134.8825,85.06875 L135.15625,85.2975 C134.9125,84.81375 134.81375,84.2725 134.86375,83.66625 L134.12625,83.8325 C134.02375,84.20875 134.0425,84.64375 134.18875,85.13125 Z M115.21875,81.82125 C114.89625,81.91875 114.59875,81.9925 114.335,82.05 C112.7275,82.3925 111.2925,82.45125 110.0375,82.22625 C110.84875,82.35375 111.77125,82.35875 112.79625,82.23625 L113.64125,82.1575 C114.13875,82.085 114.66125,81.9725 115.21875,81.82125 Z M112.61625,100.82 C112.62,100.88375 112.61125,100.9375 112.58125,100.97625 L112.67,100.86375 L112.61625,100.82 L112.61625,100.82 Z M119.915,97.62125 L121.86375,98.105 C121.67875,97.885 121.26375,97.73875 120.62375,97.66125 L119.915,97.62125 Z M117.035,94.51125 C118.1675,94.4775 118.7725,94.32625 118.85125,94.0525 C118.9775,93.60375 117.9525,93.345 115.77,93.26625 C114.2275,93.2325 112.9775,93.26125 112.01,93.345 L113.265,93.88625 C114.735,94.22875 115.99,94.43375 117.035,94.51125 L117.035,94.51125 Z M106.84875,93.99875 C106.39,93.735 106,93.47125 105.6775,93.1975 L105.6725,93.14875 L105.995,93.4175 C106.24375,93.59875 106.53125,93.79375 106.84875,93.99875 Z" id="path224" fill="#E08378"></path>
                    <path d="M101.94875,98.6425 C102.56875,99.22375 103.755,99.975 105.5075,100.89375 C104.85875,100.74625 104.19875,100.5025 103.535,100.16125 C103.07625,99.8675 102.44625,99.37 101.65,98.67125 C100.78125,97.94375 100.15125,97.44625 99.76125,97.1775 C99.19,96.7575 98.32,96.20125 97.15375,95.4975 L96.94375,95.36625 L96.72875,95.23375 C96.9975,95.215 97.8225,95.47375 99.20875,96.02 L99.2575,96.02 L101.29875,96.9925 L101.3575,97.04125 C101.29875,97.14375 101.275,97.24625 101.28375,97.34875 C101.29375,97.48 101.32375,97.62625 101.3725,97.7925 C101.41625,97.92 101.475,98.05125 101.5525,98.17875 L101.72875,98.4125 C101.7975,98.47125 101.87,98.55 101.94875,98.6425 L101.94875,98.6425 Z M92.05625,94.59 L86.9875,94.0275 C89.21375,93.8375 90.78125,93.765 91.69,93.81875 C92.8375,93.955 93.6275,94.18375 94.0575,94.51625 L94.39,94.8875 C94.2875,94.8625 93.89625,94.78 93.2125,94.63875 C92.77375,94.54625 92.3825,94.53125 92.05625,94.59 L92.05625,94.59 Z M106.015,94.6725 L105.06375,94.10625 C104.6825,93.97 104.44375,93.89125 104.34125,93.8675 C104.10125,93.81875 103.6475,93.77875 102.97375,93.735 C102.4025,93.72 101.94375,93.6425 101.59625,93.50625 C102.75375,93.335 103.71625,93.2175 104.4775,93.15375 L105.58125,93.15375 L105.68875,93.1975 C106.01125,93.47125 106.40125,93.735 106.86,93.99875 L107.915,94.555 C108.09125,94.64375 108.28125,94.72625 108.48625,94.80875 L111.94875,95.9125 C112.525,96.03 113.15875,96.17125 113.8425,96.3475 C113.8675,96.3525 113.89125,96.3625 113.92125,96.3675 C113.965,96.38125 114.01875,96.39625 114.0725,96.40125 C114.11625,96.42125 114.16,96.435 114.20375,96.44 C114.32125,96.47875 114.43875,96.51375 114.56,96.5375 L115.17625,96.68375 L112.075,96.80125 C112.00625,96.81125 111.1525,96.58125 109.50625,96.1225 L106.015,94.6725 L106.015,94.6725 Z M103.98,80.54625 C105.76625,79.99 107.1675,79.18 108.18375,78.12 C108.945,77.31875 109.64875,75.7375 110.27375,73.36875 C110.7375,71.79125 111.02,70.79625 111.11875,70.385 C110.635,69.09125 110.02,67.93875 109.2625,66.93375 C108.765,66.245 108.35,66.05875 108.0075,66.39125 C107.7925,66.5775 107.53375,67.10375 107.24125,67.96375 C107.15875,67.77375 106.9825,67.065 106.70375,65.85375 C106.52875,64.965 106.19625,64.39375 105.7025,64.135 C105.5325,64.4825 105.43,65.04375 105.4,65.815 C105.36125,66.52375 105.225,67.07 104.99,67.46125 C104.51625,68.2025 104.0625,68.73 103.6225,69.0325 C103.49625,69.11125 103.14,69.2775 102.55875,69.53125 C102.13875,69.6975 101.86,69.9075 101.71375,70.15625 C102.65125,70.205 103.4325,70.13625 104.0525,69.95125 C104.40875,69.81875 104.77,69.53625 105.13125,69.10125 C105.5325,68.66625 105.845,68.4075 106.06875,68.32 C106.23,69.00875 105.76625,69.63375 104.6775,70.195 C103.26625,70.9225 102.505,71.37125 102.3875,71.5525 L105.05375,70.46375 C104.62875,71.00625 103.81375,71.425 102.6025,71.73375 C102.04625,71.885 101.09375,72.065 99.74125,72.285 C98.15875,72.55875 97.02125,72.5725 96.3325,72.33375 L95.86,72.12375 C94.7125,71.62125 93.70625,71.40625 92.84625,71.48375 L90.7025,71.67 C89.81,71.7825 89.11125,71.82625 88.60875,71.80625 C89.21375,71.1175 90.17125,70.56125 91.475,70.14625 L92.505,69.9075 C93.2325,69.80875 93.77875,69.71125 94.13625,69.61375 C94.79,69.4575 95.1025,69.18 95.06875,68.77875 C94.96625,68.0175 94.2475,67.64625 92.91,67.66125 C92.2075,67.65625 91.30875,67.72 90.22,67.85125 C90.27875,67.7775 90.5225,67.69 90.9475,67.5825 C91.275,67.52375 91.445,67.35875 91.455,67.09 C91.48,66.61625 90.845,66.02 89.54125,65.2975 C88.30625,64.57 87.33375,64.155 86.62125,64.0475 C86.07375,63.93 85.3375,63.91125 84.40875,63.98875 C83.2425,64.0575 82.495,64.09125 82.15875,64.08625 C82.1875,64.0525 82.67125,63.80875 83.59875,63.35875 C84.20875,63.07125 84.41375,62.685 84.20375,62.2025 C83.56875,62.22625 82.6225,62.12375 81.3625,61.89875 L78.325,62.1625 C76.80125,62.32875 75.27875,62.715 73.76,63.315 C72.69,63.745 71.455,64.54125 70.05375,65.6975 C69.64875,66.06875 69.0625,66.60625 68.28625,67.30875 C68.135,67.49 67.95375,67.725 67.74375,68.0075 C67.56375,68.2275 67.295,68.38375 66.93375,68.48125 C65.16625,68.90625 63.95,68.59375 63.28625,67.54375 L63.28625,67.495 C63.6575,67.1625 64.20375,66.7475 64.93125,66.25 C65.7225,65.7425 66.3375,65.3225 66.7775,64.98 L66.9625,64.81375 C66.9975,64.81375 67.03125,64.79 67.06,64.75625 C72.6175,60.22 78.29625,58.755 84.09125,60.35625 C86.66,61.06375 89.2725,62.6125 91.92375,64.99 C94.13125,67.27 95.37625,68.50125 95.65875,68.67625 C96.1575,69.00375 96.7775,69.21375 97.525,69.31625 C98.40375,69.40875 99.11125,69.29625 99.65375,68.97875 C100.98125,68.095 101.7575,67.25625 101.9925,66.465 C102.27,65.43875 102.97875,64.54125 104.11625,63.76875 C104.59,63.46125 104.96125,63.315 105.23,63.325 L105.49375,63.4525 L106.87,63.13 C107.55875,62.96875 108.1,63.07125 108.50125,63.4375 C108.945,63.90125 109.63875,65.14625 110.58625,67.1725 C111.1325,68.4275 111.43125,69.92625 111.48,71.66 C111.50375,72.32875 111.51375,73.0125 111.50875,73.715 C111.50875,74.08125 111.48875,74.43875 111.45,74.775 C111.42125,75.21 111.3775,75.635 111.31375,76.04 C111.5425,75.98625 111.7575,75.9525 111.9525,75.9325 C111.9,76.04 111.865,76.245 111.86,76.5425 C113.345,75.175 114.8975,74.20375 116.52375,73.6275 C116.48875,73.6625 116.46,73.70125 116.43125,73.735 C116.1325,74.165 115.69375,74.8875 115.1175,75.9075 C114.62875,76.855 114.13625,77.53375 113.6375,77.94375 C113.0125,78.4375 112.66625,78.715 112.6075,78.78875 C112.495,79.0325 112.45125,79.50625 112.48,80.205 L112.6175,81.7475 C112.66625,81.94375 112.73,82.10875 112.8075,82.23625 C111.7825,82.35875 110.86,82.35375 110.04875,82.22625 C109.365,82.45125 108.535,82.52375 107.55375,82.44125 C107.31875,82.43125 106.53375,82.21625 105.19,81.79625 L104.995,81.865 L104.2525,81.9775 C104.0375,81.83125 103.77875,81.7525 103.48125,81.7475 L103.07625,81.72875 C102.14375,81.7775 100.69375,82.22125 98.725,83.06625 C97.09,83.47625 94.585,83.93 91.21625,84.42375 C92.1,84.21375 93.1,83.77375 94.21375,83.11 C95.9625,82.05 96.885,81.50375 96.9825,81.46 C97.65125,81.10375 98.56875,80.86875 99.73125,80.76625 L103.33,80.605 L104.975,80.5125 L103.98,80.54625 L103.98,80.54625 Z M106.51375,88.305 L106.71375,88.29125 L106.9825,87.915 L108.34,87.94375 C108.30125,88.28125 108.25625,88.50625 108.19875,88.60875 C108.16875,88.68125 107.94,88.91625 107.505,89.32125 L108.51125,89.8875 C108.47625,89.8925 108.4225,89.8775 108.355,89.85375 L108.30625,89.85375 C106.265,89.49625 105.205,89.0375 105.1225,88.47625 L105.66875,88.4325 C105.86875,88.37875 106.1475,88.34 106.51375,88.305 L106.51375,88.305 Z" id="path226" fill="#8C534B"></path>
                    <path d="M96.73875,95.33625 C95.5175,94.77 94.52625,94.355 93.77,94.09125 C95.89875,94.34 98.39875,95.17125 101.265,96.59625 L99.2575,96.02 L99.20875,96.02 C97.8225,95.47375 96.9975,95.215 96.72875,95.23375 L96.94375,95.36625 L96.73875,95.33625 Z M103.535,100.16125 C102.86625,100.15125 102.23125,99.975 101.63125,99.62375 L98.0125,97.28 C96.7725,96.48875 95.44375,95.85 94.03375,95.37125 C93.4125,95.19 92.36875,94.8975 90.89375,94.4925 L92.05625,94.59 C92.3825,94.53125 92.76875,94.54625 93.2125,94.63875 C93.89625,94.78 94.2875,94.8625 94.39,94.8875 L94.0575,94.51625 L96.73875,95.33625 L97.15375,95.4975 C98.32,96.20125 99.19,96.7575 99.76125,97.1775 C100.15125,97.44625 100.78125,97.94375 101.65,98.67125 C102.44625,99.37 103.07625,99.8675 103.535,100.16125 L103.535,100.16125 Z M94.2775,97.6075 C94.23875,97.51 94.175,97.3975 94.09625,97.275 C94.13625,97.305 94.17,97.31875 94.20375,97.31375 C94.24375,97.4125 94.2675,97.51 94.2775,97.6075 Z M101.3725,97.7925 C101.7675,97.75375 102.085,97.74375 102.31875,97.75875 C102.11375,97.675 101.7675,97.53875 101.28375,97.34875 C101.275,97.24625 101.29875,97.14375 101.3575,97.04125 L101.73375,96.7575 L101.68,96.70875 C102.105,96.60625 102.88125,96.70375 104.01375,97.00625 C104.0825,97.03625 104.53625,97.23125 105.37125,97.5925 C106.3325,98.31 107.14375,98.77375 107.7975,98.98375 C108.07625,99.0625 108.36375,99.12125 108.6675,99.16 C108.74,99.21875 108.8275,99.2625 108.93125,99.2875 C109.0675,99.34 109.20875,99.41375 109.35,99.50125 C106.7675,100.195 104.30125,99.9125 101.94875,98.6425 C101.87,98.55 101.7975,98.47125 101.72875,98.4125 L101.5525,98.17875 C101.475,98.05125 101.41625,97.92 101.3725,97.7925 L101.3725,97.7925 Z M105.06375,94.10625 L106.015,94.6725 L107.52875,95.34625 C105.98625,94.8775 104.75625,94.6 103.8425,94.51125 L98.6275,93.965 C99.9075,94.0525 100.87875,94.0675 101.5425,94.01375 C102.6075,93.95 103.77875,93.98375 105.06375,94.10625 L105.06375,94.10625 Z M112.075,96.80125 L115.17625,96.68375 L114.56,96.5375 C114.43875,96.51375 114.32125,96.47875 114.20375,96.44 C114.16,96.435 114.11625,96.42125 114.0725,96.40125 C114.01875,96.39625 113.965,96.38125 113.92125,96.3675 C113.89125,96.3625 113.8675,96.3525 113.8425,96.3475 C113.15875,96.17125 112.525,96.03 111.94875,95.9125 L108.48625,94.80875 C108.28125,94.72625 108.09125,94.64375 107.915,94.555 L106.86,93.99875 C106.5425,93.79375 106.255,93.59875 106.00625,93.4175 L105.68375,93.14875 L105.68875,93.1975 L105.58125,93.15375 L104.4775,93.15375 C103.30625,93.15375 102.12375,93.2075 100.9275,93.31 C100.5325,93.35 99.8825,93.38875 98.98,93.4325 C98.18375,93.47125 97.53875,93.57375 97.05125,93.75 L95.07375,93.525 C96.7925,92.87125 99.6,92.64125 103.49625,92.83625 L105.635,93.14875 C105.195,92.72 105.17125,92.45625 105.56125,92.35375 C105.69375,92.30875 106.31875,92.3875 107.44125,92.5925 C109.00875,93.325 110.3225,93.6125 111.38125,93.4525 C111.71875,93.52 112.02625,93.59375 112.305,93.67125 C113.8625,94.30625 115.38625,94.6575 116.865,94.72625 C116.255,95.415 115.7075,96.06875 115.225,96.68 L116.9675,97.08 C117.725,97.31375 118.30625,97.63125 118.70625,98.0325 L112.32875,96.83125 L112.075,96.80125 L112.075,96.80125 Z M111.85,100.5375 C111.665,100.68875 111.46,100.85375 111.24,101.045 C110.645,101.465 110.06875,101.7475 109.51125,101.89375 C109.2825,101.9525 108.90125,102.00125 108.36875,102.04625 L107.92,102.085 L107.54875,101.87 C108.49625,100.845 109.185,100.0825 109.61,99.58 C110.44375,99.975 111.19125,100.2925 111.85,100.5375 L111.85,100.5375 Z M108.51125,89.8875 L107.505,89.32125 C107.94,88.91625 108.16875,88.68125 108.19875,88.60875 C108.25625,88.50625 108.30125,88.28125 108.34,87.94375 L108.545,87.97875 C111.70375,88.54 114.375,89.02375 116.5475,89.43375 C118.4525,89.77 120.0975,90.01 121.485,90.15625 C121.02,90.6 120.38625,91.19125 119.58,91.92875 C119.355,92.05 119.145,92.13875 118.95,92.1875 C118.78375,92.2025 118.59875,92.2025 118.39875,92.1825 L116.9625,92.4125 C116.30375,92.53375 115.3275,92.45625 114.02875,92.1675 C113.89625,92.1775 113.36375,92.20625 112.43125,92.25625 C111.83125,92.30875 111.31375,92.285 110.86875,92.1925 C109.2775,91.9625 107.77375,91.59125 106.3525,91.07875 C102.07,89.51625 98.545,88.81875 95.78125,88.99375 L103.355,88.33 C104.61375,88.2225 105.66875,88.2125 106.51375,88.305 C106.1475,88.34 105.86875,88.37875 105.66875,88.4325 C104.595,88.35375 102.94875,88.48625 100.7375,88.81375 C100.98125,88.96 101.3775,89.0375 101.90875,89.0625 C102.5825,89.10125 102.98875,89.15 103.13,89.20375 C103.4375,89.2775 104.0775,89.50625 105.04375,89.8925 C105.9525,90.3125 107.3725,90.47375 109.30125,90.37125 L109.355,90.36625 L108.51125,89.8875 L108.51125,89.8875 Z M81.09375,96.055 C80.9175,96.00125 80.7325,95.9525 80.5275,95.9025 L76.275,94.365 C75.9625,94.22375 75.66875,94.08625 75.38625,93.94 C77.45625,94.2625 80.7275,94.58 85.205,94.8875 C86.05,94.985 86.73875,95.02375 87.275,95.01 C85.77625,95.1075 83.71625,95.45375 81.09375,96.055 L81.09375,96.055 Z M89.4675,89.09625 C89.77,89.135 90.57625,89.13125 91.875,89.08625 C92.905,89.0275 93.6675,89.13125 94.16,89.39 C93.2475,89.63375 92.29,89.785 91.28875,89.83875 C89.8925,89.96125 89.0775,89.8 88.8375,89.35 L81.85,86.9525 C82.11875,86.9625 82.3925,87.00625 82.66625,87.08 C83.0125,87.21625 83.29125,87.32875 83.49625,87.4125 C86.02,88.35875 88.0125,88.92125 89.4675,89.09625 L89.4675,89.09625 Z M61.06,77.075 C61.60125,77.1625 62.05625,77.1925 62.4225,77.1575 C63.98,76.9575 65.04375,76.5275 65.625,75.87375 C66.23,75.15125 66.7475,74.17 67.1725,72.93 C67.5825,71.51875 67.94375,70.48375 68.25625,69.81875 C68.98875,68.25125 70.395,66.94375 72.48,65.88875 C74.24375,65.02875 75.3225,64.53625 75.7125,64.39875 C77.1725,63.90625 78.29125,63.87125 79.0675,64.30625 C78.89625,64.6575 78.79375,65.01875 78.76,65.39 C79.2625,65.41 79.975,65.35125 80.90375,65.2 C81.895,65.0825 82.6075,65.01875 83.0425,65.015 C83.4125,65.015 84.145,64.985 85.24375,64.92125 C86.20625,64.83875 86.94375,64.82375 87.44625,64.8775 C88.99875,65.04375 90.15125,65.54625 90.89375,66.38625 C91.3725,66.91375 91.255,67.305 90.5425,67.56875 C89.44375,67.96875 88.78375,68.29125 88.57375,68.545 C89.73625,68.4425 90.65,68.37875 91.31375,68.35375 C92.54875,68.28125 93.355,68.53 93.74,69.09625 C93.26125,69.37 92.505,69.72125 91.475,70.14625 C90.17125,70.56125 89.21375,71.1175 88.60875,71.80625 C89.11125,71.82625 89.81,71.7825 90.7025,71.67 L92.84625,71.48375 C93.70625,71.40625 94.7125,71.62125 95.86,72.12375 L96.3325,72.33375 L95.48875,73.0075 C94.10625,72.895 92.54875,72.86625 90.81,72.915 L85.28375,73.39875 L84.385,73.48125 C84.12125,73.50125 83.89625,73.4225 83.71125,73.2375 C84.0475,72.47 84.785,71.90375 85.9225,71.5375 C86.3475,71.435 87.305,71.265 88.78875,71.035 C88.4275,70.7325 87.86125,70.5325 87.08,70.43375 C86.64,70.37125 86.015,70.3275 85.21,70.2925 C84.09625,70.16125 82.47125,70.15125 80.34125,70.26875 C80.63,69.74125 81.3325,69.38 82.45625,69.18 C83.70625,68.97 84.5025,68.715 84.84875,68.4175 C84.61875,68.105 84.0875,67.93375 83.2475,67.905 C82.77875,67.915 82.1775,67.94875 81.45,68.0125 C80.67375,67.98375 79.52625,68.04625 78.0025,68.2175 C75.7425,68.4125 74.2825,68.725 73.61875,69.15 C72.63625,69.775 72.0025,70.195 71.71875,70.42 C70.97125,71.02 70.48875,71.60125 70.26875,72.1525 C70.185,72.3975 70.15625,72.8175 70.17625,73.4175 C70.16125,73.98875 70.0775,74.41375 69.93625,74.6925 C69.40375,75.87875 68.4275,76.7475 67.0025,77.30875 C65.22,77.93375 63.28625,78.05125 61.21125,77.66625 L61.1625,77.67125 L61.07875,77.275 L61.06,77.075 L61.06,77.075 Z M104.995,81.865 C105.5075,81.9525 106.24,82.13875 107.2025,82.42125 C108.16875,82.77375 108.89125,82.97875 109.365,83.0375 C112.915,83.4275 115.47875,83.12 117.065,82.11375 C117.15875,82.03625 117.23625,81.9825 117.3,81.94375 L117.85625,81.44 C118.0425,81.255 118.19375,81.07875 118.31,80.89875 C117.695,81.1225 117.11,81.30375 116.5525,81.455 L115.23,81.82125 C114.6775,81.9725 114.15,82.085 113.6525,82.1575 C114.165,79.975 115.47375,78.4525 117.57375,77.6025 C119.0875,76.9675 121.3525,76.61625 124.355,76.5575 C128.8625,76.39625 133.135,78.4125 137.1825,82.6125 L141.455,81.5325 L141.71375,82.1625 L141.66,82.1675 L138.06125,84.0375 C137.085,83.58875 136.02,83.46625 134.86875,83.66625 C134.8975,83.26125 134.985,82.905 135.1225,82.5875 C134.61,82.83625 134.2775,83.24625 134.13125,83.8325 C132.92,84.17 131.83625,84.785 130.87875,85.67375 C130.7525,85.78125 130.645,85.89375 130.55625,86.00125 C130.44375,85.9075 130.2875,85.84 130.0825,85.79125 C129.57,85.635 128.2125,84.6825 126.02,82.93375 C125.47875,82.515 124.995,82.1525 124.57,81.855 L126.51375,83.39375 C125.98125,83.07125 125.3325,82.93 124.565,82.96375 L122.1775,83.16875 C121.065,83.87125 120.26875,84.34 119.79,84.585 C118.8575,85.03375 117.97875,85.2925 117.14875,85.36625 C115.79125,85.5175 114.96125,85.61 114.6625,85.635 C113.76,85.68375 112.96875,85.6 112.28,85.39 C111.87,85.25875 111.11875,84.92625 110.03375,84.385 C108.99375,83.94 108.2475,83.8225 107.7925,84.0275 C107.95875,84.35 108.36875,84.6625 109.03375,84.975 C109.62375,85.25375 110.14125,85.43 110.58125,85.4875 C108.36875,85.415 107.02125,85.33625 106.5475,85.24375 C105.79625,85.0725 104.81875,84.62375 103.61875,83.89125 C102.67625,83.47125 101.5775,83.52 100.3175,84.0275 C99.63875,84.32125 98.60875,84.8 97.23125,85.45375 C95.17125,86.035 92.735,86.08375 89.9125,85.595 L87.1675,85.78125 L88.735,85.34625 C86.96375,84.965 85.65125,84.4775 84.79625,83.88125 C83.585,83.05125 82.75,82.505 82.29125,82.24625 C81.34875,81.7575 80.3675,81.475 79.35625,81.39625 L79.625,81.025 L80.9725,80.9025 C83.32625,81.80125 85.74375,82.30875 88.23375,82.42625 C90.81625,82.53375 93.18,82.1625 95.31375,81.30875 C96.35375,79.0725 97.2375,77.52375 97.965,76.655 L97.78,76.26875 C96.705,76.23 94.9475,76.40125 92.50625,76.7825 C91.05625,77.01125 89.17625,77.71 86.86625,78.88125 C86.45125,78.35 86.495,77.71 87.00375,76.9625 C87.41875,76.3575 87.94125,75.87875 88.58,75.5225 C89.60625,74.995 91.56875,74.4575 94.46375,73.90125 C93.9275,74.2825 93.44875,74.54125 93.02375,74.6825 L100.28,73.2425 C101.26625,73.05625 101.94,72.915 102.29625,72.8125 C103.11125,72.54375 103.64375,72.12875 103.8975,71.5725 C103.61,72.5 103.32125,73.2425 103.03875,73.80375 C103.41,73.47125 103.8825,72.94375 104.45375,72.22625 C105.055,71.435 105.495,70.9125 105.7725,70.65375 C105.5925,71.64 105.44125,72.4075 105.32375,72.95375 C105.1375,73.94 104.85,74.6675 104.45875,75.13625 C104.37125,75.3125 104.17125,75.5125 103.85875,75.7425 C104.26375,75.77125 104.89875,75.56625 105.7625,75.12125 L107.57,73.96 C107.6675,74.32125 107.6825,74.6875 107.61375,75.05875 C107.4475,75.845 106.95375,76.72375 106.13875,77.7 C105.44125,78.53 104.7425,79.14 104.03875,79.53625 C103.56625,79.84875 102.90125,80.0875 102.0475,80.26375 C100.86125,80.5025 100.19125,80.64375 100.02625,80.69375 L99.7325,80.76625 C98.57,80.86875 97.6525,81.10375 96.98375,81.46 C96.88625,81.50375 95.96375,82.05 94.215,83.11 C93.10125,83.77375 92.10125,84.21375 91.2175,84.42375 C94.58625,83.93 97.09125,83.47625 98.72625,83.06625 C100.695,82.22125 102.145,81.7775 103.0775,81.72875 L103.4825,81.7475 C103.78,81.7525 104.03875,81.83125 104.25375,81.9775 L104.99625,81.865 L104.995,81.865 Z M112.6275,100.82 L112.68125,100.86375 L112.5925,100.97625 C112.6225,100.9375 112.63125,100.88375 112.6275,100.82 L112.6275,100.82 Z" id="path228" fill="#CE786F"></path>
                    <path d="M99.2575,96.02 L101.265,96.59625 L101.31875,96.64 L101.68,96.70875 L101.73375,96.7575 L101.3575,97.04125 L101.29875,96.9925 L99.2575,96.02 L99.2575,96.02 Z M94.0575,94.51625 C93.6275,94.18375 92.8375,93.955 91.69,93.81875 L90.9175,93.6375 L91.06875,93.6225 C92.28,93.715 93.17875,93.87125 93.77,94.09125 C94.52625,94.355 95.5175,94.77 96.73875,95.33625 L94.0575,94.51625 L94.0575,94.51625 Z M97.05125,93.75 C97.53875,93.57375 98.18375,93.47125 98.98,93.4325 C99.8825,93.38875 100.5325,93.35 100.9275,93.31 C102.12375,93.2075 103.30625,93.15375 104.4775,93.15375 C103.71625,93.2175 102.75375,93.335 101.59625,93.50625 C101.94375,93.6425 102.4025,93.72 102.97375,93.735 C103.6475,93.77875 104.10125,93.81875 104.34125,93.8675 C104.44375,93.89125 104.6825,93.97 105.06375,94.10625 C103.77875,93.98375 102.6075,93.95 101.5425,94.01375 C100.87875,94.0675 99.9075,94.0525 98.6275,93.965 C97.75375,93.91125 97.065,93.92125 96.5725,93.99375 L97.05125,93.75 Z M105.66875,88.4325 L105.1225,88.47625 C105.205,89.0375 106.265,89.49625 108.30625,89.85375 L108.355,89.85375 C108.4225,89.8775 108.47625,89.8925 108.51125,89.8875 L109.355,90.36625 L109.30125,90.37125 C107.3725,90.47375 105.9525,90.3125 105.04375,89.8925 C104.0775,89.50625 103.4375,89.2775 103.13,89.20375 C102.98875,89.15 102.5825,89.10125 101.90875,89.0625 C101.3775,89.0375 100.98125,88.96 100.7375,88.81375 C102.94875,88.48625 104.595,88.35375 105.66875,88.4325 L105.66875,88.4325 Z M62.43125,68.67625 C62.695,68.2175 62.97875,67.84125 63.28625,67.54375 C63.95,68.59375 65.16625,68.90625 66.93375,68.48125 C67.295,68.38375 67.56375,68.2275 67.74375,68.0075 C67.95375,67.725 68.135,67.49 68.28625,67.30875 C69.0625,66.60625 69.64875,66.06875 70.05375,65.6975 C71.455,64.54125 72.69,63.745 73.76,63.315 C75.27875,62.715 76.80125,62.32875 78.325,62.1625 L81.3625,61.89875 C82.6225,62.12375 83.56875,62.22625 84.20375,62.2025 C84.41375,62.685 84.20875,63.07125 83.59875,63.35875 C82.67125,63.80875 82.1875,64.0525 82.15875,64.08625 C82.495,64.09125 83.2425,64.0575 84.40875,63.98875 C85.3375,63.91125 86.07375,63.93 86.62125,64.0475 C87.33375,64.155 88.30625,64.57 89.54125,65.2975 C90.845,66.02 91.48,66.61625 91.455,67.09 C91.445,67.35875 91.275,67.52375 90.9475,67.5825 C90.5225,67.69 90.27875,67.7775 90.22,67.85125 C91.30875,67.72 92.2075,67.65625 92.91,67.66125 C94.2475,67.64625 94.96625,68.0175 95.06875,68.77875 C95.1025,69.18 94.79,69.4575 94.13625,69.61375 C93.775,69.71125 93.2325,69.80875 92.505,69.9075 L91.475,70.14625 C92.505,69.72125 93.26125,69.37 93.74,69.09625 C93.355,68.53 92.54875,68.28125 91.31375,68.35375 C90.65,68.37875 89.73625,68.4425 88.57375,68.545 C88.78375,68.29125 89.44375,67.96875 90.5425,67.56875 C91.255,67.305 91.3725,66.91375 90.89375,66.38625 C90.15125,65.54625 88.99875,65.04375 87.44625,64.8775 C86.94375,64.82375 86.20625,64.83875 85.24375,64.92125 C84.145,64.985 83.4125,65.015 83.0425,65.015 C82.6075,65.01875 81.895,65.0825 80.90375,65.2 C79.975,65.35125 79.2625,65.41 78.76,65.39 C78.79375,65.01875 78.89625,64.6575 79.0675,64.30625 C78.29125,63.87125 77.1725,63.90625 75.7125,64.39875 C75.3225,64.53625 74.24375,65.02875 72.48,65.88875 C70.395,66.94375 68.98875,68.25125 68.25625,69.81875 C67.94375,70.48375 67.5825,71.51875 67.1725,72.93 C66.7475,74.17 66.23,75.15125 65.625,75.87375 C65.04375,76.5275 63.98,76.9575 62.4225,77.1575 C62.05625,77.1925 61.60125,77.1625 61.06,77.075 C60.835,76.025 60.79625,75.01 60.9425,74.02375 C61.25,72.1575 61.62125,70.65375 62.05625,69.51125 L62.43125,68.67625 L62.43125,68.67625 Z M138.38875,76.885 C138.67625,77.09 138.965,77.35375 139.2575,77.66125 L139.6,78.08125 L140.59125,79.6525 C140.86875,80.195 141.1625,80.825 141.455,81.5325 L137.1825,82.6125 C133.135,78.4125 128.8625,76.39625 124.355,76.5575 C121.3525,76.61625 119.0875,76.9675 117.57375,77.6025 C115.47375,78.4525 114.165,79.975 113.6525,82.1575 L112.8075,82.23625 C112.73,82.10875 112.66625,81.94375 112.6175,81.7475 L112.48,80.205 C112.45125,79.50625 112.495,79.0325 112.6075,78.78875 C112.66625,78.715 113.0125,78.4375 113.6375,77.94375 C114.13625,77.53375 114.62875,76.855 115.1175,75.9075 C115.69375,74.8875 116.1325,74.165 116.43125,73.735 C116.5575,73.6575 116.685,73.59375 116.81625,73.55 C122.24625,70.96625 128.09125,71.425 134.355,74.92625 C136.225,75.6975 137.57375,76.3525 138.38875,76.885 L138.38875,76.885 Z M103.98,80.54625 L103.33,80.605 L99.73125,80.76625 L100.025,80.69375 C100.19,80.64375 100.86,80.5025 102.04625,80.26375 C102.9,80.0875 103.565,79.84875 104.0375,79.53625 C104.74125,79.14 105.44,78.53 106.1375,77.7 C106.9525,76.72375 107.44625,75.845 107.6125,75.05875 C107.68125,74.6875 107.66625,74.32125 107.56875,73.96 L105.76125,75.12125 C104.8975,75.56625 104.2625,75.77125 103.8575,75.7425 C104.17,75.5125 104.37,75.3125 104.4575,75.13625 C104.84875,74.6625 105.13625,73.94 105.3225,72.95375 C105.44,72.4075 105.59125,71.64 105.77125,70.65375 C105.49375,70.9125 105.05375,71.435 104.4525,72.22625 C103.88125,72.94375 103.40875,73.47125 103.0375,73.80375 C103.32,73.2425 103.60875,72.5 103.89625,71.5725 C103.6425,72.12875 103.11,72.54375 102.295,72.8125 C101.93875,72.915 101.265,73.05625 100.27875,73.2425 L93.0225,74.6825 C93.4475,74.54125 93.92625,74.2825 94.4625,73.90125 L96.3325,72.33375 C97.02125,72.5725 98.15875,72.55875 99.74125,72.285 C101.09375,72.065 102.04625,71.885 102.6025,71.73375 C103.81375,71.425 104.62875,71.00625 105.05375,70.46375 L102.3875,71.5525 C102.505,71.37125 103.26625,70.9225 104.6775,70.195 C105.76625,69.63375 106.23,69.00875 106.06875,68.32 C105.845,68.4075 105.5325,68.66625 105.13125,69.10125 C104.77,69.53625 104.40875,69.81875 104.0525,69.95125 C103.4325,70.13625 102.65125,70.205 101.71375,70.15625 C101.86,69.9075 102.13875,69.6975 102.55875,69.53125 C103.14,69.2775 103.49625,69.11125 103.6225,69.0325 C104.0625,68.73 104.51625,68.2025 104.99,67.46125 C105.225,67.07 105.36125,66.52375 105.4,65.815 C105.43,65.04375 105.5325,64.4825 105.7025,64.135 C106.19125,64.39375 106.52875,64.965 106.70375,65.85375 C106.9825,67.065 107.15875,67.77375 107.24125,67.96375 C107.53375,67.10375 107.7925,66.5775 108.0075,66.39125 C108.35,66.05875 108.765,66.245 109.2625,66.93375 C110.02,67.93875 110.635,69.09125 111.11875,70.385 C111.02,70.79625 110.7375,71.79125 110.27375,73.36875 C109.64875,75.7375 108.945,77.31875 108.18375,78.12 C107.1675,79.18 105.76625,79.99 103.98,80.54625 L103.98,80.54625 Z M110.04875,82.22625 C111.30375,82.45125 112.73875,82.3925 114.34625,82.05 C114.61,81.9925 114.9075,81.91875 115.23,81.82125 L116.5525,81.455 C117.11,81.30375 117.695,81.1225 118.31,80.89875 C118.19375,81.07875 118.0425,81.255 117.85625,81.44 L117.3,81.94375 C117.23625,81.9825 117.15875,82.03625 117.065,82.11375 C115.47875,83.12 112.915,83.4275 109.365,83.0375 C108.89125,82.97875 108.16875,82.77375 107.2025,82.42125 C106.24,82.13875 105.5075,81.9525 104.995,81.865 L105.19,81.79625 C106.53375,82.21625 107.31875,82.43125 107.55375,82.44125 C108.535,82.52375 109.365,82.45125 110.04875,82.22625 L110.04875,82.22625 Z M107.44125,92.5925 C108.36,92.7775 109.605,93.05625 111.17625,93.4175 C111.245,93.4475 111.31375,93.45625 111.38125,93.4525 C110.3225,93.6125 109.00875,93.325 107.44125,92.5925 Z M119.92625,97.62125 L120.635,97.66125 C121.275,97.73875 121.69,97.885 121.875,98.105 L119.92625,97.62125 Z" id="path230" fill="#B56A61"></path>
                    <path d="M32.13875,106.7575 L31.5675,106.28375 C33.13,107.4125 33.99375,108.79875 34.16,110.44375 C34.15,110.48375 34.145,110.5225 34.145,110.56625 C34.22875,111.59625 34.0625,112.73875 33.6575,113.99875 C32.4175,115.43375 31.03,116.59125 29.4925,117.465 C29.42875,117.505 29.175,117.62625 28.745,117.8225 C27.275,118.81875 25.69375,119.34 24.00875,119.39375 C22.45625,119.4625 20.4975,118.99875 18.12,118.0075 C17.3775,117.69 16.65,117.1725 15.9475,116.45 C16.00625,116.49875 16.065,116.5475 16.11375,116.58625 C16.45,116.49875 17.13875,116.42125 18.17875,116.3425 C18.13,115.86875 17.71,115.3225 16.91875,114.71125 L16.9925,114.6925 C17.27,114.95625 17.6225,115.14625 18.05625,115.25375 C18.57375,115.41 18.98875,115.395 19.30625,115.205 C19.11125,115.06375 18.93125,114.92625 18.775,114.8 C19.03375,114.8825 19.32625,114.95125 19.64875,115.005 C21.38125,115.26375 22.31,114.82875 22.42625,113.70125 C22.305,113.81375 22.1675,113.91125 22.02125,113.99875 C21.5525,114.31625 21.02,114.40375 20.425,114.2525 C19.8775,114.11125 19.4575,113.79875 19.17,113.31 C18.975,112.9875 18.88125,112.64625 18.88125,112.29 C18.8675,112.13375 18.8725,111.9675 18.90125,111.7825 C19.0575,111.06875 19.175,110.55125 19.2575,110.23375 C18.47625,110.15625 17.94375,110.33625 17.66125,110.77625 C17.485,111.07375 17.3775,111.70375 17.32875,112.66125 C17.295,112.77375 17.27,112.885 17.26125,112.9925 C17.1825,112.725 17.12875,112.42125 17.105,112.095 L16.80625,111.9825 C16.60125,112.88125 16.50875,113.34 16.52875,113.36875 C16.52375,113.39375 16.51875,113.4175 16.50875,113.4375 C16.11375,112.9975 15.67875,112.65625 15.2,112.4125 C15.1025,112.3675 15.01,112.32375 14.9225,112.29 C15.23,112.1725 15.5425,112.02625 15.855,111.85 C16.87,111.20625 17.485,110.45375 17.705,109.585 C17.94875,108.6225 17.72,107.6175 17.01625,106.5625 C16.9825,106.51875 16.94375,106.47 16.90375,106.425 C17.32875,106.3575 17.67625,106.3375 17.94375,106.3625 C18.8625,106.475 19.40875,106.675 19.58,106.9575 C19.62875,107.04625 19.71625,107.65125 19.84375,108.77875 C20.22,108.81375 20.65375,108.90625 21.1425,109.0525 C20.5325,109.15 20.0875,109.57 19.82375,110.3025 C20.1175,110.22 20.4,110.175 20.67875,110.175 C21.25,110.16125 21.7875,110.3175 22.29,110.64 C22.48,110.76125 22.66125,110.9025 22.8375,111.06875 C23.28625,111.49875 23.52,111.92375 23.535,112.34375 C23.53,112.46125 23.4125,112.97875 23.17875,113.89125 L23.8625,114.0675 C24.765,113.68625 25.17125,113.095 25.0775,112.295 L25.0775,112.24125 C25.5175,112.3975 25.78125,112.24125 25.86875,111.7675 C26.09375,110.3175 26.225,109.56 26.265,109.49625 C26.25,109.4675 26.83125,109.2375 28.0075,108.80875 C28.16875,108.75 28.345,108.6275 28.54,108.4325 C28.735,108.2375 28.88625,108.13 28.98875,108.11 C29.15,108.05125 29.32625,108.12 29.52125,108.315 L29.82875,108.54 C31.00625,108.305 31.72375,108.2075 31.9825,108.24625 C32.5825,108.28125 33.19875,108.56875 33.8375,109.12125 C33.47125,108.17875 32.905,107.3875 32.13875,106.7575 L32.13875,106.7575 Z M29.20375,105.1025 C29.23875,105.06875 29.2725,105.04375 29.30125,105.015 C30.16125,105.4 30.90875,105.815 31.53375,106.27375 L30.7275,106.1425 L29.72625,105.34125 C29.565,105.25875 29.395,105.18 29.20375,105.1025 L29.20375,105.1025 Z M27.67125,116.16625 C26.1425,116.91875 23.67625,117.495 20.26375,117.895 C21.59625,118.50125 23.6725,118.76 26.48875,118.67125 L25.98625,118.2175 C26.69,118.0325 27.64125,117.5775 28.8425,116.865 C30.16125,116.07875 31.255,115.27375 32.11875,114.4475 L32.1825,114.355 C32.9,113.345 33.4175,112.45625 33.735,111.68375 L33.16875,112.1975 C32.85125,111.80125 31.9825,112.26 30.55625,113.57875 C28.75,115.23375 27.7875,116.09875 27.67125,116.16625 Z M12.98375,112.5975 L13.46625,113.2125 L12.94875,112.5875 L12.98375,112.5975 Z M15.6,104.52625 C15.65375,104.61375 15.7175,104.71125 15.77625,104.82875 C15.5025,104.41875 15.3325,104.145 15.25875,104.00375 C15.3125,104.10625 15.425,104.2725 15.58625,104.50625 L15.6,104.52625 L15.6,104.52625 Z" id="path232" fill="#E08378"></path>
                    <path d="M12.98375,112.5975 L12.97375,112.5775 C13.28625,112.6075 13.60875,112.5975 13.945,112.54875 L14.9225,112.29 C15.01,112.32375 15.1025,112.3675 15.2,112.4125 C15.67875,112.66125 16.11375,112.9975 16.50875,113.4375 C16.48,113.8375 16.60125,114.20875 16.885,114.555 C16.91875,114.60375 16.9575,114.64875 16.9925,114.6925 L16.91875,114.71125 C17.71,115.3225 18.13,115.86875 18.17875,116.3425 C17.13875,116.42125 16.45,116.49875 16.11375,116.58625 C16.065,116.5425 16.00625,116.49875 15.9475,116.45 C15.7275,116.215 15.5075,115.95625 15.28375,115.67875 C16.045,115.26875 16.1375,114.6675 15.55625,113.89125 C14.975,113.11 14.34625,112.96375 13.6625,113.4475 L13.46625,113.2125 L12.98375,112.5975 L12.98375,112.5975 Z M15.77625,104.82875 C15.7175,104.71125 15.65375,104.61375 15.6,104.52625 C15.66875,104.565 15.7375,104.6 15.81,104.63375 L15.88875,104.6725 C16.06,104.765 17.45125,104.84875 20.05875,104.92625 C21.91375,104.985 22.73,105.66875 22.495,106.9675 C23.975,107.1775 25.13625,107.52875 25.98125,108.0375 C25.77125,107.23125 25.34125,106.5775 24.6925,106.06875 C25.23875,106.21125 25.63,106.3425 25.86375,106.475 C25.62,106.19625 25.48375,105.86875 25.45875,105.4975 C26.22125,105.54625 27.33875,105.75625 28.79875,106.1275 C30.26375,106.49875 31.3775,106.70875 32.13875,106.7575 C32.905,107.3875 33.47125,108.17875 33.8375,109.12125 C33.19875,108.56875 32.5825,108.28125 31.9825,108.24625 C31.72375,108.2075 31.00625,108.305 29.82875,108.54 L29.52125,108.315 C29.32625,108.12 29.15,108.05125 28.98875,108.11 C28.88625,108.13 28.735,108.2375 28.54,108.4325 C28.345,108.6275 28.16875,108.75 28.0075,108.80875 C26.83125,109.2375 26.25,109.4675 26.265,109.49625 C26.225,109.56 26.09375,110.3175 25.86875,111.7675 C25.78125,112.24125 25.5175,112.3975 25.0775,112.24125 C24.96625,111.50875 24.54125,110.81 23.80375,110.14625 C23.07625,109.4525 22.33375,109.08125 21.5675,109.0325 C21.42125,109.02375 21.27875,109.0325 21.1425,109.0525 C20.65375,108.90625 20.22,108.81375 19.84375,108.77875 C19.71625,107.65125 19.62875,107.04625 19.58,106.9575 C19.40875,106.675 18.8625,106.475 17.94375,106.3625 C17.67625,106.3375 17.32875,106.3575 16.90375,106.425 L15.77625,104.82875 L15.77625,104.82875 Z" id="path234" fill="#CE786F"></path>
                    <path d="M14.86875,103.59375 L14.84875,103.60875 C14.805,103.57375 14.75625,103.545 14.7075,103.515 L14.72625,103.50125 L14.86875,103.59375 L14.86875,103.59375 Z M15.25875,104.00375 L15.205,103.91625 L15.07375,103.58875 C18.6725,102.94875 21.60625,102.89 23.8725,103.4175 C26.20125,103.98875 27.97875,104.55 29.20375,105.1025 C29.395,105.18 29.565,105.25875 29.72625,105.34125 L30.7275,106.1425 L31.53375,106.27375 L31.5675,106.28375 L32.13875,106.7575 C31.3775,106.70875 30.25875,106.49875 28.79875,106.1275 C27.33875,105.75625 26.22125,105.54625 25.45875,105.4975 C25.48375,105.86875 25.62,106.19625 25.86375,106.475 C25.63,106.3425 25.23875,106.21125 24.6925,106.06875 C25.34125,106.5775 25.77125,107.23125 25.98125,108.0375 C25.13625,107.52875 23.975,107.1775 22.495,106.9675 C22.73,105.66875 21.91375,104.985 20.05875,104.92625 C17.45125,104.84875 16.06,104.765 15.88875,104.6725 L15.81,104.63375 C15.7375,104.6 15.66875,104.565 15.6,104.52625 L15.58625,104.50625 C15.425,104.2725 15.3125,104.10625 15.25875,104.00375 L15.25875,104.00375 Z M15.28375,115.67875 C14.82375,115.1025 14.4725,114.575 14.22875,114.10125 L13.6625,113.4475 C14.34625,112.96375 14.975,113.11 15.55625,113.89125 C16.1375,114.6675 16.045,115.26875 15.28375,115.67875 L15.28375,115.67875 Z" id="path236" fill="#B56A61"></path>
                    <path d="M27.67125,116.16625 C27.7875,116.09875 28.75,115.23375 30.55625,113.57875 C31.9825,112.26 32.85125,111.80125 33.16875,112.1975 L33.735,111.68375 C33.4175,112.45625 32.9,113.345 32.1825,114.355 L32.11875,114.4475 C31.255,115.27375 30.16125,116.07875 28.8425,116.865 C27.64125,117.5775 26.69,118.0325 25.98625,118.2175 L26.48875,118.67125 C23.6725,118.76 21.59625,118.50125 20.26375,117.895 C23.67625,117.495 26.1425,116.91875 27.67125,116.16625 Z" id="path238" fill="#E5A39D"></path>
                    <path d="M18.775,114.8 C18.25625,114.41875 17.92,114.145 17.75875,113.975 C17.53375,113.715 17.36875,113.38875 17.26125,112.9925 C17.27,112.885 17.295,112.77375 17.32875,112.66125 C17.3775,111.70375 17.485,111.07375 17.66125,110.77625 C17.94375,110.33625 18.47625,110.15625 19.2575,110.23375 C19.175,110.55125 19.0575,111.06875 18.90125,111.7825 C18.8725,111.9675 18.8675,112.13375 18.88125,112.29 C18.88125,112.64625 18.975,112.9875 19.17,113.31 C19.4575,113.79875 19.8775,114.11125 20.425,114.2525 C21.02,114.40375 21.5525,114.31625 22.02125,113.99875 C22.1675,113.91125 22.305,113.81375 22.42625,113.70125 C22.31,114.82875 21.38125,115.26375 19.64875,115.005 C19.32625,114.95125 19.03375,114.8825 18.775,114.8 L18.775,114.8 Z" id="path240" fill="#B76B62"></path>
                    <path d="M16.9925,114.6925 C16.9575,114.64875 16.91875,114.60375 16.885,114.555 C16.60125,114.20875 16.48,113.8375 16.50875,113.4375 C16.51875,113.4125 16.52375,113.39375 16.52875,113.36875 C16.50875,113.34 16.60125,112.88125 16.80625,111.9825 L17.105,112.095 C17.12875,112.42125 17.1825,112.725 17.26125,112.9925 C17.36875,113.38875 17.53375,113.715 17.75875,113.975 C17.92,114.145 18.25625,114.41875 18.775,114.8 C18.93125,114.92625 19.11125,115.06375 19.30625,115.205 C18.98875,115.395 18.57375,115.41 18.05625,115.25375 C17.6225,115.14625 17.27,114.95625 16.9925,114.6925 L16.9925,114.6925 Z M21.1425,109.0525 C21.27875,109.0325 21.42125,109.02375 21.5675,109.0325 C22.33375,109.08125 23.07625,109.4525 23.80375,110.14625 C24.54125,110.81 24.96625,111.50875 25.0775,112.24125 L25.0775,112.295 C25.17125,113.095 24.765,113.68625 23.8625,114.0675 L23.17875,113.89125 C23.4125,112.97875 23.53,112.46125 23.535,112.34375 C23.52,111.92375 23.28625,111.49875 22.8375,111.06875 C22.66125,110.9025 22.48,110.76125 22.29,110.64 C21.7875,110.3175 21.25,110.16125 20.67875,110.175 C20.4,110.175 20.1175,110.22 19.82375,110.3025 C20.0875,109.57 20.5325,109.15 21.1425,109.0525 L21.1425,109.0525 Z" id="path242" fill="#E3978E"></path>
                    <g id="g244" transform="translate(2.500000, 91.250000)" fill="url(#linearGradient-15)">
                        <g id="g246">
                            <g id="g252">
                                <path d="M6.895,9.0575 C4.57,7.76375 2.99375,5.66875 2.1625,2.7875 C1.73375,1.3375 1.41125,0.42 1.20125,0.02375 C-1.3725,9.85875 3.06125,14.96125 14.51125,15.3275 C13.36875,13.70125 12.76375,12.8125 12.7,12.66125 L12.5775,12.32375 L12.35875,12.3725 C11.5625,11.83125 10.63,11.24 9.55625,10.595 C8.745,10.1175 7.85625,9.60875 6.895,9.0575 Z" id="path270"></path>
                            </g>
                        </g>
                    </g>
                    <path d="M11.7725,101.72375 L9.395,100.3075 C7.07,99.01375 5.49375,96.91875 4.6625,94.0375 C4.23375,92.5875 3.91125,91.67 3.70125,91.27375 C2.3875,96.30375 2.89,100.0875 5.215,102.62125 L5.5075,102.695 C5.69875,102.1925 5.81,101.465 5.84,100.5075 C6.24,100.57625 6.7975,100.74625 7.515,101.03 C8.19875,101.3325 8.75,101.52375 9.18,101.59625 C9.74625,101.665 10.61,101.70875 11.7725,101.72375 L11.7725,101.72375 Z" id="path272" fill="#584E3F"></path>
                    <g id="g274" transform="translate(2.500000, 95.000000)">
                        <g id="g276-Clipped">
                            <mask id="mask-17" fill="white">
                                <use xlink:href="#path-16"></use>
                            </mask>
                            <g id="path280"></g>
                            <g id="g276" mask="url(#mask-17)">
                                <g transform="translate(-3.750000, -71.250000)" id="g282">
                                    <g transform="translate(24.517606, 45.123763) scale(-1, 1) rotate(166.074233) translate(-24.517606, -45.123763) translate(10.517727, 2.624128)">
                                        <g id="g304-Clipped">
                                            <g id="g300-Clipped">
                                                <mask id="mask-19" fill="white">
                                                    <use xlink:href="#path-18"></use>
                                                </mask>
                                                <g id="path288"></g>
                                                <mask id="mask-21" fill="white">
                                                    <use xlink:href="#path-20"></use>
                                                </mask>
                                                <g id="path302"></g>
                                            </g>
                                            <g id="g304" transform="translate(17.999845, 74.999355)" fill="url(#radialGradient-22)">
                                                <path d="M0.659994324,0.897992277 C0.67199422,0.956991769 0.714993851,1.06599083 0.784993249,1.21898952 L0.640994487,0.975991606 C0.550995261,1.22998942 0.476995898,1.51498697 0.425996336,1.83198424 C0.753993515,5.94894884 3.62896879,8.36692804 9.05492212,9.08192189 C8.87492367,8.59692606 8.59392609,8.11693019 8.21892931,7.63693432 C7.97293143,7.30093721 7.68793388,6.95694017 7.36293667,6.60094323 C6.76594181,6.01494827 6.04694799,5.42195337 5.20695522,4.82795848 C3.40597071,3.5579694 1.9299834,2.09398199 0.772993352,0.432996276 C0.675994186,0.600994831 0.640994487,0.757993481 0.659994324,0.897992277 L0.659994324,0.897992277 Z" id="path312"></path>
                                            </g>
                                        </g>
                                    </g>
                                </g>
                            </g>
                        </g>
                    </g>
                    <g id="g314" transform="translate(1.250000, 90.000000)" fill="url(#linearGradient-23)">
                        <g id="g316">
                            <g id="g322">
                                <path d="M14.59,21.83625 C15.645,21.20125 16.275,20.44875 16.48875,19.575 C16.69875,18.59875 16.45,17.5925 15.7475,16.5575 C4.2975,16.19125 -0.13625,11.09375 2.43625,1.255 C2.4125,1.215 2.3875,1.17625 2.36375,1.1325 C2.22625,0.99625 2.12375,1.05875 2.06,1.31875 C0.7025,5.13625 0.02,8.17875 0.005,10.43875 C-0.025,12.08 0.16625,13.33 0.57125,14.18375 C0.9525,15 1.68,15.74625 2.74375,16.425 C3.4575,16.875 4.95125,17.7775 7.22625,19.13125 C7.7925,19.4775 8.30125,19.795 8.745,20.0775 C9.94125,20.9225 10.78125,21.63125 11.26,22.1925 L11.5375,22.51875 C12.49,22.69 13.51125,22.46125 14.59,21.83625 Z" id="path340"></path>
                            </g>
                        </g>
                    </g>
                    <path d="M4.42875,105.0925 C3.88625,104.50625 3.56875,104.0725 3.47125,103.76875 L4.16,103.89125 C4.185,102.96875 4.53125,102.53875 5.2,102.6025 C2.87625,100.06875 2.3725,96.28375 3.68625,91.255 C3.6625,91.215 3.6375,91.17625 3.61375,91.1325 C3.47625,90.99625 3.37375,91.05875 3.31,91.31875 C1.9525,95.13625 1.27,98.17875 1.255,100.43875 C1.21625,101.9775 1.3775,103.14875 1.72375,103.955 C2.04125,104.75625 2.65125,105.47375 3.56,106.1125 L5.07375,106.435 C5.1075,106.03 4.8925,105.58125 4.42875,105.0925 Z" id="path342" fill="#584E3F"></path>
                    <g id="g344" transform="translate(2.500000, 96.250000)">
                        <g id="g346-Clipped">
                            <mask id="mask-25" fill="white">
                                <use xlink:href="#path-24"></use>
                            </mask>
                            <g id="path350"></g>
                            <g id="g346" mask="url(#mask-25)">
                                <g transform="translate(-5.000000, -75.000000)" id="g352">
                                    <g transform="translate(25.536025, 48.272813) scale(-1, 1) rotate(166.074233) translate(-25.536025, -48.272813) translate(11.536145, 3.273200)">
                                        <g id="g374-Clipped">
                                            <g id="g370-Clipped">
                                                <mask id="mask-27" fill="white">
                                                    <use xlink:href="#path-26"></use>
                                                </mask>
                                                <g id="path358"></g>
                                                <mask id="mask-29" fill="white">
                                                    <use xlink:href="#path-28"></use>
                                                </mask>
                                                <g id="path372"></g>
                                            </g>
                                            <g id="g374" transform="translate(17.999845, 78.999321)" fill="url(#radialGradient-30)">
                                                <path d="M9.04692219,8.06593063 C3.61696889,7.35093678 0.741993618,4.93695754 0.417996405,0.815992982 C0.257997781,1.68298553 0.269997678,2.72997652 0.460996035,3.96096593 C0.694994023,5.66795125 1.19498972,6.87494087 1.9529832,7.58593476 C2.28898031,7.88993214 2.83197564,8.18692959 3.58196919,8.48392703 C3.97996577,8.66392548 4.55096086,8.90192344 5.30095441,9.19892088 C5.67195122,9.37491937 6.01994822,9.51491817 6.35194537,9.62491722 C7.67193402,10.1719125 8.58592616,10.46891 9.09792175,10.5119096 C9.37491937,9.72991632 9.35491954,8.91392333 9.04692219,8.06593063 Z" id="path382"></path>
                                            </g>
                                        </g>
                                    </g>
                                </g>
                            </g>
                        </g>
                    </g>
                    <path d="M21.00125,113.55875 C21.38625,113.29125 21.3575,112.88125 20.9125,112.33375 C20.48375,111.81125 20.0825,111.71875 19.7075,112.06 C19.365,112.33875 19.40375,112.76375 19.81875,113.33 C20,113.57375 20.205,113.68625 20.43,113.66625 C20.65375,113.725 20.85,113.69125 21.00125,113.55875 L21.00125,113.55875 Z M18.8575,111.81125 L18.90125,111.7825 C19.0375,111.235 19.35,110.78125 19.82875,110.415 C20.04875,110.3275 20.27375,110.24875 20.5075,110.185 C21.17625,110.13625 21.80125,110.3075 22.3825,110.6975 C22.52875,110.81 22.66125,110.96125 22.77875,111.1625 C23.05625,111.69875 23.125,112.23625 22.98875,112.7875 C22.88125,113.1975 22.7,113.54 22.43125,113.81375 C22.305,113.925 22.1875,114.01875 22.07,114.08625 C21.5375,114.365 21.00125,114.43375 20.44875,114.29125 C19.9025,114.155 19.4625,113.8375 19.12625,113.335 C18.8375,112.85125 18.745,112.34375 18.8575,111.81125 L18.8575,111.81125 Z" id="path384" fill="#504739"></path>
                    <path d="M21.00125,113.55875 C20.85,113.69125 20.65375,113.725 20.43,113.66625 C20.205,113.68625 20.005,113.57375 19.81875,113.33 C19.40375,112.76375 19.365,112.33875 19.7075,112.06 C20.0825,111.71875 20.48875,111.81125 20.9125,112.33375 C21.3575,112.88125 21.38625,113.29125 21.00125,113.55875 L21.00125,113.55875 Z" id="path386" fill="#84765E"></path>
                </g>
            </g>
        </g>
    </g>
</svg>