<svg xmlns="http://www.w3.org/2000/svg" width="24" height="24" viewBox="0 0 24 24">
    <g fill="none" fill-rule="evenodd">
        <polygon points="0 0 24 0 24 24 0 24"/>
        <path fill="#7A869A" d="M19.5,3 L24,3 L24,0 L12,0 L12,3 L16.5,3 L16.5,12 L19.5,12 L19.5,3 Z M0,12 L3,12 L3,24 L0,24 L0,12 Z M9,12 L12,12 L12,24 L9,24 L9,12 Z M6,21 L3,17.25 L3,12 L6,16.5 L9,12 L9,17.25 L6,21 Z"/> 
        <path fill="#172B4D" d="M7.125,3 L3,3 L3,6 L7.125,6 C7.95342712,6 8.625,5.32842712 8.625,4.5 C8.625,3.67157288 7.95342712,3 7.125,3 Z M6.25,9 L3,9 L3,12 L0,12 L0,8.25 L0,0 L7.5,0 C9.98528137,0 12,2.01471863 12,4.5 C12,6.21073267 11.0453865,7.69850342 9.63978869,8.45968304 L12,12 L8.25,12 L6.25,9 Z M19.125,15 L15,15 L15,18 L19.125,18 C19.9534271,18 20.625,17.3284271 20.625,16.5 C20.625,15.6715729 19.9534271,15 19.125,15 Z M15,21 L15,24 L12,24 L12,20.25 L12,12 L19.5,12 C21.9852814,12 24,14.0147186 24,16.5 C24,18.9852814 21.9852814,21 19.5,21 L15,21 Z"/> 
    </g>
</svg>