<?xml version="1.0" encoding="UTF-8"?>
<svg width="158px" height="198px" viewBox="0 0 158 198" version="1.1" xmlns="http://www.w3.org/2000/svg" xmlns:xlink="http://www.w3.org/1999/xlink">
    <!-- Generator: Sketch 43.2 (39069) - http://www.bohemiancoding.com/sketch -->
    <title>openclipart-tux</title>
    <desc>Created with Sketch.</desc>
    <defs></defs>
    <g id="Page-1" stroke="none" stroke-width="1" fill="none" fill-rule="evenodd">
        <g id="openclipart-tux" transform="translate(-1.000000, 0.000000)" fill-rule="nonzero">
            <path d="M115.09,70.05 C106.5761,75.6367 105.5888,93.11 112.8763,109.227 C125.8333,137.988 148.3863,162.06 154.7923,157.857 C161.1981,153.6536 158.962,123.006 143.6123,89.058 C136.3248,72.941 123.6033,64.463 115.0903,70.05 L115.09,70.05 Z" id="path5345" fill="#000000"></path>
            <path d="M44.06,70.05 C52.5739,75.6367 53.5612,93.11 46.2737,109.227 C33.3167,137.988 10.7637,162.06 4.3577,157.857 C-2.0481,153.6536 0.188,123.006 15.5377,89.058 C22.8252,72.941 35.5467,64.463 44.0597,70.05 L44.06,70.05 Z" id="rect5342" fill="#000000"></path>
            <path d="M79.21,0 C52.707,0 35.255,20.116 34.335,45.438 C34.335,45.438 34.3047,45.4276 34.3038,45.438 C32.9302,61.341 26.5135,72.221 23.8978,87.5 C10.3408,166.686 23.7103,166.573 34.7098,189.5 C64.0428,184.1338 93.3768,183.3734 122.7098,189.5 C122.7098,189.5 159.9078,162.031 133.7098,88 C127.9241,77.077 127.2171,59.642 124.0848,45.438 C118.8645,21.765 105.7128,0 79.2098,0 L79.21,0 Z" id="rect5259" fill="#000000"></path>
            <path d="M127.33,125.49 C127.33,155.96 116.403,164.49 102.83,164.49 L56.83,164.49 C43.257,164.49 32.33,155.96 32.33,125.49 C32.33,95.02 43.257,70.49 56.83,70.49 L102.83,70.49 C116.403,70.49 127.33,95.02 127.33,125.49 Z" id="rect5265" fill="#FFFFFF"></path>
            <g id="g5267" transform="translate(54.378580, 26.262340)" fill="#FFFFFF">
                <rect id="rect5269" x="29.7927" y="0.3446028" width="19.8618" height="34.46028" rx="9.9309"></rect>
                <rect id="rect5271" x="0" y="0.3446028" width="19.8618" height="34.46028" rx="9.9309"></rect>
            </g>
            <path d="M111.98,60.55 C111.98,69.273 97.307,80.173 79.208,80.173 C61.108,80.173 46.436,69.273 46.436,60.55 C46.436,51.8271 61.109,48.585 79.208,48.585 C97.308,48.585 111.98,51.8274 111.98,60.55 Z" id="path5273" fill="#ECB63A"></path>
            <path d="M52.46,61.14 C56.0183,67.3003 66.43,73.29 78.715,73.29 C90.999,73.29 101.412,67.3 104.97,61.14 C99.6655,66.0054 89.897,70.0703 78.715,70.0703 C67.533,70.0703 57.765,66.0054 52.46,61.14 Z" id="path5275" fill="#876108"></path>
            <rect id="rect5277" fill="#000000" x="87.49" y="37.1" width="13.241" height="15.316" rx="6.6205"></rect>
            <rect id="rect5279" fill="#000000" x="57.69" y="37.1" width="13.241" height="15.316" rx="6.6205"></rect>
            <g id="g5416" transform="translate(17.710000, 168.650000)">
                <path d="M66.39,17.76 C66.39,9.895 51.667,0.067 33.504,0.067 C15.342,0.067 0.618,9.8951 0.618,17.76 C0.618,25.6249 15.341,28.548 33.504,28.548 C51.666,28.548 66.39,25.6245 66.39,17.76 Z" id="path5347" fill="#ECB63A"></path>
                <path d="M61.27,14.38 C60.1284,17.3243 56.7234,20.5532 52.2917,21.4876 C48.7415,22.2361 45.3873,21.31514 43.1934,19.7534 C41.2387,21.5264 38.2624,22.8807 34.9353,22.8807 C31.9149,22.8807 29.1929,21.7669 27.2533,20.2367 C25.1649,22.1123 21.6609,23.3717 17.8669,22.8238 C13.3252,22.16793 9.7245,19.0989 8.5045,16.1996 C8.28369,16.56598 8.12118,16.97673 8.07239,17.4505 C7.72898,20.7857 12.02339,25.619 17.86689,26.4629 C21.66089,27.0108 25.16499,25.75135 27.25329,23.8757 C29.19279,25.4059 31.91479,26.5197 34.93529,26.5197 C38.26249,26.5197 41.23869,25.1654 43.19339,23.3924 C45.38739,24.9542 48.74159,25.8752 52.29169,25.1266 C58.08729,23.9046 62.15139,18.7682 61.65409,15.4603 C61.59369,15.05791 61.45314,14.69359 61.27,14.3799 L61.27,14.38 Z" id="path5352" fill="#926A0D"></path>
                <path d="M124.39,17.76 C124.39,9.895 109.667,0.067 91.504,0.067 C73.342,0.067 58.618,9.8951 58.618,17.76 C58.618,25.6249 73.341,28.548 91.504,28.548 C109.666,28.548 124.39,25.6245 124.39,17.76 Z" id="path5408" fill="#ECB63A"></path>
                <path d="M119.27,14.38 C118.1284,17.3243 114.7234,20.5532 110.2917,21.4876 C106.7415,22.2361 103.3873,21.31514 101.1934,19.7534 C99.2387,21.5264 96.2624,22.8807 92.9353,22.8807 C89.9149,22.8807 87.1929,21.7669 85.2533,20.2367 C83.1649,22.1123 79.6609,23.3717 75.8669,22.8238 C71.3252,22.16793 67.7245,19.0989 66.5045,16.1996 C66.28369,16.56598 66.12118,16.97673 66.07239,17.4505 C65.72898,20.7857 70.02339,25.619 75.86689,26.4629 C79.66089,27.0108 83.16499,25.75135 85.25329,23.8757 C87.19279,25.4059 89.91479,26.5197 92.93529,26.5197 C96.26249,26.5197 99.23869,25.1654 101.19339,23.3924 C103.38739,24.9542 106.74159,25.8752 110.29169,25.1266 C116.08729,23.9046 120.15139,18.7682 119.65409,15.4603 C119.59369,15.05791 119.45314,14.69359 119.27,14.3799 L119.27,14.38 Z" id="path5410" fill="#926A0D"></path>
            </g>
        </g>
    </g>
</svg>