<?xml version="1.0"?>
<svg xmlns:rdf="http://www.w3.org/1999/02/22-rdf-syntax-ns#" xmlns="http://www.w3.org/2000/svg" xmlns:cc="http://creativecommons.org/ns#" xmlns:dc="http://purl.org/dc/elements/1.1/" xmlns:svg="http://www.w3.org/2000/svg" id="svg2" viewBox="0 0 500 500" version="1.1">
  <g id="layer1" transform="translate(0 -552.36)">
    <path id="path3964" stroke="#000" stroke-width="1.5871px" d="m123.72 660.8c-181.59 103.83-61.945 227.43 76.09 210.31 169.78 19.72 241.71-124.08 108.78-201.08-49.56-23.22-85.55-20.38-184.87-9.23z"/>
    <path id="path3966" stroke="#000" stroke-width="1.5772px" d="m81.958 696.39 21.978-90.108 41.757 71.427z"/>
    <path id="path3968" stroke="#000" stroke-width="1.5772px" d="m277.56 686.5 42.856-78.02 25.274 129.67z"/>
    <path id="path3970" stroke="#000" stroke-width="1.5772px" d="m200.64 871.11s-6.5933 103.3-20.879 113.18c-14.285 9.89 72.526 28.571 93.405 8.791 38.318-32.658-30.351-100.04-38.461-125.27-25.067-78.665-34.065 3.2966-34.065 3.2966z"/>
    <path id="path3982" stroke="#000" stroke-width="1.3581px" d="m271.87 969.4s59.639-4.8034 81.072-48.035 8.3868-77.817 13.046-91.266c4.6594-13.45 27.024-67.249 81.072-36.506 54.048 30.742 49.389 75.895 25.16 87.423s-66.713 10.049-39.138 0c26.621-9.7021 60.769-26.74 22.365-60.524-29.565-26.008-41.02-26.244-64.299-5.764-28.114 24.734 14.535 86.247-39.138 134.5-49.567 44.56-82.004 29.782-82.004 29.782z"/>
    <g id="g3043" transform="matrix(1.8132 0 0 1.8809 -739.65 -1408.4)">
      <g id="g3045" transform="translate(149.76 -8.8676)">
        <path id="path3047" d="m384.5 1159.4c10.094-12.278 32.088-55.363 69.76 1.4819-10.793 14.515-19.918 22.12-33.219 25.685 1.1119-3.8722-22.558-0.2357-36.541-27.167z" stroke="#fff" stroke-width=".65003px" fill="#fff"/>
        <path id="path3049" d="m255.69 1303.2c0 18.085-14.661 32.745-32.745 32.745-18.085 0-32.745-14.661-32.745-32.745 0-18.085 14.661-32.745 32.745-32.745 18.085 0 32.745 14.661 32.745 32.745z" stroke="#000" stroke-width=".9" transform="matrix(.56362 0 0 .78396 293.01 136.07)"/>
      </g>
    </g>
    <g id="g4053" transform="matrix(1.8132 0 0 1.8809 -912.01 -1408.4)">
      <g id="g4055" transform="translate(149.76 -8.8676)">
        <path id="path4057" d="m384.5 1159.4c10.094-12.278 32.088-55.363 69.76 1.4819-10.793 14.515-19.918 22.12-33.219 25.685 1.1119-3.8722-22.558-0.2357-36.541-27.167z" stroke="#fff" stroke-width=".65003px" fill="#fff"/>
        <path id="path4059" d="m255.69 1303.2c0 18.085-14.661 32.745-32.745 32.745-18.085 0-32.745-14.661-32.745-32.745 0-18.085 14.661-32.745 32.745-32.745 18.085 0 32.745 14.661 32.745 32.745z" stroke="#000" stroke-width=".9" transform="matrix(.56362 0 0 .78396 293.01 136.07)"/>
      </g>
    </g>
    <path id="path3053" d="m120.77 254.85c1.9012-0.65261 3.9474-0.6772 5.8621-1.232 1.4689-0.48588 3.0015-0.64192 4.5368-0.72537 0.25325-0.008 0.5065-0.0168 0.75976-0.0252l-9.327 6.8489-0.74257 0.051c-1.4961 0.15177-2.9582 0.454-4.4099 0.84677-1.9705 0.34537-3.9586 0.64733-5.842 1.3545l9.1628-7.1186z" stroke="#000" stroke-width=".9" transform="translate(0 552.36)"/>
    <path id="path3055" d="m124.82 252.68c2.0962-0.0786 4.11-0.53944 6.1503-0.96916 1.3099-0.67404 2.7113-0.96952 4.1627-1.1164 1.2653-0.14645 2.7388 0.15794 3.8215-0.66024 0.64263 0.0375 1.4147 1.2457 0.76412 1.631-6.153 3.644-6.9577 5.3506-11.521 6.2211-1.5087 0.24321-3.04 0.27119-4.5646 0.29566-1.5266 0.11291-3.1068-0.19932-4.6008 0.16633-1.3388 0.38423-2.727 0.49264-4.1109 0.56498-1.0077 0.12952-2.0508-0.0646-3.0561 0.0547-0.43606 0.0518-0.85136 0.21568-1.2773 0.32234-1.3341 0.40534-2.7722 0.18527-4.0896 0.59755-1.2612 0.50625-2.6684 0.32383-3.9298 0.763-1.3023 0.45064-2.6811 0.54251-4.046 0.61318-0.96847 0.0315-0.51053-0.0447-1.3777 0.20397l9.2533-6.9736c0.94678-0.0745 0.46747-0.0393 1.438-0.10542 1.3426-0.13503 2.6534-0.39491 3.9519-0.76389 1.3318-0.17319 2.6465-0.40412 3.9497-0.73253 1.3726-0.13609 2.7448-0.27141 4.0887-0.599 1.4595-0.226 2.9413-0.10925 4.4101-0.25278 1.3726-0.12997 2.7178-0.39106 4.075-0.62408 1.5526-0.0526 3.1068-0.004 4.6596-0.0568 1.4843-0.0545 2.9871-0.11552 4.4212-0.53914 3.6286-1.3347 9.7221-5.7262-8.5296 5.1171-0.0711 0.0422 0.19269-0.0931 0.24627-0.0301 0.88506 1.0406 0.95869 0.80412 0.69396 1.3342-1.3114 0.1732-2.6287 0.22845-3.941 0.39177-1.4035 0.26308-2.7086 0.80008-4.0874 1.1524-2.0633 0.42898-4.1468 0.65054-6.233 0.93823l9.2784-6.9444z" stroke="#000" stroke-width=".9" transform="translate(0 552.36)"/>
    <path id="path3059" d="m293.3 252.2c1.1014-0.003 2.188-0.00096 3.2793 0.15142 0.85373 0.13742 1.7155 0.19915 2.5788 0.22906 0.78948 0.0971 1.5373-0.0667 2.3082-0.19883 0.75465-0.17483 1.5537-0.0479 2.2962-0.25347 0.65957-0.23281 1.3706-0.18606 2.037-0.36781 0.75677-0.20515 1.538-0.27223 2.3179-0.31348 0.74458 0.0608 1.4322-0.1082 2.1506-0.25494 0.73022-0.0456 1.4246-0.23416 2.1393-0.37228 0.77426-0.0445 1.505-0.25222 2.2628-0.39036 0.39208 0.0177 1.2597-0.39045 1.5656 0.0336 0.0835 0.11579 0.12655 0.256 0.18982 0.38399-13.699 8.2038-0.049 0.31445-0.17066 0.3838-2.9228 1.6666-3.6495 2.819-6.0814 3.1242-0.83034 0.0789-1.6662 0.0712-2.4995 0.0764-0.8365 0.003-1.673 0.001-2.5095 0.00068-0.64168 0.0535-1.3844 0.13032-1.9764 0.40504-0.62242 0.26819-1.3021 0.31379-1.97 0.35246-0.7685 0.032-1.5379 0.028-2.3069 0.0272-0.78246-0.002-1.5649-0.003-2.3474-0.004-0.65646 0.19533-1.3289 0.2921-2.0098 0.34529-0.76085 0.0463-1.5235 0.0461-2.2855 0.0478-0.78171 0.00022-1.5634-0.001-2.3451-0.002-0.78159-0.00073-1.5632-0.00084-2.3448-0.00092-0.78127-0.00005-1.5625-0.00003-2.3438-0.00002-0.78124 0.00001-1.5625 0.00001-2.3437 0.00001h-2.3438c-0.94719-0.006-1.8375-0.39249-2.763-0.5743-1.0573-0.1384-2.1019-0.34719-3.1611-0.47563-1.1588-0.2702-2.3404-0.42356-3.5155-0.60551-1.2143-0.14643-2.4273-0.20637-3.601-0.57009-0.99645-0.33145-2.0473-0.41807-3.0887-0.4809-0.8755-0.14219-1.6988-0.46664-2.5671-0.64348-0.79142-0.14201-1.5968-0.1581-2.3985-0.1692-0.79551-0.006-1.591 0.001-2.3865-0.002-0.16551-0.00099-0.33102-0.002-0.49653-0.003l4.6603-3.3871c0.16887-0.002 0.33774-0.003 0.50662-0.005 0.80064-0.006 1.6015-0.008 2.402 0.009 0.82468 0.028 1.6519 0.0772 2.4581 0.26688 0.83286 0.20505 1.6469 0.50209 2.5058 0.5836 1.0674 0.097 2.1344 0.23502 3.1571 0.57139 1.1598 0.28645 2.3444 0.37848 3.5263 0.538 1.1815 0.17913 2.3671 0.33061 3.5375 0.57612 1.0654 0.1543 2.1292 0.32455 3.1896 0.50897 0.89766 0.20238 1.7788 0.52883 2.7131 0.46244 0.78125 0 1.5625 0 2.3438-0.00001 0.78124 0 1.5625 0 2.3437-0.00001 0.78128 0 1.5626-0.00002 2.3438 0.00011 0.78168 0.00017 1.5634 0.00046 2.345 0.001 0.78105 0.0009 1.5621 0.003 2.3432-0.001 0.75305-0.007 1.5078-0.0146 2.2572-0.097 0.68213-0.0888 1.3509-0.27636 2.04-0.29243 0.78222 0.001 1.5644 0.003 2.3467 0.003 0.76105-0.003 1.5236-0.002 2.2823-0.0706 0.6537-0.0769 1.2849-0.22287 1.9001-0.46087 0.68483-0.13294 1.3662-0.30277 2.0704-0.25074 0.83257 0.002 1.6652 0.006 2.4977-0.00038 0.82092-0.0112 1.6493-0.013 2.4578-0.17323 0.2512-0.0649 0.34704-0.0785 0.58139-0.18066 0.0791-0.0345 0.3049-0.16172 0.23026-0.11839-1.5941 0.92545-6.4269 3.6105-4.789 2.7649 3.5881-1.8524 9.8964-5.972 0.35641 0.10015 0.0685 0.0922 0.15238 0.17463 0.20537 0.27647 0.0365 0.0701-0.1538 0.0381-0.23224 0.0477-0.36479 0.0446-0.73014 0.0867-1.0893 0.1678-0.75075 0.16291-1.5062 0.26188-2.2626 0.39421-0.71261 0.1549-1.4314 0.24676-2.1482 0.37802-0.72365 0.14704-1.4505 0.15406-2.1866 0.18768-0.76837 0.0686-1.5262 0.19434-2.2766 0.37518-0.68859 0.0944-1.3716 0.20569-2.0502 0.35756-0.76572 0.0604-1.5346 0.0979-2.2905 0.24603-0.79106 0.13053-1.5796 0.1674-2.3806 0.0989-0.86697-0.051-1.729-0.14703-2.5876-0.27921-1.085-0.12365-2.1758-0.0905-3.2661-0.071l4.6885-3.4064z" stroke="#000" stroke-width=".9" transform="translate(0 552.36)"/>
  </g>
  <metadata>
    <rdf:RDF>
      <cc:Work>
        <dc:format>image/svg+xml</dc:format>
        <dc:type rdf:resource="http://purl.org/dc/dcmitype/StillImage"/>
        <cc:license rdf:resource="http://creativecommons.org/licenses/publicdomain/"/>
        <dc:publisher>
          <cc:Agent rdf:about="http://openclipart.org/">
            <dc:title>Openclipart</dc:title>
          </cc:Agent>
        </dc:publisher>
        <dc:title>black cat</dc:title>
        <dc:date>2011-04-24T03:45:49</dc:date>
        <dc:description>ak student, animal, black cat, cartoon, cat, clip art, clipart, eyes, </dc:description>
        <dc:source>http://openclipart.org/detail/133789/black-cat-by-chikiyo</dc:source>
        <dc:creator>
          <cc:Agent>
            <dc:title>chikiyo</dc:title>
          </cc:Agent>
        </dc:creator>
        <dc:subject>
          <rdf:Bag>
            <rdf:li>ak student</rdf:li>
            <rdf:li>animal</rdf:li>
            <rdf:li>black cat</rdf:li>
            <rdf:li>cartoon</rdf:li>
            <rdf:li>cat</rdf:li>
            <rdf:li>clip art</rdf:li>
            <rdf:li>clipart</rdf:li>
            <rdf:li>eyes</rdf:li>
          </rdf:Bag>
        </dc:subject>
      </cc:Work>
      <cc:License rdf:about="http://creativecommons.org/licenses/publicdomain/">
        <cc:permits rdf:resource="http://creativecommons.org/ns#Reproduction"/>
        <cc:permits rdf:resource="http://creativecommons.org/ns#Distribution"/>
        <cc:permits rdf:resource="http://creativecommons.org/ns#DerivativeWorks"/>
      </cc:License>
    </rdf:RDF>
  </metadata>
</svg>
