<?xml version="1.0" encoding="UTF-8"?>
<svg width="265px" height="142px" viewBox="0 0 265 142" version="1.1" xmlns="http://www.w3.org/2000/svg" xmlns:xlink="http://www.w3.org/1999/xlink">
    <!-- Generator: Sketch 43.2 (39069) - http://www.bohemiancoding.com/sketch -->
    <title>openclipart-butterfly_side2</title>
    <desc>Created with Sketch.</desc>
    <defs></defs>
    <g id="Page-1" stroke="none" stroke-width="1" fill="none" fill-rule="evenodd">
        <g id="openclipart-butterfly_side2" fill-rule="nonzero" fill="#000000">
            <path d="M116.0382,132.101333 C117.0664,140.582415 136.38066,137.148119 143.07456,138.808993 C167.03162,140.405073 172.61358,141.408119 192.96664,139.455881 C197.17378,139.455881 200.70782,138.645956 201.26962,133.93997 C191.459532,121.749007 170.5169,127.453095 144.91154,126.58437 C139.0031,126.585422 117.26886,126.914652 116.0382,132.101333" id="path31-2-2" stroke="#3F3F3F"></path>
            <path d="M195.4958,133.563407 C207.78968,128.961556 218.51582,119.011037 231.54216,116.594933 C238.462264,115.310201 243.97384,111.263833 250.89352,109.980153 C252.898828,109.608397 265.52258,106.420055 264.47954,105.040236 C263.271776,103.443209 259.01418,105.40465 258.062406,105.626222 C256.764648,105.927914 259.081151,107.63547 255.68631,106.985636 C254.19489,106.700184 252.979706,107.573978 251.646226,108.02658 C245.892652,109.976713 235.943386,111.894029 231.621766,115.953125 C229.415376,118.025904 224.708128,118.340303 221.916194,119.910717 C219.304142,121.378577 215.824904,123.031246 213.143104,124.240876 C209.035074,126.093923 196.553044,128.247695 195.496224,133.563755" id="path29-8-8" stroke="#000000" stroke-width="0.9243"></path>
            <path d="M189.1358,133.878963 C200.7958,130.721093 213.78292,120.282726 223.70876,113.455156 C229.080204,109.760736 234.82816,106.290256 240.00308,102.247674 C241.467364,101.10368 251.62492,91.1159259 252.121,93.0736326 C252.532778,94.7005319 248.499722,97.1000163 247.75274,97.7563719 C246.784483,98.6081089 246.911312,96.1446193 245.311348,99.0001867 C244.511345,100.42797 243.056198,101.420182 241.874298,102.507166 C239.841748,104.37841 236.030094,105.597401 233.560294,107.516926 C230.656106,109.773569 227.899788,112.382793 224.662866,114.056184 C212.454846,120.367295 200.942186,128.274065 189.677566,136.022006 C189.497069,135.307493 189.316572,134.59296 189.13491,133.878753" id="path35-4-5" stroke="#000000" stroke-width="0.83613"></path>
            <path d="M248.6866,19.9002963 C247.152992,11.7020578 243.349076,4.85881481 235.9825,1.39611852 C225.790812,-3.39401481 213.2826,5.87343111 204.97962,9.46203407 C195.62194,13.505037 186.61194,17.0534593 175.68334,17.0534593 C172.63478,17.0534593 170.196144,18.9513156 166.736304,18.9513156 C164.370384,18.9513156 161.37175,18.3369499 159.43142,19.4257849 C154.17382,22.3766501 149.082004,21.8940604 143.86108,25.9327508 C135.276352,32.5719345 139.436852,48.2551508 141.254116,58.7726175 C135.72346,49.8126279 134.955596,44.1655508 124.989476,39.7940545 C120.131072,37.6630027 115.135928,34.1004856 110.126156,34.1004856 C104.908836,34.1004856 103.052988,36.4587375 97.025616,33.6260163 C90.005448,30.3269881 90.713316,31.1506933 87.299268,35.998363 C85.883744,38.0079259 88.3301816,38.1672815 86.10009,39.7940756 C84.97808,40.6128581 81.90991,39.3277476 80.53509,39.7940756 C79.8461006,40.0272396 80.3123204,43.3327156 77.480912,43.5897881 C75.120292,43.8045237 72.451318,42.44348 70.496572,40.7430563 C66.201876,37.0091926 62.098298,43.9748711 61.147054,45.4876444 C54.965876,55.3196193 45.876694,53.7127052 33.069774,49.5883941 C23.054046,46.3631007 11.876134,34.8898163 3.052694,41.6919319 C-9.036606,51.0109185 18.391954,51.8014904 23.537194,53.07928 C30.196962,54.7342637 37.135934,59.2698489 40.216294,65.4490578 C43.035576,71.103603 40.411069,75.5865956 41.27693,80.5978281 C41.8851792,84.1180607 40.4415864,86.4990326 41.0498462,90.0192652 C41.5121334,92.6947556 43.7085382,94.6703437 44.2106602,97.5768207 C44.9208602,101.687037 51.1470882,104.472236 53.0790442,106.151096 C54.9802602,107.804923 59.0791742,113.742521 62.7382942,113.742521 C67.4340942,113.742521 74.8328942,115.09899 79.6739142,116.284321 C92.6536142,119.460809 105.908914,122.576499 118.776254,126.722479 C123.64547,128.290684 128.287952,128.991218 133.324754,130.789359 C138.386572,132.595073 141.714336,137.825511 147.260574,136.482927 C138.633764,131.694898 130.877214,125.655164 121.680654,123.401046 C113.417,121.377388 105.048194,119.43588 96.9137542,119.43588 C92.0070142,119.43588 80.2325342,114.451575 76.2903942,111.844455 C68.4420482,106.654092 76.3061882,106.150886 82.7266082,106.150886 C79.5498942,105.071791 69.2253882,100.17216 73.9948582,98.5594607 C68.1025302,96.77552 81.6460442,95.1490415 74.2160802,89.1040489 C79.1949002,89.1040489 84.9369202,91.7567141 89.3836202,91.0019052 C86.3443882,87.3135867 81.6255862,80.9844889 78.1412602,79.614557 C84.0057102,78.6179169 89.2214402,84.2506993 95.4924002,83.4102696 C91.3225722,79.9821793 94.897931,80.7304667 94.8365464,79.614557 C94.8853064,80.5103456 98.9256024,77.7167007 95.4361248,77.7167007 C93.8741088,77.7167007 92.7681048,74.3542459 91.4166048,72.0909763 C96.2081228,76.0498311 102.846585,76.0295304 107.788305,79.6146622 C107.568609,70.7055822 92.9832848,62.9322919 88.7242048,54.9760844 C94.7070568,60.1794904 99.5256048,62.688683 105.492345,66.3297733 C105.972196,65.755357 106.377667,65.19472 106.545974,64.5675007 C109.522242,69.1305393 114.07526,73.0600474 112.748352,65.3808662 C112.287475,62.7135803 112.19464,59.133287 111.33675,56.0610381 C115.368672,62.2670692 121.366682,69.8161047 124.99273,72.0228899 C128.039488,73.8774099 126.683642,73.2570277 126.191908,68.2271773 C126.011846,66.3808618 125.868619,64.4660707 125.30366,62.7030618 C127.796356,67.2512692 129.733824,72.6777729 133.068584,75.8186025 C132.77789,74.5595359 132.703425,73.2819566 132.41273,72.0228899 C134.996374,74.0866233 138.163548,82.2756055 138.418266,85.3077788 C140.674264,82.818887 139.244706,79.3550336 138.633626,75.8184973 C141.311504,80.1574914 144.241662,91.8024381 148.892412,81.5120662 C150.183174,88.9820025 152.999594,94.5466144 154.348762,102.354511 L157.950112,123.196955 C158.336504,125.433192 161.350274,142.071385 162.75647,140.277977 C164.216196,138.41378 160.12184,125.030333 159.64113,122.248185 C157.457742,109.611237 155.09903,97.3413847 151.403234,85.3081996 C149.510286,79.143927 146.522676,72.3378144 146.268912,66.3296366 C146.061735,61.4190662 146.912195,51.9687033 150.710312,49.2833255 C153.392642,51.3416944 154.285798,55.9951921 156.05992,58.772607 C157.950218,61.7310455 160.9179,65.8030796 163.258698,68.2280188 C163.252338,63.8586262 160.633502,60.9242751 159.441956,56.8743299 C158.540893,53.8128099 158.3368,50.4780188 157.802348,47.3850484 C168.801968,56.9480647 172.240608,66.5287521 174.501588,79.614841 C177.18784,76.6346292 176.306238,65.3306929 174.938171,60.6699373 C173.078719,54.3375788 171.026983,48.7703373 169.803955,41.6913744 C175.113813,49.7176351 184.149995,63.0187225 184.286735,72.0236262 C185.783455,66.1099047 185.616187,58.2464707 184.395395,51.1811818 C187.575925,55.0387433 191.776281,60.6617329 192.499837,65.6862188 C192.488283,65.6741225 192.472065,65.6644455 192.460935,65.6523492 L192.578044,66.330152 L193.772664,73.2437639 C196.296842,70.3867239 194.538588,67.9550527 192.790373,66.025115 C195.040223,63.0094557 192.844751,57.1375979 192.143433,53.0789224 C193.390735,56.1198261 194.994833,58.0108453 197.159247,60.6364779 C195.906857,56.9589935 196.677053,54.8521342 197.708391,53.0789224 C199.467037,54.9754113 200.160171,57.1937668 202.254519,60.0264039 C199.685715,60.7492154 201.857697,66.3566587 202.391821,69.4478409 L202.595648,60.4669194 C202.641334,60.5257179 202.677374,60.5770904 202.724247,60.6363727 C202.679409,60.4850744 202.651743,60.3481653 202.615014,60.1958046 L202.607594,59.9585699 C202.586076,59.9606736 202.562332,59.9564662 202.541344,59.9585699 C202.187008,58.3084247 202.230075,56.6088425 201.74679,54.976684 C203.91131,57.6022114 205.514242,59.4933359 206.762604,62.5342396 C208.06545,60.2958988 207.821427,56.7010899 208.805648,53.0788277 C212.45173,55.9906692 212.225632,62.1362188 212.950248,66.3300573 C215.76529,63.224044 212.9653,55.682161 212.187694,51.181287 C217.209656,54.1300484 220.30104,62.9420425 220.698222,68.2275981 L220.042379,64.4318855 C220.281854,65.8179107 220.658303,73.1251255 221.681987,73.921167 C224.335591,75.9849003 228.476163,70.8271447 230.301165,70.1254544 C229.052485,77.3828114 224.555541,86.862521 218.085725,90.4935136 C215.848807,91.7493196 212.280953,97.1314351 210.341153,99.5421744 C207.739913,102.775041 203.493977,105.067131 202.263423,108.963611 C201.560887,111.185754 194.940307,114.914989 192.799637,116.114416 C189.189277,118.139125 185.410695,120.738988 182.032157,123.197481 C178.841769,125.519549 175.548879,128.344192 172.398877,130.517739 C177.505745,128.054197 185.348897,125.84373 190.663737,123.502413 C213.144217,113.602173 229.348437,93.7960129 239.869997,72.0226796 C244.463401,62.5164633 252.058937,37.9353166 248.684957,19.8992129 L248.6866,19.9002963 Z M172.40052,130.513037 C170.954786,131.210446 169.724868,131.941241 168.833408,132.681956 C169.99538,132.107907 171.18841,131.349364 172.40052,130.513037 Z" id="path9-1"></path>
        </g>
    </g>
</svg>