<?xml version="1.0" encoding="UTF-8"?>
<svg width="214px" height="186px" viewBox="0 0 214 186" version="1.1" xmlns="http://www.w3.org/2000/svg" xmlns:xlink="http://www.w3.org/1999/xlink">
    <!-- Generator: Sketch 43.2 (39069) - http://www.bohemiancoding.com/sketch -->
    <title>openclipart-003</title>
    <desc>Created with Sketch.</desc>
    <defs></defs>
    <g id="Page-1" stroke="none" stroke-width="1" fill="none" fill-rule="evenodd">
        <g id="openclipart-003" transform="translate(1.000000, 2.000000)">
            <path d="M42.8249238,25.555466 C-41.0467103,73.41665 14.2141612,130.390957 77.9688891,122.49937 C156.385795,131.589446 189.608366,65.3038036 128.211503,29.8101007 C105.321046,19.1066751 88.6982136,20.4157935 42.8249238,25.555466 L42.8249238,25.555466 Z" id="path3964" stroke="#000000" stroke-width="1.5871" fill="#000000" fill-rule="nonzero"></path>
            <polygon id="path3966" stroke="#000000" stroke-width="1.5772" fill="#000000" fill-rule="nonzero" points="23.5361568 41.960932 33.6872157 0.425002519 52.9736732 33.3497909"></polygon>
            <polygon id="path3968" stroke="#000000" stroke-width="1.5772" fill="#000000" fill-rule="nonzero" points="113.879564 37.4020655 133.673621 1.4381864 145.347015 61.2105037"></polygon>
            <path d="M78.3522439,122.49937 C78.3522439,122.49937 75.3069724,170.116247 68.7087845,174.670504 C62.1109193,179.22937 102.206632,187.840512 111.850091,178.722778 C129.548166,163.668839 97.8317649,132.608622 94.0859697,120.978672 C82.5081828,84.7174761 78.3522439,122.498264 78.3522439,122.498264 L78.3522439,122.49937 Z" id="path3970" stroke="#000000" stroke-width="1.5772" fill="#000000" fill-rule="nonzero"></path>
            <path d="M111.251503,167.806851 C111.251503,167.806851 138.797185,165.59269 148.696523,145.664773 C158.595861,125.736857 152.570165,109.794469 154.722127,103.595055 C156.87418,97.3951812 167.2038,72.5961463 192.167146,86.7673528 C217.130492,100.938098 214.978623,121.751698 203.787887,127.065612 C192.597151,132.379526 172.974911,131.697771 185.711076,127.065612 C198.006614,122.593359 213.778675,114.739617 196.04088,99.1666398 C182.385586,87.1780653 177.094824,87.0692797 166.342867,96.5096826 C153.357752,107.910998 173.0562,136.265856 148.266057,158.508423 C125.372366,179.048675 110.390571,172.23665 110.390571,172.23665 L111.251503,167.806851 Z" id="path3982" stroke="#000000" stroke-width="1.3581" fill="#000000" fill-rule="nonzero"></path>
            <path d="M101.582031,44.0906861 C106.157048,39.6334993 116.125636,23.9926871 133.200139,44.6286487 C128.308306,49.8979162 124.17248,52.6587002 118.143919,53.9528744 C118.647878,52.5471797 107.919703,53.86731 101.582031,44.0906498 L101.582031,44.0906861 Z" id="path4057" stroke="#FFFFFF" stroke-width="0.57834199" fill="#FFFFFF" fill-rule="nonzero"></path>
            <path d="M125.43249,43.4832309 C125.43249,48.6301296 121.687252,52.8022908 117.067589,52.8022908 C112.44767,52.8022908 108.702688,48.629845 108.702688,43.4832309 C108.702688,38.3363322 112.447926,34.164171 117.067589,34.164171 C121.687508,34.164171 125.43249,38.3366168 125.43249,43.4832309 Z" id="path4059" stroke="#000000" stroke-width="0.546698075" fill="#000000" fill-rule="nonzero"></path>
            <path d="M29.802249,43.3762025 C34.3772659,38.9190157 44.3458533,23.2782035 61.4203568,43.9141651 C56.528524,49.1834326 52.3926979,51.9442165 46.3641364,53.2383908 C46.8680953,51.8326961 36.139921,53.1528264 29.802249,43.3761662 L29.802249,43.3762025 Z" id="path4025" stroke="#FFFFFF" stroke-width="0.57834199" fill="#FFFFFF" fill-rule="nonzero"></path>
            <path d="M53.6527075,42.7687473 C53.6527075,47.9156459 49.9074697,52.0878071 45.2878068,52.0878071 C40.6678883,52.0878071 36.9229061,47.9153614 36.9229061,42.7687473 C36.9229061,37.6218486 40.6681438,33.4496874 45.2878068,33.4496874 C49.9077252,33.4496874 53.6527075,37.6221332 53.6527075,42.7687473 Z" id="path4027" stroke="#000000" stroke-width="0.546698075" fill="#000000" fill-rule="nonzero"></path>
            <path d="M140.42945,58.0234756 C140.42945,88.3006449 113.471588,112.846035 80.2176794,112.846035 C46.9637702,112.846035 20.0059085,88.3016802 20.0059085,58.0234756 C20.0059085,57.4807377 20.0147724,56.9379993 20.0324648,56.3954684 L80.2176437,58.0234756 L140.42945,58.0234756 Z" id="path4021" stroke="#000000" stroke-width="1.95395813" fill="#FFFFFF" fill-rule="nonzero"></path>
            <polyline id="path4023" stroke="#000000" stroke-width="2.14683116" points="23.0866033 75.989713 24.9392729 55.7918148 36.6728474 94.7442353 40.3781868 57.9548721 53.3468744 106.284554 58.9048835 57.2325152 68.168232 111.333025 74.3437971 56.5114963 84.8422587 111.333025 91.6353809 57.953534 102.133842 108.447611 112.014747 57.2325152 118.190313 99.0703496 129.306331 57.953534 131.776557 86.0866555 131.776557 83.2012414 133.01167 84.6439485"></polyline>
        </g>
    </g>
</svg>