<?xml version="1.0"?>
<svg xmlns:rdf="http://www.w3.org/1999/02/22-rdf-syntax-ns#" xmlns="http://www.w3.org/2000/svg" xmlns:cc="http://creativecommons.org/ns#" xmlns:dc="http://purl.org/dc/elements/1.1/" xmlns:svg="http://www.w3.org/2000/svg" id="svg2" viewBox="0 0 500 500" version="1.1">
  <g id="layer1" transform="translate(0 -552.36)">
    <path id="path3964" stroke="#000" stroke-width="1.5871px" d="m123.72 660.8c-181.59 103.83-61.945 227.43 76.09 210.31 169.78 19.72 241.71-124.08 108.78-201.08-49.56-23.22-85.55-20.38-184.87-9.23z"/>
    <path id="path3966" stroke="#000" stroke-width="1.5772px" d="m81.958 696.39 21.978-90.108 41.757 71.427z"/>
    <path id="path3968" stroke="#000" stroke-width="1.5772px" d="m277.56 686.5 42.856-78.02 25.274 129.67z"/>
    <path id="path3970" stroke="#000" stroke-width="1.5772px" d="m200.64 871.11s-6.5933 103.3-20.879 113.18c-14.285 9.89 72.526 28.571 93.405 8.791 38.318-32.658-30.351-100.04-38.461-125.27-25.067-78.665-34.065 3.2966-34.065 3.2966z"/>
    <path id="path3982" stroke="#000" stroke-width="1.3581px" d="m271.87 969.4s59.639-4.8034 81.072-48.035 8.3868-77.817 13.046-91.266c4.6594-13.45 27.024-67.249 81.072-36.506 54.048 30.742 49.389 75.895 25.16 87.423s-66.713 10.049-39.138 0c26.621-9.7021 60.769-26.74 22.365-60.524-29.565-26.008-41.02-26.244-64.299-5.764-28.114 24.734 14.535 86.247-39.138 134.5-49.567 44.56-82.004 29.782-82.004 29.782z"/>
    <g id="g4053" transform="matrix(.98131 0 0 .78754 -273.34 -205.08)">
      <g id="g4055" transform="translate(149.76 -8.8676)">
        <path id="path4057" d="m384.5 1159.4c10.094-12.278 32.088-55.363 69.76 1.4819-10.793 14.515-19.918 22.12-33.219 25.685 1.1119-3.8722-22.558-0.2357-36.541-27.167z" stroke="#fff" stroke-width=".65003px" fill="#fff"/>
        <path id="path4059" d="m255.69 1303.2c0 18.085-14.661 32.745-32.745 32.745-18.085 0-32.745-14.661-32.745-32.745 0-18.085 14.661-32.745 32.745-32.745 18.085 0 32.745 14.661 32.745 32.745z" stroke="#000" stroke-width=".9" transform="matrix(.56362 0 0 .78396 293.01 136.07)"/>
      </g>
    </g>
    <g id="g4041" transform="matrix(.98131 0 0 .78754 -428.75 -206.63)">
      <g id="g4049" transform="translate(149.76 -8.8676)">
        <path id="path4025" d="m384.5 1159.4c10.094-12.278 32.088-55.363 69.76 1.4819-10.793 14.515-19.918 22.12-33.219 25.685 1.1119-3.8722-22.558-0.2357-36.541-27.167z" stroke="#fff" stroke-width=".65003px" fill="#fff"/>
        <path id="path4027" d="m255.69 1303.2c0 18.085-14.661 32.745-32.745 32.745-18.085 0-32.745-14.661-32.745-32.745 0-18.085 14.661-32.745 32.745-32.745 18.085 0 32.745 14.661 32.745 32.745z" stroke="#000" stroke-width=".9" transform="matrix(.56362 0 0 .78396 293.01 136.07)"/>
      </g>
    </g>
    <g id="g4037" stroke="#000" transform="matrix(2.0046 0 0 2.902 -526.79 -2729.6)">
      <path id="path4021" d="m161.64 1171.5c0 29.243-30.413 52.95-67.929 52.95s-67.929-23.706-67.929-52.95c0-0.5242 0.01-1.0484 0.02996-1.5724l67.899 1.5724z" stroke-width=".9" fill="#fff" transform="matrix(.95736 0 0 .77399 275.18 285.84)"/>
      <path id="path4023" d="m303.19 1206 2.001-15.099 12.673 29.119 4.002-27.502 14.007 36.129 6.003-36.669 10.005 40.443 6.67-40.982 11.339 40.982 7.337-39.904 11.339 37.747 10.672-38.286 6.67 31.276 12.006-30.737 2.668 21.031v-2.157l1.334 1.0785" stroke-width=".8608px" fill="none"/>
    </g>
  </g>
  <metadata>
    <rdf:RDF>
      <cc:Work>
        <dc:format>image/svg+xml</dc:format>
        <dc:type rdf:resource="http://purl.org/dc/dcmitype/StillImage"/>
        <cc:license rdf:resource="http://creativecommons.org/licenses/publicdomain/"/>
        <dc:publisher>
          <cc:Agent rdf:about="http://openclipart.org/">
            <dc:title>Openclipart</dc:title>
          </cc:Agent>
        </dc:publisher>
        <dc:title>cat smile</dc:title>
        <dc:date>2011-04-24T03:47:01</dc:date>
        <dc:description>ak student, animal, black cat, cartoon, cat, cat smile, clip art, clipart, smile, </dc:description>
        <dc:source>http://openclipart.org/detail/133795/cat-smile-by-chikiyo</dc:source>
        <dc:creator>
          <cc:Agent>
            <dc:title>chikiyo</dc:title>
          </cc:Agent>
        </dc:creator>
        <dc:subject>
          <rdf:Bag>
            <rdf:li>ak student</rdf:li>
            <rdf:li>animal</rdf:li>
            <rdf:li>black cat</rdf:li>
            <rdf:li>cartoon</rdf:li>
            <rdf:li>cat</rdf:li>
            <rdf:li>cat smile</rdf:li>
            <rdf:li>clip art</rdf:li>
            <rdf:li>clipart</rdf:li>
            <rdf:li>smile</rdf:li>
          </rdf:Bag>
        </dc:subject>
      </cc:Work>
      <cc:License rdf:about="http://creativecommons.org/licenses/publicdomain/">
        <cc:permits rdf:resource="http://creativecommons.org/ns#Reproduction"/>
        <cc:permits rdf:resource="http://creativecommons.org/ns#Distribution"/>
        <cc:permits rdf:resource="http://creativecommons.org/ns#DerivativeWorks"/>
      </cc:License>
    </rdf:RDF>
  </metadata>
</svg>
