<?xml version="1.0"?>
<svg xmlns:rdf="http://www.w3.org/1999/02/22-rdf-syntax-ns#" xmlns="http://www.w3.org/2000/svg" xmlns:cc="http://creativecommons.org/ns#" xmlns:dc="http://purl.org/dc/elements/1.1/" xmlns:svg="http://www.w3.org/2000/svg" id="svg3451" viewBox="0 0 744.09 1052.4" version="1.1">
  <g id="layer1">
    <g id="g3827" stroke="#000" stroke-width=".25" transform="matrix(30.018 0 0 30.018 -16808 -13320)">
      <path id="path3904" d="m565.86 455.87c0.73757 0.81654 1.6902 1.3927 2.6319 1.9416" fill="none"/>
      <path id="path3906" d="m572.67 456.77c1.6488 0.36877 0.82881 2.9595-0.38222 3.3572-1.1776 0.0435-2.9203 0.26475-3.6041-0.90243-0.59252-1.4635 0.49911-2.5559 1.9331-2.4871 1.8468-0.36172 3.6938 0.20555 5.5481 0.0755" fill="none"/>
      <path id="path3908" d="m573.62 457.46c0.63268-0.0337 1.2659 0.0409 1.8984 0" fill="none"/>
      <path id="path3910" d="m576.99 456.6c-1.4644 0.0611-2.145 2.1954-0.86231 3.0173 1.2306 0.45841 3.4532 1.0312 4.0238-0.5998 0.68631-1.2322 0.0703-2.5931-1.4096-2.3846-0.57527-0.10971-1.1764-0.18207-1.752-0.0329z" fill="none"/>
      <path id="path3912" d="m572.67 456.47c-1.3011-0.56872-3.2871-0.94682-4.224 0.3878 0.51356-0.0613 1.9695-0.33922 0.7744 0.38802-0.55952 1.2744 1.0237-0.95683 0.60536 0.2962 0.63562-0.59399 0.29783 1.2994 1.2386 0.52615 0.45622-1.2367 1.4144 0.83011 2.1572-0.48701 0.31125-0.45535-0.10754-0.96931-0.55161-1.1112z" fill-rule="evenodd"/>
      <path id="path3914" d="m577.59 458.11c0.44935-0.19378 0.68232-1.2988 0.89524-0.18746 1.1739 0.0968 1.7459-2.1597 0.0252-1.9465-1.0138 0.35332-3.044 0.81523-2.9614 2.0716 0.67472 0.56089 1.2371-1.0975 1.6289 0.14655l0.17309 0.0341 0.23897-0.11823z" fill-rule="evenodd"/>
      <path id="path3916" d="m571.64 458.28c-0.66632 0.022-0.62862 0.4267-0.71752 0.68375-0.26866 0.30186 1.5302-0.35646 1.7618-0.83395 0.49672-0.64457-0.88527 0.23139-1.0443 0.1502z" fill-rule="evenodd"/>
      <path id="path3918" d="m576.47 458.15c0.25258 0.91381 2.6327 0.21708 1.3802 1.2071-0.75745 0.16626-2.2863-0.59753-2.1269-1.2666 0.25049-0.0811 0.50126 0.0186 0.74669 0.0595z" fill-rule="evenodd"/>
      <path id="path3920" d="m572.11 461c-0.94765 0.40112-1.6445 2.4151-2.0655 2.3745-0.13533-1.5386 1.5172-2.5354 2.64-3.2111 1.6096-0.12002-0.41519 0.33799-0.5745 0.83659z" fill-rule="evenodd"/>
      <path id="path3922" d="m572.8 461.52c1.1147 0.43167 2.6876 0.009 3.5388-0.53756-0.26947-0.32751-1.4765-0.46881-0.45168-0.67183 0.55073 0.22843 1.6151 1.2318 0.46894 1.4011-0.13783 1.5292-2.4903 1.9255-2.8987 0.38131-0.22999-0.16654-0.61411-0.23646-0.6574-0.57299z" fill-rule="evenodd"/>
      <path id="path3924" d="m570.86 463.76c1.0787-0.15795 2.266-0.23711 3.2813 0.15377 0.47254 0.0174 2.6785-0.37695 1.4136 0.34947-1.4637 0.54241-2.9264-0.32361-4.399-0.34721l-0.153-0.0623-0.14302-0.0937z" fill-rule="evenodd"/>
      <path id="path3926" d="m575.39 464.97c-0.75257 0.40501-2.5853-0.49784-2.6832 0.42477 0.56622 0.56869 3.0753 0.88815 2.6832-0.42477z" fill-rule="evenodd"/>
      <path id="path3928" d="m576.94 447.8c1.0708 0.933 2.1671 1.9573 2.505 3.3947 0.80946 1.4691 0.7982 3.1994 0.39055 4.786-0.0491 0.23493-0.0967 0.47029-0.13415 0.70742" fill="none"/>
      <path id="path3930" d="m579.58 457.29c-0.19417 0.60518-0.0645 1.2873-0.38832 1.8553" fill="none"/>
      <path id="path3932" d="m579.92 459.71c0.30018 1.7553-0.37899 3.5174-1.5079 4.8482-0.94679 1.3127-1.8812 2.6793-3.3269 3.4876-1.4351 0.78973-3.0693-0.002-4.3923-0.65814-1.3922-0.58243-2.5502-1.7281-3.5017-2.8937-0.0691-0.67674-0.61652-1.1416-0.90538-1.7205" fill="none"/>
      <path id="path3934" d="m566.03 462.73c0.12972 0.89965 0.0779 1.8126 0.0863 2.7182" fill="none"/>
      <path id="path3936" d="m577.07 447.93c-1.1719 0.80833-2.3669-0.66204-3.6294-0.32691-1.421 0.2258-2.8784-1.4402-4.1006-0.28183-0.88231 1.1338-2.2323 1.8553-2.592 3.3426-0.5082 1.2622-0.56959 2.5987-0.34256 3.924-0.2938 1.3296-0.85735 2.7328-0.40416 4.1092-0.30991 1.371 0.65921 2.6062 0.68289 3.9393-1.2428 0.55169-1.7864-1.7819-1.6153-2.8188-0.38964-1.0957-1.0241-2.0805-0.50973-3.3076 0.0709-1.4822-1.9295-0.84089-1.3314 0.42728 0.006 1.0046 1.0812 2.617 1.1094 3.0209-0.37054-1.4192-2.1338-2.1037-2.1721-3.6394-0.64265-0.93059 0.7026-1.1614 0.83723-1.4102-0.30068-1.5552 0.3427-3.0742 0.98588-4.4498 0.36044-1.5147 1.6614-2.3753 2.7242-3.3661 0.48757-0.93571 0.72688-1.7425 1.9211-1.9559 1.5509-0.77162 3.2407 0.0448 4.8493 0.12649 1.252 0.0139 2.6266 1.1088 3.4417 1.4617-0.10959-1.7207 0.93337 0.74069 1.0688 1.2894 0.6132 1.2731 2.3594 1.5763 2.6931 3.1044 0.77279 1.086 0.23325 2.5353 0.96773 3.5902 0.0583 1.1684-0.73323 2.6109-1.0646 3.8648-0.0937 1.2536-0.44711 2.4364-0.69657 3.6548 0.13102 0.5933-0.8177 1.6404-0.61739 0.46072 0.66193-1.3967 0.76223-2.8527 0.98005-4.3334 0.50759-1.4646-0.81937-2.6534-0.14226-4.1088 0.33474-1.8639-0.73165-3.5551-1.7816-4.9931-0.32171-0.49901-0.61278-1.1915-1.2616-1.324z" fill-rule="evenodd"/>
      <path id="path3938" d="m565.38 461.99c-0.83315 1.4499 0.26307 3.0009 1.1434 4.1277 1.0437 1.9782 2.4031 3.7913 4.1515 5.2026 0.41536 0.31808 0.58147 0.84676 0.96126 1.1974" fill="none"/>
      <path id="path3940" d="m569.48 470.8c-1.04-0.65319-2.054 0.53621-1.9416 1.5533" fill="none"/>
      <path id="path3942" d="m565.12 462.12c-1.2166 0.60899-1.3634 1.8654-0.65961 2.9273 0.621 1.4878 1.0651 3.0162 1.3743 4.5911 0.33385 0.95428 0.75627 1.8796 1.1838 2.7935" fill="none"/>
      <path id="path3944" d="m564.3 462.77c-1.3481 0.41273-1.8568 1.9742-3.1608 2.4946-0.52675 0.29776-1.0865 0.58996-1.4558 1.0866" fill="none"/>
      <path id="path3946" d="m576.47 467.21c-0.33192 1.5194-1.413 2.6795-2.0779 4.0326-0.18861 0.4465-0.34352 0.90603-0.51084 1.3607" fill="none"/>
      <path id="path3948" d="m577.29 466.52c0.92591 1.5773 0.2231 3.3194-0.38358 4.8282l-0.0479 0.26308" fill="none"/>
      <path id="path3950" d="m577.46 469.2c-0.45291 1.3803-1.7926 2.1427-2.5456 3.3223" fill="none"/>
      <path id="path3952" d="m577.76 465.7c1.1435 1.0457 2.8998 0.95053 4.0213 1.994 0.81393 0.54464 1.8001 0.71897 2.6664 1.1557" fill="none"/>
      <path id="path3954" d="m572.03 467.86c1.1452-0.88747 2.8956 0.0163 3.889-1.1815 0.49547-0.44299 1.6669-1.928 1.9568-1.3851-0.682 1.4206-1.5225 2.5179-2.3784 4.0198-0.70118 1.0374-1.2565 3.7325-2.1475 3.3549-0.98522-0.25908-1.9772 0.0655-2.2839-1.0966-0.88407-0.81918-1.8943-1.7996-2.6837-2.6999-0.38095-0.47226-0.7961-1.2556 0.18748-0.5192 0.63454 0.54724 2.2048 2.5351 2.6758 1.0534-0.23624-1.4402-1.9121-1.9684-2.5227-3.2292-0.8344-1.46 0.96183 0.85599 1.5749 0.9563 0.54404 0.31371 1.1299 0.55156 1.7322 0.72717z" fill-rule="evenodd"/>
      <path id="path3956" d="m578.82 450.18c0.24589 1.6323 0.44385 3.4246-0.42625 4.906 0.51904 0.42448 2.2276 1.0291 1.9095-0.31066-0.32809-1.2322 0.15123-2.5222-0.53619-3.6772-0.19784-0.39979-0.50825-0.7777-0.94707-0.91813z" fill-rule="evenodd"/>
      <path id="path3958" d="m576.68 461.87c0.62158 0.7612 1.0842 2.4546-0.49787 2.2265-1.3239 0.44626-0.57029 1.8919-0.32253 2.693 0.68699-0.78689 1.4625-1.5956 1.4475-2.7259 0.56315-1.2842 1.1408 1.4461 1.3563 0.0743 0.96534-0.89496 1.8446-3.6931 1.4809-4.5654-1.2594 0.18273-1.6114 3.8287-3.1418 2.3781-0.11401-0.0397-0.18327-0.2682-0.32241-0.0806z" fill-rule="evenodd"/>
    </g>
  </g>
  <metadata>
    <rdf:RDF>
      <cc:Work>
        <dc:format>image/svg+xml</dc:format>
        <dc:type rdf:resource="http://purl.org/dc/dcmitype/StillImage"/>
        <cc:license rdf:resource="http://creativecommons.org/licenses/publicdomain/"/>
        <dc:publisher>
          <cc:Agent rdf:about="http://openclipart.org/">
            <dc:title>Openclipart</dc:title>
          </cc:Agent>
        </dc:publisher>
        <dc:title>Donald Knuth</dc:title>
        <dc:date>2011-05-08T19:23:38</dc:date>
        <dc:description>"An algorithm must be seen to be believed"</dc:description>
        <dc:source>http://openclipart.org/detail/137407/donald-knuth-by-fs</dc:source>
        <dc:creator>
          <cc:Agent>
            <dc:title>FS</dc:title>
          </cc:Agent>
        </dc:creator>
        <dc:subject>
          <rdf:Bag>
            <rdf:li>clip art</rdf:li>
            <rdf:li>clipart</rdf:li>
            <rdf:li>computer-science</rdf:li>
            <rdf:li>famous-people</rdf:li>
            <rdf:li>math</rdf:li>
            <rdf:li>typography</rdf:li>
          </rdf:Bag>
        </dc:subject>
      </cc:Work>
      <cc:License rdf:about="http://creativecommons.org/licenses/publicdomain/">
        <cc:permits rdf:resource="http://creativecommons.org/ns#Reproduction"/>
        <cc:permits rdf:resource="http://creativecommons.org/ns#Distribution"/>
        <cc:permits rdf:resource="http://creativecommons.org/ns#DerivativeWorks"/>
      </cc:License>
    </rdf:RDF>
  </metadata>
</svg>
