<?xml version="1.0"?>
<svg xmlns:rdf="http://www.w3.org/1999/02/22-rdf-syntax-ns#" xmlns="http://www.w3.org/2000/svg" xmlns:cc="http://creativecommons.org/ns#" xmlns:dc="http://purl.org/dc/elements/1.1/" xmlns:svg="http://www.w3.org/2000/svg" id="svg4003" viewBox="0 0 409.91 193.64" version="1.1">
  <title id="title4065">123</title>
  <g id="layer1" stroke-linejoin="round" stroke="#000" stroke-linecap="round" transform="translate(-200.76 -612.69)">
    <path id="path3894" stroke-width="2" fill="#fff" d="m430.06 750.68c-4.297 6.4618-13.318 26.901-24.859 24.258l0.52243 31.287-50.021 0.45689 0.1601-30.762c-11.862-2.8788-20.524-55.675-11.845-66.95 6.3915-6.4967 46.668-2.5934 49.378-20.227 2.3557-13.326 1.0875-43.866 2.538-52.747-0.0893-20.025 17.745-20.334 19.227 1.4014 1.7685 7.2188-1.5171 64.225-0.13731 84.564 0.38261 5.64 4.3084 5.9306 5.1674 6.2089l25.18-17.896c17.046-11.041 24.199 7.6665 9.8698 18.676z"/>
    <path id="path3896" fill="none" d="m383.47 773.27c-2.7874-19.896 2.6991-30.376 16.026-38.966"/>
    <path id="path3898" stroke-width="2" fill="#fff" d="m394.52 684.16c1.8802-8.4355-15.811-16.425-21.983 0.29691l-1.0152 49.607c0.66072 7.3247 18.603 9.159 18.986-2.0831 2.7542-16.239 4.0363-33.007 4.0124-47.82z"/>
    <path id="path3902" stroke-width="2" fill="#fff" d="m356.28 701.23c-2.6002-12.045-23.635-13.058-18.216 7.1155 3.2863 10.551 6.4857 21.698 12.115 30.151 3.315 5.4808 13.658 2.2304 13.71-2.8971l-4.2599-13.567z"/>
    <path id="path3904" stroke-width="2" fill="#fff" d="m372.13 688.04c-0.59249-7.9133-19.525-9.3442-19.934 4.6162l5.2865 22.434 5.0276 21.336c2.2922 7.2144 13.027 8.1612 13.983-0.66368l-1.9054-22.789z"/>
    <path id="path3938" stroke-width="2" fill="#fff" d="m577.83 749.68c-4.2969 6.4618-13.318 26.901-24.858 24.258l0.5224 31.287-50.021 0.45689 0.1601-30.762c-11.862-2.8788-20.524-55.675-11.845-66.95 4.2752-4.3455 31.522 5.266 29.948-8.6352-2.6541-20.896-4.2809-54.689-4.3482-64.093-2.6467-21.235 16.816-20.486 17.286-6.2562 3.8229 14.667 0.5767 68.667 6.9901 68.722 5.6686 5.1166 8.156-50.782 11.351-58.411 3.3084-17.293 18.623-15.964 17.173 2.1664 1.2703 7.2188-8.7748 59.159-7.395 79.498 0.3826 5.64 4.3084 5.9306 5.1675 6.2089l25.18-17.896c17.046-11.041 24.199 7.6665 9.8698 18.676z"/>
    <path id="path3940" fill="none" d="m531.23 772.28c-2.7874-19.896 0.70611-33.365 14.033-41.955"/>
    <path id="path3944" stroke-width="2" fill="#fff" d="m504.04 700.24c-2.6002-12.045-23.635-13.058-18.216 7.1155 3.2863 10.551 4.9705 23.213 10.599 31.666 3.315 5.4808 15.173 0.71518 15.226-4.4123l-4.2599-13.567z"/>
    <path id="path3946" stroke-width="2" fill="#fff" d="m520.39 683.22c-1.0204-7.5825-20.792-9.1681-20.432 4.9812l5.2865 24.209 4.0175 21.003c-0.73205 11.908 17.089 12.668 15.499-1.7263l-1.4003-20.045z"/>
    <path id="path3956" stroke-width="2" fill="#fff" d="m292.32 747.56c-2.5443 10.274-9.5386 29.22-21.335 26.019l0.52243 31.287-50.021 0.45689 0.1601-30.762c-11.862-2.8788-20.524-55.675-11.845-66.95 6.3915-6.4967 46.668-2.5934 49.378-20.227 2.3557-13.326-0.27098-45.458 1.1795-54.339-0.0893-20.025 17.745-20.334 19.227 1.4014 1.7685 7.2188-0.15866 65.817 1.2212 86.157 6.4496 8.1691 6.9436 16.535 11.514 26.958z"/>
    <path id="path3958" fill="none" d="m248.54 770.51c-2.7874-19.896 1.8736-32.188 15.201-40.777"/>
    <path id="path3960" stroke-width="2" fill="#fff" d="m261 683.51c1.8802-9.6567-15.811-20.502-21.983 0.29691l-1.0152 49.607c0.66072 7.3247 15.067 5.1184 16.966-1.073 2.7542-16.239 6.0566-34.017 6.0327-48.831z"/>
    <path id="path3962" stroke-width="2" fill="#fff" d="m220.64 698.47c-1.4853-10.124-22.886-10.976-18.216 5.9808 3.5583 12.736 3.8336 21.751 11.61 31.566 3.315 4.6068 14.163 1.2891 14.216-3.0207l-2.146-11.404z"/>
    <path id="path3964" stroke-width="2" fill="#fff" d="m237.9 686.68c-0.66184-8.356-19.723-10.611-19.934 4.6162l5.2865 22.434 5.0276 21.336c2.2922 5.9157 13.027 4.3465 13.983-0.66368l-1.9054-22.789z"/>
    <path id="path3968" stroke-width="2" fill="#fff" d="m291.44 749.14c4.207-9.5924-0.78898-18.739-2.7346-39.725-0.88998-9.5993 11.253-20.05 7.838-29.143-17.563-11.198-25.999 13.958-28.067 25.241l-5.4528 23.827"/>
  </g>
  <metadata>
    <rdf:RDF>
      <cc:Work>
        <dc:format>image/svg+xml</dc:format>
        <dc:type rdf:resource="http://purl.org/dc/dcmitype/StillImage"/>
        <cc:license rdf:resource="http://creativecommons.org/licenses/publicdomain/"/>
        <dc:publisher>
          <cc:Agent rdf:about="http://openclipart.org/">
            <dc:title>Openclipart</dc:title>
          </cc:Agent>
        </dc:publisher>
        <dc:title>one two three / un deux trois</dc:title>
        <dc:date>2011-03-15T02:31:45</dc:date>
        <dc:description>clip art, clipart, count, finger, first, hand, line art, one, second, sign, third, three, two, </dc:description>
        <dc:source>http://openclipart.org/detail/127603/one-two-three--un-deux-trois-by-lmproulx</dc:source>
        <dc:creator>
          <cc:Agent>
            <dc:title>lmproulx</dc:title>
          </cc:Agent>
        </dc:creator>
        <dc:subject>
          <rdf:Bag>
            <rdf:li>clip art</rdf:li>
            <rdf:li>clipart</rdf:li>
            <rdf:li>count</rdf:li>
            <rdf:li>finger</rdf:li>
            <rdf:li>first</rdf:li>
            <rdf:li>hand</rdf:li>
            <rdf:li>line art</rdf:li>
            <rdf:li>one</rdf:li>
            <rdf:li>second</rdf:li>
            <rdf:li>sign</rdf:li>
            <rdf:li>third</rdf:li>
            <rdf:li>three</rdf:li>
            <rdf:li>two</rdf:li>
          </rdf:Bag>
        </dc:subject>
      </cc:Work>
      <cc:License rdf:about="http://creativecommons.org/licenses/publicdomain/">
        <cc:permits rdf:resource="http://creativecommons.org/ns#Reproduction"/>
        <cc:permits rdf:resource="http://creativecommons.org/ns#Distribution"/>
        <cc:permits rdf:resource="http://creativecommons.org/ns#DerivativeWorks"/>
      </cc:License>
    </rdf:RDF>
  </metadata>
</svg>
