<?xml version="1.0" encoding="utf-8"?>
<!-- Generator: Adobe Illustrator 15.1.0, SVG Export Plug-In . SVG Version: 6.00 Build 0)  -->
<!DOCTYPE svg PUBLIC "-//W3C//DTD SVG 1.1//EN" "http://www.w3.org/Graphics/SVG/1.1/DTD/svg11.dtd">
<svg version="1.1" id="Layer_1" xmlns="http://www.w3.org/2000/svg" xmlns:xlink="http://www.w3.org/1999/xlink" x="0px" y="0px"
	 width="365px" height="185px" viewBox="-2.5 -2.5 365 185" enable-background="new -2.5 -2.5 365 185" xml:space="preserve">
<g>
	<path fill="#FFFFFF" d="M299.753,60.587c-4.108,0-8.123,0.411-12.001,1.188C275.802,25.9,241.723,0,201.518,0
		c-33.761,0-63.196,18.27-78.847,45.363c-0.919-0.036-1.84-0.07-2.769-0.07c-23.494,0-44.202,11.816-56.409,29.777
		c-3.263-0.617-6.627-0.953-10.071-0.953C23.917,74.117,0,97.819,0,127.058C0,156.296,23.917,180,53.421,180h66.435
		c0.015,0,0.03,0,0.045,0c0.015,0,0.031,0,0.045,0h81.525c0.016,0,0.031,0,0.045,0c0.017,0,0.031,0,0.047,0h98.145
		c0.018,0,0.029,0,0.046,0C333.027,180,360,153.268,360,120.292C360,87.318,333.027,60.587,299.753,60.587z"/>
	<path fill="#231F20" d="M299.753,182.5H53.421C22.586,182.5-2.5,157.628-2.5,127.058s25.086-55.441,55.922-55.441
		c2.96,0,5.957,0.241,8.931,0.716c13.225-18.527,34.616-29.541,57.549-29.541c0.458,0,0.914,0.008,1.369,0.02
		C138.056,14.823,168.662-2.5,201.518-2.5c39.618,0,74.665,24.595,87.896,61.431c3.41-0.561,6.878-0.844,10.34-0.844
		c34.599,0,62.747,27.905,62.747,62.206C362.5,154.593,334.352,182.5,299.753,182.5z M53.422,76.617
		C25.343,76.617,2.5,99.245,2.5,127.058S25.343,177.5,53.421,177.5h246.332c31.842,0,57.747-25.663,57.747-57.207
		c0-31.543-25.905-57.206-57.747-57.206c-3.863,0-7.736,0.383-11.51,1.139l-2.165,0.434l-0.698-2.095
		C273.413,26.638,239.711,2.5,201.518,2.5c-31.581,0-60.963,16.903-76.682,44.113l-0.754,1.306l-1.507-0.059
		c-0.887-0.034-1.776-0.068-2.672-0.068c-21.82,0-42.135,10.722-54.341,28.682l-0.921,1.355l-1.611-0.304
		C59.837,76.923,56.604,76.617,53.422,76.617z"/>
</g>
</svg>
