<?xml version="1.0"?>
<svg xmlns:rdf="http://www.w3.org/1999/02/22-rdf-syntax-ns#" xmlns="http://www.w3.org/2000/svg" xmlns:cc="http://web.resource.org/cc/" xmlns:dc="http://purl.org/dc/elements/1.1/" xmlns:svg="http://www.w3.org/2000/svg" id="Layer_1" style="enable-background:new 0 0 239.466 267.63" xml:space="preserve" viewBox="0 0 239.466 267.63" version="1.1">
<path id="path3" d="m145.16 5.688c-3.356 6.724-6.321 16.818-6.321 24.792 0 4.162-1.618 8.349-1.896 12.501-0.299 4.471-0.633 8.769-0.633 13.273" stroke="#000" stroke-linecap="square" stroke-miterlimit="10" stroke-width="2" fill="none"/>
<path id="path5" d="m109.13 6.953c5.237 14.203 10.113 30.274 10.113 45.509" stroke="#000" stroke-linecap="square" stroke-miterlimit="10" stroke-width="2" fill="none"/>
<path id="path7" d="m107.24 1.264c-1.753 1.375-6.269 3.008-5.057 6.321 1.251 3.42 6.28 1.323 8.217 0.632 2.261-0.806 5.853-3.288 4.424-6.321-1.1-2.348-5.46-0.698-7.58-0.632" fill-rule="evenodd" clip-rule="evenodd" fill="#fff"/>
<path id="path9" stroke-width="0" stroke-miterlimit="10" d="m107.24 1.264c-1.753 1.375-6.269 3.008-5.057 6.321 1.251 3.42 6.28 1.323 8.217 0.632 2.261-0.806 5.853-3.288 4.424-6.321-1.1-2.348-5.46-0.698-7.58-0.632"/>
<path id="path11" d="m145.79 0c2.351 0.075 6.739 1.87 6.321 4.425-0.584 3.57-5.108 3.16-7.901 3.16-1.293 0-3.213-0.494-4.109-1.264-0.104-0.09-2.611-3.161-1.58-3.161-0.399 0 2.136-2.257 2.846-2.528 1.17-0.445 2.45-0.632 4.42-0.632" fill-rule="evenodd" clip-rule="evenodd" fill="#fff"/>
<path id="path13" stroke-width="0" stroke-miterlimit="10" d="m145.79 0c2.351 0.075 6.739 1.87 6.321 4.425-0.584 3.57-5.108 3.16-7.901 3.16-1.293 0-3.213-0.494-4.109-1.264-0.104-0.09-2.611-3.161-1.58-3.161-0.399 0 2.136-2.257 2.846-2.528 1.17-0.445 2.45-0.632 4.42-0.632"/>
<path id="path15" d="m106.6 99.236c-3.07-1.17-9.704-6.767-11.062-9.481-1.276-2.552-3.197-2.436-2.212-5.689 0.734-2.424 2.479-4.906 3.324-7.444 1.644-4.932 1.883-11.112 4.893-15.626 1.207-1.811 2.31-3.784 3.792-5.373 0.535-0.573 1.455-1.896 2.212-1.896 0.149 0 3.034-1.454 3.161-1.581 3.237-3.237 11.199-3.477 15.486-3.477 5.387 0 11.009 0.446 15.802 2.844 2.636 1.319 5.195 2.353 7.288 4.444 1.869 1.867 2.759 4.654 4.416 6.313 2.133 2.134 1.337 4.894 2.518 7.258 1.283 2.566 1.464 4.989 2.843 7.585 0.69 1.299 1.098 2.509 1.897 3.792 0.95 1.524 2.737 1.686 0.947 3.476-0.965 0.966-0.999 2.403-1.579 3.477-0.657 1.216-1.318 2.751-1.897 3.792-0.979 1.758-3.188 4.438-5.056 5.373-2.362 1.182-6.959 0.316-9.622 0.316-12.39 0-24.72 1.897-37.15 1.897" fill-rule="evenodd" clip-rule="evenodd" fill="#fff"/>
<path id="path17" d="m106.6 99.236c-3.07-1.17-9.704-6.767-11.062-9.481-1.276-2.552-3.197-2.436-2.212-5.689 0.734-2.424 2.479-4.906 3.324-7.444 1.644-4.932 1.883-11.112 4.893-15.626 1.207-1.811 2.31-3.784 3.792-5.373 0.535-0.573 1.455-1.896 2.212-1.896 0.149 0 3.034-1.454 3.161-1.581 3.237-3.237 11.199-3.477 15.486-3.477 5.387 0 11.009 0.446 15.802 2.844 2.636 1.319 5.195 2.353 7.288 4.444 1.869 1.867 2.759 4.654 4.416 6.313 2.133 2.134 1.337 4.894 2.518 7.258 1.283 2.566 1.464 4.989 2.843 7.585 0.69 1.299 1.098 2.509 1.897 3.792 0.95 1.524 2.737 1.686 0.947 3.476-0.965 0.966-0.999 2.403-1.579 3.477-0.657 1.216-1.318 2.751-1.897 3.792-0.979 1.758-3.188 4.438-5.056 5.373-2.362 1.182-6.959 0.316-9.622 0.316-12.39 0-24.72 1.897-37.15 1.897" stroke="#000" stroke-linecap="square" stroke-miterlimit="10" stroke-width="2" fill="#f00"/>
<path id="path19" d="m105.97 54.358c-7.206 0.417-13.273 6.681-13.273 14.046 0 7.166 5.794 14.397 13.273 14.397 17.16 0.001 16.94-27.462 0-28.443" fill-rule="evenodd" clip-rule="evenodd" fill="#fff"/>
<path id="path21" stroke-width="0" stroke-miterlimit="10" d="m105.97 54.358c-7.206 0.417-13.273 6.681-13.273 14.046 0 7.166 5.794 14.397 13.273 14.397 17.16 0.001 16.94-27.462 0-28.443"/>
<path id="path23" fill-rule="evenodd" clip-rule="evenodd" d="m148.95 53.727c-17.05 0-16.516 27.811 0.491 27.811 7.775 0 12.781-6.323 12.781-13.906 0-4.058-0.9-7.221-3.793-10.113-3.07-3.074-5.18-3.792-9.48-3.792"/>
<path id="path25" d="m148.95 53.727c-17.05 0-16.516 27.811 0.491 27.811 7.775 0 12.781-6.323 12.781-13.906 0-4.058-0.9-7.221-3.793-10.113-3.07-3.074-5.18-3.792-9.48-3.792" stroke-width="0" stroke-miterlimit="10" fill="none"/>
<path id="path27" d="m73.736 112.51c-1.197-1.036-2.987-1.81-4.424-2.528-0.935-0.467-4.351-2.528-5.373-2.528-1.113 0-4.354-2.142-5.057-2.844-0.919-0.92-4.144-1.764-5.372-2.212-0.958-0.35-3.949-2.018-5.057-1.896-1.725 0.189-4.063 4.041-5.056 5.689-2.814 4.669-5.488 9.716-7.901 14.538-0.871 1.741-4.839-0.582-6.637 0.316-1.841 0.92-4.932 0.483-6.953 0.948-3.006 0.691-3.797 0.423-3.16 3.792 0.232 1.229 1.118 7.606 1.896 8.217 1.086 0.853 5.072-0.562 6.321-0.632 2.091-0.118 4.225 0 6.321 0 3.487 0 3.524 1.169 5.373-2.528 0.604-1.21 1.824-1.752 2.528-3.161 0.836-1.672 1.932-2.515 2.845-3.792 1.784-2.497 3.684-5.473 5.057-8.217 2.424 1.76 5.051 2.207 7.585 3.161 1.643 0.618 4.997 3.474 6.953 3.16 0.905-0.145 4.375-3.843 5.056-4.424 1.792-1.54 3.388-3.4 5.055-5.07" fill-rule="evenodd" clip-rule="evenodd" fill="#fff"/>
<path id="path29" stroke-width="0" stroke-miterlimit="10" d="m73.736 112.51c-1.197-1.036-2.987-1.81-4.424-2.528-0.935-0.467-4.351-2.528-5.373-2.528-1.113 0-4.354-2.142-5.057-2.844-0.919-0.92-4.144-1.764-5.372-2.212-0.958-0.35-3.949-2.018-5.057-1.896-1.725 0.189-4.063 4.041-5.056 5.689-2.814 4.669-5.488 9.716-7.901 14.538-0.871 1.741-4.839-0.582-6.637 0.316-1.841 0.92-4.932 0.483-6.953 0.948-3.006 0.691-3.797 0.423-3.16 3.792 0.232 1.229 1.118 7.606 1.896 8.217 1.086 0.853 5.072-0.562 6.321-0.632 2.091-0.118 4.225 0 6.321 0 3.487 0 3.524 1.169 5.373-2.528 0.604-1.21 1.824-1.752 2.528-3.161 0.836-1.672 1.932-2.515 2.845-3.792 1.784-2.497 3.684-5.473 5.057-8.217 2.424 1.76 5.051 2.207 7.585 3.161 1.643 0.618 4.997 3.474 6.953 3.16 0.905-0.145 4.375-3.843 5.056-4.424 1.792-1.54 3.388-3.4 5.055-5.07"/>
<path id="path31" fill-rule="evenodd" clip-rule="evenodd" d="m178.66 115.67c7.114-1.025 13.75-7.36 20.227-10.113 4.938-2.099 7.067-0.756 10.113 3.792 3.035 4.533 5.5 9.734 7.901 14.538 0.922 1.846 11.949 0.603 14.22 1.264 2.877 0.838 3.072 1.656 2.529 4.425-0.197 1.007-1.408 7.585-2.212 7.585h-12.326c-3.177 0-3.866-0.611-5.688-3.16-1.6-2.238-3-4.589-4.425-6.953-1.645-2.729-4.575-5.21-5.689-8.217-2.015 1.785-4.705 2.819-6.953 3.792-2.182 0.944-6.035 1.255-7.585 3.16-3.38-3.37-6.75-6.74-10.12-10.11"/>
<path id="path33" stroke-width="0" stroke-miterlimit="10" d="m178.66 115.67c7.114-1.025 13.75-7.36 20.227-10.113 4.938-2.099 7.067-0.756 10.113 3.792 3.035 4.533 5.5 9.734 7.901 14.538 0.922 1.846 11.949 0.603 14.22 1.264 2.877 0.838 3.072 1.656 2.529 4.425-0.197 1.007-1.408 7.585-2.212 7.585h-12.326c-3.177 0-3.866-0.611-5.688-3.16-1.6-2.238-3-4.589-4.425-6.953-1.645-2.729-4.575-5.21-5.689-8.217-2.015 1.785-4.705 2.819-6.953 3.792-2.182 0.944-6.035 1.255-7.585 3.16-3.38-3.37-6.75-6.74-10.12-10.11"/>
<path id="path35" fill-rule="evenodd" clip-rule="evenodd" d="m54.142 207.32c-2.791 0-5.41 0.631-7.901 0.631-1.987 0-6.903 0.27-8.217 1.581-0.228 0.228-3.091 0.948-3.477 0.948-0.869 0-2.907 0.899-3.792 1.264-0.74 0.305-3.042 1.147-3.477 1.581-1.169 1.168-0.948 2.134-0.948 4.248 0 3.824 1.787 7.113 2.997 10.746 0.576 1.73 0.994 3.612 1.591 5.406 0.703 2.108 1.385 4.009-0.164 5.198-1.201 0.922-3.649 0.37-5.057 0.633-1.715 0.32-3.939 0.891-5.548 1.428-2.847 0.95-8.199 1.106-10.253 3.627 2.676 2.68 5.192 5.38 7.585 8.219 2.19 2.6 4.951 1.844 8.217 1.264 3.311-0.588 6.599-0.833 10.113-1.264 2.65-0.325 5.93-1.61 8.849-1.266-0.849-4.244-1.896-8.827-1.896-13.121 0-3.943-3.507-10.088 1.264-12.477 1.662-0.832 3.136-2.832 5.057-3.793 2.178-1.09 4.312-2.161 6.321-3.477 0.606-0.396 1.896 0.376 1.896-0.948 0-1.333-0.38-2.194-0.632-3.478-0.505-2.57-1.329-4.55-2.528-6.95"/>
<path id="path37" d="m54.142 207.32c-2.791 0-5.41 0.631-7.901 0.631-1.987 0-6.903 0.27-8.217 1.581-0.228 0.228-3.091 0.948-3.477 0.948-0.869 0-2.907 0.899-3.792 1.264-0.74 0.305-3.042 1.147-3.477 1.581-1.169 1.168-0.948 2.134-0.948 4.248 0 3.824 1.787 7.113 2.997 10.746 0.576 1.73 0.994 3.612 1.591 5.406 0.703 2.108 1.385 4.009-0.164 5.198-1.201 0.922-3.649 0.37-5.057 0.633-1.715 0.32-3.939 0.891-5.548 1.428-2.847 0.95-8.199 1.106-10.253 3.627 2.676 2.68 5.192 5.38 7.585 8.219 2.19 2.6 4.951 1.844 8.217 1.264 3.311-0.588 6.599-0.833 10.113-1.264 2.65-0.325 5.93-1.61 8.849-1.266-0.849-4.244-1.896-8.827-1.896-13.121 0-3.943-3.507-10.088 1.264-12.477 1.662-0.832 3.136-2.832 5.057-3.793 2.178-1.09 4.312-2.161 6.321-3.477 0.606-0.396 1.896 0.376 1.896-0.948 0-1.333-0.38-2.194-0.632-3.478-0.505-2.57-1.329-4.55-2.528-6.95" stroke-width="0" stroke-miterlimit="10" fill="none"/>
<path id="path39" d="m180.56 209.85c7.999 0 15.342 1.901 22.123 4.424 1.3 0.483 3.992 0.71 5.056 1.896 1.329 1.481 0.449 4.703 0 6.953-1.071 5.366-3.141 10.688-4.892 15.944-0.951 2.853 2.969 2.682 4.892 3.019 2.767 0.484 5.456 1.347 8.217 1.896 2.612 0.52 5.141 0.993 7.586 2.212 2.319 1.156-0.625 2.837-1.896 4.108-2.168 2.168-5.2 6.953-7.9 6.953-2.972 0-6.687-0.738-9.798-1.266-2.292-0.389-5.114-0.999-7.585-1.262-2.123-0.226-4.234-0.925-6.319-0.633 0.861-4.309 1.896-8.89 1.896-13.273 0-3.926 3.509-9.936-1.264-12.326-0.945-0.474-1.594-1.543-2.529-2.211-0.886-0.633-2.062-0.8-2.845-1.581-1.602-1.6-4.371-1.869-6.004-2.845-0.853-0.51-1.896-0.353-1.896-1.265 0-1.508 0.347-2.42 0.632-3.792 0.53-2.57 1.33-4.56 2.53-6.96" fill-rule="evenodd" clip-rule="evenodd" fill="#fff"/>
<path id="path41" stroke-width="0" stroke-miterlimit="10" d="m180.56 209.85c7.999 0 15.342 1.901 22.123 4.424 1.3 0.483 3.992 0.71 5.056 1.896 1.329 1.481 0.449 4.703 0 6.953-1.071 5.366-3.141 10.688-4.892 15.944-0.951 2.853 2.969 2.682 4.892 3.019 2.767 0.484 5.456 1.347 8.217 1.896 2.612 0.52 5.141 0.993 7.586 2.212 2.319 1.156-0.625 2.837-1.896 4.108-2.168 2.168-5.2 6.953-7.9 6.953-2.972 0-6.687-0.738-9.798-1.266-2.292-0.389-5.114-0.999-7.585-1.262-2.123-0.226-4.234-0.925-6.319-0.633 0.861-4.309 1.896-8.89 1.896-13.273 0-3.926 3.509-9.936-1.264-12.326-0.945-0.474-1.594-1.543-2.529-2.211-0.886-0.633-2.062-0.8-2.845-1.581-1.602-1.6-4.371-1.869-6.004-2.845-0.853-0.51-1.896-0.353-1.896-1.265 0-1.508 0.347-2.42 0.632-3.792 0.53-2.57 1.33-4.56 2.53-6.96"/>
<path id="path43" fill-rule="evenodd" clip-rule="evenodd" d="m51.614 166.87c-4.177 0.659-8.353-2.529-12.325-2.529-3.255 0-6.813-2.006-9.797-2.527-1.13-0.197-3.476-0.963-4.424-0.633-1.165 0.405-2.528 5.348-2.528 7.095 0 1.421-1.044 5.918-1.896 6.812-0.909 0.952-6.053 1.513-7.585 1.896-2.432 0.609-5.077 0.771-7.585 1.264-1.092 0.215-2.835 0.471-3.792 0.948-2.454 1.225-1.591 1.233-1.264 3.478 0.316 2.172 1.241 5.64 2.212 7.584 0.92 1.843 6.074 1.264 8.042 1.264h7.444c1.252 0 2.544 0.094 3.792 0 2.342-0.176 2.437 0.364 3.062-2.133 0.565-2.258 1.689-4.534 2.463-6.856 0.584-1.755 1.331-5.834 3.324-6.181 0.63-0.109 2.312 1.266 3.16 1.266 1.396 0 2.396 0.631 3.792 0.631 1.467 0 5.64 0.68 6.637-0.315 1.341-1.339 2.445-3.665 3.477-5.374 0.912-1.53 2.367-4.8 3.791-5.7"/>
<path id="path45" d="m51.614 166.87c-4.177 0.659-8.353-2.529-12.325-2.529-3.255 0-6.813-2.006-9.797-2.527-1.13-0.197-3.476-0.963-4.424-0.633-1.165 0.405-2.528 5.348-2.528 7.095 0 1.421-1.044 5.918-1.896 6.812-0.909 0.952-6.053 1.513-7.585 1.896-2.432 0.609-5.077 0.771-7.585 1.264-1.092 0.215-2.835 0.471-3.792 0.948-2.454 1.225-1.591 1.233-1.264 3.478 0.316 2.172 1.241 5.64 2.212 7.584 0.92 1.843 6.074 1.264 8.042 1.264h7.444c1.252 0 2.544 0.094 3.792 0 2.342-0.176 2.437 0.364 3.062-2.133 0.565-2.258 1.689-4.534 2.463-6.856 0.584-1.755 1.331-5.834 3.324-6.181 0.63-0.109 2.312 1.266 3.16 1.266 1.396 0 2.396 0.631 3.792 0.631 1.467 0 5.64 0.68 6.637-0.315 1.341-1.339 2.445-3.665 3.477-5.374 0.912-1.53 2.367-4.8 3.791-5.7" stroke-width="0" stroke-miterlimit="10" fill="none"/>
<path id="path47" fill-rule="evenodd" clip-rule="evenodd" d="m193.2 162.44c4.169 0 8.065 0.631 12.327 0.631 3.391 0 7.062-0.404 10.427 0 0.881 0.105 3.056 0.187 3.793 0.633 1.551 0.939 1.013 0.261 1.265 2.527 0.164 1.476 0 3.078 0 4.565 0 1.211-0.826 6.618-0.315 7.129 1.238 1.238 5.366 2.607 7.269 3.476 2.513 1.146 4.488 2.562 6.952 3.793 2.435 1.217 5.177 1.804 4.426 4.424-0.364 1.271-1.808 2.668-2.529 3.793-0.438 0.684-2.528 3.339-2.528 4.109 0 0.606-13.593-2.429-15.17-2.846-2.26-0.598-5.387-0.692-6.004-3.16-0.631-2.525-0.661-5.73-0.949-8.217-0.358-3.095 1.059-6.32-2.844-6.32-2.102 0-5.384 0.628-7.269-0.316-1.008-0.505-2.737 0.105-3.476-0.632-0.979-0.977-1.59-1.802-2.214-3.478-1.23-3.25-2.25-6.73-3.17-10.1"/>
<path id="path49" stroke-width="0" stroke-miterlimit="10" d="m193.2 162.44c4.169 0 8.065 0.631 12.327 0.631 3.391 0 7.062-0.404 10.427 0 0.881 0.105 3.056 0.187 3.793 0.633 1.551 0.939 1.013 0.261 1.265 2.527 0.164 1.476 0 3.078 0 4.565 0 1.211-0.826 6.618-0.315 7.129 1.238 1.238 5.366 2.607 7.269 3.476 2.513 1.146 4.488 2.562 6.952 3.793 2.435 1.217 5.177 1.804 4.426 4.424-0.364 1.271-1.808 2.668-2.529 3.793-0.438 0.684-2.528 3.339-2.528 4.109 0 0.606-13.593-2.429-15.17-2.846-2.26-0.598-5.387-0.692-6.004-3.16-0.631-2.525-0.661-5.73-0.949-8.217-0.358-3.095 1.059-6.32-2.844-6.32-2.102 0-5.384 0.628-7.269-0.316-1.008-0.505-2.737 0.105-3.476-0.632-0.979-0.977-1.59-1.802-2.214-3.478-1.23-3.25-2.25-6.73-3.17-10.1"/>
<path id="path51" d="m129.36 94.179c-1.611-0.146-6.165 0.238-7.586 0.948-2.2 1.101-5.644 0.303-8.076 1.112-5.269 1.754-10.49 2.652-15.802 4.424-4.753 1.585-11.46 3.573-14.982 7.093-1.577 1.577-4.856 2.133-6.648 3.488-2.122 1.604-3.748 3.552-6.004 5.057-3.545 2.364-7.327 7.176-9.797 10.745-2.816 4.07-5.861 8.735-7.421 13.414-1.665 4.991-3.603 9.816-4.905 15.029-1.327 5.311-1.58 10.285-1.58 15.802 0 11.036 1.375 21.195 4.893 31.745 1.693 5.076 3.68 10.051 6.05 14.792 2.335 4.67 5.819 8.312 8.652 12.562 6.05 9.076 16.375 13.129 24.65 19.278 8.596 6.389 19.486 10.916 29.848 14.375 2.094 0.699 5.244 2.302 7.444 2.061 2.532-0.278 5.795-2.254 8.217-3.162 4.969-1.864 10.499-3.413 14.854-6.32 1.983-1.324 4.386-2.08 6.301-3.357 1.828-1.219 4.562-3.737 6.517-4.391 4.313-1.44 8.033-6.459 11.213-9.645 7.15-7.161 11.65-15.74 17.173-24.028 1.341-2.012 1.582-4.9 2.923-6.912 1.489-2.235 2.848-4.928 3.497-7.526 1.284-5.137 2.721-10.255 3.989-15.328 2.481-9.927 2.162-21.699 1.165-31.842-0.976-9.931-3.845-22.197-9.48-30.654-2.367-3.552-4.134-9.393-7.881-11.891-4.162-2.774-7.262-6.764-11.713-9.283-9.27-5.246-21.263-7.585-31.745-7.585-4.56 0.024-9.15 0.024-13.74 0.024" fill-rule="evenodd" clip-rule="evenodd" fill="#fff"/>
<path id="path53" d="m129.36 94.179c-1.611-0.146-6.165 0.238-7.586 0.948-2.2 1.101-5.644 0.303-8.076 1.112-5.269 1.754-10.49 2.652-15.802 4.424-4.753 1.585-11.46 3.573-14.982 7.093-1.577 1.577-4.856 2.133-6.648 3.488-2.122 1.604-3.748 3.552-6.004 5.057-3.545 2.364-7.327 7.176-9.797 10.745-2.816 4.07-5.861 8.735-7.421 13.414-1.665 4.991-3.603 9.816-4.905 15.029-1.327 5.311-1.58 10.285-1.58 15.802 0 11.036 1.375 21.195 4.893 31.745 1.693 5.076 3.68 10.051 6.05 14.792 2.335 4.67 5.819 8.312 8.652 12.562 6.05 9.076 16.375 13.129 24.65 19.278 8.596 6.389 19.486 10.916 29.848 14.375 2.094 0.699 5.244 2.302 7.444 2.061 2.532-0.278 5.795-2.254 8.217-3.162 4.969-1.864 10.499-3.413 14.854-6.32 1.983-1.324 4.386-2.08 6.301-3.357 1.828-1.219 4.562-3.737 6.517-4.391 4.313-1.44 8.033-6.459 11.213-9.645 7.15-7.161 11.65-15.74 17.173-24.028 1.341-2.012 1.582-4.9 2.923-6.912 1.489-2.235 2.848-4.928 3.497-7.526 1.284-5.137 2.721-10.255 3.989-15.328 2.481-9.927 2.162-21.699 1.165-31.842-0.976-9.931-3.845-22.197-9.48-30.654-2.367-3.552-4.134-9.393-7.881-11.891-4.162-2.774-7.262-6.764-11.713-9.283-9.27-5.246-21.263-7.585-31.745-7.585-4.56 0.024-9.15 0.024-13.74 0.024" stroke="#000" stroke-linecap="square" stroke-miterlimit="10" stroke-width="2" fill="#f00"/>
<path id="path55" fill-rule="evenodd" clip-rule="evenodd" d="m155.27 111.24c2.482 1.184 4.557 1.093 6.953 2.528 2.417 1.447 3.899 2.697 5.689 5.057 3.068 4.045 5.056 9.687 5.056 14.775 0 1.114 0.804 2.235 0.533 3.318-0.383 1.529-0.533 2.692-0.533 4.267 0 2.391-1.301 5.573-2.059 7.84-0.757 2.263-2.309 4.165-3.63 6.145-1.679 2.516-4.056 3.107-5.993 5.045-3.37 3.37-11.581 0.692-14.865-1.567-4.013-2.762-6.337-8.213-7.585-12.643-1.47-5.217-2.275-10.486-0.947-15.802 1.401-5.61 3.527-8.928 6.637-13.589 2.63-3.95 6.98-3.58 10.74-5.38"/>
<path id="path57" d="m155.27 111.24c2.482 1.184 4.557 1.093 6.953 2.528 2.417 1.447 3.899 2.697 5.689 5.057 3.068 4.045 5.056 9.687 5.056 14.775 0 1.114 0.804 2.235 0.533 3.318-0.383 1.529-0.533 2.692-0.533 4.267 0 2.391-1.301 5.573-2.059 7.84-0.757 2.263-2.309 4.165-3.63 6.145-1.679 2.516-4.056 3.107-5.993 5.045-3.37 3.37-11.581 0.692-14.865-1.567-4.013-2.762-6.337-8.213-7.585-12.643-1.47-5.217-2.275-10.486-0.947-15.802 1.401-5.61 3.527-8.928 6.637-13.589 2.63-3.95 6.98-3.58 10.74-5.38" stroke-width="0" stroke-miterlimit="10" fill="none"/>
<path id="path59" d="m90.802 172.56c3.858-1.838 11.793 1.257 14.104 4.722 2.832 4.248 5.825 8.001 7.071 12.978 1.329 5.309 2.338 10.387 0.948 15.803-1.124 4.377-3.169 10.746-7.585 12.957-2.45 1.227-4.202 2.844-7.093 2.844-3.016 0-5.141-1.13-7.937-2.06-4.755-1.583-7.229-6.994-9.818-10.877-5.931-8.895-4.378-21.912 1.264-30.381 1.699-2.55 5.746-6.53 9.046-5.98" fill-rule="evenodd" clip-rule="evenodd" fill="#fff"/>
<path id="path61" stroke-width="0" stroke-miterlimit="10" d="m90.802 172.56c3.858-1.838 11.793 1.257 14.104 4.722 2.832 4.248 5.825 8.001 7.071 12.978 1.329 5.309 2.338 10.387 0.948 15.803-1.124 4.377-3.169 10.746-7.585 12.957-2.45 1.227-4.202 2.844-7.093 2.844-3.016 0-5.141-1.13-7.937-2.06-4.755-1.583-7.229-6.994-9.818-10.877-5.931-8.895-4.378-21.912 1.264-30.381 1.699-2.55 5.746-6.53 9.046-5.98"/>
<path id="path63" d="m91.434 118.83c4.353-0.564 5.34 4.99 6.637 7.585 1.698 3.397-0.383 8.184-1.58 11.377-2.379 6.346-9.786 14.936-17.698 12.643-7.98-2.313-7.322-13.673-5.057-19.595 1.33-3.476 4.109-6.735 6.953-8.849 2.19-1.63 8.158-5.83 10.745-3.16" fill-rule="evenodd" clip-rule="evenodd" fill="#fff"/>
<path id="path65" stroke-width="0" stroke-miterlimit="10" d="m91.434 118.83c4.353-0.564 5.34 4.99 6.637 7.585 1.698 3.397-0.383 8.184-1.58 11.377-2.379 6.346-9.786 14.936-17.698 12.643-7.98-2.313-7.322-13.673-5.057-19.595 1.33-3.476 4.109-6.735 6.953-8.849 2.19-1.63 8.158-5.83 10.745-3.16"/>
<path id="path67" fill-rule="evenodd" clip-rule="evenodd" d="m157.17 194.68c3.539 1.775 8.216 4.867 8.216 9.481 0 2.107 0.786 4.084 0.632 6.321-0.169 2.444-1.263 4.662-1.263 7.093 0 2.553-4.523 8.176-6.322 9.974-3.434 3.431-7.589 4.978-12.009 4.424-9.657-1.209-10.221-14.843-7.749-22.263 2.68-8.05 9.65-15.02 18.49-15.02"/>
<path id="path69" d="m157.17 194.68c3.539 1.775 8.216 4.867 8.216 9.481 0 2.107 0.786 4.084 0.632 6.321-0.169 2.444-1.263 4.662-1.263 7.093 0 2.553-4.523 8.176-6.322 9.974-3.434 3.431-7.589 4.978-12.009 4.424-9.657-1.209-10.221-14.843-7.749-22.263 2.68-8.05 9.65-15.02 18.49-15.02" stroke-width="0" stroke-miterlimit="10" fill="none"/>
<path id="path71" d="m128.09 94.179c-2.329 11.651-2.293 23.142-3.593 34.86-1.247 11.251-1.463 22.913-1.463 34.23 0 23.671 0.631 47.349 0.631 70.974 0 5.227 1.264 10.541 1.264 15.754 0 5.153 2.316 10.418 1.897 15.475" stroke="#000" stroke-linecap="square" stroke-miterlimit="10" stroke-width="4" fill="none"/>
<metadata><rdf:RDF><cc:Work><dc:format>image/svg+xml</dc:format><dc:type rdf:resource="http://purl.org/dc/dcmitype/StillImage"/><cc:license rdf:resource="http://creativecommons.org/licenses/publicdomain/"/><dc:publisher><cc:Agent rdf:about="http://openclipart.org/"><dc:title>Openclipart</dc:title></cc:Agent></dc:publisher><dc:title>Architetto -- Coccinella 04</dc:title><dc:date>2009-05-01T20:57:09</dc:date><dc:description>Ladybug by Francesco 'Architetto' Rollandin.</dc:description><dc:source>http://openclipart.org/detail/25687/architetto----coccinella-04-by-anonymous-25687</dc:source><dc:creator><cc:Agent><dc:title>Anonymous</dc:title></cc:Agent></dc:creator><dc:subject><rdf:Bag><rdf:li>animal</rdf:li><rdf:li>bug</rdf:li><rdf:li>clip art</rdf:li><rdf:li>clipart</rdf:li><rdf:li>image</rdf:li><rdf:li>insect</rdf:li><rdf:li>ladybird</rdf:li><rdf:li>ladybug</rdf:li><rdf:li>media</rdf:li><rdf:li>png</rdf:li><rdf:li>public domain</rdf:li><rdf:li>svg</rdf:li></rdf:Bag></dc:subject></cc:Work><cc:License rdf:about="http://creativecommons.org/licenses/publicdomain/"><cc:permits rdf:resource="http://creativecommons.org/ns#Reproduction"/><cc:permits rdf:resource="http://creativecommons.org/ns#Distribution"/><cc:permits rdf:resource="http://creativecommons.org/ns#DerivativeWorks"/></cc:License></rdf:RDF></metadata></svg>
