<?xml version="1.0"?>
<svg xmlns:rdf="http://www.w3.org/1999/02/22-rdf-syntax-ns#" xmlns="http://www.w3.org/2000/svg" xmlns:cc="http://web.resource.org/cc/" xmlns:dc="http://purl.org/dc/elements/1.1/" xmlns:sodipodi="http://inkscape.sourceforge.net/DTD/sodipodi-0.dtd" xmlns:svg="http://www.w3.org/2000/svg" id="Layer_1" style="enable-background:new 0 0 270.632 272.691" xml:space="preserve" sodipodi:version="0.32" viewBox="0 0 270.632 272.691" version="1.0" sodipodi:docname="Motivo geometrico.svg" sodipodi:docbase="F:\openclip\svg3">
<sodipodi:namedview id="base" bordercolor="#666666" borderopacity="1.0" pagecolor="#ffffff"/>
<g id="g3" clip-rule="evenodd" fill-rule="evenodd">
	<path id="path5" d="m216.09 272.69c2.633-3.199-0.574-12.236 2.059-15.436 14.02-0.619 23.902 0.732 37.045-1.029v-38.072h7.203c2.639 2.896 0.223 7.184 0 12.348-0.387 8.955 0.84 19.395 0 26.754 0.668 4.1-6.07 0.789-5.146 5.146v6.174c0.443 2.301 5.072 0.416 7.203 1.029-0.652-19.439 2.404-33.619 0-53.51-0.883-2.547-7.162 0.303-8.23-2.059 0.48-3.635-1.684-9.914 3.086-9.262 6.727-0.15 1.477 5.328 4.117 9.262 4.596-2.418 0.154-12.783 2.057-15.436-2.221-1.895-7.123-1.107-9.26-3.086-0.123-4.238 8.049-0.184 9.26-3.088-5.766-3.332-12.996-3.879-19.551-6.174-14.832-5.193-27.459-16.203-29.842-28.813 4.322 0.824 3.986 6.303 6.174 9.262 9.695 10.473 23.518 21.383 42.189 19.551 2.232-59.016 0.604-128.13 1.029-180.08-23.324-2.4-51.107-0.344-76.146-1.029-0.9 24.001-11.047 47.116-32.93 53.509 0.307-5.183 6.053-4.925 9.262-7.203 10.539-10.467 22.129-25.093 19.551-45.277-35.359-1.664-63.354-0.269-99.814 0-1.662 1.398 1.063 7.11 0 11.319-5.006 0.755-3.248-9.123-2.059-11.319-25.347-0.315-50.649 0.188-78.202 0.014 0.541 14.835-0.277 29.333 0 46.306 3.749-0.377 1.946-5.629 2.059-8.232 0.475-11.084 0.658-23.643-1.029-29.842 5.943 1.827 6.023-2.208 7.203-5.145 13.037 0.683 28.809-1.368 40.132 1.029v4.116c-0.019 3.695-5.138 1.949-7.203 2.058-10.522 0.555-21.475-0.422-30.87 0-3.026 10.008 0.98 27.05-2.059 37.045 0.037 4.153-7.329 0.903-8.232 4.116-1.293 4.363 7.8-0.884 8.232 4.116-3.313-0.226-4.354 1.82-8.232 1.029v21.609c0.289 0.221 9.602 0.733 11.319-1.029 4.636 4.746 11.704 3.372 17.493 6.174 11.367 5.503 20.283 18.299 22.639 28.813-11.299-15.456-22.43-31.08-50.422-29.842-3.279 36.78 0.387 62.164-2.059 97.757 2.807 3.037 7.934-0.922 10.291 1.029 0.572 5.031-6.461 2.457-10.291 3.086 2.432 6.023-1.186 12.617 0 20.582 21.314 1.107 41.398 12.32 49.394 28.813 1.034 2.133 3.405 4.078 1.028 6.174-3.814-2.389-4.666-6.912-7.203-10.291-8.896-11.85-21.48-20.473-42.189-20.58-2.641 17.891 0.107 38.211-1.029 55.566 3.283 0.611 3.184-1.93 5.146 0 2.572-2.975 1.353-10.912-3.087-10.289 1.453-13.797-3.214-34.445 3.087-40.133 5.719-1.127 3.827 5.197 4.116 8.232 1.021 10.73-1.789 20.938 0 28.813 10.955 3.484 24.129-0.396 37.045 2.059 1.621 2.629 1.621 10.748 0 13.377h-50.422c-0.002-90.91-0.002-181.8-0.002-272.7h270.63v272.69h-54.54z"/>
	<path id="path7" d="m77.176 8.232c1.723 1.707 0.818 6.042 1.029 9.261-5.827-0.543-6.521-0.543-12.348 0-5.225-6.034 0.402-11.557 11.319-9.261z"/>
	<path id="path9" d="m132.74 14.406h3.087c4.965 0.85 2.281-5.952 6.174-6.174 14.146 2.636 29.168-1.716 40.133 2.058 0.504 3.248-1.855 3.634-1.029 7.203h-40.133c-0.031 10.03 0.871 27.739-1.027 39.103-5.191 0.884-5.754 0.278-11.32 0 0.055-15.53-0.015-29.468 1.029-39.103-13.072-0.647-28.76 1.32-40.132-1.029 1.127-3.918-2.722-6.423 1.028-7.203 9.759-0.735 26.171 0.507 39.104 0 4.34-1.587 0.17 5.325 3.09 5.145z"/>
	<path id="path11" d="m205.8 10.29v6.174c-2.629 1.622-10.75 1.622-13.379 0v-7.203c4.2-0.985 9.05-0.438 13.38 1.029z"/>
	<path id="path13" d="m209.92 8.232h3.088v10.291c-5.03 0.573-2.46-6.461-3.09-10.291z"/>
	<path id="path15" d="m258.28 8.232c-1.51 5.626 1.762 6.472 5.146 7.204-0.646 12.731 1.316 28.071-1.029 39.103-3.57 0.825-3.955-1.533-7.203-1.029-0.061-15.695 1.549-19.695 0-34.987-9.652-2.797-24.566-0.401-36.016-1.029-0.623-2.464-1.48-4.694-1.029-8.232 12.78-3.188 27.63 1.338 40.13-1.03z"/>
	<path id="path17" d="m57.625 9.261c1.195-0.167 1.83 0.227 2.058 1.029-0.802 24.924-12.61 38.841-30.87 46.306 11.982-13.4 29.742-21.022 28.812-47.335z"/>
	<path id="path19" d="m19.551 19.551c6.658 1.785 27.287-3.69 30.871 3.087h-27.783c-3.1 13.925 0.611 35.742-1.029 50.423-0.305 2.725-0.079 7.171-3.088 8.232-0.43-19.435-0.305-45.302 1.029-61.742z"/>
	<path id="path21" d="m124.51 20.581c-0.887 11.908 1.797 23.804-1.029 31.899-4.704-10.079-0.043-17.935-2.059-29.841h-60.712c-0.167-1.197 0.228-1.831 1.028-2.058 20.523-1.965 45.304-0.864 62.774 0z"/>
	<path id="path23" d="m176.99 20.581c-1.467 3.828-7.928 1.967-12.348 2.058-5.109 0.105-10.258-0.082-14.406 0-2.828 17.459 0.672 45.402-2.059 59.683-3.723-7.917-2.057-18.94-2.057-29.842 0-10.766 0.322-20.903 0-29.841 0.195-0.833 1.031-1.026 1.029-2.058 7.65-1.636 22.24-1.771 29.85 0z"/>
	<path id="path25" d="m251.08 19.551c-1.184 10.129 2.105 16.764 1.029 25.726-0.232 1.937-0.035 6.438-3.086 7.203-0.615-9.333 1.273-21.169-1.029-28.813-15.438-2.398-35.328-0.345-52.48-1.029-1.75 0.378-1.941-0.803-2.059-2.058 17.18-2.374 38.75-0.362 57.63-1.029z"/>
	<path id="path27" d="m85.409 24.696c10.199 20.329 24.553 36.502 54.539 37.045-7.707 4.047-22.396 0.579-29.842-3.087-10.547-5.189-24.568-21.942-24.701-33.958z"/>
	<path id="path29" d="m211.98 24.696h3.086c4.461 16.558 18.957 30.858 37.045 34.987 4.225 0.964 9.605-2.739 12.348 3.087-29.18-1.012-45.55-14.829-52.49-38.074z"/>
	<path id="path31" d="m49.393 29.842c-4.809 9.598-12.558 16.255-21.609 21.609-2.95-2.912 0.024-15.973-1.029-23.667 6.431 0.082 17.341-1.8 22.638 2.058z"/>
	<path id="path33" d="m176.99 28.813c-3.912 11.523-11.086 19.784-22.637 23.667-0.648-10.291 0.814-18.229-2.059-24.696 6.36-0.645 18.71 0.492 24.7 1.029z"/>
	<path id="path35" d="m68.944 27.784c0.162 4.191-5.805 10.471-4.115 19.551-3.443-1.463-9.936-1.463-13.377 0 2.887-7.06 7.703-12.191 10.289-19.551h7.203z"/>
	<path id="path37" d="m74.089 27.784h7.203c0.419 5.959 6.861 12.399 9.261 19.551-6.145-0.072-7.865-1.245-13.377 0 2.548-7.964-0.742-13.681-3.087-19.551z"/>
	<path id="path39" d="m93.641 27.784c7.313 0.576 17-1.222 22.639 1.029 0.768 5.122 2.045 15.075 0 23.667-10.81-4.973-19.743-11.814-22.639-24.696z"/>
	<path id="path41" d="m188.31 27.784c3.219 0.21 7.555-0.694 9.262 1.029-2.771 4.432-5.172 9.235-4.117 17.494-7.152-1.134-8.898 3.611-14.406 2.058 3.38-6.574 8.52-11.39 9.27-20.581z"/>
	<path id="path43" d="m208.89 27.784c2.162 8.129 7.531 13.049 10.291 20.58-3.938-0.866-8.26-1.344-13.377-1.029 0.703-8.25-1.248-13.845-5.146-17.493 0.24-3.201 5.13-1.739 8.24-2.058z"/>
	<path id="path45" d="m222.27 27.784h20.58c-0.555 6.647 1.195 15.6-1.027 20.58-9.63-3.75-15.84-10.919-19.55-20.58z"/>
	<path id="path47" d="m71.002 39.103c1.662-0.29 1.771 0.972 3.087 1.029 0.526 4.299-0.573 6.972-2.058 9.261-2.058-1.642-3.036-7.768-1.029-10.29z"/>
	<path id="path49" d="m201.69 42.19c-0.037 3.735 0.578 8.124-2.059 9.261-3.563-0.209-1.873-5.673-3.086-8.232 2.48 0.421 2.24-1.88 5.15-1.029z"/>
	<path id="path51" d="m50.422 49.393c7.614 1.196 18.281 9.06 10.29 16.464-8.032-0.886-10.524-7.312-10.29-16.464z"/>
	<path id="path53" d="m92.612 51.451c1.664 5.801-0.662 16.473-9.262 15.435-6.285-8.038 4.375-12.237 9.262-15.435z"/>
	<path id="path55" d="m43.219 52.48c3.318 2.065 0.373 8.805 3.087 13.377-7.522 0.17-11.568 2.457-19.552 4.116 0.744-3.145-1.052-3.75-1.029-6.174 5.775-3.828 13.137-6.072 17.494-11.319z"/>
	<path id="path57" d="m176.99 52.48c8.143-0.987 15.346 6.598 10.291 12.348-7.5-0.041-8.72-6.371-10.29-12.348z"/>
	<path id="path59" d="m219.18 52.48c-0.773 6.607-4.184 14.3-11.32 11.319-1.12-8.666 4.49-10.601 11.32-11.319z"/>
	<path id="path61" d="m223.3 52.48c7.885 2.063 11.537 8.357 19.551 10.291 0.158 4.688 0.852 4.037 0 8.232-3.701-4.187-12.174-3.604-18.521-5.145 1.91-5.126-1.08-7.534-1.03-13.378z"/>
	<path id="path63" d="m96.728 54.538c7.179 3.111 13.226 7.355 20.581 10.29-0.533 4.513-0.322 3.38-1.029 7.204-4.982-2.565-8.961-6.132-17.494-5.146 1.099-5.901-1.432-8.171-2.058-12.348z"/>
	<path id="path65" d="m171.85 54.538c2.127 3.203-1.289 9.652 0 15.436-6.783-2.744-11.643 0.943-17.492 2.058 0.742-3.145-1.053-3.75-1.029-6.174 6.36-3.585 13.28-6.613 18.52-11.32z"/>
	<path id="path67" d="m71.002 61.741c2.691 4.168 3.631 10.089 10.29 10.291-2.827 5.748-7.999 9.151-9.261 16.464-3.903-5.015-6.484-11.352-11.319-15.435 5.494-1.71 8.988-5.419 10.29-11.32z"/>
	<path id="path69" d="m197.57 63.799c4.953 2.25 6.346 8.06 12.348 9.261-5.402 2.831-8.264 8.201-13.377 11.319 0.369-6.544-5.332-7.017-8.232-10.291 2.12-4.392 7.81-5.229 9.26-10.289z"/>
	<path id="path71" d="m14.407 65.857c0.148 6.951-0.125 11.898-1.029 15.435h-7.203c1.14-4.348 1.186-9.79 1.029-15.435 3.693 0.852 4.977-2.32 7.203 0z"/>
	<path id="path73" d="m256.23 65.857c2.732 0.011 5.877-0.389 7.203 1.029-1.389 3.143-1.086 8.592 0 9.261-0.781 2.65-3.285 3.576-7.203 3.087 0.67-4.929-1.06-11.313 0-13.377z"/>
	<path id="path75" d="m140.98 67.916c1.059 2.063-0.678 8.447 0 13.377-4.078-0.379-9.86 0.943-12.348-1.029v-12.348c4.62 0.657 8.79-2.811 12.35 0z"/>
	<path id="path77" d="m248 66.886h3.086v57.625c-6.439 3.421-20.844 2.325-28.813 1.029 5.469-5.727 15.373-1.097 24.697-2.058 1.74-20.63 1.76-43.024 1.02-56.594z"/>
	<path id="path79" d="m122.45 67.916c1.117 0.254 0.697 2.046 2.059 2.058-2.551 21.609 1.795 38.855-2.059 56.596-9.734-1.586-26.088 3.449-30.871-3.087 9.166-1.904 16.091 0.097 28.813 0 2.49-17.24-1.13-38.127 2.06-55.564z"/>
	<path id="path81" d="m49.393 73.061c-1.324 2.792-5.113 3.118-9.262 3.087-0.013-2.044-2.807-1.309-2.058-4.116 3.145-2.394 8.719-0.34 11.32 1.029z"/>
	<path id="path83" d="m107.02 73.061c-0.545 0.828-1.073 1.67-1.029 3.087-4.578 0.806-6.176-1.37-10.289-1.029 0.936-4.081 9.479-4.84 11.319-2.058z"/>
	<path id="path85" d="m231.53 73.061c-0.506 5.173-8.916 2.752-9.262-1.029 3.06 0.041 8.23-3.063 9.26 1.029z"/>
	<path id="path87" d="m176.99 74.089c-0.598 3.453-11.027 4.748-12.348 1.029 1.46-6.137 7.24-0.186 12.35-1.029z"/>
	<path id="path89" d="m26.754 75.119c5.189 3.043 11.479 4.986 20.58 4.116-1.854 5.218 0.475 10.579-1.028 14.406-6.361-3.243-11.212-7.998-19.552-9.261-0.593-3.748-1.411-4.745 0-9.261z"/>
	<path id="path91" d="m240.79 75.119c2.943 0.144 1.881 4.292 2.057 7.203-7.074 1.843-9.947 7.888-17.492 9.261 0.785-4.486-1.273-9.531 0-11.319 6.22-0.639 12.3-1.422 15.43-5.145z"/>
	<path id="path93" d="m114.22 76.147c3.201 0.229 1.738 5.122 2.059 8.232-6.502 2.76-11.854 6.668-18.523 9.261-0.056-4.746 0.457-10.061-1.028-13.377 7.771 0.57 14.071-0.333 17.491-4.116z"/>
	<path id="path95" d="m154.35 78.206c4.514 2.264 12.252 4.736 18.521 2.058-0.805 5.951 1.492 8.797 1.029 14.406-8.123-1.824-11.898-7.995-19.551-10.29v-6.174z"/>
	<path id="path97" d="m87.467 79.235c2.146 4.712 5.262 8.458 4.115 16.464-6.257 0.083-7.287-5.061-12.348-6.174-0.989-7.165 6.809-5.54 8.233-10.29z"/>
	<path id="path99" d="m63.799 84.38c-1.4 6.488-4.615 11.164-12.348 11.319-0.152-7.967 4.792-17.355 12.348-11.319z"/>
	<path id="path101" d="m187.28 82.322c5.348 6.645-2.195 12.891-10.291 12.348 1.44-6.107 0.67-14.423 10.29-12.348z"/>
	<path id="path103" d="m208.89 82.322c8.428-0.196 9.475 6.99 12.348 12.348-6.619 0.446-9.928-2.42-13.377-5.145 0.01-2.733-0.39-5.877 1.03-7.203z"/>
	<path id="path105" d="m263.43 86.438h-8.232c0.79-2.49 8.62-5.326 8.23 0z"/>
	<path id="path107" d="m183.17 118.34c-5.473-1.243-5.445-7.565-8.232-11.319-8.574-11.546-23.805-19.229-40.133-19.551-1.75 0.378-1.941-0.803-2.058-2.058 21.58-1.71 43.92 12.772 50.42 32.929z"/>
	<path id="path109" d="m243.88 88.496c-2.869 5.413-9.031 6.591-13.377 10.291-11.121 9.47-18.154 22.911-17.492 44.248-3.867-3.5-2.646-8.673-2.059-13.377 2.217-17.781 16.225-34.032 29.842-41.161 1.03-0.003 2.06-0.003 3.09-0.003z"/>
	<path id="path111" d="m114.22 89.525c0.164 4.896-11.908 8.946-16.465 13.377-3.97 8.411-11.857 14.515-13.377 26.754-0.518 4.168 2.313 11.456-3.087 13.377-1.175-26.07 12.327-45.833 32.929-53.505z"/>
	<path id="path113" d="m262.4 90.554c1.174 10.79-0.02 27.382 0 41.161 1 4.088-5.752 0.423-5.146 4.116-0.27 4.043 2.51 5.037 5.146 6.174 1.1 10.963-0.881 29.256 1.029 41.16-3.539 0.451-5.768-0.406-8.232-1.027 2.361-17.063-0.131-23.373 0-38.074-12.102-0.213-28.199 0.301-37.045 0-1.623-2.629-1.623-10.75 0-13.378h37.045c0.379-18.692-0.078-27.455 1.029-40.132 2.05-0.004 4.11-0.004 6.17-0.004z"/>
	<path id="path115" d="m14.407 91.583c-0.162 15.015-0.438 21.772-1.029 38.074 13.521 2.688 29.223-0.324 41.16 2.058-0.008 5.28 1.508 6.751 0 11.319-11.736 1.982-26.799 0.641-40.131 1.029-2.9 12.893 0.629 29.375-1.029 39.102h-6.174c-2.225-18.066 0.572-27.443-1.029-42.189h5.145v-6.174c0.174-2.231-3.649-0.467-5.145-1.029 1.015-12-0.566-28.083 1.029-42.189 2.4-0.008 4.801-0.008 7.203-0.008z"/>
	<path id="path117" d="m140.98 92.612c-2.252 11.125-0.451 26.303-1.027 39.103 14.551 0.328 26.697-0.635 39.102 0 1.775 3.496 0.717 7.542 0 11.319-11.125 2.252-26.303 0.451-39.102 1.029-0.779 16.016 0.791 30.525-2.059 40.131-3.781-0.334-9.11 0.879-11.319-1.029 0.646-17.652 0.159-22.609 1.028-38.072-10.638-2.396-25.722-0.348-38.073-1.029-1.608-2.361-1.608-9.988 0-12.349 13.353-1.673 20.056 0.259 38.073 0 0.684-12.695-1.367-28.122 1.029-39.103 4.25-1.186 8.09-1.186 12.35-0.005z"/>
	<path id="path119" d="m71.002 93.641c3.091 2.049 3.5 8.751 2.059 12.348-6.827-0.43-2.883-8.198-2.059-12.349z"/>
	<path id="path121" d="m197.57 93.641c3.029 2.578 5.311 7.987 2.057 11.319-4.85-0.06-3.09-8.308-2.06-11.319z"/>
	<path id="path123" d="m18.522 94.67c1.197-0.167 1.831 0.227 2.059 1.029 0.586 7.147 1.721 18.399 0 25.726 16.895 2.55 40.396-0.415 58.654 2.058-2.606 4.233-9.544 1.841-14.406 2.058-12.439 0.554-30.91-0.313-47.336 0 2.182-9.28-0.043-20.48 1.029-30.87z"/>
	<path id="path125" d="m26.754 95.699c11.595 2.871 20.873 13.349 22.639 22.639-8.586-0.807-16.491 1.406-22.639 0-0.05-7.5-1.673-14.96 0-22.641z"/>
	<path id="path127" d="m243.88 95.699c-1.465 7.435-1.867 15.481-1.029 22.639-7.195 1.382-13.199 0.792-20.58 0 3.68-11.07 10.79-18.708 21.61-22.641z"/>
	<path id="path129" d="m116.28 96.728v21.609c-9.857 0.199-14.63 0.642-22.639 0 4.568-10.18 11.479-18.03 22.639-21.612z"/>
	<path id="path131" d="m146.12 96.728c5.115 9.396 1.367 13.934 3.086 26.754h57.625c-9.125 4.072-20.266 1.665-32.928 2.058-7.711 0.24-18.813 2.448-27.783 0-0.01-9.6-0.01-19.21-0.01-28.812z"/>
	<path id="path133" d="m154.35 97.757c9.955 3.422 16.904 9.851 19.551 20.581-10.408-0.203-15.277 1.689-20.58 0 2.25-7.42-0.67-16.51 1.03-20.583z"/>
	<path id="path135" d="m53.509 98.786c2.885 1.231 7.101 1.131 11.319 1.029-1.281 8.827 3.5 11.591 4.115 18.522h-6.174c-2.02-7.58-8.106-11.1-9.26-19.554z"/>
	<path id="path137" d="m90.553 98.786c0.381 6.05-8.361 11.398-9.261 19.551-3.569-0.825-3.955 1.533-7.203 1.029 0.512-7.268 5.969-11.929 3.087-19.552 2.778-2.028 8.992-0.615 13.377-1.032z"/>
	<path id="path139" d="m217.12 98.786c1.385 6.546-7.592 11.604-8.232 19.551-3.568-0.825-3.955 1.533-7.203 1.029-1.281-5.07 5.971-12.605 3.088-19.552 2.64 1.632 11.03 1.902 12.34-1.032z"/>
	<path id="path141" d="m178.02 99.815c5.848 1.519 7.514 1.748 14.406 1.029-1.193 8.054 2.043 11.677 2.059 18.522h-4.115c-5.11-5.53-9.29-11.98-12.36-19.545z"/>
	<path id="path143" d="m77.176 131.72c-1.1 5.901 1.433 8.171 2.059 12.349h-13.377c-0.813-3.934-0.77-8.537 1.028-12.349 1.702-1.4 6.004 0.84 10.29 0z"/>
	<path id="path145" d="m205.8 131.72v12.349h-13.379c-1.607-2.361-1.607-9.988 0-12.349h13.38z"/>
	<path id="path147" d="m59.683 132.74c0.916 0.457 1.841 0.904 2.058 2.059-2.553 27.631-13.703 46.666-38.073 52.48 5.469-6.789 14.444-8.055 20.581-14.406 8.846-9.15 14.222-22.39 15.434-40.13z"/>
	<path id="path149" d="m185.22 134.8c4.459 19.553-12.199 47.486-31.898 51.451 17.18-10.6 30.37-25.2 31.9-51.45z"/>
	<path id="path151" d="m50.422 150.24c-5.41 4.537-19.017 0.877-27.783 2.059-5.203 17.662 0.715 39.156-3.088 58.654-3.707-7.992-2.059-22.041-2.059-33.959 0-12.125 0.402-22.229 1.029-27.783 10.425-0.5 21.473-0.83 31.901 1.03z"/>
	<path id="path153" d="m250.05 149.21v28.813c-5.627-1.418-1.967-8.168-2.057-11.318-0.119-4.143-1.67-9.111-1.029-14.406-17.838-0.686-38.414 1.369-54.539-1.029 2.912-3.961 8.324-1.947 12.35-2.059 16.47-0.45 30.28-0.58 45.28 0.01z"/>
	<path id="path155" d="m64.829 149.21c19.227 0.668 41.135-1.346 58.654 1.029-2.932 9.863 1.199 23.205-2.059 30.871-3.346-7.814-0.626-15.822-1.029-27.785-12.119-2.535-33.072-0.129-46.306-1.027-2.96-0.2-9.02 0.78-9.255-3.08z"/>
	<path id="path157" d="m176.99 150.24c-5.41 4.537-19.016 0.877-27.783 2.059-1.926 21.014-1.471 34.635-2.057 57.625-6.404-1.713-2.1-7.881-2.059-12.35 0.123-13.551-0.094-31.398 0-45.275 0.545-0.828 1.074-1.672 1.029-3.088 10.01 0.62 22.55-1.29 30.87 1.03z"/>
	<path id="path159" d="m207.86 155.38c3.199 6.748 8.279 11.615 10.291 19.553-3.609-0.508-6.699-1.535-11.32-1.029-1.273-5.213-4.344-13.186-5.145-17.494 1.22-1.18 3.64-1.16 6.18-1.03z"/>
	<path id="path161" d="m222.27 155.38c8.307 2.002 11.758-0.455 20.58 1.029 0.436 8.145-0.783 14.775 0 20.58-10.48-3.58-17.51-10.62-20.58-21.61z"/>
	<path id="path163" d="m49.393 157.44c-3.597 11.838-13.327 17.543-23.668 22.639v-22.639c5.859-1.83 17.748-1.47 23.668 0z"/>
	<path id="path165" d="m68.944 156.41c-2.526 5.951-5.575 12.459-3.086 20.58-2.637-2.508-8.145-2.146-13.378-2.057 7.043-4.62 3.993-19.33 16.464-18.52z"/>
	<path id="path167" d="m80.264 156.41c1.352 8.594 7.619 12.275 10.289 19.551-2.636 1.631-8.143-0.982-13.377 0 0.006-6.865 0.688-14.406-3.087-17.492 0.116-2.63 3.447-2.04 6.175-2.06z"/>
	<path id="path169" d="m86.438 156.41c10.143 18.328 25.066 31.873 52.48 32.93-9.818 4.611-16.021-1.66-26.756-2.059-10.55-7.66-25.027-16.76-25.722-30.87z"/>
	<path id="path171" d="m93.641 156.41c7.313 0.576 17-1.221 22.639 1.029v21.609c-12.43-1.291-15.891-11.549-22.639-18.523v-4.12z"/>
	<path id="path173" d="m154.35 156.41h20.58c-3.602 11.148-10.953 18.545-21.609 22.639 0.58-7.31-1.22-17 1.03-22.64z"/>
	<path id="path175" d="m197.57 156.41c-3.078 4.469-6.676 8.418-5.146 17.494-5.412-1.162-9.586 2.783-13.377 0 2.377-6.543 7.787-10.051 9.262-17.494h9.27z"/>
	<path id="path177" d="m72.032 164.64c3.709 1.309 2.498 11.824 0 13.377-3.71-1.31-2.498-11.82 0-13.38z"/>
	<path id="path179" d="m196.54 167.73h4.115c-0.227 3.891 1.047 9.279-3.086 9.262-0.04-3.39-1.74-5.12-1.03-9.26z"/>
	<path id="path181" d="m50.422 178.02c7.807-0.26 11.579 3.514 11.318 11.32-1.76-0.047-2.664 0.764-3.086 2.057-7.78-1.04-9.945-4.95-8.232-13.38z"/>
	<path id="path183" d="m176.99 179.05c6.592 0.268 10.758 2.963 12.35 8.232-0.961 0.754-1.559 1.871-2.059 3.086-7.7 0.5-8.92-5.49-10.29-11.32z"/>
	<path id="path185" d="m218.15 179.05c4.326 4.328-3.18 15.209-10.291 11.318-0.48-7.69 4.94-9.47 10.29-11.32z"/>
	<path id="path187" d="m92.612 180.08c-0.496 8.078-3.302 13.848-11.319 14.406-8.98-6.49 0.436-15.85 11.319-14.41z"/>
	<path id="path189" d="m223.3 180.08c7.578 1.682 10.602 7.922 18.523 9.262v8.23c-5.971-1.232-10.158-4.248-18.523-3.086 1.55-6.28 1.77-8.4 0-14.4z"/>
	<path id="path191" d="m94.67 181.11c8.106 2.184 11.762 8.816 20.58 10.289v7.203c-6.333-0.869-10.012-4.395-18.522-3.086 1.114-6.6-3.173-7.8-2.058-14.4z"/>
	<path id="path193" d="m46.306 196.54c-7.264-4.479-14.649 0.43-20.581 3.086-0.328-2.416-1.625-3.861-1.029-7.203 7.527-2.078 12.824-6.385 18.523-10.289 1.195-0.168 1.83 0.227 2.058 1.027-1.034 7.07 0.968 5.88 1.029 13.37z"/>
	<path id="path195" d="m170.82 183.16c0.951 3.592 2.566 10.564 1.029 13.379-7.818-3.078-13.916 0.943-18.521 4.115 0.602-4.781-1.408-6.213 0-9.262 7.97-0.6 10.23-6.92 17.49-8.24z"/>
	<path id="path197" d="m69.973 189.34c4.773 3.459 6.508 9.955 10.291 14.406-5.293 0.881-8.379 3.969-9.262 9.26-5.52-1.684-5.209-9.197-11.319-10.289 4.348-3.54 8.29-7.49 10.29-13.38z"/>
	<path id="path199" d="m196.54 191.4c3.916 3.973 7.328 8.451 10.289 13.377-6.738-0.221-5.953 7.08-11.318 8.232-0.883-5.291-3.969-8.379-9.262-9.26 2.71-4.84 7.37-7.73 10.29-12.35z"/>
	<path id="path201" d="m246.96 192.43c1.662-0.289 1.771 0.973 3.086 1.029-1.145 19.436 2.432 43.592-2.057 59.684-8.582-0.68-19.885 1.361-26.756-1.029 3.58-4.67 17.029-0.791 24.697-2.059 2.4-17.15 0.35-38.76 1.03-57.62z"/>
	<path id="path203" d="m6.174 194.48c1.629-0.086 3.925 0.494 4.115-1.029 4.855 0.977 2.582 9.082 3.088 14.406-1.497 1.514-6.735 1.514-8.232 0 1.297-5.42-0.187-7.55 1.029-13.38z"/>
	<path id="path205" d="m120.4 194.48c0.916 0.455 1.841 0.902 2.059 2.059 0.922 22.738-1.992 41.654 0 55.566-7.028 1.689-20.756 1.689-27.783 0 4.098-4.135 15.31-1.154 22.639-2.059 4.6-13.13-0.18-36.77 3.08-55.57z"/>
	<path id="path207" d="m138.92 195.52v13.377h-12.349c0.015-6.018 1.05-7.027 0-12.348 2.49-1.98 8.27-0.66 12.35-1.03z"/>
	<path id="path209" d="m48.364 201.69c-5.371 1.145-9.977 3.404-11.318-3.088 3.634-1.48 11.306-2.04 11.318 3.09z"/>
	<path id="path211" d="m105.99 199.63c-0.758 4.287-11.49 6.377-11.318 0 3.284-2.14 7.788-2.2 11.318 0z"/>
	<path id="path213" d="m232.56 199.63c0.873 4.842-8.275 3.322-10.291 2.059-0.53-4.34 8.84-6.1 10.29-2.06z"/>
	<path id="path215" d="m174.93 200.66c-0.051 4.41-6.176 2.742-10.291 3.088-0.545-0.828-1.072-1.672-1.029-3.088 2.9-2.38 7.94-0.32 11.32 0z"/>
	<path id="path217" d="m240.79 202.72c1.785 1.645 2.229 4.631 2.057 8.232-8.236 1.365-10.463 8.742-18.521 10.289 0.684-6.17-0.934-10.043-1.029-15.436 6.72 1.71 13.73 0.86 17.49-3.08z"/>
	<path id="path219" d="m24.696 204.77c6.184 1.596 11.542 6.357 19.553 3.088 0.796 2.531-0.807 10.232 1.028 14.406-7.919-2.371-12.374-8.205-20.581-10.291 1.351-3.2-0.278-2.94 0-7.21z"/>
	<path id="path221" d="m115.25 211.98c-7.582 2.709-12.21 8.371-19.551 11.32 0.58-6.412-0.82-10.842-2.059-15.436 8.56 6.31 24.31-10.8 21.61 4.12z"/>
	<path id="path223" d="m153.32 204.77c6.271 0.588 9.535 4.186 17.492 3.088-0.691 5.15 0.953 7.965 1.029 12.348-8.023-0.551-9.818-7.332-18.521-7.203v-8.24z"/>
	<path id="path225" d="m58.655 207.86c4.611 6.754-1.37 14.092-9.262 14.406 1.6-6.29-0.407-16.19 9.262-14.41z"/>
	<path id="path227" d="m92.612 222.27c-10.174 3.631-18.862-10.229-9.262-13.377 5.878 1.67 7.216 7.88 9.262 13.38z"/>
	<path id="path229" d="m189.34 214.04c-0.691 6.855-6.926 8.168-12.35 10.291-1.92-9.71 7.5-19.69 12.35-10.29z"/>
	<path id="path231" d="m209.92 210.95c8.232-0.344 8.811 6.967 11.318 12.348-6.79-0.6-15.1-4.54-11.32-12.35z"/>
	<path id="path233" d="m182.14 242.85c-12.912-13.238-23.676-27.521-50.422-27.783-1.84 0.289-2.112-0.973-1.029-1.029 25.52-2.86 42.94 11.23 51.45 28.81z"/>
	<path id="path235" d="m84.379 272.69h-2.058c-0.903-18.561 3.481-30.396 10.29-39.104 5.898-7.541 12.929-13.447 21.609-15.434-1.879 6.018-8.188 5.799-12.348 9.26-11.537 9.6-17.036 24.37-17.491 45.27z"/>
	<path id="path237" d="m213.01 272.69h-2.059c-2.24-26.342 9.096-46.842 28.813-54.537-8.332 8.545-20.293 15.77-24.697 28.813-2.89 8.59-1.1 17.59-2.05 25.73z"/>
	<path id="path239" d="m69.973 220.21c4.18-0.496 4.986 12.035 0 11.32-1.592-2.11-1.592-9.21 0-11.32z"/>
	<path id="path241" d="m180.08 272.69h-89.525c0.377-5.219-3.299-10.578-1.028-14.406 12.157-0.191 25.358 0.662 36.016-1.029 0.489-10.553 1.021-20.734 1.029-36.016 2.776-2.025 8.991-0.611 13.378-1.029-1.725 9.166-0.143 21.258-1.029 31.9 1.033 2.053 4.549 1.623 4.115 5.145h36.016c1.28 5.77 2.05 10.44 1.02 15.45zm-51.45-2.06h8.232c0.498-3.928-0.292-6.568-2.059-8.23-5.81-0.37-8.51 1.31-6.17 8.23z"/>
	<path id="path243" d="m17.493 223.3c6.659 3.355-0.312 16.697 2.059 25.725 16.834 3.061 40.797-1.008 57.625 2.059-2.945 3.859-9.316 1.984-14.406 2.059-13.975 0.203-33.285 0.639-46.306-1.029 0.043-10.78 1.418-16.3 1.028-28.81z"/>
	<path id="path245" d="m144.06 224.33c7.84 3.307-1.639 17.922 3.088 24.695 17.17 3.068 41.477-1.002 58.654 2.059-7.547 3.715-18.895 2.059-29.842 2.059-10.678 0-22.27 0.811-30.871-1.029-2.29-7.31-0.42-18.79-1.03-27.78z"/>
	<path id="path247" d="m242.85 224.33c-1.977 5.568-0.645 14.447-1.027 21.609h-20.582c5.02-9.39 10.06-18.76 21.61-21.61z"/>
	<path id="path249" d="m24.696 225.36c11.076 1.959 15.844 10.225 21.61 17.492-3.162 6.824-14.462 2.836-21.61 3.088v-20.58z"/>
	<path id="path251" d="m113.19 225.36c4.863 3.369-0.434 16.896 4.117 20.58-8.235 0.174-13.94 1.703-21.609 0 0.729-7.96 10.769-15.22 17.489-20.58z"/>
	<path id="path253" d="m153.32 225.36c10.652 2.723 16.07 10.684 21.609 18.521-3.492 4.398-14.803 0.977-21.609 2.059v-20.58z"/>
	<path id="path255" d="m196.54 225.36c3.895 0.229 4.621 10.336 0 10.289-2.01-2.31-0.89-7.75 0-10.29z"/>
	<path id="path257" d="m50.422 227.41c4.479 0.211 8.416 2.102 12.348 0 0.188 5.025 1.041 12.611 4.116 17.494-1.962 0.438-1.862 2.939-5.146 2.059-5.589-4.7-8.738-11.84-11.318-19.55z"/>
	<path id="path259" d="m77.176 227.41h14.406c-3.25 6.355-7.48 11.729-10.29 18.523-2.964-0.123-6.735 0.563-8.231-1.029 1.203-5.99 5.428-8.97 4.115-17.49z"/>
	<path id="path261" d="m191.4 228.44c-1.436 8.297 3.754 9.969 4.117 16.465-1.326 1.418-4.471 1.018-7.203 1.029-2.572-6.346-6.262-11.576-9.262-17.494 1.9-1.16 7.64 0.74 12.34 0z"/>
	<path id="path263" d="m202.72 228.44c3.432-2.693 8.789 1.463 14.406 0-1.807 6.426-7.199 9.266-7.203 17.494h-8.232c1.29-5.51 5.43-12.03 1.02-17.49z"/>
	<path id="path265" d="m205.8 272.69h-14.408v-14.406c5.371-0.643 7.744-1.107 14.408 0-0.52 6.33 1.05 10.16 0 14.41z"/>
	<path id="path267" d="m78.206 272.69h-15.436c0.417-4.385-0.996-10.6 1.029-13.377 4.098-1.742 10.133-0.086 14.406 1.029-1.031 5 1.76 9.84 0.001 12.35z"/>
	<path id="path269" d="m187.28 272.69h-3.088c1.498-6.613-2.646-12.57 3.088-14.406v14.41z"/>
	<path id="path271" d="m58.655 272.69h-1.029c-1.926-4.793-0.099-7.268-1.029-13.377 5.271-0.43 3.12 10.76 2.058 13.38z"/>
</g>
<metadata><rdf:RDF><cc:Work><dc:format>image/svg+xml</dc:format><dc:type rdf:resource="http://purl.org/dc/dcmitype/StillImage"/><cc:license rdf:resource="http://creativecommons.org/licenses/publicdomain/"/><dc:publisher><cc:Agent rdf:about="http://openclipart.org/"><dc:title>Openclipart</dc:title></cc:Agent></dc:publisher><dc:title>Architetto -- motivo geometrico</dc:title><dc:date>2010-03-18T17:04:26</dc:date><dc:description>Drawing by Francesco 'Architetto' Rollandin. From OCAL 0.18 release.</dc:description><dc:source>http://openclipart.org/detail/32299/architetto----motivo-geometrico-by-anonymous</dc:source><dc:creator><cc:Agent><dc:title>Anonymous</dc:title></cc:Agent></dc:creator><dc:subject><rdf:Bag><rdf:li>abstract</rdf:li><rdf:li>black</rdf:li><rdf:li>black and white</rdf:li><rdf:li>clip art</rdf:li><rdf:li>clipart</rdf:li><rdf:li>geometric</rdf:li><rdf:li>symmetry</rdf:li></rdf:Bag></dc:subject></cc:Work><cc:License rdf:about="http://creativecommons.org/licenses/publicdomain/"><cc:permits rdf:resource="http://creativecommons.org/ns#Reproduction"/><cc:permits rdf:resource="http://creativecommons.org/ns#Distribution"/><cc:permits rdf:resource="http://creativecommons.org/ns#DerivativeWorks"/></cc:License></rdf:RDF></metadata></svg>
