<?xml version="1.0"?>
<svg xmlns:rdf="http://www.w3.org/1999/02/22-rdf-syntax-ns#" xmlns="http://www.w3.org/2000/svg" xmlns:cc="http://web.resource.org/cc/" xmlns:dc="http://purl.org/dc/elements/1.1/" xmlns:svg="http://www.w3.org/2000/svg" id="svg3018" viewBox="0 0 1373.6 1561.9" version="1.0">
  <g id="layer1" transform="translate(-78.584 236.78)">
    <path id="path3095" d="m187.29 1322.9c-4.74-1.6-7.18-3.1-9.31-5.8-2.69-3.4-2.9-4.3-3.19-13.9-0.19-6.2 0.2-12.2 0.99-15.2 3.07-11.7 21.23-35.7 33.11-43.9 2.29-1.6 4.99-3.9 6-5.1 1.63-2 4.55-4.4 17.15-14.1 2.02-1.5 4.8-3.9 6.17-5.2 2.29-2.1 9.78-5.9 25.34-12.9 3.21-1.4 7.18-3.7 8.83-5.1 1.66-1.4 4.25-2.5 5.83-2.5 1.57 0 4.12-1 5.68-2.3 1.55-1.3 4.31-2.9 6.12-3.5s4.46-2 5.89-3.1c1.42-1.2 3.15-2.1 3.84-2.1s3.37-1.7 5.95-3.9c2.58-2.1 7.02-5 9.86-6.4 7.73-3.9 24.2-14.7 43.16-28.2 2.75-2 7.93-5.5 11.51-7.9 4.17-2.7 8.62-6.9 12.38-11.7 3.23-4 6.69-8.1 7.69-9 0.99-0.9 5.52-6.5 10.04-12.5 9.13-12 16.92-27.2 17.64-34.4 1.32-13.1-13.71-38.2-28.87-48.4-2.53-1.7-7.04-4.9-10.01-7.2-2.97-2.2-6.52-4.4-7.89-4.8-3.83-1.2-11.79-10-12.51-13.87-0.35-1.84-0.13-6.69 0.49-10.78 1.89-12.57 1.29-23.14-1.96-34.06-1.58-5.33-3.31-10.52-3.84-11.53s-3.07-6.53-5.64-12.25c-5.19-11.56-13.82-23.52-24.62-34.09-8.59-8.41-9.38-9.93-7.48-14.48 0.81-1.93 2.62-5.03 4.02-6.86 1.41-1.84 2.55-3.8 2.55-4.36 0-0.55 1.28-2.76 2.84-4.92 3.66-5.04 11.32-19.56 10.67-20.21-0.97-0.97-11.44 11.41-14.62 17.28-1.77 3.27-4.18 6.87-5.36 8s-2.77 3.62-3.53 5.55c-0.76 1.92-2.24 4.68-3.29 6.13-1.04 1.44-1.74 3.34-1.55 4.21s5.41 6.96 11.59 13.54c6.19 6.58 11.25 12.38 11.25 12.89 0 0.5 0.9 1.73 2 2.73 1.1 0.99 2 2.22 2 2.72 0 0.51 1.26 2.8 2.79 5.1s3.52 6.43 4.42 9.18c7.26 22.18 9.46 33.99 8.21 44.17-0.46 3.76-0.71 9.08-0.56 11.83 0.16 2.75-0.21 7.2-0.82 9.88-1.35 6-0.65 7 8.27 11.7 11.43 6.1 28.1 18.8 31.88 24.3 1.17 1.7 3.64 4.7 5.49 6.7 3.35 3.5 3.36 3.6 2.59 10.4-0.74 6.7-0.88 7-3.77 7.6-3.87 0.8-12.41 5.1-16.1 8.2-1.59 1.3-5.07 3.7-7.73 5.2s-5.04 3.3-5.28 4c-0.25 0.6-3.81 4.2-7.93 7.9-7.39 6.7-7.52 6.8-10.94 5.6-4.23-1.4-10.11-7.9-14.35-15.8-2.74-5.2-8.83-12.2-15.67-18.1-3.32-2.9-13.11-8.1-15.18-8.1-1.06 0-2.81-0.6-3.87-1.4-3.16-2.4-5.46-1.8-10.43 2.7-2.58 2.3-7.48 6.2-10.9 8.6-3.41 2.4-7.06 5.5-8.11 6.8-1.05 1.4-3.74 3.8-5.98 5.4s-5.83 4.9-7.98 7.2c-8.08 8.7-13.94 15.7-15.1 17.8-0.66 1.2-3.16 4.7-5.56 7.6-2.39 3-5.09 6.8-5.99 8.6s-3.88 6.5-6.61 10.6c-5.56 8.2-20.25 37.4-21.91 43.6-0.6 2.2-1.94 5.2-2.98 6.7-1.04 1.4-1.9 3.2-1.9 4 0 0.7-1.14 3-2.53 5.1-1.39 2-3.36 5.6-4.37 8-1.9 4.4-12.1 21.5-14.61 24.5-1.46 1.8-4.83 6.4-15.29 20.9-3.24 4.5-7.75 9.8-10.03 11.7s-5.55 4.8-7.26 6.6c-5.51 5.5-9.16 7.7-21.26 12.9-10.49 6-18.35 4.4-28.901-0.1-3.86-2.5-5.173-8.7-5.731-9.8-0.59-1.1-3.644-9.7-3.644-21.6 0-18.9 2.779-21.3 4.63-23.7 1.1-1.4 2-3.3 2-4.3 0-2.7 4.048-13.7 5.778-15.6 0.843-1 2.741-1.8 4.219-1.8 2.27 0 2.873-0.6 3.89-4 0.662-2.2 2.649-5.7 4.409-7.7s4.33-5.6 5.7-7.9c2.89-5 20.48-27.5 26.75-34.2 2.34-2.5 4.25-5.3 4.25-6.2 0-2.6 38.61-40.6 45.5-44.9 3.02-1.8 12.44-9.7 18-14.9 1.65-1.6 3.9-3.4 5-4 3.03-1.6 23.72-22.1 27.25-27 2.59-3.6 2.96-4.7 2.24-7.2-0.89-3.1 0.77-6 3.5-6 2.3 0 2.29-2.2-0.05-8.7-2.31-6.4-11.62-19.85-16.78-24.21-4.96-4.2-13.64-8.98-17.47-9.63-13.9-2.37-22.97-4.64-25.15-6.29-2.29-1.74-2.5-2.5-2.22-7.79 0.18-3.22 0.89-7.03 1.6-8.46 1.49-3.03 1.2-22.15-0.41-26.38-0.55-1.46-1.01-3.93-1.01-5.5s-1.51-5.7-3.35-9.19c-1.85-3.48-3.71-7.46-4.14-8.83-0.42-1.38-2.06-4.14-3.64-6.14-1.58-2.01-2.87-4.11-2.87-4.67 0-0.57-2.78-3.51-6.18-6.54l-6.17-5.5 3.21-6.03c1.77-3.31 3.83-8.08 4.59-10.59 0.75-2.51 3.38-7.82 5.84-11.8s4.81-8.36 5.21-9.73c0.41-1.38 1.3-3.18 1.99-4 2.14-2.56 6.24-13.21 7.52-19.5 0.67-3.3 1.81-8.03 2.52-10.5 3.48-12 3.62-26.43 0.35-37.18-2.58-8.53-5.52-15.48-6.9-16.34-0.54-0.33-0.98-1.38-0.98-2.35 0-0.96-1.12-3.27-2.5-5.13-4.81-6.53-2.89-12.05 6.3-18.09 8.16-5.37 23.51-20.75 26.86-26.91 2.97-5.49 4.85-8.81 9.08-16.13 2.36-4.07 3.26-6.87 3.26-10.12 0-5.95 2.56-9.05 10.88-13.18 3.65-1.81 10-5.09 14.12-7.3 4.13-2.21 9.08-4.36 11-4.77 1.93-0.41 6.08-2.04 9.23-3.62 3.14-1.59 6.35-2.88 7.12-2.88 0.78 0 3.83-1.1 6.78-2.44 2.96-1.34 10.95-4.06 17.77-6.05 6.81-1.99 14.11-4.49 16.21-5.57 2.11-1.07 6.47-2.56 9.69-3.31 3.22-0.76 6.91-1.94 8.21-2.63 6.67-3.57 39.29-8.37 56.26-8.27 13.01 0.08 18.72 0.94 29.05 4.38 3.19 1.06 6.24 1.67 6.76 1.35 1.27-0.79 4.92 0.43 4.92 1.65 0 1.9-4.56 7.12-9.2 10.53-4.85 3.57-7.06 6.9-9.24 13.97-1.68 5.43-10.12 18.39-11.98 18.39-0.8 0-2.05-0.8-2.77-1.77-2.37-3.2-6.69-5.25-14.47-6.86-12.3-2.54-17.19 0.12-22.35 12.16-2.44 5.7-1.65 7.58 4.24 9.97 11.95 4.87 25.77 5.97 25.77 2.05 0-1.91 3.41-4.55 5.86-4.55 3 0 3.78 2.62 1.89 6.38-0.87 1.72-2.74 5.68-4.16 8.81s-2.99 5.94-3.47 6.24c-0.96 0.59-2.9-1.3-3.01-2.93-0.08-1.1-14.3-2.45-26.04-2.47-9.18-0.02-14.57 2.17-14.57 5.94 0 5.21 20.73 12.39 32.51 11.25 4.47-0.43 4.99-0.27 4.99 1.51 0 3.23-4.12 6.72-10.19 8.63-4.1 1.29-5.53 2.19-5.14 3.21 0.3 0.79 1.64 1.43 2.97 1.43 5.46 0 3.61 5.48-3.51 10.41-4.78 3.31-6.27 2.73-8.23-3.24-1.52-4.6-4.7-8.97-7.08-9.73-1.01-0.32-3.15-1.69-4.76-3.05-2.78-2.34-3.12-2.39-6.42-1.01-4.15 1.73-5.31 3.65-6.18 10.22l-0.65 4.95 4.85 2.47c3.87 1.98 6.4 2.49 12.57 2.54 4.25 0.03 8.03 0.37 8.42 0.75 0.38 0.38 0.09 1.82-0.65 3.19-1.78 3.33-0.53 4.33 2.42 1.93 13.58-11 14.78-12.26 26.22-27.44 9.15-12.17 20.31-34.98 20.35-41.62 0.01-1.72 0.66-3.66 1.45-4.32 0.79-0.65 1.74-2.62 2.12-4.37 1.21-5.6 7.53-24.02 9.24-26.91 0.91-1.54 5.04-5.03 9.18-7.75 7.26-4.78 16.46-12.9 20.44-18.04 1.05-1.37 4.43-5.51 7.5-9.21 12.58-15.14 18.98-25.89 19.18-32.2 0.31-9.53 2.92-10.65 16.57-7.16 24.38 6.23 33.19 8.86 42.68 12.72 12.41 5.06 18.76 7.53 24.65 9.6 2.48 0.87 5.58 2.41 6.89 3.43 1.31 1.01 3.01 1.84 3.77 1.84 3.05 0 24.67 11.76 38 20.66 9.43 6.3 11.64 9.72 8.94 13.83-1.12 1.71-2.55 2.51-4.5 2.51-4.39 0-5.47 2.02-3.59 6.73 2.26 5.63 7.72 8.57 14.28 7.7l4.88-0.64 4.47 5.35c10.23 12.25 10.61 16.83 1 11.93-2.09-1.07-8.12-3.06-13.4-4.43-5.28-1.38-10.48-2.97-11.55-3.54-2.84-1.52-18.07-1.68-22.35-0.23-3.46 1.16-6.84 4.7-6.84 7.16 0 1.95 5.24 8.04 8.24 9.59 3.26 1.68 29.39 12.45 37.53 15.46 6.31 2.33 21.32 2.92 23.72 0.93 1.99-1.65 1.91-2.81-0.49-7.51-3.69-7.25-2.16-8.41 4.41-3.32 3.98 3.08 13.08 14.51 15.01 18.83 1.26 2.82-0.88 4.28-4.92 3.36-4.31-0.98-8.45-0.82-9.65 0.39-1.84 1.83 0.01 4.6 6.82 10.24 10.4 8.62 10.59 8.84 9.86 11.84-1.06 4.3-2.92 5.38-12.21 7.09-6.37 1.16-8.88 2.04-9.1 3.19-0.37 1.91 17.41 17.66 23.28 20.64 6.69 3.38 38.05 13.35 39.84 12.66 0.92-0.35 2.38-2.13 3.25-3.95 2.49-5.25 4.21-5.17 9.08 0.39 2.37 2.72 6.23 6.06 8.57 7.44 2.35 1.38 5.36 3.68 6.69 5.1 2.86 3.07 5.07 3.36 5.07 0.68 0-2.36-4.39-7.75-6.97-8.57-1.04-0.33-5.18-4.49-9.21-9.24-9.48-11.19-16.17-18.62-22.07-24.52-2.61-2.62-4.75-5.05-4.75-5.41s-2.36-3.22-5.25-6.35c-6.24-6.77-10.13-11.57-29.17-35.99-7.93-10.18-16.97-21.77-20.08-25.76s-6.79-9.39-8.16-12c-1.38-2.61-3.51-5.87-4.73-7.24-1.23-1.38-3.99-5.2-6.13-8.5-2.15-3.3-4.66-6.9-5.59-8-0.92-1.1-6.05-10.55-11.39-21-5.35-10.45-10.68-20.58-11.86-22.5-2.5-4.1-3.36-5.6-10.54-18.38-2.98-5.29-5.82-9.62-6.32-9.62-1.21 0-0.23 3.06 3.68 11.5 1.79 3.85 4.07 9.02 5.08 11.5 1.01 2.47 2.4 5.17 3.08 6 0.68 0.82 2.55 4 4.16 7.06 1.6 3.06 4.16 7.68 5.67 10.26 5.18 8.83 1.21 9.97-11.58 3.34-4.6-2.38-12.19-6.37-16.87-8.86-4.67-2.49-10.14-5.06-12.16-5.71-4.53-1.47-5.3-3.24-2.78-6.43 2.27-2.89 2.72-12.35 0.69-14.78-2.54-3.05-9.72-6.82-15.89-8.34-3.5-0.86-9.28-2.43-12.86-3.49-3.57-1.06-8.96-2.48-11.97-3.14-3.02-0.67-7.29-2.03-9.5-3.04-2.22-1-5.08-1.84-6.37-1.85s-3.54-0.84-5-1.84-4.68-2.4-7.16-3.1c-2.47-0.71-9.45-3.21-15.5-5.57-11.44-4.45-22.01-7.51-25.95-7.51-1.27 0-2.86-0.68-3.55-1.5-0.68-0.83-2.08-1.5-3.1-1.5s-3.55-0.63-5.63-1.4c-2.07-0.77-7.59-2.39-12.27-3.59-4.67-1.2-9.85-2.87-11.5-3.7-4.27-2.16-19-6.31-22.37-6.31-1.91 0-4.4 1.37-7.59 4.18l-4.75 4.18 0.57 6.07c0.31 3.34 0.74 7.72 0.96 9.73 0.77 7.21 8.97 13.83 22.68 18.33 4.68 1.53 10.3 3.81 12.5 5.06 4.8 2.72 17.04 6.45 21.21 6.45 3.05 0 11.21 2.52 17.99 5.56 14.21 6.37 15.31 7.4 11.36 10.6-2.88 2.33-13.72 2.45-19.56 0.22-2.2-0.84-6.47-2.1-9.5-2.8-3.02-0.7-10.67-2.89-17-4.87-6.32-1.97-14.61-4.35-18.42-5.28-6.61-1.61-6.98-1.6-8.25 0.13-0.73 1-1.33 4.34-1.33 7.41v5.59l8.14 8.78c10.45 11.27 17.79 15.19 41.61 22.23 0.69 0.2 1.25 1.24 1.25 2.3 0 2.42-7.3 5.13-13.8 5.13-4.84 0-23.64-3.34-31.8-5.65-2.8-0.79-8.99-1.84-13.74-2.33-4.76-0.5-9.03-1.14-9.51-1.43-0.94-0.58-21.98-5.33-29.15-6.58-2.47-0.43-5.85-1.25-7.5-1.83s-5.02-1.58-7.5-2.21c-2.47-0.63-6.79-2.24-9.6-3.56-2.8-1.33-5.6-2.41-6.22-2.41s-4.5-1.58-8.61-3.5c-4.11-1.93-8.16-3.5-9.01-3.5-3.8 0-29.76-12.44-31.59-15.13-0.3-0.44-2.32-1.54-4.5-2.44-8.4-3.5-26.46-19.71-26.48-23.77 0-1.19-0.69-4.64-1.51-7.66-4.36-15.92-5.58-25.51-6.04-47.5-0.25-12.1-0.09-24.26 0.37-27.03 0.45-2.76 0.46-6.36 0.01-8-1.56-5.72-0.83-49.6 1.23-73.57 0.6-6.92 1.25-14.8 1.46-17.5 2.84-37.45 3.06-39.45 5.55-50.14 1.12-4.82 2.19-12.35 2.37-16.76 0.19-4.4 0.84-11.15 1.45-15 2.55-16.12 4.18-28.63 5.02-38.63 0.5-5.85 1.33-11.47 1.84-12.5 1.03-2.04 3-10.82 3.69-16.37 0.23-1.93 1.1-6.65 1.91-10.5 0.82-3.85 2.26-11.28 3.2-16.5 0.94-5.23 2.33-10.72 3.09-12.2 0.76-1.49 1.37-3.7 1.37-4.91 0-1.22 0.74-4.73 1.64-7.8 2.93-10.04 11.35-37.52 12.43-40.59 0.59-1.65 1.73-5.48 2.54-8.5 1.36-5.12 4.86-16.21 9.61-30.501 1.1-3.3 3.01-7.8 4.26-10 1.24-2.2 2.55-5.655 2.92-7.678 0.97-5.365 10.09-26.713 20.2-47.322 1.89-3.85 3.43-7.478 3.42-8.063s1.85-4.148 4.12-7.9192c2.27-3.7709 4.7-8.9175 5.38-11.437 0.69-2.5192 2.65-7.6598 4.37-11.424 1.71-3.764 3.11-7.246 3.11-7.739 0-1.274 10.76-20.637 14.12-25.418 2.81-3.993 7.98-15.321 13.46-29.5 1.6-4.125 3.83-8.443 4.96-9.596 1.82-1.85 6.45-8.292 11.69-16.273 0.95-1.45 3.1-5.11 4.79-8.13 1.68-3.03 4.05-6.95 5.27-8.72 3.92-5.69 6.54-9.59 12.62-18.78 3.27-4.95 7.37-10.8 9.09-13 1.73-2.2 5.13-6.7 7.55-10 6.75-9.21 9.98-13.47 15.18-20.04 6.41-8.11 26.44-30.46 27.29-30.46 1.29 0 8.09-7.21 10.7-11.34 5.14-8.17 9.54-12.66 12.4-12.66 3.75 0 11.3 6 19.51 15.5 3.81 4.4 8.2 9.35 9.77 11 1.56 1.65 4.01 4.57 5.44 6.5 1.42 1.92 7.22 8.77 12.88 15.21s10.28 11.94 10.28 12.23c0 0.28 2.93 4.17 6.5 8.63 3.58 4.47 6.5 8.51 6.5 8.99s1.29 2.35 2.87 4.15c1.57 1.81 5.81 7.62 9.42 12.91 3.6 5.29 8.39 12.04 10.63 15s4.08 5.89 4.08 6.51 0.66 1.67 1.45 2.33c2.16 1.79 14.19 17.985 23.05 31.039 7.65 11.259 9.84 14.222 16.09 21.773 4.57 5.512 17.19 23.209 22.91 32.122 2.75 4.284 6.37 9.548 8.05 11.698 1.67 2.149 3.54 5.063 4.14 6.477 0.61 1.413 2.84 4.622 4.96 7.1325 2.12 2.51 5.65 7.0987 7.84 10.197 2.19 3.0985 5.7 7.079 7.81 8.8455 2.1 1.767 5.81 6.147 8.23 9.734s6.18 8.996 8.36 12.021c2.17 3.025 5.8 8.65 8.07 12.5s6.62 10.6 9.67 15 6.65 10.164 8 12.808c1.36 2.644 4.36 7.651 6.67 11.126 7.03 10.562 13.86 21.567 16.43 26.447 1.34 2.54 3.93 6.87 5.75 9.62 2.76 4.16 3.41 6.23 3.87 12.29 0.9 12.02 5.41 20.09 16.12 28.81 4.24 3.45 6.26 6.13 8.99 11.88 3.91 8.23 3.76 10.58-0.97 15.52-6.12 6.38-15.29 16.13-18.26 19.4-1.8 1.98-3.68 3.6-4.17 3.6s-4.38 4.05-8.66 8.99c-4.27 4.95-8.54 9.24-9.47 9.53-0.94 0.3-2.81 2.22-4.17 4.26-2.64 3.97-7.76 9.94-14.26 16.63-4.53 4.67-13.19 14.61-16.62 19.09-1.27 1.65-2.85 3.34-3.51 3.76-0.67 0.41-2.22 2.44-3.45 4.5-1.23 2.05-8.28 9.81-15.67 17.24-17.86 17.93-22.11 22.53-32.75 35.43-12.29 14.91-22.53 26.55-31.73 36.07-9.23 9.56-12.59 14.02-16.97 22.57-2.39 4.66-3.84 6.43-5.3 6.43-1.71 0-2.09-0.9-2.68-6.24-0.82-7.43-2.16-9.59-7.96-12.84-7.68-4.32-21.02-10.39-26.16-11.92-8.01-2.38-17.09-6.23-34.7-14.72-21.42-10.33-57.17-28.31-61.28-30.83-1.77-1.08-4.79-2.67-6.72-3.55-1.92-0.87-8.67-4.18-15-7.36-16.28-8.17-17.52-8.49-27.33-7.06-10.12 1.49-10.94 1.91-12.01 6.12-0.47 1.87-1.45 5.65-2.17 8.4-0.73 2.75-1.88 7.7-2.57 11-0.68 3.3-1.69 6.89-2.24 7.98-2.8 5.58-2.62 8.56 0.8 13.92 4.46 6.96 10.51 12.25 15.6 13.62 2.31 0.62 12.57 4.97 22.81 9.67s23.56 10.75 29.61 13.46c6.05 2.7 11.82 5.37 12.82 5.93 1.92 1.08 14.25 6.21 26.65 11.1 4.11 1.61 11.08 4.68 15.5 6.81s14.11 6.81 21.53 10.39c7.43 3.58 15.26 7.09 17.41 7.81 7.76 2.6 7.45 8.05-0.51 8.64-4.41 0.32-9.37-0.71-15.9-3.31-1.92-0.77-8.67-3.42-15-5.9-6.32-2.48-15.44-6.33-20.26-8.57-4.83-2.23-9.19-4.05-9.71-4.05-1.88 0-22.97-9.39-40.05-17.84-18.61-9.19-19.07-9.41-31.48-14.62-19.52-8.21-27.49-10.21-33.77-8.47-4.96 1.36-5.99 3.74-5.95 13.71 0.02 6.17-0.47 9.55-1.85 12.58-1.19 2.61-1.89 6.45-1.9 10.39-0.02 5.77 0.25 6.54 3.54 10.19 4.12 4.56 11.58 9 19.43 11.55 3.03 0.98 10.27 3.72 16.1 6.07 5.83 2.36 12.35 4.62 14.49 5.02s5.88 1.79 8.3 3.08c2.43 1.28 5.28 2.34 6.35 2.34s5.61 1.64 10.1 3.65 11.99 5.11 16.66 6.88c4.68 1.78 13.68 5.59 20 8.47 6.33 2.88 17.8 7.91 25.48 11.17 14.11 6 23.94 11.08 25.12 12.99 1.24 2.01-2.4 4.01-8.21 4.52-4.82 0.42-7.7-0.07-15.89-2.7-5.5-1.77-11.8-4.13-14-5.25-2.2-1.11-8.05-3.49-13-5.28s-11.25-4.17-14-5.28c-2.75-1.12-8.82-3.25-13.5-4.73-4.67-1.49-8.96-3.07-9.52-3.51-0.9-0.7-14.51-5.74-30.98-11.46-2.75-0.96-7.02-2.53-9.5-3.49-25.04-9.75-27.88-10.3-35-6.73l-4.5 2.25 0.03 18 0.02 18 3.96 3.89c2.18 2.13 5.55 4.86 7.48 6.06 4.85 3.01 28.21 12.92 35.51 15.08 3.3 0.97 16.58 5.31 29.5 9.64 12.93 4.34 29.8 9.87 37.5 12.3 7.7 2.42 20.88 6.91 29.29 9.97 8.4 3.06 15.96 5.56 16.8 5.56 0.83 0 5.51 1.4 10.4 3.1l8.89 3.11 5.56-2.64 5.56-2.63v-4.85c0-5.13 1.31-7.09 4.92-7.36 1.15-0.09 2.08-0.48 2.08-0.87 0-1.09-7.99-16.72-11.44-22.37-8.26-13.55-14.53-28.75-15.75-38.22-0.98-7.58-0.89-8.7 1.2-14.28 2.49-6.66 10.88-19.3 14.11-21.25 2.08-1.26 17.47-19.38 21.86-25.74 1.32-1.93 3.72-4.85 5.33-6.5 1.6-1.65 3.93-4.58 5.18-6.5 1.25-1.93 3.42-4.73 4.83-6.24 1.41-1.5 6.28-7.35 10.82-13 4.54-5.64 12.1-14.59 16.81-19.88 4.7-5.28 12.6-14.24 17.55-19.9s9.94-11.29 11.08-12.51 3.08-3.51 4.31-5.09c1.23-1.59 6.82-7.61 12.42-13.38 5.61-5.78 11.99-12.68 14.19-15.35s5.35-6.5 6.99-8.5c1.65-2.01 8.18-9.28 14.52-16.15 6.33-6.88 13.07-14.53 14.97-17 1.9-2.48 5.74-6.75 8.53-9.5 2.8-2.75 7.7-7.93 10.9-11.5 3.2-3.58 10.15-11 15.45-16.51 5.31-5.5 16.37-17.2 24.6-26 22.26-23.8 30.89-32.1 36.88-35.49 6.7-3.78 11.22-8.11 16.33-15.66 2.18-3.21 5.5-8.02 7.4-10.68 1.89-2.66 3.93-5.72 4.55-6.79 0.61-1.07 2.94-3.17 5.18-4.66s6.69-4.76 9.89-7.27 8.51-6.62 11.81-9.14c3.3-2.521 9.15-8.119 13-12.441 9.39-10.543 15.16-15.798 24.52-22.36 4.31-3.025 12.49-9.132 18.16-13.57 5.68-4.439 13.2-9.599 16.72-11.466 3.52-1.87 8.9-5.995 11.98-9.179 3.07-3.18 8.77-7.833 12.66-10.34 4.21-2.711 8.82-6.782 11.37-10.052 2.36-3.0221 6.16-6.6961 8.44-8.1643 2.29-1.4683 6.87-5.1578 10.24-8.199 3.3-3.0411 8.3-6.7887 11.2-8.3277 5.6-3.029 34.3-24.12 35.4-26.033 0.7-1.275 7-6.028 22-16.558 5.3-3.748 10.9-7.811 12.5-9.03 9.1-7.097 21-15.616 26-18.567 3.2-1.869 8.7-5.111 12.2-7.206 17-10.168 36.6-20.217 43.1-22.127 5-1.45 21.1-7.5 30-11.22 14.7-6.15 46.1-16.56 54-17.93 3-0.52 8.5-1.45 12.2-2.07 3.6-0.63 15.7-1.21 26.9-1.3l20.3-0.16 1.3 7c1 5.42 1.1 8.35 0.2 13-0.6 3.3-1.2 8.02-1.2 10.5-0.1 2.47-1 6.22-2 8.33-2 4.2-1.6 8.669 0.8 8.669 3 0 1.2 4.285-4.3 10.185-1.8 2.015-2.3 3.328-1.8 5.261 0.5 1.822 0 3.437-1.5 5.515-1.2 1.616-2.5 4.874-3 7.239-0.4 2.365-2.1 9.415-3.8 15.667-2.2 8.39-2.8 11.857-2 13.241 1.1 2.055-0.7 6.477-3.5 8.838-0.9 0.714-1.6 2.764-1.6 4.554 0 1.791-0.6 3.777-1.4 4.415s-3.1 5.081-5.1 9.873c-2.9 6.6869-3.9 10.456-4.3 16.212-0.2 4.1253-0.9 8.044-1.4 8.709s-0.7 2.493-0.3 4.061c0.4 2.137 0.1 3.315-1.5 4.7-1.1 1.016-2.5 3.613-3.1 5.771-0.5 2.158-2.5 6.024-4.3 8.591-5.8 8.251-6.8 12.238-7.2 27.609-0.3 11.889-0.8 14.832-2.8 20.002-2.9 7.25-3.6 11.919-4 29.058-0.1 7.15-0.6 13.79-1 14.75-0.5 0.96-1.8 1.75-3.1 1.75-2.4 0-2.9 0.79-3.9 7-0.4 1.92-1.3 5.75-2 8.5-0.8 2.75-2.2 9.5-3.1 15-1 5.5-2.1 11.59-2.6 13.53s-1.5 7.34-2.4 12c-0.8 4.66-2.3 10.86-3.2 13.77-1.2 3.7-1.4 5.51-0.6 6 0.7 0.46 0.9 3.61 0.5 9.02-0.4 7.45-0.7 8.42-2.7 9.17-1.8 0.7-2.3 1.89-2.8 6.68-0.5 4.41-0.3 6.06 0.7 6.77 1.2 0.75 0.6 2.09-2.7 6.86-7.2 10.25-7.7 11.12-7.7 14.7 0 1.92-0.9 5.5-2 7.95-2.7 5.93-4.2 11.81-4.1 15.96 0.1 1.87-0.7 5.25-1.8 7.5-14.8 31.72-15.7 34.39-18 51.09-0.6 4.4-1.8 13.17-2.7 19.5-1.1 7.74-2.7 14.44-5.1 20.5-1.9 4.95-3.7 10.35-4 12s-1.1 3.7-1.9 4.56c-0.7 0.87-1.7 3.01-2 4.78-0.4 1.76-1 3.44-1.5 3.74s-0.9 2.28-0.9 4.42c0 2.13-0.4 4.16-1 4.5-0.5 0.34-1 1.55-1 2.69s-0.9 3.6-2.1 5.47c-1.6 2.55-1.8 3.73-1 4.73s0.6 1.94-0.8 3.81c-3.7 4.62-8.3 17.94-7.7 21.9 0.5 2.76 0.2 4.01-1.3 5.31-3.3 3.04-7 12.82-7.7 20.66-0.5 5.79-1.2 8.08-3.1 10.38-2.1 2.47-2.4 3.74-2 7.68 0.3 3.91 0.1 4.8-1.4 5.18-1.1 0.28-2.2 2.13-2.9 4.74-0.6 2.35-1.7 5.21-2.5 6.36-1.4 2.35-4.8 13.88-10.5 36.09-2.2 8.25-5.3 18.6-7 23s-5.3 14.52-7.9 22.5c-2.7 7.97-5.3 15.62-5.9 17-3.5 8.49-8.5 21.81-11.3 30-1.7 5.22-4.5 11.42-6 13.77-3 4.55-16.6 32.07-21.6 43.73-1.7 3.85-4.3 10.79-5.7 15.43-1.5 4.64-4 10.94-5.6 14-1.5 3.06-4.3 8.72-6.1 12.57s-4.8 9.16-6.6 11.8c-3.3 4.97-11.3 20.9-11.3 22.65 0 0.54-2.2 4.27-4.9 8.27-2.6 4-6.8 11.1-9.1 15.78-2.4 4.67-7 12.82-10.2 18.09-3.2 5.28-5.79 10.01-5.79 10.52s-1.77 3.08-3.94 5.7c-2.17 2.63-4.26 5.77-4.65 6.98-0.38 1.2-2.39 4.22-4.47 6.7s-6.21 8.11-9.17 12.51c-3.99 5.93-7.44 9.57-13.33 14.06-4.36 3.34-9.47 6.6-11.34 7.25-4.19 1.47-23.99 1.52-30.1 0.08-2.47-0.58-5.36-1.23-6.41-1.45-4.63-0.94-19.96-5.75-22.4-7.03-1.48-0.77-3.19-1.4-3.8-1.4-2.07-0.02-25.81-10.11-32.39-13.78-3.57-1.99-8.75-4.77-11.51-6.17-2.75-1.41-7.48-4.24-10.5-6.29-11.68-7.95-36.39-24.41-40.83-27.21-6.63-4.18-25.48-19-32.61-25.64-5.97-5.55-9.4-7.92-11.48-7.92-1.56 0-1.3 1.36 0.68 3.56 0.97 1.07 4.12 4.88 7 8.47 2.89 3.6 6.95 7.94 9.02 9.65 2.06 1.71 6.68 6.14 10.25 9.84 10.05 10.44 10.26 10.62 19.13 16.8 12.59 8.76 34.12 20.57 51.19 28.08 7.64 3.36 7.16 5.2-1.23 4.81-5.25-0.25-8.17-1.27-19.39-6.75-7.27-3.55-14.79-6.72-16.72-7.06-4.19-0.73-11.46-3.04-14.25-4.54-5.51-2.95-31.53-1.52-49.44 2.71-11.87 2.8-17.46 4.85-37.31 13.67-29.16 12.95-84.15 41.94-82.57 43.52 0.73 0.72 10.39-1.74 19.12-4.87 4.43-1.59 8.72-2.89 9.54-2.89s7.32-2.06 14.45-4.58 19.26-6.09 26.96-7.95c7.7-1.85 16.56-4.26 19.69-5.34 10.53-3.66 32.54-8.13 45.47-9.24 20.65-1.78 55.17-1.5 65.84 0.53 9.41 1.78 21.14 3.79 33 5.66 3.85 0.61 11.28 2.4 16.5 3.98 5.23 1.58 12.88 3.59 17 4.47 11.13 2.38 15.05 4.16 19.75 8.98 5.48 5.61 5.6 8.52 0.53 12.82-2.05 1.75-5.08 4.56-6.75 6.27-1.66 1.71-6.63 5.38-11.03 8.16-7.06 4.47-10.3 6.15-20.5 10.63-1.37 0.6-4.25 2.34-6.4 3.85-2.14 1.52-4.52 2.76-5.27 2.76-2.93 0-26.69 13.62-31.83 18.24-2.06 1.85 5.23-0.58 13.3-4.45 9.8-4.69 11.5-4.51 10.61 1.1-0.59 3.65-0.41 4.05 2.43 5.52 3.95 2.05 16.25 2.04 21.66-0.02 2.2-0.83 5.43-1.95 7.17-2.48 5.31-1.61 12.05-5.83 15.37-9.6 3.35-3.82 3.31-3.36 1.4-15.92-0.97-6.43 3.99-14.38 11.57-18.52 5.72-3.13 11.02-7.51 11.59-9.6 0.34-1.23 0.12-3.66-0.49-5.4-1.47-4.22-1.4-8.6 0.14-9.13 0.69-0.24 2.52 0 4.06 0.53s8.58 0.78 15.63 0.56c11.89-0.37 13.25-0.61 18.48-3.36 13.5-7.1 26.74-22.94 25.28-30.26-0.78-3.9 0.52-5.63 3.63-4.84 2.3 0.57 2.58 0.32 2.86-2.62 0.42-4.33 3.7-4.71 11.1-1.3 3.1 1.4 6.4 2.55 7.4 2.55 2.3 0 10.3-7.96 10.3-10.25 0-4.66-11-4.71-19.9-0.09-3.6 1.88-5.48 2.35-6.22 1.6-1.69-1.68-0.23-4.47 5.02-9.66 6.1-6.03 10.5-6.85 19.8-3.7 7.1 2.4 11.2 2.57 16.5 0.69 4-1.43 18.7-10.15 20.3-12.07 0.6-0.64 3.3-2.87 6-4.94 5.2-3.94 6.8-5.37 25.6-23.76 11.3-11.02 16-16.14 28.4-30.38 3.3-3.8 11.5-12.54 18.1-19.43 6.7-6.88 19.3-20 28-29.16 15.2-15.85 43.6-41.01 55.5-49.1 3-2.04 9.9-6.76 15.4-10.5 16.6-11.25 45.7-24.73 62-28.67 3.9-0.93 9.3-2.36 12.2-3.17 16.5-4.68 38.1-3.92 52.5 1.85 11.3 4.53 16.5 8 18.3 12.24 1.7 4.17 1.4 4.15 19 1.59 7.2-1.04 16.6-2.2 21-2.57s9.5-0.89 11.2-1.15c2.7-0.41 3.9 0.17 7.8 3.76 7.2 6.55 10.5 9.08 10.5 32.64l-2.7 15.94-3.4 8.45c-5.2 8.12-8 9.84-15.7 9.82-3.7 0-7.2-0.36-7.9-0.78-2.4-1.55-7.2-9.79-7.3-12.45 0-5.87 6.7-8.44 14.6-5.57 4.1 1.48 6 0.16 7.5-5.35 0.5-2.16 1.7-4.18 2.5-4.49 2.4-0.92 1.9-13.4-0.6-16.61-1.1-1.4-2-3.64-2-4.98 0-2.47-2.7-5.75-4.8-5.75-0.6 0-1.4-0.65-1.9-1.44-0.7-1.25-2.4-1.25-12.8 0.01-6.6 0.79-15.6 2.02-20 2.72-7.8 1.25-8 1.36-8.3 4.25-0.2 1.63 0.4 6.3 1.4 10.39 1.5 6.36 1.6 8.62 0.6 15.81-1.3 10.07-4.8 16.73-12.5 24.19-5.8 5.68-13.4 8.63-20 7.76-5.6-0.75-6.7-2.13-6.7-8.24 0-6.21 3.1-10.88 8-11.95 1.6-0.36 5.2-2.62 7.8-5.03 8.3-7.45 11.4-19.26 7.2-27.48-1.8-3.63-2.3-3.89-5.2-3.35-12.3 2.22-24.8 5.92-33 9.76-7.2 3.36-16.2 6.84-22.6 8.74-5.5 1.64-40 19.86-51.2 27.02-5.8 3.71-14.4 9.01-19.1 11.79-4.8 2.78-9.2 5.76-10 6.63-0.7 0.87-4.2 3.14-7.8 5.03s-8.5 4.89-10.7 6.66c-2.3 1.78-7.1 5.37-10.5 7.98-14.7 10.95-19.9 15.35-29.4 24.63-5.5 5.38-12.3 11.7-15.2 14.04-2.9 2.35-8.1 7.04-11.6 10.43-3.4 3.38-10.3 8.6-15.2 11.6s-11.8 7.65-15.2 10.34c-3.5 2.68-10 7.43-14.6 10.55-4.6 3.11-9.9 6.86-11.8 8.33s-8.8 5.8-15.4 9.62-16 9.36-20.8 12.31l-8.9 5.36 0.7 6.02c0.9 8.83-1.8 15.43-9.2 22.6-5 4.79-6.6 5.75-11.8 6.82-3.3 0.69-7.6 1.33-9.5 1.43l-3.5 0.17 0.3-7c0.4-8.95-1.1-14.39-5.5-19.49-4-4.65-9.29-7.92-9.29-5.73 0 0.74 1.59 4.54 3.49 8.44 1.9 3.91 3.5 8.38 3.6 9.94 0 1.56 0.6 4.38 1.3 6.26 0.9 2.36 1 5.26 0.4 9.4-0.8 5.91-0.8 6.03 3.1 11.08 5.4 7.13 6.4 9.34 5.7 12.95-1.4 7.49-8.5 18.44-15 23.15-8.42 6.15-29.13 19.49-30.25 19.49-0.63 0.01-4.01 1.36-7.5 3.01-6.15 2.91-11.16 3.74-13.45 2.23-0.61-0.4-2.11-2.68-3.31-5.06-2.1-4.13-2.3-4.26-4.39-2.86-1.78 1.21-2.12 2.26-1.85 5.7 0.28 3.65-0.12 4.69-2.95 7.61-2.41 2.48-4.15 3.38-6.54 3.38-3.2 0-4.09-0.58-6.72-4.4-1.69-2.44-4.99-1.68-10.02 2.32-3.51 2.79-19.94 8.92-38.11 14.21-7.37 2.15-9.48 2.71-29.5 7.82-6.87 1.76-14.07 3.84-16 4.63-1.92 0.79-7.42 2.1-12.22 2.9-11.82 2.1-17.61 4.9-28.67 13.9-5.17 4.2-10.2 8.1-11.18 8.7-0.99 0.5-2.05 1.7-2.36 2.7-0.31 0.9-4.9 5.3-10.21 9.7-5.3 4.4-12.58 10.8-16.16 14.3-6.18 5.9-6.43 6.3-4.85 8 2.19 2.5 1.22 3.3-2.32 1.9-3.14-1.2-2.21-1.7-14.82 8.8-3.29 2.8-8.6 6.6-11.78 8.5-3.19 1.9-7.85 5.2-10.34 7.3-2.5 2-4.93 3.7-5.39 3.7s-3.68 2-7.14 4.5c-3.47 2.5-6.63 4.5-7.01 4.5-1 0-17.12 11.8-20.74 15.2-8.13 7.6-14.9-0.5-15.11-18.2-0.15-12.7 3.92-27.4 12.2-44 5.42-10.8 9.65-16.9 19.68-28.4 10.78-12.3 15.97-15.8 41.42-28.03 5.62-2.7 13.92-5.5 22.32-7.54 4.29-1.04 9.24-2.81 11-3.93l3.18-2.05h-4c-10.73-0.01-38.4 3.11-43.5 4.9-3.02 1.07-10.22 3.39-16 5.16-9.4 2.87-17.12 5.99-36.46 14.69-3.28 1.5-7.78 4.1-10 5.7-2.22 1.7-7.64 5.3-12.04 8s-11.38 7.7-15.52 11c-4.13 3.3-9.31 7.3-11.5 9-4.85 3.5-39.97 38.7-43.55 43.5-1.41 1.9-4 6.4-5.74 10-1.75 3.6-4.42 8.4-5.93 10.8-4.86 7.4-10.26 16.5-10.26 17.2 0 0.4-1.12 1.7-2.5 3-1.37 1.3-2.5 2.9-2.5 3.6 0 0.6-1.02 2.7-2.27 4.5-1.25 1.9-2.91 5.4-3.69 7.8-1.65 5-5.63 8.4-11.84 10.1-4.06 1.1-4.49 1-7.62-1.7-1.82-1.5-4.04-4-4.94-5.4-2.15-3.5-15.01-11.5-22.57-13.9-8.18-2.7-21.26-5-28.57-4.9-5.83 0-6.31 0.2-17.5 7.9-6.32 4.4-15.1 10.4-19.5 13.4-8.96 6.2-37.23 34.5-50.24 50.4-7.31 8.9-22.57 23.2-24.75 23.2-3.13 0-7.03 4.6-6.71 7.8 0.23 2.3-1.36 4.1-11.33 12.7-6.38 5.5-16.06 14.1-21.51 19.2-5.45 5-12.29 10.5-15.19 12.2-2.89 1.6-7.07 4.9-9.27 7.2s-6.35 5.9-9.22 8c-2.87 2.2-7 5.7-9.17 7.9s-4.81 4-5.85 4c-1.05 0-3 1.2-4.33 2.6-1.33 1.5-6.7 4.8-11.93 7.4-5.22 2.6-10.39 5.8-11.47 7-2.33 2.6-9.78 6.1-17.61 8.4s-18.93 2-26.84-0.7zm45.42-50.2c2.75-1.5 7.25-3.9 10-5.2 2.75-1.4 6.48-3.6 8.29-5 1.8-1.3 7.2-4.5 12-6.9 4.79-2.5 9.56-5.5 10.59-6.6s4.38-3.6 7.43-5.5c3.06-2 8.24-5.6 11.5-8.2 3.27-2.5 8.59-6.4 11.82-8.7 7.17-4.9 22.67-19.6 21.26-20.1-2.62-0.9-19.32 8.4-32.89 18.3-2.75 2-8 5.1-11.67 7s-6.99 3.9-7.37 4.5-1.88 1.6-3.33 2.3c-1.44 0.6-5.1 2.8-8.13 4.7-3.02 2-8.87 5.8-13 8.4-7.4 4.8-9.92 6.7-20.26 15.5-2.89 2.5-6.35 5.2-7.67 6.1-1.6 1-2.2 2.1-1.78 3.2 0.56 1.5 1.05 1.5 4.42 0.3 2.09-0.7 6.04-2.6 8.79-4.1zm-113.89-45.1c2.14-1.5 5.92-4.4 8.39-6.6 2.48-2.2 5.44-4.5 6.59-5s2.92-2.4 3.93-4.1c1.02-1.8 2.67-3.8 3.68-4.5s4.14-4.8 6.96-9c2.83-4.2 6.58-9.5 8.35-11.7s4.69-6.9 6.48-10.5c1.8-3.6 3.59-6.7 3.98-7s2.51-4.1 4.72-8.5c2.21-4.5 5.16-10.1 6.56-12.5 6.73-11.8 3.91-11.8-7.85-0.2-4.89 4.8-9.81 9.4-10.94 10.2-1.12 0.9-3.12 3.1-4.44 5s-4.34 5.8-6.71 8.6-4.31 5.7-4.31 6.3c0 0.7-2.16 3.6-4.8 6.4-2.64 2.9-5.55 6.3-6.46 7.7-0.92 1.4-3.06 4.5-4.75 6.9-1.7 2.4-4.15 6.4-5.46 9-1.3 2.5-4.2 8.2-6.44 12.5-5.25 10.1-4.62 11.8 2.52 7zm581.52-167.5c3.83-2.2 8.41-5.3 10.17-6.8s5.23-4 7.7-5.5c4.99-3.1 47.22-45 46.27-46-1.7-1.7-10.57 1.8-15.34 6-0.87 0.8-2.04 1.4-2.61 1.4-2.61 0-18.25 11.5-32.02 23.5-4.47 3.9-14.05 15.6-19.55 23.8-2.5 3.7-3.62 7.7-2.17 7.7 0.32 0 3.71-1.8 7.55-4.1zm-244.45-38.4c5.98-6.2 5.65-12.4-0.76-14-5.27-1.3-15.91 10.1-13.3 14.3 1.31 2.1 5.19 4.2 7.81 4.2 1.05 0 3.86-2 6.25-4.5zm-31.88-24.98c0.71-4.46 1.12-4.88 3.05-3.14 2.81 2.54 6.04 1.96 9.75-1.76 3.98-3.98 4.22-5.76 1.17-8.6-2.76-2.58-5.93-3.42-9.52-2.54-3.08 0.75-14.25 11.7-14.25 13.96 0 4.1 9.18 6.06 9.8 2.08zm-144.33-14.78c6.57-3.72 7.61-11.72 1.53-11.72-8.07 0-20.32 11.09-14.75 13.34 3.14 1.26 9.51 0.48 13.22-1.62zm504.03-5.66c12.32-3.01 12.5-3.07 12.5-4.13 0-0.51-2.71-0.93-6.04-0.93-4.81 0-7.25 0.63-12 3.1-3.27 1.71-5.96 3.55-5.96 4.11 0 0.55 0.57 0.79 1.25 0.52 0.69-0.26 5.3-1.47 10.25-2.67zm-173.5-4.58c10.55-1.86 21.81-6.11 27.89-10.51 4.35-3.15 45.25-23.55 54.11-26.99 3.03-1.18 6.85-2.76 8.5-3.51 7.43-3.41 23.74-8.51 35-10.95 4.4-0.95 10.93-2.54 14.5-3.53 3.58-1 9.2-2.09 12.5-2.44 8.63-0.91 11.5-1.58 11.5-2.68 0-2.18-8.28-4.15-23.09-5.5-14.8-1.35-16.14-1.32-24.04 0.49-15.26 3.5-48.66 13.98-51.37 16.11-0.55 0.44-10.22 5.42-21.5 11.07-11.27 5.65-21.76 11.15-23.29 12.22-1.54 1.07-8.97 5.08-16.5 8.91-15.85 8.06-24.75 15.52-22.62 18.97 0.75 1.2 3.79 0.93 18.41-1.66zm57.26 0.38c2.78-1.49 21-6.48 26.74-7.33 2.48-0.37 6.53-1.26 9-1.99 2.48-0.72 7.2-1.86 10.5-2.52 22.56-4.54 58.76-14.86 66.09-18.84 1.05-0.57 5.06-2.44 8.9-4.16 3.84-1.73 7.78-3.85 8.75-4.73 2.3-2.09 2.24-5.48-0.15-8.43-1.78-2.2-2.52-2.34-10.75-2.11-8.77 0.24-26.25 3.06-35.84 5.77-2.75 0.77-9.15 2.56-14.24 3.96-11.87 3.28-25.93 9.3-50.3 21.57-19.64 9.88-22.14 11.56-23.4 15.69-1.21 3.95 0.73 5.25 4.7 3.12zm91.16-3.31c6.02-1.26 15.11-4.41 26.34-9.15 3.95-1.67 12.24-9.13 12.24-11.01 0-1.9-4.85-2.9-7.92-1.63-1.42 0.59-6.18 2.47-10.58 4.18-4.4 1.72-9.13 3.75-10.52 4.52-1.4 0.76-7.02 3.02-12.5 5.02-14.07 5.11-16.48 6.28-16.48 8 0 2.02 9.92 2.06 19.42 0.07zm62.04-3.48c1.02-1.65-1.1-2.05-3.06-0.57-1.83 1.39-1.82 1.44 0.3 1.47 1.2 0.02 2.45-0.39 2.76-0.9zm-406.59-1.69c5.79-1.16 10.35-8.24 8.06-12.52-1.52-2.83-9.62-6.17-13.46-5.55-3.94 0.64-11.94 5.83-13.51 8.78-1.71 3.19-0.76 7.21 2.04 8.62 2.67 1.34 11.71 1.7 16.87 0.67zm-150.04-4.94c2.12-1.25 3.61-3.28 4.65-6.32 1.84-5.4 1.84-4.66-0.05-6.55-3.71-3.71-14.38-0.25-20.67 6.7-2.07 2.28-3.76 4.36-3.76 4.61s0.79 1.34 1.75 2.4c1.5 1.66 2.72 1.88 8.36 1.48 3.85-0.28 7.9-1.24 9.72-2.32zm326.67-8.21c2.75-1.1 16.48-7.62 30.5-14.48 14.03-6.86 26.61-12.83 27.97-13.25s5.46-2.27 9.12-4.11 7.84-3.79 9.28-4.34c2.97-1.13 3.54-3.07 0.88-3.01-0.96 0.02-6.92 1.18-13.25 2.57-6.32 1.39-15.77 3.37-21 4.39-5.22 1.02-11.17 2.57-13.21 3.43-2.05 0.86-5.36 1.57-7.37 1.57-2 0-8.42 1.17-14.27 2.61-9.81 2.41-11.27 2.53-19.13 1.54-19.75-2.49-42.35-3.11-45.8-1.26-1.22 0.65-2.22 1.87-2.22 2.71 0 2.56 5.9 10.31 13.41 17.63l7.09 6.92 16.5-0.46c13.48-0.36 17.42-0.82 21.5-2.46zm373.25 0.69c0.4-2.24-1.39-4.27-3.14-3.6-0.89 0.34-1.61 1.49-1.61 2.56 0 3.07 4.23 3.99 4.75 1.04zm-713.75-20.91c1.93-0.54 4.78-2.17 6.35-3.62 2.59-2.41 2.78-3.05 2.17-7.27-0.85-5.84-1.95-6.94-7.72-7.73-6.6-0.91-9.29 0.05-14.97 5.37-5.62 5.26-8.07 9.23-6.88 11.15 1.66 2.68 14.41 3.96 21.05 2.1zm150.4-11.18c6.23-3.22 7.29-7.67 3.04-12.72-3.18-3.78-8.55-5.43-13.42-4.11-4.38 1.17-12.87 6.46-13.65 8.5-1.21 3.13 0.61 6.28 4.88 8.45 3.56 1.82 5.29 2.07 10.65 1.57 3.52-0.33 7.34-1.09 8.5-1.69zm165.1-7.24c11.31-2.52 25.01-6.39 35-9.89 9.47-3.32 15.4-5.83 30.5-12.92 3.58-1.68 9.4-4.36 12.95-5.96 7.76-3.51 17.88-9.47 20.34-11.99 0.99-1.01 2.88-1.83 4.2-1.83s8.92-3.12 16.88-6.94c14.02-6.71 24.74-11.31 30.39-13.04 1.51-0.46 5.78-1.97 9.5-3.34 3.72-1.38 8.67-2.8 11-3.16s5.59-1.07 7.24-1.57 6.37-1.38 10.48-1.96c4.12-0.58 7.9-1.47 8.41-1.98 2.08-2.08-1.69-3.79-11.03-5.03-11.47-1.52-26.54-0.85-44.36 1.95-6.87 1.08-15.65 2.46-19.5 3.05-3.85 0.6-10.37 1.96-14.5 3.02-4.12 1.06-12.19 3.1-17.94 4.53-5.74 1.43-11.22 3.02-12.18 3.54-0.96 0.51-2.79 0.93-4.07 0.93-1.29 0-4.01 0.9-6.07 2-2.05 1.1-5 2-6.55 2s-12.92 2.51-25.26 5.57c-12.33 3.06-24.23 5.94-26.43 6.4-17.34 3.63-47.07 14.45-55.87 20.34-5.86 3.92-5.86 3.93-5.27 8.06 0.33 2.27 1.08 5.82 1.67 7.89 1.26 4.41 3.3 5.5 18.47 9.78 10.98 3.1 19.86 3.25 32 0.55zm-321.83-25.92c3.97-4.34 4.1-5.66 0.92-9.36-2.16-2.51-3.05-2.8-8.35-2.75-3.27 0.03-8.01 0.85-10.54 1.81-4.84 1.85-11.19 8.01-10.09 9.79 0.35 0.58 2.5 1.92 4.77 2.98 3.29 1.55 5.73 1.86 12.04 1.56 7.62-0.37 8.03-0.52 11.25-4.03zm155.1-13.89c1.48-0.71 3.12-2.53 3.66-4.04 0.86-2.46 0.54-3.19-2.93-6.75-3.6-3.68-4.32-3.99-9.3-3.99-4.46 0-6.42 0.63-11.29 3.64-4.37 2.7-5.91 4.23-5.91 5.89 0 2.53 3.83 5.46 8.48 6.48 4.4 0.96 14.18 0.26 17.29-1.23zm134.23-11.04c8.97-3.64 42.56-11.86 78.9-19.31 13.94-2.86 25.3-6.31 24.58-7.47-0.63-1.03-13.43-1.76-44.98-2.57-50.24-1.3-68.8 0.41-78.05 7.18-2.68 1.96-3.27 3.32-4.76 11.02-1.13 5.79-1.38 9.12-0.72 9.77 3.1 3.1 18.68 3.96 25.03 1.38zm-291.08-14.49c1.18-0.96 2.41-3.42 2.74-5.45 0.51-3.23 0.18-4.12-2.59-6.89-2.98-2.98-3.52-3.14-8.51-2.63-6.2 0.64-9.53 2.2-15.06 7.05-3.57 3.14-3.84 3.68-2.49 5.06 4.29 4.41 21.67 6.33 25.91 2.86zm813.87-6.68c5.2-1.82 22.9-11.98 26.2-15.02 2.4-2.17 10.4-7.9 26.6-19.05 3.9-2.75 11.5-8.98 16.7-13.84s12.1-10.6 15.3-12.74c8.1-5.32 16.6-11.96 27.1-21.12 4.9-4.23 10.7-8.91 12.8-10.39 2.2-1.48 6.3-4.58 9-6.9 2.8-2.32 8.8-6.87 13.4-10.11 4.6-3.25 11.3-8.01 15-10.59 18.7-13.27 43.1-29.2 59.1-38.78 0.8-0.49 4.9-2.92 9-5.39 4.1-2.48 11.6-6.36 16.5-8.62 5-2.27 10.8-4.98 13-6.03 14.3-6.83 27.7-11.75 43.5-15.94 2.5-0.65 5.3-1.8 6.4-2.55 4.4-3.31-4.4-14.08-13.7-16.58-5.3-1.44-26.7 0.13-39.7 2.92-10.5 2.25-32.3 9.81-41 14.18-11 5.55-38.2 21.99-43 25.93-2.5 2.05-6.5 4.98-9 6.51s-7 4.91-10 7.49c-3 2.59-6.8 5.55-8.5 6.59-3 1.87-32.4 31.41-32.5 32.57 0 0.33-4.3 4.83-9.7 10-16.5 16.06-21.6 21.98-21.1 24.78 0.3 1.84-3.5 7.03-6.5 8.77-1.4 0.84-6.9 8.02-10.8 14.03-1.1 1.75-3.6 4.11-5.5 5.24-1.9 1.15-4.1 3.56-4.9 5.45-0.8 2-2.3 3.63-3.7 3.98-2.5 0.65-8.8 6.16-8.8 7.69 0 0.52-1.4 0.95-3 0.95-2.4 0-4.6 1.42-9.8 6.26-3.7 3.45-9.2 8.05-12.2 10.24-3 2.18-6.3 4.75-7.4 5.69-1 0.95-4.4 3.05-7.5 4.66-12 6.28-17.1 9.34-17.1 10.22 0 1.45 11.3 1.09 15.8-0.5zm-714.78-6.6c0.54-1.98 1.4-6.27 1.93-9.53 0.52-3.27 1.26-7.18 1.63-8.71 0.86-3.54-1.42-2.91-3.81 1.05-0.89 1.5-3.03 4.24-4.75 6.09-3.35 3.62-3.43 6.37-0.38 12.35 0.77 1.5 1.34 3.07 1.27 3.5-0.75 4.51 2.69 0.54 4.11-4.75zm620.54-3.72c2.55-2.88 8.27-11.44 10.85-16.25 1.33-2.48 5.83-9.59 10.01-15.82 4.18-6.22 7.59-11.66 7.59-12.09s0.92-1.61 2.04-2.63c1.13-1.01 3.76-5.02 5.85-8.9 8.8-16.34 11.6-21.32 15.5-27.52 2.3-3.6 6.5-11.04 9.3-16.54s7-13.14 9.2-16.98c2.3-3.85 4.1-7.64 4.1-8.43 0-1.81-2.9-5.09-4.5-5.09-0.7 0-4 3.51-7.3 7.81-3.3 4.29-6.8 8.45-7.8 9.25-1.6 1.35-12.8 14.39-27.21 31.8-3.48 4.2-7.31 8.76-8.51 10.14-1.2 1.37-6 6.98-10.67 12.47-4.67 5.48-10.2 11.74-12.28 13.9-2.09 2.17-4.11 4.49-4.5 5.16-1.16 1.97-13.39 15.5-17.47 19.3-6.23 5.82-6.21 5.85 14.17 16.9 2.43 1.31 5.35 3.04 6.48 3.83 2.64 1.85 3.27 1.81 5.15-0.31zm-545.8-7.92c2.81-3.84 0.66-8.41-5.75-12.23-4.07-2.43-9.08-2.64-17.28-0.71-6.24 1.47-9.72 3.87-9.72 6.69 0 2.44 10.11 8.08 17 9.5 6.26 1.28 13.54-0.22 15.75-3.25zm272.98 1.15c2.54-0.76 10.28-2.16 17.2-3.09 12.15-1.65 15.61-2.71 14.54-4.44-0.77-1.25-11.46-5.95-13.54-5.95-1.01 0-3.49-1.13-5.52-2.5-2.03-1.38-4.99-2.5-6.58-2.5s-4.56-0.72-6.61-1.6c-2.04-0.88-7.76-2.7-12.71-4.05-4.95-1.34-9.9-3.02-11-3.72-1.94-1.23-6.02-2.34-33.51-9.1-9.11-2.25-23.89-5.02-34.5-6.49-4.95-0.68-11.48-1.65-14.51-2.14-8.66-1.42-41.71-1.33-47.31 0.12-5.19 1.35-8.4 5.03-10.52 12.06-0.57 1.88-1.79 5.44-2.71 7.92-1.7 4.56-4.34 14.55-4.41 16.65-0.02 0.63 1.65 2.18 3.71 3.44 3.57 2.18 4.79 2.31 24.75 2.48 19.87 0.18 38.29 0.85 54 1.98 3.85 0.28 14.37 0.69 23.37 0.92 8.99 0.23 16.62 0.68 16.94 1s10.42 0.54 22.44 0.49c15.55-0.06 23.2-0.49 26.48-1.48zm61.88-13.06c-0.33-0.87-0.61-1.94-0.61-2.38 0-1.43-6.1-6.82-13.43-11.86-9.09-6.26-14.14-8.83-19.11-9.73-2.18-0.39-4.86-1.18-5.96-1.76-1.1-0.57-3.57-1.38-5.5-1.79-1.92-0.42-6.65-1.94-10.5-3.4-3.85-1.45-9.92-3.67-13.5-4.93-13.04-4.59-19.93-8.75-35-21.12-10.84-8.91-17.55-13.53-20.99-14.48-8.18-2.25-20.83-5.27-25.01-5.97-8.71-1.46-24.75-4.93-27.11-5.86-1.31-0.52-5.03-1.53-8.27-2.24-5.58-1.22-6.1-1.16-10.5 1.16-2.63 1.39-5.27 3.73-6.15 5.44-0.84 1.65-2.36 4.25-3.38 5.78-2.66 3.99-1.64 12.42 1.85 15.22 4.33 3.48 18.68 7 30.17 7.39 3.79 0.14 12.07 1.31 18.39 2.61 6.33 1.31 14.65 2.67 18.5 3.02 8.52 0.79 24.58 5.06 42 11.16 7.15 2.5 17.05 5.66 21.98 7.02 4.94 1.36 9.74 2.88 10.66 3.37 0.92 0.5 5.66 2.33 10.52 4.08s10.42 4.17 12.34 5.37c1.93 1.2 4.63 2.53 6 2.96 2.43 0.74 7.51 3.03 21 9.43 7.24 3.44 12.62 4.14 11.61 1.51zm-413.19-2.5c2.85-3.39 3.28-6.58 1.27-9.34-1.27-1.73-1.5-1.72-5.5 0.33-4.47 2.27-5.17 4.36-3.21 9.52 1.32 3.48 4.25 3.28 7.44-0.51zm-89.19-4.84c2.93-3.29 3.65-7.8 1.57-9.88-0.66-0.66-3.61-1.2-6.56-1.2-7.38 0-22.13 6.68-22.22 10.06-0.03 1.18 7.66 4.31 11.98 4.89 7.06 0.94 12.06-0.33 15.23-3.87zm663.34-6.74c3.92-1.92 8.15-5.57 15.18-13.11 5.37-5.75 13.8-14.41 18.75-19.25 12.51-12.23 11.87-11.57 20.1-20.74 7.28-8.12 8.32-10.26 6.41-13.24-0.85-1.33-1.23-1.33-3.42 0-3.62 2.2-17.91 12.42-27.02 19.31-4.66 3.53-13.8 8.82-22.16 12.83-12.24 5.88-14.54 7.35-16.48 10.59-1.24 2.08-3.12 4.75-4.19 5.94-4.54 5.09 0.28 18.89 7.08 20.27 0.17 0.03 2.76-1.14 5.75-2.6zm-573.46-15.63c6.18-4.15 4.59-9.16-4.09-12.91l-4.49-1.93-1.76 2.17c-2.14 2.64-2.53 13.49-0.52 14.3 2.98 1.2 7.71 0.49 10.86-1.63zm154.89-5.71c0-0.55-0.47-1-1.05-1-0.59 0-0.79 0.45-0.45 1s0.82 1 1.06 1c0.25 0 0.44-0.45 0.44-1zm-58.25-3.63c4.91-3.09 1.71-10.03-6.39-13.87-3.94-1.87-6.75-1.89-12.74-0.08-7.16 2.15-7.98 3.16-5.4 6.65 1.96 2.66 8.15 7.45 11.78 9.12 2.14 0.99 10.1-0.15 12.75-1.82zm-81.91-9.36c1.65-3.3 2.6-6.24 2.11-6.54s-3.49-0.45-6.67-0.33c-3.17 0.11-8.41-0.39-11.62-1.12-4.97-1.14-5.98-1.12-6.73 0.07-1.04 1.64 1.43 3.91 4.26 3.91 1 0 3.5 1.48 5.56 3.29 4.02 3.53 8.33 6.57 9.43 6.66 0.37 0.03 2.02-2.65 3.66-5.94zm-95.86 1.9c4.94-2.12 6.25-3.95 7.46-10.41 0.31-1.65 0.22-3.5-0.19-4.1-2.84-4.19-15-5.04-22.25-1.55-5.47 2.63-12 8.63-12 11.04 0 2.09 3.68 5.71 6.5 6.39 5.51 1.33 15.81 0.64 20.48-1.37zm499.91-28.88c8.82-2.78 30.74-13.89 32.35-16.39 1.37-2.13 0.77-3.57-3.52-8.4-2.35-2.65-6.34-7.95-8.85-11.78-2.52-3.83-7.23-10.94-10.47-15.81-3.24-4.86-7.47-11.24-9.4-14.16-1.92-2.93-5.58-8.4-8.14-12.16-2.55-3.76-6.99-10.88-9.88-15.83-2.88-4.95-6.27-10.13-7.53-11.5-1.26-1.38-4.39-6.51-6.94-11.41-2.56-4.9-5.7-10.3-6.99-12-2.92-3.85-11.52-18.5-17.08-29.09-12.57-23.95-20.58-33.32-28.77-33.68-7.61-0.34-8.56 0.01-16.5 6.05-7.11 5.42-19.21 11.99-27.95 15.2-1.81 0.66-3.77 2.11-4.37 3.21-1.93 3.61-4.75 14.8-4.14 16.41 0.78 2.01 9.04 16.32 13.14 22.76 1.74 2.72 3.15 5.31 3.15 5.77 0 0.97 1.05 2.63 16.33 25.97 6.37 9.73 13.08 19.41 14.92 21.5 1.84 2.1 4.11 5.03 5.05 6.53s3.62 4.93 5.96 7.63c5.09 5.88 12.58 14.84 24.81 29.65 21.83 26.45 24.21 28.64 35.4 32.52 7.08 2.45 8.84 2.36 19.42-0.99zm-123.71-8.06c2.02-0.56 6.25-1.35 9.39-1.75 9.05-1.14 9.3-2.93 1.42-10.18-6.22-5.73-7.13-6.19-22.49-11.4-23.44-7.94-25.37-8.62-32.5-11.5-7.23-2.92-15.73-3.38-22.28-1.22-3.12 1.04-4.27 2.23-6.62 6.92-2.02 4.01-2.62 6.27-2.05 7.77 1.21 3.24 5.56 6.15 10.23 6.87 4.82 0.74 48.17 11.98 54.22 14.05 4.91 1.68 6.03 1.73 10.68 0.44zm-358.18-4.82c2.06-1.52 2.56-2.84 2.8-7.34 0.37-6.92-0.71-7.89-8.97-8.09-7.04-0.17-14.62 2.67-20.58 7.71-6.46 5.47-2.94 9.12 9.97 10.36 8.97 0.86 12.9 0.24 16.78-2.64zm188.92-0.29c4.88-4.55 0.41-12.88-7.62-14.21-9.56-1.58-19.3 0.39-19.3 3.89 0 4.63 7.49 10.84 14.98 12.44 4.21 0.9 9.76-0.08 11.94-2.12zm353.27-29.62c2.47-1.6 14.81-16.44 14.81-17.8 0-0.33 1.84-3.15 4.08-6.27l4.07-5.67-0.67-13-0.67-13-5.42-9.5c-2.98-5.23-8.11-13.33-11.41-18-3.3-4.68-7.23-10.69-8.74-13.36-1.5-2.68-4.4-7.02-6.43-9.65-2.03-2.64-4.51-6.4-5.5-8.36s-3.53-6.17-5.63-9.35c-7.11-10.77-12.17-18.77-14.18-22.43-1.1-2.01-4.64-7.83-7.86-12.93-3.23-5.1-7.49-12.23-9.48-15.84-1.98-3.61-6.56-11.51-10.18-17.57-6.09-10.21-6.97-11.21-12.02-13.71-3-1.49-7.03-2.98-8.96-3.31-3.11-0.54-3.99-0.14-8 3.61-2.47 2.32-8.77 7.9-14 12.4-15.44 13.31-16.62 14.91-17.4 23.61-0.53 5.88-0.25 8.86 1.37 14.63 1.12 3.98 2.03 8.03 2.04 9 0 3.1 5.79 14.13 11.32 21.56 2.94 3.96 7.28 10.73 9.64 15.04 4.16 7.63 9.51 16.17 21.28 33.95 3.17 4.78 5.76 9.03 5.76 9.45 0.01 0.42 1.58 2.74 3.5 5.15s3.49 4.95 3.49 5.63 0.67 1.79 1.48 2.46 6.18 8.26 11.94 16.87c13.32 19.91 18.68 26.44 25.82 31.42 8.71 6.09 20.7 8.39 25.95 4.97zm-326.82-16.31c4.99-3.93 2.06-10.94-5.83-13.92-3.27-1.24-15.7-1.64-17.44-0.57-1.98 1.22-1.15 4.7 2.09 8.8 5.69 7.17 15.83 9.9 21.18 5.69zm32.49-35.03c4.81-1.68 5.11-4.94 1.02-10.95-2.15-3.15-4.47-5.29-6.38-5.88-8.12-2.52-17.88-1.99-19.81 1.06-1.06 1.68-0.4 2.81 6.53 11.25 4.09 4.97 11.9 6.87 18.64 4.52zm542.83-1.65c2.5-2.16 11.9-18.3 13.4-23.17 0.7-1.97 2.6-6.51 4.4-10.08 1.8-3.58 4-8.98 5-12 1-3.03 2.1-5.95 2.4-6.5 2.1-3.09 5.2-12.79 4.9-15.19-0.6-5.72-3-3.73-12.4 10.52-3 4.62-11.9 16.85-22.3 30.67-1.7 2.2-4.9 5.99-7.2 8.43l-4.1 4.44 2.3 4.56c5.3 10.04 9 12.33 13.6 8.32zm-202.56-19.25c0.46-0.83 2.92-6 5.46-11.5s6.4-13.48 8.57-17.74c4.31-8.48 4.65-10.93 3.4-24.76-0.62-6.99-1.34-9.48-4.02-14-1.8-3.03-6.09-10.68-9.55-17-10.97-20.08-18.8-33.14-30.2-50.42-2.06-3.12-15.79-26.56-15.79-26.96 0-0.25-2.17-3.99-4.84-8.29-2.66-4.31-5.47-9.01-6.25-10.44-0.77-1.44-2.82-5.28-4.56-8.53-3-5.64-3.47-6.04-10.27-8.69-3.92-1.53-7.91-2.54-8.85-2.24-2.86 0.92-12.05 11.26-17.4 19.57-0.88 1.37-4.12 5.26-7.2 8.64l-5.6 6.14 0.06 11.36c0.05 10.15 0.33 11.89 2.61 16.36 1.41 2.75 2.9 5.22 3.31 5.5 0.42 0.27 5.15 7.7 10.53 16.5 5.37 8.8 11.83 19.08 14.36 22.84 9.86 14.67 13.98 21.2 14.04 22.27 0.04 0.61 1.41 2.81 3.06 4.89s3 4.19 3 4.7 1.08 2.37 2.39 4.12 4.38 7 6.82 11.68c5.86 11.26 9.01 16.12 13.05 20.16 1.85 1.84 5.88 7.16 8.96 11.84 5.52 8.36 9.33 12.63 13.28 14.86 2.8 1.58 10.6 1 11.63-0.86zm181.96-15.7c5.3-4.78 19.8-22.57 23.4-28.6 1.5-2.58 4.6-6.83 6.9-9.44 6.7-7.56 11.1-16.72 11.1-23.17 0-3.25-0.5-5.56-1.2-5.81-0.6-0.22-2.9 1.1-5 2.94s-5.8 4.65-8.3 6.26c-2.5 1.6-5.6 3.92-7 5.15-2.8 2.51-7.1 5.67-14.5 10.67-7.9 5.36-20.9 18.16-22.9 22.59-1.8 3.96-1.8 4.12 0.4 9.82 2.2 5.67 8.9 13.28 11.8 13.29 0.6 0 3.1-1.66 5.3-3.7zm-12.6-66.76c12.8-7.25 23.6-12.56 35.6-17.51 6.8-2.83 14.3-6.11 16.6-7.29 4.3-2.24 4.3-2.25 5.9-12.9l0.6-3.66-6.3-0.55c-3.5-0.31-20.2-0.77-37-1.03l-30.7-0.47-2.3 2.52c-2.3 2.47-2.4 2.89-2.2 19.87 0.2 17.51 0.7 20.51 4.2 23.2 3 2.29 9.3 1.42 15.6-2.18zm-128.76 0.21c0.53-0.69 2.9-4.85 5.27-9.25 8.59-16.02 10.05-18.61 12.75-22.71 2.67-4.06 2.75-4.55 2.49-16.24l-0.26-12.05-9.33-18.5c-5.13-10.18-14.08-27.73-19.88-39-5.8-11.28-12.17-23.65-14.15-27.5s-3.61-7.35-3.61-7.78c0-0.42-1.72-3.57-3.83-7-2.1-3.42-5.81-10.34-8.25-15.37l-4.43-9.14-7.61-3.61c-4.2-1.98-8.08-3.6-8.63-3.6-2.01 0-28.27 31.25-31.44 37.42-1.3 2.53-1.75 6.52-1.96 17.4-0.25 12.87-0.09 14.37 1.76 16.9 1.12 1.53 3.77 5.93 5.89 9.78s11.14 18.02 20.05 31.5c20.24 30.62 27.44 42.06 27.44 43.57 0 0.65 0.68 1.75 1.51 2.44 2.31 1.91 9.92 13.7 13.89 21.51 3.45 6.8 6.83 9.74 13.6 11.85 3.01 0.94 7.78 0.6 8.73-0.62zm-626.73-7.06c0-2.38 0.85-4.13 3-6.19 5.28-5.06 3.03-7.93-4-5.12-3.49 1.4-4 1.42-4 0.11 0-0.82-0.6-1.49-1.33-1.49-2.28 0-2.73 1.25-1.26 3.5 0.91 1.39 1.1 2.67 0.52 3.58-1.45 2.29-1.08 3.86 1.53 6.46 3.52 3.52 5.54 3.21 5.54-0.85zm21.9-48.59c2.7-2.53 3.1-3.57 3.1-8.12 0-4.74-0.33-5.52-3.71-8.62-4.44-4.06-9.8-5.69-16.7-5.07-6.27 0.57-14.57 3.51-15.31 5.43-0.64 1.67 3.35 10.64 5.64 12.69 4.45 3.97 11.46 6.59 17.63 6.59 5.51 0 6.61-0.34 9.35-2.9zm301.85-1.38c5.24-4.81 1.63-15.25-6.72-19.47-5.46-2.76-7.6-2.81-11.78-0.26-2.74 1.67-3.25 2.57-3.25 5.76 0 4.85 5.21 12.88 10 15.42 4.11 2.19 8.37 1.66 11.75-1.45zm500.24-12.69c1.7-3.29 3-6.77 3-7.75 0-3.34-4.5-7.03-25.2-20.75-11.4-7.55-20.8-14.12-20.8-14.6 0-0.49-1.3-1.57-3-2.42-1.6-0.85-5.5-3.61-8.6-6.14-5.6-4.58-5.7-4.6-9.6-3.31-5.2 1.74-9.2 6.48-11.2 13.58-1 3.22-2.8 8.8-4.2 12.38-5.3 14.47-2 19.04 16.1 22.36 17.1 3.13 20 3.77 24.4 5.37 6.6 2.43 27.1 7.02 31.8 7.14 4.3 0.11 4.3 0.06 7.3-5.86zm-146.5-17.28c4.3-7.29 9.36-15.37 11.23-17.97l3.41-4.72-0.38-11.28c-0.52-15.72-2.5-22.87-11.57-41.81-4.34-9.06-8.23-17.6-8.63-18.97-0.4-1.38-3.78-8.8-7.49-16.5-3.72-7.7-8.69-18.5-11.04-24-2.36-5.5-4.62-10.45-5.03-11s-2.2-4.38-3.98-8.5c-4.28-9.94-7.32-13.78-12.7-16.09-6.96-2.98-8.22-2.59-14 4.35-2.86 3.43-6.7 7.81-8.55 9.74-1.84 1.92-6.13 6.93-9.52 11.13l-6.17 7.64-1.01 10.61c-1.22 12.91-0.3 18.67 4.31 27.03 1.85 3.35 5.33 9.91 7.73 14.59 2.41 4.67 7.41 13.57 11.11 19.76 3.71 6.2 9.16 16.33 12.13 22.52 2.96 6.19 8.02 15.75 11.23 21.24 3.22 5.49 7.55 13.32 9.63 17.41 5.72 11.21 7.93 14.11 12.3 16.16 7.87 3.67 8.28 3.4 16.99-11.34zm-316.2-9.76c5.61-4.41 4.24-15.29-2.48-19.74-7.07-4.68-17.81-2.55-17.81 3.53 0 7.17 4.29 14.03 10.5 16.8 4.23 1.89 6.84 1.73 9.79-0.59zm480.7-1.74c4.3-5.25 4.7-7.57 2-13.92-1.2-2.99-2.6-6.87-3-8.63-5-19.6-10.2-38.25-14.1-50.3-1.6-5-2.9-9.86-2.9-10.79 0-2.49-4.5-6.61-7.3-6.61-1.3 0-3.4 1.17-4.8 2.61-1.3 1.43-5.2 4.62-8.6 7.09-3.5 2.46-6.3 4.77-6.3 5.14 0 0.36-1.6 2.4-3.5 4.52-3.2 3.54-3.5 4.38-3.5 10.16s0.3 6.64 3.7 10.63c2 2.39 5.2 6.77 7.2 9.73 6.3 9.35 19.7 26.38 28.1 35.52 6.9 7.62 7.9 8.6 8.9 8.6 0.5 0 2.4-1.69 4.1-3.75zm-818.63-16.75c6.39-2.67 8.56-10.84 4.61-17.32-2.59-4.26-11.14-8.18-17.84-8.18-3.94 0-5.98 0.75-11.22 4.13-6.22 4.01-7.86 5.5-7.89 7.18-0.03 1.55 11.01 11.32 15.24 13.49 5.02 2.57 11.95 2.85 17.1 0.7zm840.63-5.4c0.5-1.04 1.6-6.07 2.5-11.18 1.4-8.59 3.5-18.18 7-31.92 6.8-26.9 9.6-39.08 11.5-50.97 0.7-4.11 2.1-9.89 3.1-12.84 2.1-5.97 2.7-11.14 1.5-12.98-3-4.94-27.8 12.82-33.3 23.88-2.1 4.2-2.1 5.34-1.7 23.91 0.6 24.4 0.5 21.06 2.1 37.5 0.7 7.7 1.5 18.27 1.7 23.5 0.2 5.22 0.7 10.29 1.1 11.25 1 2.3 3.2 2.23 4.5-0.15zm-148.39-24.87c0.61-0.4 2.29-2.53 3.75-4.73 4.04-6.17 11.64-16.82 13.24-18.58 0.8-0.87 1.5-3.57 1.5-6s0.8-7.68 1.6-11.67l1.5-7.24-3.7-10.26c-2-5.64-4.6-12.95-5.6-16.25-1.1-3.3-2.6-7.35-3.4-9-0.7-1.65-2.74-7.5-4.48-13-4.6-14.54-11.31-34.32-16.1-47.5-2.31-6.33-5.23-14.52-6.49-18.21-3.3-9.61-3.73-10.19-9.93-13.4l-5.6-2.89-2.53 3c-3.17 3.75-9.35 10.36-20.86 22.3l-8.96 9.3-0.76 6.7c-0.42 3.69-1.03 10.86-1.36 15.95l-0.6 9.25 7.78 16.25c4.28 8.94 9.27 18.62 11.09 21.52s3.31 5.71 3.31 6.26c0 1.78 8.2 20.29 12.65 28.55 2.4 4.45 4.35 8.66 4.35 9.35 0 2.48 13.38 28.22 15.4 29.64 2.14 1.49 12.25 1.97 14.2 0.66zm-310.6-2.23c2.48-2.47 2.77-11.62 0.52-15.97-3.48-6.73-13.03-9.54-19.04-5.61-2.47 1.62-2.62 2.11-1.98 6.39 1.49 9.93 7.65 17.19 14.58 17.19 2.59 0 4.6-0.68 5.92-2zm-92-26.29c1.97-0.99 2.75-2.5 3.66-7.08 0.75-3.79 0.83-6.92 0.23-8.97-0.5-1.74-0.87-9.15-0.81-16.47 0.11-12.89 0.03-13.44-2.6-17.41-1.49-2.25-3.88-5.18-5.32-6.51-1.43-1.33-3.06-3.84-3.63-5.58-0.83-2.57-1.69-3.27-4.59-3.74-1.96-0.32-6.91-2.57-11-5.01s-10.81-6.09-14.94-8.1c-4.12-2.01-10.65-5.2-14.5-7.1-9.32-4.6-44.08-22.55-53.5-27.64-4.18-2.26-8.9-4.06-10.68-4.07-2.24-0.02-3.36-0.6-3.79-1.94-0.66-2.08-10.53-8.87-17.28-11.88-4.22-1.88-4.29-1.88-13.5 0.46-18.62 4.72-19.38 5.04-21.21 8.89-0.92 1.94-2.4 7.3-3.29 11.91l-1.61 8.4 2.76 7.31c6.38 16.94 4.22 14.79 27.1 26.86 30.81 16.25 34.17 17.99 38.5 19.94 2.48 1.11 5.18 2.48 6 3.04 0.83 0.56 3.08 1.71 5 2.55 1.93 0.84 5.53 2.59 8 3.89 21.62 11.34 67.98 33.57 74 35.49 1.93 0.62 4.63 1.76 6 2.55 3.11 1.78 7.72 1.87 11 0.21zm-282.26-3.95c5.77-5.37 2.49-16.74-6.6-22.84-4.4-2.95-5.01-3.08-11.93-2.59-7.44 0.53-13.69 2.9-15.58 5.89-2.16 3.44 6.04 16 12.7 19.45 7.08 3.66 17.53 3.7 21.41 0.09zm415.7-13.17c2.84-1.19 3.52-2.12 4.35-6.03 1.36-6.39-0.07-11.09-5.11-16.73l-4.18-4.68-8-0.32-8-0.33 0.08 5.5c0.16 11.13 4.19 18.15 12.92 22.47 3.72 1.84 3.82 1.84 7.94 0.12zm316.65-18.19c4.1-4.73 9.5-11.03 12.1-13.99 3.9-4.54 4.8-6.3 5.5-11.15 1.2-8.91 0.8-16.03-1.6-24.76-1.3-4.4-2.6-9.8-3.1-12s-1.3-5.8-1.9-8-2.2-9.18-3.5-15.5c-4-19.12-6.4-29.32-7.9-33-0.8-1.93-2.4-8.9-3.6-15.5-2.4-12.62-4-19.76-6.2-27.96-1.1-3.94-2.2-5.55-5.5-7.85-3.7-2.56-4.4-2.75-6.5-1.62-3 1.59-20.18 17.28-29.11 26.55-6.49 6.74-6.74 7.19-7.23 12.93-0.27 3.27-1.11 8.48-1.86 11.58-1.28 5.26-1.22 6.02 0.88 11.5 4.01 10.47 9.61 23.84 10.41 24.87 0.43 0.55 1.55 3.7 2.48 7 0.94 3.3 2.27 6.9 2.98 8 0.7 1.1 1.54 3.35 1.87 5 0.69 3.49 9.08 27.88 11.78 34 1.5 3.69 5.7 14.93 8.7 23.5 1.7 4.67 3.3 9.25 3.7 10.17 0.6 1.54 6.5 4.65 9.1 4.78 0.6 0.03 4.4-3.82 8.5-8.55zm-728.76-22.76c4.98-2.08 8.67-7.05 8.67-11.66 0-2.12-0.46-4.15-1.02-4.5-0.56-0.34-2.3-3.44-3.85-6.87-3.67-8.08-5.97-9.15-17.77-8.24-15.41 1.18-19.43 5.74-14.24 16.15 3.22 6.44 7.89 11.11 13.93 13.92 6.18 2.88 9.58 3.16 14.28 1.2zm453.38-2.89c3.26-3.58 4.29-6.29 4.29-11.22 0-11.79-12.04-20.9-22.24-16.82-4.34 1.74-5.96 4.57-4.63 8.1 0.48 1.28 0.87 3.81 0.87 5.63s0.69 3.88 1.52 4.57c0.84 0.7 2.2 2.7 3.03 4.45 3.11 6.55 13.18 9.66 17.16 5.29zm-176.71-17.75c1.67-0.89 1.81-1.96 1.37-10.25-0.27-5.09-0.88-10.83-1.35-12.75-0.48-1.93-1.17-8.23-1.54-14-0.75-11.84-1.33-13.21-10.41-24.3-4.32-5.28-7.11-7.6-12.47-10.35-6.81-3.48-13.8-7.86-20.51-12.82-1.87-1.39-4.07-2.53-4.88-2.53s-3.07-0.99-5.02-2.2c-1.95-1.2-5.28-3.11-7.38-4.25-6.54-3.5-24.1-13.71-28.31-16.45-2.2-1.43-4.45-2.83-5-3.1-0.55-0.28-4.21-2.61-8.14-5.18-13.19-8.63-14.48-9.07-26.49-9.04-5.9 0.01-11.17 0.29-11.71 0.62-0.54 0.34-2.16 4.38-3.59 8.99-1.44 4.6-3.95 10.22-5.59 12.48s-2.98 4.56-2.98 5.12c0 0.55 1.62 4.49 3.6 8.76 1.98 4.26 4.67 10.09 5.97 12.96 1.66 3.64 3.36 5.71 5.65 6.87 1.81 0.91 4.75 2.75 6.54 4.1 1.8 1.34 5.62 3.7 8.5 5.24 2.89 1.53 8.84 4.95 13.24 7.58s14.98 8.37 23.5 12.75c8.53 4.38 16.21 8.59 17.08 9.36 0.87 0.76 1.89 1.39 2.27 1.39 0.39 0 6.2 3.24 12.93 7.19 6.72 3.96 16.27 9.26 21.22 11.78s11.93 6.47 15.5 8.78c5.32 3.44 7.38 4.21 11.32 4.23 2.65 0.01 5.65-0.43 6.68-0.98zm503.69-7.12c5.3-4.46 10.9-9.61 12.4-11.44 4.1-5.25 10.3-22.03 10.2-27.94 0-6.81-2.1-32.09-3.4-42.5-0.6-4.68-1.3-11.65-1.5-15.5-0.3-3.85-0.9-9.93-1.4-13.5-0.6-3.58-1.7-13.03-2.5-21-0.8-7.98-1.9-15.71-2.4-17.18-0.5-1.48-0.7-3.61-0.4-4.74 1.2-4.46-0.7-8.82-6.5-15.08l-5.8-6.26-4.7 2.58c-5.9 3.33-11.7 7.11-19 12.42-3.3 2.34-6.5 4.26-7.3 4.26-2.8 0-9.2 3.98-9.9 6.05-0.4 1.14-2.1 3.69-3.8 5.67-3.4 3.83-3.7 5.44-5.3 27.78-0.7 9.56-0.2 12.13 5.6 33.5 1.5 5.77 3.3 13.2 4 16.5s2 8.02 3 10.5c2.6 6.61 5.2 16.07 7 25.5 0.7 3.3 1.6 7.35 2 9 2.2 7.58 4 15.33 4 17.41 0 4.3 3 8.87 6.8 10.46 6.8 2.79 8.3 2.25 18.9-6.49zm-408.01-22.75c3.75-2.19 12.9-7.2 20.32-11.15 7.43-3.94 14.85-8.18 16.5-9.42 1.65-1.25 4.49-3.03 6.31-3.96 4.03-2.08 10.32-8.58 9.53-9.86-0.31-0.51-1.75-0.65-3.2-0.31-7.07 1.66-22.28 3.72-37.64 5.08-17.11 1.52-29.88 3.8-32.31 5.78-0.73 0.58-1.95 2.28-2.72 3.77-1.23 2.39-1.17 3.36 0.57 8.3 1.08 3.07 1.96 6.47 1.96 7.56 0 1.08 0.45 2.24 1 2.58s1 1.4 1 2.36c0 5.59 8.4 5.26 18.68-0.73zm119.97 3.4c3.52-2.46 5.35-7.72 5.35-15.37 0-7.22-0.75-10.17-3.5-13.66-1.26-1.59-2.77-2-7.43-2-6.93 0-9.21 1.59-11.23 7.82-2.31 7.12 1.35 18.17 7.43 22.43 3.72 2.61 6.45 2.84 9.38 0.78zm339.04-15.66c3.1-1.72 8.3-4.12 11.7-5.33 5.1-1.86 6.9-3.14 10.9-8.12 2.6-3.26 5.5-7.27 6.4-8.92 1.6-3.11 2.8-14.37 3.7-36 0.9-22.17 3-52.91 4.6-67.5 1.1-9.94 3.3-41.018 3.3-45.775-0.1-2.131-1.3-4.803-3.4-7.655-4.7-6.105-6.4-7.004-10.2-5.54-11.5 4.315-20.9 8.939-32.7 16.04l-11.5 6.94-4.9 9.745c-2.7 5.359-5.5 10.415-6.1 11.245-2.2 2.66-3.5 11.48-2.6 17.19 0.5 2.92 1.5 10.26 2.1 16.31s1.4 12.35 1.6 14c0.3 1.65 0.9 6.82 1.4 11.5 0.8 7.64 3.4 29.83 6.1 51.5 0.6 4.4 1.4 12.43 1.8 17.84 0.9 10.33 1.4 11.41 6.6 14.1 4.1 2.13 5 2.01 11.2-1.57zm-818.9-2.27c7.53-3.84 10.84-11.78 7.87-18.89-2.38-5.68-11.17-12.29-19.39-14.57-6.61-1.83-7.69-1.88-13.9-0.58-3.7 0.78-7.1 1.98-7.55 2.68-1.22 1.89 0.04 9.42 2.84 16.96 5.43 14.65 17.91 20.62 30.13 14.4zm880.5-5.35c1.4-1.51 3.3-4.55 4.1-6.75 2.6-6.55 7.3-23.31 9.6-34 1.2-5.5 3.2-13.6 4.5-18s3.1-11.15 3.9-15c0.9-3.85 2.8-12.18 4.2-18.5 1.4-6.33 3-13.53 3.5-16 0.5-2.48 2.3-9.3 4-15.17 1.6-5.86 3.6-13.737 4.4-17.496 0.7-3.759 2.3-10.435 3.4-14.835 1.8-6.86 6.1-33.86 6.1-37.971 0-0.756-1.2-2.818-2.7-4.58-2.7-3.182-2.7-3.201-9.7-2.617-5.9 0.493-22.2 4.648-30.2 7.678-1.2 0.452-4.7 5.266-8.1 11.143l-6 10.347-0.6 15.5c-0.7 16.467-2.7 43.141-5.2 67.001-0.8 7.97-1.5 19.99-1.5 26.7s-0.4 14.36-0.9 17-1.2 11.34-1.5 19.34c-0.5 11.82-0.3 15.41 1 19.23 3.2 9.29 12.1 12.82 17.7 6.98zm-344.7-25.27c2.73-5.25 4.81-16.98 3.9-21.98-0.37-2.07-2.13-5.05-4.29-7.27-3.61-3.73-3.72-3.77-9.67-3.2-9.39 0.91-10.51 1.32-11.68 4.25-3.33 8.36-0.6 21.17 6.09 28.58 4.1 4.52 6.33 5.54 10.37 4.71 2.21-0.45 3.53-1.73 5.28-5.09zm-277.07-1.37c1.71-1.25 1.97-3.37 2.6-21.25 0.66-18.5 0.57-20.07-1.21-22.98-1.05-1.71-1.91-4.06-1.91-5.22 0-1.33-1.1-2.68-3-3.66-1.65-0.85-3-1.98-3-2.49 0-1.59-6.83-7.89-10.77-9.92-2.05-1.06-5.73-3.81-8.18-6.12-4.8-4.52-15.22-12.41-24.05-18.22-3.02-1.99-8.75-5.89-12.74-8.67-3.98-2.77-8.93-5.75-11-6.62-2.06-0.86-4.92-2.68-6.34-4.039-2.81-2.69-10.44-4.406-19.64-4.416-5.1-0.006-5.33 0.124-9.25 5.084-2.22 2.801-4.03 5.711-4.03 6.471 0 0.75-1.55 2.93-3.46 4.84-4.37 4.37-5.08 7.22-3.19 12.8 2.43 7.17 6.56 15.29 8.42 16.59 0.96 0.66 4.88 3.42 8.73 6.13 3.85 2.72 11.5 7.83 17 11.36s18.33 11.8 28.5 18.37c10.18 6.57 21.5 13.61 25.16 15.64 3.66 2.04 8.87 5.45 11.57 7.59 2.7 2.13 6.41 4.72 8.23 5.75s4.26 2.43 5.42 3.1c2.74 1.6 3.82 1.58 6.14-0.12zm153.06-15.19c0.67-3.57-0.72-8.42-2.42-8.42-0.98 0-14.94-6.7-22.66-10.88-35.14-19.02-51.04-27.12-53.25-27.12-1.1 0-2.51 0.61-3.13 1.36-1.78 2.14-5.12 19.33-5.12 26.32 0 6 0.2 6.51 3.88 10.19l3.87 3.87 10.88 0.71c5.98 0.39 14.02 1.31 17.87 2.05 12.36 2.38 35.22 5.18 43.71 5.37l5.7 0.13 0.67-3.58zm-394.81-16.61c6.04-3.68 6.62-7.27 2.42-15.08-5.56-10.36-7.91-13.21-13.78-16.73-5.13-3.07-6.61-3.48-11.99-3.35-9.21 0.23-14.79 3.72-14.64 9.17 0.12 4.11 6.56 17.08 10.91 21.97 2.11 2.38 5.6 4.93 7.81 5.74 5.13 1.86 14.79 1 19.27-1.72zm566.7-16.8c3.11-1.18 9.53-13.69 9.53-18.55 0-7.57-6.52-18.46-11.06-18.46-1.08 0-2.82-0.54-3.87-1.19-2.95-1.84-9.63 2.97-11.01 7.92-1.62 5.84-1.27 13.08 0.83 17.13 1.03 2 2.7 5.6 3.7 8 2.36 5.66 6.18 7.32 11.88 5.15zm-165.16-5.01l2.8-4.99-2.78-3.76c-1.53-2.06-4.07-5.1-5.64-6.75s-3.68-4.58-4.69-6.5c-1-1.93-3.21-5.04-4.91-6.93s-3.09-3.77-3.09-4.18c0-0.42-2.13-3.48-4.75-6.8-2.61-3.33-6.77-8.76-9.25-12.08-4.4-5.894-7.34-9.585-18.56-23.269-4.72-5.767-5.81-6.611-7.42-5.752-1.03 0.553-4.64 6.295-8.02 12.758-5.9 11.295-6.12 11.965-5.53 17.223 0.66 5.94 2.52 8.66 8.55 12.51 1.93 1.24 5.13 3.77 7.12 5.63 7.47 7.01 19.93 16.79 37.78 29.65 1.32 0.96 4.25 3.2 6.5 4.98 5.96 4.73 8.46 4.36 11.89-1.74zm-154.5-13.08c2.65-0.93 3.33-1.91 4.66-6.75 0.86-3.12 2.41-7.92 3.44-10.67 2.16-5.75 4.76-13.37 6.35-18.64 1.72-5.708-0.46-9.506-10.92-19.025-5.04-4.584-11.52-10.136-14.39-12.336-2.88-2.2-5.74-4.453-6.34-5.006-0.61-0.554-4.69-3.929-9.06-7.5-4.38-3.572-10.91-9.241-14.5-12.598-3.6-3.358-8.12-6.641-10.05-7.296-5.96-2.03-17.92-3.203-20.34-1.996-3.19 1.591-12.44 11.935-13.77 15.396-0.63 1.65-1.97 4.8-2.98 7-1.35 2.963-1.62 4.908-1.02 7.5 1.1 4.835 4.81 13 5.9 13 0.5 0 3.52 2.289 6.72 5.087 3.19 2.798 7.54 6.182 9.66 7.52 2.12 1.339 4.64 3.067 5.6 3.84 2.03 1.644 11.71 9.164 21.92 17.034 3.96 3.05 7.79 6.1 8.53 6.78 3.23 3 16.94 13.79 22.15 17.43 3.67 2.57 4.32 2.66 8.44 1.23zm-229.88-23.99c5.09-2.19 5.76-3.13 8.58-12.13 1.49-4.76 1.58-6.179 0.54-8.686-1.88-4.532-8.5-10.537-15.59-14.135-5.56-2.824-7.4-3.239-14.82-3.352-7.63-0.115-8.72 0.107-11 2.248-3.93 3.689-4.09 6.794-0.77 14.957 3.54 8.708 6.96 13.378 12.84 17.538 3.9 2.76 10.23 5.24 14.11 5.53 0.72 0.06 3.47-0.83 6.11-1.97zm603.41-5.93c4.23-2.85 7.66-8.48 7.66-12.571 0-0.841 0.73-2.932 1.62-4.647 0.88-1.715 1.77-5.466 1.97-8.335 0.32-4.512-0.04-5.77-2.6-9.311-3.61-4.976-12.01-9.598-15.75-8.659-1.39 0.348-3.92 1.928-5.63 3.51-1.71 1.583-4.2 3.743-5.54 4.801-4.59 3.636-4.55 20.811 0.06 23.279 1.07 0.572 1.87 2.083 1.87 3.513 0 3.67 6.09 9.58 11.7 11.36 0.11 0.03 2.2-1.29 4.64-2.94zm-349.16-29.821c2.26-0.918 7.94-8.506 12.3-16.435 2.64-4.793 3.74-8.205 4.18-12.952 0.56-5.999 0.43-6.579-1.84-8.369-1.35-1.058-3.31-3.274-4.36-4.924-4.11-6.45-15.24-18.383-35.96-38.548-7.84-7.6344-16.43-13.952-18.97-13.952-1.11 0-5.62 1.199-10.02 2.665-8.81 2.9324-10.95 4.7229-17.54 14.658-3.62 5.4631-4.03 6.669-3.55 10.431 0.74 5.802 3.98 11.798 8.4 15.555 2.03 1.724 5.26 4.723 7.18 6.665 1.93 1.942 7.1 6.439 11.5 9.992s9.58 8.052 11.51 9.997c3.02 3.048 11.98 11.243 24.99 22.856 3.51 3.13 8.09 4.018 12.18 2.361zm411.11-15.614c2.5-1.664 4.1-4.349 8.6-14.943 5.6-13.021-0.7-24.155-15.5-27.268-3.8-0.79-7.9-1.187-9.1-0.881-2.5 0.63-5.3 5.23-5.3 8.851 0 1.333-0.6 4.263-1.4 6.51-1.64 4.565-1.23 6.688 2.8 14.665 1.4 2.75 2.6 6.054 2.6 7.343 0 2.973 3.5 7.485 6.3 8.224 2.9 0.747 7.7-0.348 11-2.501zm-635.99-14.655c3.09-1.409 6.7-8.878 6.7-13.865 0-4.457-5.54-15.984-9.2-19.12-4.82-4.141-9.56-5.928-15.51-5.846-6.72 0.094-15.14 2.675-16.65 5.111-1.55 2.5 1.63 14.631 5.24 19.951 7.91 11.668 20.8 17.699 29.42 13.769zm266.14-21.47c3.61-3.057 6.82-6.62 7.15-7.918 0.81-3.234-1.13-11.943-4.06-18.283-1.35-2.8934-7.07-11.497-12.73-19.12-15.97-21.498-19.79-26.861-23.41-32.883-4.5-7.468-7.02-10.002-10.76-10.8-1.72-0.367-3.68-1.116-4.36-1.664-2.17-1.747-6.36 0.18-12.14 5.587-3.1 2.891-7.65 6.798-10.13 8.683-6.7 5.107-7.1 5.805-6.72 11.957 0.47 7.643 4.13 12.841 21.72 30.828 7.98 8.1537 16.04 16.59 17.92 18.749 13.53 15.525 16.75 18.47 21.19 19.341 8.46 1.662 9.4 1.405 16.33-4.477zm430.15-11.97c6.9-2.77 11.5-13.772 10-23.8-0.6-3.905-1.6-5.771-5.5-9.75-3.2-3.362-5.5-4.921-7.3-4.921-1.4 0-4.5-0.263-6.9-0.586-5.6-0.752-9.4 2.19-8.5 6.63 0.4 2.2 0 3.119-1.9 4.392-2.1 1.3824-2.5 2.3777-2.5 7.0284 0 2.9798 0.5 5.696 1 6.0359 0.6 0.3399 1 1.6265 1 2.859 0 1.2326 0.6 2.7883 1.2 3.4571 0.7 0.6688 2.2 3.1126 3.3 5.4296 2.8 5.776 7.5 6.717 16.1 3.225zm-669.76-27.559c5.08-1.7729 7.64-7.0269 7.56-15.572-0.09-10.43-2.74-14.071-14.11-19.414-10.98-5.158-22.77-3.012-25.28 4.601-2.99 9.038 3.28 23.875 12.5 29.603 3.45 2.1425 14.18 2.5767 19.33 0.7819zm739.86-14.722c3.7-1.996 7.8-11.81 7.8-18.534 0-5.178-0.3-6.095-2.7-8.038-1.5-1.206-2.8-3.165-2.8-4.354 0-3.986-9.4-9.264-16.6-9.264-4.5 0-6.4 0.897-6.4 2.989 0 0.976-1.5 2.947-3.4 4.381-4 3.028-5.7 8.321-3.3 10.067 1 0.729 1.3 2.17 0.9 4.42-0.5 3.908 1.3 10.124 4.5 15.345 1.8 2.886 3.1 3.84 6 4.331 2.1 0.347 4.2 0.735 4.8 0.862 1.7 0.424 9-1.011 11.2-2.205zm59.2-33.252c11.6-3.543 16.2-15.985 10.7-28.938-2.9-6.682-8.1-10.386-13.3-9.472-2.9 0.489-3.4 0.223-4.3-1.981-0.7-2.056-1.6-2.546-4.4-2.546-3.9 0-4.5 0.55-5 4.973-0.2 1.722-1.2 4.12-2.4 5.329-2.6 2.872-4.2 11.026-3.2 16.697 1 6.346 5.5 14.169 9.2 16.212 3.4 1.852 5.9 1.798 12.7-0.274zm-765.2-6.888c4.67-2.849 5.48-5.163 5.9-16.926 0.44-12.513-0.69-15.71-7.31-20.753-4.6-3.5-11.31-5.31-20.35-5.51-7.68-0.16-9.47 1.05-11.41 7.74-2.58 8.852-0.23 16.555 8.26 27.194 4.22 5.286 6.8 7.023 12.95 8.712 6.65 1.83 8.31 1.766 11.96-0.457zm857.3-28.491c0-0.792-0.4-1.7-0.9-2.016-1.2-0.735-2.4 1.138-1.6 2.457 0.9 1.488 2.5 1.209 2.5-0.441zm-818.72-29.128c1.77-2.52 4.06-6.68 5.07-9.25 3.62-9.16 0.09-21.14-7.7-26.12-1.72-1.11-4.71-3.08-6.64-4.38-1.92-1.3-5.57-2.64-8.11-2.98-4-0.54-5.24-0.23-9.35 2.38l-4.74 3 0.39 8.21c0.31 6.49 1 9.47 3.29 14.2 5.08 10.5 15.29 19.42 22.29 19.49 1.58 0.01 3.27-1.39 5.5-4.55zm754.92 279.57c0-1.38 0.2-1.94 0.5-1.25s0.3 1.81 0 2.5-0.5 0.12-0.5-1.25zm3-11c0-1.38 0.2-1.94 0.5-1.25s0.3 1.81 0 2.5-0.5 0.12-0.5-1.25z"/>
  </g>
  <metadata>
    <rdf:RDF>
      <cc:Work>
        <dc:format>image/svg+xml</dc:format>
        <dc:type rdf:resource="http://purl.org/dc/dcmitype/StillImage"/>
        <cc:license rdf:resource="http://creativecommons.org/licenses/publicdomain/"/>
        <dc:publisher>
          <cc:Agent rdf:about="http://openclipart.org/">
            <dc:title>Openclipart</dc:title>
          </cc:Agent>
        </dc:publisher>
        <dc:title>Butterfly</dc:title>
        <dc:date>2012-09-04T10:23:08</dc:date>
        <dc:description>Am I a butterfly dreaming I a woman or a woman dreaming I am a butterfly, or a man dreaming I am using a computer and downloading clipart or am I computer dreaming I am real? Yeah, answer that.</dc:description>
        <dc:source>http://openclipart.org/detail/172119/butterfly-by-j4p4n-172119</dc:source>
        <dc:creator>
          <cc:Agent>
            <dc:title>j4p4n</dc:title>
          </cc:Agent>
        </dc:creator>
        <dc:subject>
          <rdf:Bag>
            <rdf:li>beautiful</rdf:li>
            <rdf:li>butterfly</rdf:li>
            <rdf:li>clip art</rdf:li>
            <rdf:li>clipart</rdf:li>
            <rdf:li>insect</rdf:li>
            <rdf:li>nature</rdf:li>
            <rdf:li>spring</rdf:li>
          </rdf:Bag>
        </dc:subject>
      </cc:Work>
      <cc:License rdf:about="http://creativecommons.org/licenses/publicdomain/">
        <cc:permits rdf:resource="http://creativecommons.org/ns#Reproduction"/>
        <cc:permits rdf:resource="http://creativecommons.org/ns#Distribution"/>
        <cc:permits rdf:resource="http://creativecommons.org/ns#DerivativeWorks"/>
      </cc:License>
    </rdf:RDF>
  </metadata>
</svg>
