<?xml version="1.0" encoding="UTF-8"?>
<svg width="340px" height="309px" viewBox="0 0 340 309" version="1.1" xmlns="http://www.w3.org/2000/svg" xmlns:xlink="http://www.w3.org/1999/xlink">
    <!-- Generator: Sketch 43.2 (39069) - http://www.bohemiancoding.com/sketch -->
    <title>path6658</title>
    <desc>Created with Sketch.</desc>
    <defs></defs>
    <g id="Page-1" stroke="none" stroke-width="1" fill-rule="evenodd">
        <path d="M301.144415,116.571391 C282.511125,106.58199 292.520912,76.0021919 268.281325,71.4084266 C252.998222,69.8114816 227.154895,64.7080531 222.173785,81.4046228 C225.469608,99.303998 255.594107,83.096705 255.730017,105.039409 C251.77503,128.456739 230.172101,108.219708 222.540743,94.7034373 C211.001966,78.5844859 176.073041,85.1217672 182.270547,104.543337 C194.230645,103.170644 223.777526,120.071079 210.138936,135.170703 C189.929087,144.664032 182.712255,99.1477012 161.727718,109.408922 C123.435015,139.057735 97.591688,181.57045 79.4884476,227.005235 C67.4943712,248.879984 67.6234859,277.122126 52.8500457,297.331975 C43.2276026,317.827235 5.49892729,307.287398 0.545,283.421564 C1.40802986,247.242265 16.0047868,214.56945 35.3176282,187.101996 C55.609023,159.858794 79.8757917,135.170703 109.694493,118.052812 C139.513193,100.934921 140.72959,91.1697717 121.260452,71.9520675 C101.329219,53.6041887 135.449478,41.1819951 140.797545,63.9129784 C137.406585,73.3179651 135.041747,95.2402826 153.117806,93.3919037 C177.867056,88.5399091 164.065373,59.7269438 158.214439,41.8683417 C158.96874,20.5983933 189.201968,39.9384167 182.025908,55.5680912 C174.007206,62.6286268 173.782954,78.2786879 189.392242,77.9389124 C213.203711,79.1621043 214.91618,54.1206475 205.388874,35.3990155 C201.963937,11.0099277 240.079956,25.3756373 227.983947,43.655561 C216.003462,50.6481415 222.03108,69.2950228 238.014121,64.2663449 C257.673533,63.8042502 285.263306,49.0104234 270.523844,24.9407246 C256.742548,19.5654757 250.341177,-1.20840049 269.416176,1.04091355 C290.998717,-3.05677939 290.224029,27.2647893 310.495038,26.6871709 C337.758626,26.1843031 327.259562,52.9857972 331.173777,68.5067436 C357.241356,88.791343 317.487618,95.3761928 315.224713,111.63785 C312.05121,115.565655 306.947781,118.277064 301.144415,116.571391 Z" id="path6658" fill="#1A1AE0" fill-rule="nonzero"></path>
    </g>
</svg>