<?xml version="1.0" encoding="utf-8"?>
<svg height="100" width="100">
	<path d="M185.158,60.775l-0.698-4.896c-0.675-3.783-1.681-7.316-3.208-10.128c-5.67-10.472-48.894-65.225-61.319-68.777c-2.081-0.595-7.61-1.974-14.101-1.974c-8.908,0-16.174,2.602-21.013,7.528c-4.369,4.442-6.737,10.636-7.054,18.44c-6.133,2.803-21.237,10.434-25.399,19.22c-2.099,4.433-10.814,8.388-17.817,11.571c-5.636,2.561-10.503,4.771-13.48,7.521c-1.598,1.476-3.766,3.669-6.267,6.202C7.681,52.688-3.083,63.58-9.476,66.273c-7.238,3.047-12.022,7.993-12.489,12.911c-0.249,2.633,0.84,5.033,2.917,6.415c3.74,2.492,17.312,4.357,26.946,4.357c2.032,0,3.994-0.077,5.819-0.237c5.479-0.503,25.312-0.905,44.213-0.905c22.609,0,32.813,0.55,34.684,1.023c3.92,0.995,7.436,0.942,12.58,0.554c3.368-0.246,7.289-0.536,13.075-0.435c5.942,0.118,11.431,0.349,15.948,0.544c4.02,0.169,7.287,0.312,9.459,0.312c1.462,0,2.392-0.06,3.031-0.178c0.235-0.03,1.45-0.127,7.174-0.127c10.246,0,26.791,0.305,26.798,0.305c2.165,0.031,3.745-1.457,4-3.467C184.779,86.538,186.425,73.199,185.158,60.775z" />
</svg>

