<?xml version="1.0" encoding="UTF-8" standalone="no"?>
<svg
   xmlns:dc="http://purl.org/dc/elements/1.1/"
   xmlns:cc="http://creativecommons.org/ns#"
   xmlns:rdf="http://www.w3.org/1999/02/22-rdf-syntax-ns#"
   xmlns:svg="http://www.w3.org/2000/svg"
   xmlns="http://www.w3.org/2000/svg"
   id="svg4531"
   version="1.1"
   viewBox="0 0 164.9796 286.68539"
   height="286.68539mm"
   width="164.9796mm">
  <defs
     id="defs4525" />
  <metadata
     id="metadata4528">
    <rdf:RDF>
      <cc:Work
         rdf:about="">
        <dc:format>image/svg+xml</dc:format>
        <dc:type
           rdf:resource="http://purl.org/dc/dcmitype/StillImage" />
        <dc:title></dc:title>
      </cc:Work>
    </rdf:RDF>
  </metadata>
  <g
     transform="translate(-19.671729,-54.903258)"
     id="layer1">
    <path
       id="path4563"
       d="m 31.044464,341.01728 c -1.55223,-0.27888 -3.57065,-0.87823 -4.48538,-1.33191 -1.96394,-0.97404 -6.48396,-4.68921 -6.81032,-5.59763 -0.33683,-0.93758 0.45942,-1.65877 1.83141,-1.65877 1.6959,0 2.92457,0.73531 4.29637,2.57121 1.23817,1.65708 2.44456,2.68422 4.80937,4.09476 1.08477,0.64704 2.09412,0.88454 4.30619,1.01327 2.66325,0.15498 3.06785,0.0846 5.17143,-0.89981 1.25517,-0.58736 3.11535,-1.72655 4.13372,-2.53153 1.18064,-0.93325 1.93857,-1.32284 2.09165,-1.07516 0.16552,0.26782 0.37181,0.22969 0.66436,-0.12282 0.23337,-0.28119 0.84143,-0.61594 1.35124,-0.7439 0.50982,-0.12795 1.25737,-0.47573 1.66123,-0.77283 0.70964,-0.52205 0.71061,-0.53427 0.0287,-0.36392 -0.38805,0.0969 -1.14634,0.27448 -1.68509,0.39452 -1.47315,0.32824 -4.86546,1.9292 -6.18318,2.91808 -1.55415,1.16631 -5.07963,2.57369 -6.44708,2.57369 -0.97701,0 -1.96001,-0.32759 -4.38186,-1.46026 -0.38805,-0.18148 -1.80121,-1.36335 -3.14035,-2.62637 -3.18826,-3.00702 -5.05559,-4.0958 -6.78746,-3.95754 -3.92043,0.31298 1.06581,-3.55666 6.9292,-5.37751 3.21441,-0.99821 5.80908,-1.47861 11.06756,-2.04912 2.19236,-0.23787 2.53859,-0.38754 3.61597,-1.56317 0.79602,-0.8686 1.19147,-1.64902 1.19147,-2.35136 0,-0.66882 0.39142,-1.49703 1.07599,-2.27671 l 1.07599,-1.22548 -0.10585,-5.93055 -0.10585,-5.93054 1.68877,-3.70417 c 0.92882,-2.03729 2.11884,-4.65667 2.64448,-5.82083 0.52564,-1.16417 1.68484,-3.54542 2.57598,-5.29167 1.95637,-3.83359 2.3156,-5.04955 1.5757,-5.33348 -0.29053,-0.11148 -0.63622,-0.78268 -0.7682,-1.49155 -0.13198,-0.70888 -0.77182,-1.98706 -1.42186,-2.84041 -1.29349,-1.69803 -2.94348,-6.39451 -2.94348,-8.3782 0,-1.78751 0.86801,-3.02074 3.04094,-4.32043 1.04387,-0.62436 1.89795,-1.27288 1.89795,-1.44114 0,-0.16826 -0.40903,-0.79204 -0.90895,-1.38616 -0.49993,-0.59413 -1.05949,-1.62541 -1.24347,-2.29173 -0.24434,-0.88492 -0.74425,-1.45162 -1.85458,-2.10231 -2.77076,-1.62378 -4.2329,-3.59318 -6.29519,-8.47919 -2.40736,-5.70356 -1.44391,-12.97401 2.31149,-17.44308 1.64815,-1.96138 1.65748,-2.52426 0.0418,-2.52426 -2.75058,0 -7.29843,-2.29705 -11.85179,-5.98615 -2.36667,-1.91746 -4.99126,-3.24098 -7.10061,-3.58068 -2.15612,-0.34724 -3.45163,-0.93182 -3.41799,-1.54234 0.0108,-0.19586 1.00298,-0.98324 2.20486,-1.74973 4.88488,-3.11527 5.83532,-4.00202 6.08677,-5.67884 0.26062,-1.73795 -0.15643,-3.86085 -1.62532,-8.27338 -0.54902,-1.64923 -1.25517,-4.34798 -1.56921,-5.99722 -0.31405,-1.64923 -0.8886,-4.01277 -1.27679,-5.2523 -1.03274,-3.29762 -0.98211,-8.43152 0.10068,-10.20994 1.33754,-2.19684 3.47138,-4.64976 7.8778,-9.05581 3.63654,-3.63623 5.37548,-5.14903 9.52464,-8.28601 1.36647,-1.03312 3.90754,-3.87391 4.77106,-5.3338 1.34443,-2.27294 3.86876,-4.9003 4.71402,-4.90643 0.41002,-0.003 0.98361,-0.15929 1.27465,-0.34737 0.63896,-0.41293 0.91416,-0.39656 -5.99722,-0.35687 -3.85933,0.0222 -5.96744,-0.14658 -8.58598,-0.68724 -1.90889,-0.39413 -3.61545,-0.80607 -3.79237,-0.91541 -0.17691,-0.10933 -0.31159,-0.78474 -0.29929,-1.50089 0.0185,-1.07584 0.0746,-1.1727 0.32325,-0.55742 0.1655,0.40958 0.55231,0.84116 0.85959,0.95907 0.45183,0.17339 0.55086,-0.0365 0.51776,-1.09745 -0.0233,-0.747 -0.11399,-1.00805 -0.21063,-0.60629 -0.0933,0.38805 -0.33634,0.8643 -0.54,1.05833 -0.25191,0.24 -0.2907,0.2118 -0.12132,-0.0882 0.13693,-0.24253 0.13132,-0.6313 -0.0125,-0.86394 -0.14378,-0.23264 -0.28841,-1.22483 -0.3214,-2.20487 -0.033,-0.98003 0.009,-1.49528 0.0938,-1.145 0.21653,0.89656 0.88887,0.55935 1.19933,-0.60152 0.32199,-1.20395 0.0252,-2.07862 -0.62112,-1.8306 -0.73059,0.28036 -0.57985,-0.42151 0.17758,-0.82688 0.57882,-0.30977 0.68745,-0.19235 0.87156,0.94216 0.13363,0.82348 0.0212,1.67522 -0.30846,2.33595 -0.80195,1.60756 -0.68558,1.75729 1.15692,1.48862 7.21077,-1.05147 17.65592,-1.35493 25.42775,-0.73874 l 3.29094,0.26093 -0.46872,-0.77069 c -0.77769,-1.2787 -2.52487,-1.76749 -6.509,-1.82096 -2.02206,-0.0271 -3.76194,-0.18763 -3.86641,-0.35665 -0.5422,-0.87731 3.22692,-1.1019 8.231,-0.49045 1.45299,0.17754 1.45228,-0.15478 -0.002,-1.04534 -1.26757,-0.77609 -4.28485,-1.27295 -7.443,-1.22563 -1.5582,0.0233 -2.02767,-0.0829 -1.91187,-0.43252 0.25335,-0.76494 2.98425,-1.16866 4.73603,-0.70013 0.84941,0.22719 2.07633,0.41307 2.72647,0.41307 0.67173,0 1.59426,0.32421 2.13677,0.75095 1.11152,0.87432 1.82109,0.48754 1.49207,-0.81332 -0.24399,-0.96469 -1.47896,-1.56783 -4.45194,-2.17427 -1.18936,-0.2426 -2.11615,-0.59267 -2.05954,-0.77793 0.18681,-0.6113 3.73974,-0.2763 5.61207,0.52916 1.55521,0.66903 1.94913,0.71962 2.65635,0.34113 0.56537,-0.30258 0.83035,-0.75645 0.83035,-1.42229 0,-0.53785 0.15875,-1.07602 0.35278,-1.19593 0.19402,-0.11992 0.35277,-1.07145 0.35277,-2.11453 0,-2.78892 0.44468,-3.60619 3.56085,-6.54445 2.60084,-2.45235 3.0922,-2.75507 6.24562,-3.84798 1.88249,-0.65243 3.85238,-1.39985 4.37755,-1.66093 2.2235,-1.10539 6.97182,-7.03427 6.99102,-8.72917 0.0172,-1.52007 1.71841,-4.8065 4.32757,-8.36019 3.311196,-4.51003 5.616386,-7.019143 6.448586,-7.019143 0.81653,0 4.8755,-1.21599 8.37611,-2.509329 1.51612,-0.560148 3.15375,-1.018449 3.63917,-1.018449 1.3127,0 2.24776,0.630012 2.24369,1.511717 -0.003,0.713535 -3.16081,4.837144 -6.13593,8.013284 -0.63611,0.6791 -1.97272,2.21653 -2.97024,3.41653 -0.99752,1.19999 -2.69713,2.7682 -3.77691,3.48492 -1.07978,0.71672 -2.38269,1.87803 -2.89536,2.5807 -0.51266,0.70266 -1.46319,1.84554 -2.11228,2.53971 -0.802101,0.85782 -1.105299,1.45725 -0.946458,1.87118 0.239875,0.62511 5.269088,3.30758 7.649148,4.07989 1.03005,0.33424 1.90967,0.34038 3.88056,0.0271 3.09865,-0.49253 3.84032,-0.75061 7.66386,-2.66676 1.64923,-0.82652 3.97619,-1.8231 5.17101,-2.21463 1.19483,-0.39153 2.53848,-0.90779 2.9859,-1.14724 0.55757,-0.2984 3.03717,-0.45098 7.88176,-0.48498 4.99033,-0.035 7.50058,-0.19423 8.53879,-0.54155 1.39057,-0.4652 1.53814,-0.44562 2.71417,0.36021 1.48743,1.0192 1.75957,1.82772 1.12575,3.34465 -0.54118,1.29523 -1.77575,2.28358 -2.85247,2.28358 -0.86303,0 -5.51395,2.20695 -7.04408,3.34255 -1.73015,1.28404 -8.63549,4.65948 -11.23659,5.49261 -2.3047,0.7382 -2.59523,0.75304 -6.24535,0.31896 -4.71252,-0.56042 -7.01319,-0.14397 -9.10734,1.64855 -1.78918,1.53147 -2.07692,2.40895 -2.27422,6.93533 l -0.16577,3.80327 1.1754,0.49111 c 1.1897,0.49709 2.93892,2.57017 3.98168,4.71887 0.50602,1.04269 0.68963,1.15096 1.63207,0.96247 0.58405,-0.11681 1.6262,-0.58581 2.31588,-1.04222 0.68969,-0.45641 1.78628,-0.94675 2.43689,-1.08965 1.06086,-0.233 1.30391,-0.12774 2.35542,1.02004 1.0954,1.19569 1.2719,1.26487 2.68416,1.05207 1.88835,-0.28455 6.97972,-2.19578 6.97972,-2.62011 0,-0.17317 0.49269,-0.87601 1.09487,-1.56186 1.17048,-1.3331 2.39532,-1.61325 3.13846,-0.71783 0.48495,0.58433 1.41111,0.71664 1.41111,0.20159 0,-0.42856 1.01388,-1.43631 1.44504,-1.43631 0.50408,0 1.0806,1.73559 1.17185,3.52778 0.0921,1.80854 -0.57523,4.05294 -1.51791,5.10523 -0.35259,0.39358 -0.73912,0.99342 -0.85895,1.33296 -0.29356,0.83177 -0.96859,0.782 -1.19615,-0.0882 -0.25318,-0.96818 -0.54857,-0.88682 -1.28082,0.35278 -0.34385,0.58208 -0.85432,1.05833 -1.1344,1.05833 -0.63657,0 -0.64221,0.055 0.16603,-1.61786 0.37139,-0.76868 0.87283,-2.3542 1.11432,-3.52336 0.67706,-3.27801 -0.18933,-5.50719 -1.08529,-2.79238 -0.39789,1.20559 -1.73601,2.44082 -3.5265,3.25532 -1.02872,0.46797 -2.71877,0.74567 -6.23347,1.02427 -2.273,0.18017 -2.59374,0.12523 -3.16521,-0.5422 -0.80235,-0.93707 -2.55814,-0.97493 -3.69626,-0.0797 -0.46358,0.36465 -1.15967,0.72479 -1.54688,0.8003 -0.79016,0.15409 -0.8082,0.93623 -0.0924,4.00476 0.22631,0.97014 0.4194,3.66889 0.42909,5.99722 l 0.0176,4.23333 -0.8795,0.12397 c -0.48372,0.0682 -1.71404,-0.0762 -2.73403,-0.32093 -1.50763,-0.36167 -2.21627,-0.35811 -3.78843,0.0191 -1.17715,0.2824 -1.99698,0.68407 -2.0951,1.02649 -0.38018,1.32673 -1.16702,6.71035 -1.23017,8.41694 -0.076,2.05478 0.90329,6.94826 2.20527,11.01922 0.4654,1.4552 0.95343,3.20145 1.08452,3.88055 0.48118,2.49283 1.35867,5.849 1.79859,6.87917 0.24858,0.58208 0.78749,2.48708 1.19759,4.23333 0.4101,1.74625 0.89613,3.65125 1.08006,4.23333 0.47598,1.5063 2.11583,9.65244 2.6986,13.40556 0.50135,3.2288 1.44359,7.34431 1.53458,6.70278 0.11561,-0.81513 -0.0392,-8.26252 -0.19489,-9.37389 -0.0932,-0.66519 -0.31584,-2.3207 -0.49482,-3.67889 -0.17897,-1.3582 -0.40357,-3.02507 -0.4991,-3.70417 -1.04812,-7.4512 -1.37641,-11.96986 -1.39683,-19.22639 -0.0317,-11.26113 0.38743,-13.58341 3.69299,-20.46314 0.8385,-1.74513 1.53226,-3.35172 1.54167,-3.57019 0.009,-0.21848 0.2102,-0.77411 0.44618,-1.23473 0.23599,-0.46062 0.92271,-2.18687 1.52606,-3.8361 0.84831,-2.31888 1.09863,-3.58284 1.10426,-5.5759 0.007,-2.57578 0.008,-2.57723 0.93822,-2.46945 1.59396,0.18465 1.44015,2.36839 -0.54786,7.77846 -0.48079,1.30842 -1.01944,2.46873 -1.19699,2.57846 -0.17754,0.10972 -0.32281,0.37349 -0.32281,0.58613 0,0.22024 0.2657,0.15236 0.61736,-0.15773 1.17926,-1.03983 4.15906,-2.35363 6.61459,-2.91639 1.35819,-0.31127 3.09599,-0.73215 3.86178,-0.93528 0.76578,-0.20314 2.64796,-0.42566 4.18262,-0.49449 5.49128,-0.24627 8.87928,-2.11677 10.82921,-5.97875 0.48507,-0.96072 1.8874,-2.81581 3.11629,-4.12244 1.37202,-1.45879 2.13386,-2.53829 1.97397,-2.797 -0.15205,-0.24603 -0.11084,-0.32889 0.0991,-0.19917 0.34599,0.21384 1.90085,-1.46295 4.83748,-5.21681 0.76392,-0.97652 2.11447,-2.45343 3.00122,-3.28202 l 1.61226,-1.50654 -1.05833,-0.89407 c -0.58209,-0.49174 -1.61396,-1.18941 -2.29306,-1.55038 -0.67909,-0.36097 -1.86225,-1.30476 -2.62923,-2.09731 -0.76698,-0.79255 -1.58343,-1.441 -1.81434,-1.441 -0.23091,0 -0.51121,-0.23813 -0.62289,-0.52917 -0.39927,-1.04047 -1.48983,-0.44575 -3.4002,1.85426 -1.06716,1.2848 -2.05715,2.6314 -2.19999,2.99244 -0.78644,1.98783 -6.02168,8.02969 -6.95769,8.02969 -0.29768,0 -0.37366,0.26822 -0.22484,0.79375 0.51156,1.80653 0.90691,6.50518 0.63075,7.49653 -0.16523,0.59316 -0.57821,1.11294 -0.9396,1.18256 -0.58097,0.11194 -0.6229,-0.0627 -0.42356,-1.76388 0.25078,-2.14023 -0.42989,-5.28075 -1.36959,-6.31911 -0.95338,-1.05347 -0.41523,-2.26831 1.31073,-2.9589 2.26427,-0.90598 3.15664,-2.00104 9.90156,-12.15041 1.86553,-2.80714 2.01272,-2.94346 2.92976,-2.71329 0.64983,0.16309 0.95985,-0.0331 1.54291,-0.97654 0.99414,-1.60854 2.56142,-5.84582 2.3117,-6.24988 -0.11145,-0.18032 -0.86414,-0.43363 -1.67265,-0.56292 -1.14192,-0.1826 -1.85505,-0.63036 -3.19514,-2.00619 -1.7887,-1.83638 -2.7251,-3.59358 -3.71239,-6.96647 -0.49934,-1.70586 -0.87923,-2.22428 -2.79757,-3.81763 -3.68929,-3.06428 -5.87328,-6.590647 -8.75763,-14.140398 -0.85246,-2.23132 -1.70784,-4.332602 -1.90085,-4.669519 -0.193,-0.336917 -0.35091,-0.871234 -0.35091,-1.187376 0,-0.316138 -0.23337,-1.310481 -0.51859,-2.209648 -1.2992,-4.095702 -2.39443,-11.508939 -2.11783,-14.334846 0.4395,-4.490162 0.91159,-5.898428 2.4983,-7.452568 2.83903,-2.780751 5.54305,-2.981333 8.57084,-0.63578 2.57946,1.998246 3.58719,4.199136 3.94573,8.617515 0.28993,3.572834 0.40046,4.216772 0.98137,5.717723 0.35334,0.912953 0.4523,0.946088 2.23619,0.74878 1.14895,-0.12708 2.74801,-0.682094 4.15954,-1.443729 6.44202,-3.475978 17.66194,-8.820264 19.05367,-9.075659 1.69309,-0.310697 2.99483,0.262995 3.95314,1.74219 0.51897,0.801061 1.08345,1.245182 1.58621,1.247994 0.42928,0.0024 1.67484,0.338979 2.76791,0.747949 1.61239,0.603269 2.08086,0.96726 2.48268,1.928947 0.64704,1.548583 0.62529,2.817446 -0.084,4.899039 -0.48332,1.418456 -1.57889,2.699732 -6.61458,7.73576 -3.31943,3.319649 -6.4322,6.367162 -6.91727,6.77225 -0.48507,0.405088 -1.80501,1.79415 -2.9332,3.086806 -1.12818,1.292655 -2.29286,2.350283 -2.58817,2.350283 -0.70323,0 -4.9777,4.110341 -5.67612,5.458177 -0.65908,1.2719 -1.59762,5.14763 -1.315,5.43026 0.11171,0.11171 0.73032,0.15769 1.37468,0.10217 1.61478,-0.13912 3.68551,0.79184 5.05239,2.27146 0.63059,0.6826 1.14653,1.35925 1.14653,1.50368 0,0.14442 0.1815,0.44408 0.40332,0.66591 0.45552,0.45552 0.61697,1.63766 0.71099,5.20584 0.0594,2.25443 -0.0984,2.86425 -1.81275,7.00377 -1.0328,2.49387 -2.21715,4.9545 -2.63189,5.46805 -0.74245,0.91933 -1.60856,2.63686 -1.60856,3.18982 0,0.15543 0.62655,0.56513 1.39232,0.91044 1.29618,0.5845 2.48824,2.19217 2.48824,3.35577 0,0.23014 -0.85348,1.3174 -1.89662,2.41613 -6.64424,6.99831 -13.34484,14.80858 -14.20357,16.55579 -0.82958,1.68789 -3.64585,4.04853 -5.67035,4.75298 -0.97029,0.33763 -3.01728,0.78206 -4.54889,0.98763 -8.34492,1.12007 -14.25418,3.10196 -16.3433,5.48134 -2.51042,2.85921 -4.68718,8.86428 -5.51065,15.2023 -0.78205,6.01925 -0.46522,16.48897 0.75615,24.9871 1.6602,11.55146 1.88359,13.54914 2.07684,18.57315 0.10712,2.78463 0.28452,5.49952 0.39422,6.0331 0.16452,0.80022 0.0765,0.97014 -0.50277,0.97014 -0.38623,0 -1.07353,-0.44015 -1.52734,-0.9781 -0.45381,-0.53795 -1.21762,-1.25233 -1.69735,-1.5875 -0.92801,-0.64836 -3.35861,-0.83145 -3.70021,-0.27872 -0.11241,0.18187 0.12763,1.29002 0.53341,2.46256 0.40579,1.17255 0.64917,2.27528 0.54086,2.45053 -0.10831,0.17525 0.0374,1.09116 0.32389,2.03535 1.08425,3.57385 0.52548,6.28888 -2.42801,11.79769 -1.05216,1.96247 -1.78736,3.8997 -2.09258,5.51387 -0.72943,3.85764 -3.97128,8.16369 -6.53992,8.68676 -1.00499,0.20465 -4.221772,2.1981 -4.837156,2.99759 -0.55934,0.72669 -1.31661,3.51495 -1.10465,4.06732 0.11271,0.29373 1.03618,0.57828 2.364376,0.72855 2.44613,0.27675 3.77063,0.70357 4.64841,1.49796 0.65079,0.58895 0.71601,0.32838 -1.1725,4.68502 -1.25196,2.88815 -3.766328,6.1176 -6.807866,8.74399 -2.3243,2.00706 -2.69845,2.48311 -2.55232,3.24752 0.0942,0.49264 0.005,1.20704 -0.19904,1.58755 -0.20364,0.38051 -0.41766,1.25533 -0.4756,1.94403 -0.0579,0.68871 -0.23645,2.21145 -0.3967,3.38389 -0.39581,2.89576 0.0267,12.42983 0.60477,13.64758 0.41334,0.87071 0.36311,1.09804 -0.52615,2.38125 -0.54072,0.78025 -1.12368,1.41864 -1.29548,1.41864 -0.1718,0 -0.48101,0.37014 -0.68714,0.82253 -0.28418,0.62371 -0.24132,1.14194 0.17732,2.14388 0.47889,1.14613 0.48744,1.47608 0.0645,2.48833 -0.46972,1.12419 -0.45007,1.19475 0.5358,1.92363 0.63295,0.46797 1.0234,1.0784 1.0234,1.59999 0,0.89342 0.20416,0.9763 3.52778,1.43217 1.5907,0.21817 4.816726,1.0467 9.246106,2.37462 1.30182,0.39029 2.63032,1.00064 2.95223,1.35635 0.90666,1.00184 0.40041,2.21848 -1.22881,2.95315 -0.76608,0.34545 -1.83106,1.08548 -2.36664,1.6445 -0.53558,0.55902 -1.12,1.0164 -1.29873,1.0164 -0.17872,0 -1.332,0.80134 -2.56285,1.78076 -1.866524,1.48524 -2.597576,1.83868 -4.405146,2.12978 -1.19197,0.19196 -2.5093,0.23874 -2.92739,0.10395 -0.41808,-0.1348 -1.15703,-0.28018 -1.6421,-0.32307 -1.92097,-0.16989 -3.80015,-0.91143 -4.95792,-1.95645 -2.09443,-1.89046 -4.22386,-3.21188 -5.92532,-3.67694 -0.9022,-0.2466 -1.91819,-0.56253 -2.25774,-0.70205 -0.33954,-0.13953 -0.61736,-0.11083 -0.61736,0.0638 0,0.17461 0.91282,0.6027 2.02848,0.95132 2.95853,0.92447 3.9425,1.47029 5.90902,3.27783 0.97014,0.89171 2.63702,2.02951 3.70417,2.52844 1.67624,0.7837 2.39633,0.90349 5.29167,0.88029 4.675353,-0.0375 7.013716,-1.12126 11.285476,-5.23075 1.71624,-1.65104 3.27925,-3.00189 3.47335,-3.00189 1.11027,0 1.46895,0.48813 1.46895,1.99914 0,1.406 -0.18948,1.77123 -1.80533,3.47975 -4.37838,4.62949 -10.379066,5.8082 -18.934016,3.71922 -1.3661,-0.33358 -2.35808,-0.90329 -3.70417,-2.12734 -2.30583,-2.09677 -3.09097,-2.52377 -3.8547,-2.09636 -0.38931,0.21786 -1.09898,0.15013 -2.10756,-0.20117 -0.83634,-0.2913 -1.78432,-0.53194 -2.10662,-0.53477 -0.9953,-0.009 -2.28777,-1.95114 -2.97716,-4.47432 -0.67751,-2.47967 -0.85038,-6.89433 -0.33932,-8.66527 0.37931,-1.31441 -0.004,-2.61389 -1.03372,-3.50972 -0.47331,-0.41153 -0.77724,-0.88308 -0.67539,-1.04787 0.10185,-0.16479 -0.005,-0.29962 -0.23699,-0.29962 -0.30704,0 -0.35565,-0.55318 -0.17825,-2.02847 0.45455,-3.78013 0.83677,-9.83942 1.10708,-17.5507 0.11563,-3.29847 0.27271,-6.19566 0.34906,-6.43819 0.0764,-0.24254 -10e-4,-0.44097 -0.172,-0.44097 -0.28863,0 -2.48925,5.32013 -2.48925,6.01792 0,0.17226 -0.30676,0.99214 -0.6817,1.82195 -0.37493,0.8298 -1.10339,2.93749 -1.61878,4.68374 -1.71537,5.81192 -3.10086,9.49363 -4.79185,12.73359 -1.43828,2.75574 -1.64728,3.41244 -1.48089,4.65299 0.35858,2.67339 -0.0943,3.40984 -4.24504,6.90359 -1.08508,0.91332 -1.80808,1.89761 -2.2026,2.99861 -2.55047,7.11769 -4.59392,9.5765 -7.95878,9.5765 -0.62154,0 -1.39696,-0.24153 -1.72316,-0.53674 -0.53801,-0.48689 -0.81337,-0.38588 -2.96592,1.088 -4.58249,3.1377 -6.53423,3.5047 -12.72433,2.3926 z m 6.28557,-3.914 c 0.52877,-0.46857 0.7351,-0.50735 0.85609,-0.16089 0.11616,0.33261 0.46116,0.23107 1.27138,-0.37416 1.24254,-0.92819 3.9091,-2.22282 5.2946,-2.57056 0.50001,-0.12549 0.87471,-0.4004 0.83267,-0.61091 -0.042,-0.2105 0.32045,-0.42074 0.80552,-0.46719 0.48507,-0.0464 2.10934,-0.41396 3.60949,-0.81669 1.50015,-0.40273 2.79057,-0.73224 2.86762,-0.73224 0.077,0 0.3462,-0.51594 0.59814,-1.14653 1.34237,-3.35985 2.27148,-5.04309 3.22791,-5.84787 0.5849,-0.49215 1.27274,-1.10413 1.52855,-1.35994 0.25581,-0.25581 0.6106,-0.46511 0.78841,-0.46511 0.17782,0 0.60599,-0.31236 0.95151,-0.69415 0.46184,-0.51034 0.62841,-1.28102 0.629,-2.91041 7e-4,-1.56668 0.20164,-2.55043 0.686,-3.35636 0.37685,-0.62706 0.56861,-1.32872 0.42613,-1.55926 -0.17409,-0.28168 -0.0734,-0.34792 0.30694,-0.20197 0.42168,0.16182 0.67392,-0.11523 0.98929,-1.08658 0.23282,-0.71707 0.79397,-2.07937 1.247,-3.02732 0.45304,-0.94796 0.74729,-1.84721 0.65389,-1.99834 -0.0934,-0.15114 -0.002,-0.33084 0.20381,-0.39933 0.35251,-0.11751 0.99998,-2.08684 1.19672,-3.63989 0.0492,-0.38805 0.35192,-1.32025 0.67281,-2.07155 0.3209,-0.7513 0.58345,-1.51091 0.58345,-1.68801 0,-1.04422 3.31379,-10.33943 3.93563,-11.03947 0.16374,-0.18432 0.2977,-0.64734 0.2977,-1.02893 0,-0.38159 0.10482,-0.58897 0.23294,-0.46086 0.34847,0.34847 1.35834,-1.25622 1.23815,-1.96743 -0.0574,-0.33955 0.0828,-0.61736 0.31141,-0.61736 0.53533,0 3.86194,-3.47845 3.86194,-4.03821 0,-0.2337 0.41233,-0.80977 0.91628,-1.28016 0.50395,-0.47038 1.20787,-1.41086 1.56426,-2.08996 0.35639,-0.6791 1.37115,-2.18722 2.25502,-3.35139 1.69792,-2.23638 1.99644,-3.53814 1.20813,-5.26829 -0.53017,-1.16359 -1.62262,-1.51293 -2.21175,-0.70725 -0.37559,0.51365 -0.34229,0.72213 0.2023,1.26672 0.85645,0.85645 0.82614,2.09907 -0.0793,3.25013 -1.17415,1.4927 -3.29157,1.17916 -5.97161,-0.88427 -0.6791,-0.52285 -3.0477,-1.87645 -5.26356,-3.00801 -4.01129,-2.0484 -4.04202,-2.05725 -7.05556,-2.03203 -5.35543,0.0448 -11.10059,2.318 -11.51126,4.55465 -0.43664,2.37812 0.52005,5.89468 1.97288,7.25182 0.52838,0.49358 1.30115,1.68885 1.71727,2.65615 0.63535,1.4769 1.02358,1.88061 2.42271,2.51931 0.91637,0.41832 2.30113,0.85486 3.07724,0.97009 4.63366,0.68793 7.25136,0.90502 8.73125,0.72407 1.981,-0.24222 2.2558,0.30688 0.52917,1.05735 l -1.14653,0.49833 0.97014,0.0138 c 1.16726,0.0166 1.26233,0.69817 0.22805,1.63482 -1.04219,0.94382 -6.17819,1.14293 -8.92016,0.34582 -2.06854,-0.60134 -3.23641,-1.77738 -2.17102,-2.1862 0.2994,-0.1149 0.82219,-0.10037 1.16174,0.0323 1.14056,0.44556 6.27752,0.83652 7.51044,0.5716 0.93834,-0.20162 0.32291,-0.31957 -2.65975,-0.50973 -2.1343,-0.13609 -4.71309,-0.33759 -5.73064,-0.44779 l -1.85008,-0.20037 -0.65772,1.53321 c -0.36174,0.84327 -1.0512,2.11265 -1.53213,2.82084 -0.48093,0.70819 -2.28314,4.11752 -4.00491,7.57629 l -3.13049,6.28869 0.0785,2.63136 c 0.0431,1.44725 0.23341,3.99916 0.42279,5.6709 0.39752,3.50917 0.1571,4.68056 -1.27479,6.21114 -0.63269,0.67629 -1.03774,1.50903 -1.0656,2.19077 -0.11686,2.85952 -1.14433,3.74067 -5.02012,4.30523 -10.10136,1.47141 -13.74102,2.31212 -16.18686,3.73894 -0.82462,0.48105 -1.4993,0.93897 -1.4993,1.01759 0,0.0786 0.83343,0.56137 1.85208,1.07277 1.05051,0.5274 2.59713,1.76541 3.57357,2.86051 2.05317,2.30268 4.28343,3.4793 6.05118,3.19243 0.67274,-0.10916 1.22316,-0.0497 1.22316,0.13212 0,0.49722 0.39473,0.4005 1.1703,-0.28676 z m -3.81613,-0.79375 c -0.27593,-0.44648 0.19108,-0.44648 0.88195,0 0.45603,0.29471 0.44672,0.34272 -0.0674,0.34737 -0.3281,0.003 -0.69465,-0.15335 -0.81457,-0.34737 z m 4.7625,-0.19721 c 0,-0.3025 0.15875,-0.45188 0.35278,-0.33196 0.19403,0.11992 0.35278,0.36741 0.35278,0.54999 0,0.18257 -0.15875,0.33195 -0.35278,0.33195 -0.19403,0 -0.35278,-0.24749 -0.35278,-0.54998 z m 0.70556,-0.50835 c 0,-0.19403 0.15875,-0.35278 0.35277,-0.35278 0.19403,0 0.35278,0.15875 0.35278,0.35278 0,0.19403 -0.15875,0.35278 -0.35278,0.35278 -0.19402,0 -0.35277,-0.15875 -0.35277,-0.35278 z m -5.82084,-1.36936 c -0.58208,-0.11998 -1.36833,-0.40121 -1.74722,-0.62497 -0.58468,-0.34529 -0.61817,-0.49205 -0.22139,-0.97014 0.40794,-0.49153 0.34963,-0.56331 -0.45763,-0.56331 -0.58717,0 -0.92515,-0.19332 -0.92515,-0.52916 0,-0.29105 -0.30813,-0.52917 -0.68473,-0.52917 -0.94444,0 -1.3074,-0.72451 -0.61616,-1.22996 0.40808,-0.2984 0.46238,-0.52578 0.19047,-0.79769 -0.68319,-0.68319 0.0599,-1.14735 1.8368,-1.14735 1.31421,0 1.74307,0.1302 1.74307,0.52917 0,0.29104 -0.15875,0.52916 -0.35278,0.52916 -0.19403,0 -0.35278,0.16873 -0.35278,0.37496 0,0.20622 0.27782,0.328 0.61736,0.27062 0.90385,-0.15274 2.11905,0.82994 2.39731,1.93862 0.18169,0.72392 0.40092,0.91477 0.87715,0.76362 0.3492,-0.11083 0.73862,-0.0337 0.86537,0.17136 0.12675,0.20509 0.36727,0.28833 0.53448,0.18499 0.16721,-0.10334 0.40223,-0.029 0.52225,0.1652 0.25399,0.41096 -1.85872,1.79385 -2.63892,1.72732 -0.29104,-0.0248 -1.00541,-0.14329 -1.5875,-0.26327 z m 16.37368,-6.39017 c -1.4048,-0.40411 -2.64118,-1.33082 -3.09014,-2.31618 -0.54247,-1.1906 -0.51322,-1.56596 0.12202,-1.56596 0.29104,0 0.52917,0.16812 0.52917,0.3736 0,0.20548 0.15875,0.27549 0.35277,0.15557 0.19403,-0.11992 0.35278,-0.054 0.35278,0.14651 0,0.50687 1.84515,1.41033 3.05355,1.49513 0.55187,0.0387 1.51032,-0.19515 2.1299,-0.51974 1.48843,-0.77974 1.77789,-0.20619 0.55358,1.0969 -1.05574,1.12369 -2.55934,1.54963 -4.00363,1.13417 z m -0.52481,-3.03623 c -1.65995,-1.12112 -1.97044,-1.53119 -1.77546,-2.34486 0.0813,-0.33936 0.004,-0.70591 -0.1718,-0.81457 -0.54093,-0.33431 -0.38075,-1.66596 0.17474,-1.4528 0.29397,0.11281 0.56662,-0.0864 0.67253,-0.49142 0.1494,-0.57132 0.49855,-0.68114 2.16548,-0.68114 1.32649,0 2.47316,-0.24784 3.44823,-0.74529 1.37561,-0.70178 2.70645,-1.92806 2.73262,-2.51791 0.0217,-0.48902 -1.68021,-0.27035 -3.30007,0.42401 -0.90337,0.38722 -1.69455,0.54598 -1.8078,0.36274 -0.35892,-0.58074 0.90985,-2.05878 1.9665,-2.29086 0.56559,-0.12423 1.11891,-0.3724 1.2296,-0.5515 0.1107,-0.1791 1.04041,-0.32564 2.06604,-0.32564 3.6859,0 4.0455,2.43498 0.80334,5.43971 -0.54023,0.50066 -1.15998,0.91029 -1.37724,0.91029 -0.21726,0 -0.67112,0.24987 -1.00858,0.55526 -0.34711,0.31413 -1.66136,0.66967 -3.02638,0.81872 -2.34461,0.256 -2.37452,0.27151 -1.05765,0.54838 1.63672,0.34413 4.49628,0.0487 5.481,-0.56628 0.39404,-0.24608 0.84273,-0.31576 0.99707,-0.15482 0.15435,0.16093 -0.0229,0.47242 -0.39397,0.6922 -0.37103,0.21978 -0.97268,0.68375 -1.337,1.03104 -1.52637,1.45504 -4.17361,1.72154 -6.00557,0.6046 -0.63528,-0.38733 -1.28348,-0.70483 -1.44046,-0.70556 -0.63092,-0.003 0.20243,0.68652 1.71475,1.41862 1.47802,0.7155 1.86596,1.36219 0.99192,1.65353 -0.19627,0.0654 -0.9801,-0.30198 -1.74184,-0.81645 z m 15.19558,-40.64988 c -0.97014,-0.324 -1.72423,-0.72113 -1.67576,-0.88252 0.0485,-0.1614 1.47722,-0.33633 3.175,-0.38874 3.66314,-0.11309 6.39114,-0.62921 7.83548,-1.4824 1.30021,-0.76806 1.75453,-0.39529 1.05017,0.86166 -1.22438,2.18496 -6.5839,3.1614 -10.38489,1.892 z m -14.46389,52.1512 c 0.12314,-0.19926 -0.16579,-0.35278 -0.66392,-0.35278 -0.48507,0 -0.98005,0.15875 -1.09997,0.35278 -0.12314,0.19925 0.16578,0.35277 0.66392,0.35277 0.48507,0 0.98005,-0.15875 1.09997,-0.35277 z m 43.73082,-1.63109 c 0.526,-0.20184 0.52442,-0.27393 -0.0192,-0.87459 -0.54593,-0.60324 -0.54712,-0.67199 -0.0152,-0.8761 0.31746,-0.12182 0.57719,-0.44263 0.57719,-0.71291 0,-0.27028 0.27781,-0.50396 0.61736,-0.51928 0.36881,-0.0167 0.43982,-0.0995 0.17639,-0.20578 -0.63774,-0.25734 -0.54245,-1.17748 0.12193,-1.17748 0.3096,0 1.02397,0.32831 1.5875,0.72958 1.35004,0.96132 1.31754,0.35361 -0.0461,-0.86137 -1.00685,-0.89711 -1.12858,-1.63209 -0.27031,-1.63209 0.20969,0 0.57901,-0.27044 0.8207,-0.60098 0.41265,-0.56433 0.52807,-0.561 1.893004,0.0545 1.835982,0.82791 2.459762,1.51003 1.661132,1.81649 -0.31537,0.12102 -0.769807,0.0664 -1.009869,-0.12126 -0.240065,-0.18771 -0.793887,-0.42879 -1.230718,-0.53574 -0.831999,-0.20368 -0.793889,0.0831 0.159071,1.19714 0.42116,0.49234 0.421058,0.64661 -7.05e-4,1.06837 -0.377949,0.37795 -0.395605,0.58386 -0.0757,0.8827 0.516206,0.48221 1.593511,-0.0452 1.593511,-0.78014 0,-0.2814 0.3175,-0.51164 0.70556,-0.51164 0.38805,0 0.70555,-0.19441 0.70555,-0.43201 0,-0.4719 2.40699,-2.74299 2.90713,-2.74299 0.17023,0 0.21252,-0.15693 0.094,-0.34874 -0.1236,-0.19997 0.018,-0.25911 0.33195,-0.13864 0.30112,0.11555 0.54749,0.0637 0.54749,-0.11519 0,-0.72106 -6.007699,-2.34743 -10.230556,-2.76954 -3.2342,-0.3233 -4.64356,-1.29354 -5.40574,-3.72148 -0.29787,-0.94885 -2.22113,-1.10312 -3.78787,-0.30383 -0.7631,0.38931 -2.10668,0.80641 -2.98572,0.9269 -1.95721,0.26826 -2.30654,0.68771 -0.84086,1.00962 1.34698,0.29585 4.30216,-0.46876 4.07723,-1.05492 -0.0976,-0.25433 0.13588,-0.38341 0.59916,-0.33123 0.4175,0.047 0.87814,0.0987 1.02366,0.11488 0.56485,0.0627 0.22529,1.34736 -0.52916,2.00193 -1.82677,1.58492 -2.56353,1.90802 -4.3508,1.90802 -1.35164,0 -2.14303,-0.22427 -3.11217,-0.88195 -0.71479,-0.48507 -1.44625,-0.88194 -1.62546,-0.88194 -0.17921,0 -0.54989,-0.42761 -0.82373,-0.95025 l -0.49789,-0.95025 -0.2511,1.48626 c -0.1381,0.81743 -0.14752,2.23932 -0.0209,3.15975 0.21434,1.55838 0.33209,1.71566 1.71157,2.28622 0.81477,0.33699 1.88521,0.61271 2.37877,0.61271 1.00692,0 3.83464,1.66054 5.456,3.20396 0.58801,0.55975 2.17551,1.41129 3.52778,1.89231 2.67792,0.95257 3.00012,1.00947 3.85615,0.68098 z m 6.453668,-6.8338 c -2.169948,-0.68831 -2.209758,-1.41289 -0.07764,-1.41289 1.484908,0 3.338978,0.78325 3.338978,1.41056 0,0.52586 -1.60723,0.52701 -3.261342,0.002 z m -2.825838,5.92371 c 0.43511,-0.36111 0.41792,-0.48505 -0.122,-0.87985 -0.74466,-0.5445 -1.33114,-0.60572 -1.02276,-0.10675 0.47203,0.76376 -0.25168,1.09983 -0.99908,0.46395 -0.50063,-0.42592 -0.60984,-0.45443 -0.32615,-0.0851 0.3339,0.43466 0.33258,0.65542 -0.006,1.01679 -0.35306,0.37674 -0.21179,0.4202 0.76852,0.23645 0.6606,-0.12382 1.429,-0.41427 1.70755,-0.64545 z m -15.43226,-1.31202 c 0,-0.17898 -0.59532,-0.51907 -1.32292,-0.75575 -0.7276,-0.23669 -1.63605,-0.64587 -2.01877,-0.90931 -0.89241,-0.61425 -1.5972,-0.61233 -1.5972,0.004 0,0.2722 0.69741,0.67859 1.59659,0.93034 0.87812,0.24586 1.68124,0.58399 1.78471,0.7514 0.25219,0.40807 1.55759,0.39044 1.55759,-0.021 z m -3.77834,-12.37458 c -0.10148,-0.38806 -0.0235,-0.70556 0.17324,-0.70556 0.19676,0 0.33433,-0.51486 0.30572,-1.14414 -0.0496,-1.09055 0.002,-1.13879 1.11066,-1.03005 2.04239,0.20041 3.9609,-0.32409 5.21586,-1.42596 0.6634,-0.58248 1.20619,-1.28073 1.20619,-1.55167 0,-0.68326 0.70309,-0.61626 1.30887,0.12474 0.45452,0.55598 0.48794,0.49224 0.33611,-0.64108 -0.13046,-0.97386 -0.0164,-1.35348 0.50433,-1.67868 0.3701,-0.23114 0.67291,-0.66837 0.67291,-0.97162 0,-0.75501 0.96359,-1.65951 1.44858,-1.35977 0.28415,0.17561 0.32932,-0.29033 0.16028,-1.6532 -0.53424,-4.30706 -0.84304,-11.9519 -0.48278,-11.9519 0.15677,0 0.28503,-0.15875 0.28503,-0.35278 0,-0.19403 -0.26272,-0.35278 -0.58384,-0.35278 -0.51665,0 -0.50705,-0.0849 0.0834,-0.73734 0.73055,-0.80725 0.81774,-1.39275 0.43321,-2.90893 -0.14982,-0.59074 -0.0877,-1.26627 0.15165,-1.64955 0.30687,-0.49137 0.3026,-0.8747 -0.0176,-1.57736 -0.45532,-0.99932 -0.0781,-2.19961 0.86653,-2.75754 0.26273,-0.15516 0.47768,-0.51235 0.47768,-0.79375 0,-0.2814 0.23917,-0.51164 0.53148,-0.51164 0.5352,0 5.46575,-4.61492 5.46575,-5.11585 0,-0.14789 0.555621,-0.79291 1.234718,-1.43338 0.679097,-0.64048 1.234718,-1.31447 1.234718,-1.49777 0,-0.1833 0.24535,-0.53689 0.54523,-0.78577 0.29987,-0.24887 0.4636,-0.66518 0.36384,-0.92513 -0.0998,-0.25996 -0.0276,-0.47265 0.16034,-0.47265 0.42561,0 0.45493,-2.00505 0.0331,-2.26574 -0.16972,-0.10489 -1.745018,-0.29218 -3.500676,-0.41619 -2.68703,-0.18981 -3.58521,-0.10608 -5.67667,0.52918 -1.36652,0.41507 -2.93709,0.72019 -3.49017,0.67805 -0.56494,-0.043 -1.46384,0.24968 -2.05137,0.66804 -1.47111,1.04752 -4.03711,3.95215 -5.08088,5.75139 -0.48507,0.83616 -1.44334,2.24847 -2.12948,3.13847 -3.34083,4.3334 -3.47997,4.91404 -3.76285,15.70339 -0.39792,15.17699 -0.36114,16.49045 0.49539,17.69333 0.40583,0.56995 0.92088,1.74919 1.14455,2.62053 0.22367,0.87135 0.47322,1.78271 0.55457,2.02524 0.2424,0.72273 0.47208,0.49952 0.27226,-0.26458 z m 2.02335,-28.6632 c -2.5887,-1.32421 -3.0219,-2.86715 -0.51035,-1.81776 1.63919,0.6849 4.5662,0.47378 6.93964,-0.50055 1.38637,-0.56912 1.19887,-0.77265 -0.29064,-0.3155 -1.6507,0.50661 -5.54444,-0.13523 -6.8999,-1.13736 -0.54064,-0.39971 -1.22753,-0.72674 -1.52642,-0.72674 -0.57304,0 -0.74101,-0.54182 -0.26012,-0.83903 0.15583,-0.0963 1.46552,0.14 2.91041,0.52513 2.82837,0.75388 4.50674,0.69351 7.50064,-0.2698 1.89751,-0.61054 2.55118,-0.39403 1.35015,0.44721 -0.60214,0.42175 -0.69685,0.66421 -0.39943,1.02257 0.28716,0.34602 0.26924,0.66286 -0.068,1.20294 -0.25183,0.40326 -0.56711,0.7332 -0.70061,0.7332 -0.13349,0 -0.46708,0.22436 -0.7413,0.49858 -0.96602,0.96602 -3.25979,1.97086 -4.49892,1.97086 -0.68937,0 -1.95166,-0.35718 -2.8051,-0.79375 z m 2.84136,-5.19764 c -1.84452,-0.27854 -1.82191,-1.06343 0.0308,-1.06761 2.41269,-0.005 7.90723,-2.89237 10.33512,-5.43027 0.90441,-0.94539 1.06312,-1.00592 1.17745,-0.44906 0.0727,0.35399 -0.11989,0.92211 -0.42794,1.2625 -0.30805,0.34039 -0.56009,0.94102 -0.56009,1.33472 0,0.66011 -1.91296,2.07777 -4.8958,3.62819 -1.08992,0.56653 -4.12421,0.95337 -5.65949,0.72153 z m -0.81768,33.26567 c -0.33728,-0.0883 -0.97228,-0.0915 -1.41111,-0.007 -0.43882,0.0844 -0.16286,0.15662 0.61325,0.16054 0.77611,0.004 1.13515,-0.0651 0.79786,-0.15342 z m 2.02436,-0.46316 c 0.27594,-0.44648 -0.19107,-0.44648 -0.88194,0 -0.45603,0.29471 -0.44672,0.34272 0.0674,0.34737 0.3281,0.003 0.69466,-0.15335 0.81457,-0.34737 z m 4.93889,-48.99824 c 0.77611,-0.1963 2.28424,-0.40115 3.35139,-0.45522 2.05522,-0.10413 2.45535,-0.35918 2.46404,-1.57062 0.003,-0.41428 0.27473,-1.58715 0.6039,-2.60637 0.5095,-1.57758 0.86357,-2.02252 2.38125,-2.99236 0.980512,-0.62658 2.610436,-1.49485 3.622056,-1.92949 2.39677,-1.02978 4.86098,-3.64245 5.37594,-5.69982 0.21214,-0.84752 0.5408,-1.8166 0.73037,-2.15351 0.18956,-0.33692 0.34466,-0.88948 0.34466,-1.22791 0,-0.66202 1.18388,-3.90677 1.99272,-5.4616 1.69843,-3.26487 2.33185,-6.59971 1.65627,-8.71989 -0.28337,-0.88931 -0.57477,-2.33129 -0.64757,-3.20442 -0.18241,-2.18784 -0.97409,-5.64444 -1.29277,-5.64444 -0.14436,0 -0.38943,0.19843 -0.54459,0.44097 -0.35127,0.54907 -2.98859,2.03659 -6.45572,3.6412 -1.45521,0.67347 -2.963335,1.41072 -3.35139,1.63831 -0.388056,0.2276 -1.816806,0.60901 -3.174996,0.84758 -1.3582,0.23858 -3.5807,0.69038 -4.93889,1.00402 -5.20924,1.20292 -6.40449,1.30356 -13.90707,1.17097 -6.57895,-0.11626 -7.92367,-0.23651 -9.90543,-0.88577 -2.73782,-0.89697 -6.91159,-1.86227 -8.04652,-1.86098 -0.44801,3.5e-4 -0.72275,-0.14764 -0.61053,-0.32922 0.11222,-0.18158 -0.5531,-0.44208 -1.47849,-0.57889 -0.92538,-0.13682 -2.63341,-0.70745 -3.79561,-1.26808 -1.16221,-0.56062 -2.16153,-0.87402 -2.22072,-0.69645 -0.0592,0.17758 -0.95253,1.43811 -1.98521,2.80119 -3.10717,4.10133 -4.81489,8.45252 -4.63533,11.81067 0.28605,5.34973 3.48288,11.18116 7.01646,12.79888 2.44636,1.11998 3.30103,1.97282 3.78278,3.77467 0.49228,1.84121 0.96272,2.45095 1.7084,2.21429 0.31446,-0.0998 1.04611,-0.24639 1.62589,-0.32575 4.91912,-0.67329 5.06386,-0.67053 7.65887,0.14577 1.41213,0.4442 2.80563,0.9893 3.09667,1.21134 0.51448,0.3925 2.56945,1.40947 6.17362,3.05522 0.97013,0.44299 1.87709,0.8645 2.01546,0.9367 0.13836,0.0722 0.35286,-0.31658 0.47666,-0.86394 0.1238,-0.54736 0.7489,-2.18583 1.38912,-3.64104 2.03696,-4.63001 5.02624,-12.12131 5.41967,-13.58194 0.98365,-3.65194 3.18063,-10.15257 3.55631,-10.52278 0.32142,-0.31674 0.54401,-0.24844 0.95247,0.29222 0.72782,0.96339 0.41038,3.07228 -0.94017,6.24602 -0.59251,1.39238 -1.02564,2.77913 -0.96251,3.08168 0.15497,0.74271 3.34191,-4.72042 3.79499,-6.50547 1.39411,-5.49255 1.88165,-6.39223 2.97309,-5.48642 1.0406,0.86362 -0.47345,6.62658 -2.34062,8.90916 -1.46007,1.78491 -5.34021,7.68912 -5.16698,7.86234 0.0845,0.0845 0.57223,-0.0636 1.08388,-0.32901 0.51165,-0.26545 1.42334,-0.59093 2.02598,-0.72329 0.60264,-0.13236 1.81956,-0.79318 2.70426,-1.46849 1.91115,-1.45881 2.3447,-1.31052 1.0668,0.36489 -1.05604,1.38454 -2.48635,2.31943 -4.95269,3.23722 -1.53174,0.56999 -1.76445,0.58134 -2.11667,0.10326 -1.01529,-1.37813 -2.26348,0.81291 -4.67732,8.21045 -0.13287,0.4072 0.10108,0.64253 0.81279,0.81756 1.51729,0.37314 3.6452,2.60385 3.6452,3.82131 0,0.79545 0.13138,0.97238 0.61736,0.83134 0.33955,-0.0985 1.25236,-0.33977 2.02847,-0.53606 z m -1.73449,-10.88579 c -0.14552,-0.14552 -0.41011,-0.26459 -0.58796,-0.26459 -0.17786,0 -0.33014,-0.15875 -0.3384,-0.35277 -0.008,-0.19403 1.07235,-0.52058 2.40136,-0.72567 1.66297,-0.25663 2.6576,-0.61411 3.19002,-1.14653 0.94466,-0.94466 1.47919,-0.98902 1.47919,-0.12276 0,0.93429 -1.09178,1.79151 -3.02132,2.37222 -1.87749,0.56504 -2.73223,0.63076 -3.12289,0.2401 z m 4.05333,-8.09012 c 0.0246,-0.2747 0.35885,-0.8333 1.8828,-3.1462 1.91475,-2.90603 2.26274,-3.61987 2.47624,-5.07965 0.27292,-1.86605 1.84741,-4.49221 2.37623,-3.9634 0.229919,0.22992 0.224182,0.81458 -0.0168,1.71514 -0.20111,0.75147 -0.45246,1.92864 -0.55857,2.61594 -0.20347,1.31804 -2.93371,6.20123 -3.98165,7.1214 -0.73456,0.64501 -2.21479,1.14569 -2.17823,0.73677 z m -11.66745,-15.8314 c 0,-0.51857 -0.75314,-0.69594 -1.17287,-0.27622 -0.31902,0.31903 0.4716,1.21798 0.86007,0.97789 0.17204,-0.10632 0.3128,-0.42208 0.3128,-0.70167 z m -4.93889,-0.15556 c 0,-0.39198 -0.23519,-0.70556 -0.52917,-0.70556 -0.29398,0 -0.52916,0.31358 -0.52916,0.70556 0,0.39197 0.23518,0.70555 0.52916,0.70555 0.29398,0 0.52917,-0.31358 0.52917,-0.70555 z m 11.37691,-0.53794 c 0.10888,-0.56955 0.027,-0.85353 -0.22246,-0.77176 -0.2171,0.0712 -0.44659,0.5706 -0.50998,1.10986 -0.14247,1.21204 0.49211,0.91911 0.73244,-0.3381 z m -2.38108,0.53794 c 0.13438,-0.21743 -0.4667,-0.35278 -1.56667,-0.35278 -0.98159,0 -1.78471,0.15875 -1.78471,0.35278 0,0.19402 0.705,0.35277 1.56667,0.35277 0.86168,0 1.6648,-0.15875 1.78471,-0.35277 z m 3.52778,-0.49548 c 0,-0.46655 -0.11906,-0.77468 -0.26458,-0.68474 -0.14552,0.0899 -0.26458,0.47165 -0.26458,0.84826 0,0.3766 0.11906,0.68473 0.26458,0.68473 0.14552,0 0.26458,-0.38171 0.26458,-0.84825 z m 2.54831,-0.21703 c -0.0554,-0.7349 -0.4297,-0.91977 -0.76474,-0.37766 -0.2724,0.44073 0.16136,1.48171 0.524,1.25758 0.16135,-0.0997 0.26969,-0.49568 0.24074,-0.87992 z m -20.71636,0.35973 c 0,-0.19403 -0.40625,-0.35278 -0.90277,-0.35278 -0.49652,0 -0.81529,-0.14153 -0.70838,-0.31451 0.10691,-0.17298 -0.32029,-0.39835 -0.94932,-0.50082 -2.41603,-0.39357 -7.94831,-1.67006 -10.1943,-2.35218 -2.70243,-0.82075 -2.76745,-0.82942 -2.76745,-0.36933 0,0.62123 1.88198,1.32567 5.71888,2.14062 2.07822,0.44141 3.70327,0.92445 3.6112,1.07341 -0.0921,0.14897 0.74757,0.37406 1.86585,0.50021 1.11827,0.12615 2.19198,0.28406 2.38601,0.35091 0.76673,0.26416 1.94028,0.15799 1.94028,-0.17553 z m 3.26838,-0.319 c 0.14757,-0.56431 -0.0768,-0.70964 -1.4023,-0.90841 -0.86788,-0.13015 -1.66925,-0.14535 -1.78082,-0.0338 -0.11157,0.11157 -0.0226,0.20285 0.19765,0.20285 0.23201,0 0.30578,0.25972 0.17536,0.61736 -0.19737,0.54124 -0.12754,0.53159 0.56634,-0.0783 0.43531,-0.38261 0.76093,-0.54136 0.7236,-0.35278 -0.25591,1.29277 1.18924,1.81852 1.52017,0.55305 z m 19.44308,-0.80844 c -0.31811,-0.5147 -1.1711,0.4187 -0.93792,1.02633 0.18647,0.48595 0.26797,0.47653 0.67328,-0.0778 0.25362,-0.34685 0.37271,-0.7737 0.26464,-0.94857 z m -17.4198,-2.62342 c 0,-1.32612 -0.10328,-1.57296 -0.61736,-1.47546 -0.74703,0.14166 -1.00097,1.7105 -0.44502,2.74931 0.58572,1.09443 1.06238,0.52288 1.06238,-1.27385 z m 5.08706,0.48766 c 0.13109,-0.82462 0.32734,-1.85649 0.43611,-2.29305 0.13672,-0.54873 0.0401,-0.79375 -0.31302,-0.79375 -0.95573,0 -1.67059,2.58146 -1.11546,4.02809 0.37087,0.96646 0.7456,0.61102 0.99237,-0.94129 z m 4.30926,0.2001 c 0.12063,-0.4806 0.008,-1.26568 -0.25092,-1.74953 -0.39793,-0.74353 -0.39133,-0.92933 0.0431,-1.21542 0.35433,-0.23333 -0.0324,-0.30803 -1.25103,-0.24165 l -1.76389,0.0961 -0.32078,1.66002 c -0.41292,2.13687 -0.0248,2.64173 1.8903,2.4591 1.17684,-0.11223 1.47367,-0.29332 1.65319,-1.00861 z m 16.072231,0.40769 c 0.260572,-0.57189 0.284325,-1.01338 0.06626,-1.23145 -0.483729,-0.48373 -1.898701,0.58748 -1.898701,1.43742 0,1.02894 1.338321,0.87851 1.832439,-0.20597 z m -13.814991,0.0978 c 0.007,-0.24254 0.073,-1.35379 0.14762,-2.46945 0.10419,-1.55722 0.0224,-2.02847 -0.35226,-2.02847 -0.98636,0 -1.62172,2.77171 -1.00423,4.38087 0.25362,0.66092 1.19176,0.75176 1.20887,0.11705 z m 4.03049,-0.52917 c 0.45313,-1.80106 0.74819,-5.02708 0.4598,-5.02708 -0.45,0 -0.91033,1.50726 -1.17512,3.84765 -0.252,2.22741 0.24535,3.04744 0.71532,1.17943 z m -19.77873,0.0593 c 0.36735,-0.95731 0.24041,-1.97884 -0.22684,-1.82546 -0.51834,0.17016 -0.81984,2.38348 -0.32468,2.38348 0.18556,0 0.43374,-0.2511 0.55152,-0.55802 z m 1.78055,-0.63507 c -0.21708,-0.86494 -0.86087,-1.31338 -0.86087,-0.59965 0,0.17816 -0.091,0.56115 -0.20229,0.85109 -0.12612,0.32866 0.0399,0.58075 0.44097,0.66947 0.86114,0.19051 0.89031,0.14735 0.62219,-0.92091 z m 22.59901,0.4507 c 1.28185,-0.32278 1.49227,-0.48921 1.22653,-0.97014 -0.17643,-0.31929 -0.49617,-1.49334 -0.71055,-2.60899 -0.40579,-2.11186 -0.644,-2.29771 -2.19109,-1.70951 -0.93951,0.3572 -1.67643,2.28971 -1.67643,4.39627 0,1.13991 0.1,1.28199 0.90211,1.28199 0.49617,0 1.59841,-0.17533 2.44943,-0.38962 z m -28.69898,-0.97696 c 0.24259,-0.65579 0.18472,-0.77981 -0.31908,-0.68379 -0.33849,0.0645 -0.66847,0.49054 -0.73331,0.94674 -0.14988,1.05465 0.63779,0.85784 1.05239,-0.26295 z m -1.90465,0.22005 c -0.12468,-0.62342 -0.66878,-0.95846 -1.56668,-0.96474 -0.85096,-0.006 -1.33048,0.50357 -0.99096,1.05293 0.32638,0.52809 2.66477,0.44745 2.55764,-0.0882 z m 33.79886,0.0552 c 0.31159,-0.50417 -0.51335,-4.37061 -1.10272,-5.16837 -0.30394,-0.4114 -0.57434,-0.50098 -0.805,-0.2667 -0.30491,0.30968 -0.0842,1.67488 0.86971,5.37986 0.14002,0.54384 0.71705,0.57453 1.03801,0.0552 z m 5.593986,-0.20376 c 0.71687,0.27509 0.9398,-0.1105 0.51875,-0.89724 -0.32706,-0.61113 -0.43462,-0.63041 -0.95772,-0.17173 -0.32411,0.28418 -0.94648,0.62555 -1.38304,0.75859 -0.43656,0.13304 -0.79375,0.38168 -0.79375,0.55254 0,0.17086 0.47824,0.14394 1.06275,-0.0598 0.58451,-0.20376 1.28336,-0.28582 1.55301,-0.18234 z m -42.479646,-0.66602 c 0,-0.27959 -0.15875,-0.50835 -0.35278,-0.50835 -0.19403,0 -0.35278,0.32687 -0.35278,0.72638 0,0.3995 0.15875,0.62826 0.35278,0.50834 0.19403,-0.11991 0.35278,-0.44678 0.35278,-0.72637 z m -8.11389,0.19721 c 0,-0.19403 -0.16812,-0.35278 -0.3736,-0.35278 -0.20548,0 -0.27548,0.15875 -0.15557,0.35278 0.11992,0.19402 0.28804,0.35277 0.3736,0.35277 0.0856,0 0.15557,-0.15875 0.15557,-0.35277 z m 53.177206,-0.70556 c 0.16921,-0.98016 -0.44659,-1.52516 -1.24219,-1.09937 -0.9728,0.52062 -0.65255,1.88712 0.40667,1.73524 0.40929,-0.0587 0.78527,-0.34483 0.83552,-0.63587 z m -4.77431,-2.55764 c -0.1586,-2.34578 -0.52252,-3.13052 -1.157367,-2.49567 -0.352869,0.35287 0.266417,3.30862 0.912107,4.35338 0.37176,0.60151 0.39806,0.40229 0.24526,-1.85771 z m 6.69085,1.62102 c 1.05803,-0.9575 0.82917,-1.53635 -0.4611,-1.16631 -1.37188,0.39345 -1.43216,0.45442 -1.15738,1.17049 0.28284,0.73705 0.80091,0.73571 1.61848,-0.004 z m -52.977076,-0.11358 c 0,-0.18956 -0.40503,-0.61003 -0.90006,-0.93439 -0.70586,-0.46249 -0.9913,-0.49718 -1.32292,-0.16077 -0.32937,0.33413 -0.27146,0.54072 0.26193,0.93439 0.78221,0.57732 1.96105,0.67397 1.96105,0.16077 z m 6.11156,-0.50281 c 0.1044,-0.27207 0.0963,-0.5882 -0.018,-0.7025 -0.24879,-0.24878 -1.15468,0.44757 -1.15468,0.88759 0,0.50469 0.96651,0.35214 1.17267,-0.18509 z m 2.99368,-0.18633 c 0.097,-0.29101 -0.2272,-0.39144 -1.01459,-0.3143 -0.63643,0.0624 -1.22233,0.31192 -1.302,0.55459 -0.10134,0.3087 0.20341,0.40311 1.0146,0.3143 0.63769,-0.0698 1.22358,-0.31938 1.30199,-0.55459 z m 5.49729,0.12299 c 0.30257,-0.78848 0.27871,-0.85309 -0.31503,-0.85309 -0.29398,0 -0.52917,0.31358 -0.52917,0.70555 0,0.84111 0.54172,0.93578 0.8442,0.14754 z m 3.41937,-0.0244 c 1.79381,-0.71774 1.20428,-1.19268 -1.08395,-0.87325 -1.11623,0.15582 -1.61786,0.40296 -1.70156,0.83832 -0.15338,0.79781 0.84751,0.81037 2.78551,0.0349 z m -7.96774,-0.12312 c 0.11992,-0.19403 0.0499,-0.35278 -0.15557,-0.35278 -0.20547,0 -0.37359,0.15875 -0.37359,0.35278 0,0.19403 0.07,0.35278 0.15556,0.35278 0.0856,0 0.25369,-0.15875 0.3736,-0.35278 z m 38.545756,0.0257 c 0.33692,-0.17986 0.88535,-0.41107 1.21874,-0.51379 0.57096,-0.17593 0.57166,-0.2799 0.0121,-1.78965 -0.60125,-1.62225 -0.91779,-1.79642 -2.49654,-1.37366 -0.87274,0.2337 -0.87415,0.84009 -0.007,3.03399 0.43175,1.09241 0.43144,1.09225 1.27276,0.64311 z m -47.142556,-0.49918 c -0.2161,-0.26038 -0.28845,-0.57788 -0.16079,-0.70555 0.12767,-0.12767 -0.0231,-0.23213 -0.33501,-0.23213 -0.85115,0 -1.06119,0.61283 -0.35162,1.02592 0.88336,0.51428 1.31055,0.46979 0.84742,-0.0882 z m 20.18532,-0.0444 c 0.1093,-0.28482 0.04,-0.61599 -0.1541,-0.73592 -0.38403,-0.23735 -1.38025,0.44415 -1.38025,0.94421 0,0.52237 1.32288,0.34279 1.53435,-0.20829 z m 33.390646,0.16509 c 0,-0.19402 -0.16812,-0.35277 -0.3736,-0.35277 -0.20548,0 -0.27548,0.15875 -0.15557,0.35277 0.11992,0.19403 0.28804,0.35278 0.3736,0.35278 0.0856,0 0.15557,-0.15875 0.15557,-0.35278 z m -28.096226,-0.52916 c 0.29104,-0.29104 1.00739,-0.52917 1.59188,-0.52917 0.58449,0 1.16242,-0.16134 1.28429,-0.35853 0.12187,-0.19719 0.36937,-0.2672 0.54999,-0.15557 0.18062,0.11163 0.3284,0.0518 0.3284,-0.13289 0,-0.59544 -0.93759,-0.71941 -2.51617,-0.33271 -1.75942,0.43101 -2.42272,0.85593 -2.42272,1.55206 0,0.63704 0.52318,0.61796 1.18433,-0.0432 z m 24.566486,-0.44097 c -0.003,-1.04454 -0.71868,-3.2632 -1.05213,-3.2632 -0.64145,0 -0.68279,0.65913 -0.14106,2.24901 0.55611,1.63211 1.19689,2.17676 1.19319,1.01419 z m -19.066506,-1.78769 c 0.43034,-1.5005 -0.21603,-1.48504 -0.84897,0.0203 -0.49018,1.16578 -0.3685,1.99791 0.20786,1.42155 0.17551,-0.17552 0.46401,-0.82435 0.64111,-1.44185 z m -19.96503,1.10429 c 0.13333,-0.13333 1.48758,-0.21061 3.00944,-0.17172 4.15558,0.10618 11.86762,-1.33503 15.73934,-2.94134 5.93532,-2.46246 7.60553,-4.32787 7.69884,-8.59859 0.0498,-2.27936 -0.27615,-5.09078 -0.66273,-5.71628 -0.72159,-1.16756 -1.17598,-4.42511 -0.97706,-7.00466 0.28406,-3.6836 -0.29891,-3.75989 -2.00161,-0.26193 -0.67883,1.39456 -1.59078,2.8991 -2.02656,3.34343 -0.4561,0.46504 -0.87547,1.43813 -0.98824,2.29306 -0.2509,1.90209 -0.79335,3.94718 -1.50275,5.66544 -0.66129,1.60177 -1.92196,2.25374 -3.11907,1.61306 -0.84411,-0.45176 -1.15207,-1.10197 -2.07556,-4.38221 -0.32774,-1.16417 -0.8812,-3.06917 -1.22991,-4.23334 -1.25282,-4.18255 -1.41905,-5.35492 -1.08555,-7.65635 0.39961,-2.75766 2.19693,-7.66951 3.51066,-9.59421 0.54309,-0.79566 1.41147,-2.06413 1.92974,-2.81881 1.32407,-1.92806 1.21579,-2.39716 -0.73472,-3.18295 -2.31559,-0.93288 -5.232,-2.8431 -7.27338,-4.76399 -1.08788,-1.02366 -1.77855,-1.4544 -1.88222,-1.17385 -0.0901,0.24375 -0.33347,0.33828 -0.54091,0.21008 -0.21157,-0.13076 -0.27523,-0.0682 -0.145,0.14253 0.12768,0.20659 -0.30491,1.38206 -0.96131,2.61214 -0.6564,1.23009 -1.94824,3.66527 -2.87076,5.41152 -0.92251,1.74625 -2.50627,4.445 -3.51947,5.99723 -1.01319,1.55222 -2.96801,4.56847 -4.34405,6.70277 -1.37604,2.13431 -2.8971,4.36722 -3.38014,4.96204 -0.48304,0.59481 -1.08056,1.54731 -1.32783,2.11667 -0.24727,0.56935 -1.11323,2.00219 -1.92436,3.18408 -2.3836,3.47315 -2.65479,4.14115 -2.20502,5.43137 0.34042,0.97652 0.50607,1.0877 1.3156,0.88297 1.45106,-0.36697 7.15319,-1.60455 8.41584,-1.82656 1.39012,-0.24442 2.79198,0.57511 3.31276,1.93663 0.38731,1.01257 0.10422,5.96396 -0.38636,6.75773 -0.15425,0.24958 -0.97347,0.48344 -1.8205,0.51969 -0.84702,0.0362 -1.94924,0.33469 -2.44938,0.66319 -1.13644,0.74644 -4.73272,1.43429 -5.94345,1.13678 -3.45808,-0.84973 -5.12002,-0.38459 -4.274,1.1962 0.58329,1.08989 1.82443,1.22724 5.59013,0.61863 1.881,-0.30401 4.3725,-0.65496 5.53666,-0.77989 2.05489,-0.22051 7.88955,-1.21786 11.1125,-1.89951 0.87313,-0.18466 5.06792,-1.53563 9.32176,-3.00214 4.25384,-1.46652 7.79262,-2.60804 7.86394,-2.53671 0.43996,0.43995 -16.13811,6.31933 -19.42012,6.8873 -1.32595,0.22946 -2.67533,0.55903 -2.99862,0.73237 -0.32328,0.17334 -2.05623,0.58295 -3.85099,0.91024 -1.79475,0.32728 -3.26319,0.65475 -3.26319,0.72769 0,0.24263 6.58101,0.1368 6.82761,-0.1098 z m 25.42451,-1.60966 c 0.50977,-2.48566 0.56363,-3.43958 0.19422,-3.43958 -0.76842,0 -1.41246,1.03692 -1.63006,2.62445 -0.20186,1.47275 -0.15733,1.60888 0.52627,1.60888 0.49103,0 0.80254,-0.27184 0.90957,-0.79375 z m 17.075656,-0.19941 c 0.14681,-1.03103 -0.48628,-1.80437 -1.30241,-1.59094 -0.55086,0.14405 -0.58317,0.3217 -0.25162,1.38332 0.43124,1.3808 1.36914,1.50609 1.55403,0.20762 z m -13.364406,-0.17767 c 0.9842,-0.0351 1.788191,-0.18295 1.786653,-0.32848 -0.0014,-0.14552 -0.0028,-0.89958 -0.0028,-1.67569 0,-1.47502 -0.634073,-1.93706 -0.958063,-0.69812 -0.13278,0.50776 -0.30847,0.61172 -0.61035,0.36118 -0.23315,-0.19349 -0.98997,-0.33053 -1.68182,-0.30452 -1.19305,0.0449 -1.2678,0.12092 -1.44942,1.47502 -0.22299,1.66248 -0.0152,2.18193 0.65135,1.62871 0.26125,-0.21682 1.28025,-0.42296 2.26445,-0.4581 z m 0.40059,-1.15162 c 0.0169,-0.41097 0.10052,-0.49456 0.21314,-0.21314 0.1019,0.25466 0.0894,0.55893 -0.0278,0.67616 -0.11723,0.11722 -0.2006,-0.0911 -0.18528,-0.46302 z m 5.969376,-1.53728 c 0,-2.02954 -0.47871,-2.51403 -1.45188,-1.46945 -0.38075,0.40868 -0.52734,0.74307 -0.32576,0.74307 0.20159,0 0.36652,0.55562 0.36652,1.23472 0,0.99954 0.1344,1.23472 0.70556,1.23472 0.61036,0 0.70556,-0.23518 0.70556,-1.74306 z m -47.272226,0.73183 c 0,-0.16812 1.07619,-0.22867 2.39154,-0.13456 1.88877,0.13514 2.48777,0.0552 2.8493,-0.38046 0.65301,-0.78683 0.37011,-2.14518 -0.47834,-2.29675 -1.25999,-0.22508 -1.43983,-0.76311 -0.25507,-0.76311 0.80618,0 1.28295,0.24754 1.69862,0.88195 0.72951,1.11336 1.56113,1.12008 2.59371,0.0209 0.71663,-0.76281 0.76335,-0.99158 0.40965,-2.0062 -0.2696,-0.77336 -0.28317,-1.26126 -0.0418,-1.50261 1.47351,-1.47351 -1.77495,-3.45738 -3.84616,-2.3489 -1.1586,0.62007 -5.99787,1.77982 -7.4266,1.77982 -1.2572,0 -1.51532,-0.15523 -2.34642,-1.41111 -0.51361,-0.77611 -0.97373,-1.41111 -1.02249,-1.41111 -0.0488,0 -1.37705,0.64485 -2.95173,1.43301 -2.37957,1.19101 -2.86308,1.57489 -2.86308,2.27312 0,1.12249 3.19434,5.2578 4.17296,5.4022 0.59041,0.0871 0.71097,-0.0216 0.53431,-0.48201 -0.20281,-0.5285 -0.13407,-0.5434 0.6191,-0.13416 0.46599,0.2532 1.08537,0.49679 1.37641,0.54132 0.29104,0.0445 0.88636,0.19185 1.32292,0.32738 0.54899,0.17044 0.79375,0.10165 0.79375,-0.22309 0,-0.33825 0.16908,-0.30043 0.60476,0.13524 0.63081,0.63081 1.86468,0.82872 1.86468,0.29909 z m 49.184906,-0.98435 c 0.37312,-0.97234 -0.14529,-2.17261 -0.85788,-1.98627 -0.46787,0.12235 -0.64658,0.48577 -0.63071,1.28254 0.0122,0.6115 0.0856,1.22394 0.16311,1.36099 0.21422,0.37871 1.09567,-0.0584 1.32548,-0.65726 z m 1.22715,0.1435 c -0.0193,-0.24253 -0.16227,-0.83785 -0.31761,-1.32292 -0.25208,-0.7871 -0.28623,-0.73967 -0.31761,0.44098 -0.0193,0.7276 0.12358,1.32291 0.31761,1.32291 0.19403,0 0.33695,-0.19844 0.31761,-0.44097 z m 1.0935,-1.49931 c 0,-1.81532 -0.357,-2.43688 -0.89743,-1.56245 -0.32292,0.52251 0.15887,3.50273 0.56627,3.50273 0.18214,0 0.33116,-0.87312 0.33116,-1.94028 z m 3.05311,-0.52916 c 0.3286,-1.23112 0.3019,-1.41111 -0.20934,-1.41111 -0.91398,0 -1.32204,0.62667 -1.15392,1.77213 0.21827,1.4872 0.91951,1.30149 1.36326,-0.36102 z m -8.69756,-0.83185 c 1.06716,-0.2761 2.85569,-0.90867 3.97451,-1.40571 1.11883,-0.49704 2.99758,-1.0127 4.175,-1.14591 1.33968,-0.15157 2.21239,-0.42887 2.33218,-0.74104 0.10529,-0.27437 -3e-5,-2.74465 -0.23402,-5.48952 -0.34331,-4.02718 -0.6858,-5.81139 -1.77403,-9.24179 -0.74172,-2.33812 -1.84371,-5.99738 -2.44886,-8.13168 -0.60515,-2.13431 -1.23563,-4.12395 -1.40108,-4.42144 -0.16545,-0.29748 -0.49301,-1.72623 -0.72791,-3.175 -0.549,-3.38601 -1.73447,-7.4729 -2.12638,-7.33064 -0.51902,0.18841 -3.527624,3.12519 -4.106148,4.00814 -0.463218,0.70696 -0.480942,1.04685 -0.113379,2.17428 0.377511,1.15794 0.774622,1.78886 2.412797,3.83343 0.16766,0.20924 0.71445,1.02933 1.21511,1.82243 0.50066,0.79309 1.06703,1.53886 1.25859,1.65725 0.19157,0.11839 0.83641,0.93851 1.433,1.82248 3.21515,4.76395 4.06046,8.49473 3.14207,13.86767 -0.56982,3.33371 -0.77872,3.63053 -2.35619,3.34784 -3.83868,-0.68789 -6.977428,-3.25868 -9.476876,-7.76202 l -1.11746,-2.01335 0.17781,-5.85581 c 0.19717,-6.49336 -0.12697,-9.77602 -0.95492,-9.67087 -1.08448,0.13772 -3.24713,1.08909 -3.54498,1.55945 -0.49352,0.7794 -0.37292,3.04144 0.23841,4.47179 1.14351,2.67549 1.57983,4.95388 1.79339,9.36488 0.20058,4.14284 0.27329,4.51134 0.85988,4.35795 0.67166,-0.17564 1.53429,0.53832 1.13402,0.93858 -0.12767,0.12767 -0.52316,0.23212 -0.87888,0.23212 -0.87208,0 -0.85853,1.69649 0.0418,5.23289 0.37871,1.48754 0.79751,3.77618 0.93066,5.08586 0.24721,2.43156 0.39961,2.64211 1.47236,2.03402 0.82192,-0.4659 4.351986,-1.70401 6.981706,-2.44871 1.17468,-0.33265 2.32002,-0.71868 2.54519,-0.85785 0.22517,-0.13916 1.1381,-0.47232 2.02873,-0.74036 1.39674,-0.42036 1.56223,-0.41856 1.20397,0.0131 -0.22844,0.27526 -0.59436,0.50145 -0.81313,0.50265 -0.21878,10e-4 -0.87403,0.25272 -1.45611,0.55895 -0.58209,0.30622 -1.77271,0.78949 -2.64584,1.07393 -1.67714,0.54635 -2.00932,0.67849 -4.6743,1.85937 -1.575964,0.69833 -2.400306,1.71349 -1.058333,1.30331 0.339548,-0.10379 1.490483,-0.4146 2.557633,-0.6907 z m -8.579956,-29.40495 c -0.10611,-0.17169 -0.0645,-0.51997 0.0925,-0.77396 0.21684,-0.35085 0.34794,-0.36061 0.54571,-0.0406 0.14317,0.23165 0.10156,0.57993 -0.0925,0.77395 -0.19737,0.19737 -0.43777,0.21526 -0.54571,0.0406 z m 1.87718,28.07849 c 0,-0.38805 -0.15875,-0.60744 -0.35277,-0.48753 -0.19403,0.11992 -0.35278,0.53553 -0.35278,0.92359 0,0.38805 0.15875,0.60744 0.35278,0.48753 0.19402,-0.11992 0.35277,-0.53553 0.35277,-0.92359 z m -52.68893,-2.51547 c 0.66997,0.0196 2.27754,-0.57254 4.05695,-1.49423 2.79608,-1.4483 2.94443,-1.58409 2.89209,-2.64726 -0.0303,-0.61636 -1.03805,-3.03874 -2.23932,-5.38307 -2.68986,-5.24936 -3.24744,-7.26177 -3.12531,-11.27986 0.0852,-2.80436 0.0208,-3.15421 -0.72756,-3.9508 -0.98604,-1.0496 -0.75648,-1.96822 0.49185,-1.96822 1.12245,0 1.19512,-0.91818 0.0993,-1.25413 -2.04761,-0.62773 -2.02224,-1.92008 0.0377,-1.92219 1.62128,-0.002 2.6881,-0.67887 6.30084,-3.99968 1.59446,-1.46561 3.21241,-2.83247 3.59544,-3.03746 0.72859,-0.38993 0.74191,-1.15996 0.0427,-2.46648 -0.49916,-0.93269 -0.40322,-6.41989 0.13098,-7.49139 0.22284,-0.44699 0.67491,-0.86465 1.00459,-0.92814 0.52983,-0.10203 0.57783,0.15512 0.41342,2.21494 -0.15964,2.00021 -0.0307,2.76583 0.91021,5.40398 0.93643,2.62563 1.09982,3.58777 1.12099,6.60138 0.0136,1.94028 -0.1616,4.24215 -0.38941,5.11528 -0.56583,2.16863 -2.50485,7.0194 -2.90466,7.26651 -0.179,0.11062 -0.7062,0.80428 -1.17156,1.54147 -0.46537,0.73718 -1.79482,2.40908 -2.95435,3.71532 l -2.10823,2.37499 0.61748,1.10571 c 0.33962,0.60815 0.8433,1.14964 1.11931,1.20333 0.98017,0.19064 9.27384,-7.62438 13.39423,-12.62122 4.87805,-5.91568 9.05763,-13.30909 9.65193,-17.07368 0.11939,-0.75629 0.31276,-1.75631 0.42971,-2.22228 0.1963,-0.78215 0.13486,-0.82877 -0.80012,-0.6071 -0.55702,0.13205 -1.34049,0.53676 -1.74105,0.89936 -0.40056,0.36259 -0.99725,0.65925 -1.32597,0.65925 -0.32872,0 -1.21091,0.44423 -1.96042,0.98717 -0.77067,0.55827 -1.80393,0.97977 -2.3782,0.97014 l -1.01545,-0.017 -0.10528,-3.52778 c -0.10735,-3.59706 0.52943,-8.21787 1.50707,-10.93611 0.27914,-0.77611 0.51401,-1.56986 0.52193,-1.76389 0.0202,-0.4938 -8.39378,-0.43962 -9.50844,0.0612 -0.48507,0.21796 -1.16366,0.69022 -1.50797,1.04948 -0.98158,1.02416 -2.37259,3.27774 -2.37259,3.84385 0,0.28242 -0.18911,0.5135 -0.42025,0.5135 -0.23114,0 -1.22333,0.8361 -2.20486,1.85799 -0.98153,1.0219 -2.73599,2.64909 -3.8988,3.61597 -1.1628,0.96689 -3.0111,2.55173 -4.10733,3.52187 -3.18611,2.81965 -5.52013,4.84782 -5.84396,5.07818 -0.69907,0.49726 -5.73006,6.73676 -6.26313,7.7676 -0.57342,1.10887 -0.83164,4.92585 -0.38242,5.65272 0.12074,0.19534 0.76643,2.54247 1.43487,5.21584 0.66844,2.67336 1.71604,6.68629 2.32799,8.91761 0.61196,2.23132 1.26423,5.00944 1.44948,6.17361 0.66817,4.1988 0.22233,3.78083 3.72101,3.48838 1.6912,-0.14137 3.57426,-0.24246 4.18458,-0.22466 z m -7.08776,-24.50724 c -1.03793,-0.26896 -3.37053,-1.82181 -3.37053,-2.24382 0,-0.20435 0.16988,-0.68896 0.37751,-1.07692 0.36827,-0.68812 0.40926,-0.68108 1.67569,0.28777 1.10555,0.84578 1.73057,1.02244 4.21196,1.19053 2.83266,0.19189 4.12036,0.6991 3.41859,1.34655 -0.39624,0.36558 -5.32276,0.75254 -6.31322,0.49589 z m 1.38673,-3.73863 c -2.36255,-1.35425 -3.00257,-2.03453 -2.60792,-2.77196 0.52007,-0.97176 1.49404,-0.78052 2.98635,0.58638 0.78586,0.71982 1.8662,1.31712 2.60198,1.4386 1.78676,0.29498 2.14011,0.43486 2.14011,0.84722 0,0.20012 -0.62202,0.36385 -1.38226,0.36385 -0.76024,0 -1.59368,0.0783 -1.85208,0.17389 -0.2584,0.0957 -1.10719,-0.19145 -1.88618,-0.63798 z m 15.30921,-10.7366 c -0.62357,-1.44656 -1.1188,-3.50969 -1.50828,-6.28351 -0.16427,-1.16983 0.4048,-2.27135 1.17341,-2.27135 0.64193,0 0.70312,0.23213 0.69066,2.61994 -0.008,1.44097 0.13562,2.90941 0.31809,3.26319 0.18248,0.35379 0.43789,1.47669 0.56759,2.49534 0.30113,2.3651 -0.2634,2.44531 -1.24147,0.17639 z m 32.67067,36.25399 c 0.29927,-0.57874 0.64316,-1.80905 0.76418,-2.73403 0.25882,-1.97808 0.8974,-3.36257 2.28649,-4.95724 1.13127,-1.29869 1.19103,-1.55856 0.5825,-2.53298 -0.64688,-1.03582 0.027,-2.56825 1.31514,-2.99055 0.57863,-0.1897 1.09947,-0.37223 1.15742,-0.40563 0.0579,-0.0334 0.001,-0.47633 -0.12644,-0.9843 -0.19357,-0.77122 -0.431,-0.92357 -1.43935,-0.92357 -0.74795,0 -1.28484,-0.20141 -1.41061,-0.52916 -0.36822,-0.95955 -0.71323,-0.55624 -1.36465,1.59525 -0.64263,2.12246 -0.64252,2.12507 0.12054,2.83596 0.94078,0.87648 0.94949,1.25705 0.0621,2.71254 -0.81628,1.3388 -1.58033,1.44558 -2.71515,0.37948 -1.02882,-0.96653 -1.03577,-1.83658 -0.0227,-2.84648 0.43656,-0.43522 0.98518,-1.50678 1.21915,-2.38125 0.55388,-2.07021 0.55184,-2.11912 -0.0887,-2.11912 -0.84163,0 -2.27702,-1.63219 -2.27702,-2.58922 0,-1.09699 1.49885,-2.11586 2.82606,-1.92107 0.88492,0.12987 1.0258,0.002 1.41732,-1.28872 0.2391,-0.78811 0.48286,-2.1194 0.5417,-2.95841 0.0588,-0.83902 0.37041,-1.92755 0.6924,-2.41896 0.71454,-1.09053 0.30768,-1.62535 -1.11297,-1.463 -1.07432,0.12277 -1.10857,0.26786 -0.63124,2.67408 0.34634,1.74594 -0.60364,2.99029 -2.17925,2.85455 -1.09791,-0.0946 -1.3243,0.0522 -2.27414,1.47438 -1.19019,1.78208 -2.1021,4.48451 -2.1021,6.22957 0,1.0091 0.12003,1.17069 0.86953,1.17069 1.50155,0 2.15976,2.32444 1.01607,3.5882 -0.32111,0.35483 -0.89476,0.64514 -1.27478,0.64514 -0.62302,0 -0.66717,0.16471 -0.44917,1.67569 0.13297,0.92163 0.32894,2.0408 0.43549,2.48703 0.19312,0.80878 0.19534,0.80906 0.70025,0.0882 0.59449,-0.84876 1.95627,-0.94935 2.58564,-0.19099 0.62417,0.75207 0.18676,3.03487 -0.72421,3.77951 -0.75542,0.6175 -0.71624,1.63227 0.10255,2.6557 0.54465,0.68078 0.90611,0.53328 1.49799,-0.61129 z m 22.805496,-6.79573 c 0.21597,-1.67305 0.28598,-3.467 0.15558,-3.98656 -0.2211,-0.88095 -0.27947,-0.9063 -0.86557,-0.37588 -1.52265,1.37797 -3.46839,0.0698 -3.06829,-2.06296 0.12886,-0.68686 0.42553,-1.256 0.65927,-1.26474 0.23374,-0.009 0.88485,-0.21224 1.4469,-0.4522 0.88959,-0.37978 0.95811,-0.50574 0.52917,-0.97274 -0.27101,-0.29506 -0.83013,-1.15729 -1.24248,-1.91606 -0.64751,-1.19151 -0.92373,-1.38563 -2.02604,-1.42391 -1.72819,-0.06 -2.794824,-1.06207 -2.60148,-2.44398 0.082,-0.58601 0.21416,-1.30361 0.29371,-1.59465 0.0971,-0.35523 -0.1558,-0.56408 -0.769417,-0.63538 l -0.914072,-0.10622 0.492721,2.22288 c 0.270997,1.22259 0.585301,2.90988 0.698451,3.74954 0.157887,1.1717 0.397107,1.59941 1.028857,1.83961 1.69651,0.64501 1.39994,3.62387 -0.40591,4.07711 -1.525614,0.38291 -2.631816,-0.35188 -2.631816,-1.74817 0,-0.6595 0.238129,-1.39671 0.52917,-1.63826 1.123509,-0.93243 0.36242,-2.10636 -0.86759,-1.3382 -0.57634,0.35992 -0.7145,0.80203 -0.6928,2.21681 0.0363,2.366 0.75869,4.63593 1.411377,4.43489 0.998097,-0.30742 2.523669,-0.10866 2.842979,0.37039 0.32547,0.48832 0.23313,1.9725 -0.20615,3.3132 -0.17697,0.54013 0.017,0.85365 0.8224,1.32942 l 1.05398,0.6226 -0.27571,-0.97664 c -0.47888,-1.69628 0.3923,-2.88466 2.13013,-2.90569 1.20936,-0.0146 1.9044,0.86216 1.77386,2.23774 -0.12066,1.2715 -0.86238,1.96856 -2.15087,2.02136 -0.74236,0.0304 -0.65205,0.11682 0.50839,0.48638 0.77611,0.24716 1.53204,0.33977 1.67985,0.2058 0.1478,-0.13397 0.44543,-1.61244 0.6614,-3.28549 z m -57.697526,-9.08535 c 1.03068,-1.4552 1.88218,-2.82483 1.89221,-3.04361 0.01,-0.21877 0.28079,-0.61565 0.60169,-0.88194 0.96514,-0.80089 2.63147,-4.89723 3.1388,-7.71611 0.41338,-2.29685 0.36772,-5.29167 -0.0807,-5.29167 -0.70547,0 -2.53871,1.46304 -4.60306,3.67353 -1.36107,1.45742 -2.88477,2.83671 -3.38601,3.06509 -0.61092,0.27836 -1.09097,0.94245 -1.45631,2.01466 -0.49599,1.45566 -0.49393,1.65584 0.0229,2.22689 0.49359,0.5454 0.51081,0.86519 0.1317,2.44551 -0.53794,2.24237 -0.54026,2.92391 -0.0165,4.85255 0.6004,2.21088 1.45315,1.90549 3.75531,-1.3449 z m 42.53216,-0.20716 c -0.0683,-0.56516 -0.43053,-1.82131 -0.80501,-2.79145 -0.37448,-0.97014 -0.77862,-2.76119 -0.89809,-3.98011 -0.11946,-1.21892 -0.37618,-2.31448 -0.57049,-2.43456 -0.5027,-0.3107 -0.10974,3.87928 0.56853,6.0619 0.30148,0.97013 0.64705,2.36939 0.76793,3.10945 0.25861,1.58332 1.12808,1.61557 0.93713,0.0348 z m -3.58545,-5.01713 c 0.003,-0.25398 -0.15335,-0.36368 -0.34737,-0.24376 -0.19403,0.11992 -0.35035,0.56585 -0.34738,0.99096 0.004,0.62838 0.0694,0.67397 0.34738,0.24376 0.18808,-0.29104 0.3444,-0.73697 0.34737,-0.99096 z m 9.5304,-0.26393 c 0,-0.81057 -0.75698,-3.67396 -1.01353,-3.83381 -0.12165,-0.0758 -0.16795,0.8794 -0.10289,2.12267 0.0868,1.65778 0.25136,2.26048 0.61736,2.26048 0.27449,0 0.49906,-0.24721 0.49906,-0.54934 z m -4.33425,-7.08012 c 0.19126,-0.58153 -1.02414,-0.94504 -1.36478,-0.40819 -0.15806,0.24911 -0.28982,0.58303 -0.29279,0.74204 -0.008,0.43176 1.50607,0.12679 1.65757,-0.33385 z m -2.37392,-3.92402 c 0.004,-0.96688 -0.1512,-1.49947 -0.43558,-1.49978 -0.31537,-3.5e-4 -0.4057,0.56692 -0.31715,1.99164 0.14362,2.3106 0.74404,1.91826 0.75273,-0.49186 z m -8.28488,1.44854 c -0.58208,-0.29415 -1.35137,-0.92935 -1.70953,-1.41158 -0.61222,-0.82428 -0.61553,-0.91618 -0.0552,-1.5353 0.56813,-0.62777 0.5315,-0.69143 -0.78398,-1.36254 -1.30896,-0.66778 -3.04603,-2.34901 -4.42841,-4.28603 l -0.62715,-0.87878 0.22791,0.88194 c 0.12534,0.48507 0.44508,1.13018 0.71052,1.43357 0.33984,0.38842 0.37203,0.66221 0.10883,0.92541 -0.2632,0.2632 -0.0983,0.44293 0.55723,0.60746 0.9219,0.23138 2.18535,2.35303 1.78602,2.99917 -0.0986,0.15955 0.0948,0.53695 0.42975,0.83867 0.94816,0.85401 3.72544,2.36148 4.31321,2.34113 0.29104,-0.0101 0.0529,-0.25897 -0.52917,-0.55312 z m 5.98866,-2.28885 c -0.3401,-1.29561 -2.94591,-2.79571 -4.43628,-2.55386 -1.66871,0.2708 -2.91007,-0.73154 -2.8651,-2.31341 0.0189,-0.66587 0.2977,-1.34265 0.66309,-1.60982 0.53951,-0.39451 0.56642,-0.58056 0.18664,-1.29019 -0.39115,-0.73086 -0.7352,-0.84106 -2.90082,-0.9291 -1.3683,-0.0556 -2.45702,0.047 -2.45702,0.23155 0,0.1823 0.32793,0.24569 0.72873,0.14088 1.86092,-0.48664 3.49126,2.08201 2.21592,3.49125 -0.32366,0.35764 -0.5233,0.70192 -0.44365,0.76506 0.72036,0.57103 5.77721,3.39639 7.024,3.92444 0.87312,0.3698 1.73566,0.79925 1.91675,0.95435 0.48593,0.41616 0.61511,0.13122 0.36774,-0.81115 z m 5.04848,0.33048 c -0.6259,-0.94265 -1.33575,-1.23154 -1.33575,-0.54361 0,0.27756 0.35718,0.67692 0.79375,0.88747 1.10563,0.53322 1.11881,0.52486 0.542,-0.34386 z m 6.043183,-0.53687 c 0.08084,-0.0549 -0.19697,-0.0998 -0.617361,-0.0998 -0.469879,0 -0.764353,0.22051 -0.764353,0.57236 0,0.48993 0.08891,0.50431 0.617361,0.0998 0.339549,-0.25989 0.683507,-0.51746 0.764353,-0.57236 z M 96.953324,175.197 c 0.89849,-0.91132 1.879237,-2.17458 2.179451,-2.80723 0.300214,-0.63266 0.700345,-1.24577 0.889175,-1.36248 0.18884,-0.1167 0.34334,-0.44994 0.34334,-0.74053 0,-0.7942 -2.284114,0.67587 -5.130986,3.30235 -2.52703,2.3314 -2.79311,3.26485 -0.93065,3.26485 0.74349,0 1.45433,-0.44452 2.64967,-1.65696 z m 5.168006,-0.87771 c 0.004,-0.52095 0.16267,-1.35438 0.3519,-1.85208 0.22354,-0.58797 0.22354,-0.90491 0,-0.90491 -0.18923,0 -0.34405,0.15875 -0.34405,0.35277 0,0.19403 -0.27781,0.35521 -0.61736,0.35818 -1.37189,0.012 -1.629946,0.55203 -0.80013,1.67441 0.63296,0.85612 0.70811,1.19594 0.39422,1.78246 -0.61469,1.14855 -0.43675,1.38282 0.31771,0.41829 0.37943,-0.48507 0.6934,-1.30818 0.69771,-1.82912 z m -13.397706,1.17826 c 0,-1.1286 -2.72451,-4.99359 -3.52008,-4.99359 -0.39229,0 -0.71325,-0.15875 -0.71325,-0.35278 0,-0.19402 -0.3175,-0.35277 -0.70556,-0.35277 -0.38805,0 -0.70555,0.20704 -0.70555,0.4601 0,0.93639 2.0858,3.70724 3.57668,4.75138 1.83447,1.28478 2.06776,1.33979 2.06776,0.48766 z m 2.27301,-1.49345 c 0.18881,-0.6639 0.62966,-1.51688 0.97967,-1.89552 0.73958,-0.80009 4.86121,-7.68525 4.86121,-8.12063 0,-0.16161 0.69246,-1.50005 1.538792,-2.97432 0.846335,-1.47428 2.380254,-4.34738 3.408704,-6.38467 1.02845,-2.03729 2.17102,-4.13874 2.53903,-4.66988 1.00872,-1.45588 2.84263,-7.11531 2.35802,-7.27685 -0.27617,-0.0921 -0.25802,-0.22049 0.0588,-0.41631 0.37113,-0.22937 0.36195,-0.40173 -0.0483,-0.90696 -0.27856,-0.34308 -0.31901,-0.51134 -0.0899,-0.37391 0.71213,0.42712 0.92588,-0.48604 0.2361,-1.00862 -0.63419,-0.48046 -0.63397,-0.49479 0.008,-0.5057 0.4798,-0.008 0.56455,-0.13188 0.30973,-0.45219 -0.46209,-0.58084 0.2622,-5.24072 0.94098,-6.05391 0.74102,-0.88776 1.64283,-1.29166 4.86057,-2.17695 2.73931,-0.75366 3.08483,-0.77316 6.00486,-0.33888 2.86323,0.42585 3.27195,0.40739 5.38708,-0.24323 2.44927,-0.75339 5.68515,-2.16332 8.82372,-3.84463 2.18028,-1.16797 5.28857,-2.66902 6.87917,-3.32208 0.58208,-0.23899 1.65903,-0.69024 2.39322,-1.00277 0.73418,-0.31253 1.62239,-0.56824 1.97379,-0.56824 0.80067,0 1.64371,-0.94747 1.93466,-2.1743 0.18074,-0.76215 0.018,-1.1119 -0.86163,-1.85209 -1.26913,-1.0679 -1.86702,-1.11471 -4.25618,-0.33326 -1.41017,0.46124 -2.65665,0.54099 -6.1189,0.39147 -5.49777,-0.23743 -8.83723,0.51294 -14.11654,3.172 -1.1633,0.58593 -2.82946,1.31015 -3.70259,1.60939 -0.87312,0.29924 -2.38125,0.90208 -3.35139,1.33963 -1.21509,0.54805 -2.47732,0.80338 -4.05694,0.82067 -2.29492,0.0251 -3.22785,-0.22287 -6.52639,-1.73486 -0.97014,-0.44469 -2.55764,-1.17217 -3.527778,-1.61662 -3.426628,-1.56986 -3.269318,-2.10406 2.204858,-7.48714 6.23854,-6.1347 14.87826,-15.312686 14.89662,-15.824686 0.005,-0.126542 -0.45803,-0.392617 -1.02791,-0.59128 -1.23855,-0.431762 -3.50342,0.08607 -6.60548,1.510238 -1.13286,0.520107 -3.00058,1.263685 -4.15047,1.652408 -2.22329,0.75157 -4.03119,1.95147 -4.06338,2.69686 -0.0107,0.24863 -0.25764,0.54342 -0.54868,0.6551 -0.29104,0.11169 -0.52917,0.34483 -0.52917,0.5181 0,0.17327 -0.277811,0.59974 -0.61736,0.94771 -0.339548,0.34798 -0.934861,1.07524 -1.322916,1.61615 -0.38805,0.5409 -0.98,1.30848 -1.31544,1.70573 -0.33543,0.39725 -0.70923,1.25183 -0.83065,1.89907 -0.12142,0.64723 -0.44229,1.36064 -0.71303,1.58534 -0.27075,0.22469 -0.49227,0.61934 -0.49227,0.87698 0,0.25764 -0.25851,0.61311 -0.57447,0.78993 -0.36136,0.20223 -0.43644,0.40679 -0.20237,0.55145 0.61014,0.37709 -0.9628,4.45379 -1.71844,4.45379 -0.17982,0 -0.32694,0.16292 -0.32694,0.36206 0,0.19913 -0.71437,1.07643 -1.5875,1.94956 -0.87312,0.87312 -1.5875,1.7057 -1.5875,1.85017 0,0.60746 -6.21521,3.24654 -7.64582,3.24654 -3.17309,0 -8.58196,6.12781 -8.58196,9.72267 0,0.48825 0.0944,0.51592 0.52917,0.15511 0.29104,-0.24155 0.5316,-0.77692 0.53457,-1.18973 0.004,-0.58718 0.0752,-0.64031 0.32589,-0.24407 0.26561,0.41975 0.41571,0.42746 0.87654,0.045 0.30583,-0.25382 0.55606,-0.75954 0.55606,-1.12384 0,-0.74633 -0.55298,-0.89478 -0.8247,-0.22139 -0.10271,0.25455 -0.18971,0.27766 -0.20578,0.0547 -0.0523,-0.72587 1.39075,-1.67159 2.53434,-1.66086 0.62808,0.006 1.38009,-0.15499 1.67114,-0.35751 0.29104,-0.20252 -1.17979,1.28756 -3.26851,3.31128 -2.08872,2.02372 -3.79528,3.79914 -3.79236,3.94536 0.003,0.14622 0.32281,0.85825 0.71087,1.58228 0.9992,1.86429 0.92524,2.53818 -0.16605,1.51296 -0.76135,-0.71525 -0.94695,-0.75649 -1.46725,-0.32607 -0.9106,0.75329 -2.17,3.73644 -1.98531,4.7026 0.0904,0.47289 0.94156,1.6452 1.89148,2.60515 0.94992,0.95994 1.72713,1.90573 1.72713,2.10174 0,0.19601 0.256,0.45463 0.56889,0.57469 0.45516,0.17466 0.48357,0.32113 0.14208,0.7326 -0.89652,1.08025 0.91525,3.35792 2.67107,3.35792 0.28964,0 1.16074,-0.32351 1.93577,-0.7189 1.52611,-0.77856 2.09052,-0.67708 2.09052,0.37587 0,0.45387 -0.17265,0.60741 -0.52917,0.4706 -0.29104,-0.11168 -0.52916,-0.0125 -0.52916,0.22049 0,0.23295 0.3175,0.50657 0.70555,0.60805 0.38806,0.10148 0.71735,0.36443 0.73177,0.58434 0.0833,1.27098 0.48934,2.24276 2.03807,4.8781 0.94706,1.61153 2.46987,4.34353 3.38402,6.07112 2.7435,5.18476 4.38555,7.6921 4.9207,7.51372 0.20909,-0.0697 0.53465,-0.66991 0.72345,-1.33381 z m -6.92526,-15.38279 c 0.25465,-0.10191 0.55893,-0.0894 0.67615,0.0278 0.11723,0.11723 -0.0911,0.20061 -0.46302,0.18529 -0.41097,-0.0169 -0.49456,-0.10052 -0.21313,-0.21313 z m -3.24167,-1.36015 c -0.12098,-0.31528 -0.20991,-0.75869 -0.1976,-0.98536 0.0123,-0.22666 0.17445,-0.0319 0.36035,0.43285 0.1859,0.46473 0.27482,0.90814 0.19761,0.98536 -0.0772,0.0772 -0.23937,-0.11757 -0.36036,-0.43285 z m 0.98232,-0.26493 c -0.11461,-0.3611 -0.1145,-0.75042 2.2e-4,-0.86515 0.11473,-0.11473 0.2086,0.056 0.2086,0.37936 0,0.32338 0.22876,0.58797 0.50835,0.58797 0.27959,0 0.58544,0.12473 0.67965,0.27718 0.0942,0.15245 -0.13463,0.27718 -0.50856,0.27718 -0.37393,0 -0.77365,-0.29545 -0.88826,-0.65654 z m 8.31564,-3.25774 c -0.24544,-0.29573 -0.35711,-0.62682 -0.24817,-0.73577 0.10894,-0.10894 0.37528,0.13302 0.59185,0.53769 0.46209,0.86342 0.29055,0.96228 -0.34368,0.19808 z m 4.11869,-0.10744 c -0.6249,-0.69051 -0.7479,-1.12046 -0.31926,-1.116 0.14552,0.001 0.44809,0.39839 0.67237,0.88194 0.48634,1.04858 0.4224,1.09097 -0.35311,0.23406 z m -6.69865,0.0572 c -0.12936,-0.12935 -0.23036,-0.48654 -0.22446,-0.79375 0.009,-0.45872 0.0776,-0.44348 0.38511,0.0853 0.37987,0.65323 0.26974,1.13889 -0.16065,0.70849 z m -1.29352,-0.41157 c 0,-0.22637 -0.33694,-0.41158 -0.74875,-0.41158 -0.62556,0 -0.6765,-0.0871 -0.30959,-0.52916 0.24155,-0.29104 0.56779,-0.52917 0.72498,-0.52917 0.36564,0 0.81813,1.39671 0.54196,1.67288 -0.11473,0.11473 -0.2086,0.0234 -0.2086,-0.20297 z m 2.63132,-0.0823 c -0.12789,-0.20693 -0.15687,-0.45191 -0.0644,-0.54438 0.0925,-0.0925 0.26214,0.0768 0.37704,0.37625 0.23854,0.62163 0.0352,0.73097 -0.31264,0.16813 z m -14.59791,-1.15608 c -0.0153,-0.35772 -0.3517,-0.73508 -0.74752,-0.83859 -0.69076,-0.18063 -0.69463,-0.21584 -0.0964,-0.87686 0.59758,-0.66032 0.59091,-0.74482 -0.16229,-2.05353 -0.80866,-1.40508 -0.9407,-2.46461 -0.46039,-3.69453 0.18731,-0.47964 0.26408,-0.16492 0.23978,0.98288 -0.0243,1.14758 0.13377,1.79563 0.49343,2.02307 0.29104,0.18405 0.40602,0.33707 0.25552,0.34004 -0.1505,0.003 -0.0215,0.49306 0.28675,1.08908 0.39575,0.76529 0.4527,1.21343 0.19384,1.52534 -0.25454,0.3067 -0.24919,0.55902 0.0175,0.82573 0.21124,0.21124 0.29937,0.5964 0.19585,0.85591 -0.1221,0.30609 -0.19801,0.24336 -0.21607,-0.17854 z m 8.29575,-0.17762 c -0.14972,-0.24226 -0.55127,-0.3932 -0.89233,-0.33542 -0.67784,0.11483 -1.78683,-0.64702 -1.78683,-1.2275 0,-0.20034 0.29031,-0.10153 0.64514,0.21958 0.80342,0.72709 1.25884,0.75221 0.99117,0.0547 -0.11168,-0.29104 -0.0739,-0.52917 0.084,-0.52917 0.50379,0 1.5327,1.35357 1.37912,1.8143 -0.11806,0.35418 -0.20308,0.35489 -0.42024,0.004 z m -4.14615,-0.65043 c -0.62029,-0.7474 -0.19745,-0.83235 0.71547,-0.14373 0.62268,0.46968 0.685,0.62263 0.25371,0.62263 -0.31445,0 -0.75058,-0.21551 -0.96918,-0.4789 z m 4.64205,-1.02365 c -7e-5,-0.45142 -1.86059,-1.42795 -3.28832,-1.72594 -0.56566,-0.11807 -0.93193,-0.39243 -0.84862,-0.63568 0.24506,-0.71548 2.77198,-0.26729 4.52437,0.80247 0.89222,0.54466 1.91094,1.04625 2.26382,1.11465 0.35289,0.0684 0.71068,0.3318 0.7951,0.58533 0.1159,0.34806 -0.28735,0.43447 -1.64639,0.35278 -1.00029,-0.0601 -1.79992,-0.27941 -1.79996,-0.49361 z m -7.72576,-0.60076 c -0.44623,-0.74306 -0.43872,-0.75058 0.16875,-0.16875 0.34968,0.33493 0.55985,0.6849 0.46704,0.77771 -0.0928,0.0928 -0.37891,-0.18123 -0.63579,-0.60896 z m 14.69306,0.38001 c -0.53358,-0.18402 -0.97014,-0.48009 -0.97014,-0.65795 0,-0.17786 -0.29609,-0.32338 -0.65798,-0.32338 -0.36189,0 -1.03658,-0.29048 -1.49931,-0.64551 -1.34045,-1.02846 -2.05951,-1.22026 -5.3995,-1.44026 -2.96944,-0.19559 -3.15038,-0.25325 -3.20576,-1.02168 -0.10613,-1.47266 1.52632,-1.9638 5.44919,-1.63948 1.8552,0.15338 3.78193,0.26087 4.28163,0.23888 1.31587,-0.0579 3.96803,0.79334 4.14731,1.33116 0.11845,0.35537 -0.19878,0.40431 -1.3929,0.21488 -0.85046,-0.13491 -2.18129,-0.29431 -2.9574,-0.35422 -0.77611,-0.0599 -2.60174,-0.2238 -4.05695,-0.3642 -1.60074,-0.15445 -2.99419,-0.11388 -3.52777,0.10271 -0.73242,0.2973 -0.48889,0.36178 1.43646,0.38035 2.45826,0.0237 5.29885,0.79893 5.99321,1.63558 0.2298,0.2769 0.79526,0.50345 1.25657,0.50345 0.46132,0 0.83876,0.16268 0.83876,0.36151 0,0.19883 0.39687,0.51241 0.88194,0.69683 1.58969,0.6044 1.00136,1.53957 -0.61736,0.98133 z m -13.80253,-5.84903 c -0.32165,-0.52045 0.89669,-1.3833 2.24906,-1.59281 0.67909,-0.10521 1.94909,-0.3546 2.82222,-0.5542 2.40964,-0.55084 7.11561,-0.4887 7.96347,0.10516 0.39167,0.27434 1.18105,0.55215 1.75419,0.61736 0.63717,0.0725 1.04206,0.32369 1.04206,0.64649 0,0.67913 -2.56384,0.52254 -3.37917,-0.20638 -0.63473,-0.56747 -4.13806,-0.64274 -6.675,-0.14341 -2.45662,0.48353 -4.35283,0.94427 -4.9914,1.21284 -0.31992,0.13455 -0.67336,0.0963 -0.78543,-0.085 z m -3.04261,-0.93232 c 0,-0.27959 0.14394,-0.59731 0.31988,-0.70604 0.17593,-0.10873 0.23679,0.12002 0.13524,0.50834 -0.21541,0.82374 -0.45512,0.92786 -0.45512,0.1977 z m 1.05833,-1.78141 c 0,-0.51621 1.78879,-1.94358 2.43571,-1.94358 0.76674,0 0.35939,0.59799 -1.0246,1.50411 -0.98302,0.64361 -1.41111,0.77693 -1.41111,0.43947 z m 11.28889,-4.91277 c 0,-0.50503 1.8876,-3.95999 2.56985,-4.70372 0.9488,-1.0343 1.61541,-1.00124 4.0548,0.20109 1.11012,0.54717 2.29622,0.9324 2.63577,0.85608 0.33955,-0.0763 0.61736,0.0316 0.61736,0.23988 0,0.20825 -0.20127,0.37864 -0.44728,0.37864 -0.246,0 -1.00006,0.36991 -1.67569,0.82202 -0.67563,0.45212 -2.33967,1.08978 -3.69786,1.41703 -1.3582,0.32725 -2.82664,0.69023 -3.2632,0.80662 -0.43656,0.11639 -0.79375,0.10845 -0.79375,-0.0176 z m 2.78129,-0.94086 c 1.20957,-0.36247 1.27743,-0.46378 1.30985,-1.95574 0.0274,-1.2605 -0.0779,-1.55265 -0.52917,-1.46878 -0.30984,0.0576 -0.8324,0.64315 -1.16122,1.30125 -0.32882,0.6581 -0.76539,1.36407 -0.97014,1.56883 -0.41253,0.41253 -0.4957,0.93672 -0.14862,0.93672 0.12301,0 0.7977,-0.17203 1.4993,-0.38228 z m 2.63362,-1.5693 c -0.21265,-0.55415 -0.56745,-0.66163 -0.94333,-0.28574 -0.31129,0.31129 0.46683,1.22092 0.84465,0.98741 0.16357,-0.10109 0.20798,-0.41684 0.0987,-0.70167 z m 1.97301,-0.71886 c -0.54452,-0.6561 -0.91102,-0.63854 -1.17771,0.0564 -0.3306,0.86153 0.0914,1.25361 0.88954,0.82646 0.56459,-0.30216 0.62261,-0.47992 0.28817,-0.8829 z m -13.73792,-3.67956 c 0,-0.19403 0.16812,-0.35278 0.3736,-0.35278 0.20548,0 0.27549,0.15875 0.15557,0.35278 -0.11992,0.19402 -0.28804,0.35277 -0.3736,0.35277 -0.0856,0 -0.15557,-0.15875 -0.15557,-0.35277 z m 29.724086,-1.41323 c 0.34095,-0.21372 1.69033,-0.63297 2.99861,-0.93167 1.30828,-0.2987 3.33866,-0.7609 4.51195,-1.02712 1.17329,-0.26622 2.99891,-0.86516 4.05694,-1.33099 1.05803,-0.46583 2.87619,-1.11816 4.04036,-1.44963 1.16417,-0.33147 3.62289,-1.34045 5.46384,-2.24218 3.07371,-1.50556 3.63573,-1.65962 6.87916,-1.88567 1.9426,-0.1354 4.30163,-0.43385 5.2423,-0.66324 1.89077,-0.46107 2.62332,-0.14074 2.18176,0.95404 -0.234,0.58019 -0.28867,0.56288 -0.57557,-0.18222 -0.17435,-0.45281 -0.43626,-0.76343 -0.58203,-0.69025 -2.79432,1.40276 -3.98343,1.76846 -5.582,1.7167 -2.35059,-0.0761 -4.75527,0.4854 -7.37191,1.72141 -1.17027,0.5528 -2.87364,1.25406 -3.78525,1.55836 -0.91161,0.3043 -2.34036,0.85471 -3.175,1.22312 -2.21075,0.97584 -7.1895,2.26784 -10.51336,2.72825 -1.28446,0.17792 -2.49942,0.41185 -3.70416,0.71319 -0.64088,0.1603 -0.64873,0.14086 -0.0856,-0.2121 z m -14.307486,43.62211 c -0.0389,-0.20495 0.1409,-0.37985 0.3996,-0.38867 0.25871,-0.009 0.89371,-0.43026 1.41112,-0.93654 0.5174,-0.50629 1.34998,-1.01839 1.850177,-1.13802 0.50019,-0.11963 1.373314,-0.64868 1.940279,-1.17567 1.31382,-1.2212 5.79316,-3.41352 8.09155,-3.96025 0.99505,-0.23669 2.73148,-0.33357 3.96875,-0.22141 l 2.1997,0.19939 v -3.24839 c 0,-3.5368 -0.67236,-6.81915 -1.98882,-9.70906 -0.45837,-1.00622 -0.8334,-1.97606 -0.8334,-2.1552 0,-0.17914 -0.65581,-1.07075 -1.45736,-1.98136 -1.75117,-1.98945 -2.67698,-2.04623 -3.31226,-0.20315 -0.23491,0.68153 -1.04868,2.26903 -1.80838,3.52778 -0.7597,1.25874 -1.99857,3.55862 -2.75306,5.11085 -0.75449,1.55222 -1.55688,3.06034 -1.7831,3.35139 -0.22622,0.29104 -0.624393,1.08479 -0.884834,1.76388 -0.260442,0.6791 -1.100067,2.34598 -1.865832,3.70417 -0.76577,1.3582 -1.70619,3.02507 -2.08982,3.70417 -0.38363,0.6791 -0.88747,1.47285 -1.11965,1.76389 -0.55838,0.69994 -2.32848,4.07405 -2.32848,4.43847 0,0.15733 0.54778,-0.24488 1.21729,-0.8938 0.66951,-0.64891 1.18544,-1.34752 1.14653,-1.55247 z m -25.63021,-1.53705 c 3.03086,-1.51073 4.17811,-1.89193 6.44487,-2.14141 3.36718,-0.37061 7.06117,0.0733 8.61944,1.03567 0.9918,0.61257 1.14652,0.63189 1.14652,0.14318 0,-0.31072 -0.43656,-1.22211 -0.97013,-2.02532 -0.53358,-0.8032 -1.24404,-1.87161 -1.5788,-2.37424 -0.33476,-0.50263 -0.89038,-1.41256 -1.23472,-2.02209 -0.34434,-0.60951 -1.30076,-2.22471 -2.12537,-3.58932 -0.82462,-1.36461 -1.49931,-2.63165 -1.49931,-2.81565 0,-0.184 -0.80117,-0.41152 -1.78038,-0.50561 -1.32853,-0.12766 -2.0448,-0.4244 -2.82222,-1.16922 -0.57302,-0.54898 -1.04184,-1.18959 -1.04184,-1.42357 0,-0.23398 -0.27782,-0.53247 -0.61736,-0.6633 -1.44378,-0.55632 -5.00002,5.5152 -5.57084,9.511 -0.13859,0.97014 -0.37311,2.00202 -0.52116,2.29306 -0.39598,0.77844 -0.80162,7.85832 -0.44178,7.71043 0.16823,-0.0691 1.96511,-0.95276 3.99308,-1.96361 z m -24.88778,-1.51349 c 0.11992,-0.19402 -0.0295,-0.35277 -0.33195,-0.35277 -0.3025,0 -0.54999,0.15875 -0.54999,0.35277 0,0.19403 0.14938,0.35278 0.33196,0.35278 0.18257,0 0.43007,-0.15875 0.54998,-0.35278 z m 35.45417,-11.64166 c 0,-0.19403 -0.16812,-0.35278 -0.3736,-0.35278 -0.20548,0 -0.27548,0.15875 -0.15557,0.35278 0.11992,0.19402 0.28804,0.35277 0.3736,0.35277 0.0856,0 0.15557,-0.15875 0.15557,-0.35277 z m -14.81667,-2.12793 c 0.48507,-0.16979 1.26639,-0.35577 1.73626,-0.4133 0.46987,-0.0575 0.92769,-0.32712 1.01737,-0.59907 0.12207,-0.37019 -0.0483,-0.43588 -0.67792,-0.26136 -0.81037,0.22463 -3.81249,0.69037 -8.42571,1.30712 -0.29104,0.0389 0.0265,0.18762 0.70556,0.33046 1.38719,0.29179 4.3095,0.10341 5.64444,-0.36385 z m -9.95862,-1.68648 c 0.21165,-0.63495 -0.51752,-0.50153 -0.76359,0.13972 -0.13185,0.34357 -0.053,0.50485 0.20479,0.41892 0.23054,-0.0768 0.482,-0.32824 0.5588,-0.55864 z m -8.20943,-0.41893 c -0.11992,-0.19402 -0.37678,-0.35277 -0.57081,-0.35277 -0.19402,0 -0.25466,0.15875 -0.13475,0.35277 0.11992,0.19403 0.37678,0.35278 0.57081,0.35278 0.19403,0 0.25467,-0.15875 0.13475,-0.35278 z m 11.28889,0 c 0.11991,-0.19402 0.0499,-0.35277 -0.15557,-0.35277 -0.20548,0 -0.3736,0.15875 -0.3736,0.35277 0,0.19403 0.07,0.35278 0.15557,0.35278 0.0856,0 0.25368,-0.15875 0.3736,-0.35278 z m 3.35139,0 c 0,-0.19402 -0.15875,-0.35277 -0.35278,-0.35277 -0.19403,0 -0.35278,0.15875 -0.35278,0.35277 0,0.19403 0.15875,0.35278 0.35278,0.35278 0.19403,0 0.35278,-0.15875 0.35278,-0.35278 z m 1.23472,0 c 0.11991,-0.19402 0.0499,-0.35277 -0.15557,-0.35277 -0.20548,0 -0.3736,0.15875 -0.3736,0.35277 0,0.19403 0.07,0.35278 0.15557,0.35278 0.0856,0 0.25368,-0.15875 0.3736,-0.35278 z m -22.04861,-1.07915 c 0,-0.3766 -0.15875,-0.68474 -0.35278,-0.68474 -0.19403,0 -0.35278,0.40625 -0.35278,0.90277 0,0.51201 0.1527,0.80839 0.35278,0.68473 0.19403,-0.11991 0.35278,-0.52616 0.35278,-0.90276 z m 2.57157,0.37395 c 0.10143,-0.38786 0.0519,-0.78709 -0.11003,-0.88718 -0.16194,-0.10008 -0.36354,0.17757 -0.448,0.61701 -0.11018,0.57323 -0.16714,0.46914 -0.20161,-0.36836 -0.0593,-1.44038 -0.7536,-1.15824 -0.7536,0.30622 0,0.78091 0.16433,1.03751 0.66441,1.03751 0.36761,0 0.74679,-0.31502 0.84883,-0.7052 z m 93.736756,-0.19756 c 0,-0.30249 -0.15875,-0.45187 -0.35278,-0.33196 -0.19402,0.11992 -0.35277,0.36741 -0.35277,0.54999 0,0.18258 0.15875,0.33196 0.35277,0.33196 0.19403,0 0.35278,-0.2475 0.35278,-0.54999 z m -79.793706,-0.42015 c -0.14226,-0.74643 -1.39165,-0.98251 -2.38532,-0.45072 -1.18757,0.63558 -0.82733,1.06808 0.88962,1.06808 1.34618,0 1.59388,-0.10224 1.4957,-0.61736 z m 6.03376,0.52916 c -0.0808,-0.0485 -0.62324,-0.48507 -1.20533,-0.97014 l -1.05833,-0.88194 0.85524,0.97014 c 0.47039,0.53358 1.01278,0.97014 1.20533,0.97014 0.19254,0 0.28393,-0.0397 0.20309,-0.0882 z m 4.61551,-0.61736 c 0.25601,-0.47836 0.26,-0.70555 0.0124,-0.70555 -0.20085,0 -0.36518,0.15875 -0.36518,0.35277 0,0.19403 -0.3175,0.35278 -0.70556,0.35278 -0.38806,0 -0.70556,0.15875 -0.70556,0.35278 0,0.64178 1.37925,0.36593 1.76389,-0.35278 z m -26.57013,-0.41892 c -0.11261,-0.28142 -0.19621,-0.19783 -0.21313,0.21314 -0.0153,0.37188 0.0681,0.58024 0.18528,0.46302 0.11723,-0.11723 0.12976,-0.4215 0.0279,-0.67616 z m 17.75068,0.61613 c 0,-0.0856 -0.15875,-0.25368 -0.35278,-0.3736 -0.19402,-0.11991 -0.35277,-0.0499 -0.35277,0.15557 0,0.20548 0.15875,0.3736 0.35277,0.3736 0.19403,0 0.35278,-0.07 0.35278,-0.15557 z m 10.23056,0 c 0,-0.0856 -0.15875,-0.25368 -0.35278,-0.3736 -0.19403,-0.11991 -0.35278,-0.0499 -0.35278,0.15557 0,0.20548 0.15875,0.3736 0.35278,0.3736 0.19403,0 0.35278,-0.07 0.35278,-0.15557 z M 137.347,149.16092 c -0.008,-0.5672 -0.0658,-0.5326 -0.29282,0.17639 -0.3863,1.2062 -0.3863,2.13367 0,1.23472 0.16675,-0.38806 0.29852,-1.02306 0.29282,-1.41111 z m -79.667816,0.66781 c 0,-0.0763 -0.32687,-0.13865 -0.72638,-0.13865 -0.3995,0 -0.63255,0.15182 -0.51787,0.33738 0.18825,0.30458 1.24425,0.13592 1.24425,-0.19873 z m -2.11667,-0.13865 c 0,-0.19402 -0.15875,-0.35277 -0.35278,-0.35277 -0.19402,0 -0.35277,0.15875 -0.35277,0.35277 0,0.19403 0.15875,0.35278 0.35277,0.35278 0.19403,0 0.35278,-0.15875 0.35278,-0.35278 z m 82.049336,-3.44047 c -0.3843,-0.38431 -0.53016,0.11821 -0.28633,0.98644 l 0.24336,0.86653 0.12393,-0.82404 c 0.0682,-0.45322 0.0317,-0.91624 -0.081,-1.02893 z m 23.36621,-18.16717 c 0.96043,-1.60073 2.1072,-3.62479 2.54838,-4.49792 0.95901,-1.89798 2.08827,-6.05611 2.09669,-7.72043 0.009,-1.80938 -0.7761,-5.67942 -1.11047,-5.47277 -0.16203,0.10014 -0.29459,-0.13982 -0.29459,-0.53324 0,-0.49089 -0.16602,-0.65159 -0.52917,-0.51224 -0.32622,0.12518 -0.52917,-10e-4 -0.52917,-0.32901 0,-0.65979 -2.22686,-2.01286 -3.31275,-2.01286 -1.20183,0 -1.3644,0.38678 -0.53407,1.27063 0.93125,0.99127 0.61853,1.55159 -0.86594,1.55159 -2.24725,0 -2.66109,1.69131 -0.84349,3.44726 2.69677,2.60529 2.90658,3.12586 1.77156,4.39543 -0.42957,0.48049 -0.4561,0.71909 -0.12439,1.11877 0.34813,0.41947 0.29622,0.47524 -0.2978,0.31989 -0.5408,-0.14142 -0.80652,0.0409 -1.0702,0.73445 -0.19292,0.50742 -0.67199,1.62774 -1.06461,2.48959 -0.39263,0.86186 -0.71386,1.66569 -0.71386,1.78629 0,0.12061 -0.42668,0.77869 -0.94818,1.46242 -0.73099,0.95837 -0.86462,1.37723 -0.58335,1.82854 0.45441,0.72916 3.91407,3.58403 4.34329,3.58403 0.17373,0 1.10169,-1.30969 2.06212,-2.91042 z m -2.40444,-11.45714 c 0,-0.29356 -0.72497,-1.22837 -1.61105,-2.07735 -1.70072,-1.62953 -2.04815,-2.80506 -1.26277,-4.27256 0.22241,-0.41558 0.40531,-1.28197 0.40646,-1.92531 0.001,-0.64335 0.23417,-2.70947 0.51785,-4.59139 0.57285,-3.800304 0.65528,-3.45081 -2.27156,-9.631111 -1.54131,-3.254629 -4.09525,-9.363159 -4.57232,-10.936111 -0.23539,-0.776111 -0.55966,-1.728611 -0.72058,-2.116666 -0.16093,-0.388056 -0.50035,-1.261181 -0.75428,-1.940278 -0.25392,-0.679097 -0.64685,-1.424536 -0.87318,-1.65653 -0.55108,-0.564872 -1.4136,-4.180668 -1.88424,-7.899012 -0.52243,-4.1274 -1.24422,-6.045468 -2.97205,-7.897802 -1.46869,-1.57453 -1.76915,-1.718814 -3.40505,-1.635143 -0.76309,0.03903 -0.64422,0.182252 0.88194,1.062694 0.97014,0.559672 2.02425,1.470995 2.34247,2.025162 1.15065,2.003799 2.3782,7.692924 2.9577,13.707576 0.3178,3.298472 0.7024,6.949722 0.85468,8.113888 0.15227,1.164167 0.61837,4.894792 1.03576,8.290278 1.44735,11.774095 1.91543,14.283025 3.27321,17.544565 1.40722,3.3803 2.31838,4.41833 4.98351,5.67736 2.23722,1.05689 3.0735,1.09981 3.0735,0.15774 z m -0.35277,-8.21022 c 0,-0.19403 -0.15875,-0.35278 -0.35278,-0.35278 -0.19403,0 -0.35278,0.15875 -0.35278,0.35278 0,0.19403 0.15875,0.35278 0.35278,0.35278 0.19403,0 0.35278,-0.15875 0.35278,-0.35278 z m -11.2947,-5.55625 c -0.15597,-0.7276 -0.39336,-2.31991 -0.52754,-3.538457 -0.13418,-1.218547 -0.47064,-2.442221 -0.7477,-2.719271 -0.60331,-0.603317 -1.31167,-2.490865 -2.45075,-6.530467 -1.05449,-3.739585 -1.20267,-9.748901 -0.28272,-11.465278 0.4154,-0.775023 0.55683,-1.940309 0.52834,-4.353045 -0.0214,-1.812091 -0.11152,-3.412187 -0.20026,-3.555769 -0.0887,-0.143582 -0.33337,-1.337926 -0.54363,-2.654097 -0.49124,-3.075032 -1.41659,-4.859169 -3.00687,-5.797456 -2.79717,-1.65037 -4.9581,-0.464076 -5.97101,3.277919 -1.26389,4.669189 0.0232,13.139221 3.40862,22.431059 2.32547,6.38265 3.1555,8.325813 4.09793,9.593517 0.33259,0.447386 0.83866,1.278452 1.12459,1.84682 0.69452,1.380565 3.82448,4.787445 4.39832,4.787445 0.34247,0 0.38554,-0.32995 0.17268,-1.32292 z m 16.09071,-8.250668 c 0.36963,-0.414775 1.94204,-1.779722 3.49426,-3.033215 1.55222,-1.253494 5.10512,-4.44632 7.89533,-7.095166 2.79022,-2.648849 5.22295,-4.77247 5.40609,-4.719155 0.18313,0.05331 0.23835,-0.05616 0.1227,-0.243282 -0.11564,-0.187119 0.44422,-0.945115 1.24414,-1.684435 2.38518,-2.204477 2.92612,-3.905579 2.04539,-6.432045 -0.37257,-1.068767 -0.7459,-1.338541 -2.69073,-1.944395 -1.13685,-0.354149 -1.06035,0.752268 0.0882,1.275578 1.13303,0.516242 1.11667,0.858743 -0.055,1.152828 -1.19698,0.300423 -1.75192,-0.247696 -3.11995,-3.081597 l -1.05833,-2.192365 -2.11667,0.0061 c -1.97429,0.0057 -4.63111,0.962069 -7.23194,2.603382 -0.29104,0.183668 -3.15368,1.606033 -6.36142,3.16081 -5.99833,2.907357 -7.74969,3.992038 -7.74969,4.799649 0,0.255494 0.6484,1.77759 1.44089,3.382437 l 1.44089,2.917904 1.31837,-1.530731 1.31836,-1.530732 0.79108,0.791088 c 0.69691,0.696904 0.76297,1.016204 0.55485,2.681922 l -0.23624,1.890835 1.31373,0.362741 c 1.31246,0.362387 2.6414,1.299375 2.6414,1.862359 0,0.682647 -1.48316,1.709212 -2.46944,1.709212 -1.29521,0 -1.39638,0.782952 -0.35278,2.730084 0.38806,0.724027 0.70556,1.570119 0.70556,1.8802 0,1.207971 0.68816,1.326846 1.62101,0.280021 z m -47.48212,74.222158 c 0,-0.26145 1.50779,-3.93268 3.15213,-7.67496 0.96954,-2.20652 1.38455,-3.81708 1.61355,-6.2618 0.22025,-2.35127 0.34907,-2.73403 0.92021,-2.73403 1.55933,0 0.34925,7.83287 -1.67857,10.86538 -0.35038,0.52397 -1.19692,2.05785 -1.88121,3.40862 -1.0981,2.16761 -2.12611,3.3265 -2.12611,2.39679 z m 34.39583,-24.43191 c -0.11992,-0.19403 -0.0629,-0.35278 0.12672,-0.35278 0.1896,0 0.63554,-0.11017 0.99095,-0.24484 0.60528,-0.22933 0.60871,-0.20699 0.0541,0.35278 -0.68503,0.69134 -0.87167,0.73034 -1.17173,0.24484 z M 37.822834,142.20615 c -0.32126,-1.0046 -0.52555,-1.8851 -0.45399,-1.95666 0.0716,-0.0716 0.40059,0.6842 0.73117,1.67948 0.33058,0.99528 0.53487,1.87577 0.45399,1.95666 -0.0809,0.0809 -0.40991,-0.67488 -0.73117,-1.67948 z m 2.28759,0.21051 c -0.25248,-0.27313 -0.35491,-0.6651 -0.22763,-0.87104 0.12728,-0.20594 -0.10002,-0.72724 -0.50512,-1.15845 -0.73119,-0.77831 -0.73165,-0.79313 -0.0637,-2.03943 0.47542,-0.88702 0.61771,-1.66662 0.48492,-2.65669 -0.13631,-1.01623 0.0184,-1.80575 0.56305,-2.87334 0.41304,-0.80964 0.83037,-1.47207 0.92738,-1.47207 0.097,0 -0.159,0.65741 -0.56892,1.46093 -0.57808,1.13312 -0.69365,1.80544 -0.51506,2.99635 0.17186,1.14604 0.0735,1.80076 -0.38781,2.58172 -0.58082,0.98325 -0.5821,1.08602 -0.0213,1.70572 0.32823,0.3627 0.59678,0.89301 0.59678,1.17847 0,0.28546 0.17258,0.69161 0.38351,0.90254 0.21094,0.21094 0.25063,0.46415 0.0882,0.5627 -0.16243,0.0985 -0.50189,-0.0443 -0.75436,-0.31741 z m -3.16328,-3.66269 c 0,-0.6791 0.0726,-0.95691 0.16133,-0.61736 0.0887,0.33955 0.0887,0.89517 0,1.23472 -0.0887,0.33955 -0.16133,0.0617 -0.16133,-0.61736 z m 115.452866,-4.93889 c -0.11991,-0.19403 -0.0499,-0.35278 0.15557,-0.35278 0.20548,0 0.3736,0.15875 0.3736,0.35278 0,0.19403 -0.07,0.35278 -0.15557,0.35278 -0.0856,0 -0.25368,-0.15875 -0.3736,-0.35278 z M 37.951474,132.55096 c 0.0169,-0.41097 0.10053,-0.49456 0.21314,-0.21314 0.10191,0.25466 0.0894,0.55893 -0.0279,0.67616 -0.11723,0.11723 -0.2006,-0.0911 -0.18529,-0.46302 z m 1.1902,-3.49838 c 0.11138,-0.58208 0.0489,-1.58771 -0.13892,-2.23472 -0.1878,-0.64702 -0.23977,-2.23452 -0.1155,-3.52778 0.16097,-1.67519 0.29052,-2.09776 0.45047,-1.46944 0.12349,0.48506 0.0797,1.4225 -0.0973,2.08319 -0.21159,0.78977 -0.19014,1.4903 0.0626,2.04507 0.48492,1.06429 0.48744,2.94042 0.005,3.63285 -0.27867,0.39987 -0.3193,0.27057 -0.16626,-0.52917 z m 2.26473,-3.61597 c -0.43881,-0.55953 -0.42633,-0.57201 0.1332,-0.1332 0.33954,0.2663 0.61736,0.54411 0.61736,0.61736 0,0.29035 -0.2897,0.10348 -0.75056,-0.48416 z m 0.34184,-6.36318 c -0.12778,-1.21993 -0.44528,-2.47505 -0.70555,-2.78918 -0.51943,-0.62689 -0.68772,-5.81542 -0.17846,-5.50212 0.16212,0.0997 0.24773,1.07639 0.19024,2.17034 -0.0678,1.28938 0.116,2.55584 0.5224,3.60052 0.36686,0.94301 0.58063,2.2601 0.51531,3.175 -0.1059,1.48353 -0.12349,1.45006 -0.34394,-0.65456 z m -3.41019,0.44857 c -0.24246,-0.53215 -0.36839,-1.04 -0.27983,-1.12855 0.2395,-0.23951 0.98952,1.28956 0.84508,1.72287 -0.0684,0.20527 -0.32279,-0.0622 -0.56525,-0.59432 z m -1.25279,-3.18306 c -0.34042,-0.88713 -0.24,-1.11603 0.17587,-0.40087 0.20592,0.3541 0.30007,0.71813 0.20925,0.80896 -0.0908,0.0908 -0.26414,-0.0928 -0.38512,-0.40809 z m 2.63525,-6.95513 c -0.18674,-0.49115 -0.23593,-1.26723 -0.10931,-1.72462 0.18876,-0.68187 0.2718,-0.54575 0.46116,0.75589 0.2691,1.84981 0.12939,2.23448 -0.35185,0.96873 z m 0.32518,-3.68194 c -0.003,-0.42511 0.15335,-0.87104 0.34738,-0.99096 0.44915,-0.27759 0.44915,0.53971 0,1.23473 -0.27802,0.4302 -0.34299,0.38461 -0.34738,-0.24377 z m 0.72801,-2.78424 c 0.0169,-0.41097 0.10052,-0.49456 0.21313,-0.21314 0.10191,0.25466 0.0894,0.55893 -0.0279,0.67616 -0.11722,0.11722 -0.2006,-0.0911 -0.18528,-0.46302 z m 0.35277,-1.41111 c 0.0169,-0.41097 0.10053,-0.49456 0.21314,-0.21314 0.10191,0.25466 0.0894,0.55893 -0.0279,0.67616 -0.11723,0.11722 -0.2006,-0.0911 -0.18529,-0.46302 z m -3.04096,-0.52324 c -0.1279,-0.20694 -0.15688,-0.45191 -0.0644,-0.54439 0.0925,-0.0925 0.26213,0.0768 0.37703,0.37625 0.23854,0.62164 0.0352,0.73098 -0.31263,0.16814 z m -1.39135,-1.641218 -0.61948,-0.981149 0.81668,0.78395 c 0.44917,0.431172 0.72794,0.872687 0.61948,0.981147 -0.10846,0.10846 -0.47597,-0.244318 -0.81668,-0.783948 z m 4.43231,-1.363324 c 0.0169,-0.410968 0.10053,-0.494559 0.21314,-0.213138 0.10191,0.25466 0.0894,0.558931 -0.0279,0.676159 -0.11723,0.117224 -0.2006,-0.09114 -0.18529,-0.463021 z m -5.29166,-0.352778 c 0.0169,-0.410968 0.10052,-0.494559 0.21313,-0.213138 0.10191,0.25466 0.0894,0.558931 -0.0279,0.676159 -0.11722,0.117225 -0.2006,-0.09114 -0.18528,-0.463021 z m 4.72787,-1.266934 c -0.13617,-0.451185 -0.78566,-2.058338 -1.44332,-3.571452 -1.40205,-3.225789 -1.53961,-3.997558 -0.26419,-1.482217 1.04022,2.051505 2.31105,5.518055 2.10019,5.728914 -0.0798,0.0798 -0.25651,-0.22406 -0.39268,-0.675245 z m -4.40295,-0.591499 c 0,-0.575755 -0.45164,-1.594005 -1.05619,-2.38125 -1.87883,-2.446577 -2.75086,-3.826185 -2.98773,-4.726753 -0.12759,-0.485069 0.24704,-0.0356 0.83251,0.99882 0.58546,1.034422 1.62691,2.503318 2.31433,3.264214 0.9293,1.028622 1.24986,1.699859 1.24986,2.617149 0,0.678539 -0.0794,1.233706 -0.17639,1.233706 -0.097,0 -0.17639,-0.452649 -0.17639,-1.005886 z m 0.78115,-8.749658 c -0.21756,-0.708886 -0.25543,-1.145448 -0.0841,-0.970139 0.34521,0.353335 0.88103,2.259016 0.63516,2.259016 -0.0855,0 -0.33345,-0.579995 -0.55101,-1.288877 z m -2.0765,-4.884734 c 0.002,-1.358194 0.0653,-1.870591 0.1417,-1.138659 0.0764,0.731931 0.0751,1.843181 -0.003,2.469443 -0.0779,0.626265 -0.14041,0.02741 -0.13885,-1.330784 z m -3.78884,0.11273 c -0.1494,-0.520082 -0.18602,-1.472583 -0.0814,-2.116668 0.10465,-0.644084 0.34304,-2.123562 0.52975,-3.287728 0.18671,-1.164167 0.45536,-2.434167 0.597,-2.822223 0.60981,-1.670706 2.24959,-4.995235 2.78404,-5.644444 0.45331,-0.550634 0.43201,-0.395713 -0.097,0.705555 -2.30287,4.794007 -2.78809,6.461876 -3.18156,10.936111 -0.21022,2.390423 -0.34635,2.941331 -0.55087,2.229397 z m 4.40884,-4.169674 c 0.0107,-0.291042 0.15582,-0.846667 0.32258,-1.234722 l 0.30318,-0.705556 0.0194,0.705556 c 0.0107,0.388055 -0.1345,0.94368 -0.32258,1.234722 -0.30398,0.47037 -0.33982,0.47037 -0.32258,0 z m 1.88541,-5.820834 c 0.13804,-0.582083 0.40281,-1.213459 0.58838,-1.403058 0.18557,-0.189599 0.15077,0.207276 -0.0773,0.881944 -0.53408,1.579645 -0.83479,1.886282 -0.51105,0.521114 z m 1.86205,-4.321527 c 0.12526,-0.339549 0.59652,-1.209519 1.04726,-1.933268 0.45074,-0.723748 0.81952,-1.393452 0.81952,-1.48823 0,-0.09478 0.65162,-1.121862 1.44805,-2.282408 1.13459,-1.65331 1.46817,-2.483066 1.54102,-3.833096 0.0858,-1.590769 1.096,-3.86983 1.52507,-3.440754 0.10189,0.10188 -0.0784,0.476522 -0.40056,0.832538 -0.36215,0.400169 -0.5858,1.249922 -0.5858,2.225714 0,1.305618 -0.33916,2.118602 -1.96243,4.704008 -1.07934,1.719078 -2.27319,3.73473 -2.653,4.479227 -0.70815,1.388085 -1.18624,1.839875 -0.77913,0.736269 z m -0.79327,-5.203472 c 1.61223,-4.276216 1.96006,-5.621151 1.76292,-6.816431 -0.15967,-0.968085 -0.11911,-1.163124 0.15978,-0.768291 0.20557,0.291041 0.3762,0.956268 0.37917,1.47828 0.006,1.080683 -1.64422,5.925366 -2.20037,6.459219 -0.2527,0.242575 -0.28441,0.132371 -0.1015,-0.352777 z"
       style="fill:#FF0066;stroke-width:0.35277778" />
  </g>
</svg>
