<?xml version="1.0" encoding="UTF-8" standalone="no"?>
<svg xmlns:rdf="http://www.w3.org/1999/02/22-rdf-syntax-ns#" xmlns="http://www.w3.org/2000/svg" height="1625" viewBox="0 0 2696 1625" width="2696" version="1.1" xmlns:cc="http://creativecommons.org/ns#" xmlns:dc="http://purl.org/dc/elements/1.1/">
<g>
<path d="m1061.5 1623.9c-3.0213-4.8885 12.097-35.518 25.879-52.429 11.286-13.848 42.247-46.122 50.665-52.813 3.575-2.8413 10.477-8.5458 15.338-12.677 4.8612-4.1309 11.084-9.1737 13.829-11.206 2.7445-2.0326 7.3172-5.6523 10.161-8.0438 4.6564-3.9152 10.422-8.1695 20.672-15.253 19.569-13.524 37.824-18.846 43.531-12.691 4.3303 4.67 2.3861 8.1829-4.5288 8.1829-1.721 0-7.4881 1.7562-12.816 3.9026-5.3276 2.1465-11.937 4.6319-14.687 5.5231-3.332 1.0798-7.5021 3.811-12.5 8.1867-4.125 3.6115-8.7105 7.1987-10.19 7.9716-4.3809 2.2886-15.866 10.993-22.31 16.908-3.3 3.0292-7.575 6.952-9.5 8.7172s-5.525 4.5932-8 6.2844c-5.5898 3.8196-24.579 22.791-26.467 26.442-0.7666 1.4824-3.2251 3.9645-5.4634 5.5156s-4.0696 3.2074-4.0696 3.6807-4.6683 5.6996-10.374 11.614c-15.773 16.35-30.609 38.388-30.63 45.5-0.014 4.591-6.6322 9.77-8.5402 6.6828zm-54.762-5.7147c-3.9072-4.3174-8.867-27.359-7.9479-36.924 0.53659-5.5844 0.26438-5.999-7.4292-11.316-7.3969-5.1117-12.227-18.11-12.299-33.099-0.01-2.0257-1.7814-7.5977-4.0175-12.635-2.2-4.9564-4-10.159-4-11.561 0-1.4023-0.41559-3.6427-0.92352-4.9787-0.50794-1.3359-1.2101-7.9771-1.5603-14.758-0.35023-6.781-0.80607-12.603-1.013-12.938-0.2069-0.3348 0.0668-5.39 0.60824-11.234 0.95062-10.26 0.90072-10.791-1.453-15.448-1.3406-2.6528-4.7999-10.13-7.6874-16.616-2.8875-6.4859-6.0218-12.786-6.9651-14-0.94332-1.2142-2.2913-4.0076-2.9954-6.2076-0.70417-2.2-2.397-5.929-3.7619-8.2866l-2.4816-4.2865-31.634 0.5465c-17.398 0.3006-35.234 0.7834-39.634 1.0728-10.343 0.6804-29.009 1.4242-48.5 1.9326-26.211 0.6836-63.024 2.4349-73.062 3.4757-5.2484 0.5443-13.569 0.9769-18.49 0.9615-13.197-0.041-49.808 0.9335-58.448 1.5564-4.125 0.2973-18.3 1.0018-31.5 1.5654-13.2 0.5637-29.4 1.2698-36 1.5693-6.6 0.2994-16.05 0.6758-21 0.8364s-15.75 0.5774-24 0.9263-26.98 1.1037-41.623 1.6775c-36.547 1.4321-57.661 2.5657-75.607 4.0594-17.001 1.4151-16.096 1.6377-17.408-4.2788-0.52817-2.3804-2.077-6.0265-3.4418-8.1027-1.3648-2.0761-2.9012-5.9879-3.4142-8.6929-0.51299-2.705-2.0226-7.5313-3.3548-10.725-1.3321-3.1939-2.7457-7.3821-3.1412-9.3071-3.6604-17.814-8.1682-25.513-16.376-27.97-11.376-3.4048-30.328-19.652-44.361-38.03-6.202-8.1223-20.031-35.026-27.757-54-1.2317-3.025-2.9138-7.075-3.7379-9-0.82412-1.925-2.8506-7.325-4.5034-12s-4.454-11.425-6.2249-15-4.7257-10.289-6.5662-14.921c-1.9831-4.9903-5.0038-10.34-7.4151-13.133-2.2378-2.5916-6.3188-7.5478-9.0688-11.014-7.6201-9.6039-15.394-17.986-20.967-22.606-2.7682-2.295-7.2204-6.7101-9.8937-9.8113-4.3309-5.0241-6.5648-6.4734-20.5-13.3-8.6017-4.2137-17.042-9.0236-18.756-10.689-3.1702-3.0791-9.5177-8.0865-17.072-13.468-7.6487-5.4482-25.476-35.737-30.936-52.56-0.89248-2.75-2.4466-6.575-3.4535-8.5-1.007-1.925-3.0113-6.875-4.454-11-1.4428-4.125-4.4139-12.45-6.6024-18.5-2.1886-6.05-5.4894-16.668-7.3352-23.595-1.8458-6.9274-5.2187-18.627-7.4953-26-8.6-27.87-11.89-101.92-4.53-101.92 1.9659 0 2.7318 2.0729 6.552 17.733 1.7129 7.0218 4.0055 15.692 5.0948 19.267 1.8765 6.1592 6.5108 23.2 8.9746 33 0.6222 2.475 2.3717 8.775 3.8878 14s3.2964 12.407 3.9561 15.959c0.65974 3.5524 1.7681 7.6024 2.463 9 0.69492 1.3976 2.2605 6.3661 3.4791 11.041 1.2186 4.675 3.0794 11.425 4.135 15 1.0557 3.575 2.4101 8.525 3.0098 11 12.824 52.923 29.878 79.535 61.558 96.058 5.392 2.8122 11.13 6.2289 12.75 7.5926 1.6208 1.3638 6.0076 4.021 9.7486 5.9049 3.7409 1.8839 9.0303 5.4047 11.754 7.8238 2.7239 2.4192 6.9701 5.7867 9.4361 7.4834 8.4035 5.7817 31.764 37.952 37.107 51.1 1.4367 3.5356 3.4455 7.3529 4.464 8.4829 3.0513 3.3849 8.6394 13.667 10.903 20.061 8.0779 22.819 10.678 29.508 13.853 35.648 0.75513 1.4599 1.3757 3.2599 1.3791 4 0.003 0.7401 0.72197 2.6957 1.5969 4.3457 0.87488 1.65 2.8513 6.2458 4.3921 10.213 1.5408 3.9671 3.7472 8.4153 4.9032 9.8848 1.156 1.4696 2.1018 3.2053 2.1018 3.8572 0 0.6518 1.4873 2.9536 3.3051 5.1151s4.381 5.4734 5.6961 7.3598c4.6571 6.6803 21.676 20.07 25.51 20.07 1.2307 0 4.0762 0.6487 6.3235 1.4416s8.7163 1.8725 14.376 2.3992c7.0806 0.659 12.395 1.802 17.041 3.6651 3.713 1.4891 7.4254 2.4486 8.25 2.1322 3.8545-1.4791-0.83837-9.243-4.991-8.2572-1.1054 0.2624-7.4098-0.6358-14.01-1.9959-6.6-1.3602-13.651-2.6745-15.67-2.9208-10.267-1.2528-23.184-7.3739-26.342-12.482-0.36124-0.5845-2.4405-2.1887-4.6205-3.5649s-4.2494-3.2705-4.5987-4.2095c-0.34923-0.939-1.9469-3.356-3.5503-5.3711-4.72-5.9-13.72-23.4-13.72-26.7 0-0.932-0.61256-2.5822-1.3612-3.6671-1.3935-2.0192-9.0424-20.392-11.854-28.472-1.4882-4.2775-3.299-8.8892-7.4604-19-1.0187-2.475-3.1361-6.487-4.7054-8.9155s-5.7277-10.304-9.2409-17.5c-3.5132-7.1965-7.6231-14.934-9.133-17.194-2.85-4.2662-6.1726-9.2819-11.916-17.988-3.7302-5.6545-16.959-19.126-22.355-22.766-5.3818-3.6301-26.138-15.655-39.974-23.159-18.631-10.104-27.206-17.126-33-27.021-1.375-2.3485-3.9619-6.6745-5.7488-9.6135-1.7868-2.939-4.396-9.1686-5.7982-13.844-1.4022-4.675-4.5358-14.8-6.9637-22.5s-6.2035-20.525-8.3904-28.5c-2.1868-7.975-8.0537-29.012-13.038-46.75-4.9838-17.737-9.0615-33.037-9.0616-34-0.00007-0.96267-1.1546-5.3503-2.5655-9.7503-1.411-4.4-3.3698-10.925-4.3531-14.5-7.6578-27.844-7.2504-25.514-6.9054-39.489l0.33-13.09 5.8338-11.939c3.2086-6.5666 7.4781-13.946 9.4877-16.398 3.342-4.0784 6.0182-9.397 9.6703-19.218 7.7949-20.961 9.5343-59.57 3.8666-85.825-6.3404-29.371-6.6012-40.061-1.3336-54.674 1.155-3.2042 2.3517-6.9509 2.6593-8.3259 0.30756-1.375 2.1507-4.167 4.096-6.2044l3.5368-3.7044-3.3188-10.296c-7.0731-21.943-8.8237-27.566-10.989-35.296-1.2323-4.4-3.0649-10.475-4.0723-13.5s-4.3676-13.6-7.4672-23.5c-3.0995-9.9-6.693-21.15-7.9854-25-4.2492-12.658-8.2897-25.863-10.557-34.5-1.227-4.675-3.2051-10.75-4.3957-13.5s-2.746-7.25-3.4564-10c-0.71039-2.75-2.106-7.25-3.1013-10-0.99531-2.75-2.5672-7.925-3.4931-11.5-0.92592-3.575-3.4384-11.9-5.5833-18.5s-6.211-19.875-9.0358-29.5-5.7081-18.85-6.4073-20.5c-0.69923-1.65-2.9314-8.4-4.9604-15-5.589-18.17-12.847-40.84-20.016-62.5-3.55-10.72-7.316-22.65-8.371-26.5-1.0547-3.85-2.3782-8.35-2.9411-10-0.56288-1.65-2.9179-9.075-5.2335-16.5-2.3155-7.425-6.124-19.35-8.4633-26.5-8.2645-25.261-16.443-51.085-18.368-58-1.0719-3.85-3.0363-9.9539-4.3653-13.564-1.329-3.6103-3.8981-11.935-5.709-18.5-3.533-12.81-7.965-26.46-15.992-49.243-5.3786-15.268-5.8326-18.411-3.5678-24.697 0.79258-2.2 1.4608-6.1517 1.4849-8.7815 0.024141-2.6298 0.88924-7.3548 1.9224-10.5 2.1659-6.593 3.1679-12.243 3.674-20.718 0.4677-7.831 9.4285-13.795 14.706-9.788 0.769 0.584 16.295 0.648 40.742 0.171 21.725-0.42467 65.15-1.2669 96.5-1.8717 31.35-0.60479 71.85-1.5314 90-2.0592 18.15-0.52778 52.575-1.1703 76.5-1.4278s53.85-0.70616 66.5-0.99703 57.425-0.74951 99.5-1.0192c146.57-0.93946 219.71-1.523 252-2.0102 118.07-1.7818 155.54-2.144 300.5-2.9052 147.63-0.77517 260.97-1.5833 294-2.0962 15.4-0.23915 66.475-0.67283 113.5-0.96374 118.1-0.73059 296.55-2.0742 416-3.1321 29.975-0.26548 77.45-0.63813 105.5-0.82811s53.305-0.67177 56.122-1.0706c13.709-1.9409 30.37 4.8969 30.381 12.469 0 1.3915 0.9112 4.0183 2.0203 5.8374s5.6328 10.594 10.053 19.5c4.4199 8.9059 8.7661 17.543 9.6582 19.193 0.892 1.65 17.683 34.95 37.313 74 48.166 95.816 61.872 122.72 63.415 124.5 0.717 0.825 4.8826 8.7 9.2568 17.5 4.3743 8.8 10.844 21.625 14.377 28.5 3.5331 6.875 7.5817 14.975 8.997 18 2.5252 5.3972 15.498 31.599 18.567 37.5 0.858 1.65 4.8709 8.9091 8.9174 16.131 4.0466 7.2222 8.3074 15.547 9.4686 18.5 1.1612 2.9528 2.698 6.0437 3.4151 6.8687s7.2034 13.425 14.414 28c11.072 22.38 16.078 32.215 29.521 58 1.7056 3.2714 4.5272 8.8735 11.836 23.5 3.2981 6.6 7.1136 13.49 8.4789 15.311 1.3654 1.8211 2.9396 4.9668 3.4983 6.9904 0.5588 2.0236 2.0899 4.9557 3.4026 6.5157 1.3126 1.56 2.3963 3.3643 2.4083 4.0096s3.8815 8.8233 8.5991 18.173c4.7176 9.35 10.122 20.15 12.009 24 1.8875 3.85 4.9635 9.925 6.8356 13.5 1.8722 3.575 6.3863 12.575 10.032 20 3.6451 7.425 7.3546 14.85 8.2433 16.5 5.3637 9.9584 18.749 35.474 19.935 38 0.7744 1.65 2.1327 4.35 3.0185 6 2.1323 3.9722 30.524 60.026 55.969 110.5 11.229 22.275 23.077 46.575 26.329 54 3.2514 7.425 7.9963 17.55 10.544 22.5 2.5478 4.95 8.4224 16.65 13.055 26 4.6322 9.35 9.3795 18.8 10.549 21 1.1699 2.2 7.7476 15.25 14.617 29s15.472 30.843 19.117 37.985c13.36 26.178 22.85 45.024 32.376 64.294 5.3621 10.847 10.928 21.972 12.37 24.722 1.4413 2.75 6.6331 13.1 11.537 23 4.9042 9.9 9.4561 18.9 10.115 20 0.6593 1.1 10.846 21.125 22.638 44.5 25.872 51.289 52.584 104.02 55.466 109.5 2.9235 5.5558 2.8411 12.096-0.1832 14.545-1.269 1.0276-3.374 4.5902-4.6777 7.917-1.3038 3.3267-3.7789 8.6337-5.5004 11.793-1.7214 3.1596-4.0274 8.4447-5.1243 11.745-1.0969 3.3-3.0542 8.925-4.3496 12.5s-2.6215 7.7017-2.947 9.1703c-0.7611 3.4348-1.7288 3.6259-24.594 4.8581-10.175 0.5484-26.273 1.4211-35.773 1.9394s-17.69 1.2004-18.201 1.5158c-0.5102 0.3154-11.412 0.6172-24.227 0.6708l-23.299 0.098-4.25-2.8036c-4.8144-3.1759-5.2225-4.183-2-4.9358 3.5137-0.8209 26.137-2.2854 37.75-2.4438 5.775-0.079 13.2-0.5573 16.5-1.0635s14.1-0.9367 24-0.9567 19.8-0.4783 22-1.0186c2.2-0.5402 6.25-1.0275 9-1.0829 12.329-0.2483 16.381-4.943 24.552-28.447 1.5296-4.4 3.5244-9.7467 4.4329-11.882 2.9339-6.8951-0.4517-7.1785-55.485-4.6452-14.575 0.6709-32.575 1.3777-40 1.5708-20.08 0.5221-40.103 1.4575-43.5 2.0323-1.65 0.2791-5.925 0.4335-9.5 0.343-7.723-0.1956-8.5946-0.1701-21.5 0.6275-11.494 0.7105-12.613 1.2989-10.21 5.3673 2.0911 3.5399 2.1857 5.966 0.2616 6.7044-1.4852 0.5699-7.5518-2.4672-7.5518-3.7807 0-0.402-2.3625-2.2758-5.25-4.164-4.9266-3.2217-8.4371-4.65-15-6.103-3.6569-0.8097-3.5064-3.1695 0.25-3.9208 4.379-0.8758 3.7685-2.1178-3.75-7.6281-3.7125-2.7209-8.2414-7.153-10.064-9.8491-3.3364-4.935-11.654-12.761-16.061-15.111-4.8085-2.5642-11.724-8.3755-15.321-12.874-5.4951-6.8727-10.408-10.188-15.097-10.188-4.1643 0-3.8999 0.1853-14.934-10.469-3.1503-3.0418-6.4224-5.5306-7.2715-5.5306-0.849 0-2.079-1.2375-2.7333-2.75s-2.2197-4.022-3.4786-5.5767-2.2889-3.3975-2.2889-4.095c0-3.8017-44.807-25.716-63-30.812-1.925-0.5392-6.1337-2.2823-9.3526-3.8735-3.219-1.5913-6.6119-2.8932-7.5399-2.8932s-4.3693-0.7219-7.6474-1.6042c-3.2781-0.8822-7.8373-1.5549-10.132-1.4948-2.2943 0.06-5.4443-0.3866-7-0.9926s-4.8535-1.6963-7.3285-2.4229c-2.475-0.7265-7.1574-2.258-10.405-3.4032-4.7805-1.6857-8.2972-2.0823-18.463-2.0823h-12.558l-16.372-8.1176c-15.554-7.7123-16.614-8.0855-21.223-7.4741-4.487 0.5952-5.1302 0.3976-8.5684-2.6324-2.0445-1.8017-5.1772-4.1759-6.9617-5.2759-1.7844-1.1-5.5139-3.8-8.2878-6-7.6002-6.0278-10.385-7.901-13.378-9-1.4982-0.55-3.7606-2.5643-5.0277-4.4762-1.267-1.9119-3.868-4.4717-5.7799-5.6884-6.3639-4.0499-13.115-8.7998-17.081-12.017-9.6544-7.8332-18.208-12.599-28.684-15.983l-10.711-3.4599-29 0.073c-16.907 0.043-31.71-0.387-35.5-1.03-12.644-2.1452-17.603-2.8585-26.935-3.8742-9.1726-0.9984-16.674-3.723-21.189-7.6962-0.8932-0.786-5.1682-2.6888-9.5-4.2286-8.0588-2.8644-35.744-16.688-42.896-21.418-2.1887-1.4477-5.5545-3.1688-7.4795-3.8247s-5.5115-2.561-7.97-4.2334c-5.2783-3.5907-31.676-15.882-41.005-19.093-12.186-4.1942-16.313-4.8228-43.025-6.5522-41.619-2.6946-52.7-4.7911-55.767-10.55-1.7858-3.354-0.076-4.7665 4.8978-4.046 13.017 1.8856 18.181 1.8939 19.543 0.0314 5.1448-7.036-11.654-8.646-25.674-2.4606-18.58 8.197-44.141 33.598-50.509 50.192-2.3284 6.0677 19.623 10.912 39.754 8.7733 5.3598-0.5695 11.885-0.9791 14.5-0.9103 2.6151 0.069 7.0709-0.191 9.9016-0.5774 8.7406-1.1931 9.8286 7.5957 1.1108 8.9727-31.859 5.0321-53.218 3.7734-66.327-3.9087-6.5658-3.8478-12.019 0.7308-16.342 13.72-1.2067 3.626-4.4106 9.4447-7.5837 13.773-3.0219 4.122-6.4023 9.457-7.5119 11.856-1.8404 3.9781-6.2227 9.1407-16.138 19.011-2.0044 1.9953-4.9451 5.7551-6.5349 8.3551-1.5899 2.6-5.2854 7.2136-8.2122 10.252-3.7541 3.8978-7.2047 9.2335-11.714 18.114-3.516 6.9238-7.2748 13.71-8.353 15.081-13.686 17.399-11.877 71.804 3.1621 95.091 1.8131 2.8074 5.0965 8.103 7.2965 11.768 4.3481 7.2439 15.243 18.072 21.851 21.717 3.4254 1.8895 4.149 2.8085 4.149 5.2692 0 3.7667-3.2414 4.5109-7.2483 1.6642-1.5134-1.0752-4.352-2.622-6.3079-3.4373-8.9087-3.7136-33.944-34.55-33.944-41.809 0-0.8454-0.4731-2.0101-1.0513-2.5883-1.7563-1.7563-3.9221-11.488-3.9725-17.849-0.026-3.3-0.6994-8.7-1.4962-12-5.5732-23.081-0.05-50.385 15.136-74.823 11.334-18.239 16.968-25.888 28.935-39.284 9.8417-11.016 13.711-16.07 16.968-22.158 1.5488-2.8961 4.3057-7.006 6.1265-9.1331 1.8208-2.1272 4.505-7.0903 5.9651-11.029 1.46-3.939 5.1374-10.854 8.172-15.367 3.0346-4.5128 6.8462-10.782 8.4701-13.931 1.624-3.1491 4.6425-7.6491 6.7078-10 2.0654-2.3508 4.1037-5.3786 4.5297-6.7285 3.2927-10.434 38.679-35.99 56.129-40.535 3.1262-0.81428 5.9266-1.7231 6.2231-2.0196 2.101-2.101-11.378-6.9542-22.254-8.0127-3.8016-0.37001-9.4266-1.3685-12.5-2.2189-3.5657-0.98667-8.4828-1.4278-13.588-1.2189-20.356 0.83293-30.552 0.49596-31.501-1.041-1.7318-2.8045 1.51-4.3914 10.25-5.0176 8.6985-0.62326 8.7126-1.4596 0.04-2.3462-8.2453-0.84295-13.076-2.6966-17.751-6.8122-2.3894-2.1032-5.0259-3.824-5.8591-3.824-4.3765 0-6.786-4.9772-3.0951-6.3935 3.9275-1.5072 0.4323-3.1262-7.8301-3.627-6.0028-0.36383-9.1402-1.0179-10.421-2.1725-2.3926-2.1571-21.812-0.79088-30.832 2.1691-3.3 1.0829-8.475 2.6283-11.5 3.4343-19.117 5.0935-44.801 22.349-48.055 32.285-0.6854 2.0926-2.8659 5.6327-4.8457 7.8669-15.763 17.788-28.615 32.649-34.1 39.427-3.575 4.4185-7.5595 9.266-8.8544 10.772-1.2949 1.5061-3.443 4.8819-4.7736 7.5017-1.3305 2.6198-3.7004 5.9049-5.2663 7.3001-1.5659 1.3953-3.6313 4.4268-4.5896 6.7367-4.4128 10.636-8.829 20.584-10.966 24.7-5.0513 9.7311-9.9241 39.476-9.6654 59 0.2858 21.577 1.7904 28.384 9.0633 41 1.8052 3.1315 5.9138 13.734 7.5311 19.434 2.2399 7.8949 8.6539 20.456 12.034 23.566 1.4942 1.375 4.8667 5.6704 7.4943 9.5454 2.8722 4.2355 7.1137 8.8101 10.635 11.47 3.2217 2.4337 7.4133 5.7439 9.3147 7.3558 1.9014 1.612 6.6264 4.427 10.5 6.2556s8.6179 4.2103 10.543 5.2927c17.605 9.8983 21.857 10.246 17.874 1.4623-8.7947-19.396 1.5612-14.623 14.358 6.6178 0.8284 1.375 4.4274 5.65 7.9978 9.5 3.5705 3.85 7.8779 9.7 9.5721 13 3.7919 7.3859 27.715 30.612 35.076 34.055 2.5426 1.189 5.48 3.1256 6.5278 4.3036 2.359 2.6522 5.1347 2.919 4.0755 0.3917-0.4033-0.9625-1.4863-4.0973-2.4064-6.9661-0.9202-2.8689-1.9883-5.5314-2.3736-5.9167-1.8599-1.86-0.4565-4.2477 3.4047-5.7926 5.9856-2.395 7.3689-1.4824 11.727 7.7366 2.1292 4.5039 4.9717 9.3511 6.3167 10.772 1.5124 1.5974 3.3184 5.794 4.7336 11 1.2682 4.6649 3.2916 9.5317 4.5391 10.917 1.238 1.375 4.5535 5.65 7.3678 9.5 6.3774 8.7243 24.176 23.5 28.308 23.5 0.6258 0 2.7586 1.423 4.7395 3.1623 1.981 1.7393 6.5404 4.4921 10.132 6.1174s7.7248 3.8022 9.1847 4.8377c1.4599 1.0354 4.1599 1.8893 6 1.8974 3.6737 0.016 15.18 2.4731 18.346 3.9172 1.1 0.5018 3.2641 1.1877 4.8091 1.5241s4.7453 2.3964 7.1118 4.5778c2.3665 2.1813 4.7894 3.9661 5.3842 3.9661s1.6695 0.833 2.3882 1.8511 2.8817 2.6627 4.8067 3.6548c1.925 0.992 4.85 3.0416 6.5 4.5545 9.0842 8.3297 15.493 13.395 19.5 15.412 14.942 7.5208 18.224 11.634 9.8377 12.333-5.403 0.4502-14.465-4.1765-37.42-19.105-18.383-11.955-24.559-15.476-29.174-16.632-2.6092-0.6533-7.2191-1.8154-10.244-2.5824-3.025-0.767-6.85-1.6768-8.5-2.0218-4.0429-0.8454-26.868-14.084-38-22.04-4.95-3.5377-11.05-7.7652-13.555-9.3944-6.398-4.1605-10.333-9.3401-18.947-24.942l-7.5025-13.588-5.4975 0.3104c-6.6593 0.3761-8.7239-0.6034-31.498-14.942-6.2299-3.9224-12.2-10.238-16.499-17.454-11.767-19.751-16.12-23.516-35-30.27-19.362-6.9262-43.628-18.193-48.056-22.311-1.4057-1.3076-4.7807-4.0113-7.5-6.0081-10.482-7.6975-19.751-18.896-28.582-34.532-6.7692-11.986-8.7083-17.684-14.393-42.293-3.7867-16.394-7.362-22.448-17.561-29.738-4.4333-3.1689-12.639-9.0351-18.235-13.036-5.5957-4.0008-11.72-7.9794-13.611-8.8413-1.89-0.8619-4.815-2.5987-6.5-3.8597-1.6849-1.2609-4.1415-2.6209-5.4591-3.0222-1.3175-0.4013-4.4102-2.5911-6.8726-4.8661-2.4623-2.275-6.8425-5.7114-9.7336-7.6364-2.8912-1.925-7.9635-5.525-11.272-8-3.3083-2.475-8.5984-6.3-11.756-8.5-3.1574-2.2-8.0424-5.9505-10.856-8.3345-2.8133-2.384-7.5883-5.984-10.611-8-3.0229-2.016-9.3229-6.9544-14-10.974-4.6771-4.0199-11.322-8.658-14.766-10.307-3.4443-1.6491-7.3861-4.2101-8.7597-5.6913l-2.4973-2.693-46.74 0.2463c-47.544 0.2506-56.698 0.3997-135.24 2.2024-24.475 0.5617-69.25 1.5173-99.5 2.1234-60.189 1.206-57.878 0.9246-53.427 6.5056 5.0426 6.3218 7.9002 12.915 10.965 25.298 1.5823 6.3932 3.5728 14.404 4.4232 17.803 0.85046 3.3986 1.982 11.499 2.5146 18 1.2382 15.114 1.588 16.977 5.2262 27.821 4.43 13.204 4.8572 13.829 19.167 28.042 16.759 16.646 29.182 29.92 33.631 35.932 1.925 2.6021 7.8879 9.9723 13.251 16.378 5.363 6.406 13.138 15.764 17.278 20.796 8.6735 10.542 10.302 11.307 17.97 8.4379 4.859-1.8179 9.3771-2.0879 51.166-3.0571 25.21-0.5847 51.686-1.2762 58.836-1.5367s28.75-0.9371 48-1.5035 43.1-1.4615 53-1.9891c47.609-2.5371 59.652-3.0523 81-3.465 12.65-0.2446 33.667-0.9379 46.704-1.5406 23.573-1.0899 31.796-0.5481 31.796 2.0952 0 2.7733-7.0241 3.6756-33.5 4.3032-35.747 0.8474-70.141 2.3226-96.5 4.1388-33.654 2.319-35.347 2.4109-55.975 3.0371-10.711 0.3252-19.711 0.7344-20 0.9094-0.2887 0.1749-18.075 0.6363-39.525 1.0254s-39.271 0.8706-39.603 1.0701c-2.3801 1.4317-82.247 2.3069-85.525 0.9373-8.1203-3.3929-6.8874 2.345 2.7912 12.989 1.5003 1.65 5.9804 6.825 9.9558 11.5s11.784 13.675 17.353 20c5.5689 6.325 12.313 14.483 14.988 18.13 4.6533 6.345 5.077 6.6552 9.8617 7.2219 2.7498 0.3257 7.7398 1.446 11.089 2.4896s9.0144 2.4436 12.589 3.1112c3.575 0.6676 8.6143 2.3603 11.199 3.7616l4.6985 2.5478 33.302-0.6606c18.316-0.3633 38.251-0.8788 44.301-1.1455 22.356-0.9855 56.683-1.9404 107.5-2.9903 12.375-0.2557 25.491-0.731 29.146-1.0562 9.4389-0.8399 14.465 2.5264 8.6043 5.7628-1.9217 1.0612-25.14 3.8567-32.75 3.9432-1.375 0.016-17.8 0.4502-36.5 0.9657-35.734 0.9852-45.532 1.4019-70 2.977-8.25 0.531-21.075 0.9496-28.5 0.93-7.425-0.02-18.675 0.4178-25 0.9719-6.325 0.5542-12.962 1.0149-14.75 1.0238-4.6772 0.023-4.3501 0.5785 7.25 12.306 5.775 5.8383 10.5 11.086 10.5 11.663 0 1.3358 3.6798 1.3748 4.5 0.048 1.269-2.0532 3.8607-1.5347 20.5 4.1019 11.712 3.9674 15.308 6.1797 21.693 13.343l5.0074 5.6182 33.9-0.5375c18.645-0.2957 38.85-0.7473 44.9-1.0037 41.521-1.7596 47.725-1.976 99-3.4545 20.35-0.5867 46.675-1.5238 58.5-2.0823 22.602-1.0675 43.703-1.7585 81-2.6525 28.166-0.6751 26.282-0.6457 34-0.5313 3.575 0.053 12.689 0.024 20.253-0.063 11.228-0.1303 14.037 0.1244 15.3 1.3873 2.803 2.8029-0.7452 4.3714-9.9573 4.4015-4.4529 0.014-9.2212 0.3437-10.596 0.7314-1.375 0.3877-22.075 1.4125-46 2.2773s-54.75 2.0097-68.5 2.5443c-26.445 1.0282-39.548 1.4374-77.5 2.42-50.059 1.2961-102.56 3.3426-106 4.1317-1.375 0.3157-16.631 0.7465-33.902 0.9572-35.774 0.4365-32.78-0.1609-30.692 6.1261 0.8849 2.6643 1.6038 5.9559 1.5976 7.3148-0.034 7.4044 1.6754 20.882 2.824 22.264 3.8061 4.5806-1.9828 8.8303-6.7596 4.9623-1.9955-1.6159-2.4497-3.4475-3.6696-14.8-3.5614-33.142-6.5393-37.395-32.17-45.948-8.3027-2.7707-12.223-3.6076-14.88-3.1764-5.1685 0.8388-7.2317-0.6009-21.347-14.896-6.875-6.9626-14.075-13.335-16-14.162-1.925-0.8262-4.625-2.2953-6-3.2646-3.162-2.2291-17.559-8.0089-19.95-8.0089-0.9893 0-3.72-0.6779-6.0683-1.5064-9.5842-3.3815-27.009-2.3283-40.982 2.477-4.0985 1.4095-18.345 7.204-20.5 8.338-11.963 6.2953-20.692 10.853-29.35 15.325-5.6922 2.9406-12.442 7.0769-15 9.1918-2.5577 2.1149-6.2466 4.9318-8.1975 6.2597-4.6368 3.1563-19.95 16.063-19.962 16.824 0 0.3248-3.378 4.0969-7.496 8.3825-4.118 4.2855-8.1936 9.1579-9.057 10.827-0.8633 1.6696-3.0026 4.9175-4.7539 7.2176-1.7514 2.3002-4.0277 6.2028-5.0584 8.6726-1.0308 2.4697-3.134 7.1904-4.6739 10.49-1.5399 3.3-3.5686 8.475-4.5082 11.5-0.93964 3.025-2.052 5.95-2.4718 6.5-0.41983 0.55-1.737 4.375-2.9269 8.5-1.19 4.125-3.0866 10.425-4.2147 14-3.605 11.424-3.8312 12.534-3.7866 18.571 0.0523 7.0684 1.475 11.416 5.786 17.682 1.7628 2.562 3.6378 6.9404 4.1668 9.7297 0.52897 2.7892 1.3917 5.8746 1.9171 6.8564 1.5537 2.903 4.0862 14.954 4.0862 19.444 0 14.665 3.2305 17.11 7.477 5.6595 4.4561-12.016 9.4017-20.942 11.603-20.942 2.5949 0 3.1902 1.5561 2.0107 5.2558-10.975 34.426-12.278 48.608-6.4089 69.744 0.84 3.025 2.3801 6.9031 3.4226 8.618 4.6767 7.6939-3.5451 16.078-9.4107 9.5963zm-25.7-192.3c1.925-3.5643 4.85-8.4888 6.5-10.943 1.65-2.4547 4.575-7.559 6.5-11.343 3.9687-7.8013 21.69-27.17 28.536-31.19 2.2199-1.3033 5.3958-4.2958 7.0575-6.65 8.0438-11.395 62.945-40.991 89.406-48.196 5.225-1.4227 11.188-3.0542 13.25-3.6254 5.7148-1.5829 2.1569-8.5347-8.2124-16.046-4.342-3.1454-12.91-13.021-20.679-23.837-2.993-4.1665-9.0031-12.075-13.356-17.575-11.002-13.902-21.015-27.485-27.645-37.5-3.0946-4.675-7.0787-10.075-8.8533-12-1.7747-1.925-5.174-6.2-7.554-9.5-3.9687-5.5027-38.13-41.209-43.95-45.937-14.733-11.97-18.438-18.631-20.895-37.563-0.46396-3.575-1.3493-9.875-1.9675-14-0.61819-4.125-1.5458-12.45-2.0615-18.5-1.2069-14.161-8.2082-32.344-16.254-42.214-1.827-2.2411-4.5985-5.6505-6.1588-7.5764-3.1663-3.908-11.864-18.939-14.71-25.421-1.0169-2.3162-2.9973-5.2098-4.401-6.4303-1.62-1.39-2.55-3.24-2.55-5.05 0-3.25-4.51-12.79-6.05-12.79-0.55928 0-1.9249-1.539-3.0347-3.42s-4.5821-5.5098-7.7163-8.0642c-9.7506-7.9466-22.021-20.605-26.217-27.044-3.2326-4.9615-4.7721-6.3922-7.8809-7.3236-5.5934-1.6758-6.8765-3.5652-4.804-7.0736 1.7722-3.0001 1.405-4.0747-1.392-4.0747-8.3408 0-3.5348 21.998 5.8884 26.952 4.6557 2.4478 10.417 9.3374 9.596 11.476-1.0601 2.7625-6.378 1.8064-13.506-2.4282-9.5884-5.6963-11.534-3.7557-8.3782 8.3586 2.13 8.1774 2.8122 9.2325 11.408 17.641 11.078 10.838 21.076 25.267 21.102 30.456 0.0206 4.1031 0.65921 4.8656 6.5725 7.8477 2.7983 1.4112 7.0733 4.0706 9.5 5.9099 2.4267 1.8392 6.4705 4.5412 8.9862 6.0043 6.4224 3.7354 14.926 11.612 14.926 13.825 0 5.4466-5.5211 4.1797-14.953-3.431-3.6011-2.9059-9.3034-6.9306-12.672-8.9438-3.3683-2.0131-6.6859-4.337-7.3724-5.1642-0.68651-0.8272-2.374-1.504-3.7499-1.504s-5.9333-1.548-10.128-3.4399c-4.1942-1.8919-9.8759-3.9469-12.626-4.5666-2.75-0.6197-7.025-1.814-9.5-2.654-7.7481-2.6296-12.3-4.0569-18.5-5.8006-3.3-0.9282-12.975-5.101-21.5-9.273-14.3-7.03-33.6-14.3-37.89-14.3-0.99038 0-4.2525-0.84355-7.2492-1.8746s-8.8046-2.4146-12.907-3.0746c-4.09-0.66-11.73-2.31-16.95-3.68-5.225-1.3627-12.338-2.7466-15.807-3.0753-4.5154-0.42795-7.356-1.3396-10-3.2094-4.4365-3.1373-16.426-9.0086-24.693-12.093-5.3799-2.0068-9.9384-3.9991-23-10.052-11.537-5.3465-36.581-7.7188-59-5.5888-4.95 0.4703-16.704 0.98375-26.119 1.141-21.131 0.35291-21.338 0.40636-20.676 5.3408 0.45568 3.3973 0.15907 4.0294-3.0332 6.4643-6.7663 5.1609-10.863 2.469-6.2891-4.1319 4.5352-6.5442 0.88841-8.0177-20.883-8.4378l-12-0.23152-0.31437 3.8172c-0.52236 6.3426 6.1291 12.182 14.939 13.114 3.6433 0.38558 9.9433 1.5946 14 2.6867 7.833 2.1087 10.255 2.5498 35.376 6.4431 22.023 3.4132 53.618 12.152 61.537 17.021 6.6992 4.1187 15.477 8.1647 21.446 9.8853 3.2909 0.9486 10.174 3.5152 15.296 5.7035 8.7244 3.7275 9.7191 3.9354 15.744 3.2902 9.5942-1.0275 13.527 0.639 11.846 5.0199-2.1081 5.4935-27.714 3.796-37.924-2.5142-1.6832-1.0403-5.7345-2.5846-9.0029-3.4318s-8.4186-2.856-11.445-4.464c-3.0262-1.608-8.6512-3.6985-12.5-4.6455s-11.413-3.4844-16.81-5.6388c-14.368-5.7353-21.641-7.1878-51.687-10.323-10.22-1.0663-18.736-1.3908-25-0.95236-15.647 1.0951-44.759 0.53958-54.739-1.0445-12.357-1.9614-11.551-2.144-16.176 3.6641-4.6728 5.8688-5.198 9.5318-2.096 14.619 2.1986 3.6059 2.6505 3.7483 6.6959 2.1098 1.5483-0.6272 7.3108-1.4147 12.805-1.75 10.987-0.6706 11.765-1.2256 13.473-9.6098 0.90072-4.4225 4.2971-4.5788 6.3317-0.29135 4.599 9.6916-3.6806 19.442-15.524 18.281-5.6252-0.5516-6.084-0.4633-4.454 0.8573 4.0788 3.3044 26.315 7.5001 40.011 7.5494 3.8072 0.014 14.705 2.369 28.281 6.112 3.9098 1.0781 10.21 2.6184 14 3.4231 3.7902 0.8046 10.041 2.561 13.891 3.903 3.85 1.3421 9.025 3.1508 11.5 4.0193s10.8 3.6774 18.5 6.242 19.4 7.2605 26 10.435c6.6 3.1748 15.074 7.0078 18.831 8.5176 7.974 3.2048 9.532 5.5735 7.7031 11.712-0.61618 2.0684-0.83302 5.2921-0.48186 7.1639 1.2808 6.8276-33.167 6.98-46.31 0.205-2.8692-1.4791-19.808-6.4841-29.242-8.6403-3.025-0.6913-7.1696-2.0968-9.2102-3.1231-2.0406-1.0264-4.6425-1.8661-5.7821-1.8661s-3.694-0.6777-5.6766-1.5061-9.4286-2.3988-16.547-3.4897c-7.1182-1.091-13.366-2.2459-13.885-2.5664-0.51857-0.3205-7.7956-1.4343-16.171-2.4751-8.3755-1.0408-17.703-2.3887-20.728-2.9954-14.305-2.8689-24.734-5.4002-27.113-6.5808-1.4374-0.7131-5.9823-1.7148-10.1-2.226-4.1176-0.5112-8.3826-1.409-9.4777-1.9951-7.9854-4.2737-17.309 1.836-17.309 11.342 0 3.0701 4.3543 7.4873 7.396 7.5029 1.1572 0.01 4.313 0.681 7.0129 1.5 12.554 3.8084 19.091 1.6147 19.091-6.4067 0-5.5964 1.8579-6.3567 6.3326-2.5915 7.6513 6.4382 2.5724 18.487-7.7928 18.487-8.1693 0 8.0285 6.5214 27.46 11.056 12.701 2.9639 22.676 5.9169 27 7.994 2.2 1.0566 7.6 2.8646 12 4.0177s12.95 3.4177 19 5.0324c6.05 1.6148 13.7 3.654 17 4.5315s8.7 2.6335 12 3.9021 10.05 3.0594 15 3.9796c31.822 5.9156 51.264 13.21 53.533 20.087 0.83346 2.5254 2.039 3.878 4.0952 4.5948 3.5435 1.2353 4.9137 3.5693 3.8101 6.4901-2.6635 7.0493-24.238 9.5551-41.438 4.8131-1.1-0.3033-7.85-1.6582-15-3.011s-15.925-3.186-19.5-4.0738c-4.0088-0.9956-14.357-1.9481-27-2.4853-17.547-0.7455-24.858-1.3717-36.5-3.1262-1.3741-0.2071-1.8717 0.1681-1.59 1.1986 2.0411 7.467-0.0976 10.109-10.16 12.55-5.5184 1.3386 4.26 5.5251 23.25 9.9541 4.125 0.9621 10.112 2.6254 13.305 3.6963 25.063 8.4072 60.134 14.593 70.592 12.45 4.4934-0.9204 5.7178-0.7546 11.321 1.5337 3.4554 1.4112 10.107 3.3307 14.782 4.2657s13.675 2.7777 20 4.0949c20.326 4.2331 21.82 4.2709 23.105 0.585 1.5569-4.4662 5.3672-4.1272 16.395 1.4585 4.95 2.5071 11.7 5.9233 15 7.5914s7.8781 4.2967 10.173 5.8412c2.2954 1.5445 9.2704 5.6026 15.5 9.0179s15.152 8.336 19.827 10.935c18.611 10.346 21.887 11.983 32 15.993 9.7548 3.8675 35.242 11.034 39.243 11.034 2.7454 0 2.0784-2.2962-1.743-6-4.126-3.9991-4.3739-5.6447-1.0765-7.1471 8.0972-3.6893 20.487 6.0353 22.716 17.829 1.9933 10.548 7.3216 19.862 16.817 29.397 12.858 12.912 14.94 15.856 25.761 36.44 5.4879 10.439 10.928 20.78 12.089 22.98 1.1611 2.2 4.201 8.5 6.7554 14 9.6456 20.768 15.74 31.898 19.986 36.5 1.2687 1.375 6.4322 10.961 11.474 21.302 10.184 20.886 10.03 20.766 14.978 11.605zm-298.83-310.3c-5.6675-6.1485-5.4153-13.551 0.4224-12.402 2.7276 0.537 9.9602 12.729 8.7228 14.704-1.9574 3.124-4.804 2.4074-9.1452-2.3022zm23.687-62.274c-3.8126-6.5508-2.9918-15.777 1.3432-15.097 2.8723 0.4509 9.6113 13.285 8.1777 15.574-1.9188 3.0637-7.6265 2.7776-9.5208-0.4772zm23.64-16.3c-1.1-0.4727-5.4015-0.8911-9.5589-0.9297-17.333-0.1612-14.125-8.1101 3.8891-9.6363 8.4413-0.7152 13.17 1.6459 13.17 6.5761 0 2.5452-3.3658 5.6606-5.3151 4.9196-0.10169-0.039-1.0849-0.457-2.1849-0.9297zm-138.44-24.938c-4.6807-4.6807 1.769-16.042 9.1161-16.059 4.7955-0.0107 5.5452 5.8208 1.121 8.7196-1.3384 0.8769-3.1908 3.178-4.1165 5.1134-2.087 4.3635-3.4772 4.8691-6.1206 2.2258zm161.48-11.407c-5.2269-3.822 1.1828-9.1351 12.44-10.312 11.041-1.154 9.6975 4.5741-2.0742 8.8434-8.902 3.2285-8.1117 3.1166-10.366 1.4683zm-111.2-40.27c-0.842-2.1942 1.4968-6.1526 4.0382-6.8346 5.7698-1.5484 8.2571-0.248 7.2442 3.7875-0.99777 3.9754-9.9938 6.4051-11.282 3.0471zm-164.41 449.07c6.9159-0.1945 24.724-0.6169 39.574-0.9387 30.511-0.6611 45.408-1.1354 80.5-2.5629 13.475-0.5482 30.8-1.2079 38.5-1.4661s22.775-0.8553 33.5-1.3269 20.85-0.8756 22.5-0.8978c15.956-0.2146 54.289-1.4943 55.333-1.8473 0.73295-0.248 8.383-0.6895 17-0.9813 19.493-0.6599 94.661-4.1531 118.17-5.4914 9.625-0.548 25.73-1.2884 35.789-1.6452 21.931-0.7781 20.583 1.0735 11.528-15.835-4.1224-7.6984-9.5218-17.936-11.999-22.751-5.4761-10.645-4.3754-10.264-26.7-9.2573-9.415 0.4244-26.118 0.8909-37.118 1.0366-99.876 1.3234-162.44 2.8927-196 4.9165-28.33 1.7084-28.981 1.7279-102 3.0558-16.5 0.3001-36.288 1.0007-43.974 1.5569-7.6859 0.5562-21.861 1.2417-31.5 1.5233-11.816 0.3452-17.88 0.9046-18.614 1.7171-1.5902 1.7616-5.412 12.499-5.412 15.205 0 1.2771-0.84447 4.7246-1.8766 7.661-4.0542 11.534-5.0424 15.585-5.3273 21.839l-0.29614 6.5 4.5 0.629c2.475 0.3459 6.0415 0.4232 7.9256 0.1717s9.0841-0.6163 16-0.8108zm-41.875-6.0647c0.33113-1.6088 1.1426-3.9313 1.8032-5.1609 1.2439-2.3152 1.8594-4.8941 4.5979-19.264 0.89091-4.675 2.537-12.029 3.6581-16.343 2.3651-9.1002 2.0195-10.439-1.2109-4.6915-2.8108 5.0012-5.6364 5.8813-11.795 3.6742-14.622-5.2403-15.87-3.0615-9.5348 16.646 9.0168 28.05 11.043 32.13 12.481 25.139zm139.94-60.4c26.125-0.5772 51.55-1.2306 56.5-1.4518 11.316-0.5058 46.707-1.5973 56-1.727 3.85-0.054 20.95-0.6712 38-1.372s38.2-1.3708 47-1.4888 19.15-0.338 23-0.489c3.85-0.1509 16.225-0.552 27.5-0.8912 11.275-0.3393 26.575-1.0469 34-1.5725s21.118-1.2173 30.429-1.5371c20.602-0.7077 19.114 0.4226 14.428-10.957-5.5544-13.49-10.348-19.981-23.248-31.48-2.2136-1.9733-5.0455-6.0543-6.5922-9.5-2.6587-5.923-2.8364-6.0834-9.1143-8.2235-13.171-4.4901-30.537-11.058-34.403-13.011-2.2-1.1116-5.575-2.268-7.5-2.5699-1.925-0.3018-6.6424-2.3907-10.483-4.6419-3.8407-2.2513-8.4784-4.5867-10.306-5.1899-10.443-3.4465-47.781-23.021-59.106-30.985-12.923-9.0891-12.372-8.9063-30.303-10.061-8.9664-0.5774-19.751-1.1192-23.966-1.204-6.2818-0.1265-8.0851-0.5378-10-2.2811-2.9114-2.6506-7.4675-4.0524-15.836-4.8726-3.575-0.3504-9.2-1.3204-12.5-2.1556-10.539-2.6674-23.904-5.3176-27-5.3538-1.65-0.019-4.9616-0.9252-7.3592-2.0132-2.3976-1.0879-5.3226-1.9768-6.5-1.9754-3.0762 0-14.911-2.7613-23.641-5.5232-4.125-1.3051-10.2-2.8475-13.5-3.4275-6.2553-1.0995-9.9787-2.1842-22.5-6.5549-4.125-1.4398-9.281-3.064-11.458-3.6092-2.1768-0.5452-6.1512-2.093-8.8322-3.4395-2.6809-1.3466-6.4592-2.4483-8.396-2.4483-8.6378 0-22.406-11.221-26.284-21.422-4.9452-13.007 4.2226-24.24 15.424-18.899 6.0696 2.8944 6.2159-2.9066 0.16334-6.4777-3.381-1.9949-4.1814-3.5675-6.6078-12.984l-1.1035-4.2823-19.739-9.7792c-30.781-15.25-41.594-25.628-36.656-35.178 2.5187-4.8705 0.67569-6.335-6.9625-5.5325-3.3268 0.3495-16.849 0.8527-30.049 1.1182-35.652 0.7171-50.381 1.2445-51.342 1.8385-0.47337 0.2926-31.302 0.6592-68.509 0.8148-61.307 0.2564-67.648 0.4333-67.649 1.8875-0.00058 2.2822 14.236 2.917 41.136 1.8342 13.983-0.5628 23.674-0.5047 28.053 0.1683 4.4449 0.6832 7.3121 0.6949 8.5452 0.035 1.0207-0.5462 9.9355-1.0147 19.811-1.041 9.8751-0.026 22.492-0.3411 28.037-0.6996 14.286-0.9236 12.819-2.6763 22.442 26.825 4.5341 13.901 11.136 33.824 14.671 44.274 3.5348 10.45 7.4844 22.375 8.7767 26.5 1.2924 4.125 3.5422 10.62 4.9996 14.434 1.4574 3.8136 3.2767 9.2136 4.0428 12 0.76609 2.7865 3.2319 10.241 5.4796 16.566s5.8518 17.125 8.0092 24c4.1812 13.325 6.6303 20.624 17.781 53 3.8835 11.275 10.057 29.275 13.72 40 3.6623 10.725 7.6859 22.2 8.9415 25.5 1.2555 3.3 2.5657 6.8159 2.9116 7.8131 0.7023 2.0251 13.688 1.9913 117.64-0.3057zm-18.14-83.8c-0.79769-0.9625-2.2798-4.225-3.2937-7.25-1.0138-3.025-3.546-9.5575-5.627-14.517-2.081-4.9592-4.1045-10.359-4.4966-12-0.3921-1.6409-3.127-8.9188-6.0776-16.173-4.0731-10.014-5.3647-14.424-5.3647-18.316 0-2.8192-0.39077-5.8838-0.86837-6.8101-2.2994-4.4599-2.235-8.9526 0.16838-11.747 4.8274-5.6122 9.1068-1.1366 13.121 13.724 0.79331 2.9364 3.9068 12.314 6.9188 20.839s6.2518 18.2 7.1995 21.5c6.6187 23.047 4.6642 21.38 23.853 20.35 6.6591-0.3572 26.057-0.9321 43.107-1.2774s56.486-1.3503 87.635-2.2332c57.981-1.6435 63.194-1.5291 64.322 1.411 1.1654 3.037-2.2207 4.2486-11.899 4.2577-4.9824 0-22.784 0.6612-39.559 1.4591s-40.625 1.7004-53 2.0056c-12.375 0.3053-27.675 0.7692-34 1.0309-37.955 1.5709-45.092 1.905-65.491 3.0664-4.9452 0.2816-9.4227 0.9434-9.95 1.4707-1.5337 1.5338-5.1237 1.1098-6.6992-0.7912zm24.528-21c-5.8094-3.2991-7.1905-4.8058-8.349-9.1083-3.2798-12.18 14.093-23.502 21.757-14.178 0.93793 1.141 3.2755 2.8536 5.1946 3.8056 6.4872 3.2184 6.0416 10.705-1.0919 18.341-3.3144 3.5481-12.246 4.1296-17.51 1.1401zm12.024-7.3267c3.3232-3.9494 3.3132-4.0065-1.3525-7.7559-6.1325-4.9283-12.059-3.3388-12.059 3.2343 0 7.1179 8.7454 10.066 13.411 4.5216zm1922.1 46.1c11.55-0.5786 38.55-1.7085 60-2.5109 108.43-4.0565 108.45-4.0576 104.64-10.662-1.2777-2.2202-3.1575-6.4618-4.1773-9.4259s-2.9957-6.8858-4.3909-8.715c-1.3952-1.8291-3.1829-5.1573-3.9727-7.3958s-2.5986-6.2541-4.0196-8.9234-2.5836-5.1856-2.5836-5.5918-1.6025-3.2437-3.5611-6.3055-4.1732-7.3016-4.9212-9.4218c-0.748-2.1201-2.4805-5.5862-3.85-7.7024-1.3694-2.1163-3.4681-6.3227-4.6636-9.3477-1.1956-3.025-2.5753-6.175-3.066-7-1.9355-3.2543-6.0722-11.362-15.816-31-5.5944-11.275-10.62-21.175-11.167-22-0.5474-0.825-1.6754-3.075-2.5066-5s-2.1191-4.625-2.862-6c-15.422-28.544-34.572-66.019-34.599-67.708-0.014-0.8711-1.543-3.9184-14.25-28.399-4.7412-9.134-11.622-22.409-15.291-29.5-3.669-7.0909-7.0726-13.392-7.5636-14.001-0.4909-0.60986-1.7318-3.5349-2.7575-6.5s-3.2657-7.6412-4.9778-10.391c-1.7121-2.75-4.3063-7.475-5.7648-10.5-3.4171-7.0867-4.0106-8.2139-8.4242-16-2.0266-3.575-3.9733-7.4241-4.3262-8.5536s-1.9456-4.5045-3.5393-7.5c-8.2-15.35-15.1-29.26-15.1-30.31 0-0.64808-1.0569-2.7453-2.3487-4.6605-3.977-5.8962-13.004-23.987-16.956-33.982-2.0661-5.225-5.4929-12.425-7.6152-16-2.1222-3.575-7.8074-14.375-12.634-24-4.8263-9.625-9.5747-18.658-10.552-20.072-0.9774-1.4147-3.6055-6.727-5.8401-11.805s-5.5543-11.571-7.377-14.428c-2.8433-4.4571-18.677-36.077-18.677-37.298 0-0.23559-3.1267-6.1587-6.9482-13.163-3.8215-7.0038-7.2731-14.083-7.6704-15.731-0.3972-1.6483-2.1215-5.2483-3.8318-8-1.7104-2.7517-5.5015-10.178-8.4248-16.503s-5.8205-12.4-6.4383-13.5c-4.1172-7.3311-11.402-21.495-43.203-84-3.9175-7.7-7.6211-14.9-8.2302-16s-2.4623-5.0283-4.1184-8.7296c-1.656-3.7012-4.3889-8.7323-6.0731-11.18-1.6842-2.4478-3.0621-4.8411-3.0621-5.3183 0-0.47724-5.8163-12.546-12.925-26.82-7.1089-14.274-14.196-28.633-15.75-31.91-1.5536-3.277-4.7373-9.1063-7.0748-12.954s-4.2531-7.4665-4.257-8.0418c-0.01-0.90856-6.5667-14.129-26.621-53.645-2.6794-5.2796-5.8901-11.805-7.1348-14.5-1.2448-2.6954-4.1034-8.2757-6.3525-12.401-2.2492-4.125-7.4387-14.25-11.532-22.5-4.0936-8.25-8.5086-17.025-9.8111-19.5-3.0608-5.8163-16.436-32.599-20.475-41-1.7189-3.575-7.1311-14.15-12.027-23.5s-13.662-26.45-19.479-38c-5.8175-11.55-11.449-22.575-12.515-24.5-1.0657-1.925-3.9191-7.55-6.3409-12.5s-6.21-12.214-8.4181-16.142c-2.2082-3.9281-4.488-8.4281-5.0664-10-0.5783-1.5718-2.3915-5.3329-4.0293-8.3579s-7.1258-13.825-12.196-24c-5.0698-10.175-10.571-21.2-12.226-24.5-1.6543-3.3-5.1948-9.825-7.8677-14.5s-4.8691-9.22-4.8804-10.1c-0.011-0.87998-1.3816-3.4788-3.0451-5.7752s-3.9368-6.4896-5.0518-9.3183c-1.1149-2.8287-2.8371-6.3049-3.827-7.7248-1-1.418-5.3-9.555-9.6-18.08-4.3079-8.525-8.5872-16.625-9.5096-18-0.9223-1.375-2.2519-4.3-2.9546-6.5s-2.1932-5.304-3.3121-6.8978l-2.0346-2.8978-18.577 0.7062c-10.217 0.38841-51.427 0.90818-91.577 1.155-40.15 0.24686-105.85 0.89252-146 1.4348-40.15 0.54227-101.35 0.99756-136 1.0118-34.65 0.01419-93.15 0.46924-130 1.0112-36.85 0.54197-110.56 1.1978-163.81 1.4575-53.244 0.25964-97.119 0.66444-97.5 0.89957-0.3809 0.23513-61.668 0.70314-136.19 1.04-74.525 0.33688-172.18 0.84001-217 1.1181-80.007 0.49628-103.29 0.69856-241 2.0939-71.76 0.72711-77.767 0.77823-214.5 1.8256-46.75 0.35809-97.6 0.85211-113 1.0978-15.4 0.24571-41.95 0.65495-59 0.90942s-41.35 0.68634-54 0.95971c-38.367 0.82913-96.512 1.8557-172.5 3.0457-22.022 0.34487-27.997 1.1459-28.003 3.7546-0.0027 1.2623 7.2975 25.707 11.132 37.275 1.0938 3.3 5.79 17.7 10.436 32 4.6459 14.3 8.9355 27.35 9.5324 29 0.59687 1.65 1.7803 5.25 2.6299 8 0.84957 2.75 4.2097 12.875 7.467 22.5 12.608 37.254 23.099 68.755 24.813 74.5 0.98442 3.3 4.1173 12.75 6.9619 21s5.7984 17.25 6.5639 20 2.5097 8.15 3.876 12 4.3745 13.075 6.6849 20.5c4.2926 13.795 27 83.075 29.006 88.5 0.61043 1.65 3.4828 10.453 6.383 19.563 2.9002 9.1098 6.2048 19.235 7.3435 22.5 1.1387 3.2652 4.3889 13.362 7.2227 22.437 5.0088 16.04 12.658 39.429 14.881 45.5 1.9149 5.2297 14.168 41.789 15.753 47 0.83618 2.75 3.02 9.275 4.8528 14.5 1.8329 5.225 4.7277 13.775 6.4329 19s4.2027 12.875 5.5499 17c5.0326 15.409 24.516 73.613 25.608 76.5 2.8693 7.5874 13.349 37.91 15.898 46 1.5596 4.95 5.0877 15.3 7.8402 23 2.7526 7.7 9.0962 26.533 14.097 41.852s9.7552 29.134 10.565 30.7c0.81011 1.5666 2.0842 5.4581 2.8314 8.6479 0.74715 3.1898 2.267 8.0496 3.3774 10.8 2.5423 6.2961 10.847 31.919 11.745 36.239 0.37033 1.7812 1.1696 3.5453 1.7762 3.9201 1.3058 0.807 46.23 0.71297 52.743-0.1104 2.475-0.31287 21.375-1.0436 42-1.624 20.625-0.58031 42.675-1.2434 49-1.4734 18.524-0.67378 83.028-2.3898 130-3.4584 23.925-0.54428 59.25-1.4418 78.5-1.9945s48.275-1.292 64.5-1.643c35.465-0.76704 33.214-0.0324 50-16.318 6.325-6.1364 14.612-13.684 18.416-16.772 3.8035-3.088 10.329-9.0335 14.5-13.212 6.9897-7.0018 13.791-12.108 32.036-24.053 23.367-15.298 27.827-20.123 20.299-21.959-8.3054-2.0256-15.097-11.545-10.336-14.488 4.7098-2.9108 30.698-36.848 35.463-46.31 1.9178-3.8081 5.2081-8.3892 7.3987-10.301 5.4019-4.714 14.792-11.98 20.27-15.684 5.6359-3.8111 21.091-20.335 22.476-24.03 1.2555-3.3492 17.054-19.379 24.242-24.598 9.1948-6.6755 13.079-7.3251 48.431-8.0994 17.217-0.37712 41.209-0.98828 53.314-1.3581l22.01-0.67245 19.49-12.911c59.109-39.157 85.547-57.131 99.49-67.64 2.75-2.0726 8.4042-5.9464 12.565-8.6086 9.888-6.3267 25.243-16.755 36.194-24.581 32.23-23.032 42.978-27.327 53.278-21.291 12.338 7.2306 12.772 28.828 0.6884 34.292-2.5989 1.1752-7.6503 3.9333-11.225 6.1292-11.765 7.2262-33.399 21.118-39 25.043-3.025 2.1198-10.675 7.2927-17 11.495-6.325 4.2027-13.75 9.4498-16.5 11.66-2.75 2.2103-6.575 4.9098-8.5 5.9989-5.8641 3.3176-22.182 14.304-38.5 25.919-9.5026 6.7644-25.493 17.458-28.25 18.893-5.2611 2.7373 0.5296 6.1003 10.504 6.1003 12.08 0 22.052 7.8851 31.221 24.685 3.1144 5.7066 3.2045 5.8099 60.052 68.815 17.348 19.227 19.334 21.806 34.291 44.519 18.5 27.91 40.4 45.96 55.9 45.96 3.5204 0 6.1493 0.82637 21.823 6.8598 2.9719 1.144 6.3469 2.9345 7.5 3.9789s3.4248 2.2143 5.0482 2.5998 6.7325 3.1908 11.354 6.234c4.621 3.0432 10.825 6.6426 13.788 7.9988l5.3858 2.4657 25.261-1.0341c13.893-0.56874 37.861-1.2826 53.261-1.5863 48.022-0.94714 59.301-1.2525 166.5-4.5072 17.875-0.5427 46.45-1.2226 63.5-1.5109 17.05-0.28828 46.075-0.95112 64.5-1.473 18.425-0.52184 43.85-1.1883 56.5-1.481 81.434-1.8842 107.15-2.5513 116-3.0094 12.708-0.65758 36.682-1.2869 97.5-2.5594 54.28-1.1357 71.704-1.6226 88.192-2.4646 6.2192-0.31757 28.183-1.0244 48.808-1.5708 20.625-0.54636 50.775-1.4592 67-2.0286 16.225-0.56935 39.941-1.3461 52.703-1.726 24.458-0.72819 27.229-1.2922 24.134-4.9121-0.8341-0.9755-2.5583-4.6986-3.8317-8.2736-2.385-6.6962-5.4192-13.617-12.056-27.5-15.918-33.299-27.582-58.577-28.838-62.5-0.6165-1.925-3.1013-6.965-5.5218-11.2-2.4204-4.2351-4.9466-9.4101-5.6138-11.5-0.6672-2.09-2.5511-6.0118-4.1866-8.7153-1.6354-2.7035-4.6762-8.7785-6.7573-13.5s-7.6172-16.46-12.302-26.085c-18.973-38.977-25.982-53.669-27.193-57-0.6998-1.925-3.3263-7.2124-5.8366-11.75-2.5103-4.5373-4.8774-9.2623-5.2601-10.5s-6.2115-13.5-12.953-27.25c-6.7414-13.75-18.412-37.825-25.934-53.5-7.5226-15.675-16.303-33.9-19.512-40.5-3.2092-6.6-6.6685-14.014-7.6873-16.475-1.0188-2.4612-2.94-6.0612-4.2692-8s-4.8467-8.9251-7.8166-15.525c-2.9699-6.6-6.6829-14.025-8.2513-16.5-1.5683-2.475-3.6312-6.9115-4.5841-9.8588-0.9529-2.9474-3.8982-9.2219-6.5449-13.944-2.6468-4.7216-5.1041-9.9127-5.4606-11.536-0.3565-1.6231-1.9533-5.1646-3.5484-7.87-1.5952-2.7054-4.9873-9.5028-7.5381-15.105-2.5507-5.6026-5.4705-11.381-6.4884-12.841-1.018-1.4599-1.8508-2.9638-1.8508-3.3421 0-0.37824-2.7606-6.3838-6.1346-13.346-3.374-6.9619-9.6796-20.083-14.012-29.158-4.3328-9.075-8.4074-17.4-9.0545-18.5-3.048-5.1809-10.584-21.631-14.89-32.5-1.8517-4.675-4.435-10.252-5.7407-12.393-1.3057-2.1413-4.296-7.8423-6.6452-12.669-2.3492-4.8266-5.1764-10.05-6.2826-11.607-1.1063-1.5571-2.757-4.631-3.6683-6.831s-3.5503-7.3322-5.8644-11.405l-4.2075-7.405-76.5 0.753c-118.43 1.1657-142.58 1.3747-230 1.9906-86.626 0.61027-181.33 1.5703-202 2.0478-6.875 0.1588-33.875 0.80108-60 1.4273-61.243 1.468-98.943 2.0307-171 2.5524-32.175 0.23296-68.4 0.67021-80.5 0.97166-12.1 0.30146-35.725 0.78352-52.5 1.0712-16.775 0.28773-44 0.96053-60.5 1.4951-16.5 0.53458-45.75 1.2105-65 1.502-46.61 0.7058-98.193 1.6135-118.5 2.0852-9.075 0.21079-38.775 0.70096-66 1.0893-27.225 0.38831-54.45 0.78053-60.5 0.8716-37.417 0.56325-65.677 0.53783-70.068-0.063-2.7874-0.38141-13.137-0.20337-23 0.39565-9.8626 0.59902-35.482 1.316-56.932 1.5933-49.899 0.64512-104.69 1.3908-164 2.232-25.85 0.36664-91.094 0.82484-144.99 1.0182-113.45 0.40708-101.04-2.0188-94.221 18.411 3.0027 9.0012 7.3239 22.216 9.6025 29.366 6.2757 19.692 18.15 55.52 26.183 79 3.9514 11.55 9.5656 27.975 12.476 36.5 2.9103 8.525 7.3789 21.575 9.9302 29 2.5512 7.425 5.262 15.75 6.024 18.5 0.76194 2.75 3.9091 11.525 6.9936 19.5 3.0846 7.975 7.9026 21.475 10.707 30 2.8042 8.525 7.3087 22.025 10.01 30 2.7014 7.975 6.2494 18.775 7.8846 24 5.3052 16.953 10.692 33.225 15.393 46.5 2.5321 7.15 5.2322 15.025 6 17.5 1.3223 4.262 10.959 32.23 24.463 71 3.3526 9.625 6.5204 19.075 7.0395 21 0.51914 1.925 3.6608 11.375 6.9816 21 3.3207 9.625 8.0187 23.35 10.44 30.5 2.4212 7.15 5.8175 16.825 7.5473 21.5s5.6366 15.925 8.6818 25 6.816 20.1 8.3796 24.5 7.3729 21.725 12.91 38.5c5.5367 16.775 11.403 34.209 13.036 38.742 3.8883 10.793 2.5396 14.167-3.7008 9.2578-1.3984-1.1-3.0736-2-3.7225-2-2.1179 0-7.3394-13.34-10.558-26.974-0.71074-3.0108-2.3454-7.7358-3.6326-10.5s-2.3448-5.9382-2.3501-7.0533c-0.005-1.1151-0.6586-2.9538-1.4516-4.086-0.79302-1.1322-4.1734-11.02-7.5119-21.973s-7.3719-23.964-8.9631-28.914-3.18-10.279-3.5306-11.843c-0.35063-1.5638-2.173-4.4244-4.0498-6.3568-2.4834-2.557-3.5956-4.7775-4.0857-8.1567-0.3704-2.5538-1.7408-7.5093-3.0452-11.012-1.3045-3.503-2.3718-7.3518-2.3718-8.553s-1.2997-3.9601-2.8882-6.1309c-2.5802-3.5261-4.2441-8.3044-7.2438-20.802-0.50891-2.1203-1.6536-5.2635-2.5439-6.985-0.89021-1.7215-3.3339-8.2359-5.4305-14.477-2.0966-6.2406-5.162-14.797-6.812-19.015-1.65-4.2176-4.1761-11.718-5.6136-16.668s-3.2558-10.478-4.0408-12.284c-0.86-1.81-1.5-3.96-1.5-4.77 0-0.81667-1.172-4.7389-2.6045-8.7161-8.83-24.49-11.1-30.97-16.46-46.85-3.27-9.7-5.94-18.37-5.94-19.28 0-0.90949-1.3407-4.3096-2.9794-7.5557-1.6387-3.2462-3.4079-7.6208-3.9317-9.7215-0.96223-3.8589-7.9726-24.703-9.8609-29.319-0.56241-1.375-2.4868-7.225-4.2763-13-1.7896-5.775-4.2775-13.425-5.5287-17s-2.5895-8.075-2.974-10c-0.38453-1.925-2.4428-6.8008-4.574-10.835-2.14-4.04-3.88-8.29-3.88-9.46 0-1.1666-1.6046-7.0371-3.5657-13.046-1.9611-6.0085-4.622-15.089-5.913-20.178-1.2911-5.0895-3.6713-12.343-5.2893-16.119-1.62-3.78-3.73-10.47-4.7-14.87-0.96834-4.4-4.4421-15.875-7.7194-25.5s-8.3265-24.475-11.22-33c-2.8939-8.525-6.8632-19.325-8.8206-24-8.531-20.375-9.8895-24.035-14.849-40-1.7939-5.775-4.4408-12.525-5.8821-15-8.1425-13.983-12.224-30.812-8.2528-34.027 2.6214-2.1226 2.685-3.0696 0.71434-10.635-2.4163-9.2768-2.6185-9.1374 13.794-9.5126 7.8135-0.17865 16.438 0.0501 19.165 0.50842 2.7273 0.45829 38.952 0.5555 80.5 0.21603 41.548-0.33948 108.39-0.89086 148.54-1.2253 40.15-0.33445 109.45-0.81557 154-1.0692 147.79-0.84129 209.87-1.7007 261.5-3.6207 8.525-0.31699 30.35-0.83285 48.5-1.1464 18.15-0.31351 44.025-1.0014 57.5-1.5287 22.31-0.87301 64.356-2.0874 172-4.9678 21.175-0.56662 83.725-1.2489 139-1.5161 55.275-0.26726 108.82-0.69211 119-0.94412 10.175-0.25201 37.4-0.68972 60.5-0.9727s47.625-0.7488 54.5-1.0352c6.875-0.28635 37.475-0.77776 68-1.092 30.525-0.31426 66.975-0.72971 81-0.92323 14.025-0.19351 50.025-0.62472 80-0.95822 29.975-0.33351 56.75-0.81855 59.5-1.0779 4.7723-0.45002 97.532-1.5803 159-1.9373 15.95-0.0927 30.016-0.5291 31.257-0.96986 3.0072-1.0679 8.4214 4.6585 12.23 12.935 1.5185 3.3 7.3454 14.775 12.949 25.5 5.6033 10.725 10.463 20.85 10.799 22.5 0.8278 4.061 4.8587 12.75 18.789 40.5 20.322 40.483 31.093 62.183 35.49 71.5 7.1805 15.217 17.133 35.793 30.957 64 7.2777 14.85 16.941 34.65 21.475 44 4.5334 9.35 11.746 24.2 16.028 33 4.2821 8.8 11.275 23.425 15.54 32.5 4.2651 9.075 13.207 27.409 19.871 40.743 6.6639 13.334 12.116 24.51 12.116 24.836 0 0.67029 15.835 33.234 25.734 52.92 5.7351 11.405 11.526 23.369 37.758 78 3.1691 6.6 9.7548 20.252 14.635 30.339 4.8802 10.086 8.8731 18.623 8.8731 18.971 0 0.34762 3.1046 6.9453 6.899 14.661 11.658 23.707 24.727 50.791 26.853 55.65 2.6893 6.1469 0.2151 5.7679 31.501 4.825 41.735-1.2578 39.425-2.4976 56.007 30.054 23.228 45.597 36.74 72.992 36.74 74.488 0 0.29097 1.35 2.3927 3 4.6704 1.65 2.2778 3 4.5892 3 5.1364 0 0.54729 2.5705 5.9923 5.7122 12.1 5.6074 10.901 5.7104 11.252 5.6088 19.105-0.197 15.228-0.3708 15.303-35.611 15.381-28.01 0.0617-27.643-0.0958-21.294 9.1342 1.8791 2.7318 4.1827 7.3335 5.1191 10.226 0.9363 2.8924 9.349 20.784 18.695 39.759 9.3459 18.975 18.571 38.1 20.5 42.5 1.9291 4.4 5.2499 11.73 7.3794 16.29 2.1295 4.5594 4.1656 9.4603 4.5246 10.891 0.6251 2.4904 16.103 35.251 24.402 51.65 4.7615 9.4086 5.1211 12.669 1.3975 12.669-1.4112 0-3.3515 0.4205-4.3118 0.9345-0.9604 0.5139-5.9933 1.1593-11.184 1.4343-5.191 0.2749-13.619 0.8231-18.729 1.2182-6.3223 0.4888-11.515 0.2986-16.252-0.5951-5.7833-1.0912-8.4405-1.0849-15.709 0.037-16.79 2.5921-31.248 1.1906-31.248-3.0291 0-3.0932 3.7779-3.9972 16.815-4.0239 6.4267-0.013 13.361-0.413 15.409-0.8888 2.0482-0.4757 9.8513-0.5133 17.34-0.084 15.319 0.879 42.436 0.1482 42.436-1.1437 0-0.4654-2.925-6.8437-6.5-14.174s-6.5-13.804-6.5-14.386c0-0.5819-1.5933-3.7-3.5406-6.9291-1.9473-3.2292-4.2529-8.3462-5.1235-11.371-0.8706-3.025-2.8643-7.975-4.4303-11-1.5661-3.025-7.3211-15.175-12.789-27-9.8026-21.2-17.651-37.676-20.702-43.458-1.4236-2.6983-8.3239-16.514-20.749-41.542-2.5938-5.225-5.9423-10.965-7.4411-12.756l-2.725-3.2554-13.5-0.35255c-7.425-0.19391-23.85-0.007-36.5 0.41558-12.65 0.42248-34.475 1.0492-48.5 1.3927-14.025 0.34351-32.925 0.8139-42 1.0453-9.075 0.23141-30.45 0.67461-47.5 0.98481-17.05 0.3103-32.8 0.7745-35 1.0316-2.2 0.2572-14.8 0.7351-28 1.0622-24.797 0.6143-43.581 1.2686-54 1.8809-22.644 1.3306-62.53 2.1185-154.85 3.0589-41.792 0.4257-40.394 0-26.535 7.998 8.5962 4.9582 15.009 9.3747 21.133 14.553 2.4024 2.0318 7.0236 4.1972 12.865 6.0287 5.0139 1.5719 9.6268 3.2755 10.251 3.7856 6.2868 5.1387 31.301 8.824 65.391 9.6341 13.891 0.3301 26.491 1.0091 28 1.5089 1.5092 0.4998 9.4155 1.6204 17.57 2.4902 15.689 1.6736 18.778 2.5769 33.337 9.747 13.414 6.6063 41.282 25.703 51.338 35.18 17.4 16.399 35.968 24.209 63.304 26.628 5.9422 0.5259 12.322 1.5907 14.178 2.3662 1.856 0.7754 5.9942 1.7086 9.196 2.0735 3.2018 0.365 8.7465 1.3212 12.322 2.1248 3.575 0.8036 8.3 1.8639 10.5 2.3563 16.886 3.7792 34.903 8.5918 39.5 10.551 3.025 1.2892 8.875 3.7356 13 5.4365 8.2306 3.3939 18.051 8.3484 22.09 11.145 1.4245 0.9862 5.1707 2.7587 8.3248 3.9388 9.0099 3.371 29.193 14.322 45.181 24.514 2.8793 1.8355 7.1648 6.0073 9.8518 9.5905 2.6157 3.4881 7.3082 9.0474 10.428 12.354 3.1196 3.3066 8.4201 9.6066 11.779 14 3.3587 4.3934 8.748 10.365 11.976 13.269 13.007 11.704 24.277 22.152 32.596 30.219 8.8158 8.5487 11.743 10.148 17.274 9.4387 1.65-0.2116 12.45-0.8581 24-1.4366zm-57.724-106.01c-10.607-1.8288-16.671-10.619-12.626-18.303 2.4692-4.6912 8.8962-6.3946 16.158-4.2825 8.309 2.4167 8.5115 2.6704 11.355 14.228 1.3302 5.4063-6.5024 9.8039-14.887 8.3582zm5.7829-9.4877c1.9186-1.4826 1.918-1.5179-0.058-3.0424-3.9976-3.0843-9.3587-0.4582-5.9741 2.9263 2.0107 2.0108 3.542 2.0403 6.0321 0.1161zm-372-116c-0.8882-1.3557-1.615-2.7747-1.615-3.1535 0-1.0187-4.5755-11.055-8.0056-17.561-3.732-7.0782-3.7283-7.8208 0.039-7.8208 4.0362 0 17.08 25.05 15.035 28.872-1.5051 2.8122-3.4695 2.6908-5.4534-0.337zm-100.2-216.25c-1.3929-3.1625-4.7288-10.25-7.4132-15.75s-6.037-13.15-7.4502-17c-6.3695-17.352-8.8323-23.433-11.947-29.5-1.8355-3.575-4.7312-9.425-6.4348-13-1.7037-3.575-3.8883-8.075-4.8546-10l-1.757-3.5-12.5-0.30482c-44.028-1.0736-51.706 2.7325-37.661 18.669 0.7927 0.89959 2.4362 4.1106 3.652 7.1356 1.2159 3.025 6.4364 14.05 11.601 24.5 10.114 20.464 12.552 28.5 8.6468 28.5-2.1163 0-11.304-16.854-12.81-23.5-0.374-1.65-1.9843-5.324-3.5784-8.1644s-3.7337-7.5922-4.7546-10.56c-1.021-2.9674-3.035-7.8868-4.4756-10.932-1.4407-3.0453-2.6194-6.2654-2.6194-7.1559 0-0.89047-1.3437-2.9936-2.986-4.6737-3.0308-3.1004-4.6793-7.1289-3.6192-8.8442 1.9339-3.129-61.194-3.4271-112.89-0.53299-4.4 0.24631-18.35 0.66688-31 0.93462-12.65 0.26773-28.85 0.67905-36 0.91403s-25.15 0.67097-40 0.96888c-14.85 0.2979-33.525 0.79298-41.5 1.1002-7.975 0.3072-23.275 0.72841-34 0.93602-10.725 0.2076-33.675 0.65441-51 0.99289-17.325 0.33849-35.775 1.0275-41 1.5312-9.9777 0.96178-29.989 1.7168-76.5 2.8863-27.853 0.70036-34.314 0.22667-35.234-2.5835-0.9714-2.9654 4.0207-3.4846 33.574-3.4915 16.313-0.004 40.152-0.39407 52.975-0.86722s24.298-0.52252 25.5-0.10972c1.2019 0.4128 19.735 0.14257 41.185-0.60051 58.562-2.0288 71.586-2.4485 88-2.836 24.9-0.58787 43.918-1.2817 65.77-2.3994 12.931-0.66143 21.428-0.71011 22.514-0.12899 1.0426 0.55802 3.5481 0.5835 6.23 0.0634 2.4673-0.47851 20.236-1.3421 39.486-1.919 19.25-0.57694 40.85-1.7032 48-2.5027 7.15-0.79957 25.308-1.65 40.35-1.8898 29.792-0.47497 30.387-0.59763 27.893-5.7476-0.8557-1.7669-1.3163-3.8368-1.0235-4.5997 1.0077-2.6262 3.7859-0.76025 6.2833 4.2201l2.5027 4.991 15.997-0.22719c27.347-0.38837 40.574-1.3084 41.171-2.8638 0.6911-1.8009-14.181-35.302-16.723-37.67-1.0789-1.0052-1.9503-3.1297-1.9503-4.755 0-5.8178-2.741-6.4943-25.956-6.4057-21.782 0.0831-94.065 1.2329-122.54 1.9493-9.35 0.23519-35.225 0.69685-57.5 1.0259-22.275 0.32906-45.9 1.0046-52.5 1.5012-7.8385 0.58979-13.077 0.55304-15.106-0.10596-2.1641-0.70296-3.9835-0.66901-6 0.11197-1.8453 0.7147-9.7789 1.0495-21.894 0.92398-17.489-0.18123-28.536 0.1526-47 1.4204-3.85 0.26435-24.325 0.7885-45.5 1.1648-21.175 0.37628-41.2 0.88736-44.5 1.1357-3.3 0.24836-26.925 0.53816-52.5 0.64398-37.64 0.15575-46.975 0.45814-48.994 1.587-1.4025 0.78433-6.2158 1.5436-11 1.7351-7.8282 0.31343-68.761 2.3574-118.04 3.9598-21.158 0.68795-24.964 0.20144-24.964-3.1915 0-2.7966 4.5248-3.1963 43.5-3.8421 61.289-1.0155 84.683-1.5704 89-2.1109 3.777-0.47287 355.92-10.202 365.5-10.098 5.0557 0.0547 46.567-0.90478 107-2.4732 22.275-0.57812 49.658-1.2014 60.851-1.385 21.9-0.35923 24.037-0.85765 20.441-4.7678-2.9705-3.2299-6.2921-9.8392-6.2921-12.52 0-2.0239-1.0483-4.1415-5.8133-11.743-0.6895-1.1-2.0261-3.7862-2.9702-5.9692-0.9441-2.1831-4.7655-9.958-8.492-17.278-3.7265-7.3196-7.6932-15.658-8.8149-18.531-3.0146-7.7194-14.313-31.252-17.676-36.816-1.9602-3.243-1.0014-6.1616 1.8815-5.727 1.6951 0.25556 3.8789 4.1529 10.826 19.32 4.7861 10.45 11.161 23.725 14.167 29.5 3.0059 5.775 10.824 22.538 17.373 37.25l11.908 26.75 11.556 0.003c6.3557 0.002 18.531-0.48177 27.056-1.0741 18.38-1.2772 32.3-0.34513 32.787 2.1954 0.4294 2.2412-2.0649 2.9747-5.5905 1.6439-2.371-0.89495-3.6405-0.78527-6.474 0.55935-2.8598 1.357-6.7035 1.6736-20.374 1.6778-9.2669 0.003-21.183 0.29219-26.48 0.64298l-9.6305 0.6378 2.7752 6.107c1.5264 3.3589 6.0644 13.532 10.084 22.607 4.0201 9.075 8.7925 18.477 10.605 20.894 1.8129 2.4166 3.2961 4.9706 3.2961 5.6756s1.8 5.004 4 9.5533 4 9.286 4 10.526c0 3.1177 5.7543 15.904 12.535 27.851 18.931 33.359 25.097 49.5 18.91 49.5-2.1506 0-2.9565-0.91084-5.0878-5.75zm-1287.6-34.45c-1.9011-3.467-4.941-10.463-6.7553-15.546-4.7815-13.396-1.8927-12.256-28.531-11.259-64.688 2.4214-68.5 2.342-68.5-1.4267 0-2.5706 3.6055-2.8718 38.5-3.2163 56.737-0.5601 52.758 0.92347 46.005-17.153-2.6101-6.9864-6.2209-16.81-8.0241-21.829-5.3831-14.985-3.7182-13.767-17.845-13.056-67.546 3.3989-107.51 3.0716-109.03-0.8931-1.0826-2.8212 4.0164-3.1944 59.891-4.3833 61.245-1.3032 59.6-1.1092 57.28-6.7572-1.4242-3.4674-3.0878-7.9851-8.5735-23.283-1.0847-3.025-5.4354-14.275-9.6682-25s-9.6421-24.9-12.021-31.5c-2.3787-6.6-5.0177-13.612-5.8644-15.582-0.84671-1.9702-3.5546-9.3952-6.0175-16.5-2.47-7.11-6.58-18.32-9.14-24.92-4.4463-11.468-9.5506-25.66-13.487-37.5-1.0057-3.025-3.6034-9.775-5.7727-15-2.1694-5.225-4.7239-11.975-5.6768-15-0.95287-3.025-3.031-8.65-4.6181-12.5-5.0497-12.25-13.962-36.506-19.106-51.999-2.7388-8.2493-6.1142-17.924-7.5007-21.5-1.3866-3.5757-3.3752-8.7512-4.4191-11.501-17.056-44.927-18.749-51.383-13.198-50.314 2.3773 0.45782 10.478 21.415 14.388 37.224 0.93216 3.7687 2.4724 7.8452 7.4015 19.59 1.2695 3.025 2.7491 7.075 3.2879 9 4.3653 15.596 7.6069 25.698 8.8596 27.61 0.81633 1.2459 2.0997 4.4309 2.852 7.0778 0.75226 2.6469 2.5498 7.9626 3.9947 11.813 1.4448 3.85 4.3868 12.292 6.5377 18.76s4.5786 13.051 5.3948 14.63c0.81621 1.5784 2.1949 4.8364 3.0638 7.2401 4.8164 13.324 6.511 17.898 8.4741 22.87 1.1942 3.025 2.8626 7.525 3.7074 10s3.0161 8.325 4.825 13c1.809 4.675 4.8823 13 6.8297 18.5 1.9473 5.5 5.638 15.4 8.2016 22 2.5635 6.6 5.9082 15.375 7.4326 19.5 2.4646 6.6692 7.7576 20.625 14.602 38.5 1.9927 5.2046 7.7032 20.876 10.385 28.5 1.4963 4.2538 10.066 25.362 11.35 27.958 1.682 3.3995 4.0814 3.7824 20.686 3.3013 7.975-0.23109 25.525-0.72157 39-1.09l24.5-0.66979 0.31002-2.6836c0.1705-1.476-0.34396-3.951-1.1433-5.5-0.7993-1.549-2.2228-5.9664-3.1632-9.8164-0.94047-3.85-2.4836-8.3529-3.4293-10.006-0.94562-1.6535-2.7729-6.1535-4.0606-10s-3.8004-10.594-5.5838-14.994c-4.7042-11.607-16.524-41.954-24.927-64-6.1674-16.181-6.9018-18.057-9.7866-25-1.3712-3.3-3.2699-8.4086-4.2193-11.352-0.94943-2.9438-4.2097-11.269-7.2451-18.5-3.0354-7.2312-6.8298-16.727-8.4319-21.101-1.6022-4.3743-3.2689-8.4243-3.7038-9-0.43495-0.57567-1.8406-3.9717-3.1237-7.5467s-3.2548-7.8327-4.3816-9.4615c-2.9946-4.3288-2.9691-12.916 0.0396-13.345 2.9507-0.42055 7.3862 8.89 16.344 34.307 2.326 6.6 5.6784 15.6 7.4497 20 1.7714 4.4 4.1645 10.475 5.3181 13.5s3.2224 8.425 4.5975 12c7.25 18.83 11.64 31.35 11.64 33.15 0 1.1105 1.6263 5.692 3.6141 10.181 5.7956 13.089 15.331 36.414 18.87 46.162 1.7974 4.95 3.9988 10.673 4.8919 12.718 0.8931 2.0448 1.6238 4.2047 1.6238 4.7997 0 0.59498 0.69235 2.4206 1.5386 4.057 0.84621 1.6364 2.014 5.5472 2.5951 8.6907 1.1681 6.3189 13.311 32.169 15.193 32.344 5.2467 0.48779 93.064-2.5657 106.17-3.6917 7.6145-0.65406 11.403 0.78616 10.215 3.8829-0.97736 2.547-23.716 3.9638-84.215 5.2474-31.941 0.67768-30.903 0.30946-26.985 9.5781 3.6436 8.6192 4.1456 11.684 2.0463 12.489-2.7092 1.0396-6.1686-3.1995-9.641-11.814-4.0389-10.02 0.7554-9.198-46.566-7.9806-47.109 1.2119-43.352-0.0843-38.241 13.192 2.2206 5.7682 4.8571 12.738 5.8588 15.488 6.8626 18.839 9.01 22.889 12.459 23.496 1.5718 0.27694 12.13 0.21415 23.464-0.13952 11.333-0.35366 29.831-0.75127 41.106-0.88357 19.082-0.22389 27.458-0.70277 50.446-2.884 12.272-1.1645 18.886 1.5221 12.353 5.0182-2.5185 1.3478-36.868 2.7607-72.299 2.9737-60.689 0.36493-57.087-0.81384-49.022 16.045 8.3914 17.54 6.9394 28.419-1.6921 12.678zm-466.29-559.67c-5.6784-3.5267-7.1718-6.1111-7.2981-12.629-0.15777-8.1462 0.26323-9.1022 5.3111-12.06 6.8921-4.039 11.447-0.56917 5.987 4.5605-3.119 2.9301-3.2989 7.7146-0.42742 11.365 2.9375 3.7344 4.4404 3.3174 8.5229-2.3651 5.1769-7.2058 11.389-6.3504 8.5284 1.1743-3.5213 9.2616-13.773 14.21-20.624 9.955zm1750-20.497c-12.65-3.3851-18.67-17.087-9.53-21.691 20.578-10.366 41.81 10.446 22.605 22.157-3.6412 2.2203-2.941 2.2453-13.075-0.46649zm10.417-7.0689c2.3-2.69-2.9-8.56-7.5-8.56-1.7621 0-4.438 3.3535-4.438 5.5618 0 2.8204 10.01 5.3359 11.947 3.0022zm-1474.9 940.14c0-1.6455 0.97786-2.7811 3.3821-3.9276 7.9674-3.7994 5.4737-9.7793-4.8821-11.708-3.85-0.7168-8.4902-1.91-10.312-2.6514-5.86-2.3854-8.8455 9.7566-3.6087 14.676 5.6246 5.284 15.42 7.5774 15.42 3.6103zm132-8.5333c0-1.4557-7.2087-4.0795-14.105-5.134-3.6328-0.5555-14.208-3.3059-23.5-6.1121-9.2922-2.8061-19.595-5.755-22.895-6.5531s-10.95-2.7341-17-4.3023-14.375-3.5991-18.5-4.513c-13.861-3.0713-29.45-6.8132-35.993-8.6395-7.9099-2.2082-8.6577-1.6224-5.8967 4.6192 1.1854 2.6798 2.433 7.1473 2.7724 9.9277l0.61705 5.0552 6 1.2447c3.3 0.6847 9.15 1.414 13 1.6208 3.85 0.2067 8.8022 0.8718 11.005 1.4778 2.3852 0.6562 9.8672 0.9583 18.5 0.747 17.359-0.4248 31.974 0.8307 41.495 3.5648 3.85 1.1055 10.076 2.6452 13.836 3.4216 3.7598 0.7763 7.3598 1.7517 8 2.1674 2.2929 1.489 22.664 2.7543 22.664 1.4078zm811-29.402c0.5262-1.2375 1.6327-6.75 2.4588-12.25 4.2597-28.357 12.302-47.62 30.895-74 3.8764-5.5 8.1953-11.4 9.5975-13.112 1.4022-1.7117 4.778-6.1852 7.5017-9.9411 4.7941-6.6106 8.1103-10.395 23.133-26.399 6.3475-6.7621 23.415-28.287 23.415-29.53 0-0.7916-13.956-7.6417-20.5-10.062-12.035-4.4517-22.177-8.3152-30-11.429-4.4-1.7511-14.75-5.5865-23-8.5231-15.013-5.3438-25.568-9.4621-41.5-16.193-4.675-1.9749-14.575-5.7307-22-8.3462-21.681-7.6373-28.49-10.477-33.133-13.818-2.4019-1.7284-5.6706-3.931-7.2638-4.8947-8.6405-5.2261-17.953-11.76-22.245-15.607-7.8545-7.0402-17.723-11-31.358-12.583-3.575-0.41504-10.469-2.0614-15.32-3.6586-9.4121-3.099-7.9725-1.9561-23.181-18.404-1.78-1.925-5.6185-6.875-8.5301-11s-7.8572-10.425-10.99-14c-3.1331-3.575-11.719-14.577-19.081-24.448-7.3614-9.8715-15.236-19.772-17.499-22-12.576-12.383-43.887-48.963-60.52-70.704-3.0916-4.0411-6.6175-8.2394-7.8352-9.3296-1.2178-1.0902-3.7891-4.1277-5.7141-6.75-3.8538-5.25-11.177-7.1818-11.44-3.0179-0.2547 4.0265 0.45 6.986 2.7389 11.503 6.9301 13.676-6.0658 12-18.311-2.3614-5.2709-6.1817-7.2705-7.8809-8.8169-7.4927-7.8869 1.9799-11.721 3.4517-13.708 5.262-2.0057 1.8271-18.605 12.872-30.292 20.155-2.2 1.3711-7.825 6.3609-12.5 11.089-4.675 4.7276-10.188 9.8524-12.25 11.388-5.0608 3.7688-4.9305 5.7074 0.3836 5.7074 3.6375 0 4.7244 0.60017 9.0554 5 5.6579 5.7479 12.048 6.9663 16.246 3.0976 4.1293-3.8051 15.772-5.6058 16.919-2.6168 3.6653 9.5516-30.103 18.253-37.706 9.7163-1.5562-1.7474-2.6183-1.9881-6.6612-1.5092-2.6453 0.3133-6.1132 0.11523-7.7064-0.44015-2.4903-0.86813-3.3525-0.63782-6.1455 1.6417l-3.2487 2.6515 1.091 8.7797c0.6001 4.8288 1.9756 11.024 3.0567 13.767 4.1903 10.631 1.5993 16.536-6.263 14.273-2.9664-0.85379-3.2781-1.3107-3.3433-4.9008-0.042-2.3202-1.1427-5.8221-2.6586-8.4592-1.4227-2.475-3.3725-7.425-4.3329-11-3.0443-11.332-3.1459-11.398-11.566-7.5372-7.3135 3.3537-13.347 8.4386-10.081 8.4965 5.8865 0.10447 16.367 9.8245 24.521 22.742 1.4343 2.272 3.076 4.4204 3.6483 4.7741 0.5723 0.35369 1.0405 1.8805 1.0405 3.3929 0 3.908 1.9584 5.9728 6 6.3261 5.6286 0.49205 5.7827 6.1916 0.2125 7.8605-4.9683 1.4885-7.6884 0.16121-12.398-6.0499-4.3379-5.7204-6.2389-6.0734-9.9457-1.8471-6.2406 7.1152-8.2585 10.859-8.0211 14.883 0.1254 2.1264-0.3344 4.7669-1.0218 5.8676-2.1213 3.3967 2.9429 4.9166 16.769 5.0327 8.306 0.0698 8.1577 0.18427 15.117-11.669 6.8018-11.586 17.265-26.937 23.309-34.2 2.8439-3.4173 5.0152-6.3262 4.8251-6.4642-0.1901-0.13803-2.3706-1.411-4.8456-2.8289-6.9019-3.9539-17.454-14.153-16.693-16.136 1.165-3.0358 7.2191-1.0118 20.89 6.9837 9.1249 5.3369 8.3109 5.5734 19.251-5.5942 8.9357-9.1215 13.469-12.325 16.776-11.853 4.721 0.67316 2.8422 3.5971-11.53 17.944-7.9217 7.9079-15.667 16.403-17.212 18.878-1.5451 2.475-4.492 6.75-6.5485 9.5-9.7971 13.101-11.39 18.451-3.6016 12.101 6.957-5.6724 12.524-8.1746 14.28-6.4187 2.0404 2.0404 0.9528 4.1197-4.4498 8.5073-10.015 8.1338-23.412 21.897-24.878 25.56-0.8256 2.0625-1.9697 3.75-2.5426 3.75-0.5728 0-3.4435 1.2163-6.3793 2.7028l-5.3379 2.7028-11.262-1.2472c-29.513-3.2684-42.436-7.7056-55.063-18.907-9.1098-8.0811-10.102-8.5813-22.199-11.191-22.786-4.9153-20.905-4.8665-46.5-1.2044-13.196 1.888-16.554 10.76-6.0928 16.097 2.0342 1.0378 5.1449 3.3662 6.9126 5.1742s5.1189 3.8258 7.4471 4.484c2.3282 0.65819 7.3053 2.3701 11.06 3.8043 8.0583 3.0779 8.673 2.8643 8.673-3.0141 0-9.3958-5.6985-15.368-14.718-15.425-14.582-0.092-19.16-6.5057-5.7919-8.115 16.725-2.0134 32.52 11.201 30.049 25.139-1.5781 8.9012-0.29243 13.451 4.8367 17.118 10.191 7.2858 19.18 14.784 24.623 20.539 4.2764 4.5214 7.0232 6.5409 9.9803 7.3371 2.244 0.60424 8.2654 3.0412 13.381 5.4154 5.1154 2.3742 11.596 5.0793 14.402 6.0112 2.8057 0.9319 7.0444 3.172 9.4195 4.978 2.375 1.806 8.5932 5.6413 13.818 8.5229 5.225 2.8816 13.1 7.8843 17.5 11.117 8.4656 6.2199 24.342 14.961 27.173 14.961 0.9267 0 3.0669 0.44246 4.7559 0.98324 6.2823 2.0114 20.536 5.0164 23.748 5.0068 4.1622-0.0125 22.501 2.6468 34.113 4.9467 9.2797 1.8379 9.8861 1.7393 8.7392-1.4208-2.6794-7.383 7.2112-9.4585 18.371-3.8552 3.6666 1.8409 14.769 10.228 15.862 11.982 0.4195 0.67346 3.3445 2.7004 6.5 4.5043s7.6015 4.9964 9.8799 7.0945c6.8217 6.2816 23.832 16.694 49.716 30.433 7.0719 3.7537 14.947 8.2884 17.5 10.077 2.553 1.7888 7.5669 4.7562 11.142 6.5943 11.14 5.7276 22.302 12.068 27.27 15.491 2.6234 1.8074 6.9507 3.8519 9.6163 4.5433s8.6887 3.8137 13.385 6.9383c4.696 3.1247 8.9678 5.6812 9.4929 5.6812 0.525 0 2.9305 1.6984 5.3454 3.7742s7.3158 5.5268 10.891 7.6689c3.575 2.1421 8.272 5.2813 10.438 6.9758 2.1657 1.6946 6.3245 4.4311 9.2416 6.0811 5.3826 3.0446 9.3107 6.0607 25.395 19.5 10.849 9.0645 6.8643 6.3384 47.144 32.254 2.3546 1.5149 7.1598 5.0024 10.678 7.75 7.0439 5.5005 10.589 6.3048 12.102 2.7456zm-797-35.9c0-1.8387-26.227-13.63-37.627-16.917-15.999-4.6127-27.113-7.9301-33.817-10.095-5.9816-1.931-43.264-2.9078-49.295-1.2916-3.0792 0.8253-1.8194 2.3727 1.9318 2.3727 1.6912 0 4.7022 0.4416 6.691 0.9812 1.9888 0.5397 12.166 2.8101 22.616 5.0454s26.2 6.0728 35 8.5279 18.25 4.9197 21 5.4769c2.75 0.5573 10.85 2.3105 18 3.896 15.173 3.3644 15.5 3.4067 15.5 2.003zm-390-42.808c6.875-0.4948 14.3-0.8892 16.5-0.8764 2.2 0.013 20.2-0.2623 40-0.6113s55.575-0.8723 79.5-1.1629c49.973-0.6069 55.719-1.0225 55.051-3.9814-2.5523-11.305 1.7029-13.913 7.0123-4.2979 3.0165 5.4626 3.92 6.3539 6.9521 6.8579 1.9167 0.3187 4.404 1.0785 5.5272 1.6886 1.2221 0.6637 4.4876 0.8874 8.1316 0.557 3.639-0.33 8.2496-0.015 11.458 0.7824 3.0634 0.7616 11.594 1.391 19.868 1.4658 7.975 0.072 17.65 0.4546 21.5 0.85 10.552 1.0834 13.102-1.8458 3.8595-4.4334-2.5806-0.7226-6.1704-2.6118-7.9774-4.1983-2.766-2.4286-3.6152-2.7081-5.3716-1.7681-1.1644 0.6232-3.0637 0.7885-4.2984 0.3742-1.2167-0.4082-4.2372-0.8694-6.7122-1.0248-30.832-1.9356-33.79-2.466-38.666-6.9318-5.6483-5.1737-9.5978-5.9077-24.334-4.5226-11.259 1.0582-20.559 1.7137-51 3.5941-25.192 1.5563-90.09 2.796-141 2.6935-39.583-0.08-57.345 0.2214-59.321 1.0056-3.7548 1.4896-5.9252-0.7509-8.0758-8.3364-2.2633-7.9834-2.3375-7.8461 4.2421-7.8461 4.5116 0 6.2449-0.4419 7.598-1.937 2.3349-2.5801 1.2367-4.0277-2.9366-3.8708-1.8783 0.0706-4.0381-0.38869-4.7996-1.0207-0.7615-0.63199-3.099-1.0416-5.1945-0.91032-4.6303 0.29017-7.6401-4.0215-13.097-18.761-7.4239-20.054-11.952-29.98-13.841-30.343-2.0677-0.39821-2.0601-0.34617 1.2887 8.8435 1.1024 3.025 3.1057 8.875 4.4518 13 1.3462 4.125 4.3495 12.225 6.6742 18 2.3246 5.775 5.7621 15.211 7.6388 20.97 1.8767 5.7584 3.8532 10.911 4.3923 11.45 0.53902 0.539 0.98004 2.7315 0.98004 4.8723 0 4.1395 2.5157 8.2797 6.334 10.424 2.4446 1.373 45.6 0.994 67.666-0.5942zm724-19.193c15.125-0.023 40.325-0.5115 56-1.0848s34.35-1.1694 41.5-1.3247c7.15-0.1552 21.325-0.5608 31.5-0.9012 115-3.8475 133.95-3.8078 146.72 0.307 8.9376 2.8804 10.282 2.9656 10.282 0.6518 0-1.3135-9.1574-5.8016-14.231-6.9746-1.502-0.3473-4.4135-2.3125-6.4699-4.3672l-3.7389-3.7357-17.687 0.0738c-14.78 0.0616-18.107 0.34932-20.246 1.7504-2.3978 1.5711-2.7854 1.5685-6.1603-0.0409-3.4801-1.6595-3.8146-1.641-9.9224 0.5495-5.6181 2.0149-45.15 2.6971-64.045 1.1052-1.8282-0.15403-103.69 1.3108-123 1.7689-33.417 0.79259-43.716 0.80889-56.666 0.09-15.951-0.88557-16.861-0.26768-10.316 7.0111 5.0043 5.566 6.5964 6.2016 13.983 5.5827 2.75-0.2304 17.375-0.4379 32.5-0.4612zm-119-2.7332c0-4.637-5.9214-7.9691-16.339-9.1944-15.448-1.8171-14.685-0.10813 2.8845 6.4552 13.843 5.1713 13.454 5.0922 13.454 2.7392zm-587.21-14.57c2.6362-1.6293 1.1476-2.7964-2.7311-2.1411-3.5856 0.60578-4.2115 0.36697-6.8875-2.628-2.5433-2.8465-3.1626-3.1124-4.556-1.956-5.4061 4.4867 7.7198 10.714 14.175 6.725zm1643.7-8.15c38.218-0.37296 85.608-1.4136 93.5-2.0531 2.475-0.20057 22.725-0.63401 45-0.96319 22.275-0.32919 45-0.79772 50.5-1.0412 31.257-1.3836 97.644-3.1182 188.43-4.9232 80.513-1.6008 76.135-1.0987 73.499-8.4291-2.7743-7.7151 4.615-9.3462 8.9667-1.9793 0.924 1.5641 2.7511 4.1169 4.0604 5.6728l2.3804 2.829 26.332-0.33562c31.366-0.39978 33.344-1.1476 25.815-9.7583-0.9618-1.1-2.4467-3.3828-3.2998-5.0728-2.8196-5.586-3.7158-5.8784-13.463-4.3924-4.796 0.73119-16.145 1.4187-25.22 1.5279-14.597 0.17555-31.322 0.767-57.5 2.0334-4.4 0.21285-22.43 0.7632-40.066 1.223s-32.486 1.0917-33 1.4043c-0.5135 0.31257-16.909 0.86376-36.434 1.2249-19.525 0.36111-42.139 1.0075-50.253 1.4364-8.1141 0.42891-17.28 0.43688-20.369 0.0177-3.3636-0.45644-6.6714-0.35416-8.247 0.25502-1.5594 0.60291-18.921 1.178-42.631 1.4122-22 0.21726-44.95 0.83562-51 1.3741-11.001 0.97926-68.783 2.6132-73.5 2.0784-6.2863-0.71263-60.096 0.16511-65 1.0603-7.4951 1.3682-33.914 2.0668-81 2.1421-29.667 0.0474-40.424 0.38621-43.21 1.361-2.297 0.80348-4.7729 0.99781-6.5 0.51016-4.7668-1.3459-7.2117 1.0646-3.8824 3.8276 2.1516 1.7857 25.676 5.074 36.482 5.0997 6.4403 0.0153 11.92 0.66992 16.611 1.9843 6.2475 1.7506 9.0962 1.9009 26.5 1.3983 10.725-0.30973 36.15-0.72564 56.5-0.92423zm-1685.7-16.29c1.6235-2.0669 1.0924-3.6241-1.3418-3.9345-2.152-0.27442-5.8985 4.1644-4.891 5.7947 0.82568 1.336 4.6093 0.20674 6.2328-1.8602zm-10.601-4.2642c1.014-4.8642-1.0358-6.8936-4.6027-4.5565-3.1534 2.0662-3.2899 5.0066-0.32861 7.0808 2.9993 2.1008 4.0827 1.5462 4.9313-2.5243zm-37.545-27.116c0.40484-0.65504 0.19693-1.3707-0.46202-1.5904-0.65895-0.21965-1.8752-1.7087-2.7027-3.309-1.7525-3.389-3.9333-3.7498-5.4569-0.90296-2.0232 3.7804 6.3772 9.4338 8.6216 5.8023zm72.12-1.56c4.943-2.0321 5.4673-3.25 1.3991-3.25-1.5758 0-4.0093-0.9-5.4077-2-5.7003-4.4839-9.3835-0.56547-4.2726 4.5454 2.9266 2.9266 2.8848 2.9231 8.2812 0.70455zm-57.74-21.3c43.78-1.3226 56.5-1.7728 83.5-2.9558 27.672-1.2124 84.705-2.4837 132.25-2.948 6.5211-0.0637 6.8613-1.6621 1.3045-6.1277-2.4484-1.9676-4.061-4.1673-4.25-5.7971l-0.3-2.62-15.5 0.27c-8.525 0.14722-25.85 0.69726-38.5 1.2223-12.65 0.52505-38.075 1.2084-56.5 1.5186-18.425 0.31019-37.55 0.97526-42.5 1.4779-4.95 0.50268-24.3 1.2123-43 1.5769-18.7 0.36461-40.683 0.79291-48.852 0.95177-17.626 0.34279-20.974 3.6493-12.894 12.735 1.8378 2.0665 0.7403 2.0494 45.246 0.70497zm2116.5-5.9177c2.2455-2.4812 1.4-4.7817-2.0783-5.6547-4.8938-1.2283-8.5488 3.5643-4.8056 6.3014 2.5328 1.852 4.8168 1.6374 6.8839-0.64665zm-1847.5-0.45c9.075-0.1909 17.767-0.85048 19.315-1.4657 1.9166-0.76157 16.121-1.1205 44.5-1.1244 25.424-0.004 44.025-0.4267 47.685-1.0848 3.4504-0.6205 24.272-1.2253 49-1.4232 59.52-0.47644 99.537-1.3988 109-2.5123 4.4-0.51775 33.696-1.1493 65.102-1.4035 31.406-0.25419 59.306-0.70917 62-1.0111 2.6941-0.30189 15.553-0.74271 28.575-0.97961 29.273-0.53253 30.236-0.89011 25.723-9.549-1.9117-3.6677-2.4747-4.0439-6.25-4.1768-7.1156-0.25045-31.998 0.20152-61.149 1.1107-15.4 0.48032-36.55 0.93511-47 1.0106-32.422 0.23435-60.081 0.84371-64.637 1.424-2.3994 0.30561-19.663 0.86321-38.363 1.2391-45.385 0.91232-42.638 0.87052-110.5 1.6813-32.725 0.39097-61.126 0.95811-63.113 1.2603-1.9872 0.3022-16.387 0.76425-32 1.0268-73.985 1.244-71.23 0.87725-69.749 9.2858 1.3725 7.7917 2.1098 8.1525 15.362 7.5178 5.5-0.26341 17.425-0.63512 26.5-0.82603zm492.51-11.602c0.34595-0.55975-0.80164-2.8241-2.5502-5.0318-3.37-4.26-5.96-4.11-5.96 0.34 0 1.1268-0.74474 2.8718-1.655 3.8776-1.5846 1.751-1.417 1.8287 3.941 1.8287 3.0778 0 5.879-0.45798 6.225-1.0177zm12.49-8.95c0-2.2823-0.68648-3.3293-2.9503-4.5-4.1893-2.1664-4.2708-2.0344-1.8374 2.9743 2.5256 5.1984 4.7877 5.9193 4.7877 1.5257zm-36.545-4.6469c4.5233-1.7358 6.0584-12.139 2.3705-16.064-4.316-4.5941-7.6354-0.87323-5.9425 6.6612 0.54463 2.424 0.73746 5.671 0.42851 7.2158-0.57203 2.8602 0.12547 3.3455 3.1435 2.1874zm509.54-3.29c9.625-0.56227 34.15-1.2262 54.5-1.4754 20.35-0.24922 51.85-0.94207 70-1.5397 42.296-1.3926 183.57-4.667 244.5-5.667 37.004-0.60728 83.57-2.1314 101.5-3.3222 8.8-0.58444 37.15-1.5076 63-2.0516 48.767-1.0261 58.25-1.2834 112.5-3.052 63.669-2.0757 131.78-2.998 146.5-1.9838 1.1 0.0758 5.6-0.35134 10-0.94923 6.8143-0.92596 39.568-1.9873 62.75-2.0334 7.8024-0.0155 8.5492-1.1457 3.75-5.6754-1.65-1.5573-3-3.5788-3-4.4922 0-1.9467-8.7133-2.8958-14.236-1.5507-1.7954 0.43732-21.714 1.2314-44.264 1.7647-22.55 0.53327-46.85 1.168-54 1.4106-7.15 0.24256-30.325 0.91272-51.5 1.4892-21.175 0.57652-44.047 1.2804-50.826 1.5642-6.7794 0.28378-24.779 0.75003-40 1.0361-15.221 0.28608-42.524 0.96923-60.674 1.5181-79.936 2.4174-100.07 2.9323-133.5 3.4134-19.525 0.28105-43.825 0.95904-54 1.5066-10.175 0.5476-39.65 1.4638-65.5 2.0361-73.171 1.6198-86.804 1.9333-104.5 2.4034-9.075 0.24106-27.3 0.69213-40.5 1.0024-13.2 0.31025-26.7 0.78837-30 1.0625-5.8677 0.48739-62.702 1.6574-91.5 1.8836-7.975 0.0627-15.111 0.50796-15.858 0.98957-0.7468 0.48162-15.295 1.2146-32.329 1.6289-19.834 0.48235-31.359 1.1411-32.05 1.832-1.8386 1.8386 0.7764 3.7442 6.9739 5.082 3.1694 0.68419 7.5626 1.6468 9.7626 2.1392 6.7353 1.5074 8.881 1.7574 12 1.398 1.65-0.19014 10.875-0.80574 20.5-1.368zm-671.32-5.2024c3.403-1.3476 4.6904-1.3858 78.815-2.3379 69.651-0.89471 62.56 1.5321 55.556-19.011-1.67-4.93-3.05-9.77-3.05-10.75 0-1.59-7.19-7.79-9.05-7.79-0.41015 0-2.2195 2.3625-4.0209 5.25-10.825 17.353-31.824 26.636-44.672 19.75-2.0524-1.1-4.2922-2-4.9773-2-0.68517 0-1.5249-1.1123-1.8661-2.4718-0.57511-2.2914 0.18039-5.0377 5.0715-18.435 3.0486-8.3502 1.9488-8.8613-6.4893-3.0156-25.645 17.766-39.431 25.221-57.041 30.843-3.0476 0.97304-8.4476 3.3014-12 5.1741s-6.6164 3.4875-6.809 3.5884c-3.5942 1.8833 6.0389 2.9822 10.535 1.2018zm1602-18.29c5.785-0.13238 6.055-0.81857 2.8306-7.1916l-2.8336-5.6005-6.081 0.61941c-3.3446 0.34068-15.064 0.85502-26.042 1.143-22.697 0.59531-21.04 0.24451-19.063 4.0356 0.8314 1.5943 1.5145 3.8363 1.5178 4.9821 0.011 3.5777 0.9595 3.6944 23.506 2.8911 12.1-0.4311 23.874-0.8267 26.165-0.87912zm-1504.9-12.11c12.845-9.3465 14.91-15.525 6.2636-18.741l-5.4322-2.0202-2.8178 3.1536c-1.54 1.73-2.81 3.81-2.81 4.62 0 0.80843-1.575 4.4387-3.5 8.0673-5.8702 11.065-2.7139 12.934 8.3042 4.9167zm-79.692-4.8904c2.3858-1.0032 4.017-1.0975 6.1459-0.3553 3.7494 1.307 4.5561 0.91765 22.554-10.887 25.405-16.662 31.522-21.575 30.767-24.71-0.2461-1.0215-0.0237-2.9718 0.49415-4.3339 2.3072-6.0685-2.9185-4.027-16.919 6.6098-4.0406 3.0698-10.791 7.7875-15 10.484-17.882 11.454-26.006 17.361-31.653 23.016-3.3888 3.3933-4.6152 5.0361-2.818 3.7749 1.7501-1.2282 4.6435-2.8476 6.4298-3.5987zm181.25-43c-0.51396-3.7498-0.27427-4.679 1.6122-6.25 2.5469-2.121 7.8617-10.095 11.373-17.062 2.8042-5.5647 2.5075-6.9945-3.0124-14.514-3.5655-4.8572-4.4609-8.5625-2.9046-12.019 1.1459-2.545-0.7653-2.1768-4.3477 0.83758-2.9138 2.4518-3.0426 2.8645-2.455 7.8642 0.65915 5.6084 0.14572 6.8954-7.9297 19.878-4.6152 7.4196-5.1933 18.747-1.0664 20.9 1.5801 0.82398 4.2229 2.2318 5.8729 3.1284 1.65 0.89664 3.1039 1.633 3.2309 1.6364 0.12698 0.003-0.0408-1.9759-0.37285-4.3984zm-23.894-16.543c2.9127-4.2031 5.4198-10.335 5.4922-13.433 0.063-2.7002-6.5922-1.4912-9.5905 1.7423-1.2365 1.3335-4.7718 3.8684-7.8563 5.6332-6.3888 3.6553-6.5548 4.8282-0.9188 6.4924 2.193 0.64751 4.8698 1.6891 5.9484 2.3147 3.1129 1.8054 4.0171 1.4464 6.9251-2.7498zm-41.04-6.31c0.85131-1.2375 2.866-3.15 4.4771-4.25s12.078-8.2056 23.259-15.79c11.181-7.5847 21.455-14.602 22.83-15.594 1.375-0.99208 7.225-4.8814 13-8.643 14.089-9.1772 14.07-9.1645 25.5-16.968 5.5-3.7548 18.325-12.423 28.5-19.263s19.4-13.25 20.5-14.245c1.1-0.99479 4.0643-3.0884 6.5874-4.6526 6.1641-3.8214 28.398-18.923 38.913-26.431 8.0093-5.7187 12.282-8.5975 33-22.234 11.824-7.7821 25.494-17.299 32.982-22.961 3.4784-2.6301 10.643-7.307 15.921-10.393 5.2781-3.0862 12.747-7.8946 16.597-10.685 3.85-2.7907 12.528-8.7875 19.284-13.326 6.7561-4.5387 15.531-10.658 19.5-13.598 11.038-8.1766 16.761-12.105 22.006-15.106 2.6344-1.5071 6.3548-4.1144 8.2676-5.7938l3.4779-3.0536-2.5176-2.3332c-1.3847-1.2833-2.5176-2.9976-2.5176-3.8095 0-1.5756-2.6053-4.6192-3.954-4.6192-0.4462 0-5.2515 3.2811-10.679 7.2912-10.929 8.0758-10.816 7.9977-41.867 28.831-39.614 26.578-42.989 28.892-44 30.177-0.9104 1.157-28.507 19.625-36.248 24.257-1.7862 1.0689-6.2862 4.0184-10 6.5544s-11.252 7.4257-16.752 10.866-13.375 8.671-17.5 11.624c-4.125 2.9528-8.781 6.1631-10.347 7.134-2.797 1.7345-18.084 11.961-40.509 27.099-6.2458 4.2163-15.471 10.145-20.5 13.174-5.0292 3.0297-12.294 7.6663-16.144 10.304-3.85 2.6372-13.975 9.5282-22.5 15.313-8.525 5.785-19.454 13.298-24.286 16.696-4.8321 3.398-14.057 9.7782-20.5 14.178-6.4429 4.4-14.901 10.734-18.796 14.076-3.8951 3.3416-7.9454 6.7166-9.0005 7.5-1.73 1.2844-5.8929 6.4494-7.7973 9.6743-1.5607 2.6428 19.988 1.655 21.814-1zm-50.66-2.75c16.109 0 49.643-25.317 52.707-39.792 0.38315-1.8104 1.7257-4.2854 2.9834-5.5s2.5629-3.392 2.9004-4.8388c0.8525-3.6544 4.1547-4.2677 8.8299-1.6401l3.8116 2.1423 2.747-2.0309c1.5108-1.117 4.2807-2.824 6.1553-3.7934 10.418-5.3871 27.377-22.531 27.005-27.299-0.78542-10.061 6.3857-11.152 10.604-1.6136 3.074 6.9507 9.4359 4.6693 23.983-8.6 1.65-1.5051 7.725-5.788 13.5-9.5176 34.389-22.209 36.244-19.956-14.5-17.602-11.438 0.53058-20.552 0.46627-25-0.17641-14.556-2.1031-22.117-0.5266-29.43 6.1365-1.8866 1.7188-3.7669 3.1251-4.1785 3.1251s-2.8847 2.8125-5.4958 6.25c-9.4682 12.465-28.422 33.331-33.383 36.75-10.483 7.2256-14.726 10.889-22.379 19.319l-7.8662 8.6659 0.68294 5.4661c1.28 10.25-13.89 31.55-22.47 31.55-1.8657 0-3.2782 0.61869-3.6552 1.6009-0.79635 2.0752 1.5734 3.525 3.8075 2.3293 0.96-0.51 4.85-0.93 8.64-0.93zm-688.64-140.3c1.4469-1.8134 5.3076-4.7238 8.5793-6.4676 8.3811-4.4671 9.6918-8.3462 6.0766-17.984-4.0026-10.67-5.8616-16.168-8.3689-24.751-1.2853-4.4-4.4215-13.85-6.9692-21s-6.2021-17.725-8.1208-23.5-4.7189-13.875-6.2226-18-3.7759-10.875-5.0492-15c-1.2734-4.125-3.6068-11.016-5.1855-15.314-1.5787-4.2977-2.8798-8.5727-2.8914-9.5-0.0116-0.92733-1.1778-4.836-2.5916-8.686s-4.3377-12.85-6.4976-20c-4.498-14.89-25.914-80.759-29.424-90.5-1.2882-3.575-3.7301-10.775-5.4264-16-2.6694-8.2223-17.596-52.931-21.033-63-0.65718-1.925-1.6431-4.85-2.191-6.5-0.54788-1.65-2.2496-6.6-3.7816-11-1.531-4.4-6.507-19.48-11.056-33.5s-9.105-27.61-10.124-30.19c-1.019-2.57-1.853-5.49-1.853-6.47 0-0.99-3.549-12.15-7.886-24.82-4.338-12.66-10.001-30.44-12.586-39.52-2.584-9.08-6.01-19.96-7.613-24.2-1.603-4.23-2.915-8.028-2.915-8.431s-1.306-4.138-2.903-8.3c-1.596-4.163-3.37-9.369-3.943-11.569-5.563-21.395-14.376-41.787-14.911-34.5-0.1411 1.925-0.95856 8.675-1.8166 15-2.6884 19.818-2.4506 24.826 1.828 38.5 2.0652 6.6 5.5769 17.85 7.8039 25s4.5249 14.35 5.1066 16c0.58164 1.65 2.1819 7.05 3.5561 12s3.0721 10.125 3.7731 11.5c0.70103 1.375 1.5873 4.075 1.9694 6 0.38214 1.925 2.6237 9.35 4.9813 16.5 3.7088 11.248 8.5922 26.632 14.284 45 0.85224 2.75 2.3867 7.1084 3.4099 9.6854s1.8604 5.4306 1.8604 6.3414c0 1.8025 5.7687 20.687 14.96 48.973 13.088 40.277 14.927 46.168 15.608 50 0.39132 2.2 1.164 5.125 1.7172 6.5 2.6901 6.6873 5.7062 15.657 5.7101 16.981 0.002 0.81437 0.87761 3.7394 1.9449 6.5s4.2269 12.444 7.0214 21.519c2.7944 9.075 5.7862 18.525 6.6484 21 0.86217 2.475 2.0302 6.3 2.5957 8.5 0.56546 2.2 2.2797 7.825 3.8095 12.5s3.7852 11.875 5.012 16 3.0245 9.525 3.9948 12 2.0881 6.525 2.484 9c0.39588 2.475 1.1577 5.0428 1.6928 5.7062 0.81632 1.012 5.7186 16.223 11.374 35.294 0.73402 2.475 2.0378 6.525 2.8972 9 0.85942 2.475 2.6491 8.1 3.977 12.5s4.9775 15.425 8.1101 24.5 6.0596 18.075 6.5044 20c0.44479 1.925 2.6249 8.675 4.8448 15 2.2198 6.325 4.0488 12.53 4.0645 13.79 0.0156 1.2594 0.87771 3.9594 1.9158 6 1.038 2.0406 2.8353 6.7862 3.9939 10.546 3.1474 10.213 3.2956 10.323 7.2495 5.3672zm1108.7-108.33c1.7533-1.1059 2.1324-2.0374 1.6872-4.1459-0.3157-1.4957-0.7777-3.7251-1.0266-4.9542-1.1206-5.5345-10.66-3.3933-11.236 2.522-0.7099 7.2957 4.3992 10.474 10.575 6.5781zm97.154 951.73c-1.9554-1.048-6.4286-3.7626-9.9405-6.0324-3.5119-2.2699-7.5304-4.391-8.93-4.7135-1.3996-0.3226-3.4447-1.1159-4.5447-1.763-2.8878-1.6987-15.014-6.1692-22-8.1103-3.3-0.917-8.25-2.4894-11-3.4942-5.0977-1.8627-18.805-5.0169-30.5-7.0184-11.03-1.8875-15.359-5.8706-8.25-7.5895 1.5125-0.3657 3.9445-1.4992 5.4044-2.519 3.6955-2.5815 9.6334-2.3311 17.276 0.7285 6.1382 2.4573 16.281 5.4401 25.134 7.3917 8.8824 1.9579 26.159 8.6182 31.435 12.118 1.375 0.9122 3.9573 1.9741 5.7385 2.3598s3.4856 1.101 3.7875 1.5895c0.302 0.4885 3.7097 2.5492 7.5729 4.5792 10.808 5.6797 16.778 12.54 10.065 11.567-1.1825-0.1714-3.1533 0.3911-4.3795 1.25-2.7734 1.9426-2.586 1.952-6.8694-0.3438zm376.09-125.59c-0.5516-1.4509-1.0029-3.0584-1.0029-3.5723s-1.0863-3.0721-2.4139-5.6849c-5.5937-11.008-13.37-30.986-16.641-42.75-1.2232-4.4-3.7363-12.638-5.5846-18.307-1.8483-5.6691-3.3606-12.28-3.3606-14.691s-0.399-4.6303-0.8866-4.9316c-0.4877-0.3014-1.1845-2.2405-1.5486-4.3091-0.364-2.0685-1.5916-6.6183-2.728-10.111-1.325-4.072-1.86-7.6198-1.4915-9.8906 0.316-1.9475 0.1601-4.3155-0.3466-5.2622-0.5066-0.9466-1.1072-3.4095-1.3346-5.4729-0.2274-2.0635-1.0115-4.1214-1.7425-4.5732-1.1038-0.6822-1.1047-1.2408-0.01-3.2951 0.7372-1.3776 1.097-3.9542 0.8119-5.815-1.7629-11.505-3.1781-17.221-5.9539-24.05-3.5479-8.7277-3.0618-12.792 1.5299-12.792 6.0228 0 11.048 15.516 13.763 42.5 0.4982 4.95 1.3335 12.15 1.8562 16s1.6202 12.4 2.4389 19c2.2235 17.924 6.0257 35.724 10.146 47.5 3.9623 11.323 7.5698 23.281 7.9959 26.504 0.1457 1.1025 1.629 4.2525 3.2962 7 5.1223 8.4415 8.3617 15.411 8.0106 17.234-0.5546 2.8799-3.6834 2.7299-4.809-0.2305zm151.25-69.18c-3.0925-1.2231-1.1363-4.3564 4.5-7.2077 8.1814-4.1388 20.391-11.436 30.096-17.987 4.5901-3.0984 10.19-6.8688 12.444-8.3788 2.2539-1.5099 6.3733-4.7319 9.1543-7.16 10.605-9.2588 20.258-16.994 25.556-20.478 3.025-1.9892 8.9494-6.0917 13.165-9.1167 4.2159-3.025 10.428-7.0529 13.805-8.9508 3.3766-1.8979 7.8022-4.8546 9.8347-6.5704 2.0325-1.7159 8.2294-5.8588 13.771-9.2066 5.5416-3.3477 13.192-8.1001 17-10.561 26.577-17.171 43.925-24.234 49.903-20.317 5.3775 3.5235 2.0442 7.888-5.2746 6.9064-2.3018-0.3088-4.752-0.097-5.4447 0.4711-0.6928 0.5678-5.2545 3.0837-10.137 5.5908-4.8826 2.5072-9.6076 5.2007-10.5 5.9857-0.8923 0.785-4.5474 2.8766-8.1224 4.6481s-8.75 4.8984-11.5 6.9486-9.3838 6.0882-14.742 8.9733c-5.358 2.8851-10.55 6.2732-11.538 7.529-0.9879 1.2559-2.9041 2.6208-4.2582 3.0331-1.3541 0.4122-3.362 1.5396-4.462 2.5052s-3.1759 2.3764-4.6132 3.1351c-11.851 6.2556-14.821 7.9642-15.36 8.8352-0.3401 0.5503-3.9199 3.4854-7.9552 6.5224-4.0353 3.0371-9.109 7.2094-11.275 9.2719-2.1659 2.0624-6.1563 5.4521-8.8676 7.5326s-7.1502 5.5505-9.8642 7.7111-6.1684 4.1994-7.6764 4.5306c-1.5081 0.3312-3.485 1.7363-4.3933 3.1224-0.9082 1.3862-3.3038 3.21-5.3235 4.053s-5.8531 3.2681-8.5186 5.3892c-4.5286 3.6036-7.8327 4.8318-14.445 5.3694-3.7033 0.3011-6.2083 1.509-6.2083 2.9936 0 2.6626-5.9553 5.981-8.75 4.8757zm-125.88-62.262c0.346-2.1641 2.3726-7.4516 4.5035-11.75 2.1309-4.2985 4.1977-8.9404 4.5928-10.315 0.3951-1.375 2.1881-5.425 3.9844-9 1.7962-3.575 3.5377-7.625 3.8698-9 0.7887-3.2649 9.597-17.524 13.59-22 1.7173-1.925 3.946-4.757 4.9527-6.2934s4.9534-6.2614 8.7705-10.5 10.388-11.982 14.602-17.207c16.377-20.305 27.399-28.728 46.76-35.737 13.977-5.0592 16.128-5.5451 19.269-4.3509 3.7244 1.416 3.7127 4.8586-0.019 5.585-10.965 2.1344-24.769 6.6213-30.17 9.8064-6.4736 3.8178-22.802 19.282-27.264 25.821-1.7484 2.5621-4.4653 5.4183-6.0376 6.3471-2.7247 1.6095-6.0479 5.5323-13.74 16.219-1.9039 2.6451-4.8289 6.193-6.5 7.8843-8.8308 8.9375-23.538 32.571-23.538 37.823 0 1.4854-12.425 27.097-14.239 29.352-2.273 2.8247-4.044 1.4211-3.3874-2.6846zm57.423-140.75c-3.9389-1.0368-3.3367-7.0916 1.0121-10.176 8.9676-6.3613 23.04-8.2447 50.691-6.7842 21.885 1.1559 24.184 1.7366 29.917 7.5566 8.0522 8.175 3.4878 12.711-5.7189 5.6836l-4.5927-3.5057-21.6-1.1849c-28.796-1.5798-38.115-0.4584-43.794 5.2697-2.0838 2.1019-3.8838 3.7695-4 3.7057-0.1163-0.064-0.9778-0.3177-1.9144-0.5643z"/>
</g>
</svg>
