<?xml version="1.0" encoding="utf-8"?>
<!-- Generator: Avocode 2.6.0 - http://avocode.com -->
<svg height="21" width="25" xmlns:xlink="http://www.w3.org/1999/xlink" xmlns="http://www.w3.org/2000/svg" viewBox="0 0 25 21">
    <path stroke-linejoin="miter" stroke-linecap="butt" stroke-width="1" stroke="#313130" fill="#313130" fill-rule="evenodd" d="M 12.07 1 C 8.14 1 4.77 3.5 3.4 7.03 L 3.77 7.03 C 5.12 3.7 8.33 1.35 12.07 1.35 C 16.81 1.35 20.71 5.14 21.02 9.91 L 18.15 7.73 L 17.95 8.02 L 20.98 10.33 L 21.26 10.54 L 21.47 10.25 L 23.72 7.15 L 23.44 6.94 L 21.35 9.81 C 21 4.89 16.97 1 12.07 1" />
    <path stroke-linejoin="miter" stroke-linecap="butt" stroke-width="1" stroke="#313130" fill="#313130" fill-rule="evenodd" d="M 21.32 13.68 L 20.95 13.68 C 19.61 17.01 16.4 19.36 12.66 19.36 C 7.91 19.36 4.02 15.58 3.71 10.81 L 6.57 12.98 L 6.78 12.69 L 3.74 10.39 L 3.46 10.18 L 3.25 10.46 L 1 13.56 L 1.28 13.78 L 3.37 10.9 C 3.73 15.82 7.75 19.71 12.66 19.71 C 16.59 19.71 19.96 17.21 21.32 13.68 Z M 21.32 13.68" />
    <path fill="#313130" fill-rule="evenodd" d="M 9.82 7.82 L 15.18 7.82 L 15.18 13.18 L 9.82 13.18 L 9.82 7.82 Z M 9.82 7.82" />
</svg>