<?xml version="1.0"?>
<svg xmlns:rdf="http://www.w3.org/1999/02/22-rdf-syntax-ns#" xmlns="http://www.w3.org/2000/svg" xmlns:cc="http://web.resource.org/cc/" xmlns:dc="http://purl.org/dc/elements/1.1/" xmlns:sodipodi="http://inkscape.sourceforge.net/DTD/sodipodi-0.dtd" xmlns:svg="http://www.w3.org/2000/svg" id="Layer_1" style="enable-background:new 0 0 413.491 345.095" space="preserve" sodipodi:version="0.32" viewBox="0 0 413.491 345.095" version="1.1" sodipodi:docname="cammello.svg" sodipodi:docbase="F:\openclip\svg da inviare">
  <sodipodi:namedview id="base" bordercolor="#666666" borderopacity="1.0" pagecolor="#ffffff"/>
  <g id="g3">
    <path id="path5" d="m144.58 344.93c13.266-1.491-2.35-12.66-6.757-14.864-8.482-4.244-15.428-9.09-20.719-17.117-8.463-12.84-12.634-29.829-16.216-44.594-2.432-10.021-4.344-15.831 2.027-24.322 6.337-8.446-4.454-15.385 2.252-24.324 11.226-14.965 15.922-34.74 27.026-49.547 3.15-4.202 2.042-8.106 6.531-8.558 2.183-0.22 7.77 4.128 9.685 5.405 5.527 3.686 12.219 5.441 17.566 9.009 2.734 1.825 7.888 0.491 10.135 2.253 6.473 5.074 4.948 20.788 4.279 28.827-0.958 11.497-10.134 15.045-10.134 26.125 0 13.336 2.823 22.392-1.351 36.034-2.411 7.88-8.442 16.776-9.46 24.774-0.804 6.314 0.376 6.134 2.252 12.162 2.202 7.075 2.746 13.493 9.46 16.666 3.876 1.832 19.438 2.552 21.62-1.802 4.271-8.523-12.086-11.489-14.864-16.666-6.013-11.204 8.078-40.305 13.512-49.999 2.961-5.283 8.68-9.528 10.812-14.863 2.87-7.183-2.939-12.093-2.027-17.568 1.791-10.755 6.295-22.097 9.684-32.431 7.875-24.016 18.837 12.455 23.422 21.62 1.809 3.615 3.116 7.584 4.955 11.262 2.175 4.35-2.629 8.107-1.352 13.514 1.201 5.083 7.119 7.906 10.361 11.711 4.953 5.813 8.364 13.146 11.035 20.269 5.576 14.867 7.5 40.763 17.792 52.702 1.501 1.741 5.633 0.714 7.207 2.252 3.589 3.507-0.965 7.336 6.081 9.684 5.383 1.795 19.004 3.77 24.098 0.676 9.818-5.964-2.447-13.258-8.559-19.369-8.574-8.574-18.51-16.372-25.224-26.574-8.801-13.374-10.668-28.433-12.388-43.918-0.827-7.453 7.193-11.12 0.226-20.045-2.231-2.859-9.009-2.461-9.009-5.405 0-9.294-0.285-18.638 0-27.926 0.345-11.224 0.3-29.775 11.035-36.937 14.296-9.535 32.491-12.035 46.17-22.296 13.591-10.194 26.045-19.441 34.234-35.81 4.262-8.521 6.511-16.884 9.909-25.675 2.499-6.466 1.796-4.279 5.855-8.107 2.364-2.229 5.931-3.788 8.559-6.306 6.935-6.645 8.204-13.131 19.818-10.36 4.613 1.101 12.226 9.781 14.864 4.505 1.685-3.366 0.634-6.483-0.225-9.91-1.279-5.107 4.898-6.78 4.729-11.711-0.288-8.407-13.89-17.282-20.945-18.693-8.943-1.788-18.691 2.034-28.152 0.225-7.64-1.46-14.282-5.597-21.62-7.432-7.671-1.919-14.597-2.621-21.172 2.027-2.993 2.116-4.108 5.958-6.756 8.108-2.244 1.822-4.201 1.313-6.757 3.153-7.714 5.555-8.32 13.794 4.955 11.261-5.58 23.151-32.755 85.336-63.061 53.151-14.144-15.021-27.12-31.669-40.54-47.296-11.787-13.725-18.62-29.228-38.737-26.576-19.787 2.609-33.3 16.2-48.647 27.477-12.547 9.219-27.281 11.278-40.54 18.918-14.096 8.123-26.695 21.776-31.53 37.386-6.992 22.573-2.974 44.326-15.315 65.763-7.484 13-18.101 22.118-27.477 32.882-5.057 5.806-8.446 13.841-6.757 21.62 1.162 5.353 4.955 6.36 4.955 12.612 0 10.931-0.568 21.746-0.07 32.686 0.441 9.711 1.187 19.272 2.562 28.898 1.188 8.318 4.25 10.632 6.967 16.793 4.018 9.109 3.362 13.082 13.063 16.665 5.498 2.03 14.847 6.1 20.72 5.856 8.464-0.351 9.652-7.312 3.153-14.864-4.202-4.883-11.977-6.447-16.666-11.711-13.641-15.312-19.527-61.271-8.108-77.477 4.775-6.776 10.8-6.818 11.261-17.115 0.411-9.187-3.364-12.401 4.955-20.72 2.807-2.808 14.989-14.562 18.918-13.514 4.536 1.21-1.073 9.819-3.603 13.063-5.302 6.799-10.776 8.269-7.207 18.467 2.278 6.508 8.826 10.748 13.514 15.314-4.721-10.202 4.029-10.963 6.756-18.467 3.716-10.224-9.888-10.403-5.405-19.368 2.714-5.429 6.294-18.587 14.863-13.964 10.43 5.626 2.251 37.436 0 46.394-4.021 16.004-19.866 23.474-9.458 39.639 7.425 11.532 10.933 23.449 15.99 36.936 4.548 12.13 4.166 29.52 11.487 39.639 1.404 1.94 3.626 3.013 4.955 4.955 0.962 1.407 2.439 5.484 3.153 6.306 3.055 3.516 3.703 4.458 8.559 6.306 8.75 3.3 19.44 2.23 28.86 2.23" fill-rule="evenodd" clip-rule="evenodd" fill="#0E0D0D"/>
    <path id="path7" d="m144.58 344.93c13.266-1.491-2.35-12.66-6.757-14.864-8.482-4.244-15.428-9.09-20.719-17.117-8.463-12.84-12.634-29.829-16.216-44.594-2.432-10.021-4.344-15.831 2.027-24.322 6.337-8.446-4.454-15.385 2.252-24.324 11.226-14.965 15.922-34.74 27.026-49.547 3.15-4.202 2.042-8.106 6.531-8.558 2.183-0.22 7.77 4.128 9.685 5.405 5.527 3.686 12.219 5.441 17.566 9.009 2.734 1.825 7.888 0.491 10.135 2.253 6.473 5.074 4.948 20.788 4.279 28.827-0.958 11.497-10.134 15.045-10.134 26.125 0 13.336 2.823 22.392-1.351 36.034-2.411 7.88-8.442 16.776-9.46 24.774-0.804 6.314 0.376 6.134 2.252 12.162 2.202 7.075 2.746 13.493 9.46 16.666 3.876 1.832 19.438 2.552 21.62-1.802 4.271-8.523-12.086-11.489-14.864-16.666-6.013-11.204 8.078-40.305 13.512-49.999 2.961-5.283 8.68-9.528 10.812-14.863 2.87-7.183-2.939-12.093-2.027-17.568 1.791-10.755 6.295-22.097 9.684-32.431 7.875-24.016 18.837 12.455 23.422 21.62 1.809 3.615 3.116 7.584 4.955 11.262 2.175 4.35-2.629 8.107-1.352 13.514 1.201 5.083 7.119 7.906 10.361 11.711 4.953 5.813 8.364 13.146 11.035 20.269 5.576 14.867 7.5 40.763 17.792 52.702 1.501 1.741 5.633 0.714 7.207 2.252 3.589 3.507-0.965 7.336 6.081 9.684 5.383 1.795 19.004 3.77 24.098 0.676 9.818-5.964-2.447-13.258-8.559-19.369-8.574-8.574-18.51-16.372-25.224-26.574-8.801-13.374-10.668-28.433-12.388-43.918-0.827-7.453 7.193-11.12 0.226-20.045-2.231-2.859-9.009-2.461-9.009-5.405 0-9.294-0.285-18.638 0-27.926 0.345-11.224 0.3-29.775 11.035-36.937 14.296-9.535 32.491-12.035 46.17-22.296 13.591-10.194 26.045-19.441 34.234-35.81 4.262-8.521 6.511-16.884 9.909-25.675 2.499-6.466 1.796-4.279 5.855-8.107 2.364-2.229 5.931-3.788 8.559-6.306 6.935-6.645 8.204-13.131 19.818-10.36 4.613 1.101 12.226 9.781 14.864 4.505 1.685-3.366 0.634-6.483-0.225-9.91-1.279-5.107 4.898-6.78 4.729-11.711-0.288-8.407-13.89-17.282-20.945-18.693-8.943-1.788-18.691 2.034-28.152 0.225-7.64-1.46-14.282-5.597-21.62-7.432-7.671-1.919-14.597-2.621-21.172 2.027-2.993 2.116-4.108 5.958-6.756 8.108-2.244 1.822-4.201 1.313-6.757 3.153-7.714 5.555-8.32 13.794 4.955 11.261-5.58 23.151-32.755 85.336-63.061 53.151-14.144-15.021-27.12-31.669-40.54-47.296-11.787-13.725-18.62-29.228-38.737-26.576-19.787 2.609-33.3 16.2-48.647 27.477-12.547 9.219-27.281 11.278-40.54 18.918-14.096 8.123-26.695 21.776-31.53 37.386-6.992 22.573-2.974 44.326-15.315 65.763-7.484 13-18.101 22.118-27.477 32.882-5.057 5.806-8.446 13.841-6.757 21.62 1.162 5.353 4.955 6.36 4.955 12.612 0 10.931-0.568 21.746-0.07 32.686 0.441 9.711 1.187 19.272 2.562 28.898 1.188 8.318 4.25 10.632 6.967 16.793 4.018 9.109 3.362 13.082 13.063 16.665 5.498 2.03 14.847 6.1 20.72 5.856 8.464-0.351 9.652-7.312 3.153-14.864-4.202-4.883-11.977-6.447-16.666-11.711-13.641-15.312-19.527-61.271-8.108-77.477 4.775-6.776 10.8-6.818 11.261-17.115 0.411-9.187-3.364-12.401 4.955-20.72 2.807-2.808 14.989-14.562 18.918-13.514 4.536 1.21-1.073 9.819-3.603 13.063-5.302 6.799-10.776 8.269-7.207 18.467 2.278 6.508 8.826 10.748 13.514 15.314-4.721-10.202 4.029-10.963 6.756-18.467 3.716-10.224-9.888-10.403-5.405-19.368 2.714-5.429 6.294-18.587 14.863-13.964 10.43 5.626 2.251 37.436 0 46.394-4.021 16.004-19.866 23.474-9.458 39.639 7.425 11.532 10.933 23.449 15.99 36.936 4.548 12.13 4.166 29.52 11.487 39.639 1.404 1.94 3.626 3.013 4.955 4.955 0.962 1.407 2.439 5.484 3.153 6.306 3.055 3.516 3.703 4.458 8.559 6.306 8.75 3.3 19.44 2.23 28.86 2.23" stroke-width="0" stroke-miterlimit="10" fill="none"/>
  </g>
  <metadata>
    <rdf:RDF>
      <cc:Work>
        <dc:format>image/svg+xml</dc:format>
        <dc:type rdf:resource="http://purl.org/dc/dcmitype/StillImage"/>
        <cc:license rdf:resource="http://creativecommons.org/licenses/publicdomain/"/>
        <dc:publisher>
          <cc:Agent rdf:about="http://openclipart.org/">
            <dc:title>Openclipart</dc:title>
          </cc:Agent>
        </dc:publisher>
        <dc:title>Architetto -- Camello</dc:title>
        <dc:date>2009-04-25T20:38:49</dc:date>
        <dc:description>Camel silhouette by Francesco 'Architetto' Rollandin.</dc:description>
        <dc:source>http://openclipart.org/detail/25298/architetto----camello-by-anonymous-25298</dc:source>
        <dc:creator>
          <cc:Agent>
            <dc:title>Anonymous</dc:title>
          </cc:Agent>
        </dc:creator>
        <dc:subject>
          <rdf:Bag>
            <rdf:li>animal</rdf:li>
            <rdf:li>black</rdf:li>
            <rdf:li>black and white</rdf:li>
            <rdf:li>camel</rdf:li>
            <rdf:li>clip art</rdf:li>
            <rdf:li>clipart</rdf:li>
            <rdf:li>exotic</rdf:li>
            <rdf:li>image</rdf:li>
            <rdf:li>mammal</rdf:li>
            <rdf:li>media</rdf:li>
            <rdf:li>png</rdf:li>
            <rdf:li>public domain</rdf:li>
            <rdf:li>silhouette</rdf:li>
            <rdf:li>svg</rdf:li>
          </rdf:Bag>
        </dc:subject>
      </cc:Work>
      <cc:License rdf:about="http://creativecommons.org/licenses/publicdomain/">
        <cc:permits rdf:resource="http://creativecommons.org/ns#Reproduction"/>
        <cc:permits rdf:resource="http://creativecommons.org/ns#Distribution"/>
        <cc:permits rdf:resource="http://creativecommons.org/ns#DerivativeWorks"/>
      </cc:License>
    </rdf:RDF>
  </metadata>
</svg>
