<?xml version="1.0"?>
<svg xmlns:rdf="http://www.w3.org/1999/02/22-rdf-syntax-ns#" xmlns="http://www.w3.org/2000/svg" xmlns:cc="http://web.resource.org/cc/" xmlns:dc="http://purl.org/dc/elements/1.1/" xmlns:svg="http://www.w3.org/2000/svg" id="Layer_1" style="enable-background:new 0 0 272.622 245.087" xml:space="preserve" viewBox="0 0 272.622 245.087" version="1.1">
<g id="g3" clip-rule="evenodd" fill-rule="evenodd">
	<path id="path5" d="m272.62 6.907c0 4.198-1.661 10.526-1.661 8.304-1.795 1.795-13.37 14.06-16.607 13.286-0.27 0-25.184 15.458-27.402 19.929 0.249-1.296-0.305-1.296-1.66 0 0.903-0.266 1.104-0.005 0.604 0.782 6.156 1.412 25.968-1.737 25.968 9.182 0 8.086-18.577 12.456-24.08 12.456 3.813-0.221-5.203 2.821-3.321 0.831 0 5.769-95.09 20.423-94.289 22.301 2.503 5.871 8.322 9.553 1.636 16.245-1.021 1.022-14.153 7.048-14.223 6.824 4.186 13.578-5.276 7.758-12.749 12.138-6.363 3.729 3.165 11.18 5.298 14.853 12.887 22.18 54.521 4.273 60.352-15.896-4.515 0.106-1.836 3.27-2.597 3.999-3.871 3.706-6.936-10.242-2.801-14.378 4.995-4.995-3.019-13.813-6.228-17.022-0.322 0.726-11.91-2.557-13.569-2.486-13.754 0.59 0.49-7.546 9.53-2.689 1.336 0.718 11.891-6.067 14.62-7.281 6.666-2.965 20.519-1.689 25.955 3.321 3.75 3.463 2.684 7.168 8.304 0.831 4.783-5.397 6.267 12.14 5.813 14.947 9.698-1.702 25.426-25.764 28.232-3.322 23.389-11.694 5.16 8.161 4.982 15.777 0 6.414-4.774 23.601-8.571 32.342-1.834 4.222-3.054 11.449-3.054 16.235 0 12.061 0.882 9.369 12.814 7.977 18.571-2.166 9.919 10.988 7.114 8.216 0.035-0.097-30.959 3.846-24.606 8.118 1.955 1.313 17.345-1.476 19.194-1.476 6.636 0 13.694 1.167 19.528 4.151 18.128 9.284-30.457 10.881-32.932 8.07-0.856-0.972-4.979 0.882-6.926 0.233-8.539-2.843-5.467-6.973-4.708-13.548 0.357-3.088-20.29-0.253-3.786-13.569 10.202-8.232 16.986-62.563 11.4-62.563-4.563 0-16.976 1.109-17.854 6.643-0.462 2.928-2.852 27.688-1.275 29.114 6.014 5.439-9.021 49.632-11.18 56.414 10.814 0.13 24.507 2.917 32.385 10.795 10.271 10.271-0.785 9.014-8.222 7.811-2.055-0.332-42.455-7.095-34.91-13.103 9.237-7.356 10.747-27.424 12.832-38.498 2.136-11.353 4.725-22.691 4.618-34.294-0.138-15.254 3.629-18.438-10.854-14.917 6.286 0.923 9.25 4.748 9.134 4.982-2.39 0.757-4.327 2.141-5.813 4.151-6.133 6.133-24.448 10.918-34.253 17.508-7.237 4.866-17.718 9.758-25.533 7.403-6.928-2.09-16.181 1.259-22.005-4.567-3.338-3.337-12.606-10.024-17.853-9.549 4.665 6.17 26.153 47.022 13.579 45.216-4.229-0.606-16.105-5.188-19.662-2.613-3.929 2.844 0.615 25.541 1.616 29.938 0.703 3.089 10.26 25.56 9.343 27.104-7.575 12.747-20.59-58.63-19.823-58.126 0 0.639 0.778 10.795-0.415 10.795-7.303 0-11.308-0.831-19.514-0.831 0.356 1.425 6.205 22.421 2.076 22.421-7.341 0-8.021-3.17-17.022-1.661-12.309 2.065-28.306 9.907-40.688 4.151-14.605-6.787 18.556-13.03 20.833-13.138 4.749-0.222 32.117 3.912 30.707-1.442-2.705-10.268-2.898-9.417-12.512-9.5-3.817-0.032-13.774-4.097-14.947-8.304-1.935-6.934 17.616-6.882 20.759-3.321-6.75-9.099-10.646-27.847-11.803-39.265-0.428-4.218-5.581-22.8-1.78-24.087 0.331-0.112 15.581 5.068 15.36 3.728-1.212-7.376 2.329-2.677 7.012-0.335 4.704 2.353 24.065 16.165 28.578 9.307-7.889 0.716-10.505-8.536-13.286-12.455-3.315-4.675-14.402-1.3-19.099-9.134-9.533-15.902 16.203-26.778 27.402-24.911 0-9.93-16.662-6.109-22.861-8.174-10.216-3.404-14.965 4.414-22.809 4.853 7.118 4.745 24.071 0 32.385 0-2.434 0.057-3.534 3.335 0 2.491-3.874 2.873-23.463 3.352-23.25 2.491-1.841 5.115-12.44-0.906-14.174-3.245-8.133-10.971 21.394-11.701 24.969-11.701-3.52 0.313-13.136-2.793-15.808-4.798-7.417-5.563-18.005-4.458-25.295-9.319-10.228-6.818-27.917-17.753-8.701-22.407 10.227-2.478 67.383 25.781 60.617 31.554-13.688-8.666-42.111-36.242-61.017-26.787-10.805 5.402 21.62 17.859 25.791 19.142 16.611 5.111 32.717 14.082 50.173 12.628-2.221-0.22-15.362-8.541-12.686-10.263 3.856-2.48 11.408 2.677 15.177 3.62-1.037-3.11-4.495-6.946-4.239-10.286 0.429-5.61 12.941 5.703 13.788 6.549 3.578 3.578 17.104 18.258 16.111 22.869-1.487 6.904-10.051-13.484-13.531-8.283-2.693 4.025-6.014 0.105-8.809 6.369-2.999 6.722 5.199 8.394 7.474 13.506 5.526-5.526 24.464-16.704 30.724-5.813-4.425-4.009 49.476-55.428 57.048-59.971 19.69-11.814 65.69-47.301 87.43-25.557"/>
	<path id="path7" d="m268.47 8.567c-30.751 36.059-78.963 46.54-120.4 67.26 3.287-7.434 26.571-23.446 26.571-27.402 8.05-10.655 83.86-60.816 93.83-39.858" fill="#FEFEFE"/>
	<path id="path9" d="m257.68 26.835" fill="#FEFEFE"/>
	<path id="path11" d="m237.75 55.068c2.388-0.241 4.483 0.418 6.286 1.975 3.631 6.567-86.166 23.821-90.983 25.428 6.354-4.234 22.755-10.795 30.309-10.795 5.56 0 9.858-4.585 15.361-6.643 14.42-5.394 23.04-9.965 39.02-9.965" fill="#FEFEFE"/>
	<path id="path13" d="m186.26 64.202c-1.661 0.831-3.321 1.661-4.982 2.491 1.66-0.83 3.32-1.66 4.98-2.491" fill="#FEFEFE"/>
	<path id="path15" d="m198.72 64.202" fill="#FEFEFE"/>
	<path id="path17" d="m95.753 72.506c-0.01 0.432-5.042-8.175-5.813-8.304 2.268 0.8 6.373 5.355 5.813 8.304" fill="#FEFEFE"/>
	<path id="path19" d="m231.1 70.845h-0.83 0.83"/>
	<path id="path21" d="m221.14 73.336c1.11 0 1.11 0 0 0" fill="#FEFEFE"/>
	<path id="path23" d="m217.82 74.167c1.1 0 1.1 0 0 0" fill="#FEFEFE"/>
	<path id="path25" d="m47.592 89.944c1.029-0.349 3.073-0.28 0 0" fill="#FEFEFE"/>
	<path id="path27" d="m90.771 97.417c12.873 8.221-29.063 29.022-29.063 12.871 0-7.607 1.316-13.033 10.406-16.063 10.956-3.653 11.902 3.092 18.657 3.19" fill="#FEFEFE"/>
	<path id="path29" d="m128.97 103.23c-6.453 6.453-26.572 15.892-26.572 0.415 0-12.557 29.47-12.552 26.57-0.41" fill="#FEFEFE"/>
	<path id="path31" d="m81.637 104.06c-0.828 2.303-4.982 0.957-4.982-0.415 0-4.5 3.808-0.27 4.982 0.42"/>
	<path id="path33" d="m230.27 108.21c-6.569 2.19-13.357 3.623-19.93 5.813 4.23-4.733 13.959-10.349 19.93-12.456v6.65" fill="#FEFEFE"/>
	<path id="path35" d="m114.02 104.06c1.956 8.183-8.63-0.853-4.396-1.7 1.6 0.25 3.06 0.82 4.4 1.7"/>
	<path id="path37" d="m204.53 104.89c-2.235-2.418-6.011 2.347-7.473 3.321 1.05-0.27 9.09-9.045 7.47-3.32" fill="#FEFEFE"/>
	<path id="path39" d="m241.07 108.21c2.56 2.12-4.644 11.606-4.152 14.947 0-2.911-1.838-9.317 0.83-11.625 0.037 0 2.014-2.709 4.115-4.302 1.46-1.2 1.19-0.88-0.79 0.97" fill="#FEFEFE"/>
	<path id="path41" d="m104.89 116.52c-0.875 5.169-9.37 17.475-17.438 12.456-9.202-5.727 9.158-17.524 8.304-21.59 1.497 3.43 4.824 8.39 9.134 9.13" fill="#FEFEFE"/>
	<path id="path43" d="m180.45 115.69c0.696-4.514 7.542-3.847 8.304-8.304 0.5 2.7-6.4 7.62-8.3 8.3" fill="#FEFEFE"/>
	<path id="path45" d="m247.71 111.53"/>
	<path id="path47" d="m197.06 114.02c1.033 0-9.889 5.493-10.795 5.813 3.606-2.491 6.651-5.536 9.134-9.134 0.56 1.11 1.11 2.22 1.67 3.32" fill="#FEFEFE"/>
	<path id="path49" d="m246.88 114.02h-1.661 1.66" fill="#FEFEFE"/>
	<path id="path51" d="m244.39 115.69" fill="#FEFEFE"/>
	<path id="path53" d="m114.85 119.01c0.479 2.605-4.152 3.876-4.152 4.567 0.657-2.443 0.104-4.519-1.661-6.228 2.4-2.19 3.49 1.6 5.81 1.66" fill="#FEFEFE"/>
	<path id="path55" d="m243.56 119.84c1.36-1.36 0.47 0 0 0"/>
	<path id="path57" d="m81.637 124.82c-0.786-0.865-1.074-4.936 0.831-4.982-0.278 1.66-0.554 3.32-0.831 4.98" fill="#FEFEFE"/>
	<path id="path59" d="m185.43 120.67" fill="#FEFEFE"/>
	<path id="path61" d="m242.73 121.5c-3.12 3.12-0.34-0.8 0 0" fill="#FEFEFE"/>
	<path id="path63" d="m241.07 124.82" fill="#FEFEFE"/>
	<path id="path65" d="m241.07 125.65" fill="#FEFEFE"/>
	<path id="path67" d="m57.556 131.46c1.289 9.341 35.505 72.665 2.233 54.201-3.147-1.746-9.067-15.934-9.859-20.824-2.058-12.711-6.49-24.307-6.49-37.528 4.511 2.04 9.217 3.43 14.116 4.15" fill="#FEFEFE"/>
	<path id="path69" d="m86.619 141.43c-0.826 8.256 1.104 32.719-6.643 37.366-2.631-15.786-9.762-28.479-14.947-43.179 6.878 2.42 13.877 7.05 21.59 5.81" fill="#FEFEFE"/>
	<path id="path71" d="m108.21 179.62c-24.45 3.893-15.777-20.774-15.777-34.876 4.97 10.95 9.117 24.9 15.777 34.88" fill="#FEFEFE"/>
	<path id="path73" d="m131.46 219.48c0 6.912-4.715 8.449-8.216 12.147 0.405-0.429-18.482 15.046-16.834 9.152 4.06-14.54 7.88-31.45 25.05-21.3"/>
	<path id="path75" d="m125.65 219.48c0.682 4.033-4.355 6.847-6.643 9.134 2.26-3.58 1.54-9.13 6.64-9.13" fill="#FEFEFE"/>
	<path id="path77" d="m122.32 221.97c-1.46 1.47-0.76 0.41 0 0"/>
	<path id="path79" d="m86.619 236.92c2.291 1.225 3.951 3.023 4.982 5.397 0 1.996-21.027-8.017-22.174-11.093-2.148-5.762 4.711-7.563 8.794-4.873 4.708 3.09 4.943 7.51 8.398 10.56"/>
	<path id="path81" d="m79.146 232.77c-1.733-0.999-3.394-2.106-4.982-3.321 2.592-0.27 4.253 0.83 4.982 3.32" fill="#FEFEFE"/>
</g>
<metadata><rdf:RDF><cc:Work><dc:format>image/svg+xml</dc:format><dc:type rdf:resource="http://purl.org/dc/dcmitype/StillImage"/><cc:license rdf:resource="http://creativecommons.org/licenses/publicdomain/"/><dc:publisher><cc:Agent rdf:about="http://openclipart.org/"><dc:title>Openclipart</dc:title></cc:Agent></dc:publisher><dc:title>Architetto -- zanzara 01</dc:title><dc:date>2010-03-28T12:32:54</dc:date><dc:description>Drawing by Francesco 'Architetto' Rollandin. From OCAL 0.18 release.</dc:description><dc:source>http://openclipart.org/detail/35005/architetto----zanzara-01-by-anonymous</dc:source><dc:creator><cc:Agent><dc:title>Anonymous</dc:title></cc:Agent></dc:creator><dc:subject><rdf:Bag><rdf:li>animal</rdf:li><rdf:li>black and white</rdf:li><rdf:li>cartoon</rdf:li><rdf:li>clip art</rdf:li><rdf:li>clipart</rdf:li><rdf:li>insect</rdf:li><rdf:li>mosquito</rdf:li></rdf:Bag></dc:subject></cc:Work><cc:License rdf:about="http://creativecommons.org/licenses/publicdomain/"><cc:permits rdf:resource="http://creativecommons.org/ns#Reproduction"/><cc:permits rdf:resource="http://creativecommons.org/ns#Distribution"/><cc:permits rdf:resource="http://creativecommons.org/ns#DerivativeWorks"/></cc:License></rdf:RDF></metadata></svg>
