<?xml version="1.0"?>
<svg xmlns:rdf="http://www.w3.org/1999/02/22-rdf-syntax-ns#" xmlns="http://www.w3.org/2000/svg" xmlns:cc="http://web.resource.org/cc/" xmlns:dc="http://purl.org/dc/elements/1.1/" xmlns:sodipodi="http://inkscape.sourceforge.net/DTD/sodipodi-0.dtd" xmlns:svg="http://www.w3.org/2000/svg" id="Layer_1" style="enable-background:new 0 0 438.02 462.271" xml:space="preserve" sodipodi:version="0.32" viewBox="0 0 438.02 462.271" version="1.0" sodipodi:docname="Bicicletta Cycle.svg" sodipodi:docbase="F:\openclip\svg2">
<sodipodi:namedview id="base" bordercolor="#666666" borderopacity="1.0" pagecolor="#ffffff"/>
<g id="g3">
	<polygon id="polygon5" points="282.86 55.104 282.86 55.421 283.01 55.58 283.01 56.215 283.17 56.533 283.17 57.168 283.33 57.327 283.49 57.803 283.81 58.438 283.97 59.074 284.12 59.392 284.12 59.868 284.28 60.344 284.6 60.821 284.92 61.773 284.92 62.409 285.24 62.726 285.4 63.203 285.71 63.838 285.87 64.314 286.03 64.632 286.03 65.426 286.35 65.902 286.51 66.378 286.51 66.855 286.67 67.49 286.67 67.966 286.83 68.443 287.14 68.919 287.46 69.873 287.46 70.19 287.94 71.143 288.1 71.619 288.42 72.254 288.73 72.572 288.89 72.89 289.21 73.208 289.21 73.366 289.53 73.525 289.68 73.842 290 74.16 290.16 74.16 290.32 74.319 291.11 74.319 291.27 74.16 291.27 74.16 291.43 74.16 288.1 87.976 288.1 87.817 287.78 87.817 287.46 87.658 286.67 87.5 286.51 87.34 284.76 86.547 283.17 85.435 282.54 84.8 281.9 84.323 281.27 83.529 280.63 82.894 280.16 82.258 279.84 81.465 279.2 80.83 279.04 80.194 278.25 78.448 278.09 77.813 277.77 77.018 277.3 75.113 277.3 73.525 277.14 72.89 277.14 69.396 277.3 68.761 277.3 66.696 277.46 66.061 277.46 65.426 277.77 64.473 277.77 64.156 278.09 63.679 278.25 63.043 278.57 62.409 278.88 61.932 279.04 61.456 279.36 60.821 279.68 60.503 279.84 59.868 280.16 59.55 280.31 59.074 280.63 58.598 280.79 58.122 281.11 57.803 281.27 57.486 281.59 57.168 281.59 56.851 281.9 56.533 281.9 56.374 282.22 56.057 282.38 55.739 282.38 55.58 282.7 55.263 282.7 55.104" clip-rule="evenodd" fill-rule="evenodd"/>
	<polygon id="polygon7" points="289.68 80.988 291.11 74.001 291.59 74.16 293.97 74.16 294.29 74.001 295.24 74.001 295.72 73.842 296.36 73.525 296.83 73.525 297.15 73.366 298.1 73.366 298.42 73.048 299.37 72.731 299.69 72.572 300.17 72.572 300.48 72.254 300.96 71.937 301.28 71.778 301.75 71.619 302.23 71.301 302.55 70.984 302.87 70.825 303.02 70.825 303.5 70.507 303.82 70.19 304.3 69.873 305.09 69.079 306.04 68.443 306.36 68.126 306.84 67.49 307.16 67.172 307.79 66.696 308.11 66.22 308.11 66.061 308.58 65.744 308.9 65.108 309.38 64.632 309.7 63.996 310.33 63.362 311.6 61.615 311.92 60.662 312.55 60.027 312.55 59.868 313.35 58.438 313.67 57.645 314.3 56.851 314.46 56.057 315.1 55.104 315.41 53.993 316.05 53.039 316.05 52.88 316.21 52.245 317.16 50.181 317.95 47.958 337.81 55.898 337.65 56.057 336.54 58.756 335.9 59.868 335.26 61.297 331.14 68.126 330.34 69.079 329.71 70.19 328.91 71.143 328.91 71.143 325.9 75.113 321.92 79.083 321.29 79.559 321.13 79.718 319.54 80.988 318.75 81.782 317.8 82.258 316.21 83.529 313.67 84.958 312.87 85.276 311.92 85.911 311.12 86.07 311.12 86.229 307.79 87.658 306.04 87.976 305.09 88.452 303.5 88.77 302.55 88.77 301.92 89.087 300.96 89.087 300.17 89.246 299.21 89.246 298.42 89.405 296.04 89.405 295.24 89.246 294.61 89.246 293.81 89.087 293.18 89.087 290.16 88.452 289.53 88.452 288.89 88.135 288.1 87.976" clip-rule="evenodd" fill-rule="evenodd"/>
	<polygon id="polygon9" points="327.96 52.086 317.95 48.117 318.43 46.846 318.59 46.052 318.75 45.576 318.75 45.1 319.07 43.353 319.07 42.717 319.22 41.765 319.22 39.224 319.07 38.747 319.07 37.953 318.75 36.524 318.75 35.889 318.43 35.095 318.27 34.459 317.95 33.666 317.95 33.507 317.8 33.189 317.64 32.554 317 31.284 316.68 30.808 316.21 30.331 316.05 29.537 315.57 29.219 315.25 28.584 315.1 28.584 314.78 28.267 314.46 27.79 312.87 26.202 312.24 25.885 311.92 25.566 311.44 25.249 311.12 25.249 311.12 25.249 310.49 24.773 310.17 24.614 309.7 24.455 309.38 24.455 308.9 24.296 308.58 24.138 307.79 24.138 307.31 23.979 306.36 23.979 306.04 24.138 305.25 24.138 304.61 24.455 304.3 24.455 303.82 24.614 303.82 24.773 303.34 24.932 302.87 25.249 302.55 25.408 301.6 26.043 300.64 26.996 300.17 27.314 283.97 9.687 286.03 7.623 291.75 3.811 293.34 3.176 294.77 2.382 295.08 2.382 296.36 1.747 300.96 0.635 302.71 0.476 304.3 0.159 305.88 0 307.47 0 310.17 0.317 310.49 0.317 312.08 0.635 313.67 0.794 317.95 2.223 322.08 4.129 327.01 7.464 329.23 9.369 333.84 14.769 334 15.086 334.79 16.197 335.58 17.627 336.54 18.738 339.08 24.296 339.4 25.726 340.35 28.584 341.46 34.778 341.46 36.366 341.62 37.953 341.46 39.224 341.46 41.288 341.3 42.876 340.67 46.211 340.51 47.799 340.03 49.387 339.71 50.975 339.4 51.61 339.08 52.722 337.81 55.898" clip-rule="evenodd" fill-rule="evenodd"/>
	<polygon id="polygon11" points="277.3 47.164 275.39 47.164 271.58 48.117 265.7 50.34 265.54 50.34 263.8 50.499 254.74 53.039 254.11 53.039 251.88 53.833 249.66 54.31 245.22 55.898 243.95 56.533 242.83 56.692 233.46 60.503 233.3 60.662 215.99 69.237 213.93 70.666 213.61 70.825 205.19 76.701 197.73 83.212 196.94 83.688 191.38 89.405 189.79 91.47 189.31 91.628 187.72 94.01 185.82 96.233 179.31 106.71 178.35 108.78 177.88 109.57 174.22 118.31 174.22 118.46 171.36 128.31 171.21 128.31 169.46 138.48 168.51 151.18 168.66 159.91 144.68 160.55 144.68 145.78 145.8 136.09 145.8 135.3 148.34 122.75 148.5 122.44 152.31 110.37 155.64 102.74 161.52 92.104 165.17 86.864 166.12 85.911 168.35 82.735 173.27 77.177 181.37 69.555 184.23 67.49 186.93 65.108 195.66 59.233 204.88 54.151 216.47 49.229 216.47 49.229 228.06 45.576 228.38 45.417 240.61 42.717 249.82 41.606 263.32 41.606 265.38 41.923 265.54 41.923 273.33 44.623 274.6 45.576 276.5 46.529" clip-rule="evenodd" fill-rule="evenodd"/>
	<polygon id="polygon13" points="146.11 186.43 146.11 186.27 146.91 186.27 148.18 185.96 149.29 185.96 151.51 185.64 154.37 185.64 155.96 185.32 157.71 185.32 159.61 185 163.74 184.84 172.64 185.64 175.02 185.64 180.26 186.27 180.89 186.27 211.07 190.72 213.93 191.51 219.8 192.47 239.02 197.55 255.38 203.74 263.32 208.03 266.82 210.73 271.26 215.49 273.33 219.62 274.12 222 274.6 224.54 274.6 227.88 274.44 228.67 264.43 226.93 254.11 226.29 253.47 225.5 253.47 225.34 252.84 224.7 246.8 220.73 243.47 218.99 242.04 218.51 241.56 218.19 211.39 206.92 210.12 206.76 162.31 193.1 146.43 186.43" clip-rule="evenodd" fill-rule="evenodd"/>
	<polygon id="polygon15" points="264.43 226.93 274.44 228.67 273.01 235.18 272.22 236.93 272.06 237.88 264.43 254.88 264.12 255.19 256.33 269.33 255.7 270.12 236.8 298.86 236.48 299.5 204.24 339.36 202.65 340.79 201.22 342.38 199.48 343.8 198.05 345.23 192.17 349.68 190.58 350.63 189.15 351.75 185.66 353.17 183.59 353.81 177.88 330.31 178.83 329.83 179.46 329.35 180.26 328.56 181.21 327.92 185.82 323.64 185.98 323.64 189.95 319.35 191.54 317.92 196.14 312.84 196.94 311.73 197.73 310.93 207.26 299.02 207.74 298.86 245.22 244.87 245.37 244.4 251.09 234.07 252.68 230.42 252.84 229.63 253.32 228.52 253.63 227.4 254.11 226.29" clip-rule="evenodd" fill-rule="evenodd"/>
	<polygon id="polygon17" points="266.5 86.547 266.34 86.547 266.34 87.023 266.02 87.658 265.7 87.976 265.54 88.452 265.54 88.928 265.07 89.405 263.96 92.104 263.8 92.74 262.68 95.28 261.26 97.663 260.14 99.092 258.56 101.63 257.92 102.43 257.92 102.74 257.6 103.38 256.33 105.13 255.86 105.92 255.38 107.03 254.74 107.83 254.43 108.78 253.79 109.73 253.63 109.73 253.47 110.52 252.04 113.07 250.77 116.56 250.62 116.88 250.62 117.35 250.3 118.15 249.98 119.74 249.98 120.37 249.66 121.64 249.66 122.28 249.82 122.75 249.82 123.23 249.98 123.86 249.98 124.18 250.14 124.66 250.3 124.98 250.3 125.45 251.09 126.25 251.09 126.56 251.25 126.56 251.88 127.2 236.64 138.63 236.48 138.48 236.16 138.32 235.84 137.2 234.89 135.93 232.67 129.9 232.19 125.45 232.19 124.02 232.51 121.48 232.51 121.01 232.67 119.74 233.3 117.04 235.21 112.11 236.16 110.21 236.64 109.73 237.27 108.78 238.54 106.4 241.72 102.43 242.36 101.79 242.52 101.47 244.26 99.727 245.06 98.774 247.6 96.233 249.35 94.963 249.35 94.804 251.09 93.534 251.88 92.74 253.63 91.47 254.59 90.993 256.17 89.722 256.97 89.405 256.97 89.405 260.46 88.135 261.26 87.976 262.05 87.658 264.43 87.023 264.75 86.864 265.38 86.864 265.7 86.706 266.02 86.706 266.18 86.547" clip-rule="evenodd" fill-rule="evenodd"/>
	<polygon id="polygon19" points="244.1 132.76 251.57 126.56 252.2 127.52 252.68 127.83 253 128.15 257.76 130.69 258.72 131.01 259.83 131.65 260.94 131.96 261.1 132.12 273.96 135.93 275.39 136.09 276.34 136.41 284.44 138 285.4 138.32 287.14 138.48 290.48 139.11 292.22 139.27 292.7 139.43 301.28 140.7 302.23 140.7 303.66 141.02 308.42 141.49 309.7 141.81 311.12 141.81 317.8 142.6 319.7 142.6 321.77 142.92 322.56 142.92 323.51 143.08 324.78 143.08 325.42 143.24 326.37 143.24 326.53 143.4 327.01 143.4 325.26 167.22 324.46 167.22 323.99 167.06 321.29 167.06 319.54 166.74 318.59 166.74 316.21 166.42 315.25 166.42 309.7 165.79 308.42 165.47 306.84 165.47 288.73 162.29 288.1 162.29 286.19 161.98 284.44 161.34 282.54 161.02 280.79 160.55 278.88 160.23 277.14 159.6 275.23 159.28 270.63 157.85 269.67 157.69 266.18 156.42 264.27 155.94 261.42 154.83 260.78 154.67 252.52 151.02 252.36 151.02 251.09 150.23 249.35 149.43 243.79 145.78 243.15 145.14 242.36 144.83 238.7 141.33 237.59 140.06 236.64 138.63" clip-rule="evenodd" fill-rule="evenodd"/>
	<polygon id="polygon21" points="337.33 115.29 337.33 115.29 337.65 115.29 337.96 115.45 338.12 115.45 338.44 115.61 339.08 115.61 339.71 115.77 340.03 115.92 340.51 115.92 342.09 116.4 342.41 116.4 342.57 116.56 342.89 116.72 343.21 117.04 344.16 117.67 344.48 117.99 344.95 118.15 345.75 118.94 346.22 119.1 346.7 119.58 346.86 119.9 347.97 120.69 348.13 120.69 348.29 121.01 348.77 121.48 349.24 121.64 351.46 123.86 351.78 124.02 352.42 124.5 354.16 126.25 355.12 126.88 355.28 127.2 355.44 127.36 355.91 127.52 356.39 127.99 357.34 128.63 357.66 128.95 357.66 129.1 358.29 129.26 358.61 129.74 359.09 129.9 359.4 130.38 359.88 130.53 360.2 130.85 360.68 131.01 361.63 131.65 361.95 131.65 362.42 131.96 362.58 132.12 350.04 150.07 350.04 150.07 350.04 149.91 349.56 149.59 348.29 148.32 346.86 147.21 346.22 146.57 345.75 145.94 345.59 145.78 344.16 143.87 343.52 143.24 343.21 142.6 342.89 142.44 342.57 141.81 342.09 141.17 341.78 140.54 340.82 139.27 340.67 138.95 340.51 138.48 340.03 137.84 339.08 135.77 338.76 135.3 338.28 134.35 338.12 133.71 337.49 132.44 337.33 131.65 336.7 130.38 336.22 128.31 335.9 127.68 335.58 126.56 335.58 125.77 335.26 124.66 335.26 123.39 335.11 122.91 335.11 122.44 334.95 121.8 334.95 120.85 334.79 120.37 334.79 120.21 335.11 119.9 335.26 119.26 335.58 118.94 335.58 118.31 335.9 117.99 336.06 117.35 336.22 117.04 336.54 116.72 336.54 116.4 336.7 116.08 336.85 115.92 337.01 115.61 337.01 115.61 337.17 115.29" clip-rule="evenodd" fill-rule="evenodd"/>
	<polygon id="polygon23" points="356.39 141.02 362.58 132.12 363.06 132.44 364.01 132.76 364.33 133.08 365.76 133.55 366.08 133.71 366.55 134.03 366.71 134.03 366.87 134.19 367.19 134.19 367.66 134.5 367.98 134.5 368.46 134.82 368.78 134.82 369.09 134.98 369.25 134.98 369.57 135.14 369.89 135.14 370.36 135.3 370.52 135.46 371 135.46 371.16 135.62 371.48 135.77 371.64 135.77 371.95 135.93 372.59 135.93 372.91 136.09 373.38 136.09 373.7 136.25 373.86 136.25 374.49 136.57 375.45 136.57 375.61 136.73 376.88 136.73 376.88 136.89 377.99 136.89 377.51 161.02 375.76 161.02 375.45 160.87 374.97 160.87 374.65 160.71 374.02 160.71 373.7 160.55 373.06 160.55 372.75 160.39 371.95 160.39 371.48 160.23 371.16 160.23 370.68 160.07 370.36 159.91 369.73 159.91 369.25 159.75 368.94 159.6 368.46 159.6 367.82 159.44 367.5 159.28 364.8 158.48 364.33 158.17 363.22 157.85 362.74 157.53 361.95 157.37 361.63 157.05 361 156.9 360.36 156.58 359.88 156.26 359.56 156.1 359.25 156.1 358.61 155.78 357.98 155.31 357.5 155.15 356.86 154.67 356.23 154.51 355.91 154.04 355.59 154.04 355.12 153.56 354.32 153.24 353.85 152.77 353.21 152.29 352.58 151.97 352.26 151.66 351.94 151.5 351.46 151.02 350.67 150.54 350.04 150.07" clip-rule="evenodd" fill-rule="evenodd"/>
	<polygon id="polygon25" points="129.44 278.22 129.6 279.33 130.07 280.28 130.23 281.4 131.02 283.62 131.02 284.89 131.66 287.11 131.98 289.65 132.46 290.92 132.77 293.31 132.77 294.58 133.09 295.69 133.41 298.39 133.41 299.66 133.57 300.45 133.57 300.93 133.72 302.2 133.72 303.63 134.04 306.32 134.04 310.3 134.2 311.57 134.2 317.28 134.04 318.72 134.04 323.16 133.72 325.7 133.72 327.13 133.57 328.56 133.57 330.15 133.41 331.58 133.41 333.01 133.09 334.44 133.09 335.86 132.77 337.45 132.77 338.88 131.66 345.71 131.66 346.19 130.07 355.4 129.6 356.83 129.44 358.25 127.85 364.45 127.69 365.72 125.94 365.56 124.36 364.92 125.15 362.07 125.78 360.48 129.6 345.87 129.6 345.39 129.91 344.44 130.23 343.01 130.39 341.58 131.02 338.56 131.18 337.14 131.5 335.71 131.98 331.42 132.3 329.99 132.46 328.4 132.77 326.97 132.77 325.7 133.09 323 133.09 321.41 133.41 318.56 133.41 317.28 133.57 315.7 133.57 304.9 133.41 303.63 133.41 300.45 133.09 298.39 133.09 297.12 132.77 295.85 132.77 294.73 132.46 292.19 132.14 290.92 131.66 287.11 131.02 284.89 130.87 283.62 130.23 281.4 130.07 280.28 129.6 279.33" clip-rule="evenodd" fill-rule="evenodd"/>
	<polygon id="polygon27" points="125.94 365.56 127.69 365.72 126.9 368.1 126.9 368.58 113.24 406.21 110.7 410.5 110.7 410.98 99.738 428.92 98.309 430.67 97.038 432.58 85.604 445.28 82.585 447.98 82.109 448.29 81.156 449.25 77.821 451.79 76.233 452.74 73.216 454.96 66.704 458.46 60.034 460.68 59.875 460.84 54.634 461.95 49.075 462.27 45.74 461.95 43.834 461.95 40.181 461.16 40.022 461 39.864 461 44.311 445.76 46.693 446.55 48.916 446.87 49.87 446.87 51.934 447.18 53.204 447.02 54.316 447.02 56.698 446.71 56.698 446.71 61.622 445.6 64.321 444.48 65.592 444.17 66.863 443.37 69.563 442.1 76.709 437.66 85.286 430.51 90.844 424.79 90.844 424.63 92.115 423.05 93.703 421.46 104.18 407.17 104.5 407.01 115.46 387.32 122.61 370.16 123.4 367.46 123.56 367.15 124.36 364.92" clip-rule="evenodd" fill-rule="evenodd"/>
	<polygon id="polygon29" points="42.246 453.38 39.864 461 36.846 460.2 31.764 457.98 26.999 455.12 21.441 450.36 17.629 446.07 16.518 444.48 15.247 443.06 8.576 430.67 5.559 422.73 5.082 420.66 4.288 418.6 3.812 416.22 3.494 415.42 3.335 414.15 2.7 411.93 0.794 400.34 0.794 397.95 0.318 395.57 0 377.79 1.906 356.19 2.542 353.49 2.7 350.63 7.465 330.94 7.465 330.94 30.493 337.77 27.793 347.77 27.476 348.57 23.823 367.31 22.394 381.28 22.711 404.47 23.029 406.37 23.188 408.44 23.665 411.14 23.665 412.09 24.776 417.33 25.411 418.92 27.159 425.27 27.793 426.54 28.27 428.13 29.382 430.19 29.541 430.67 30.811 433.21 31.446 434.16 32.082 435.43 33.035 436.39 33.669 437.34 34.464 438.29 35.099 439.24 35.894 440.04 36.846 440.83 37.481 441.62 38.434 442.42 40.181 443.37 40.499 443.85 40.975 444.17 41.928 444.48 43.675 445.44 44.787 445.91" clip-rule="evenodd" fill-rule="evenodd"/>
	<polygon id="polygon31" points="18.899 334.28 7.465 330.94 10.8 319.98 10.958 319.98 16.041 306.64 16.834 305.22 17.153 304.26 19.535 299.18 20.329 297.91 21.917 294.42 23.346 292.19 24.458 289.81 31.446 278.85 32.717 277.27 33.035 276.95 35.894 272.82 48.599 258.85 48.916 258.69 51.934 255.83 53.681 254.56 54.952 253.29 55.428 253.29 57.016 251.86 61.939 248.52 69.404 244.55 69.404 244.4 74.645 242.33 76.392 241.85 77.663 241.38 78.298 241.38 86.238 239.95 88.78 239.95 95.133 240.74 98.786 242.97 101.48 245.03 102.44 246.14 102.6 246.14 101.01 246.46 96.562 248.2 95.292 249 94.814 249.16 94.021 249.32 92.909 249.79 91.48 250.11 90.526 250.75 89.256 251.22 88.78 251.54 87.986 251.54 86.874 252.33 85.604 252.81 83.221 254.08 82.903 254.4 80.998 255.83 79.728 256.46 78.615 257.42 77.503 258.21 77.345 258.37 76.074 259.16 72.581 262.34 72.581 262.5 67.657 267.26 61.781 274.09 60.828 275.68 59.398 277.11 59.081 277.9 58.287 278.7 54.952 283.62 54.952 283.62 53.681 285.36 51.616 289.18 51.299 289.49 44.946 300.77 44.628 301.88 33.669 327.76 33.669 327.92 32.717 330.31 30.493 337.77" clip-rule="evenodd" fill-rule="evenodd"/>
	<polygon id="polygon33" points="433.26 278.22 434.84 283.62 435 284.89 435.64 287.11 435.96 289.65 436.27 290.92 436.75 294.58 437.07 295.69 437.07 297.12 437.23 298.39 437.23 299.66 437.38 300.45 437.54 300.93 437.7 302.2 437.7 303.63 438.02 306.32 438.02 323.16 437.7 325.7 437.7 327.13 437.23 331.58 437.23 333.01 437.07 334.44 437.07 335.86 436.27 340.31 436.27 341.9 435.64 344.76 435.64 345.71 435.48 346.19 435.32 347.93 434.69 350.79 434.53 352.38 432.62 361.43 432.14 362.86 431.51 365.72 429.92 365.56 428.33 364.92 428.65 363.34 430.08 359.05 430.4 357.62 430.88 356.19 431.19 354.6 431.67 353.17 431.99 351.75 432.94 348.89 433.1 347.3 433.58 345.87 433.58 345.39 436.27 329.99 436.27 328.4 436.59 326.97 437.07 323 437.07 319.98 437.23 318.56 437.23 317.28 437.38 315.7 437.38 313.16 437.54 311.57 437.54 307.6 437.38 306.32 437.38 304.9 437.23 303.63 437.23 300.45 437.07 299.66 437.07 297.12 436.75 295.85 435.96 289.65 435.64 288.54 435.32 286.16" clip-rule="evenodd" fill-rule="evenodd"/>
	<polygon id="polygon35" points="429.92 365.56 431.51 365.72 430.88 368.1 430.88 368.58 424.2 389.38 423.88 389.86 423.25 391.92 415.95 408.44 414.67 410.5 414.52 410.98 404.99 427.02 394.03 440.83 384.98 449.25 378.78 453.85 370.52 458.46 363.85 460.68 363.7 460.84 358.45 461.95 353.05 462.27 349.56 461.95 347.65 461.95 344.16 461.16 344 461 343.84 461 348.29 445.76 350.67 446.55 352.74 446.87 353.85 446.87 355.91 447.18 357.02 447.02 358.29 447.02 360.52 446.71 360.68 446.71 361.79 446.55 366.87 445.12 368.14 444.48 369.41 444.17 374.97 441.31 376.24 440.36 377.83 439.56 378.78 438.93 379.1 438.61 383.39 435.43 384.66 434.16 386.25 433.05 389.1 430.51 390.54 428.92 391.96 427.65 393.24 426.22 394.82 424.79 394.82 424.63 403.08 414.63 408.16 407.17 408.32 407.01 419.12 387.79 428.33 364.92" clip-rule="evenodd" fill-rule="evenodd"/>
	<polygon id="polygon37" points="346.22 453.38 343.84 461 340.67 460.2 335.58 457.98 329.55 454.01 326.69 451.63 323.99 448.93 322.88 447.5 321.45 446.07 320.5 444.48 319.22 443.06 317 439.72 316.84 439.09 313.35 432.42 309.38 422.73 308.9 420.5 308.27 418.44 307.79 416.22 307.47 415.42 304.46 397.8 304.61 364.45 305.09 361.59 305.25 358.89 308.11 343.01 308.42 342.38 311.12 330.94 311.12 330.94 334.16 337.77 331.46 347.77 331.46 348.41 327.48 369.37 327.48 369.53 327.01 374.29 326.53 376.52 326.53 404.47 327.32 410.18 327.64 411.14 327.64 412.09 328.12 413.68 328.28 415.58 328.75 417.17 329.07 418.92 329.71 420.5 330.02 422.25 330.66 423.68 331.61 426.54 333.2 430.19 333.52 430.67 334 431.94 335.42 434.16 336.06 435.43 336.85 436.39 337.49 437.34 339.08 439.24 341.46 441.62 342.41 442.42 344.16 443.37 344.32 443.85 348.61 445.91" clip-rule="evenodd" fill-rule="evenodd"/>
	<polygon id="polygon39" points="322.88 334.28 311.12 330.94 314.62 319.98 314.62 319.98 320.5 305.22 321.13 304.26 322.08 301.72 329.71 287.43 332.09 283.94 332.41 282.98 336.54 277.27 336.85 276.95 347.49 263.77 352.58 258.85 352.74 258.85 355.91 255.83 357.66 254.56 358.93 253.29 359.4 253.29 361 251.86 362.74 250.75 364.33 249.48 365.92 248.52 366.08 248.36 373.22 244.55 373.38 244.4 378.62 242.33 380.37 241.85 381.64 241.38 382.12 241.38 384.02 241.06 385.77 240.58 387.52 240.42 389.26 240.11 390.22 240.11 391.01 239.95 397.84 240.58 399.11 240.9 404.03 243.92 406.58 246.3 404.99 246.62 400.54 248.2 398.79 249.16 396.73 249.95 395.46 250.27 393.08 251.22 392.6 251.54 391.96 251.7 390.69 252.49 388.31 253.6 381.32 258.21 381.32 258.37 380.05 259.16 377.83 261.23 376.4 262.34 376.24 262.5 375.45 263.45 374.02 264.72 371.79 267.1 371.64 267.42 366.87 272.66 365.92 274.09 364.49 275.68 363.54 277.11 362.74 277.9 362.26 278.85 361 280.28 360.04 282.03 358.93 283.62 358.77 283.62 355.44 289.18 355.12 289.49 352.1 294.73 351.78 295.53 350.99 296.8 345.27 308.23 334.16 337.77" clip-rule="evenodd" fill-rule="evenodd"/>
	<polygon id="polygon41" points="304.61 247.41 304.61 248.05 305.25 252.49 305.25 252.81 304.14 257.26 304.14 257.42 302.71 261.23 302.71 261.7 300.96 265.67 300.96 265.83 297.62 272.98 297.47 273.77 293.66 281.24 293.34 281.56 289.21 289.34 288.89 290.13 287.14 293.15 287.14 293.31 285.24 296.32 284.92 297.12 283.49 299.66 282.7 300.77 280.63 304.58 275.71 311.89 275.39 312.52 268.88 322.37 268.56 323 253 344.44 252.84 344.6 239.18 361.91 239.02 361.91 226.63 352.54 238.39 334.44 238.54 334.28 259.19 302.04 259.51 301.4 261.26 298.86 262.05 297.91 266.82 290.45 267.61 289.49 271.58 283.62 271.74 283.46 279.36 272.82 279.52 272.66 281.59 270.12 283.17 267.58 284.76 265.99 284.92 265.36 286.67 262.98 287.46 262.5 288.42 260.91 290.16 259.16 290.16 259 296.04 252.49 297.47 251.38 299.37 249.48 300.01 249.16 303.5 247.89 304.46 247.41" clip-rule="evenodd" fill-rule="evenodd"/>
	<polyline id="polyline43" points="304.61 247.41 304.61 248.05 305.25 252.49 305.25 252.81 304.14 257.26 304.14 257.42 302.71 261.23 302.71 261.7 300.96 265.67 300.96 265.83 297.62 272.98 297.47 273.77 293.66 281.24 293.34 281.56 289.21 289.34 288.89 290.13 287.14 293.15 287.14 293.31 285.24 296.32 284.92 297.12 283.49 299.66 282.7 300.77 280.63 304.58 275.71 311.89 275.39 312.52 268.88 322.37 268.56 323 253 344.44 252.84 344.6 250.62 347.62" stroke="#000" stroke-linecap="square" stroke-miterlimit="10" stroke-width=".1212" fill="none"/>
	<polyline id="polyline45" points="250.62 347.62 239.18 361.91 239.02 361.91" stroke="#000" stroke-linecap="square" stroke-miterlimit="10" stroke-width=".1212" fill="none"/>
	<polyline id="polyline47" points="226.63 352.54 238.39 334.44 238.54 334.28 259.19 302.04 259.51 301.4 261.26 298.86 262.05 297.91 266.82 290.45 267.61 289.49 271.58 283.62 271.74 283.46 279.36 272.82 279.52 272.66 281.59 270.12 283.17 267.58 284.76 265.99 284.92 265.36 286.67 262.98 287.46 262.5 288.42 260.91 290.16 259.16 290.16 259 296.04 252.49 297.47 251.38 299.37 249.48 300.01 249.16 301.28 248.68" stroke="#000" stroke-linecap="square" stroke-miterlimit="10" stroke-width=".1212" fill="none"/>
	<polyline id="polyline49" points="301.28 248.68 303.5 247.89 304.46 247.41 304.61 247.41" stroke="#000" stroke-linecap="square" stroke-miterlimit="10" stroke-width=".1212" fill="none"/>
	<polygon id="polygon51" points="232.83 357.14 239.02 361.91 217.26 384.77 216.95 384.93 210.28 389.54 207.1 390.97 203.76 391.6 203.13 391.6 203.13 386.68 202.65 381.92 203.76 381.6 204.72 380.65 206.62 379.06 209 376.52 209.32 376.36 216.95 366.51 218.06 365.4 226.63 352.54" clip-rule="evenodd" fill-rule="evenodd"/>
	<polyline id="polyline53" points="239.02 361.91 217.26 384.77 216.95 384.93 210.28 389.54 207.1 390.97 203.76 391.6 203.13 391.6" stroke="#000" stroke-linecap="square" stroke-miterlimit="10" stroke-width=".1212" fill="none"/>
	<polyline id="polyline55" points="202.65 381.92 203.76 381.6 204.72 380.65 206.62 379.06 209 376.52 209.32 376.36 216.95 366.51 218.06 365.4 226.63 352.54" stroke="#000" stroke-linecap="square" stroke-miterlimit="10" stroke-width=".1212" fill="none"/>
	<polygon id="polygon57" points="203.13 386.68 203.13 391.6 201.22 391.6 199.95 391.44 198.68 391.13 197.41 391.13 188.68 390.02 188.04 389.86 176.45 388.43 175.65 388.11 174.38 388.11 162.47 386.36 161.36 386.05 149.92 384.62 149.61 384.46 131.98 382.39 130.07 381.92 127.85 381.6 125.94 381.6 123.72 381.28 123.4 381.28 121.81 380.96 111.17 379.85 109.74 379.54 108.16 379.54 106.73 379.38 105.46 379.06 103.23 379.06 102.12 378.9 101.17 378.9 98.786 378.42 97.197 378.42 99.42 378.42 102.12 378.9 103.23 378.9 104.18 379.06 191.85 382.39 193.6 382.24 196.46 382.24 197.89 382.08 199 382.08 200.27 381.92 202.65 381.92" clip-rule="evenodd" fill-rule="evenodd"/>
	<polyline id="polyline59" points="203.13 391.6 201.22 391.6 199.95 391.44 198.68 391.13 197.41 391.13 188.68 390.02 188.04 389.86 176.45 388.43 175.65 388.11 174.38 388.11 162.47 386.36 161.36 386.05 149.92 384.62 149.61 384.46 131.98 382.39 130.07 381.92 127.85 381.6 125.94 381.6 123.72 381.28 123.4 381.28 121.81 380.96 111.17 379.85 109.74 379.54 108.16 379.54 106.73 379.38 105.46 379.06" stroke="#000" stroke-linecap="square" stroke-miterlimit="10" stroke-width=".1212" fill="none"/>
	<polyline id="polyline61" points="105.46 379.06 103.23 379.06 102.12 378.9 101.17 378.9 98.786 378.42 97.197 378.42 99.42 378.42 102.12 378.9 103.23 378.9 104.18 379.06 172.64 382.24" stroke="#000" stroke-linecap="square" stroke-miterlimit="10" stroke-width=".1212" fill="none"/>
	<polyline id="polyline63" points="172.64 382.24 191.85 382.39 193.6 382.24 196.46 382.24 197.89 382.08 199 382.08 200.27 381.92 202.65 381.92" stroke="#000" stroke-linecap="square" stroke-miterlimit="10" stroke-width=".1212" fill="none"/>
	<polygon id="polygon65" points="91.162 366.04 91.003 365.72 90.844 365.56 90.209 362.38 89.891 361.43 90.05 361.11 90.368 359.84 90.526 358.42 90.526 358.1 91.003 356.83 91.48 355.08 91.48 354.92 93.703 349.52 93.862 348.73 94.656 347.46 96.562 343.01 96.721 343.01 97.991 340.63 98.15 340.15 104.5 329.04 104.98 328.4 106.57 325.54 122.13 303.94 123.08 302.99 128.48 295.85 129.12 295.37 135.31 287.9 135.31 287.9 155.17 266.79 155.48 266.63 165.65 257.1 169.62 254.08 171.36 252.49 178.04 247.89 182.16 245.82 186.14 245.03 186.45 245.03 186.45 247.41 186.77 249.79 185.66 249.95 185.18 250.11 184.39 250.75 183.44 251.22 180.1 253.92 175.18 259.32 175.02 259.64 170.57 265.04 169.46 266.79 169.14 267.1 164.22 274.09 164.06 274.41 159.14 281.4 158.82 282.03 153.9 289.49 153.58 289.81 148.5 297.75 148.5 297.91 143.25 305.69 142.94 306.32 120.38 338.88 120.07 339.52 118.64 341.1 116.89 343.49 115.94 344.44 114.19 346.98 108.16 353.81 107.84 354.28 106.57 355.4 105.14 357.14 98.15 363.34 95.927 364.92 95.609 365.08 94.656 365.4 92.274 365.72 91.639 365.72 91.162 365.88" clip-rule="evenodd" fill-rule="evenodd"/>
	<polyline id="polyline67" points="91.162 366.04 91.003 365.72 90.844 365.56 90.209 362.38 89.891 361.43 90.05 361.11 90.368 359.84 90.526 358.42 90.526 358.1 91.003 356.83 91.48 355.08 91.48 354.92 93.703 349.52 93.862 348.73 94.656 347.46 96.562 343.01 96.721 343.01 97.991 340.63 98.15 340.15 104.5 329.04 104.98 328.4 106.57 325.54 122.13 303.94 123.08 302.99 128.48 295.85 129.12 295.37 135.31 287.9 135.31 287.9 139.92 282.82" stroke="#000" stroke-linecap="square" stroke-miterlimit="10" stroke-width=".1212" fill="none"/>
	<polyline id="polyline69" points="139.92 282.82 155.17 266.79 155.48 266.63 165.65 257.1 169.62 254.08 171.36 252.49 178.04 247.89 182.16 245.82 186.14 245.03 186.45 245.03" stroke="#000" stroke-linecap="square" stroke-miterlimit="10" stroke-width=".1212" fill="none"/>
	<polyline id="polyline71" points="186.77 249.79 185.66 249.95 185.18 250.11 184.39 250.75 183.44 251.22 180.1 253.92 175.18 259.32 175.02 259.64 170.57 265.04 169.46 266.79 169.14 267.1 164.22 274.09 164.06 274.41 159.14 281.4 158.82 282.03 153.9 289.49 153.58 289.81 148.5 297.75 148.5 297.91 143.25 305.69 142.94 306.32 120.38 338.88 120.07 339.52 118.64 341.1 118 342.06" stroke="#000" stroke-linecap="square" stroke-miterlimit="10" stroke-width=".1212" fill="none"/>
	<polyline id="polyline73" points="118 342.06 116.89 343.49 115.94 344.44 114.19 346.98 108.16 353.81 107.84 354.28 106.57 355.4 105.14 357.14 98.15 363.34 95.927 364.92 95.609 365.08 94.656 365.4 92.274 365.72 91.639 365.72 91.162 365.88 91.162 366.04" stroke="#000" stroke-linecap="square" stroke-miterlimit="10" stroke-width=".1212" fill="none"/>
	<polygon id="polygon75" points="186.45 247.41 186.45 245.03 187.41 245.19 188.52 245.19 189.15 245.35 190.1 245.35 191.06 245.51 191.85 245.51 192.81 245.66 195.03 245.66 195.98 245.82 196.94 245.82 197.89 245.98 199 245.98 200.11 246.14 202.02 246.14 204.24 246.46 208.37 246.46 209.48 246.62 210.43 246.62 211.39 246.78 214.56 246.78 215.52 246.94 216.47 246.94 217.26 247.09 217.26 247.09 219.33 247.09 220.28 247.25 226.32 247.25 226.63 247.41 236.16 247.41 226.63 247.41 226.32 247.57 220.28 247.57 219.33 247.73 217.26 247.73 217.26 247.73 216.47 247.89 213.45 247.89 212.5 248.05 211.39 248.05 210.43 248.2 206.3 248.2 205.35 248.36 204.24 248.36 203.13 248.52 201.06 248.52 199 248.84 197.89 248.84 196.94 249 193.92 249 192.81 249.16 191.85 249.16 190.1 249.48 189.15 249.48 188.52 249.64 187.41 249.64 186.45 249.79" clip-rule="evenodd" fill-rule="evenodd"/>
	<polyline id="polyline77" points="186.45 245.03 187.41 245.19 188.52 245.19 189.15 245.35 190.1 245.35 191.06 245.51 191.85 245.51 192.81 245.66 195.03 245.66 195.98 245.82 196.94 245.82 197.89 245.98 199 245.98 200.11 246.14 202.02 246.14 204.24 246.46 208.37 246.46 209.48 246.62 210.43 246.62 211.39 246.78 214.56 246.78 215.52 246.94 216.47 246.94 217.26 247.09 217.26 247.09 219.33 247.09 220.28 247.25 226.32 247.25 226.63 247.41 234.26 247.41" stroke="#000" stroke-linecap="square" stroke-miterlimit="10" stroke-width=".1212" fill="none"/>
	<polyline id="polyline79" points="234.26 247.41 236.16 247.41 226.63 247.41 226.32 247.57 220.28 247.57 219.33 247.73 217.26 247.73 217.26 247.73 216.47 247.89 213.45 247.89 212.5 248.05 211.39 248.05 210.43 248.2 206.3 248.2 205.35 248.36 204.24 248.36 203.13 248.52 201.06 248.52" stroke="#000" stroke-linecap="square" stroke-miterlimit="10" stroke-width=".1212" fill="none"/>
	<polyline id="polyline81" points="201.06 248.52 199 248.84 197.89 248.84 196.94 249 193.92 249 192.81 249.16 191.85 249.16 190.1 249.48 189.15 249.48 188.52 249.64 187.41 249.64 186.45 249.79" stroke="#000" stroke-linecap="square" stroke-miterlimit="10" stroke-width=".1212" fill="none"/>
	<polygon id="polygon83" points="190.58 270.28 193.92 271.71 195.35 272.98 197.89 277.27 198.52 278.7 199.48 281.56 201.22 291.72 201.22 304.9 195.03 349.36 195.03 350.63 194.55 355.08 194.55 363.97 194.71 363.97 193.6 352.22 192.96 349.36 192.65 346.5 189.31 333.48 189.15 331.9 185.34 317.44 185.18 315.86 184.71 314.58 182.64 302.99 182.48 299.82 182.16 298.39 182.16 297.12 181.85 293.94 181.85 289.65 182.64 283.62 182.64 282.19 184.39 276.47 185.98 273.46 187.25 271.87" clip-rule="evenodd" fill-rule="evenodd"/>
	<polyline id="polyline85" points="190.58 270.28 193.92 271.71 195.35 272.98 197.89 277.27 198.52 278.7 199.48 281.56 201.22 291.72 201.22 304.9 195.03 349.36 195.03 350.63 194.55 355.08 194.55 363.97 194.71 363.97 193.6 352.22 192.96 349.36 192.65 346.5 191.54 342.06" stroke="#000" stroke-linecap="square" stroke-miterlimit="10" stroke-width=".1212" fill="none"/>
	<polyline id="polyline87" points="191.54 342.06 189.31 333.48 189.15 331.9 185.34 317.44 185.18 315.86 184.71 314.58 182.64 302.99 182.48 299.82 182.16 298.39 182.16 297.12 181.85 293.94 181.85 289.65 182.64 283.62 182.64 282.19 184.39 276.47 185.98 273.46 187.25 271.87 190.58 270.28" stroke="#000" stroke-linecap="square" stroke-miterlimit="10" stroke-width=".1212" fill="none"/>
	<polygon id="polygon89" points="333.84 207.87 337.33 209.3 339.08 211.05 340.67 213.11 345.59 223.27 348.92 233.91 349.24 235.82 350.04 238.04 351.15 244.55 351.78 246.62 361.31 338.56 362.74 345.23 331.46 244.08 330.66 239.79 330.5 237.72 329.71 233.44 328.91 222.16 330.02 213.11 330.82 210.73" clip-rule="evenodd" fill-rule="evenodd"/>
	<polyline id="polyline91" points="333.84 207.87 337.33 209.3 339.08 211.05 340.67 213.11 345.59 223.27 348.92 233.91 349.24 235.82 350.04 238.04 351.15 244.55 351.78 246.62 361.31 338.56 362.74 345.23 353.85 313.31 353.05 311.41" stroke="#000" stroke-linecap="square" stroke-miterlimit="10" stroke-width=".1212" fill="none"/>
	<polyline id="polyline93" points="353.05 311.41 338.28 269.64 330.66 239.79 330.5 237.72 329.71 233.44 328.91 222.16 330.02 213.11 330.82 210.73 333.84 207.87" stroke="#000" stroke-linecap="square" stroke-miterlimit="10" stroke-width=".1212" fill="none"/>
	<polygon id="polygon95" points="300.48 180.88 301.6 177.38 302.55 176.11 303.66 175 304.77 174.2 307 173.09 308.27 172.3 309.38 171.98 310.49 171.5 311.76 171.35 312.87 170.87 317.48 170.23 328.12 170.23 343.37 172.62 344.48 173.09 363.54 176.43 365.92 176.43 368.3 176.75 375.29 176.75 372.91 176.75 326.69 188.66 323.2 189.13 322.08 189.13 319.7 189.45 316.21 189.45 313.83 189.13 312.71 189.13 311.44 188.81 310.33 188.66 305.57 186.91 304.3 186.27 303.02 185.32 301.92 184.05" clip-rule="evenodd" fill-rule="evenodd"/>
	<polyline id="polyline97" points="300.48 180.88 301.6 177.38 302.55 176.11 303.66 175 304.77 174.2 307 173.09 308.27 172.3 309.38 171.98 310.49 171.5 311.76 171.35 312.87 170.87 317.48 170.23 328.12 170.23 343.37 172.62 344.48 173.09 363.54 176.43 365.92 176.43 368.3 176.75 375.29 176.75 372.91 176.75 357.82 179.76" stroke="#000" stroke-linecap="square" stroke-miterlimit="10" stroke-width=".1212" fill="none"/>
	<polyline id="polyline99" points="357.82 179.76 326.69 188.66 323.2 189.13 322.08 189.13 319.7 189.45 316.21 189.45 313.83 189.13 312.71 189.13 311.44 188.81 310.33 188.66 305.57 186.91 304.3 186.27 303.02 185.32 301.92 184.05 300.48 180.88" stroke="#000" stroke-linecap="square" stroke-miterlimit="10" stroke-width=".1212" fill="none"/>
</g>
<metadata><rdf:RDF><cc:Work><dc:format>image/svg+xml</dc:format><dc:type rdf:resource="http://purl.org/dc/dcmitype/StillImage"/><cc:license rdf:resource="http://creativecommons.org/licenses/publicdomain/"/><dc:publisher><cc:Agent rdf:about="http://openclipart.org/"><dc:title>Openclipart</dc:title></cc:Agent></dc:publisher><dc:title>Architetto -- Bicicletta</dc:title><dc:date>2009-04-19T14:29:11</dc:date><dc:description>Bicycle by Francesco 'Architetto' Rollandin.</dc:description><dc:source>http://openclipart.org/detail/25096/architetto----bicicletta-by-anonymous-25096</dc:source><dc:creator><cc:Agent><dc:title>Anonymous</dc:title></cc:Agent></dc:creator><dc:subject><rdf:Bag><rdf:li>bicycle</rdf:li><rdf:li>bike</rdf:li><rdf:li>black and white</rdf:li><rdf:li>clip art</rdf:li><rdf:li>clipart</rdf:li><rdf:li>cyclist</rdf:li><rdf:li>image</rdf:li><rdf:li>line art</rdf:li><rdf:li>man</rdf:li><rdf:li>media</rdf:li><rdf:li>people</rdf:li><rdf:li>png</rdf:li><rdf:li>public domain</rdf:li><rdf:li>sport</rdf:li><rdf:li>stylized</rdf:li><rdf:li>svg</rdf:li><rdf:li>transportation</rdf:li></rdf:Bag></dc:subject></cc:Work><cc:License rdf:about="http://creativecommons.org/licenses/publicdomain/"><cc:permits rdf:resource="http://creativecommons.org/ns#Reproduction"/><cc:permits rdf:resource="http://creativecommons.org/ns#Distribution"/><cc:permits rdf:resource="http://creativecommons.org/ns#DerivativeWorks"/></cc:License></rdf:RDF></metadata></svg>
