<?xml version="1.0" encoding="UTF-8"?>
<svg width="309px" height="172px" viewBox="0 0 309 172" version="1.1" xmlns="http://www.w3.org/2000/svg" xmlns:xlink="http://www.w3.org/1999/xlink">
    <!-- Generator: Sketch 43.2 (39069) - http://www.bohemiancoding.com/sketch -->
    <title>pizza</title>
    <desc>Created with Sketch.</desc>
    <defs></defs>
    <g id="Page-1" stroke="none" stroke-width="1" fill="none" fill-rule="evenodd">
        <g id="pizza" fill-rule="nonzero" fill="#000000">
            <path d="M307.749145,127.183621 L306.712212,119.924034 C305.709447,114.314759 304.214956,109.076172 301.94648,104.906655 C293.523259,89.3792067 229.310683,8.19372412 210.85239,2.92696551 C207.760904,2.04472414 199.547149,0 189.90427,0 C176.67075,0 165.876549,3.85813794 158.687841,11.1622069 C152.197356,17.7486206 148.67951,26.9328276 148.208581,38.5042759 C139.097539,42.6604483 116.659385,53.9753794 110.476414,67.0028966 C107.358187,73.5759655 94.4113848,79.4402757 84.0078898,84.1598966 C75.6351777,87.9572412 68.404875,91.2341378 63.9823125,95.3117243 C61.6083605,97.5002757 58.3876299,100.751966 54.672202,104.507793 C44.0934087,115.192551 28.1026587,131.342759 18.6053654,135.335828 C7.85275962,139.853793 0.745759614,147.187517 0.0519951924,154.479724 C-0.317913462,158.383828 1.29987981,161.942449 4.38542308,163.991621 C9.94148076,167.686655 30.1037308,170.452 44.4157788,170.452 C47.4344712,170.452 50.349173,170.337828 53.0603509,170.100586 C61.199827,169.354759 90.6632739,168.75869 118.742164,168.75869 C152.329572,168.75869 167.488399,169.574206 170.267913,170.275551 C176.091375,171.750896 181.314663,171.67231 188.956471,171.097 C193.959895,170.732241 199.784841,170.302241 208.38039,170.452 C217.207688,170.626966 225.36202,170.969483 232.072369,171.25862 C238.04439,171.509206 242.89777,171.721241 246.124442,171.721241 C248.296355,171.721241 249.677942,171.632276 250.627226,171.45731 C250.976337,171.412828 252.781313,171.269 261.284756,171.269 C276.505976,171.269 301.084846,171.721241 301.095244,171.721241 C304.31152,171.767206 306.65873,169.560861 307.037553,166.580516 C307.18611,165.383931 309.631369,145.605414 307.749145,127.183621 Z M139.507558,72.6344139 C151.511019,69.5814139 162.480519,71.956793 164.006206,77.9471378 C165.536351,83.9315513 157.050735,91.2697243 145.053216,94.3182757 C133.05124,97.3712757 122.084711,94.9988622 120.554567,89.0070345 C119.031851,83.0241034 127.515981,75.6933446 139.507558,72.6344139 Z M81.8552886,102.319241 C93.4531875,101.342103 103.226798,105.582793 103.679899,111.804449 C104.143399,118.021655 95.1155477,123.880034 83.5235913,124.860138 C71.9227212,125.838759 62.1505962,121.596586 61.6989808,115.370483 C61.2399375,109.145862 70.2633317,103.305276 81.8552886,102.319241 Z M214.918413,156.66531 C214.587131,157.378517 214.429659,158.119897 214.407375,158.849414 C212.513265,158.799 210.586471,158.754517 208.618081,158.710034 C207.249866,158.681862 205.957413,158.674449 204.7125,158.674449 C197.590645,158.674449 192.313875,159.070345 188.075524,159.38469 C181.969803,159.845828 177.756706,160.051931 173.15736,158.892414 C167.011529,157.335517 140.173096,157.012276 118.743649,157.012276 C89.8892886,157.012276 60.5699424,157.620207 51.9966779,158.403103 C49.998577,158.586966 47.8222067,158.637379 45.6220674,158.667034 C67.6264326,150.090759 93.5690625,141.759138 101.194529,143.531034 C105.707711,144.604551 109.075515,145.738862 112.04964,146.738241 C119.014024,149.085449 124.528485,150.940379 134.47888,147.832517 C137.271765,146.962138 140.146356,145.821897 143.050659,144.656449 C153.262515,140.581828 159.85699,138.385862 165.398192,142.263276 C178.059765,151.115345 188.411265,149.594034 198.419596,148.148345 L199.201009,148.043069 C206.660091,146.950276 214.132544,147.961517 215.864726,150.280551 C216.64614,151.319966 216.304456,153.650862 214.918413,156.66531 Z M197.809024,121.608449 C182.917601,122.710138 170.364476,118.055759 169.767274,111.187621 C169.164131,104.323931 180.745688,97.8591034 195.631169,96.7544487 C210.519619,95.6394142 223.083145,100.308621 223.680346,107.173793 C224.283491,114.030069 212.697476,120.503793 197.809024,121.608449 Z M244.331351,112.969897 C241.903919,104.759862 238.236029,96.3896899 232.73048,92.0763446 C219.081,81.3693446 202.091942,67.0948276 195.334053,59.125 C194.43825,58.0707586 176.485053,37.1935172 160.261067,35.7048276 C161.030596,28.7403104 163.285702,23.2541034 167.084322,19.4033794 C173.305919,13.0853449 182.932456,11.7553103 189.908726,11.7553103 C198.069,11.7553103 205.002188,13.4871724 207.615317,14.227069 C218.241649,17.254862 265.32998,72.3704828 284.755384,99.9082757 C278.221817,97.2600689 270.658744,96.5705858 262.339515,99.6828966 C253.916294,102.830793 248.251788,107.359138 244.331351,112.969897 Z M295.90464,159.876966 C287.771105,159.753897 272.163634,159.527034 261.284756,159.527034 C251.401212,159.527034 249.617034,159.706449 248.638038,159.876966 C248.190881,159.946655 247.488201,159.980759 246.616169,159.994103 C246.65925,159.234931 246.705303,158.414966 246.730558,157.66469 C248.10323,129.695414 249.422424,117.06231 266.481303,110.683483 C280.903284,105.271414 291.419683,118.072069 295.491649,124.229966 C297.243145,136.130586 296.712794,150.666069 295.90464,159.876966 Z" id="Shape"></path>
        </g>
    </g>
</svg>