<?xml version="1.0" encoding="UTF-8"?>
<svg width="307px" height="375px" viewBox="0 0 307 375" version="1.1" xmlns="http://www.w3.org/2000/svg" xmlns:xlink="http://www.w3.org/1999/xlink">
    <!-- Generator: Sketch 43.2 (39069) - http://www.bohemiancoding.com/sketch -->
    <title>fistBump</title>
    <desc>Created with Sketch.</desc>
    <defs></defs>
    <g id="Page-1" stroke="none" stroke-width="1" fill="none" fill-rule="evenodd">
        <g id="sockPuppet" fill-rule="nonzero" fill="#000000">
            <path d="M49.976,36.57l27.343,1.078c7.437,0,13.486-6.05,13.486-13.487s-6.049-13.487-13.485-13.487H58  c-0.429-3.546-2.45-6.235-4.881-6.235s-4.45,2.689-4.877,6.235h-4.368c-0.259,0-0.511,0.01-0.768,0.014  c-0.423-3.553-2.445-6.25-4.88-6.25c-2.719,0-4.924,3.36-4.961,7.523c-5.139,1.369-9.419,3.825-12.781,7.357  c-8.476,8.907-7.963,21.297-7.939,21.737v37.496h4.016V93.5h33.775V78.551h4.471v-1.682c0-8.529,4.16-9.612,4.639-9.708  c0.794-0.026,5.409-0.225,10.103-1.41c9.184-2.323,11.111-6.586,11.111-9.753c0-7.207-5.377-9.775-10.409-9.775  c-0.399,0-0.689,0.018-0.829,0.028H51.104l-0.237,0.017c-0.004,0.001-0.422,0.058-1.042,0.058c-5.218,0-5.218-3.253-5.218-4.322  C44.607,36.887,49.143,36.58,49.976,36.57z M87.441,24.161c0,5.583-4.542,10.124-10.057,10.125l-7.973-0.314  c-4.428-6.087-6.037-11.196-4.771-15.199c0.722-2.282,2.289-3.793,3.675-4.734h9.002C82.899,14.038,87.441,18.579,87.441,24.161z   M69.492,49.615l0.16-0.008c0.035-0.003,0.254-0.021,0.598-0.021c2.632,0,7.046,0.833,7.046,6.412c0,4.667-8.069,6.723-13.864,7.461  c-1.008-0.493-1.786-1.215-2.318-2.167c-1.917-3.429-0.405-8.997,0.517-11.677H69.492z M49.825,49.689  c0.655,0,1.153-0.047,1.384-0.074h9.357c-0.98,2.923-2.377,8.495-0.327,12.164c0.412,0.737,0.946,1.354,1.591,1.858  c-1.001,0.095-1.887,0.147-2.579,0.164l-0.153,0.012c-0.297,0.034-6.954,0.932-7.604,11.374H45.15v-7.053h-3.364v7.053H35.06v-7.053  h-3.363v7.053h-7.147v-7.053h-3.364v7.053h-5.277l-0.002-34.212c-0.005-0.115-0.447-11.52,7.037-19.36  c2.829-2.964,6.458-5.042,10.805-6.269c0.799,2.571,2.501,4.353,4.479,4.353c2.291,0,4.215-2.388,4.788-5.63  c0.291-0.005,0.565-0.031,0.86-0.031h22.781c-1.188,1.029-2.341,2.46-2.964,4.421c-1.327,4.175,0.18,9.371,4.46,15.462  l-18.109-0.714c-3.043,0-8.798,1.838-8.798,8.797C41.244,46.816,44.452,49.689,49.825,49.689z" id="Shape"></path>
        </g>
    </g>
</svg>