<?xml version="1.0" encoding="utf-8"?>
<!-- Generator: Adobe Illustrator 16.0.0, SVG Export Plug-In . SVG Version: 6.00 Build 0)  -->
<!DOCTYPE svg PUBLIC "-//W3C//DTD SVG 1.1 Tiny//EN" "http://www.w3.org/Graphics/SVG/1.1/DTD/svg11-tiny.dtd">
<svg version="1.1" baseProfile="tiny" id="Layer_1" xmlns="http://www.w3.org/2000/svg" xmlns:xlink="http://www.w3.org/1999/xlink"
	 x="0px" y="0px" width="355px" height="284px" viewBox="0 0 355 284" xml:space="preserve">
<g>
	<title>Layer 1</title>
	<g id="g3876" transform="matrix(-1.88097 -2.25976 2.35007 -1.80869 229.296 1774.83)">
		<g id="g3878">
			<g id="g3884">
				<g id="g3886">
					<path id="path3894" fill="#5FBF00" d="M426.175,345.544c0.548,0.385,1.064,0.748,1.292,1.214
						c0.203,0.413,0.169,0.741-0.093,0.9c-0.311,0.19-0.831,0.081-1.161-0.241c-2.135-2.088-2.311-3.89-2.163-4.162
						c0.011-0.021,0.021-0.027,0.023-0.027l0.001,0c0.001,0,0.055,0.006,0.126,0.191C424.585,344.426,425.43,345.02,426.175,345.544
						 M427.545,339.011c-0.058-0.45-0.032-0.74-0.003-0.854c0.285,1.105,1.182,1.581,2.05,2.041c0.641,0.34,1.247,0.661,1.512,1.215
						c0.236,0.493,0.195,0.953-0.102,1.17c-0.31,0.227-0.824,0.15-1.377-0.206C428.002,341.329,427.63,339.674,427.545,339.011
						 M432.659,335.647c0.48,0.33,1.138,0.781,2.336,0.751c0.692-0.017,1.087,0.155,1.113,0.485
						c0.027,0.347-0.361,0.768-0.602,0.814c-1.679,0.324-2.718-0.608-3.087-1.023c-0.464-0.522-0.667-1.087-0.567-1.287
						c0.02-0.037,0.047-0.057,0.087-0.061C432.161,335.303,432.381,335.455,432.659,335.647 M421.216,330.78L421.216,330.78
						L421.216,330.78z M416.74,345.64c-2.394,1.21-4.871,2.461-3.799,6.186c0.003,0.013,0.013,0.022,0.026,0.026
						c0.102,0.031,2.542,0.715,4.183-2.397c0.704-1.335,1.138-1.62,1.378-1.623c0.175-0.004,0.265,0.151,0.296,0.216
						c0.203,0.441-0.235,1.192-0.741,2.061c-0.803,1.377-1.802,3.09-1.021,4.687c0.864,1.77,4.142,2.596,5.238,2.696
						c0.018,0.002,0.035-0.005,0.044-0.019c0.136-0.192,0.328-0.397,0.551-0.633c0.619-0.659,1.466-1.561,1.688-2.914
						c0.235-1.429-0.46-2.516-1.196-3.667c-0.622-0.972-1.265-1.978-1.294-3.212c-0.014-0.612,0.212-1.02,0.608-1.088
						c0.314-0.054,0.638,0.13,0.722,0.41c1.173,3.89,2.931,4.066,5.156,4.289c0.675,0.068,1.374,0.137,2.126,0.313
						c0.012,0.002,0.024,0.001,0.035-0.005c0.01-0.005,0.018-0.015,0.021-0.025l0.155-0.534c0.361-1.219,0.701-2.369,0.065-3.628
						c-0.428-0.848-1.804-1.519-3.134-2.168c-0.924-0.451-1.797-0.877-2.249-1.321c-0.682-0.668-0.726-2.124-0.308-2.885
						c0.114-0.206,0.312-0.451,0.615-0.444c0.384,0.008,1.082,0.271,1.437,1.939c0.642,3.014,3.75,3.586,5.808,3.963
						c1.217,0.224,2.097,0.386,2.063,0.902c-0.001,0.018,0.011,0.034,0.03,0.038c0.018,0.005,0.039-0.002,0.05-0.017
						c0.024-0.033,2.335-3.341,0.504-5.101c-1.123-1.079-2.937-1.664-4.395-2.134c-0.899-0.29-1.677-0.541-1.991-0.826
						c-0.481-0.436-0.727-0.905-0.658-1.257c0.038-0.197,0.173-0.355,0.403-0.469c0.337-0.17,0.624-0.216,0.876-0.14
						c0.326,0.098,0.594,0.399,0.816,0.922c0.446,1.046,2.926,2.725,5.88,2.075c2.726-0.6,3.498,0.014,3.913,0.344l0.114,0.087
						c0.01,0.009,0.024,0.011,0.038,0.008c0.014-0.003,0.025-0.012,0.031-0.023c0.281-0.531,0.661-2.101,0.043-3.565
						c-0.459-1.087-1.352-1.864-2.653-2.31c-0.945-0.324-1.856-0.03-2.587,0.206c-0.554,0.179-0.992,0.32-1.257,0.139
						c-0.22-0.149-0.315-0.299-0.283-0.443c0.041-0.181,0.278-0.308,0.385-0.34c0.124-0.037,0.203-0.113,0.226-0.214
						c0.033-0.153-0.07-0.339-0.259-0.462c-0.119-0.078-0.444-0.238-0.886-0.035c-3.119,1.426-8.766,4.744-11.534,10.945
						c-1.859,4.164-2.38,7.47-1.548,9.826c0.028,0.08,0.053,0.153,0.059,0.191c-0.023-0.008-0.067-0.032-0.142-0.116
						c-0.171-0.191-1.62-2.032-0.027-7.801c0.071-0.256,0.043-0.417-0.084-0.481c-0.245-0.124-0.773,0.186-1.067,0.425l-0.365,0.325
						c-0.744,0.68-2.489,2.272-3.013,1.855c-0.064-0.05-0.09-0.113-0.083-0.191c0.055-0.594,1.991-1.839,3.029-2.508l0.378-0.245
						c0.977-0.639,4.118-2.865,3.561-4.644c-0.081-0.262-0.25-0.44-0.502-0.53c-0.888-0.318-2.649,0.52-3.935,1.132
						c-0.554,0.264-1.033,0.491-1.293,0.554c-0.842,0.251-2.162,0.556-2.353,0.361c-0.026-0.027-0.02-0.086,0.017-0.167
						c0.248-0.539,1.916-1.988,3.308-2.154c0.328-0.039,0.705-0.035,1.142-0.031c1.645,0.016,4.134,0.041,6.889-2.499
						c0.225-0.207,0.281-0.488,0.147-0.733c-0.143-0.26-0.872-1.069-4.266-0.557c-1.189,0.18-4.813-0.557-5.451-1.221
						c-0.076-0.079-0.103-0.154-0.08-0.22c0.054-0.151,0.258-0.308,0.577-0.441c1.056-0.442,3.114-0.545,5.138,0.276
						c2.955,1.2,5.217,1.054,6.348,0.517c0.341-0.162,1.449-0.742,1.432-1.431c-0.011-0.421-0.447-0.776-1.296-1.057
						c-2.653-0.876-4.482-2.555-4.625-3.374c-0.028-0.159,0.007-0.278,0.103-0.356c0.033-0.027,0.145-0.049,0.358-0.029
						c1.06,0.096,3.252,0.952,4.624,2.847c0.754,1.043,1.673,1.49,2.057,1.463c0.108-0.008,0.156-0.05,0.177-0.086
						c0.06-0.099-0.058-0.162-0.221-0.251c-0.397-0.215-1.137-0.616-0.981-1.98c0.107-0.937-0.046-1.595-0.526-2.268
						c-0.689-0.965-1.408-1.67-4.402-1.948c-0.035,0-3.547-0.097-3.986-0.178c-0.02-0.005-0.042,0.005-0.051,0.023
						c-0.335,0.62-0.935,3.399,0.154,4.303c0.04,0.176,0.59,2.096,5.683,2.218c0.369,0.008,0.68,0.186,0.834,0.474
						c0.122,0.229,0.111,0.483-0.028,0.663c-0.156,0.203-0.464,0.304-0.866,0.285l-0.26-0.012c-1.254-0.057-1.303-0.059-2.846-0.895
						c-4.207-2.279-6.096-2.83-10.76-0.075c-0.017,0.009-0.024,0.026-0.02,0.042c0.555,2.24,1.316,3.492,2.325,3.829
						c1.479,0.494,3.525,0.166,5.168-0.098c1.498-0.24,2.792-0.447,3.133,0.036c0.143,0.203,0.143,0.417-0.001,0.618
						c-0.243,0.339-0.931,0.645-1.923,0.562l-0.448-0.051c-2.089-0.262-7.638-0.955-9.537,5.887
						c-0.004,0.015,0.002,0.03,0.015,0.039c1.487,0.999,3.582,0.656,5.9-0.965c1.126-0.789,2.126-0.938,2.405-0.625
						c0.204,0.228,0.035,0.806-1.112,1.679C418.276,344.863,417.529,345.241,416.74,345.64"/>
				</g>
			</g>
		</g>
	</g>
	<path id="svg_1" fill="#006C6C" d="M86.991,172.998c0.543-2.744,3.344-4.387,6.024-4.512c3.503-0.668,6.248,2.324,9.465,3.157
		c3.127,0.479,7.238,1.187,8.372,4.679c2.441,7.324-0.999,14.582-0.913,21.907c-0.636,1.956,2.877,7.07-0.667,6.462
		c-1.818-4.095-1.689-8.633-2.511-12.918c-0.315-3.546-6.492-4.615-6.116-0.439c0.559,3.139-1.824,4.928-4.634,5.015
		c-2.755,1.797-1.089,6.222,1.728,7.24c1.936,1.184,4.771,2.635,4.438,5.272c-0.688,2.358-4.094,0.764-6.018,1.043
		c-3.08-0.129-6.134-0.875-9.203-0.891c-2.377-0.086-5.664,2.044-4.215,4.648c1.827,2.819,5.631,2.516,8.51,2.412
		c2.854,0.524,5.236-1.541,8.031-1.472c2.791-0.021,0.935,1.572-0.41,2.416c-7.778,5.815-19.168,7.316-28.201,2.616
		c-3.701-1.573-2.819-6.585-5.944-8.696c-3.651-0.303-4.552-5.29-1.217-6.751c2.004,0.307,6.563-0.222,5.026-3.376
		c-2.461-2.868,1.097-6.85,4.313-6.381c6.511,1.397,10.97,6.815,15.926,10.856c1.873,2.025,6.197,4.071,7.779,0.881
		c-2.376-2.323-5.349-3.874-8.228-5.459c-4.677-2.09-9.602-5.885-10.031-11.318c-0.493-3.931,3.552-6.643,7.127-6.701
		C87.456,179.824,85.017,175.885,86.991,172.998L86.991,172.998z M106.612,227.191c0.914-2.539,4.143,1.92,1.414,1.967
		c-1.72,2.44-2.732,5.336-3.193,8.299c-0.158,2.94-0.963,6.108,0.514,8.912c1.162,1.992,4.251,1.47,5.277-0.263
		c2.209-4.915,1.682-10.509,2.25-15.784c0.144-1.584-0.521-4.008,1.453-4.613c0.571,1.021,0.34,3.19,0.717,4.642
		c0.514,4.642,2.08,9.22,4.756,13.146c2.932,3.58,4.088,8.887,1.816,12.916c-0.84,2.185-3.564,2.934-5.721,2.248
		c-2.371-0.582-3.087,2.201-3.634,3.838c-2.591,3.51-8.396,3.414-11.476,0.285c-1.646-1.623-1.178-4.074-2.067-5.996
		c-1.235-1.455-3.447-0.362-4.821-1.586c-2.189-2.903-2.609-6.746-1.902-10.139C93.856,237.225,99.858,231.17,106.612,227.191
		L106.612,227.191z M140.571,219.736c4.574-0.104,9.687-1.453,12.311-5.385c1.62-3.502-0.142-8.165,2.737-11.189
		c2.403-4.974-0.404-11.304-5.058-14.176c-3.117-1.908-6.696-2.565-10.235-2.066c-4.311,0.164-4.752-5.426-8.187-6.896
		c-3.481-2.743-8.806-3.026-12.187-0.29c-5.631,5.668-8.277,14.235-6.688,22.262c-0.674,2.244,2.812,7.352,4.136,3.502
		c-0.49-3.949,0.883-8.984,5.09-10.168c3.618-0.765,4.537,3.562,3.674,6.141c2.016,1.741,3.418-2.943,5.51-3.379
		c2.918-1.842,7.832,0.811,6.592,4.472c-0.438,3.962-6.912,2.119-6.74,6.023c3.896,0.127,1.822,5.643-1.297,4.723
		c-2.99-0.062-6.562-2.153-9.064,0.241C127.19,216.789,133.753,219.345,140.571,219.736L140.571,219.736z M150.587,248.203
		c1.05-0.012,2.082-0.265,3.021-0.691c2.72-1.078,4.607-3.887,4.053-6.891c0.56-2.614-3.525-4.609-1.988-6.84
		c2.519-1.477,2.285-5.106,0.764-7.354c-2.208-3.681-6.735-4.78-10.687-4.854c-6.633,0.07-13.404-0.617-19.686-3.125
		c-1.998-0.063-4.188-3.186-5.852-1.662c2.64,3.978,6.947,6.478,11.273,8.227c2.415,1.277,5.922,1.511,7.104,4.359
		c1.105,2.557-2.041,4.186-4.182,3.127c-2.142-0.027-4.408-3.519-6.07-1.441c0.047,1.684,1.09,5.1-2.036,3.785
		c-3.841-2.516-6.808-6.454-8.082-10.84c-0.49-0.795-0.446-5.275-1.562-3.155c0.156,5.479,1.387,11.007,3.65,16.089
		c2.73,6.475,8.65,12.215,15.865,12.92c3.268,0.186,5.076-3.148,5.695-5.884C144.221,246.244,147.241,248.255,150.587,248.203
		L150.587,248.203z"/>
	<path id="path3416-4" fill="#5FBF00" d="M45.868,96.208c-3.205,0.383-11.925-3.378-17.465-3.419
		c0.59,1.09,11.905,2.895,16.145,5.548c6.66,3.66-4.377,3.917-7.262,2.561c-13.593,1.021-25.244-7.06-36.849-12.417
		C14.961,82.911,33.929,86.055,45.868,96.208z M1.902,68.34c5.996-0.041,12.067,0.819,17.841,2.55
		c6.955,2.049,15.967,6.572,19.02,11.215c-5.995-1.411-11.104-6.078-17.582-5.719c6.509,3.711,14.074,6.146,19.568,11.119
		c-2.562,2.389-10.826-2.713-15.547-2.853C14.501,83.796,7.859,75.203,1.902,68.34 M2.768,52.493
		c13.755,1.162,27.254,8.159,34.64,18.584c-5.76-4.168-12.343-7.488-19.35-9.668c6.48,3.185,12.827,6.832,17.833,11.692
		c-1.836,3.353-8.735-3.51-12.771-3.358C13.199,67.589,8.869,58.679,2.768,52.493 M50.306,27.263l0.173-0.229l0.161-0.017
		c-2.625,4.55-4.579,9.402-5.893,14.406c-4.143,17.581-2.123,36.969,7.779,53.669c3.072,5.006,6.983,9.659,10.955,14.114
		c3.973,3.259,11.467,5.475,10.562,11.112c-11.318-8.099-21.642-17.762-27.7-29.344C37.362,70.045,38.152,46.072,50.306,27.263
		L50.306,27.263z M14.532,112.424c1.232-0.954,2.487-1.888,3.793-2.77c10.754-8.622,28.949-6.741,40.648,1.166
		c-8.831-2.528-18.579-3.943-27.275-1.365c7.646-0.661,15.604-0.389,23.117,1.781c7.533-1.49,4.881,8.279-1.244,4.692
		C40.724,118.766,27.401,114.517,14.532,112.424L14.532,112.424z M84.659,55.864c-3.062,4.187-7.098,7.788-11.672,10.758
		c-8.275,4.716-18.508,8.264-22.932,16.491c1.404-9.551,10.057-16.243,18.316-21.701c-6.812,1.748-12.338,5.81-16.689,10.441
		c-2.469,5.884-5.357-2.191-1.874-3.863C55.253,56.921,71.346,52.957,84.659,55.864 M80.499,69.208
		c-2.313,12.03-14.68,19.31-19.856,30.099c-1.474,5.651-2.162-1.347-1.776-3.887c0.512-5.352,3.207-10.136,6.649-14.365
		c-5.89-1.931-5.595,8.986-11.24,10.113C54.915,79.226,67.583,70.923,80.499,69.208 M88.673,80.903l-0.135,1.06l-0.182,1.053
		c-0.547,11.548-15.312,16.563-17.779,27.4c0.107-7.316,1.564-14.924,6.672-20.725c-2.647,1.358-8.164,8.93-8.614,14.091
		c0.34,7.15-6.5-0.883-3.798-3.933C66.466,89.496,77.924,83.527,88.673,80.903 M0.831,40.099
		c14.236-2.973,28.379,6.757,34.635,17.557c-5.27-2.807-9.904-6.469-15.356-9.016c-0.865,1.172,8.669,6.493,11.257,9.727
		c5.883,4.575-2.955,2.637-4.775,0.012C16.176,54.567,8.827,46.731,0.831,40.099L0.831,40.099z M11.581,25.841
		c10.574,2.194,21.977,8.516,24.416,18.294c-4.562,2.549-7.604-8.379-13.146-9.598c5.363,5.679,11.245,11.419,13.702,18.492
		C27.103,44.819,17.146,36.471,11.581,25.841L11.581,25.841z M17.952,9.75c13.823,3.038,25.074,15.412,23.561,27.586
		c-5.436-3.581-6.38-10.081-11.75-13.712c3.52,6.055,7.818,12.066,8.835,18.8c-1.995-1.002-5.458-7.834-8.854-10.545
		C21.937,26.629,16.754,18.069,17.952,9.75L17.952,9.75z M47.292,20.3c-0.08,6.198-4.674-0.98-3.849-3.51
		c-1.731-0.19-0.319,5.265,0.196,7.436c2.04,5.582-4.068,2.348-3.258-1.17c-4.985-6.369-5.754-14.421-3.805-21.441
		C42.831,6.365,47.096,13.265,47.292,20.3z M66.857,0c-0.623,7.043-5.604,12.742-10.341,18.03c-4.418,4.471-3.126-4.986-0.732-6.618
		c4.474-6.194-3.824,1.144-3.496,3.942c1.139,4.779-5.086,0.17-2.311-2.051C49.962,5.618,58.583,0.479,66.857,0L66.857,0z
		 M82.53,44.088c-2.711,2.222-5.392,4.491-8.443,6.378c-10.016,4.186-20.707,7.949-28.534,14.93
		c3.634-6.132,8.563-11.765,15.081-15.785c-3.41,0.061-10.152,6.263-14.15,9.441C51.023,46.853,67.909,39.822,82.53,44.088
		L82.53,44.088z M71.841,30.047c8.352-1.862,7.668,7.021,1.435,8.659c-9.18,3.991-19.245,6.947-27.065,12.827
		c4.435-7.034,11.688-12.496,20.037-15.961c-7.76,1.053-13.699,5.574-19.761,9.337C52.04,37.347,60.902,30.82,71.841,30.047z
		 M80.981,17.771c-0.995,1.483-2.415,2.689-3.632,4.027c-4.625,7.704-15.607,8.922-23.711,12.819c-2.212-1.348,5.232-6.1,7.52-7.961
		c-1.924-1.393-7.688,5.136-11.064,6.631C53.182,22.073,67.657,14.861,80.981,17.771L80.981,17.771z"/>
	<path id="svg_3" fill="#1A1AE0" d="M221.615,205.023c-1.769-2.518,1.791-5.895-1.117-8.064c-1.928-1.197-5.015-3.538-6.892-1.663
		c-0.858,2.569,4.345,2.381,2.771,5.276c-2.229,2.828-3.648-1.231-3.688-3.502c-0.374-2.869-5.521-4.264-6.102-1.308
		c1.699,0.591,4.424,4.726,1.504,5.83c-3.393-0.056-1.053-6.511-4.605-6.517c-7.273,1.429-13.816,5.354-19.537,10.162
		c-3.19,2.105-5.225,5.83-8.667,7.534c-2.775,2.076-7.056-1.748-5.985-5.208c2.742-4.707,7.067-8.062,11.644-10.43
		c4.692-2.273,9.729-3.955,14.961-4.282c2.964,0.292,6.103-1.532,4.894-5.317c-1.334-3.703,4.133-3.133,3.197,0.203
		c-1.137,1.02-3.045,3.752-0.492,4.676c3.662,0.959,3.908-3.724,4.422-6.451c1.646-2.75,4.285,1.748,2.189,3.341
		c-1.584,0.412-2.751,2.457-0.639,3.419c3.097,1.7,5.143-1.484,5.229-4.564c1.313-3.431,5.367,0.922,2.422,2.547
		c-2.108,0.146-2.656,2.99-0.155,3.359c2.663,1.21,7.428,1.047,7.204-3.074c-1.453-1.598-0.801-4.744,1.587-3.217
		c3.184,0.855,0.879,4.797,3.632,6.028c3.684,1.696,0.333,4.546-0.27,6.84c2.012,4.354-3.783,2.653-5.267,4.646
		C223.143,205.599,222.264,205.625,221.615,205.023z"/>
	<path id="path7488" fill="#00BFBF" d="M179.395,253.127c-2.763,3.404-8.339,2.927-11.647,0.518
		c-2.964-4.699-9.423-6.391-11.941-11.303c-0.919-8.587,6.977-14.61,10.524-21.787c1.135-2.092,2.961-10.878,4.362-4.943
		c-0.217,5.023-5.51,9.543-2.568,14.521c4.747,5.048,5.371-5.287,10.986-3.439c8.89-0.351,2.847-8.728,0.62-12.543
		c2.562-6.115,10.316,1.973,14.753,3.051c4.14,3.946,11.534-0.595,6.972-5.051c-4.448-4.225-12.082-1.904-16.444-5.838
		c9.282-3.119,20.127-1.775,28.271,3.36c6.59,2.782,7.289,8.952,7.391,14.739c4.853,3.244,1.359,9.082-4.383,7.23
		c-5.693-1.959-3.144,8.857-10.176,6.826c-6.088-2.307-8.703-8.531-11.341-13.666c-1.671-3.562-4.419-10.523-9.844-7.788
		c2.306,5.529,7.786,9.181,10.567,14.451c3.254,4.752,1.606,12.765-5.283,13.498C183.078,242.07,183.187,250.188,179.395,253.127
		L179.395,253.127z M184.194,192.524L184.194,192.524c-5.649-0.554,4.124-5.22,5.583-7.461c1.777-3.707,7.237-8.677,3.426-12.468
		c-5.674-1.873-8.5,4.368-10.521,8.086c-2.445,2.295-3.624,10.458-7.256,9.146c1.887-4.615,3.121-9.532,2.955-14.49
		c-0.615-5.383-2.495-11.516,2.113-15.99c3.748-5.578,9.008,1.693,13.164-2.344c4.973-4.695,14.183-0.537,13.823,5.869
		c-3.106,5.137,6.228,7.061,3.552,12.811C207.222,186.039,195.174,191.156,184.194,192.524L184.194,192.524z M144.592,186.172
		c-2.818-0.983-5.82-1.623-8.847-1.532c-7.605-0.92-9.437,6.758-13.476,10.808c-6.397,3.209-6.746,11.75-2.787,16.779
		c2.589,5.02,10.128,4.237,12.785,8.896c0.328,5.857,4.776,11.975,11.493,12.558c6.273,0.029,11.615-4.132,15.484-8.344
		c3.233-3.976,6.136-8.662,6.662-13.669c-0.103-5.336-4.453-1.52-5.638,1.257c-1.308,4.989-12.473,6.451-10.482-0.312
		c3.025-6.082-4.023-1.066-7.742-2.058c-7.121-0.938-3.92-10.383,2.678-8.244c5.154,0.566,2.328-2.762,3.49-5.405
		c5.046-3.25,8.782,5.086,14.072,3.062C157.414,194.399,151.648,189.287,144.592,186.172L144.592,186.172z M147.421,154.453
		L147.421,154.453l-1.027-0.289l-1.062-0.187c-8.027-1.396-9.808,6.28-9.854,11.817c-6.248,2.746-5.764,10.813,0.016,14.244
		c5.506,3.099,11.89,4.767,17.207,8.242c4.69,1.646,7.623,7.862,11.718,8.518c-0.312-6.376-6.772-10.842-11.079-15.354
		c-6.112-4.111,2.431-9.006,5.711-4.055c1.197,4.631,4.481,2.292,5.724-0.702c4.648,0.347,5.253,7.505,5.753,11.108
		c1.015,1.464-2.523,8.324,0.403,5.947c3.599-8.883,5.249-19.496,0.142-28.198c-2.56-3.954-7.51-9.365-13.022-6.427
		C153.435,164.979,152.512,155.027,147.421,154.453L147.421,154.453z"/>
	<path id="path6656" fill="#00BFBF" d="M104.6,192.306c-1.198,3.325-5.315,5.286-9.01,5.408c-4.921,0.771-8.196-2.897-12.478-3.946
		c-4.215-0.62-9.744-1.527-10.726-5.783c-2.146-8.925,3.774-17.695,4.862-26.593c1.195-2.368-2.787-8.622,1.981-7.84
		c1.82,4.995,0.897,10.504,1.319,15.718c-0.151,4.309,8.154,5.684,8.324,0.607c-0.25-3.817,3.316-5.963,7.189-6.034
		c4.08-2.149,2.521-7.543-1.178-8.813c-2.465-1.461-6.119-3.259-5.227-6.457c1.334-2.855,5.746-0.877,8.435-1.193
		c4.209,0.191,8.278,1.133,12.493,1.189c3.246,0.133,8.113-2.414,6.553-5.596c-2.046-3.445-7.318-3.122-11.289-3.029
		c-3.833-0.672-7.447,1.807-11.271,1.69c-3.838-0.011-1.025-1.921,0.959-2.931c11.641-6.969,27.529-8.653,39.158-2.84
		c4.823,1.957,2.787,8.031,6.73,10.633c4.964,0.412,5.38,6.479,0.559,8.213c-2.701-0.396-9.049,0.19-7.457,4.039
		c2.906,3.514-2.637,8.306-6.976,7.697c-8.712-1.773-13.943-8.408-20.082-13.375c-2.238-2.48-7.841-5.019-10.537-1.162
		c2.88,2.851,6.707,4.77,10.399,6.729c6.076,2.595,12.213,7.261,11.908,13.865c0.029,4.779-5.973,8.022-10.892,8.051
		C105.087,184.011,107.786,188.822,104.6,192.306L104.6,192.306z M86.585,126.257c-1.674,3.073-5.371-2.379-1.621-2.405
		c2.764-2.944,4.633-6.447,5.753-10.041c0.702-3.569,2.327-7.405,0.764-10.828c-1.269-2.433-5.596-1.836-7.291,0.255
		c-3.842,5.941-4.04,12.742-5.69,19.142c-0.457,1.921,0.056,4.873-2.756,5.586c-0.615-1.247,0.062-3.879-0.219-5.646
		c0.061-5.644-1.337-11.221-4.363-16.021c-3.437-4.383-4.149-10.84-0.367-15.708c1.512-2.64,5.38-3.517,8.227-2.659
		c3.161,0.733,4.602-2.639,5.623-4.619c4.135-4.231,12.092-4.046,15.807-0.208c1.993,1.989,0.946,4.962,1.851,7.305
		c1.456,1.782,4.674,0.483,6.358,1.986c2.527,3.551,2.473,8.224,0.941,12.334C105.753,114.226,96.515,121.507,86.585,126.257
		L86.585,126.257z M38.724,134.906c-6.298,0.07-13.54,1.647-17.791,6.39c-2.801,4.233-1.15,9.917-5.602,13.556
		c-4.119,6.012-1.308,13.732,4.609,17.275c3.967,2.355,8.773,3.195,13.715,2.633c5.945-0.148,5.631,6.645,10.105,8.472
		c4.33,3.372,11.592,3.781,16.688,0.498c8.664-6.813,13.711-17.188,12.852-26.954c1.294-2.718-2.648-8.961-5.102-4.303
		c0.023,4.803-2.693,10.9-8.664,12.287c-5.095,0.886-5.644-4.38-4.033-7.5c-2.481-2.139-5.181,3.535-8.123,4.037
		c-4.311,2.201-10.623-1.078-8.315-5.51c1.255-4.807,9.841-2.489,10.247-7.232c-5.329-0.202-1.572-6.876,2.561-5.721
		c4.094,0.109,8.656,2.693,12.487-0.186C56.614,138.645,48.023,135.463,38.724,134.906L38.724,134.906z M29.661,100.214
		c-1.443,0.003-2.902,0.297-4.266,0.806c-3.91,1.276-6.964,4.664-6.699,8.319c-1.199,3.168,4.081,5.639,1.604,8.33
		c-3.704,1.762-3.98,6.174-2.261,8.921c2.425,4.496,8.46,5.887,13.872,6.025c9.121-0.007,18.308,0.909,26.52,4.03
		c2.734,0.102,5.225,3.919,7.762,2.088c-2.97-4.862-8.473-7.949-14.125-10.125c-3.107-1.58-7.882-1.906-9.035-5.381
		c-1.097-3.118,3.493-5.058,6.258-3.747c2.935,0.06,5.472,4.325,8.097,1.824c0.214-2.046-0.656-6.207,3.419-4.573
		c4.857,3.101,8.286,7.919,9.312,13.261c0.541,0.972-0.256,6.411,1.625,3.85c0.688-6.656-0.092-13.384-2.362-19.583
		c-2.683-7.894-9.864-14.938-19.657-15.879c-4.456-0.265-7.489,3.764-8.79,7.078C38.079,102.669,34.266,100.193,29.661,100.214
		L29.661,100.214z"/>
	<path id="path6658" fill="#1A1AE0" d="M116.78,125.717c-2.742-1.47-1.269-5.97-4.836-6.646c-2.249-0.235-6.052-0.986-6.785,1.471
		c0.485,2.634,4.918,0.249,4.938,3.478c-0.582,3.446-3.761,0.468-4.884-1.521c-1.698-2.372-6.838-1.41-5.926,1.448
		c1.76-0.202,6.108,2.285,4.101,4.507c-2.974,1.397-4.036-5.301-7.124-3.791c-5.635,4.363-9.438,10.619-12.102,17.305
		c-1.765,3.219-1.746,7.375-3.92,10.349c-1.416,3.016-6.968,1.465-7.697-2.047c0.127-5.324,2.275-10.132,5.117-14.174
		c2.986-4.009,6.557-7.642,10.945-10.161s4.567-3.956,1.702-6.784c-2.933-2.7,2.088-4.528,2.875-1.183
		c-0.499,1.384-0.847,4.61,1.813,4.338c3.642-0.714,1.611-4.954,0.75-7.582c0.111-3.13,4.56-0.284,3.504,2.016
		c-1.18,1.039-1.213,3.342,1.084,3.292c3.504,0.18,3.756-3.505,2.354-6.26c-0.504-3.589,5.105-1.475,3.325,1.215
		c-1.763,1.029-0.876,3.773,1.476,3.033c2.893-0.068,6.953-2.245,4.784-5.787c-2.028-0.791-2.97-3.848-0.163-3.517
		c3.176-0.603,3.062,3.859,6.045,3.774c4.012-0.074,2.467,3.87,3.043,6.154c3.836,2.985-2.014,3.954-2.347,6.347
		C118.385,125.569,117.634,125.968,116.78,125.717z"/>
	<path id="path6662" fill="#5FBF00" d="M178.266,129.081c1.02-0.236,2.052-0.432,3.09-0.59c6.266-0.856,13.035-0.718,18.543,1.769
		c1.723,0.878,3.866,2.055,3.773,3.927c-0.924,3.748-2.225,7.454-3.885,11.06c-1.209,3.213-4.041,5.937-7.488,7.812
		c-2.254,1.192-5.035,2.595-7.732,1.884c-1.607-0.986-2.638-2.455-4.27-3.42c-2.843-1.88-6.813-1.662-10.343-1.338
		c1.713-1.753,3.252-3.643,5.335-5.138c4.111-3.05,9.778-3.499,14.756-4.981c1.722-0.662,4.004-1.054,4.88-2.578
		c0.911-1.979-2.267-2.438-4.003-2.582c-4.01-0.219-8.219,0.566-11.625,2.491c-5.604,3.109-9.876,7.587-13.046,12.378
		c-0.587,1.608-1.083-0.051-1.496-0.777c-0.903-3.131,0.043-6.459,1.186-9.551C167.451,134.629,172.264,130.389,178.266,129.081
		L178.266,129.081z M141.099,104.249c0.458-0.247,0.919-0.491,1.393-0.715c1.988-1.577,4.223-0.217,4.662,1.586
		c4.059,5.34,10.529,9.251,13.904,14.984c2.865,4.47,4.2,10.052,1.518,14.992c-1.106,1.777-2.556,3.991-5.219,4.34
		c-2.849-0.089-5.091-1.814-6.566-3.611c-3.49-4.744-4.414-10.416-5.381-15.863c-0.478-2.296-0.562-4.729-1.748-6.85
		c-1.598-2.079-3.914,1.05-4.408,2.428c-1.791,4.111-0.535,8.483,1.227,12.32c0.905,2.401,2.835,4.418,3.663,6.84
		c-2.508-0.073-4.896-0.887-6.776-2.148c-4.145-2.987-6.061-7.615-6.201-12.118C130.911,114.271,134.846,108.006,141.099,104.249
		L141.099,104.249z"/>
	<path id="svg_4" fill="#1A1AE0" d="M63.977,219.543c1.851,2.463-1.597,5.947,1.382,8.029c1.965,1.137,5.128,3.383,6.942,1.451
		c0.776-2.593-4.421-2.247-2.943-5.189c2.136-2.895,3.688,1.121,3.802,3.389c0.469,2.855,5.657,4.094,6.141,1.122
		c-1.717-0.539-4.577-4.588-1.693-5.782c3.393-0.047,1.266,6.477,4.816,6.374c7.223-1.649,13.633-5.771,19.193-10.751
		c3.121-2.199,5.031-5.984,8.416-7.793c2.707-2.158,7.11,1.533,6.154,5.023c-2.585,4.789-6.798,8.273-11.295,10.779
		c-4.615,2.416-9.596,4.25-14.812,4.734c-2.972-0.201-6.049,1.718-4.717,5.466c1.454,3.66-4.027,3.257-3.201-0.106
		c1.102-1.055,2.92-3.842,0.336-4.688c-3.69-0.848-3.782,3.84-4.207,6.583c-1.556,2.799-4.34-1.617-2.299-3.273
		c1.57-0.459,2.67-2.539,0.527-3.437c-3.152-1.606-5.092,1.64-5.077,4.72c-1.198,3.469-5.396-0.758-2.505-2.471
		c2.104-0.211,2.559-3.068,0.046-3.363c-2.702-1.127-7.458-0.818-7.1,3.293c1.506,1.553,0.956,4.717-1.479,3.264
		c-3.211-0.758-1.037-4.768-3.828-5.916c-3.738-1.584-0.483-4.531,0.045-6.844c-2.156-4.289,3.691-2.766,5.108-4.804
		C62.43,219.021,63.309,218.967,63.977,219.543z"/>
</g>
</svg>
