<?xml version="1.0" encoding="UTF-8" standalone="no"?>
<svg width="100px" height="100px" viewBox="0 0 100 100" version="1.1" xmlns="http://www.w3.org/2000/svg" xmlns:xlink="http://www.w3.org/1999/xlink">
    <!-- Generator: Sketch 39.1 (31720) - http://www.bohemiancoding.com/sketch -->
    <title>steward</title>
    <desc>Created with Sketch.</desc>
    <defs></defs>
    <g id="assets" stroke="none" stroke-width="1" fill="none" fill-rule="evenodd">
        <g id="steward">
            <g>
                <circle id="jacket" fill="#233640" cx="50" cy="50" r="50"></circle>
                <path d="M85,66 L85,61 L98.7860984,61 C98.4042031,62.7010739 97.9356162,64.3693681 97.3852202,66 L85,66 Z" id="pocket-bottom" fill="#6F828C"></path>
                <path d="M89,55.981055 C86.6294326,56.6309115 85.0282556,58.5669766 85,61 L98.7860984,61 C99.2242725,59.0408488 99.5483212,57.0383812 99.75087,55 L89,55.981055 Z" id="pocket-top" fill="#FFFFFF"></path>
                <polygon id="shirt" fill="#ECECEC" points="56.03956 68.8615399 74 6 57.0663761 18 50.0130783 9 42.9587445 18 26 6 43.96044 68.8615399 56.03956 68.8615399"></polygon>
                <path d="M44,16.0487005 L44,69.2658062 L49,85 L51.105775,85 L56,69.2658062 L56,16.0504996 L50.0005883,8" id="buttons-bg" fill="#FFFFFF"></path>
                <polygon id="collar-inner" fill="#CCCCCC" points="50 0 57 18 50 9 43 18"></polygon>
                <path d="M50,4.61852778e-13 C41.3095618,4.61852778e-13 33.1336045,2.18848285 26,6 C41.1389009,16.7222672 42.9543505,18 42.9543505,18 C42.9543505,18 46.1903014,9.81161785 50,4.61852778e-13 Z M50,4.61852778e-13 C58.6904382,4.61852778e-13 66.8663955,2.18848285 74,6.04099682 C58.8610991,16.7222672 57.0456495,18 57.0456495,18 C57.0456495,18 53.8096986,9.81161785 50,4.61852778e-13 Z" id="collar" fill="#FFFFFF"></path>
                <path d="M50,27 C51.1045695,27 52,26.1045695 52,25 C52,23.8954305 51.1045695,23 50,23 C48.8954305,23 48,23.8954305 48,25 C48,26.1045695 48.8954305,27 50,27 L50,27 L50,27 Z M50,47 C51.1045695,47 52,46.1045695 52,45 C52,43.8954305 51.1045695,43 50,43 C48.8954305,43 48,43.8954305 48,45 C48,46.1045695 48.8954305,47 50,47 L50,47 L50,47 Z M50,67 C51.1045695,67 52,66.1045695 52,65 C52,63.8954305 51.1045695,63 50,63 C48.8954305,63 48,63.8954305 48,65 C48,66.1045695 48.8954305,67 50,67 L50,67 L50,67 Z" id="buttons" fill="#6F828C"></path>
            </g>
        </g>
    </g>
</svg>
